# Blender v2.80 (sub 75) OBJ File: 'chem devices.blend'
# www.blender.org
mtllib acid_basin.mtl
o ACID_BASIN_BODY_Cube.057
v -1.000000 0.000000 0.875500
v 0.000000 0.000000 1.000000
v 0.125000 0.500000 0.125000
v -1.000000 0.000000 2.000000
v 0.000000 0.000000 2.000000
v 1.000000 0.000000 1.000000
v -0.875000 0.500000 0.875000
v -0.625000 0.812500 1.625000
v -0.125000 0.500000 0.875000
v -0.437500 0.750000 1.562500
v -0.437500 0.750000 1.437500
v -0.562500 0.750000 1.437500
v -0.562500 0.750000 1.562500
v -0.312500 1.062500 1.687500
v -0.312500 1.062500 1.312500
v -0.687500 1.062500 1.312500
v -0.687500 1.062500 1.687500
v -0.250000 1.000000 1.750000
v -0.250000 1.000000 1.250000
v -0.750000 1.000000 1.250000
v -0.750000 1.000000 1.750000
v -0.375000 1.062500 1.625000
v -0.375000 1.062500 1.375000
v -0.625000 1.062500 1.375000
v -0.625000 1.062500 1.625000
v -0.187500 0.875000 1.812500
v -0.187500 0.875000 1.187500
v -0.812500 0.875000 1.187500
v -0.812500 0.875000 1.812500
v -0.250000 0.875000 1.750000
v -0.250000 0.875000 1.250000
v -0.750000 0.875000 1.250000
v -0.750000 0.875000 1.750000
v -0.187500 0.500000 1.812500
v -0.187500 0.500000 1.187500
v -0.812500 0.500000 1.187500
v -0.812500 0.500000 1.812500
v -1.000000 0.125000 0.875500
v -0.937500 0.437500 0.875500
v -1.000000 0.000000 0.000000
v 0.000000 0.125000 1.000000
v -0.937500 0.187500 1.937500
v -0.062500 0.187500 1.937500
v 0.937500 0.187500 0.937500
v -0.937500 0.187500 0.875500
v -1.000000 0.125000 2.000000
v -0.062500 0.187500 1.000000
v 0.000000 0.125000 2.000000
v 1.000000 0.125000 0.000000
v 1.000000 0.000000 0.000000
v 1.000000 0.125000 1.000000
v 0.000000 0.187500 0.937500
v -0.937500 0.187500 0.062500
v -0.062500 0.437500 1.000000
v -0.937500 0.437500 1.937500
v -0.062500 0.437500 1.937500
v 0.124500 0.000000 0.000000
v 0.000000 0.437500 0.937500
v 0.937500 0.437500 0.937500
v -0.937500 0.437500 0.062500
v -0.875000 0.500000 1.000000
v -0.125000 0.500000 1.000000
v -0.875000 0.500000 1.875000
v -0.125000 0.500000 1.875000
v 0.000000 0.500000 0.875000
v 0.875000 0.500000 0.875000
v -0.812500 1.125000 0.812500
v -0.812500 1.125000 0.187500
v -0.187500 1.125000 0.187500
v -0.187500 1.125000 0.812500
v -0.875000 1.125000 0.875000
v -0.875000 1.125000 0.125000
v -0.125000 1.125000 0.125000
v -0.125000 1.125000 0.875000
v -0.687500 1.312500 0.687500
v -0.687500 1.312500 0.312500
v -0.312500 1.312500 0.312500
v -0.312500 1.312500 0.687500
v -0.812500 1.250000 0.812500
v -0.812500 1.250000 0.187500
v -0.187500 1.250000 0.187500
v -0.187500 1.250000 0.812500
v -0.750000 1.312500 0.750000
v -0.750000 1.312500 0.250000
v -0.250000 1.312500 0.250000
v -0.250000 1.312500 0.750000
v -0.562500 0.937500 0.562500
v -0.562500 0.937500 0.437500
v -0.437500 0.937500 0.437500
v -0.437500 0.937500 0.562500
v -0.687500 1.062500 0.687500
v -0.687500 1.062500 0.312500
v -0.312500 1.062500 0.312500
v -0.312500 1.062500 0.687500
v -0.625000 0.812500 1.375000
v -0.375000 0.812500 1.375000
v -0.375000 0.812500 1.625000
v 0.000000 0.500000 0.250000
v 0.000000 0.500000 0.750000
v 0.687500 0.500000 0.250000
v 0.687500 0.500000 0.750000
v 0.750000 0.500000 0.312500
v 0.750000 0.500000 0.687500
v 0.000000 0.875000 0.187500
v 0.687500 0.875000 0.187500
v 0.687500 0.875000 0.812500
v 0.000000 0.875000 0.812500
v 0.812500 0.875000 0.312500
v 0.812500 0.875000 0.687500
v 0.000000 0.875000 0.687500
v 0.625000 0.812500 0.625000
v 0.625000 0.812500 0.375000
v 0.000000 0.875000 0.312500
v 0.000000 0.812500 0.375000
v 0.000000 0.812500 0.625000
v 0.687500 0.875000 0.312500
v 0.687500 0.875000 0.687500
v -0.125000 0.500000 0.250000
v -0.125000 0.500000 0.750000
v -0.125000 0.875000 0.187500
v -0.125000 0.875000 0.812500
v -0.125000 0.875000 0.687500
v -0.125000 0.875000 0.312500
v -0.125000 0.812500 0.375000
v -0.125000 0.812500 0.625000
v 0.000000 1.000000 0.687500
v 0.000000 1.000000 0.625000
v 0.000000 1.000000 0.375000
v 0.000000 1.000000 0.312500
v -0.125000 1.000000 0.687500
v -0.125000 1.000000 0.625000
v -0.125000 1.000000 0.375000
v -0.125000 1.000000 0.312500
v -0.109375 0.812500 0.625000
v 0.000000 1.062500 0.625000
v 0.000000 1.062500 0.375000
v -0.109375 1.000000 0.625000
v -0.109375 0.812500 0.375000
v -0.125000 1.062500 0.625000
v -0.125000 1.062500 0.375000
v -0.109375 1.000000 0.375000
v -0.062500 0.812500 0.625000
v -0.062500 0.937500 0.625000
v -0.062500 0.812500 0.375000
v -0.062500 0.937500 0.375000
v 0.000000 0.812500 0.812500
v 0.000000 0.812500 0.187500
v 0.812500 0.812500 0.687500
v 0.687500 0.812500 0.812500
v 0.812500 0.812500 0.312500
v 0.687500 0.812500 0.187500
v -0.125000 0.812500 0.812500
v -0.125000 0.812500 0.187500
v 0.000000 0.750000 0.250000
v 0.687500 0.750000 0.750000
v 0.687500 0.750000 0.250000
v -0.125000 0.750000 0.250000
v 0.000000 0.750000 0.750000
v 0.750000 0.750000 0.687500
v 0.750000 0.750000 0.312500
v -0.125000 0.750000 0.750000
v -0.531250 0.531250 1.062500
v -0.531250 0.593750 1.062500
v -0.531250 0.593750 1.000000
v -0.468750 0.531250 1.062500
v -0.468750 0.593750 1.062500
v -0.468750 0.593750 1.000000
v -0.718750 0.531250 1.062500
v -0.718750 0.593750 1.062500
v -0.718750 0.593750 1.000000
v -0.656250 0.531250 1.062500
v -0.656250 0.593750 1.062500
v -0.656250 0.593750 1.000000
v -0.531250 0.531250 1.125000
v -0.531250 0.593750 1.125000
v -0.468750 0.593750 1.125000
v -0.468750 0.531250 1.125000
v -0.718750 0.531250 1.125000
v -0.718750 0.593750 1.125000
v -0.656250 0.593750 1.125000
v -0.656250 0.531250 1.125000
v -0.562500 0.500000 1.187500
v -0.562500 0.625000 1.187500
v -0.437500 0.625000 1.187500
v -0.437500 0.500000 1.187500
v -0.750000 0.500000 1.187500
v -0.750000 0.625000 1.187500
v -0.625000 0.625000 1.187500
v -0.625000 0.500000 1.187500
v -0.531250 0.781250 1.062500
v -0.531250 0.781250 1.000000
v -0.468750 0.781250 1.000000
v -0.468750 0.781250 1.062500
v -0.718750 0.906250 1.062500
v -0.718750 0.906250 1.000000
v -0.656250 0.906250 1.000000
v -0.656250 0.906250 1.062500
v -0.718750 0.968750 1.000000
v -0.656250 0.968750 1.000000
v -0.468750 0.843750 1.000000
v -0.531250 0.843750 1.000000
v -0.531250 0.781250 0.937500
v -0.468750 0.781250 0.937500
v -0.718750 0.906250 0.937500
v -0.656250 0.906250 0.937500
v -0.718750 0.968750 0.937500
v -0.656250 0.968750 0.937500
v -0.531250 0.843750 0.937500
v -0.468750 0.843750 0.937500
v -0.562500 0.750000 0.875000
v -0.437500 0.750000 0.875000
v -0.750000 0.875000 0.875000
v -0.625000 0.875000 0.875000
v -0.750000 1.000000 0.875000
v -0.625000 1.000000 0.875000
v -0.562500 0.875000 0.875000
v -0.437500 0.875000 0.875000
v -0.343750 0.531250 1.062500
v -0.343750 0.593750 1.062500
v -0.343750 0.593750 1.000000
v -0.281250 0.531250 1.062500
v -0.281250 0.593750 1.062500
v -0.281250 0.593750 1.000000
v -0.343750 0.531250 1.125000
v -0.343750 0.593750 1.125000
v -0.281250 0.593750 1.125000
v -0.281250 0.531250 1.125000
v -0.375000 0.500000 1.187500
v -0.375000 0.625000 1.187500
v -0.250000 0.625000 1.187500
v -0.250000 0.500000 1.187500
v -0.343750 0.656250 1.062500
v -0.343750 0.656250 1.000000
v -0.281250 0.656250 1.000000
v -0.281250 0.656250 1.062500
v -0.281250 0.718750 1.000000
v -0.343750 0.718750 1.000000
v -0.343750 0.656250 0.937500
v -0.281250 0.656250 0.937500
v -0.343750 0.718750 0.937500
v -0.281250 0.718750 0.937500
v -0.375000 0.625000 0.875000
v -0.250000 0.625000 0.875000
v -0.375000 0.750000 0.875000
v -0.250000 0.750000 0.875000
v -0.062500 0.437500 1.125000
v 0.000000 0.000000 1.125000
v -1.000000 0.000000 1.125000
v -1.000000 0.125000 1.125000
v 0.000000 0.125000 1.125000
v -0.937500 0.437500 1.125000
v -0.937500 0.187500 1.125000
v -0.062500 0.187500 1.125000
v -0.125000 0.500000 1.125000
v -0.875000 0.500000 1.125000
v 0.124500 0.125000 0.000000
v 0.124500 0.437500 0.062500
v 0.124500 0.187500 0.062500
v -1.000000 0.125000 0.000000
v 0.937500 0.187500 0.062500
v 0.937500 0.437500 0.062500
v 0.000000 0.500000 0.125000
v -0.875000 0.500000 0.125000
v 0.875000 0.500000 0.125000
v -0.125000 0.000000 0.000000
v -0.125000 0.125000 0.000000
v -0.125000 0.437500 0.062500
v -0.125000 0.187500 0.062500
v -0.125000 0.500000 0.125000
v 0.125000 0.000000 1.000000
v 0.125000 0.125000 1.000000
v 0.125000 0.187500 0.937500
v 0.125000 0.437500 0.937500
v 0.125000 0.500000 0.875000
v -0.062500 0.937500 0.500000
v -0.062500 0.812500 0.500000
v -0.125000 0.812500 1.593750
v -0.125000 0.562500 1.593750
v -0.125000 0.562500 1.468750
v -0.125000 0.562500 1.531250
v -0.125000 0.812500 1.468750
v -0.125000 0.812500 1.531250
v -0.125000 0.562500 1.406250
v -0.125000 0.812500 1.406250
v -0.125000 0.875000 1.468750
v -0.125000 0.875000 1.531250
v -0.187500 0.812500 1.593750
v -0.187500 0.562500 1.593750
v -0.187500 0.562500 1.406250
v -0.187500 0.812500 1.406250
v -0.187500 0.875000 1.468750
v -0.187500 0.875000 1.531250
v -0.171875 0.562500 1.468750
v -0.171875 0.562500 1.531250
v -0.171875 0.812500 1.468750
v -0.171875 0.812500 1.531250
v -0.125000 0.500000 1.593750
v -0.125000 0.500000 1.468750
v -0.125000 0.500000 1.531250
v -0.125000 0.500000 1.406250
v -0.187500 0.500000 1.593750
v -0.187500 0.500000 1.406250
v -0.147097 0.687500 0.985485
v -0.147097 0.937500 0.985485
v -0.058709 0.687500 0.897097
v -0.102903 0.687500 0.941291
v -0.058709 0.937500 0.897097
v -0.102903 0.937500 0.941291
v -0.014515 0.687500 0.852903
v -0.014515 0.937500 0.852903
v -0.058709 1.000000 0.897097
v -0.102903 1.000000 0.941291
v -0.191291 0.937500 0.941291
v -0.191291 0.687500 0.941291
v -0.058709 0.687500 0.808709
v -0.058709 0.937500 0.808709
v -0.102903 1.000000 0.852903
v -0.147097 1.000000 0.897097
v -0.091854 0.687500 0.863951
v -0.136048 0.687500 0.908146
v -0.091854 0.937500 0.863951
v -0.136048 0.937500 0.908146
v -0.279680 0.687500 0.852903
v -0.058709 0.625000 0.897097
v -0.102903 0.625000 0.941291
v -0.102903 0.625000 0.852903
v -0.279680 0.937500 0.852903
v -0.147097 0.625000 0.897097
v -0.147097 0.687500 0.720320
v -0.147097 0.937500 0.720320
v -0.191291 1.000000 0.764515
v -0.235485 1.000000 0.808709
v -0.191291 0.625000 0.764515
v -0.235485 0.625000 0.808709
vt 0.062500 0.062500
vt 0.062500 0.000000
vt 0.500000 0.000000
vt 0.500000 0.062500
vt 0.156250 0.062500
vt 0.156250 0.000000
vt 0.281250 0.000000
vt 0.281250 0.062500
vt 0.062500 0.062500
vt 0.062500 0.000000
vt 0.500000 0.000000
vt 0.500000 0.062500
vt -0.000000 0.906250
vt 0.031250 0.906250
vt 0.031250 0.937500
vt -0.000000 0.937500
vt 0.031250 0.375000
vt 0.437500 0.375000
vt 0.437500 0.343750
vt 0.000000 0.343750
vt 0.218750 0.062500
vt 0.281250 0.062500
vt 0.281250 0.187500
vt 0.218750 0.187500
vt 0.531250 0.375000
vt 0.593750 0.375000
vt 0.625000 0.406250
vt 0.500000 0.406250
vt 0.593750 0.375000
vt 0.625000 0.406250
vt 0.531250 0.375000
vt 0.500000 0.406250
vt 0.625000 0.531250
vt 0.500000 0.531250
vt 0.625000 0.531250
vt 0.500000 0.531250
vt 0.343750 0.875000
vt 0.406250 0.875000
vt 0.406250 0.937500
vt 0.343750 0.937500
vt 0.593750 1.000000
vt 0.468750 1.000000
vt 0.437500 0.968750
vt 0.625000 0.968750
vt 0.468750 1.000000
vt 0.437500 0.968750
vt 0.593750 1.000000
vt 0.625000 0.968750
vt 0.406250 0.937500
vt 0.656250 0.937500
vt 0.406250 0.937500
vt 0.656250 0.937500
vt 0.406250 0.875000
vt 0.656250 0.875000
vt 0.406250 0.875000
vt 0.656250 0.875000
vt 0.375000 0.843750
vt 0.687500 0.843750
vt 0.375000 0.843750
vt 0.687500 0.843750
vt 0.375000 0.656250
vt 0.687500 0.656250
vt 0.687500 0.843750
vt 0.375000 0.843750
vt 0.375000 0.656250
vt 0.687500 0.656250
vt 0.687500 0.843750
vt 0.375000 0.843750
vt 0.375000 0.656250
vt 0.687500 0.656250
vt 0.375000 0.656250
vt 0.687500 0.656250
vt 0.156250 0.062500
vt 0.281250 0.062500
vt 0.281250 0.187500
vt 0.156250 0.187500
vt 0.500000 -0.000000
vt 0.500000 0.062500
vt 0.000000 0.062500
vt 0.000000 -0.000000
vt 0.437500 0.000000
vt 0.437500 0.062500
vt -0.000000 0.062500
vt -0.000000 -0.000000
vt 0.500000 -0.000000
vt 0.500000 0.062500
vt 0.000000 0.062500
vt 0.000000 -0.000000
vt 0.031250 0.343750
vt 0.437500 0.343750
vt 0.437500 0.375000
vt 0.062500 0.375000
vt 0.437500 -0.000000
vt 0.437500 0.062500
vt -0.000000 0.062500
vt -0.000000 0.000000
vt 0.437500 0.343750
vt 0.437500 0.375000
vt 0.562500 0.375000
vt 0.562500 0.343750
vt 0.437500 0.375000
vt 0.031250 0.375000
vt 0.000000 0.343750
vt 0.437500 0.343750
vt 0.468750 0.343750
vt 0.031250 0.343750
vt 0.000000 0.312500
vt 0.500000 0.312500
vt 0.218750 0.062500
vt 0.250000 0.062500
vt 0.250000 0.187500
vt 0.218750 0.187500
vt 0.437500 0.343750
vt 0.031250 0.343750
vt 0.062500 0.375000
vt 0.437500 0.375000
vt 0.468750 0.343750
vt 0.031250 0.343750
vt 0.000000 0.312500
vt 0.500000 0.312500
vt 0.562500 0.375000
vt 0.500000 0.375000
vt 0.500000 0.343750
vt 0.562500 0.343750
vt 0.500000 0.312500
vt 0.531250 0.343750
vt 0.500000 0.343750
vt -0.000000 0.062500
vt 0.406250 0.062500
vt 0.406250 0.187500
vt -0.000000 0.187500
vt 0.031250 0.062500
vt 0.437500 0.062500
vt 0.437500 0.187500
vt 0.031250 0.187500
vt 0.000000 0.062500
vt 0.406250 0.062500
vt 0.406250 0.187500
vt 0.000000 0.187500
vt 0.031250 0.062500
vt 0.437500 0.062500
vt 0.437500 0.187500
vt 0.031250 0.187500
vt 0.031250 0.062500
vt 0.437500 0.062500
vt 0.437500 0.187500
vt 0.031250 0.187500
vt -0.000000 0.062500
vt 0.437500 0.062500
vt 0.437500 0.187500
vt -0.000000 0.187500
vt 0.562500 0.375000
vt 0.437500 0.375000
vt 0.437500 0.343750
vt 0.562500 0.343750
vt -0.000000 0.062500
vt 0.437500 0.062500
vt 0.437500 0.187500
vt -0.000000 0.187500
vt 0.031250 0.312500
vt 0.468750 0.312500
vt 0.437500 0.343750
vt 0.062500 0.343750
vt 0.437500 0.343750
vt 0.031250 0.343750
vt 0.062500 0.375000
vt 0.437500 0.375000
vt 0.031250 0.375000
vt 0.000000 0.343750
vt 0.437500 0.343750
vt 0.031250 0.343750
vt 0.062500 0.375000
vt 0.437500 0.375000
vt 0.437500 0.343750
vt 0.500000 0.343750
vt 0.500000 0.375000
vt 0.437500 0.375000
vt 0.031250 0.312500
vt 0.468750 0.312500
vt 0.437500 0.343750
vt 0.062500 0.343750
vt 0.562500 0.312500
vt 0.593750 0.343750
vt 0.593750 0.375000
vt 0.531250 0.312500
vt 0.437500 0.000000
vt 0.437500 0.062500
vt 0.000000 0.062500
vt -0.000000 -0.000000
vt 0.625000 0.437500
vt 0.625000 0.375000
vt 1.000000 0.375000
vt 1.000000 0.437500
vt 0.718750 0.531250
vt 0.625000 0.468750
vt 1.000000 0.468750
vt 0.906250 0.531250
vt 0.000000 0.500000
vt 0.062500 0.500000
vt 0.062500 0.437500
vt 0.000000 0.437500
vt 1.000000 0.312500
vt 0.625000 0.312500
vt -0.000000 0.937500
vt 0.062500 1.000000
vt -0.000000 1.000000
vt 0.000000 0.531250
vt 0.375000 0.531250
vt 0.375000 0.843750
vt 0.000000 0.843750
vt 0.343750 0.875000
vt 0.031250 0.875000
vt 0.031250 0.937500
vt 0.343750 0.937500
vt -0.000000 0.531250
vt 0.375000 0.531250
vt 0.375000 0.843750
vt -0.000000 0.843750
vt 0.000000 0.531250
vt 0.375000 0.531250
vt 0.375000 0.843750
vt 0.000000 0.843750
vt -0.000000 0.531250
vt 0.375000 0.531250
vt 0.375000 0.843750
vt -0.000000 0.843750
vt 0.031250 0.875000
vt 0.343750 0.875000
vt 0.687500 0.812500
vt 0.875000 0.812500
vt 0.875000 0.687500
vt 0.687500 0.687500
vt 0.031250 0.937500
vt 0.343750 0.937500
vt 0.062500 0.968750
vt 0.312500 0.968750
vt 0.062500 0.968750
vt 0.312500 0.968750
vt 0.093750 1.000000
vt 0.281250 1.000000
vt 0.093750 1.000000
vt 0.281250 1.000000
vt 0.343750 0.875000
vt 0.406250 0.875000
vt 0.406250 0.937500
vt 0.343750 0.937500
vt 0.687500 0.812500
vt 0.875000 0.812500
vt 0.875000 0.687500
vt 0.687500 0.687500
vt 0.812500 0.625000
vt 0.750000 0.625000
vt 0.812500 0.625000
vt 0.750000 0.625000
vt 0.062500 0.062500
vt 0.062500 0.000000
vt 0.500000 0.000000
vt 0.500000 0.062500
vt 0.937500 0.062500
vt 0.593750 0.062500
vt 0.593750 0.000000
vt 0.937500 0.000000
vt 0.937500 0.312500
vt 0.593750 0.312500
vt 0.593750 0.250000
vt 0.937500 0.250000
vt 1.000000 0.250000
vt 0.406250 0.406250
vt 0.468750 0.406250
vt 0.468750 0.437500
vt 0.406250 0.437500
vt -0.000000 0.500000
vt 0.187500 0.500000
vt 0.187500 0.531250
vt -0.000000 0.531250
vt 0.062500 0.406250
vt 0.062500 0.437500
vt 0.406250 0.406250
vt 0.062500 0.406250
vt 0.062500 0.437500
vt 0.406250 0.437500
vt 0.468750 0.406250
vt 0.468750 0.437500
vt 1.000000 0.062500
vt 0.906250 0.218750
vt 0.593750 0.218750
vt 0.593750 0.093750
vt 0.906250 0.093750
vt 0.500000 0.312500
vt 0.500000 0.187500
vt 0.437500 0.187500
vt 0.437500 0.312500
vt 0.531250 0.312500
vt 0.531250 0.250000
vt 0.531250 0.218750
vt 0.531250 0.093750
vt 0.781250 0.531250
vt 0.718750 0.531250
vt 0.718750 0.625000
vt 0.781250 0.625000
vt 0.000000 0.437500
vt 0.000000 0.406250
vt 0.781250 0.531250
vt 0.843750 0.531250
vt 0.843750 0.593750
vt 0.781250 0.593750
vt 0.531250 0.062500
vt 0.531250 0.000000
vt 0.875000 0.593750
vt 1.000000 0.593750
vt 1.000000 0.625000
vt 0.875000 0.625000
vt 0.500000 0.406250
vt 0.468750 0.375000
vt 0.437500 0.375000
vt 0.500000 0.437500
vt 0.843750 0.562500
vt 0.875000 0.531250
vt 0.875000 0.625000
vt 0.843750 0.625000
vt 0.578125 0.531250
vt 0.578125 0.656250
vt 0.703125 0.656250
vt 0.703125 0.531250
vt 0.718750 0.531250
vt 0.781250 0.531250
vt 0.781250 0.625000
vt 0.718750 0.625000
vt 0.843750 0.531250
vt 0.781250 0.531250
vt 0.781250 0.593750
vt 0.843750 0.593750
vt 0.875000 0.531250
vt 0.843750 0.562500
vt 0.843750 0.625000
vt 0.875000 0.625000
vt 0.062500 0.375000
vt 0.000000 0.375000
vt 0.843750 0.625000
vt 0.781250 0.625000
vt 0.843750 0.625000
vt 0.781250 0.625000
vt 0.031250 0.875000
vt 0.031250 0.906250
vt -0.000000 0.906250
vt -0.000000 0.875000
vt 0.875000 0.656250
vt 0.875000 0.531250
vt 1.000000 0.531250
vt 0.000000 0.406250
vt 0.000000 0.437500
vt 1.000000 0.687500
vt 0.875000 0.687500
vt 0.875000 0.656250
vt 0.406250 0.375000
vt 0.062500 0.375000
vt 0.406250 0.375000
vt 0.187500 0.500000
vt 0.375000 0.500000
vt 0.375000 0.531250
vt 0.187500 0.531250
vt 0.468750 0.375000
vt 0.500000 0.406250
vt 0.500000 0.437500
vt 0.437500 0.375000
vt 0.406250 0.187500
vt 0.437500 0.187500
vt 0.437500 0.312500
vt 0.406250 0.312500
vt 0.375000 0.531250
vt 0.562500 0.531250
vt 0.562500 0.656250
vt 0.375000 0.656250
vt 0.062500 0.187500
vt 0.062500 0.312500
vt 0.406250 0.187500
vt 0.062500 0.187500
vt 0.062500 0.312500
vt 0.406250 0.312500
vt -0.000000 0.312500
vt -0.000000 0.187500
vt 0.437500 0.187500
vt 0.437500 0.312500
vt 0.000000 0.375000
vt 1.000000 0.718750
vt 1.000000 0.750000
vt 0.968750 0.750000
vt 0.968750 0.718750
vt 0.875000 0.812500
vt 0.875000 0.843750
vt 0.906250 0.843750
vt 0.906250 0.843750
vt 0.875000 0.843750
vt 0.875000 0.812500
vt 0.906250 0.812500
vt 0.906250 0.781250
vt 0.875000 0.781250
vt 0.875000 0.812500
vt 0.843750 0.875000
vt 0.812500 0.875000
vt 0.812500 0.843750
vt 0.843750 0.843750
vt 0.875000 0.937500
vt 0.906250 0.937500
vt 0.968750 0.750000
vt 0.968750 0.781250
vt 1.000000 0.781250
vt 1.000000 0.781250
vt 0.968750 0.781250
vt 0.968750 0.750000
vt 0.937500 0.781250
vt 0.937500 0.750000
vt 0.937500 0.812500
vt 0.906250 0.812500
vt 0.906250 0.781250
vt 0.937500 0.781250
vt 1.000000 0.937500
vt 0.968750 0.937500
vt 0.578125 0.250000
vt 0.546875 0.250000
vt 0.531250 0.218750
vt 0.593750 0.218750
vt 0.812500 0.812500
vt 0.843750 0.812500
vt 0.843750 0.843750
vt 0.843750 0.812500
vt 0.875000 0.812500
vt 0.906250 0.781250
vt 0.906250 0.812500
vt 0.875000 0.781250
vt 0.500000 0.015625
vt 0.500000 0.046875
vt 0.531250 0.062500
vt 0.531250 -0.000000
vt 1.000000 0.750000
vt 1.000000 0.718750
vt 0.968750 0.718750
vt 0.968750 0.750000
vt 0.937500 0.750000
vt 0.906250 0.750000
vt 0.906250 0.781250
vt 0.937500 0.781250
vt 0.578125 0.093750
vt 0.546875 0.093750
vt 0.531250 0.062500
vt 0.593750 0.062500
vt 0.546875 0.250000
vt 0.578125 0.250000
vt 0.593750 0.218750
vt 0.531250 0.218750
vt 0.500000 0.015625
vt 0.500000 0.046875
vt 0.531250 0.062500
vt 0.531250 -0.000000
vt 0.578125 0.250000
vt 0.546875 0.250000
vt 0.531250 0.218750
vt 0.593750 0.218750
vt 0.578125 0.093750
vt 0.546875 0.093750
vt 0.531250 0.062500
vt 0.593750 0.062500
vt 0.546875 0.250000
vt 0.578125 0.250000
vt 0.593750 0.218750
vt 0.531250 0.218750
vt 0.875000 0.937500
vt 0.906250 0.937500
vt 0.906250 0.968750
vt 0.843750 0.937500
vt 0.843750 0.968750
vt 0.812500 0.968750
vt 1.000000 0.968750
vt 0.968750 0.937500
vt 1.000000 0.937500
vt 0.937500 0.937500
vt 0.937500 0.968750
vt 0.906250 0.968750
vt 0.968750 0.968750
vt 0.937500 0.968750
vt 1.000000 0.968750
vt 0.843750 1.000000
vt 0.812500 1.000000
vt 0.968750 1.000000
vt 0.937500 1.000000
vt 0.906250 0.968750
vt 0.875000 0.968750
vt 0.843750 0.968750
vt 0.500000 0.015625
vt 0.500000 0.046875
vt 0.531250 0.062500
vt 0.531250 -0.000000
vt 0.546875 0.250000
vt 0.578125 0.250000
vt 0.593750 0.218750
vt 0.531250 0.218750
vt 0.875000 1.000000
vt 0.843750 1.000000
vt 0.968750 1.000000
vt 0.968750 0.968750
vt 1.000000 0.968750
vt 1.000000 1.000000
vt 0.875000 1.000000
vt 0.875000 0.968750
vt 0.906250 0.968750
vt 0.906250 1.000000
vt 0.875000 0.968750
vt 0.875000 1.000000
vt 0.906250 1.000000
vt 0.906250 0.968750
vt 0.968750 0.968750
vt 0.968750 1.000000
vt 1.000000 1.000000
vt 1.000000 0.968750
vt 0.937500 1.000000
vt 0.906250 1.000000
vt 0.578125 0.250000
vt 0.546875 0.250000
vt 0.531250 0.218750
vt 0.593750 0.218750
vt 0.578125 0.250000
vt 0.546875 0.250000
vt 0.531250 0.218750
vt 0.593750 0.218750
vt 0.546875 0.093750
vt 0.578125 0.093750
vt 0.593750 0.062500
vt 0.531250 0.062500
vt 0.500000 0.015625
vt 0.500000 0.046875
vt 0.531250 0.062500
vt 0.531250 -0.000000
vt 0.546875 0.250000
vt 0.578125 0.250000
vt 0.593750 0.218750
vt 0.531250 0.218750
vt 0.546875 0.093750
vt 0.578125 0.093750
vt 0.593750 0.062500
vt 0.531250 0.062500
vt 0.781250 0.875000
vt 0.781250 0.906250
vt 0.812500 0.906250
vt 0.812500 0.906250
vt 0.781250 0.906250
vt 0.781250 0.875000
vt 0.812500 0.875000
vt 0.812500 0.843750
vt 0.781250 0.843750
vt 0.781250 0.875000
vt 0.750000 0.937500
vt 0.718750 0.937500
vt 0.718750 0.906250
vt 0.750000 0.906250
vt 0.781250 0.937500
vt 0.812500 0.937500
vt 0.718750 0.875000
vt 0.750000 0.875000
vt 0.750000 0.906250
vt 0.750000 0.875000
vt 0.781250 0.875000
vt 0.812500 0.843750
vt 0.812500 0.875000
vt 0.781250 0.843750
vt 0.500000 0.015625
vt 0.500000 0.046875
vt 0.531250 0.062500
vt 0.531250 -0.000000
vt 0.578125 0.093750
vt 0.546875 0.093750
vt 0.531250 0.062500
vt 0.593750 0.062500
vt 0.546875 0.250000
vt 0.578125 0.250000
vt 0.593750 0.218750
vt 0.531250 0.218750
vt 0.578125 0.250000
vt 0.546875 0.250000
vt 0.531250 0.218750
vt 0.593750 0.218750
vt 0.781250 0.937500
vt 0.812500 0.937500
vt 0.812500 0.968750
vt 0.750000 0.937500
vt 0.750000 0.968750
vt 0.718750 0.968750
vt 0.750000 1.000000
vt 0.718750 1.000000
vt 0.812500 0.968750
vt 0.781250 0.968750
vt 0.750000 0.968750
vt 0.781250 1.000000
vt 0.750000 1.000000
vt 0.781250 1.000000
vt 0.781250 0.968750
vt 0.812500 0.968750
vt 0.812500 1.000000
vt 0.781250 0.968750
vt 0.781250 1.000000
vt 0.812500 1.000000
vt 0.812500 0.968750
vt 0.578125 0.250000
vt 0.546875 0.250000
vt 0.531250 0.218750
vt 0.593750 0.218750
vt 0.500000 0.015625
vt 0.500000 0.046875
vt 0.531250 0.062500
vt 0.531250 -0.000000
vt 0.546875 0.250000
vt 0.578125 0.250000
vt 0.593750 0.218750
vt 0.531250 0.218750
vt 0.546875 0.093750
vt 0.578125 0.093750
vt 0.593750 0.062500
vt 0.531250 0.062500
vt 0.656250 0.468750
vt 0.625000 0.437500
vt 1.000000 0.437500
vt 0.968750 0.468750
vt 0.031250 0.343750
vt 0.062500 0.375000
vt 0.437500 0.343750
vt 0.437500 0.375000
vt 0.156250 0.062500
vt 0.281250 0.062500
vt 0.281250 0.187500
vt 0.156250 0.187500
vt 0.500000 0.375000
vt 0.031250 0.375000
vt 0.437500 0.375000
vt 0.437500 0.343750
vt 0.000000 0.343750
vt 0.500000 0.000000
vt 0.500000 0.062500
vt -0.000000 0.062500
vt 0.406250 0.062500
vt 0.406250 0.187500
vt -0.000000 0.187500
vt -0.000000 0.937500
vt 0.031250 0.937500
vt 0.156250 0.062500
vt 0.156250 0.000000
vt 0.281250 0.000000
vt 0.281250 0.062500
vt 0.562500 0.375000
vt 0.500000 0.375000
vt 0.562500 0.343750
vt 0.562500 0.375000
vt 0.500000 0.375000
vt 0.562500 0.343750
vt 0.500000 0.437500
vt 0.406250 0.500000
vt 0.062500 0.500000
vt 0.125000 0.437500
vt 0.500000 0.343750
vt 0.562500 0.343750
vt 0.562500 0.375000
vt 0.500000 0.375000
vt 0.156250 0.062500
vt 0.218750 0.062500
vt 0.218750 0.187500
vt 0.156250 0.187500
vt 0.031250 0.375000
vt 0.437500 0.375000
vt 0.437500 0.343750
vt 0.000000 0.343750
vt 0.000000 0.062500
vt 0.000000 0.000000
vt 0.031250 0.937500
vt -0.000000 0.937500
vt -0.000000 0.906250
vt 0.031250 0.906250
vt 0.031250 0.906250
vt -0.000000 0.906250
vt 0.437500 0.531250
vt 0.406250 0.500000
vt 0.437500 0.531250
vt 0.500000 0.437500
vt 0.125000 0.437500
vt 0.062500 0.437500
vt 0.656250 0.468750
vt 0.625000 0.437500
vt 1.000000 0.437500
vt 0.968750 0.468750
vt 0.968750 0.468750
vt 0.656250 0.468750
vt 0.625000 0.437500
vt 1.000000 0.437500
vt 0.968750 0.468750
vt 0.656250 0.468750
vt 0.000000 0.500000
vt 0.000000 0.437500
vt 0.703125 0.531250
vt 0.703125 0.656250
vt 0.750000 0.218750
vt 0.875000 0.218750
vt 0.875000 0.250000
vt 0.750000 0.250000
vt 0.625000 0.218750
vt 0.750000 0.218750
vt 0.750000 0.250000
vt 0.625000 0.250000
vt 0.875000 0.250000
vt 0.750000 0.250000
vt 0.750000 0.218750
vt 0.875000 0.218750
vt 0.906250 0.218750
vt 0.937500 0.218750
vt 0.937500 0.250000
vt 0.906250 0.250000
vt 0.875000 0.218750
vt 0.906250 0.218750
vt 0.906250 0.250000
vt 0.875000 0.250000
vt 0.750000 0.250000
vt 0.750000 0.218750
vt 0.875000 0.218750
vt 0.875000 0.218750
vt 0.906250 0.218750
vt 0.906250 0.250000
vt 0.875000 0.250000
vt 0.906250 0.218750
vt 0.937500 0.218750
vt 0.937500 0.250000
vt 0.906250 0.250000
vt 0.750000 0.218750
vt 0.875000 0.250000
vt 0.750000 0.250000
vt 0.031250 0.875000
vt 0.031250 0.906250
vt -0.000000 0.906250
vt -0.000000 0.875000
vt 0.750000 0.250000
vt 0.625000 0.250000
vt 0.625000 0.218750
vt 0.750000 0.218750
vt 0.625000 0.250000
vt 0.593750 0.250000
vt 0.593750 0.218750
vt 0.625000 0.218750
vt 0.750000 0.218750
vt 0.875000 0.218750
vt 0.875000 0.250000
vt 0.750000 0.250000
vt 0.812500 0.250000
vt 0.781250 0.250000
vt 0.781250 0.218750
vt 0.812500 0.218750
vt 0.593750 0.250000
vt 0.593750 0.218750
vt 0.812500 0.250000
vt 0.781250 0.250000
vt 0.781250 0.218750
vt 0.812500 0.218750
vt 0.875000 0.218750
vt 0.875000 0.250000
vt 0.843750 0.250000
vt 0.843750 0.218750
vt 0.812500 0.250000
vt 0.781250 0.250000
vt 0.781250 0.218750
vt 0.812500 0.218750
vt 0.812500 0.250000
vt 0.781250 0.250000
vt 0.781250 0.218750
vt 0.812500 0.218750
vt 0.625000 0.218750
vt 0.750000 0.218750
vt 0.750000 0.250000
vt 0.625000 0.250000
vt 0.875000 0.250000
vt 0.750000 0.250000
vt 0.750000 0.218750
vt 0.875000 0.218750
vt 0.906250 0.218750
vt 0.937500 0.218750
vt 0.937500 0.250000
vt 0.906250 0.250000
vt 0.875000 0.218750
vt 0.875000 0.218750
vt 0.906250 0.218750
vt 0.875000 0.250000
vt 0.875000 0.250000
vt 0.750000 0.250000
vt 0.750000 0.218750
vt 0.875000 0.218750
vt 0.906250 0.218750
vt 0.906250 0.250000
vt 0.906250 0.218750
vt 0.937500 0.218750
vt 0.937500 0.250000
vt 0.906250 0.250000
vt 0.750000 0.218750
vt 0.875000 0.250000
vt 0.750000 0.250000
vt 0.906250 0.218750
vt 0.875000 0.250000
vt 0.875000 0.218750
vt 0.031250 0.875000
vt 0.031250 0.906250
vt -0.000000 0.906250
vt 0.000000 0.875000
vt 0.750000 0.250000
vt 0.625000 0.250000
vt 0.625000 0.218750
vt 0.750000 0.218750
vt 0.625000 0.250000
vt 0.593750 0.250000
vt 0.593750 0.218750
vt 0.625000 0.218750
vt 0.812500 0.250000
vt 0.781250 0.250000
vt 0.781250 0.218750
vt 0.593750 0.250000
vt 0.593750 0.218750
vt 0.250000 0.593750
vt 0.250000 0.562500
vt 0.312500 0.562500
vt 0.312500 0.593750
vt 0.875000 0.218750
vt 0.875000 0.250000
vt 0.843750 0.250000
vt 0.843750 0.218750
vt 0.812500 0.250000
vt 0.781250 0.250000
vt 0.812500 0.218750
vt 0.250000 0.812500
vt 0.250000 0.781250
vt 0.312500 0.781250
vt 0.312500 0.812500
vt 0.250000 0.625000
vt 0.312500 0.625000
vt 0.812500 0.250000
vt 0.781250 0.250000
vt 0.781250 0.218750
vt 0.250000 0.750000
vt 0.312500 0.750000
vt 0.812500 0.250000
vt 0.781250 0.250000
vt 0.812500 0.218750
vt 0.843750 0.218750
vt 0.875000 0.218750
vt 0.875000 0.250000
vt 0.843750 0.250000
vt 0.218750 0.625000
vt 0.218750 0.750000
vt 0.156250 0.750000
vt 0.156250 0.625000
vt 0.218750 0.593750
vt 0.156250 0.593750
vt 0.218750 0.781250
vt 0.156250 0.781250
vn 0.0000 0.0000 1.0000
vn 0.0000 0.0000 -1.0000
vn -1.0000 0.0000 0.0000
vn 0.0000 -1.0000 0.0000
vn 0.0000 0.7071 -0.7071
vn 1.0000 0.0000 0.0000
vn -0.7071 0.7071 0.0000
vn 0.0000 0.7071 0.7071
vn 0.7071 0.7071 0.0000
vn 0.0000 1.0000 0.0000
vn 0.7071 0.0000 0.7071
vn 0.5774 0.5774 0.5774
vn 0.7071 0.0000 -0.7071
vn 0.5774 -0.5774 -0.5774
vn 0.0000 -0.7071 0.7071
vn 0.0000 -0.7071 -0.7071
vn 0.7071 -0.7071 0.0000
vn 0.5774 -0.5774 0.5774
vn 0.8944 0.0000 -0.4472
vn 0.0000 -0.8944 -0.4472
vn 0.0000 0.8944 -0.4472
vn -0.8944 0.0000 -0.4472
vn 0.0000 -0.8944 0.4472
vn 0.8944 0.0000 0.4472
vn -0.8944 0.0000 0.4472
vn 0.0000 0.8944 0.4472
vn -0.7071 0.0000 0.7071
vn 0.5000 0.7071 -0.5000
vn -0.5000 0.7071 0.5000
vn 0.5000 -0.7071 -0.5000
vn -0.5000 -0.7071 0.5000
usemtl ACID_BASIN
s off
f 271/1/1 270/2/1 6/3/1 51/4/1
f 256/5/2 57/6/2 265/7/2 266/8/2
f 249/9/3 248/10/3 4/11/3 46/12/3
f 248/13/4 247/14/4 5/15/4 4/16/4
f 53/17/5 268/18/5 266/19/5 259/20/5
f 253/21/6 47/22/6 54/23/6 246/24/6
f 10/25/5 13/26/5 8/27/5 97/28/5
f 11/29/7 10/25/7 97/28/7 96/30/7
f 12/31/8 11/29/8 96/30/8 95/32/8
f 13/26/9 12/31/9 95/32/9 8/27/9
f 23/33/1 24/34/1 95/32/1 96/30/1
f 25/35/2 22/36/2 97/28/2 8/27/2
f 24/34/6 25/35/6 8/27/6 95/32/6
f 11/37/10 12/38/10 13/39/10 10/40/10
f 22/41/10 25/42/10 17/43/10 14/44/10
f 23/45/10 22/41/10 14/44/10 15/46/10
f 24/47/10 23/45/10 15/46/10 16/48/10
f 25/42/10 24/47/10 16/48/10 17/43/10
f 14/44/8 17/43/8 21/49/8 18/50/8
f 15/46/9 14/44/9 18/50/9 19/51/9
f 16/48/5 15/46/5 19/51/5 20/52/5
f 17/43/7 16/48/7 20/52/7 21/49/7
f 31/53/2 32/54/2 20/52/2 19/51/2
f 33/55/1 30/56/1 18/50/1 21/49/1
f 32/54/3 33/55/3 21/49/3 20/52/3
f 22/36/3 23/33/3 96/30/3 97/28/3
f 30/56/10 33/55/10 29/57/10 26/58/10
f 31/53/10 30/56/10 26/58/10 27/59/10
f 32/54/10 31/53/10 27/59/10 28/60/10
f 33/55/10 32/54/10 28/60/10 29/57/10
f 36/61/3 37/62/3 29/63/3 28/64/3
f 34/65/6 35/66/6 27/67/6 26/68/6
f 35/69/2 36/70/2 28/60/2 27/59/2
f 30/56/6 31/53/6 19/51/6 18/50/6
f 37/71/1 34/72/1 26/58/1 29/57/1
f 258/73/2 268/74/2 267/75/2 257/76/2
f 50/77/6 49/78/6 51/79/6 6/80/6
f 247/81/6 250/82/6 48/83/6 5/84/6
f 5/85/1 48/86/1 46/87/1 4/88/1
f 261/89/5 257/90/5 3/91/5 264/92/5
f 1/93/3 38/94/3 259/95/3 40/96/3
f 38/97/7 45/98/7 53/17/7 259/20/7
f 252/99/7 45/98/7 38/97/7 249/100/7
f 253/101/9 43/102/9 48/103/9 250/104/9
f 43/105/8 42/106/8 46/107/8 48/108/8
f 47/109/11 52/110/11 58/111/11 54/112/11
f 267/113/5 60/114/5 263/115/5 269/116/5
f 260/117/9 44/118/9 51/119/9 49/120/9
f 272/121/8 52/122/8 41/123/8 271/124/8
f 41/125/12 52/126/12 47/127/12
f 260/128/2 258/129/2 257/130/2 261/131/2
f 252/132/3 42/133/3 55/134/3 251/135/3
f 53/136/3 45/137/3 39/138/3 60/139/3
f 272/140/1 44/141/1 59/142/1 273/143/1
f 268/144/2 53/145/2 60/146/2 267/147/2
f 42/148/1 43/149/1 56/150/1 55/151/1
f 268/152/5 258/153/5 256/154/5 266/155/5
f 44/156/6 260/157/6 261/158/6 59/159/6
f 59/160/9 261/161/9 264/162/9 66/163/9
f 251/164/7 55/165/7 63/166/7 255/167/7
f 256/154/5 258/153/5 260/168/5 49/169/5
f 273/170/8 59/171/8 66/172/8 274/173/8
f 246/174/9 54/175/9 62/176/9 254/177/9
f 55/178/8 56/179/8 64/180/8 63/181/8
f 54/182/12 58/183/12 65/184/12 62/185/12
f 57/186/2 256/187/2 49/188/2 50/189/2
f 254/190/10 62/191/10 61/192/10 255/193/10
f 103/194/10 66/195/10 264/196/10 102/197/10
f 118/198/10 98/199/10 262/200/10 269/201/10
f 7/202/10 61/192/10 62/191/10 9/203/10
f 62/204/10 65/205/10 9/206/10
f 7/207/1 9/208/1 74/209/1 71/210/1
f 70/211/6 69/212/6 81/213/6 82/214/6
f 269/215/2 263/216/2 72/217/2 73/218/2
f 9/219/6 269/220/6 73/221/6 74/222/6
f 263/223/3 7/224/3 71/225/3 72/226/3
f 67/227/10 68/228/10 72/217/10 71/210/10
f 68/228/10 69/212/10 73/218/10 72/217/10
f 69/212/10 70/211/10 74/209/10 73/218/10
f 70/211/10 67/227/10 71/210/10 74/209/10
f 78/229/3 77/230/3 93/231/3 94/232/3
f 68/228/3 67/227/3 79/233/3 80/234/3
f 67/227/1 70/211/1 82/214/1 79/233/1
f 69/212/2 68/228/2 80/234/2 81/213/2
f 83/235/7 84/236/7 80/234/7 79/233/7
f 84/236/5 85/237/5 81/213/5 80/234/5
f 85/237/9 86/238/9 82/214/9 81/213/9
f 86/238/8 83/235/8 79/233/8 82/214/8
f 75/239/10 76/240/10 84/236/10 83/235/10
f 76/240/10 77/241/10 85/237/10 84/236/10
f 77/241/10 78/242/10 86/238/10 85/237/10
f 78/242/10 75/239/10 83/235/10 86/238/10
f 89/243/10 88/244/10 87/245/10 90/246/10
f 76/247/6 75/248/6 91/249/6 92/250/6
f 75/248/2 78/229/2 94/232/2 91/249/2
f 77/230/1 76/247/1 92/250/1 93/231/1
f 87/251/9 88/252/9 92/250/9 91/249/9
f 88/252/8 89/253/8 93/231/8 92/250/8
f 89/253/7 90/254/7 94/232/7 93/231/7
f 90/254/5 87/251/5 91/249/5 94/232/5
f 266/255/2 265/256/2 40/257/2 259/258/2
f 117/259/10 110/260/10 107/261/10 106/262/10
f 105/263/10 104/264/10 113/265/10 116/266/10
f 105/263/10 116/266/10 108/267/10
f 149/268/11 148/269/11 109/270/11 106/271/11
f 148/272/6 150/273/6 108/274/6 109/275/6
f 146/276/1 149/268/1 106/271/1 107/277/1
f 151/278/2 147/279/2 104/280/2 105/281/2
f 150/282/13 151/278/13 105/281/13 108/283/13
f 109/284/10 117/259/10 106/262/10
f 112/285/10 114/286/10 115/287/10 111/288/10
f 108/267/10 116/266/10 117/259/10 109/284/10
f 154/289/2 98/290/2 118/291/2 157/292/2
f 112/285/7 111/288/7 117/259/7 116/266/7
f 111/288/5 115/287/5 110/260/5 117/259/5
f 114/286/8 112/285/8 116/266/8 113/265/8
f 113/265/10 104/264/10 120/293/10 123/294/10
f 115/287/10 114/286/10 124/295/10 125/296/10
f 115/297/2 125/298/2 131/299/2 127/300/2
f 146/276/1 107/277/1 121/301/1 152/302/1
f 122/303/1 110/304/1 126/305/1 130/306/1
f 107/261/10 110/260/10 122/307/10 121/308/10
f 127/309/6 128/310/6 136/311/6 135/312/6
f 160/313/14 156/314/14 151/315/14 150/316/14
f 110/317/6 115/318/6 127/319/6 126/320/6
f 276/321/6 275/322/6 143/323/6 142/324/6
f 124/325/1 114/326/1 128/327/1 132/328/1
f 113/329/2 123/330/2 133/331/2 129/332/2
f 114/333/6 113/334/6 129/335/6 128/336/6
f 158/337/15 146/276/15 152/302/15 161/338/15
f 126/305/8 135/339/8 139/340/8 130/306/8
f 136/341/5 129/332/5 133/331/5 140/342/5
f 138/343/6 141/344/6 137/345/6 134/346/6
f 126/320/6 127/319/6 135/347/6
f 131/348/4 132/349/4 128/310/4 127/309/4
f 104/280/2 147/279/2 153/350/2 120/351/2
f 135/312/10 136/311/10 140/352/10 139/353/10
f 128/336/6 129/335/6 136/354/6
f 156/355/16 154/356/16 147/279/16 151/278/16
f 158/337/15 155/357/15 149/268/15 146/276/15
f 159/358/17 160/359/17 150/360/17 148/361/17
f 155/362/18 159/363/18 148/364/18 149/365/18
f 101/366/11 103/367/11 159/368/11 155/369/11
f 103/370/6 102/371/6 160/372/6 159/373/6
f 99/374/1 101/366/1 155/369/1 158/375/1
f 100/376/2 98/377/2 154/378/2 156/379/2
f 99/374/1 158/375/1 161/380/1 119/381/1
f 102/382/13 100/376/13 156/379/13 160/383/13
f 147/279/16 154/356/16 157/384/16 153/350/16
f 171/385/6 172/386/6 180/387/6 181/388/6
f 162/389/3 163/390/3 164/391/3
f 167/392/6 166/393/6 165/394/6
f 163/395/3 162/396/3 174/397/3 175/398/3
f 164/399/16 167/400/16 165/401/16 162/402/16
f 164/391/3 163/390/3 190/403/3 191/404/3
f 168/405/3 169/406/3 170/407/3
f 173/408/6 172/409/6 171/410/6
f 172/409/10 169/411/10 179/412/10 180/387/10
f 170/413/16 173/414/16 171/415/16 168/416/16
f 172/409/6 173/408/6 196/417/6 197/418/6
f 181/419/19 180/420/19 188/421/19 189/422/19
f 162/402/4 165/401/4 177/423/4 174/424/4
f 166/393/10 163/425/10 175/426/10 176/427/10
f 165/428/6 166/429/6 176/427/6 177/430/6
f 174/431/20 177/432/20 185/433/20 182/434/20
f 169/435/3 168/436/3 178/437/3 179/438/3
f 168/439/4 171/440/4 181/441/4 178/442/4
f 176/443/21 175/444/21 183/445/21 184/446/21
f 175/447/22 174/448/22 182/449/22 183/450/22
f 178/451/20 181/452/20 189/453/20 186/454/20
f 177/455/19 176/456/19 184/457/19 185/458/19
f 180/459/21 179/460/21 187/461/21 188/462/21
f 179/463/22 178/464/22 186/465/22 187/466/22
f 193/467/6 192/468/6 200/469/6
f 163/425/1 166/393/1 193/467/1 190/470/1
f 167/400/2 164/399/2 191/471/2 192/472/2
f 166/393/6 167/392/6 192/468/6 193/467/6
f 197/418/6 196/417/6 199/473/6
f 170/407/3 169/406/3 194/474/3 195/475/3
f 169/411/1 172/409/1 197/418/1 194/476/1
f 173/414/2 170/413/2 195/477/2 196/478/2
f 199/479/8 198/480/8 194/476/8 197/418/8
f 195/475/3 194/474/3 198/481/3
f 192/472/4 191/471/4 202/482/4 203/483/4
f 198/480/10 199/479/10 207/484/10 206/485/10
f 191/404/3 190/403/3 201/486/3
f 200/487/8 201/488/8 190/470/8 193/467/8
f 205/489/23 204/490/23 212/491/23 213/492/23
f 207/493/24 205/494/24 213/495/24 215/496/24
f 201/488/10 200/487/10 209/497/10 208/498/10
f 199/499/6 196/500/6 205/501/6 207/502/6
f 200/503/6 192/504/6 203/505/6 209/506/6
f 191/507/3 201/508/3 208/509/3 202/510/3
f 195/511/3 198/512/3 206/513/3 204/514/3
f 196/478/4 195/477/4 204/515/4 205/516/4
f 202/517/25 208/518/25 216/519/25 210/520/25
f 204/521/25 206/522/25 214/523/25 212/524/25
f 206/525/26 207/526/26 215/527/26 214/528/26
f 203/529/23 202/530/23 210/531/23 211/532/23
f 209/533/24 203/534/24 211/535/24 217/536/24
f 208/537/26 209/538/26 217/539/26 216/540/26
f 218/541/3 219/542/3 220/543/3
f 223/544/6 222/545/6 221/546/6
f 219/547/3 218/548/3 224/549/3 225/550/3
f 220/551/16 223/552/16 221/553/16 218/554/16
f 220/543/3 219/542/3 232/555/3 233/556/3
f 218/554/4 221/553/4 227/557/4 224/558/4
f 222/545/10 219/559/10 225/560/10 226/561/10
f 221/562/6 222/563/6 226/561/6 227/564/6
f 224/565/20 227/566/20 231/567/20 228/568/20
f 226/569/21 225/570/21 229/571/21 230/572/21
f 225/573/22 224/574/22 228/575/22 229/576/22
f 227/577/19 226/578/19 230/579/19 231/580/19
f 235/581/6 234/582/6 236/583/6
f 219/559/1 222/545/1 235/581/1 232/584/1
f 223/552/2 220/551/2 233/585/2 234/586/2
f 222/545/6 223/544/6 234/582/6 235/581/6
f 234/586/4 233/585/4 238/587/4 239/588/4
f 233/556/3 232/555/3 237/589/3
f 236/590/8 237/591/8 232/584/8 235/581/8
f 237/591/10 236/590/10 241/592/10 240/593/10
f 236/594/6 234/595/6 239/596/6 241/597/6
f 233/598/3 237/599/3 240/600/3 238/601/3
f 238/602/25 240/603/25 244/604/25 242/605/25
f 239/606/23 238/607/23 242/608/23 243/609/23
f 241/610/24 239/611/24 243/612/24 245/613/24
f 240/614/26 241/615/26 245/616/26 244/617/26
f 34/618/10 64/619/10 254/620/10 35/621/10
f 56/622/9 246/174/9 254/177/9 64/623/9
f 60/114/7 39/624/7 7/625/7 263/115/7
f 45/626/3 252/627/3 251/628/3 39/629/3
f 47/630/9 253/101/9 250/104/9 41/123/9
f 42/631/7 252/632/7 249/633/7 46/634/7
f 2/635/6 41/636/6 250/82/6 247/81/6
f 43/637/6 253/638/6 246/639/6 56/640/6
f 1/641/4 2/642/4 247/14/4 248/13/4
f 38/643/3 1/644/3 248/645/3 249/646/3
f 255/647/7 61/648/7 251/649/7
f 7/625/7 39/624/7 61/648/7
f 251/649/7 61/648/7 39/624/7
f 269/650/5 262/651/5 267/652/5
f 3/91/5 257/90/5 262/651/5
f 267/652/5 262/651/5 257/90/5
f 66/653/10 101/654/10 99/655/10 274/656/10
f 58/657/8 273/658/8 274/659/8 65/660/8
f 52/661/1 272/662/1 273/663/1 58/664/1
f 44/665/8 272/666/8 271/667/8 51/668/8
f 41/669/1 2/670/1 270/2/1 271/1/1
f 6/671/4 270/672/4 57/673/4 50/674/4
f 57/673/4 270/672/4 2/642/4 265/675/4
f 1/641/4 40/676/4 265/675/4 2/642/4
f 101/654/10 66/653/10 103/677/10
f 100/678/10 102/679/10 264/680/10
f 100/678/10 264/680/10 3/681/10 98/199/10
f 3/681/10 262/200/10 98/199/10
f 274/656/10 99/655/10 65/682/10
f 37/683/10 63/684/10 64/685/10 34/686/10
f 37/687/10 36/688/10 255/689/10 63/690/10
f 36/691/10 35/692/10 254/190/10 255/193/10
f 65/682/10 99/655/10 119/693/10 9/694/10
f 144/695/6 145/696/6 275/322/6 276/321/6
f 280/697/6 282/698/6 277/699/6 278/700/6
f 279/701/1 281/702/1 295/703/1 293/704/1
f 281/705/6 279/706/6 283/707/6 284/708/6
f 282/709/6 281/710/6 285/711/6 286/712/6
f 282/709/6 286/712/6 277/713/6
f 281/714/6 284/708/6 285/715/6
f 284/716/2 283/717/2 289/718/2 290/719/2
f 285/720/5 284/721/5 290/722/5 291/723/5
f 286/724/10 285/725/10 291/726/10 292/727/10
f 278/728/1 277/713/1 287/729/1 288/730/1
f 277/713/8 286/724/8 292/727/8 287/729/8
f 293/731/6 295/732/6 296/733/6 294/734/6
f 282/735/2 280/736/2 294/737/2 296/738/2
f 281/739/4 282/740/4 296/741/4 295/742/4
f 306/743/11 308/744/11 304/745/11 303/746/11
f 283/747/6 279/748/6 298/749/6 300/750/6
f 294/751/10 280/752/10 279/701/10 293/704/10
f 289/753/2 283/754/2 300/755/2 302/756/2
f 298/757/6 279/758/6 280/759/6 299/760/6
f 280/761/6 278/762/6 297/763/6 299/764/6
f 278/765/1 288/766/1 301/767/1 297/768/1
f 305/769/27 307/770/27 321/771/27 319/772/27
f 307/773/11 305/774/11 309/775/11 310/776/11
f 308/777/11 307/778/11 311/779/11 312/780/11
f 308/777/11 312/780/11 304/781/11
f 307/782/11 310/783/11 311/784/11
f 310/785/13 309/786/13 315/787/13 316/788/13
f 311/784/28 310/776/28 316/789/28 317/790/28
f 312/791/10 311/792/10 317/793/10 318/794/10
f 303/795/27 304/781/27 313/796/27 314/797/27
f 304/798/29 312/780/29 318/799/29 313/800/29
f 319/801/11 321/802/11 322/803/11 320/804/11
f 308/805/13 306/806/13 320/807/13 322/808/13
f 307/809/4 308/810/4 322/811/4 321/812/4
f 309/813/11 305/814/11 324/815/11
f 320/816/10 306/817/10 305/769/10 319/772/10
f 326/818/4 328/819/4 334/820/4 333/821/4
f 324/822/11 305/823/11 306/824/11 325/825/11
f 306/826/11 303/827/11 325/828/11
f 318/829/10 317/830/10 331/831/10 332/832/10
f 315/833/30 326/818/30 333/821/30 329/834/30
f 303/835/31 314/836/31 328/837/31 325/828/31
f 317/830/28 316/838/28 330/839/28 331/831/28
f 315/840/30 309/841/30 324/815/30 326/842/30
f 328/843/4 326/844/4 324/845/4 325/846/4
f 314/847/27 313/848/27 327/849/27 323/850/27
f 328/851/31 314/847/31 323/850/31 334/852/31
f 313/848/29 318/853/29 332/854/29 327/849/29
f 316/838/13 315/833/13 329/834/13 330/839/13
