# Blender v2.80 (sub 75) OBJ File: 'chem devices.blend'
# www.blender.org
mtllib actuator_ender_locator.mtl
o LABYRINTHINE_NAVIGATOR_LOCATOR_Cube.122
v -0.062512 0.187652 -0.324096
v -0.062510 -0.302250 -0.000368
v 0.062504 -0.250019 0.215766
v 0.062504 -0.195792 0.184546
v 0.062488 -0.374505 -0.000464
v 0.062490 -0.302254 -0.000375
v 0.062512 0.374501 0.000457
v -0.062510 0.151450 -0.261568
v -0.062520 -0.150802 -0.261940
v 0.062475 -0.186855 -0.324563
v 0.062480 -0.150806 -0.261947
v 0.062488 0.187648 -0.324103
v 0.062490 0.151446 -0.261576
v -0.062525 -0.186851 -0.324556
v -0.062512 -0.374501 -0.000457
v -0.062496 -0.250015 0.215773
v -0.062496 -0.195788 0.184554
v 0.062508 -0.218961 0.269426
v -0.062492 -0.218957 0.269433
v 0.062510 0.302250 0.000368
v -0.062479 0.249488 0.216387
v -0.062483 0.195338 0.185034
v -0.062488 0.374505 0.000464
v -0.062490 0.302254 0.000375
v 0.062521 0.249484 0.216380
v 0.062517 0.195334 0.185027
v -0.062477 0.218298 0.269970
v 0.062523 0.218294 0.269963
v -0.000028 -0.240941 -0.355876
v -0.000016 -0.428591 -0.031777
v 0.000004 -0.304110 0.247078
v 0.000008 -0.273052 0.300738
v -0.000016 0.187727 -0.386599
v -0.000028 -0.186776 -0.387059
v 0.000012 0.428668 -0.030723
v -0.000012 0.241815 -0.355283
v -0.000012 -0.428668 0.030723
v 0.000024 0.303502 0.247825
v 0.000026 0.272312 0.301408
v 0.000016 0.428591 0.031777
v 0.000003 -0.044191 -0.449406
v 0.000003 -0.044191 -0.324406
v -0.044192 0.000004 -0.449406
v -0.044192 0.000003 -0.324406
v 0.044197 0.000004 -0.449406
v 0.044197 0.000003 -0.324406
v 0.000003 0.044198 -0.449406
v 0.000003 0.044198 -0.324406
v 0.000002 0.000004 -0.574406
v 0.000003 0.411292 0.186433
v 0.000003 0.303039 0.123933
v -0.044191 0.389195 0.224706
v -0.044191 0.280942 0.162206
v 0.044197 0.389195 0.224706
v 0.044197 0.280942 0.162206
v 0.000003 0.367098 0.262980
v 0.000003 0.258845 0.200479
v 0.000003 0.497448 0.287207
v 0.000003 -0.367102 0.262973
v 0.000003 -0.258849 0.200473
v -0.044191 -0.389199 0.224700
v -0.044191 -0.280946 0.162200
v 0.044197 -0.389199 0.224700
v 0.044197 -0.280946 0.162200
v 0.000003 -0.411296 0.186427
v 0.000003 -0.303043 0.123927
v 0.000003 -0.497452 0.287200
vt 0.298828 0.750000
vt 0.298828 0.687500
vt 0.451172 0.687500
vt 0.451172 0.750000
vt 0.232422 0.687500
vt 0.232422 0.750000
vt 0.080078 0.750000
vt 0.080078 0.687500
vt 0.451172 0.687500
vt 0.451172 0.750000
vt 0.298828 0.750000
vt 0.298828 0.687500
vt 0.593750 0.687500
vt 0.593750 0.750000
vt 0.486328 0.750000
vt 0.486328 0.687500
vt 0.593750 0.781250
vt 0.625000 0.781250
vt 0.593750 0.750000
vt 0.593750 0.750000
vt 0.625000 0.781250
vt 0.593750 0.781250
vt 0.593750 0.687500
vt 0.486328 0.750000
vt 0.486328 0.687500
vt 0.281250 0.781250
vt 0.468750 0.781250
vt 0.468750 0.812500
vt 0.281250 0.812500
vt 0.468750 0.781250
vt 0.281250 0.781250
vt 0.250000 0.781250
vt 0.281250 0.750000
vt 0.281250 0.781250
vt 0.593750 0.812500
vt 0.625000 0.812500
vt 0.593750 0.750000
vt 0.593750 0.687500
vt 0.625000 0.718750
vt 0.593750 0.781250
vt 0.625000 0.781250
vt 0.250000 0.812500
vt 0.281250 0.812500
vt 0.281250 0.781250
vt 0.062500 0.781250
vt 0.250000 0.781250
vt 0.250000 0.812500
vt 0.062500 0.812500
vt 0.250000 0.781250
vt 0.062500 0.781250
vt 0.250000 0.781250
vt 0.281250 0.750000
vt 0.281250 0.781250
vt 0.468750 0.781250
vt 0.468750 0.812500
vt 0.281250 0.812500
vt 0.468750 0.781250
vt 0.281250 0.781250
vt 0.468750 0.781250
vt 0.468750 0.812500
vt 0.468750 0.781250
vt 0.625000 0.781250
vt 0.593750 0.781250
vt 0.593750 0.812500
vt 0.625000 0.812500
vt 0.593750 0.750000
vt 0.593750 0.687500
vt 0.625000 0.718750
vt 0.468750 0.812500
vt 0.250000 0.781250
vt 0.281250 0.781250
vt 0.593750 0.750000
vt 0.486328 0.750000
vt 0.486328 0.750000
vt 0.298828 0.750000
vt 0.451172 0.750000
vt 0.080078 0.750000
vt 0.232422 0.750000
vt 0.451172 0.750000
vt 0.298828 0.750000
vt 0.232422 0.750000
vt 0.080078 0.750000
vt 0.451172 0.750000
vt 0.298828 0.750000
vt 0.250000 0.687500
vt 0.281250 0.687500
vt 0.281250 0.750000
vt 0.250000 0.750000
vt 0.250000 0.687500
vt 0.281250 0.687500
vt 0.281250 0.750000
vt 0.250000 0.750000
vt 0.656250 0.937500
vt 0.656250 1.000000
vt 0.625000 1.000000
vt 0.625000 0.937500
vt 0.593750 1.000000
vt 0.593750 0.937500
vt 0.625000 1.000000
vt 0.625000 0.937500
vt 0.625000 0.875000
vt 0.625000 0.937500
vt 0.625000 1.000000
vt 0.656250 1.000000
vt 0.656250 0.937500
vt 0.687500 1.000000
vt 0.687500 0.937500
vt 0.656250 1.000000
vt 0.656250 0.937500
vt 0.656250 0.875000
vt 0.625000 0.937500
vt 0.625000 1.000000
vt 0.656250 1.000000
vt 0.656250 0.937500
vt 0.687500 1.000000
vt 0.687500 0.937500
vt 0.656250 1.000000
vt 0.656250 0.937500
vt 0.656250 0.875000
vn -0.0000 -0.8666 0.4989
vn 0.0001 -0.0012 1.0000
vn 0.0001 0.8654 0.5011
vn 0.0000 0.8666 -0.4989
vn -1.0000 0.0000 0.0001
vn -0.0001 -0.8654 -0.5011
vn -0.7071 -0.6119 -0.3543
vn 0.7071 -0.6120 -0.3543
vn -0.6546 0.7560 0.0010
vn -0.7071 -0.6120 0.3543
vn 0.0001 0.5009 0.8655
vn 0.7071 -0.6120 0.3542
vn 0.6546 -0.3772 -0.6552
vn -0.7071 0.0009 -0.7071
vn 0.7071 0.0008 -0.7071
vn 0.6546 -0.7559 -0.0010
vn -0.7071 0.6128 -0.3528
vn 0.7071 0.6128 -0.3528
vn -0.7071 -0.6128 0.3528
vn 0.7071 -0.6128 0.3528
vn 0.7071 0.6111 0.3557
vn 0.0000 -0.5031 0.8643
vn -0.7071 0.6111 0.3558
vn 0.7071 0.6119 0.3543
vn -0.7071 0.6120 0.3543
vn 0.6547 0.7559 0.0009
vn -0.6547 -0.7559 -0.0009
vn -0.6547 0.3788 -0.6542
vn 0.6546 0.3787 -0.6542
vn -0.6547 -0.3771 -0.6551
vn 1.0000 -0.0000 -0.0001
vn -0.0000 -0.9654 0.2610
vn 0.0000 0.9647 0.2633
vn -0.7071 -0.7071 -0.0000
vn -0.7071 0.7071 0.0000
vn 0.7071 0.7071 0.0000
vn 0.7071 -0.7071 -0.0000
vn 0.6860 -0.6860 -0.2425
vn -0.6860 0.6860 -0.2425
vn -0.6860 -0.6860 -0.2425
vn 0.6860 0.6860 -0.2425
vn -0.7071 0.3536 -0.6124
vn -0.7071 -0.3536 0.6124
vn 0.7071 -0.3536 0.6124
vn 0.7071 0.3536 -0.6124
vn 0.6860 0.5530 -0.4728
vn -0.6860 -0.1330 0.7154
vn -0.6860 0.5530 -0.4728
vn 0.6860 -0.1330 0.7154
vn -0.7071 0.3536 0.6124
vn -0.7071 -0.3536 -0.6124
vn 0.7071 -0.3536 -0.6124
vn 0.7071 0.3536 0.6124
vn 0.6860 0.1330 0.7154
vn -0.6860 -0.5530 -0.4728
vn -0.6860 0.1330 0.7154
vn 0.6860 -0.5530 -0.4728
usemtl GALE_PRESSURIZER
s off
f 8/1/1 13/2/1 20/3/1 24/4/1
f 9/5/2 11/6/2 13/7/2 8/8/2
f 2/9/3 6/10/3 11/11/3 9/12/3
f 17/13/4 4/14/4 6/15/4 2/16/4
f 16/17/5 19/18/5 17/19/5
f 22/20/5 27/21/5 21/22/5
f 26/23/6 22/20/6 24/24/6 20/25/6
f 15/26/7 14/27/7 29/28/7 30/29/7
f 10/30/8 5/31/8 30/29/8 29/28/8
f 23/32/9 40/33/9 35/34/9
f 19/18/10 16/17/10 31/35/10 32/36/10
f 18/37/11 19/38/11 32/39/11
f 3/40/12 18/41/12 32/36/12 31/35/12
f 29/42/13 34/43/13 10/44/13
f 14/45/14 1/46/14 33/47/14 34/48/14
f 12/49/15 10/50/15 34/48/15 33/47/15
f 30/51/16 5/31/16 37/52/16
f 1/53/17 23/54/17 35/55/17 36/56/17
f 7/57/18 12/58/18 36/56/18 35/55/18
f 16/17/19 15/59/19 37/60/19 31/35/19
f 5/61/20 3/40/20 31/35/20 37/60/20
f 28/62/21 25/63/21 38/64/21 39/65/21
f 27/66/22 28/67/22 39/68/22
f 21/22/23 27/21/23 39/65/23 38/64/23
f 25/63/24 7/57/24 40/69/24 38/64/24
f 23/54/25 21/22/25 38/64/25 40/69/25
f 7/70/26 35/34/26 40/33/26
f 30/51/27 37/52/27 15/26/27
f 1/53/28 36/56/28 33/47/28
f 33/47/29 36/56/29 12/58/29
f 14/71/30 34/43/30 29/42/30
f 25/63/31 26/72/31 20/73/31 7/57/31
f 21/22/5 23/54/5 24/24/5 22/20/5
f 4/14/31 18/41/31 3/40/31
f 25/63/31 28/62/31 26/72/31
f 16/17/5 17/19/5 2/74/5 15/59/5
f 15/26/5 2/75/5 9/76/5 14/27/5
f 14/45/5 9/77/5 8/78/5 1/46/5
f 1/53/5 8/1/5 24/4/5 23/54/5
f 12/58/31 7/57/31 20/79/31 13/80/31
f 10/50/31 12/49/31 13/81/31 11/82/31
f 5/31/31 10/30/31 11/83/31 6/84/31
f 3/40/31 5/61/31 6/15/31 4/14/31
f 26/85/32 28/86/32 27/87/32 22/88/32
f 17/89/33 19/90/33 18/91/33 4/92/33
f 41/93/34 42/94/34 44/95/34 43/96/34
f 43/96/35 44/95/35 48/97/35 47/98/35
f 47/98/36 48/97/36 46/99/36 45/100/36
f 45/100/37 46/99/37 42/94/37 41/93/37
f 45/100/38 41/93/38 49/101/38
f 43/96/39 47/98/39 49/101/39
f 41/93/40 43/96/40 49/101/40
f 47/98/41 45/100/41 49/101/41
f 50/102/42 51/103/42 53/104/42 52/105/42
f 52/105/43 53/104/43 57/106/43 56/107/43
f 56/107/44 57/106/44 55/108/44 54/109/44
f 54/109/45 55/108/45 51/103/45 50/102/45
f 54/109/46 50/102/46 58/110/46
f 52/105/47 56/107/47 58/110/47
f 50/102/48 52/105/48 58/110/48
f 56/107/49 54/109/49 58/110/49
f 59/111/50 60/112/50 62/113/50 61/114/50
f 61/114/51 62/113/51 66/115/51 65/116/51
f 65/116/52 66/115/52 64/117/52 63/118/52
f 63/118/53 64/117/53 60/112/53 59/111/53
f 63/118/54 59/111/54 67/119/54
f 61/114/55 65/116/55 67/119/55
f 59/111/56 61/114/56 67/119/56
f 65/116/57 63/118/57 67/119/57
