# Blender v2.80 (sub 75) OBJ File: 'chem devices.blend'
# www.blender.org
mtllib actuator_ender_body.mtl
o LABYRINTHINE_NAVIGATOR_BODY_Cube.053
v 0.250000 0.000000 0.125000
v 0.250000 0.000000 0.000000
v 0.750000 0.000000 0.125000
v 0.750000 0.000000 0.000000
v 0.062500 0.000000 0.000000
v 0.062500 0.000000 0.125000
v 0.062500 0.750000 0.125000
v 0.062500 0.750000 0.000000
v 0.937500 0.750000 0.000000
v 0.937500 0.000000 0.000000
v 0.937500 0.000000 0.125000
v 0.250000 0.937500 0.125000
v 0.250000 0.937500 0.000000
v 0.750000 0.937500 0.000000
v 0.750000 0.937500 0.125000
v 0.250000 0.250000 0.000000
v 0.312500 0.312500 -0.187500
v 0.312500 0.687500 -0.187500
v 0.750000 0.750000 0.000000
v 0.687500 0.312500 -0.187500
v 0.687500 0.687500 -0.187500
v 0.250000 0.750000 -0.125000
v 0.250000 0.250000 -0.125000
v 0.750000 0.250000 -0.125000
v 0.750000 0.750000 -0.125000
v 0.250000 0.750000 0.000000
v 0.750000 0.250000 0.000000
v 0.250000 0.750000 0.125000
v 0.750000 0.750000 0.125000
v 0.937500 0.750000 0.125000
v 0.750000 0.250000 0.125000
v 0.250000 0.250000 0.125000
v 0.187500 0.125000 0.687500
v 0.250000 0.687500 0.687500
v 0.187500 0.125000 0.250000
v 0.187500 0.625000 0.250000
v 0.812500 0.125000 0.687500
v 0.750000 0.687500 0.687500
v 0.812500 0.125000 0.250000
v 0.812500 0.625000 0.250000
v 0.312500 0.687500 0.750000
v 0.687500 0.687500 0.750000
v 0.625000 0.250000 0.812500
v 0.187500 0.625000 0.687500
v 0.750000 0.687500 0.250000
v 0.250000 0.687500 0.250000
v 0.812500 0.625000 0.687500
v 0.625000 0.562500 0.812500
v 0.375000 0.562500 0.812500
v 0.875000 0.125000 0.687500
v 0.875000 0.125000 0.250000
v 0.875000 0.000000 0.687500
v 0.875000 0.000000 0.250000
v 0.312500 0.125000 0.875000
v 0.687500 0.125000 0.875000
v 0.312500 0.000000 0.875000
v 0.687500 0.000000 0.875000
v 0.125000 0.125000 0.250000
v 0.125000 0.125000 0.687500
v 0.125000 0.000000 0.250000
v 0.125000 0.000000 0.687500
v 0.812500 0.750000 0.250000
v 0.187500 0.750000 0.250000
v 0.875000 0.125000 0.125000
v 0.875000 0.000000 0.125000
v 0.125000 0.125000 0.125000
v 0.125000 0.000000 0.125000
v 0.750000 0.812500 0.187500
v 0.250000 0.812500 0.187500
v 0.250000 0.812500 0.125000
v 0.750000 0.812500 0.125000
v 0.375000 0.718750 0.625000
v 0.625000 0.718750 0.625000
v 0.625000 0.718750 0.375000
v 0.375000 0.718750 0.375000
v 0.312500 0.687500 0.625000
v 0.687500 0.687500 0.625000
v 0.687500 0.687500 0.375000
v 0.312500 0.687500 0.375000
v 0.375000 0.687500 0.687500
v 0.625000 0.687500 0.687500
v 0.687500 0.687500 0.687500
v 0.687500 0.687500 0.312500
v 0.312500 0.687500 0.687500
v 0.312500 0.687500 0.312500
v 0.625000 0.687500 0.312500
v 0.375000 0.687500 0.312500
v 0.625000 0.687500 0.687500
v 0.625000 0.812500 0.687500
v 0.625000 0.687500 0.625000
v 0.625000 0.812500 0.625000
v 0.687500 0.687500 0.687500
v 0.687500 0.812500 0.687500
v 0.687500 0.687500 0.625000
v 0.687500 0.812500 0.625000
v 0.625000 0.937500 0.625000
v 0.187500 0.625000 0.125000
v 0.187500 0.125000 0.125000
v 0.812500 0.750000 0.125000
v 0.812500 0.625000 0.125000
v 0.812500 0.125000 0.125000
v 0.187500 0.750000 0.125000
v 0.375000 0.687500 0.312500
v 0.375000 0.812500 0.312500
v 0.375000 0.687500 0.375000
v 0.375000 0.812500 0.375000
v 0.312500 0.687500 0.312500
v 0.312500 0.812500 0.312500
v 0.312500 0.687500 0.375000
v 0.312500 0.812500 0.375000
v 0.375000 0.937500 0.375000
v 0.687500 0.687500 0.375000
v 0.687500 0.812500 0.375000
v 0.625000 0.687500 0.375000
v 0.625000 0.812500 0.375000
v 0.687500 0.687500 0.312500
v 0.687500 0.812500 0.312500
v 0.625000 0.687500 0.312500
v 0.625000 0.812500 0.312500
v 0.625000 0.937500 0.375000
v 0.312500 0.687500 0.625000
v 0.312500 0.812500 0.625000
v 0.375000 0.687500 0.625000
v 0.375000 0.812500 0.625000
v 0.312500 0.687500 0.687500
v 0.312500 0.812500 0.687500
v 0.375000 0.687500 0.687500
v 0.375000 0.812500 0.687500
v 0.375000 0.937500 0.625000
v 0.312500 0.125000 0.812500
v 0.687500 0.125000 0.812500
v 0.687500 0.625000 0.812500
v 0.312500 0.625000 0.812500
v 0.375000 0.250000 0.812500
v 0.500000 0.250000 0.812500
v 0.500000 0.562500 0.812500
v 0.750000 0.718750 0.437500
v 0.750000 0.718750 0.562500
v 0.625000 0.718750 0.593750
v 0.625000 0.718750 0.406250
v 0.687500 0.718750 0.593750
v 0.687500 0.718750 0.406250
v 0.750000 0.687500 0.437500
v 0.750000 0.687500 0.562500
v 0.625000 0.687500 0.593750
v 0.625000 0.687500 0.406250
v 0.687500 0.687500 0.593750
v 0.687500 0.687500 0.406250
v 0.250000 0.718750 0.437500
v 0.250000 0.718750 0.562500
v 0.375000 0.718750 0.593750
v 0.375000 0.718750 0.406250
v 0.312500 0.718750 0.593750
v 0.312500 0.718750 0.406250
v 0.250000 0.687500 0.437500
v 0.250000 0.687500 0.562500
v 0.375000 0.687500 0.593750
v 0.375000 0.687500 0.406250
v 0.312500 0.687500 0.593750
v 0.312500 0.687500 0.406250
v 0.656250 0.718750 0.588388
v 0.656250 0.750000 0.588388
v 0.567862 0.718750 0.500000
v 0.567862 0.750000 0.500000
v 0.744638 0.718750 0.500000
v 0.744638 0.750000 0.500000
v 0.656250 0.718750 0.411612
v 0.656250 0.750000 0.411612
v 0.343750 0.718750 0.588388
v 0.343750 0.750000 0.588388
v 0.255362 0.718750 0.500000
v 0.255362 0.750000 0.500000
v 0.432138 0.718750 0.500000
v 0.432138 0.750000 0.500000
v 0.343750 0.718750 0.411612
v 0.343750 0.750000 0.411612
vt 0.062500 0.468750
vt 0.000000 0.468750
vt 0.000000 0.375000
vt 0.062500 0.375000
vt 0.750000 0.593750
vt 0.750000 0.687500
vt 0.500000 0.687500
vt 0.500000 0.593750
vt 0.000000 0.968750
vt 0.031250 0.968750
vt 0.031250 1.000000
vt 0.000000 1.000000
vt 0.593750 0.000000
vt 0.593750 0.375000
vt 0.531250 0.375000
vt 0.531250 0.000000
vt 0.031250 0.968750
vt 0.031250 1.000000
vt 0.000000 1.000000
vt 0.000000 0.968750
vt 0.812500 0.375000
vt 0.812500 0.000000
vt 0.906250 0.000000
vt 0.906250 0.375000
vt 0.718750 -0.000000
vt 0.718750 0.375000
vt 0.656250 0.375000
vt 0.656250 -0.000000
vt 0.000000 1.000000
vt 0.000000 0.968750
vt 0.031250 0.968750
vt 0.031250 1.000000
vt 0.062500 0.468750
vt 0.000000 0.468750
vt 0.000000 0.375000
vt 0.062500 0.375000
vt 0.812500 0.375000
vt 0.812500 0.468750
vt -0.000000 0.468750
vt 0.250000 0.468750
vt 0.250000 0.531250
vt 0.000000 0.531250
vt 0.000000 0.968750
vt 0.250000 0.968750
vt 0.250000 0.906250
vt 0.000000 0.906250
vt 0.218750 0.687500
vt 0.218750 0.875000
vt 0.031250 0.875000
vt 0.031250 0.687500
vt 0.000000 0.906250
vt 0.250000 0.906250
vt 0.250000 0.968750
vt 0.000000 0.968750
vt 0.250000 0.906250
vt 0.250000 0.968750
vt 0.000000 0.906250
vt 0.000000 0.968750
vt 0.250000 0.656250
vt 0.000000 0.656250
vt 0.812500 0.000000
vt 0.812500 0.468750
vt 0.750000 0.468750
vt 0.750000 0.593750
vt 0.500000 0.593750
vt 0.500000 0.468750
vt 0.812500 0.468750
vt 0.812500 0.375000
vt 0.906250 0.375000
vt 0.812500 0.375000
vt 0.718750 0.375000
vt 0.718750 0.000000
vt 0.812500 0.000000
vt 0.812500 0.000000
vt 0.906250 0.000000
vt 0.812500 0.468750
vt 0.500000 0.593750
vt 0.500000 0.687500
vt 0.750000 0.687500
vt 0.750000 0.593750
vt 0.500000 0.468750
vt 0.750000 0.468750
vt 0.750000 0.593750
vt 0.500000 0.593750
vt 0.031250 0.968750
vt -0.000000 0.968750
vt -0.000000 1.000000
vt 0.031250 1.000000
vt 0.031250 1.000000
vt -0.000000 1.000000
vt -0.000000 0.968750
vt 0.031250 0.968750
vt 0.531250 0.718750
vt 0.531250 0.968750
vt 0.312500 0.968750
vt 0.312500 0.718750
vt 0.500000 0.718750
vt 0.500000 0.968750
vt 0.281250 0.968750
vt 0.281250 0.718750
vt 0.531250 0.968750
vt 0.562500 0.968750
vt 0.562500 1.000000
vt 0.656250 0.812500
vt 0.593750 0.812500
vt 0.593750 0.718750
vt 0.656250 0.718750
vt 0.937500 0.312500
vt 0.937500 0.531250
vt 0.968750 0.500000
vt 0.968750 0.312500
vt 1.000000 0.718750
vt 1.000000 0.968750
vt 0.937500 0.968750
vt 0.937500 0.718750
vt 1.000000 0.968750
vt 1.000000 0.718750
vt 0.937500 0.718750
vt 0.937500 0.968750
vt 0.750000 1.000000
vt 0.750000 0.781250
vt 0.718750 0.781250
vt 0.718750 1.000000
vt 0.531250 1.000000
vt 0.312500 1.000000
vt 0.312500 1.000000
vt 0.531250 1.000000
vt 0.531250 0.968750
vt 0.312500 0.968750
vt 0.937500 1.000000
vt 0.750000 1.000000
vt 0.750000 0.968750
vt 0.781250 0.531250
vt 0.812500 0.562500
vt 0.843750 0.562500
vt 0.781250 0.500000
vt 0.812500 0.562500
vt 0.781250 0.531250
vt 0.781250 0.500000
vt 0.843750 0.562500
vt 1.000000 0.687500
vt 0.812500 0.687500
vt 0.812500 0.656250
vt 1.000000 0.656250
vt 0.593750 0.718750
vt 0.593750 0.812500
vt 0.656250 0.812500
vt 0.656250 0.718750
vt 0.718750 0.781250
vt 0.718750 1.000000
vt 0.656250 1.000000
vt 0.656250 0.781250
vt 0.750000 0.781250
vt 0.750000 1.000000
vt 0.843750 0.531250
vt 0.843750 0.500000
vt 0.937500 0.593750
vt 0.906250 0.593750
vt 0.656250 1.000000
vt 0.593750 1.000000
vt 0.656250 0.781250
vt 0.656250 1.000000
vt 0.906250 0.593750
vt 0.937500 0.593750
vt 0.843750 0.500000
vt 0.843750 0.531250
vt 0.218750 0.968750
vt 0.187500 0.937500
vt 0.250000 0.937500
vt 0.250000 0.968750
vt 0.312500 0.718750
vt 0.312500 0.656250
vt 0.250000 0.656250
vt 0.250000 0.718750
vt 0.937500 0.593750
vt 0.968750 0.562500
vt 1.000000 0.593750
vt 0.937500 0.281250
vt 1.000000 0.281250
vt 0.968750 0.312500
vt 0.312500 0.718750
vt 0.250000 0.718750
vt 0.250000 0.968750
vt 0.718750 0.718750
vt 0.656250 0.718750
vt 0.656250 0.718750
vt 0.718750 0.718750
vt 0.750000 0.718750
vt 0.875000 0.718750
vt 0.562500 0.718750
vt 0.593750 0.687500
vt 0.843750 0.687500
vt 0.812500 0.656250
vt 0.812500 0.687500
vt 0.562500 0.687500
vt 0.562500 0.656250
vt 0.562500 0.187500
vt 0.437500 0.187500
vt 0.437500 0.062500
vt 0.562500 0.062500
vt 0.437500 0.062500
vt 0.562500 0.031250
vt 0.437500 0.031250
vt 0.562500 0.031250
vt 0.437500 0.031250
vt 0.437500 0.000000
vt 0.562500 0.000000
vt 0.437500 0.031250
vt 0.562500 0.031250
vt 0.562500 0.750000
vt 0.562500 0.781250
vt 0.531250 0.781250
vt 0.937500 0.312500
vt 0.937500 0.531250
vt 0.968750 0.531250
vt 0.968750 0.343750
vt 0.562500 0.031250
vt 0.562500 0.000000
vt 0.437500 0.000000
vt 0.593750 1.000000
vt 0.562500 0.968750
vt 0.562500 0.781250
vt 0.593750 0.750000
vt 0.187500 0.906250
vt 0.187500 0.968750
vt 0.156250 0.968750
vt 0.156250 0.906250
vt 0.187500 0.968750
vt 0.187500 0.906250
vt 0.156250 0.906250
vt 0.156250 0.968750
vt 0.125000 0.968750
vt 0.125000 0.906250
vt 0.156250 0.968750
vt 0.156250 0.906250
vt 0.093750 0.906250
vt 0.125000 0.906250
vt 0.093750 0.968750
vt 0.093750 0.906250
vt 0.062500 0.906250
vt 0.125000 0.906250
vt 0.093750 0.906250
vt 0.312500 0.656250
vt 0.312500 0.718750
vt 0.250000 0.718750
vt 0.250000 0.656250
vt 0.750000 0.718750
vt 0.250000 0.968750
vt 0.250000 0.718750
vt 0.187500 0.937500
vt 0.187500 0.906250
vt 0.250000 0.906250
vt 0.218750 0.937500
vt 0.187500 0.906250
vt 0.187500 0.968750
vt 0.156250 0.968750
vt 0.156250 0.906250
vt 0.187500 0.968750
vt 0.187500 0.906250
vt 0.156250 0.906250
vt 0.156250 0.968750
vt 0.125000 0.968750
vt 0.125000 0.906250
vt 0.156250 0.968750
vt 0.156250 0.906250
vt 0.093750 0.906250
vt 0.125000 0.906250
vt 0.093750 0.968750
vt 0.093750 0.906250
vt 0.062500 0.906250
vt 0.125000 0.906250
vt 0.093750 0.906250
vt 0.187500 0.906250
vt 0.187500 0.968750
vt 0.156250 0.968750
vt 0.156250 0.906250
vt 0.187500 0.968750
vt 0.187500 0.906250
vt 0.156250 0.906250
vt 0.156250 0.968750
vt 0.125000 0.968750
vt 0.125000 0.906250
vt 0.156250 0.968750
vt 0.156250 0.906250
vt 0.093750 0.906250
vt 0.125000 0.906250
vt 0.093750 0.968750
vt 0.093750 0.906250
vt 0.062500 0.906250
vt 0.125000 0.906250
vt 0.093750 0.906250
vt 0.187500 0.906250
vt 0.187500 0.968750
vt 0.156250 0.968750
vt 0.156250 0.906250
vt 0.187500 0.968750
vt 0.187500 0.906250
vt 0.156250 0.906250
vt 0.156250 0.968750
vt 0.125000 0.968750
vt 0.125000 0.906250
vt 0.156250 0.968750
vt 0.156250 0.906250
vt 0.093750 0.906250
vt 0.125000 0.906250
vt 0.093750 0.968750
vt 0.093750 0.906250
vt 0.062500 0.906250
vt 0.125000 0.906250
vt 0.093750 0.906250
vt 0.312500 0.781250
vt 0.375000 0.781250
vt 0.375000 0.937500
vt 0.312500 0.937500
vt 0.281250 0.718750
vt 0.281250 0.968750
vt 0.500000 0.937500
vt 0.500000 0.781250
vt 0.531250 0.718750
vt 0.531250 0.968750
vt 0.437500 0.781250
vt 0.437500 0.937500
vt 0.468750 0.968750
vt 0.437500 0.937500
vt 0.468750 0.718750
vt 0.437500 0.781250
vt 0.468750 0.093750
vt 0.562500 0.093750
vt 0.546875 0.062500
vt 0.484375 0.062500
vt 0.562500 0.125000
vt 0.468750 0.125000
vt 0.500000 0.062500
vt 0.531250 0.062500
vt 0.531250 0.031250
vt 0.500000 0.031250
vt 0.500000 0.062500
vt 0.468750 0.062500
vt 0.468750 0.031250
vt 0.500000 0.031250
vt 0.562500 0.062500
vt 0.531250 0.062500
vt 0.531250 0.031250
vt 0.562500 0.031250
vt 0.546875 0.031250
vt 0.484375 0.031250
vt 0.531250 0.062500
vt 0.562500 0.062500
vt 0.562500 0.031250
vt 0.531250 0.031250
vt 0.468750 0.156250
vt 0.484375 0.125000
vt 0.546875 0.125000
vt 0.562500 0.156250
vt 0.562500 0.187500
vt 0.468750 0.187500
vt 0.500000 0.125000
vt 0.500000 0.093750
vt 0.531250 0.093750
vt 0.531250 0.125000
vt 0.500000 0.125000
vt 0.500000 0.093750
vt 0.468750 0.093750
vt 0.468750 0.125000
vt 0.562500 0.125000
vt 0.562500 0.093750
vt 0.531250 0.093750
vt 0.531250 0.125000
vt 0.484375 0.093750
vt 0.546875 0.093750
vt 0.531250 0.125000
vt 0.531250 0.093750
vt 0.562500 0.093750
vt 0.562500 0.125000
vt 0.937500 0.187500
vt 0.937500 0.218750
vt 0.875000 0.218750
vt 0.875000 0.187500
vt 0.937500 0.218750
vt 0.937500 0.250000
vt 0.875000 0.250000
vt 0.875000 0.218750
vt 0.937500 0.250000
vt 0.937500 0.218750
vt 0.875000 0.187500
vt 0.875000 0.218750
vt 0.875000 0.312500
vt 0.875000 0.250000
vt 0.937500 0.250000
vt 0.937500 0.312500
vt 0.937500 0.187500
vt 0.937500 0.218750
vt 0.875000 0.218750
vt 0.875000 0.187500
vt 0.937500 0.218750
vt 0.937500 0.250000
vt 0.875000 0.250000
vt 0.875000 0.218750
vt 0.937500 0.250000
vt 0.937500 0.218750
vt 0.875000 0.187500
vt 0.875000 0.218750
vt 0.875000 0.312500
vt 0.875000 0.250000
vt 0.937500 0.250000
vt 0.937500 0.312500
vn -0.7071 0.7071 0.0000
vn 0.0000 0.0000 -1.0000
vn 0.0000 -1.0000 0.0000
vn -1.0000 0.0000 0.0000
vn 1.0000 0.0000 0.0000
vn 0.7071 0.7071 0.0000
vn 0.0000 1.0000 0.0000
vn -0.7071 0.0000 -0.7071
vn 0.0000 -0.7071 -0.7071
vn 0.0000 0.7071 -0.7071
vn 0.7071 0.0000 -0.7071
vn 0.0000 0.0000 1.0000
vn 0.7071 0.0000 0.7071
vn -0.7071 0.0000 0.7071
vn 0.0000 0.7071 0.7071
vn -0.5774 0.5774 0.5774
vn 0.5774 0.5774 0.5774
vn 0.4472 0.8944 0.0000
vn -0.4472 0.8944 0.0000
vn 0.0000 0.8944 0.4472
vn 0.0000 0.8944 -0.4472
vn 0.0000 0.4472 0.8944
vn 0.8944 0.4472 0.0000
vn 0.0000 0.4472 -0.8944
vn -0.8944 0.4472 0.0000
vn 0.4472 0.0000 -0.8944
vn 0.4472 0.0000 0.8944
vn -0.4472 0.0000 -0.8944
vn -0.4472 0.0000 0.8944
usemtl INFERNO_ENGINE
s off
f 12/1/1 13/2/1 8/3/1 7/4/1
f 26/5/2 13/6/2 14/7/2 19/8/2
f 2/9/3 4/10/3 3/11/3 1/12/3
f 6/13/4 7/14/4 8/15/4 5/16/4
f 2/17/3 1/18/3 6/19/3 5/20/3
f 26/21/2 2/22/2 5/23/2 8/24/2
f 10/25/5 9/26/5 30/27/5 11/28/5
f 3/29/3 4/30/3 10/31/3 11/32/3
f 14/33/6 15/34/6 30/35/6 9/36/6
f 19/37/2 14/38/2 9/26/2
f 12/39/7 15/40/7 14/41/7 13/42/7
f 16/43/4 26/44/4 22/45/4 23/46/4
f 17/47/2 18/48/2 21/49/2 20/50/2
f 24/51/5 25/52/5 19/53/5 27/54/5
f 23/55/3 24/51/3 27/54/3 16/56/3
f 25/57/7 22/45/7 26/44/7 19/58/7
f 18/48/8 17/47/8 23/59/8 22/45/8
f 17/47/9 20/50/9 24/60/9 23/59/9
f 21/49/10 18/48/10 22/45/10 25/57/10
f 20/50/11 21/49/11 25/57/11 24/60/11
f 4/61/2 19/37/2 9/26/2 10/25/2
f 13/62/2 26/21/2 8/24/2
f 2/63/2 16/64/2 27/65/2 4/66/2
f 15/67/12 29/68/12 30/69/12
f 28/70/12 7/71/12 6/72/12 1/73/12
f 30/69/12 29/68/12 3/74/12 11/75/12
f 28/70/12 12/76/12 7/71/12
f 29/77/12 15/78/12 12/79/12 28/80/12
f 1/81/12 3/82/12 31/83/12 32/84/12
f 52/85/3 61/86/3 60/87/3 53/88/3
f 57/89/3 56/90/3 61/86/3 52/85/3
f 53/88/3 60/87/3 67/91/3 65/92/3
usemtl QUAKE_REFINERY
f 33/93/4 44/94/4 36/95/4 35/96/4
f 39/97/5 40/98/5 47/99/5 37/100/5
f 41/101/7 84/102/7 34/103/7
f 55/104/13 57/105/13 52/106/13 50/107/13
f 38/108/7 45/109/7 83/110/7 82/111/7
f 37/112/13 47/113/13 132/114/13 131/115/13
f 44/116/14 33/117/14 130/118/14 133/119/14
f 33/120/7 35/121/7 58/122/7 59/123/7
f 34/124/1 46/125/1 36/95/1 44/94/1
f 45/126/6 38/127/6 47/128/6 40/129/6
f 42/130/15 41/131/15 133/132/15 132/114/15
f 41/133/16 34/134/16 44/135/16 133/136/16
f 38/137/17 42/138/17 132/139/17 47/140/17
f 131/141/7 130/142/7 54/143/7 55/144/7
f 61/145/14 56/146/14 54/147/14 59/148/14
f 51/149/5 50/150/5 52/151/5 53/152/5
f 39/153/7 37/154/7 50/150/7 51/149/7
f 131/155/7 55/156/7 50/157/7 37/158/7
f 55/104/12 54/159/12 56/160/12 57/105/12
f 59/123/4 58/122/4 60/161/4 61/162/4
f 33/163/7 59/164/7 54/165/7 130/166/7
f 68/167/6 62/168/6 99/169/6 71/170/6
f 62/171/5 40/172/5 100/173/5 99/174/5
f 36/175/12 46/176/12 63/177/12
f 40/178/12 62/179/12 45/180/12
f 40/129/5 39/181/5 101/182/5 100/183/5
f 60/161/4 58/122/4 66/184/4 67/185/4
f 51/149/5 53/152/5 65/186/5 64/187/5
f 39/153/7 51/149/7 64/187/7 101/188/7
f 63/189/15 62/190/15 68/191/15 69/192/15
f 70/193/7 69/194/7 68/195/7 71/196/7
f 45/180/12 62/179/12 63/177/12 46/176/12
f 74/197/7 75/198/7 72/199/7 73/200/7
f 74/201/18 73/200/18 77/202/18 78/203/18
f 72/204/19 75/205/19 79/206/19 76/207/19
f 73/200/20 72/199/20 80/208/20 81/209/20
f 38/210/7 82/211/7 42/212/7
f 46/213/7 34/214/7 84/215/7 85/216/7
f 84/102/7 41/101/7 42/212/7 82/211/7
f 75/205/21 74/217/21 86/218/21 87/219/21
f 46/220/7 85/221/7 83/222/7 45/223/7
f 88/224/4 89/225/4 91/226/4 90/227/4
f 90/227/2 91/226/2 95/228/2 94/229/2
f 94/230/5 95/231/5 93/232/5 92/233/5
f 92/233/12 93/232/12 89/234/12 88/235/12
f 91/236/4 89/237/4 96/238/4
f 89/239/22 93/240/22 96/238/22
f 95/241/2 91/236/2 96/238/2
f 93/240/23 95/242/23 96/238/23
f 36/243/4 63/244/4 102/245/4 97/246/4
f 58/122/7 35/121/7 98/247/7 66/184/7
f 35/96/4 36/95/4 97/248/4 98/249/4
f 70/250/1 102/251/1 63/252/1 69/253/1
f 103/254/5 104/255/5 106/256/5 105/257/5
f 105/257/12 106/256/12 110/258/12 109/259/12
f 109/260/4 110/261/4 108/262/4 107/263/4
f 107/263/2 108/262/2 104/264/2 103/265/2
f 106/266/5 104/267/5 111/268/5
f 104/269/24 108/270/24 111/268/24
f 110/271/12 106/266/12 111/268/12
f 108/270/25 110/272/25 111/268/25
f 112/273/12 113/274/12 115/275/12 114/276/12
f 114/276/4 115/275/4 119/277/4 118/278/4
f 118/279/2 119/280/2 117/281/2 116/282/2
f 116/282/5 117/281/5 113/283/5 112/284/5
f 115/285/12 113/286/12 120/287/12
f 113/288/23 117/289/23 120/287/23
f 119/290/4 115/285/4 120/287/4
f 117/289/24 119/291/24 120/287/24
f 121/292/2 122/293/2 124/294/2 123/295/2
f 123/295/5 124/294/5 128/296/5 127/297/5
f 127/298/12 128/299/12 126/300/12 125/301/12
f 125/301/4 126/300/4 122/302/4 121/303/4
f 124/304/2 122/305/2 129/306/2
f 122/307/25 126/308/25 129/306/25
f 128/309/5 124/304/5 129/306/5
f 126/308/22 128/310/22 129/306/22
f 134/311/12 135/312/12 136/313/12 49/314/12
f 130/315/12 135/312/12 134/311/12
f 133/316/12 49/314/12 136/313/12
f 134/311/12 49/314/12 133/316/12 130/315/12
f 48/317/12 43/318/12 131/319/12 132/320/12
f 135/321/12 43/318/12 48/317/12 136/322/12
f 132/323/12 133/316/12 136/313/12
f 48/324/12 132/323/12 136/313/12
f 131/325/12 43/326/12 135/312/12
f 130/315/12 131/325/12 135/312/12
f 142/327/7 141/328/7 138/329/7 137/330/7
f 139/331/7 141/328/7 142/327/7 140/332/7
f 141/333/12 139/334/12 145/335/12 147/336/12
f 142/337/26 137/338/26 143/339/26 148/340/26
f 140/341/2 142/342/2 148/343/2 146/344/2
f 137/330/5 138/329/5 144/345/5 143/346/5
f 138/347/27 141/348/27 147/349/27 144/350/27
f 154/351/7 149/352/7 150/353/7 153/354/7
f 151/355/7 152/356/7 154/351/7 153/354/7
f 153/357/12 159/358/12 157/359/12 151/360/12
f 154/361/28 160/362/28 155/363/28 149/364/28
f 152/365/2 158/366/2 160/367/2 154/368/2
f 149/352/4 155/369/4 156/370/4 150/353/4
f 150/371/29 156/372/29 159/373/29 153/374/29
usemtl GALE_PRESSURIZER
f 161/375/14 162/376/14 164/377/14 163/378/14
f 163/379/8 164/380/8 168/381/8 167/382/8
f 167/382/11 168/381/11 166/383/11 165/384/11
f 165/385/13 166/386/13 162/376/13 161/375/13
f 168/387/7 164/388/7 162/389/7 166/390/7
f 169/391/14 170/392/14 172/393/14 171/394/14
f 171/395/8 172/396/8 176/397/8 175/398/8
f 175/398/11 176/397/11 174/399/11 173/400/11
f 173/401/13 174/402/13 170/392/13 169/391/13
f 176/403/7 172/404/7 170/405/7 174/406/7
