# Blender v2.80 (sub 75) OBJ File: 'chem devices.blend'
# www.blender.org
mtllib actuator_ender_inventory.mtl
o LABYRINTHINE_NAVIGATOR_BODY_Cube.053
v 0.250000 0.000000 0.125000
v 0.250000 0.000000 0.000000
v 0.750000 0.000000 0.125000
v 0.750000 0.000000 0.000000
v 0.062500 0.000000 0.000000
v 0.062500 0.000000 0.125000
v 0.062500 0.750000 0.125000
v 0.062500 0.750000 0.000000
v 0.937500 0.750000 0.000000
v 0.937500 0.000000 0.000000
v 0.937500 0.000000 0.125000
v 0.250000 0.937500 0.125000
v 0.250000 0.937500 0.000000
v 0.750000 0.937500 0.000000
v 0.750000 0.937500 0.125000
v 0.250000 0.250000 0.000000
v 0.312500 0.312500 -0.187500
v 0.312500 0.687500 -0.187500
v 0.750000 0.750000 0.000000
v 0.687500 0.312500 -0.187500
v 0.687500 0.687500 -0.187500
v 0.250000 0.750000 -0.125000
v 0.250000 0.250000 -0.125000
v 0.750000 0.250000 -0.125000
v 0.750000 0.750000 -0.125000
v 0.250000 0.750000 0.000000
v 0.750000 0.250000 0.000000
v 0.250000 0.750000 0.125000
v 0.750000 0.750000 0.125000
v 0.937500 0.750000 0.125000
v 0.750000 0.250000 0.125000
v 0.250000 0.250000 0.125000
v 0.187500 0.125000 0.687500
v 0.250000 0.687500 0.687500
v 0.187500 0.125000 0.250000
v 0.187500 0.625000 0.250000
v 0.812500 0.125000 0.687500
v 0.750000 0.687500 0.687500
v 0.812500 0.125000 0.250000
v 0.812500 0.625000 0.250000
v 0.312500 0.687500 0.750000
v 0.687500 0.687500 0.750000
v 0.625000 0.250000 0.812500
v 0.187500 0.625000 0.687500
v 0.750000 0.687500 0.250000
v 0.250000 0.687500 0.250000
v 0.812500 0.625000 0.687500
v 0.625000 0.562500 0.812500
v 0.375000 0.562500 0.812500
v 0.875000 0.125000 0.687500
v 0.875000 0.125000 0.250000
v 0.875000 0.000000 0.687500
v 0.875000 0.000000 0.250000
v 0.312500 0.125000 0.875000
v 0.687500 0.125000 0.875000
v 0.312500 0.000000 0.875000
v 0.687500 0.000000 0.875000
v 0.125000 0.125000 0.250000
v 0.125000 0.125000 0.687500
v 0.125000 0.000000 0.250000
v 0.125000 0.000000 0.687500
v 0.812500 0.750000 0.250000
v 0.187500 0.750000 0.250000
v 0.875000 0.125000 0.125000
v 0.875000 0.000000 0.125000
v 0.125000 0.125000 0.125000
v 0.125000 0.000000 0.125000
v 0.750000 0.812500 0.187500
v 0.250000 0.812500 0.187500
v 0.250000 0.812500 0.125000
v 0.750000 0.812500 0.125000
v 0.375000 0.718750 0.625000
v 0.625000 0.718750 0.625000
v 0.625000 0.718750 0.375000
v 0.375000 0.718750 0.375000
v 0.312500 0.687500 0.625000
v 0.687500 0.687500 0.625000
v 0.687500 0.687500 0.375000
v 0.312500 0.687500 0.375000
v 0.375000 0.687500 0.687500
v 0.625000 0.687500 0.687500
v 0.687500 0.687500 0.687500
v 0.687500 0.687500 0.312500
v 0.312500 0.687500 0.687500
v 0.312500 0.687500 0.312500
v 0.625000 0.687500 0.312500
v 0.375000 0.687500 0.312500
v 0.625000 0.687500 0.687500
v 0.625000 0.812500 0.687500
v 0.625000 0.687500 0.625000
v 0.625000 0.812500 0.625000
v 0.687500 0.687500 0.687500
v 0.687500 0.812500 0.687500
v 0.687500 0.687500 0.625000
v 0.687500 0.812500 0.625000
v 0.625000 0.937500 0.625000
v 0.187500 0.625000 0.125000
v 0.187500 0.125000 0.125000
v 0.812500 0.750000 0.125000
v 0.812500 0.625000 0.125000
v 0.812500 0.125000 0.125000
v 0.187500 0.750000 0.125000
v 0.375000 0.687500 0.312500
v 0.375000 0.812500 0.312500
v 0.375000 0.687500 0.375000
v 0.375000 0.812500 0.375000
v 0.312500 0.687500 0.312500
v 0.312500 0.812500 0.312500
v 0.312500 0.687500 0.375000
v 0.312500 0.812500 0.375000
v 0.375000 0.937500 0.375000
v 0.687500 0.687500 0.375000
v 0.687500 0.812500 0.375000
v 0.625000 0.687500 0.375000
v 0.625000 0.812500 0.375000
v 0.687500 0.687500 0.312500
v 0.687500 0.812500 0.312500
v 0.625000 0.687500 0.312500
v 0.625000 0.812500 0.312500
v 0.625000 0.937500 0.375000
v 0.312500 0.687500 0.625000
v 0.312500 0.812500 0.625000
v 0.375000 0.687500 0.625000
v 0.375000 0.812500 0.625000
v 0.312500 0.687500 0.687500
v 0.312500 0.812500 0.687500
v 0.375000 0.687500 0.687500
v 0.375000 0.812500 0.687500
v 0.375000 0.937500 0.625000
v 0.312500 0.125000 0.812500
v 0.687500 0.125000 0.812500
v 0.687500 0.625000 0.812500
v 0.312500 0.625000 0.812500
v 0.375000 0.250000 0.812500
v 0.500000 0.250000 0.812500
v 0.500000 0.562500 0.812500
v 0.750000 0.718750 0.437500
v 0.750000 0.718750 0.562500
v 0.625000 0.718750 0.593750
v 0.625000 0.718750 0.406250
v 0.687500 0.718750 0.593750
v 0.687500 0.718750 0.406250
v 0.750000 0.687500 0.437500
v 0.750000 0.687500 0.562500
v 0.625000 0.687500 0.593750
v 0.625000 0.687500 0.406250
v 0.687500 0.687500 0.593750
v 0.687500 0.687500 0.406250
v 0.250000 0.718750 0.437500
v 0.250000 0.718750 0.562500
v 0.375000 0.718750 0.593750
v 0.375000 0.718750 0.406250
v 0.312500 0.718750 0.593750
v 0.312500 0.718750 0.406250
v 0.250000 0.687500 0.437500
v 0.250000 0.687500 0.562500
v 0.375000 0.687500 0.593750
v 0.375000 0.687500 0.406250
v 0.312500 0.687500 0.593750
v 0.312500 0.687500 0.406250
v 0.656250 0.718750 0.588388
v 0.656250 0.750000 0.588388
v 0.567862 0.718750 0.500000
v 0.567862 0.750000 0.500000
v 0.744638 0.718750 0.500000
v 0.744638 0.750000 0.500000
v 0.656250 0.718750 0.411612
v 0.656250 0.750000 0.411612
v 0.343750 0.718750 0.588388
v 0.343750 0.750000 0.588388
v 0.255362 0.718750 0.500000
v 0.255362 0.750000 0.500000
v 0.432138 0.718750 0.500000
v 0.432138 0.750000 0.500000
v 0.343750 0.718750 0.411612
v 0.343750 0.750000 0.411612
vt 0.062500 0.468750
vt 0.000000 0.468750
vt 0.000000 0.375000
vt 0.062500 0.375000
vt 0.750000 0.593750
vt 0.750000 0.687500
vt 0.500000 0.687500
vt 0.500000 0.593750
vt 0.000000 0.968750
vt 0.031250 0.968750
vt 0.031250 1.000000
vt 0.000000 1.000000
vt 0.593750 0.000000
vt 0.593750 0.375000
vt 0.531250 0.375000
vt 0.531250 0.000000
vt 0.031250 0.968750
vt 0.031250 1.000000
vt 0.000000 1.000000
vt 0.000000 0.968750
vt 0.812500 0.375000
vt 0.812500 0.000000
vt 0.906250 0.000000
vt 0.906250 0.375000
vt 0.718750 -0.000000
vt 0.718750 0.375000
vt 0.656250 0.375000
vt 0.656250 -0.000000
vt 0.000000 1.000000
vt 0.000000 0.968750
vt 0.031250 0.968750
vt 0.031250 1.000000
vt 0.062500 0.468750
vt 0.000000 0.468750
vt 0.000000 0.375000
vt 0.062500 0.375000
vt 0.812500 0.375000
vt 0.812500 0.468750
vt -0.000000 0.468750
vt 0.250000 0.468750
vt 0.250000 0.531250
vt 0.000000 0.531250
vt 0.000000 0.968750
vt 0.250000 0.968750
vt 0.250000 0.906250
vt 0.000000 0.906250
vt 0.218750 0.687500
vt 0.218750 0.875000
vt 0.031250 0.875000
vt 0.031250 0.687500
vt 0.000000 0.906250
vt 0.250000 0.906250
vt 0.250000 0.968750
vt 0.000000 0.968750
vt 0.250000 0.906250
vt 0.250000 0.968750
vt 0.000000 0.906250
vt 0.000000 0.968750
vt 0.250000 0.656250
vt 0.000000 0.656250
vt 0.812500 0.000000
vt 0.812500 0.468750
vt 0.750000 0.468750
vt 0.750000 0.593750
vt 0.500000 0.593750
vt 0.500000 0.468750
vt 0.812500 0.468750
vt 0.812500 0.375000
vt 0.906250 0.375000
vt 0.812500 0.375000
vt 0.718750 0.375000
vt 0.718750 0.000000
vt 0.812500 0.000000
vt 0.812500 0.000000
vt 0.906250 0.000000
vt 0.812500 0.468750
vt 0.500000 0.593750
vt 0.500000 0.687500
vt 0.750000 0.687500
vt 0.750000 0.593750
vt 0.500000 0.468750
vt 0.750000 0.468750
vt 0.750000 0.593750
vt 0.500000 0.593750
vt 0.031250 0.968750
vt -0.000000 0.968750
vt -0.000000 1.000000
vt 0.031250 1.000000
vt 0.031250 1.000000
vt -0.000000 1.000000
vt -0.000000 0.968750
vt 0.031250 0.968750
vt 0.531250 0.718750
vt 0.531250 0.968750
vt 0.312500 0.968750
vt 0.312500 0.718750
vt 0.500000 0.718750
vt 0.500000 0.968750
vt 0.281250 0.968750
vt 0.281250 0.718750
vt 0.531250 0.968750
vt 0.562500 0.968750
vt 0.562500 1.000000
vt 0.656250 0.812500
vt 0.593750 0.812500
vt 0.593750 0.718750
vt 0.656250 0.718750
vt 0.937500 0.312500
vt 0.937500 0.531250
vt 0.968750 0.500000
vt 0.968750 0.312500
vt 1.000000 0.718750
vt 1.000000 0.968750
vt 0.937500 0.968750
vt 0.937500 0.718750
vt 1.000000 0.968750
vt 1.000000 0.718750
vt 0.937500 0.718750
vt 0.937500 0.968750
vt 0.750000 1.000000
vt 0.750000 0.781250
vt 0.718750 0.781250
vt 0.718750 1.000000
vt 0.531250 1.000000
vt 0.312500 1.000000
vt 0.312500 1.000000
vt 0.531250 1.000000
vt 0.531250 0.968750
vt 0.312500 0.968750
vt 0.937500 1.000000
vt 0.750000 1.000000
vt 0.750000 0.968750
vt 0.781250 0.531250
vt 0.812500 0.562500
vt 0.843750 0.562500
vt 0.781250 0.500000
vt 0.812500 0.562500
vt 0.781250 0.531250
vt 0.781250 0.500000
vt 0.843750 0.562500
vt 1.000000 0.687500
vt 0.812500 0.687500
vt 0.812500 0.656250
vt 1.000000 0.656250
vt 0.593750 0.718750
vt 0.593750 0.812500
vt 0.656250 0.812500
vt 0.656250 0.718750
vt 0.718750 0.781250
vt 0.718750 1.000000
vt 0.656250 1.000000
vt 0.656250 0.781250
vt 0.750000 0.781250
vt 0.750000 1.000000
vt 0.843750 0.531250
vt 0.843750 0.500000
vt 0.937500 0.593750
vt 0.906250 0.593750
vt 0.656250 1.000000
vt 0.593750 1.000000
vt 0.656250 0.781250
vt 0.656250 1.000000
vt 0.906250 0.593750
vt 0.937500 0.593750
vt 0.843750 0.500000
vt 0.843750 0.531250
vt 0.218750 0.968750
vt 0.187500 0.937500
vt 0.250000 0.937500
vt 0.250000 0.968750
vt 0.312500 0.718750
vt 0.312500 0.656250
vt 0.250000 0.656250
vt 0.250000 0.718750
vt 0.937500 0.593750
vt 0.968750 0.562500
vt 1.000000 0.593750
vt 0.937500 0.281250
vt 1.000000 0.281250
vt 0.968750 0.312500
vt 0.312500 0.718750
vt 0.250000 0.718750
vt 0.250000 0.968750
vt 0.718750 0.718750
vt 0.656250 0.718750
vt 0.656250 0.718750
vt 0.718750 0.718750
vt 0.750000 0.718750
vt 0.875000 0.718750
vt 0.562500 0.718750
vt 0.593750 0.687500
vt 0.843750 0.687500
vt 0.812500 0.656250
vt 0.812500 0.687500
vt 0.562500 0.687500
vt 0.562500 0.656250
vt 0.562500 0.187500
vt 0.437500 0.187500
vt 0.437500 0.062500
vt 0.562500 0.062500
vt 0.437500 0.062500
vt 0.562500 0.031250
vt 0.437500 0.031250
vt 0.562500 0.031250
vt 0.437500 0.031250
vt 0.437500 0.000000
vt 0.562500 0.000000
vt 0.437500 0.031250
vt 0.562500 0.031250
vt 0.562500 0.750000
vt 0.562500 0.781250
vt 0.531250 0.781250
vt 0.937500 0.312500
vt 0.937500 0.531250
vt 0.968750 0.531250
vt 0.968750 0.343750
vt 0.562500 0.031250
vt 0.562500 0.000000
vt 0.437500 0.000000
vt 0.593750 1.000000
vt 0.562500 0.968750
vt 0.562500 0.781250
vt 0.593750 0.750000
vt 0.187500 0.906250
vt 0.187500 0.968750
vt 0.156250 0.968750
vt 0.156250 0.906250
vt 0.187500 0.968750
vt 0.187500 0.906250
vt 0.156250 0.906250
vt 0.156250 0.968750
vt 0.125000 0.968750
vt 0.125000 0.906250
vt 0.156250 0.968750
vt 0.156250 0.906250
vt 0.093750 0.906250
vt 0.125000 0.906250
vt 0.093750 0.968750
vt 0.093750 0.906250
vt 0.062500 0.906250
vt 0.125000 0.906250
vt 0.093750 0.906250
vt 0.312500 0.656250
vt 0.312500 0.718750
vt 0.250000 0.718750
vt 0.250000 0.656250
vt 0.750000 0.718750
vt 0.250000 0.968750
vt 0.250000 0.718750
vt 0.187500 0.937500
vt 0.187500 0.906250
vt 0.250000 0.906250
vt 0.218750 0.937500
vt 0.187500 0.906250
vt 0.187500 0.968750
vt 0.156250 0.968750
vt 0.156250 0.906250
vt 0.187500 0.968750
vt 0.187500 0.906250
vt 0.156250 0.906250
vt 0.156250 0.968750
vt 0.125000 0.968750
vt 0.125000 0.906250
vt 0.156250 0.968750
vt 0.156250 0.906250
vt 0.093750 0.906250
vt 0.125000 0.906250
vt 0.093750 0.968750
vt 0.093750 0.906250
vt 0.062500 0.906250
vt 0.125000 0.906250
vt 0.093750 0.906250
vt 0.187500 0.906250
vt 0.187500 0.968750
vt 0.156250 0.968750
vt 0.156250 0.906250
vt 0.187500 0.968750
vt 0.187500 0.906250
vt 0.156250 0.906250
vt 0.156250 0.968750
vt 0.125000 0.968750
vt 0.125000 0.906250
vt 0.156250 0.968750
vt 0.156250 0.906250
vt 0.093750 0.906250
vt 0.125000 0.906250
vt 0.093750 0.968750
vt 0.093750 0.906250
vt 0.062500 0.906250
vt 0.125000 0.906250
vt 0.093750 0.906250
vt 0.187500 0.906250
vt 0.187500 0.968750
vt 0.156250 0.968750
vt 0.156250 0.906250
vt 0.187500 0.968750
vt 0.187500 0.906250
vt 0.156250 0.906250
vt 0.156250 0.968750
vt 0.125000 0.968750
vt 0.125000 0.906250
vt 0.156250 0.968750
vt 0.156250 0.906250
vt 0.093750 0.906250
vt 0.125000 0.906250
vt 0.093750 0.968750
vt 0.093750 0.906250
vt 0.062500 0.906250
vt 0.125000 0.906250
vt 0.093750 0.906250
vt 0.312500 0.781250
vt 0.375000 0.781250
vt 0.375000 0.937500
vt 0.312500 0.937500
vt 0.281250 0.718750
vt 0.281250 0.968750
vt 0.500000 0.937500
vt 0.500000 0.781250
vt 0.531250 0.718750
vt 0.531250 0.968750
vt 0.437500 0.781250
vt 0.437500 0.937500
vt 0.468750 0.968750
vt 0.437500 0.937500
vt 0.468750 0.718750
vt 0.437500 0.781250
vt 0.468750 0.093750
vt 0.562500 0.093750
vt 0.546875 0.062500
vt 0.484375 0.062500
vt 0.562500 0.125000
vt 0.468750 0.125000
vt 0.500000 0.062500
vt 0.531250 0.062500
vt 0.531250 0.031250
vt 0.500000 0.031250
vt 0.500000 0.062500
vt 0.468750 0.062500
vt 0.468750 0.031250
vt 0.500000 0.031250
vt 0.562500 0.062500
vt 0.531250 0.062500
vt 0.531250 0.031250
vt 0.562500 0.031250
vt 0.546875 0.031250
vt 0.484375 0.031250
vt 0.531250 0.062500
vt 0.562500 0.062500
vt 0.562500 0.031250
vt 0.531250 0.031250
vt 0.468750 0.156250
vt 0.484375 0.125000
vt 0.546875 0.125000
vt 0.562500 0.156250
vt 0.562500 0.187500
vt 0.468750 0.187500
vt 0.500000 0.125000
vt 0.500000 0.093750
vt 0.531250 0.093750
vt 0.531250 0.125000
vt 0.500000 0.125000
vt 0.500000 0.093750
vt 0.468750 0.093750
vt 0.468750 0.125000
vt 0.562500 0.125000
vt 0.562500 0.093750
vt 0.531250 0.093750
vt 0.531250 0.125000
vt 0.484375 0.093750
vt 0.546875 0.093750
vt 0.531250 0.125000
vt 0.531250 0.093750
vt 0.562500 0.093750
vt 0.562500 0.125000
vt 0.937500 0.187500
vt 0.937500 0.218750
vt 0.875000 0.218750
vt 0.875000 0.187500
vt 0.937500 0.218750
vt 0.937500 0.250000
vt 0.875000 0.250000
vt 0.875000 0.218750
vt 0.937500 0.250000
vt 0.937500 0.218750
vt 0.875000 0.187500
vt 0.875000 0.218750
vt 0.875000 0.312500
vt 0.875000 0.250000
vt 0.937500 0.250000
vt 0.937500 0.312500
vt 0.937500 0.187500
vt 0.937500 0.218750
vt 0.875000 0.218750
vt 0.875000 0.187500
vt 0.937500 0.218750
vt 0.937500 0.250000
vt 0.875000 0.250000
vt 0.875000 0.218750
vt 0.937500 0.250000
vt 0.937500 0.218750
vt 0.875000 0.187500
vt 0.875000 0.218750
vt 0.875000 0.312500
vt 0.875000 0.250000
vt 0.937500 0.250000
vt 0.937500 0.312500
vn -0.7071 0.7071 0.0000
vn 0.0000 0.0000 -1.0000
vn 0.0000 -1.0000 0.0000
vn -1.0000 0.0000 0.0000
vn 1.0000 0.0000 0.0000
vn 0.7071 0.7071 0.0000
vn 0.0000 1.0000 0.0000
vn -0.7071 0.0000 -0.7071
vn 0.0000 -0.7071 -0.7071
vn 0.0000 0.7071 -0.7071
vn 0.7071 0.0000 -0.7071
vn 0.0000 0.0000 1.0000
vn 0.7071 0.0000 0.7071
vn -0.7071 0.0000 0.7071
vn 0.0000 0.7071 0.7071
vn -0.5774 0.5774 0.5774
vn 0.5774 0.5774 0.5774
vn 0.4472 0.8944 0.0000
vn -0.4472 0.8944 0.0000
vn 0.0000 0.8944 0.4472
vn 0.0000 0.8944 -0.4472
vn 0.0000 0.4472 0.8944
vn 0.8944 0.4472 0.0000
vn 0.0000 0.4472 -0.8944
vn -0.8944 0.4472 0.0000
vn 0.4472 0.0000 -0.8944
vn 0.4472 0.0000 0.8944
vn -0.4472 0.0000 -0.8944
vn -0.4472 0.0000 0.8944
usemtl INFERNO_ENGINE
s off
f 12/1/1 13/2/1 8/3/1 7/4/1
f 26/5/2 13/6/2 14/7/2 19/8/2
f 2/9/3 4/10/3 3/11/3 1/12/3
f 6/13/4 7/14/4 8/15/4 5/16/4
f 2/17/3 1/18/3 6/19/3 5/20/3
f 26/21/2 2/22/2 5/23/2 8/24/2
f 10/25/5 9/26/5 30/27/5 11/28/5
f 3/29/3 4/30/3 10/31/3 11/32/3
f 14/33/6 15/34/6 30/35/6 9/36/6
f 19/37/2 14/38/2 9/26/2
f 12/39/7 15/40/7 14/41/7 13/42/7
f 16/43/4 26/44/4 22/45/4 23/46/4
f 17/47/2 18/48/2 21/49/2 20/50/2
f 24/51/5 25/52/5 19/53/5 27/54/5
f 23/55/3 24/51/3 27/54/3 16/56/3
f 25/57/7 22/45/7 26/44/7 19/58/7
f 18/48/8 17/47/8 23/59/8 22/45/8
f 17/47/9 20/50/9 24/60/9 23/59/9
f 21/49/10 18/48/10 22/45/10 25/57/10
f 20/50/11 21/49/11 25/57/11 24/60/11
f 4/61/2 19/37/2 9/26/2 10/25/2
f 13/62/2 26/21/2 8/24/2
f 2/63/2 16/64/2 27/65/2 4/66/2
f 15/67/12 29/68/12 30/69/12
f 28/70/12 7/71/12 6/72/12 1/73/12
f 30/69/12 29/68/12 3/74/12 11/75/12
f 28/70/12 12/76/12 7/71/12
f 29/77/12 15/78/12 12/79/12 28/80/12
f 1/81/12 3/82/12 31/83/12 32/84/12
f 52/85/3 61/86/3 60/87/3 53/88/3
f 57/89/3 56/90/3 61/86/3 52/85/3
f 53/88/3 60/87/3 67/91/3 65/92/3
usemtl QUAKE_REFINERY
f 33/93/4 44/94/4 36/95/4 35/96/4
f 39/97/5 40/98/5 47/99/5 37/100/5
f 41/101/7 84/102/7 34/103/7
f 55/104/13 57/105/13 52/106/13 50/107/13
f 38/108/7 45/109/7 83/110/7 82/111/7
f 37/112/13 47/113/13 132/114/13 131/115/13
f 44/116/14 33/117/14 130/118/14 133/119/14
f 33/120/7 35/121/7 58/122/7 59/123/7
f 34/124/1 46/125/1 36/95/1 44/94/1
f 45/126/6 38/127/6 47/128/6 40/129/6
f 42/130/15 41/131/15 133/132/15 132/114/15
f 41/133/16 34/134/16 44/135/16 133/136/16
f 38/137/17 42/138/17 132/139/17 47/140/17
f 131/141/7 130/142/7 54/143/7 55/144/7
f 61/145/14 56/146/14 54/147/14 59/148/14
f 51/149/5 50/150/5 52/151/5 53/152/5
f 39/153/7 37/154/7 50/150/7 51/149/7
f 131/155/7 55/156/7 50/157/7 37/158/7
f 55/104/12 54/159/12 56/160/12 57/105/12
f 59/123/4 58/122/4 60/161/4 61/162/4
f 33/163/7 59/164/7 54/165/7 130/166/7
f 68/167/6 62/168/6 99/169/6 71/170/6
f 62/171/5 40/172/5 100/173/5 99/174/5
f 36/175/12 46/176/12 63/177/12
f 40/178/12 62/179/12 45/180/12
f 40/129/5 39/181/5 101/182/5 100/183/5
f 60/161/4 58/122/4 66/184/4 67/185/4
f 51/149/5 53/152/5 65/186/5 64/187/5
f 39/153/7 51/149/7 64/187/7 101/188/7
f 63/189/15 62/190/15 68/191/15 69/192/15
f 70/193/7 69/194/7 68/195/7 71/196/7
f 45/180/12 62/179/12 63/177/12 46/176/12
f 74/197/7 75/198/7 72/199/7 73/200/7
f 74/201/18 73/200/18 77/202/18 78/203/18
f 72/204/19 75/205/19 79/206/19 76/207/19
f 73/200/20 72/199/20 80/208/20 81/209/20
f 38/210/7 82/211/7 42/212/7
f 46/213/7 34/214/7 84/215/7 85/216/7
f 84/102/7 41/101/7 42/212/7 82/211/7
f 75/205/21 74/217/21 86/218/21 87/219/21
f 46/220/7 85/221/7 83/222/7 45/223/7
f 88/224/4 89/225/4 91/226/4 90/227/4
f 90/227/2 91/226/2 95/228/2 94/229/2
f 94/230/5 95/231/5 93/232/5 92/233/5
f 92/233/12 93/232/12 89/234/12 88/235/12
f 91/236/4 89/237/4 96/238/4
f 89/239/22 93/240/22 96/238/22
f 95/241/2 91/236/2 96/238/2
f 93/240/23 95/242/23 96/238/23
f 36/243/4 63/244/4 102/245/4 97/246/4
f 58/122/7 35/121/7 98/247/7 66/184/7
f 35/96/4 36/95/4 97/248/4 98/249/4
f 70/250/1 102/251/1 63/252/1 69/253/1
f 103/254/5 104/255/5 106/256/5 105/257/5
f 105/257/12 106/256/12 110/258/12 109/259/12
f 109/260/4 110/261/4 108/262/4 107/263/4
f 107/263/2 108/262/2 104/264/2 103/265/2
f 106/266/5 104/267/5 111/268/5
f 104/269/24 108/270/24 111/268/24
f 110/271/12 106/266/12 111/268/12
f 108/270/25 110/272/25 111/268/25
f 112/273/12 113/274/12 115/275/12 114/276/12
f 114/276/4 115/275/4 119/277/4 118/278/4
f 118/279/2 119/280/2 117/281/2 116/282/2
f 116/282/5 117/281/5 113/283/5 112/284/5
f 115/285/12 113/286/12 120/287/12
f 113/288/23 117/289/23 120/287/23
f 119/290/4 115/285/4 120/287/4
f 117/289/24 119/291/24 120/287/24
f 121/292/2 122/293/2 124/294/2 123/295/2
f 123/295/5 124/294/5 128/296/5 127/297/5
f 127/298/12 128/299/12 126/300/12 125/301/12
f 125/301/4 126/300/4 122/302/4 121/303/4
f 124/304/2 122/305/2 129/306/2
f 122/307/25 126/308/25 129/306/25
f 128/309/5 124/304/5 129/306/5
f 126/308/22 128/310/22 129/306/22
f 134/311/12 135/312/12 136/313/12 49/314/12
f 130/315/12 135/312/12 134/311/12
f 133/316/12 49/314/12 136/313/12
f 134/311/12 49/314/12 133/316/12 130/315/12
f 48/317/12 43/318/12 131/319/12 132/320/12
f 135/321/12 43/318/12 48/317/12 136/322/12
f 132/323/12 133/316/12 136/313/12
f 48/324/12 132/323/12 136/313/12
f 131/325/12 43/326/12 135/312/12
f 130/315/12 131/325/12 135/312/12
f 142/327/7 141/328/7 138/329/7 137/330/7
f 139/331/7 141/328/7 142/327/7 140/332/7
f 141/333/12 139/334/12 145/335/12 147/336/12
f 142/337/26 137/338/26 143/339/26 148/340/26
f 140/341/2 142/342/2 148/343/2 146/344/2
f 137/330/5 138/329/5 144/345/5 143/346/5
f 138/347/27 141/348/27 147/349/27 144/350/27
f 154/351/7 149/352/7 150/353/7 153/354/7
f 151/355/7 152/356/7 154/351/7 153/354/7
f 153/357/12 159/358/12 157/359/12 151/360/12
f 154/361/28 160/362/28 155/363/28 149/364/28
f 152/365/2 158/366/2 160/367/2 154/368/2
f 149/352/4 155/369/4 156/370/4 150/353/4
f 150/371/29 156/372/29 159/373/29 153/374/29
usemtl GALE_PRESSURIZER
f 161/375/14 162/376/14 164/377/14 163/378/14
f 163/379/8 164/380/8 168/381/8 167/382/8
f 167/382/11 168/381/11 166/383/11 165/384/11
f 165/385/13 166/386/13 162/376/13 161/375/13
f 168/387/7 164/388/7 162/389/7 166/390/7
f 169/391/14 170/392/14 172/393/14 171/394/14
f 171/395/8 172/396/8 176/397/8 175/398/8
f 175/398/11 176/397/11 174/399/11 173/400/11
f 173/401/13 174/402/13 170/392/13 169/391/13
f 176/403/7 172/404/7 170/405/7 174/406/7
o LABYRINTHINE_NAVIGATOR_LOCATOR_Cube.122
v 0.437488 1.687652 0.175904
v 0.437490 1.197750 0.499632
v 0.562504 1.249981 0.715766
v 0.562504 1.304208 0.684546
v 0.562488 1.125495 0.499536
v 0.562490 1.197746 0.499625
v 0.562512 1.874501 0.500457
v 0.437490 1.651450 0.238432
v 0.437480 1.349198 0.238060
v 0.562475 1.313145 0.175437
v 0.562480 1.349194 0.238053
v 0.562488 1.687648 0.175897
v 0.562490 1.651446 0.238424
v 0.437475 1.313149 0.175444
v 0.437488 1.125499 0.499543
v 0.437504 1.249985 0.715773
v 0.437504 1.304212 0.684554
v 0.562508 1.281039 0.769426
v 0.437508 1.281043 0.769433
v 0.562510 1.802250 0.500368
v 0.437521 1.749488 0.716387
v 0.437517 1.695338 0.685034
v 0.437512 1.874505 0.500464
v 0.437510 1.802254 0.500375
v 0.562521 1.749484 0.716380
v 0.562517 1.695334 0.685027
v 0.437523 1.718298 0.769970
v 0.562523 1.718294 0.769963
v 0.499972 1.259059 0.144124
v 0.499984 1.071409 0.468223
v 0.500004 1.195890 0.747078
v 0.500008 1.226948 0.800738
v 0.499984 1.687727 0.113401
v 0.499972 1.313224 0.112941
v 0.500012 1.928668 0.469277
v 0.499988 1.741815 0.144717
v 0.499988 1.071332 0.530723
v 0.500024 1.803502 0.747825
v 0.500026 1.772312 0.801408
v 0.500016 1.928591 0.531777
v 0.500003 1.455809 0.050594
v 0.500003 1.455809 0.175594
v 0.455808 1.500004 0.050594
v 0.455808 1.500003 0.175594
v 0.544197 1.500004 0.050594
v 0.544197 1.500003 0.175594
v 0.500003 1.544198 0.050594
v 0.500003 1.544198 0.175594
v 0.500003 1.500004 -0.074406
v 0.500003 1.911292 0.686433
v 0.500003 1.803039 0.623933
v 0.455809 1.889195 0.724706
v 0.455809 1.780942 0.662206
v 0.544197 1.889195 0.724706
v 0.544197 1.780942 0.662206
v 0.500003 1.867098 0.762980
v 0.500003 1.758845 0.700479
v 0.500003 1.997448 0.787207
v 0.500003 1.132898 0.762973
v 0.500003 1.241151 0.700473
v 0.455809 1.110801 0.724700
v 0.455809 1.219054 0.662200
v 0.544197 1.110801 0.724700
v 0.544197 1.219054 0.662200
v 0.500003 1.088704 0.686427
v 0.500003 1.196957 0.623927
v 0.500003 1.002548 0.787200
vt 0.298828 0.750000
vt 0.298828 0.687500
vt 0.451172 0.687500
vt 0.451172 0.750000
vt 0.232422 0.687500
vt 0.232422 0.750000
vt 0.080078 0.750000
vt 0.080078 0.687500
vt 0.451172 0.687500
vt 0.451172 0.750000
vt 0.298828 0.750000
vt 0.298828 0.687500
vt 0.593750 0.687500
vt 0.593750 0.750000
vt 0.486328 0.750000
vt 0.486328 0.687500
vt 0.593750 0.781250
vt 0.625000 0.781250
vt 0.593750 0.750000
vt 0.593750 0.750000
vt 0.625000 0.781250
vt 0.593750 0.781250
vt 0.593750 0.687500
vt 0.486328 0.750000
vt 0.486328 0.687500
vt 0.281250 0.781250
vt 0.468750 0.781250
vt 0.468750 0.812500
vt 0.281250 0.812500
vt 0.468750 0.781250
vt 0.281250 0.781250
vt 0.250000 0.781250
vt 0.281250 0.750000
vt 0.281250 0.781250
vt 0.593750 0.812500
vt 0.625000 0.812500
vt 0.593750 0.750000
vt 0.593750 0.687500
vt 0.625000 0.718750
vt 0.593750 0.781250
vt 0.625000 0.781250
vt 0.250000 0.812500
vt 0.281250 0.812500
vt 0.281250 0.781250
vt 0.062500 0.781250
vt 0.250000 0.781250
vt 0.250000 0.812500
vt 0.062500 0.812500
vt 0.250000 0.781250
vt 0.062500 0.781250
vt 0.250000 0.781250
vt 0.281250 0.750000
vt 0.281250 0.781250
vt 0.468750 0.781250
vt 0.468750 0.812500
vt 0.281250 0.812500
vt 0.468750 0.781250
vt 0.281250 0.781250
vt 0.468750 0.781250
vt 0.468750 0.812500
vt 0.468750 0.781250
vt 0.625000 0.781250
vt 0.593750 0.781250
vt 0.593750 0.812500
vt 0.625000 0.812500
vt 0.593750 0.750000
vt 0.593750 0.687500
vt 0.625000 0.718750
vt 0.468750 0.812500
vt 0.250000 0.781250
vt 0.281250 0.781250
vt 0.593750 0.750000
vt 0.486328 0.750000
vt 0.486328 0.750000
vt 0.298828 0.750000
vt 0.451172 0.750000
vt 0.080078 0.750000
vt 0.232422 0.750000
vt 0.451172 0.750000
vt 0.298828 0.750000
vt 0.232422 0.750000
vt 0.080078 0.750000
vt 0.451172 0.750000
vt 0.298828 0.750000
vt 0.250000 0.687500
vt 0.281250 0.687500
vt 0.281250 0.750000
vt 0.250000 0.750000
vt 0.250000 0.687500
vt 0.281250 0.687500
vt 0.281250 0.750000
vt 0.250000 0.750000
vt 0.656250 0.937500
vt 0.656250 1.000000
vt 0.625000 1.000000
vt 0.625000 0.937500
vt 0.593750 1.000000
vt 0.593750 0.937500
vt 0.625000 1.000000
vt 0.625000 0.937500
vt 0.625000 0.875000
vt 0.625000 0.937500
vt 0.625000 1.000000
vt 0.656250 1.000000
vt 0.656250 0.937500
vt 0.687500 1.000000
vt 0.687500 0.937500
vt 0.656250 1.000000
vt 0.656250 0.937500
vt 0.656250 0.875000
vt 0.625000 0.937500
vt 0.625000 1.000000
vt 0.656250 1.000000
vt 0.656250 0.937500
vt 0.687500 1.000000
vt 0.687500 0.937500
vt 0.656250 1.000000
vt 0.656250 0.937500
vt 0.656250 0.875000
vn -0.0000 -0.8666 0.4989
vn 0.0001 -0.0012 1.0000
vn 0.0001 0.8654 0.5011
vn -0.0000 0.8666 -0.4989
vn -1.0000 0.0000 0.0001
vn -0.0001 -0.8654 -0.5011
vn -0.7071 -0.6119 -0.3543
vn 0.7071 -0.6120 -0.3543
vn -0.6546 0.7560 0.0010
vn -0.7071 -0.6120 0.3543
vn 0.0001 0.5009 0.8655
vn 0.7071 -0.6120 0.3542
vn 0.6546 -0.3772 -0.6552
vn -0.7071 0.0009 -0.7071
vn 0.7071 0.0008 -0.7071
vn 0.6546 -0.7559 -0.0010
vn -0.7071 0.6128 -0.3528
vn 0.7071 0.6128 -0.3528
vn -0.7071 -0.6128 0.3528
vn 0.7071 -0.6128 0.3528
vn 0.7071 0.6111 0.3557
vn 0.0000 -0.5031 0.8643
vn -0.7071 0.6111 0.3558
vn 0.7071 0.6119 0.3543
vn -0.7071 0.6120 0.3543
vn 0.6547 0.7559 0.0009
vn -0.6547 -0.7559 -0.0009
vn -0.6547 0.3788 -0.6542
vn 0.6546 0.3787 -0.6542
vn -0.6547 -0.3771 -0.6551
vn 1.0000 -0.0000 -0.0001
vn -0.0000 -0.9654 0.2610
vn 0.0000 0.9647 0.2633
vn -0.7071 -0.7071 -0.0000
vn -0.7071 0.7071 0.0000
vn 0.7071 0.7071 0.0000
vn 0.7071 -0.7071 -0.0000
vn 0.6860 -0.6860 -0.2425
vn -0.6860 0.6860 -0.2425
vn -0.6860 -0.6860 -0.2425
vn 0.6860 0.6860 -0.2425
vn -0.7071 0.3536 -0.6124
vn -0.7071 -0.3536 0.6124
vn 0.7071 -0.3536 0.6124
vn 0.7071 0.3536 -0.6124
vn 0.6860 0.5530 -0.4728
vn -0.6860 -0.1330 0.7154
vn -0.6860 0.5530 -0.4728
vn 0.6860 -0.1330 0.7154
vn -0.7071 0.3536 0.6124
vn -0.7071 -0.3536 -0.6124
vn 0.7071 -0.3536 -0.6124
vn 0.7071 0.3536 0.6124
vn 0.6860 0.1330 0.7154
vn -0.6860 -0.5530 -0.4728
vn -0.6860 0.1330 0.7154
vn 0.6860 -0.5530 -0.4728
usemtl GALE_PRESSURIZER
s off
f 184/407/30 189/408/30 196/409/30 200/410/30
f 185/411/31 187/412/31 189/413/31 184/414/31
f 178/415/32 182/416/32 187/417/32 185/418/32
f 193/419/33 180/420/33 182/421/33 178/422/33
f 192/423/34 195/424/34 193/425/34
f 198/426/34 203/427/34 197/428/34
f 202/429/35 198/426/35 200/430/35 196/431/35
f 191/432/36 190/433/36 205/434/36 206/435/36
f 186/436/37 181/437/37 206/435/37 205/434/37
f 199/438/38 216/439/38 211/440/38
f 195/424/39 192/423/39 207/441/39 208/442/39
f 194/443/40 195/444/40 208/445/40
f 179/446/41 194/447/41 208/442/41 207/441/41
f 205/448/42 210/449/42 186/450/42
f 190/451/43 177/452/43 209/453/43 210/454/43
f 188/455/44 186/456/44 210/454/44 209/453/44
f 206/457/45 181/437/45 213/458/45
f 177/459/46 199/460/46 211/461/46 212/462/46
f 183/463/47 188/464/47 212/462/47 211/461/47
f 192/423/48 191/465/48 213/466/48 207/441/48
f 181/467/49 179/446/49 207/441/49 213/466/49
f 204/468/50 201/469/50 214/470/50 215/471/50
f 203/472/51 204/473/51 215/474/51
f 197/428/52 203/427/52 215/471/52 214/470/52
f 201/469/53 183/463/53 216/475/53 214/470/53
f 199/460/54 197/428/54 214/470/54 216/475/54
f 183/476/55 211/440/55 216/439/55
f 206/457/56 213/458/56 191/432/56
f 177/459/57 212/462/57 209/453/57
f 209/453/58 212/462/58 188/464/58
f 190/477/59 210/449/59 205/448/59
f 201/469/60 202/478/60 196/479/60 183/463/60
f 197/428/34 199/460/34 200/430/34 198/426/34
f 180/420/60 194/447/60 179/446/60
f 201/469/60 204/468/60 202/478/60
f 192/423/34 193/425/34 178/480/34 191/465/34
f 191/432/34 178/481/34 185/482/34 190/433/34
f 190/451/34 185/483/34 184/484/34 177/452/34
f 177/459/34 184/407/34 200/410/34 199/460/34
f 188/464/60 183/463/60 196/485/60 189/486/60
f 186/456/60 188/455/60 189/487/60 187/488/60
f 181/437/60 186/436/60 187/489/60 182/490/60
f 179/446/60 181/467/60 182/421/60 180/420/60
f 202/491/61 204/492/61 203/493/61 198/494/61
f 193/495/62 195/496/62 194/497/62 180/498/62
f 217/499/63 218/500/63 220/501/63 219/502/63
f 219/502/64 220/501/64 224/503/64 223/504/64
f 223/504/65 224/503/65 222/505/65 221/506/65
f 221/506/66 222/505/66 218/500/66 217/499/66
f 221/506/67 217/499/67 225/507/67
f 219/502/68 223/504/68 225/507/68
f 217/499/69 219/502/69 225/507/69
f 223/504/70 221/506/70 225/507/70
f 226/508/71 227/509/71 229/510/71 228/511/71
f 228/511/72 229/510/72 233/512/72 232/513/72
f 232/513/73 233/512/73 231/514/73 230/515/73
f 230/515/74 231/514/74 227/509/74 226/508/74
f 230/515/75 226/508/75 234/516/75
f 228/511/76 232/513/76 234/516/76
f 226/508/77 228/511/77 234/516/77
f 232/513/78 230/515/78 234/516/78
f 235/517/79 236/518/79 238/519/79 237/520/79
f 237/520/80 238/519/80 242/521/80 241/522/80
f 241/522/81 242/521/81 240/523/81 239/524/81
f 239/524/82 240/523/82 236/518/82 235/517/82
f 239/524/83 235/517/83 243/525/83
f 237/520/84 241/522/84 243/525/84
f 235/517/85 237/520/85 243/525/85
f 241/522/86 239/524/86 243/525/86
