# Blender v2.80 (sub 75) OBJ File: 'chem devices.blend'
# www.blender.org
mtllib actuator_fire_inventory.mtl
o INFERNO_ENGINE_BODY_Cube.009
v 0.250000 0.000000 0.375000
v 0.250000 0.000000 0.000000
v 0.750000 0.000000 0.375000
v 0.750000 0.000000 0.000000
v 0.062500 0.000000 0.000000
v 0.062500 0.000000 0.375000
v 0.062500 0.750000 0.375000
v 0.062500 0.750000 0.000000
v 0.937500 0.750000 0.000000
v 0.937500 0.000000 0.000000
v 0.937500 0.000000 0.375000
v 0.937500 0.750000 0.375000
v 0.375000 0.125000 0.750000
v 0.375000 0.437500 0.750000
v 0.625000 0.437500 0.750000
v 0.625000 0.125000 0.750000
v 0.250000 0.937500 0.375000
v 0.250000 0.937500 0.000000
v 0.750000 0.937500 0.000000
v 0.750000 0.937500 0.375000
v 0.250000 0.000000 0.750000
v 0.250000 0.562500 0.750000
v 0.750000 0.562500 0.750000
v 0.750000 0.000000 0.750000
v 0.375000 0.125000 0.625000
v 0.375000 0.437500 0.625000
v 0.625000 0.437500 0.625000
v 0.625000 0.125000 0.625000
v 0.500000 0.125000 0.687500
v 0.359375 0.125000 0.687500
v 0.500000 0.312500 0.687500
v 0.359375 0.312500 0.687500
v 0.250000 0.250000 0.000000
v 0.250000 0.750000 0.000000
v 0.312500 0.312500 -0.187500
v 0.312500 0.687500 -0.187500
v 0.750000 0.250000 0.000000
v 0.750000 0.750000 0.000000
v 0.687500 0.312500 -0.187500
v 0.687500 0.687500 -0.187500
v 0.250000 0.750000 -0.125000
v 0.250000 0.250000 -0.125000
v 0.750000 0.250000 -0.125000
v 0.750000 0.750000 -0.125000
v 0.750000 0.750000 0.000000
v 0.250000 0.750000 0.000000
v 0.250000 0.250000 0.000000
v 0.750000 0.250000 0.000000
v 0.625000 0.687500 0.625000
v 0.625000 0.750000 0.625000
v 0.375000 0.812500 0.500000
v 0.375000 0.750000 0.625000
v 0.625000 0.812500 0.500000
v 0.375000 0.687500 0.625000
v 1.000000 0.502500 0.062500
v 1.000000 0.502500 0.312500
v 0.937500 0.625000 0.312500
v 0.937500 0.625000 0.062500
v 0.000000 0.502500 0.312500
v 0.000000 0.502500 0.062500
v 0.937500 0.221250 0.312500
v 0.937500 0.221250 0.062500
v 0.937500 0.375000 0.062500
v 0.937500 0.375000 0.312500
v 1.000000 0.252500 0.312500
v 1.000000 0.252500 0.062500
v 0.937500 0.471250 0.062500
v 0.937500 0.471250 0.312500
v 0.062500 0.625000 0.312500
v 0.062500 0.625000 0.062500
v 0.062500 0.221250 0.312500
v 0.062500 0.221250 0.062500
v 0.062500 0.375000 0.062500
v 0.062500 0.375000 0.312500
v 0.000000 0.252500 0.312500
v 0.000000 0.252500 0.062500
v 0.062500 0.471250 0.062500
v 0.062500 0.471250 0.312500
v 0.640625 0.125000 0.687500
v 0.640625 0.312500 0.687500
vt 0.718750 0.468750
vt 0.531250 0.468750
vt 0.531250 0.375000
vt 0.718750 0.375000
vt 0.750000 0.593750
vt 0.750000 0.687500
vt 0.500000 0.687500
vt 0.500000 0.593750
vt 0.437500 0.468750
vt 0.437500 0.000000
vt 0.531250 -0.000000
vt 0.531250 0.375000
vt 0.250000 0.468750
vt -0.000000 0.468750
vt -0.000000 0.281250
vt 0.250000 0.281250
vt 0.000000 0.968750
vt 0.031250 0.968750
vt 0.031250 1.000000
vt 0.000000 1.000000
vt 0.718750 0.000000
vt 0.531250 0.000000
vt 0.031250 0.968750
vt 0.031250 1.000000
vt 0.000000 1.000000
vt 0.000000 0.968750
vt 0.812500 0.375000
vt 0.812500 0.000000
vt 0.906250 0.000000
vt 0.906250 0.375000
vt 0.437500 0.000000
vt 0.437500 0.468750
vt 0.531250 0.375000
vt 0.531250 0.000000
vt 0.718750 0.000000
vt 0.718750 0.375000
vt 0.000000 1.000000
vt 0.000000 0.968750
vt 0.031250 0.968750
vt 0.031250 1.000000
vt 0.718750 0.468750
vt 0.531250 0.468750
vt 0.812500 0.375000
vt 0.812500 0.468750
vt 0.500000 0.875000
vt 0.375000 0.875000
vt 0.375000 0.812500
vt 0.500000 0.812500
vt 0.250000 -0.000000
vt 0.250000 0.468750
vt 0.250000 0.000000
vt 0.437500 0.000000
vt 0.437500 0.281250
vt 0.000000 0.968750
vt 0.031250 0.968750
vt 0.031250 1.000000
vt 0.000000 1.000000
vt 0.250000 0.656250
vt 0.000000 0.656250
vt 0.062500 0.062500
vt 0.062500 0.218750
vt 0.000000 0.000000
vt 0.187500 0.218750
vt 0.187500 0.062500
vt 0.062500 0.218750
vt 0.062500 0.062500
vt 0.187500 0.062500
vt 0.187500 0.218750
vt 0.500000 0.468750
vt 0.500000 0.625000
vt 0.437500 0.625000
vt 0.437500 0.468750
vt 0.375000 0.750000
vt 0.500000 0.750000
vt 0.500000 0.812500
vt 0.375000 0.812500
vt 0.375000 0.625000
vt 0.375000 0.468750
vt 0.437500 0.468750
vt 0.437500 0.625000
vt 0.500000 0.687500
vt 0.640625 0.687500
vt 0.640625 0.875000
vt 0.500000 0.875000
vt 0.000000 0.968750
vt 0.250000 0.968750
vt 0.250000 0.906250
vt 0.000000 0.906250
vt 0.218750 0.687500
vt 0.218750 0.875000
vt 0.031250 0.875000
vt 0.031250 0.687500
vt 0.000000 0.906250
vt 0.250000 0.906250
vt 0.250000 0.968750
vt 0.000000 0.968750
vt 0.250000 0.906250
vt 0.250000 0.968750
vt 0.000000 0.906250
vt 0.000000 0.968750
vt 0.250000 0.656250
vt 0.000000 0.656250
vt 0.812500 0.000000
vt 0.812500 0.468750
vt 0.750000 0.468750
vt 0.750000 0.593750
vt 0.500000 0.593750
vt 0.500000 0.468750
vt 0.343750 0.437500
vt 0.343750 0.406250
vt 0.281250 0.468750
vt 0.375000 0.718750
vt 0.375000 0.687500
vt 0.500000 0.687500
vt 0.500000 0.718750
vt 0.062500 0.406250
vt 0.062500 0.343750
vt 0.187500 0.343750
vt 0.187500 0.406250
vt 0.343750 0.437500
vt 0.281250 0.468750
vt 0.343750 0.406250
vt 0.781250 0.468750
vt 0.781250 0.531250
vt 0.750000 0.468750
vt 0.781250 0.468750
vt 0.750000 0.468750
vt 0.781250 0.531250
vt 0.781250 0.468750
vt 0.781250 0.531250
vt 0.750000 0.468750
vt 0.500000 0.687500
vt 0.375000 0.687500
vt 0.375000 0.656250
vt 0.500000 0.656250
vt 0.906250 0.531250
vt 0.906250 0.468750
vt 0.781250 0.468750
vt 0.750000 0.468750
vt 0.781250 0.531250
vt 0.906250 0.593750
vt 0.781250 0.593750
vt 0.781250 0.531250
vt 0.906250 0.531250
vt 0.500000 0.687500
vt 0.375000 0.687500
vt 0.375000 0.656250
vt 0.500000 0.656250
vt 0.750000 0.531250
vt 0.781250 0.531250
vt 0.750000 0.531250
vt 0.781250 0.593750
vt 0.500000 0.687500
vt 0.500000 0.656250
vt 0.375000 0.656250
vt 0.375000 0.687500
vt 0.906250 0.531250
vt 0.906250 0.468750
vt 0.906250 0.593750
vt 0.906250 0.531250
vt 0.781250 0.531250
vt 0.781250 0.593750
vt 0.500000 0.687500
vt 0.500000 0.656250
vt 0.375000 0.656250
vt 0.375000 0.687500
vt 0.750000 0.531250
vt 0.781250 0.531250
vt 0.781250 0.593750
vt 0.750000 0.531250
vt 0.500000 0.687500
vt 0.500000 0.875000
vn -0.7071 0.7071 0.0000
vn 0.0000 0.0000 -1.0000
vn 0.0000 0.0000 1.0000
vn 0.0000 0.7071 0.7071
vn 0.0000 -1.0000 0.0000
vn -1.0000 0.0000 0.0000
vn 1.0000 0.0000 0.0000
vn 0.7071 0.7071 0.0000
vn 0.0000 1.0000 0.0000
vn -0.7071 0.0000 -0.7071
vn 0.0000 -0.7071 -0.7071
vn 0.0000 0.7071 -0.7071
vn 0.7071 0.0000 -0.7071
vn 0.0000 0.8944 0.4472
vn 0.4472 -0.8944 0.0000
vn 0.8908 0.4545 0.0000
vn -0.4472 -0.8944 0.0000
vn -0.8908 0.4545 0.0000
usemtl INFERNO_ENGINE
s off
f 17/1/1 18/2/1 8/3/1 7/4/1
f 46/5/2 18/6/2 19/7/2 45/8/2
f 20/9/3 3/10/3 11/11/3 12/12/3
f 20/13/4 17/14/4 22/15/4 23/16/4
f 2/17/5 4/18/5 3/19/5 1/20/5
f 6/21/6 7/4/6 8/3/6 5/22/6
f 2/23/5 1/24/5 6/25/5 5/26/5
f 46/27/2 2/28/2 5/29/2 8/30/2
f 1/31/3 17/32/3 7/33/3 6/34/3
f 10/35/7 9/36/7 12/12/7 11/11/7
f 3/37/5 4/38/5 10/39/5 11/40/5
f 19/41/8 20/42/8 12/12/8 9/36/8
f 45/43/2 19/44/2 9/36/2
f 15/45/5 14/46/5 26/47/5 27/48/5
f 3/10/7 20/9/7 23/16/7 24/49/7
f 17/50/6 1/51/6 21/52/6 22/53/6
f 1/54/5 3/55/5 24/56/5 21/57/5
f 17/14/9 20/13/9 19/58/9 18/59/9
f 13/60/3 14/61/3 22/15/3 21/62/3
f 15/63/3 16/64/3 24/49/3 23/16/3
f 16/64/3 13/60/3 21/62/3 24/49/3
f 14/61/3 15/63/3 23/16/3 22/15/3
f 28/65/3 27/66/3 26/67/3 25/68/3
f 16/69/6 15/70/6 27/71/6 28/72/6
f 13/73/9 16/74/9 28/75/9 25/76/9
f 14/77/7 13/78/7 25/79/7 26/80/7
f 30/81/3 29/82/3 31/83/3 32/84/3
f 33/85/6 34/86/6 41/87/6 42/88/6
f 35/89/2 36/90/2 40/91/2 39/92/2
f 43/93/7 44/94/7 38/95/7 37/96/7
f 42/97/5 43/93/5 37/96/5 33/98/5
f 44/99/9 41/87/9 34/86/9 38/100/9
f 36/90/10 35/89/10 42/101/10 41/87/10
f 35/89/11 39/92/11 43/102/11 42/101/11
f 40/91/12 36/90/12 41/87/12 44/99/12
f 39/92/13 40/91/13 44/99/13 43/102/13
f 4/103/2 45/43/2 9/36/2 10/35/2
f 18/104/2 46/27/2 8/30/2
f 2/105/2 47/106/2 48/107/2 4/108/2
f 50/109/7 49/110/7 53/111/7
f 52/112/3 54/113/3 49/114/3 50/115/3
f 51/116/14 52/117/14 50/118/14 53/119/14
f 52/120/6 51/121/6 54/122/6
f 76/123/2 73/124/2 72/125/2
f 66/126/2 62/127/2 63/128/2
f 65/129/3 64/130/3 61/131/3
f 66/132/15 65/133/15 61/134/15 62/135/15
f 63/136/16 64/130/16 65/129/16 66/137/16
f 75/138/3 71/139/3 74/140/3
f 58/141/16 57/142/16 56/143/16 55/144/16
f 55/145/15 56/146/15 68/147/15 67/148/15
f 56/143/3 57/142/3 68/149/3
f 55/150/2 67/151/2 58/152/2
f 76/153/17 72/154/17 71/155/17 75/156/17
f 73/157/18 76/158/18 75/138/18 74/140/18
f 70/159/18 60/160/18 59/161/18 69/162/18
f 60/163/17 77/164/17 78/165/17 59/166/17
f 59/161/3 78/167/3 69/162/3
f 60/168/2 70/169/2 77/170/2
f 79/171/3 80/172/3 31/83/3 29/82/3
o INFERNO_ENGINE_PIPE_RIGHT_Cube.016
v 0.750000 0.187500 0.375000
v 0.750000 0.312500 0.500000
v 0.875000 0.187500 0.375000
v 0.875000 0.312500 0.500000
v 0.875000 0.312500 0.375000
v 0.750000 0.937500 0.500000
v 0.750000 0.937500 0.375000
v 0.875000 0.937500 0.375000
v 0.875000 0.937500 0.500000
v 0.750000 1.062500 0.500000
v 0.750000 0.312500 0.375000
v 0.625000 0.937500 0.375000
v 0.625000 1.062500 0.375000
v 0.750000 1.062500 0.375000
v 0.625000 0.937500 0.125000
v 0.750000 0.937500 0.125000
v 0.625000 1.062500 0.125000
v 0.750000 1.062500 0.125000
v 0.625000 1.062500 0.000000
v 0.750000 1.062500 0.000000
v 0.875000 1.062500 0.375000
v 0.875000 1.062500 0.500000
v 0.625000 1.937500 0.125000
v 0.750000 1.937500 0.125000
v 0.625000 2.062500 0.000000
v 0.750000 2.062500 0.000000
v 0.875000 0.312500 0.312500
v 0.750000 1.687500 0.000000
v 0.625000 1.687500 0.000000
v 0.625000 1.687500 0.125000
v 0.750000 1.687500 0.125000
v 0.875000 0.187500 0.312500
v 0.750000 0.187500 0.312500
v 0.750000 0.312500 0.312500
vt 1.000000 0.093750
vt 1.000000 0.406250
vt 0.937500 0.406250
vt 0.937500 0.093750
vt 1.000000 0.031250
vt 1.000000 0.093750
vt 0.937500 0.093750
vt 1.000000 0.093750
vt 0.937500 0.093750
vt 0.937500 0.031250
vt 1.000000 0.406250
vt 0.937500 0.406250
vt 1.000000 0.406250
vt 0.937500 0.406250
vt 0.875000 0.812500
vt 0.875000 0.875000
vt 0.812500 0.875000
vt 0.812500 0.812500
vt 0.875000 0.875000
vt 0.875000 0.937500
vt 0.937500 0.937500
vt 0.937500 0.937500
vt 0.875000 0.937500
vt 0.875000 0.875000
vt 0.750000 1.000000
vt 0.750000 0.937500
vt 0.875000 0.937500
vt 0.875000 1.000000
vt 0.750000 0.937500
vt 0.750000 0.875000
vt 1.000000 0.531250
vt 0.937500 0.531250
vt 1.000000 0.468750
vt 0.937500 0.812500
vt 1.000000 0.812500
vt 1.000000 1.000000
vt 0.937500 1.000000
vt 0.937500 0.468750
vt 1.000000 0.531250
vt 0.937500 0.531250
vt 0.937500 0.812500
vt 1.000000 0.812500
vt 1.000000 0.937500
vt 0.937500 1.000000
vt 0.937500 0.812500
vt 1.000000 0.812500
vt 1.000000 0.937500
vt 0.937500 0.937500
vt 0.937500 0.812500
vt 1.000000 0.812500
vt 1.000000 1.000000
vt 0.937500 0.937500
vt 0.875000 0.937500
vt 0.875000 1.000000
vt 0.750000 1.000000
vt 0.750000 0.937500
vt 0.937500 0.406250
vt 1.000000 0.406250
vt 1.000000 0.468750
vt 0.937500 0.468750
vt 1.000000 0.468750
vt 0.937500 0.468750
vt 0.937500 1.000000
vt 0.875000 1.000000
vt 0.468750 0.656250
vt 0.468750 0.718750
vt 0.406250 0.718750
vt 0.406250 0.656250
vt 0.937500 0.093750
vt 1.000000 0.093750
vt 0.937500 0.531250
vt 1.000000 0.531250
vt 0.937500 0.531250
vt 1.000000 0.531250
vt 0.875000 0.812500
vt 0.937500 0.812500
vt 0.937500 0.875000
vt 0.968750 0.093750
vt 0.968750 0.031250
vt 1.000000 0.031250
vt 1.000000 0.093750
vt 0.750000 0.875000
vt 0.750000 0.937500
vt 1.000000 0.062500
vt 0.937500 0.062500
vt 0.937500 0.031250
vt 0.968750 0.031250
vt 0.968750 0.093750
vt 0.937500 0.093750
vt 1.000000 0.062500
vt 0.937500 0.062500
vt 0.937500 0.093750
vt 1.000000 0.093750
vn -1.0000 0.0000 0.0000
vn 1.0000 0.0000 0.0000
vn 0.0000 -0.7071 0.7071
vn 0.0000 0.0000 1.0000
vn 0.0000 -1.0000 0.0000
vn 0.0000 1.0000 0.0000
vn 0.0000 0.0000 -1.0000
vn 0.0000 -0.7071 -0.7071
vn 0.0000 0.7071 0.7071
vn -0.7071 0.0000 0.7071
usemtl INFERNO_ENGINE
s off
f 82/173/19 86/174/19 87/175/19 91/176/19
f 83/177/20 85/178/20 84/179/20
f 83/177/21 84/180/21 82/181/21 81/182/21
f 82/181/22 84/180/22 89/183/22 86/184/22
f 84/179/20 85/178/20 88/185/20 89/186/20
f 89/187/22 102/188/22 90/189/22 86/190/22
f 92/191/23 87/192/23 86/193/23
f 90/194/24 94/195/24 93/196/24
f 94/197/20 87/198/20 96/199/20 98/200/20
f 93/196/24 94/195/24 98/201/24 97/202/24
f 97/203/19 99/204/19 95/205/19
f 108/206/25 109/207/25 105/208/25 106/209/25
f 96/210/26 95/205/26 99/211/26 100/212/26
f 109/213/19 110/214/19 103/215/19 105/216/19
f 110/217/22 111/218/22 104/219/22 103/220/22
f 111/221/20 108/222/20 106/223/20 104/224/20
f 92/225/19 93/226/19 97/227/19 95/228/19
f 88/229/25 87/230/25 94/231/25 101/232/25
f 89/186/20 88/185/20 101/233/20 102/234/20
f 90/194/24 102/235/24 101/236/24 94/195/24
f 104/237/27 106/238/27 105/239/27 103/240/27
f 85/241/25 91/242/25 87/230/25 88/229/25
f 98/243/20 100/244/20 108/222/20 111/221/20
f 97/245/22 98/246/22 111/218/22 110/217/22
f 99/204/19 97/203/19 110/214/19 109/213/19
f 100/212/25 99/211/25 109/207/25 108/206/25
f 100/244/20 98/243/20 96/210/20
f 92/247/28 86/248/28 90/249/28 93/196/28
f 82/173/19 91/176/19 81/182/19
f 85/250/20 83/251/20 112/252/20 107/253/20
f 87/192/23 92/191/23 95/254/23 96/255/23
f 83/256/23 81/257/23 113/258/23 112/252/23
f 81/259/19 91/260/19 114/261/19 113/258/19
f 91/262/24 85/263/24 107/264/24 114/265/24
o INFERNO_ENGINE_PIPE_CENTER_Cube.017
v 0.375000 0.937500 0.312500
v 0.375000 0.937500 0.062500
v 0.625000 0.937500 0.312500
v 0.625000 0.937500 0.062500
v 0.375000 1.562500 0.312500
v 0.375000 1.812500 0.062500
v 0.625000 1.812500 0.062500
v 0.625000 1.562500 0.312500
vt 0.250000 0.468750
vt 0.375000 0.468750
vt 0.375000 0.906250
vt 0.250000 0.781250
vt 0.250000 0.468750
vt 0.375000 0.468750
vt 0.375000 0.781250
vt 0.250000 0.906250
vt 0.250000 0.468750
vt 0.375000 0.468750
vt 0.375000 0.781250
vt 0.250000 0.781250
vt 0.250000 0.468750
vt 0.375000 0.468750
vt 0.375000 0.906250
vt 0.250000 0.906250
vt 0.375000 0.625000
vt 0.500000 0.625000
vt 0.500000 0.750000
vt 0.375000 0.750000
vn 1.0000 0.0000 0.0000
vn -1.0000 0.0000 0.0000
vn 0.0000 0.0000 1.0000
vn 0.0000 0.0000 -1.0000
vn 0.0000 0.7071 0.7071
usemtl INFERNO_ENGINE
s off
f 117/266/29 118/267/29 121/268/29 122/269/29
f 116/270/30 115/271/30 119/272/30 120/273/30
f 115/274/31 117/275/31 122/276/31 119/277/31
f 118/278/32 116/279/32 120/280/32 121/281/32
f 119/282/33 122/283/33 121/284/33 120/285/33
o INFERNO_ENGINE_PIPE_LEFT_Cube.018
v 0.250000 0.187500 0.375000
v 0.250000 0.312500 0.500000
v 0.125000 0.187500 0.375000
v 0.125000 0.312500 0.500000
v 0.125000 0.312500 0.375000
v 0.250000 0.937500 0.500000
v 0.250000 0.937500 0.375000
v 0.125000 0.937500 0.375000
v 0.125000 0.937500 0.500000
v 0.250000 1.062500 0.500000
v 0.250000 0.312500 0.375000
v 0.375000 0.937500 0.375000
v 0.375000 1.062500 0.375000
v 0.250000 1.062500 0.375000
v 0.375000 0.937500 0.125000
v 0.250000 0.937500 0.125000
v 0.375000 1.062500 0.125000
v 0.250000 1.062500 0.125000
v 0.375000 1.062500 0.000000
v 0.250000 1.062500 0.000000
v 0.125000 1.062500 0.375000
v 0.125000 1.062500 0.500000
v 0.375000 1.937500 0.125000
v 0.250000 1.937500 0.125000
v 0.375000 2.062500 0.000000
v 0.250000 2.062500 0.000000
v 0.125000 0.312500 0.312500
v 0.250000 1.687500 0.000000
v 0.375000 1.687500 0.000000
v 0.375000 1.687500 0.125000
v 0.250000 1.687500 0.125000
v 0.125000 0.187500 0.312500
v 0.250000 0.187500 0.312500
v 0.250000 0.312500 0.312500
vt 0.937500 0.093750
vt 1.000000 0.093750
vt 1.000000 0.406250
vt 0.937500 0.406250
vt 0.937500 0.031250
vt 1.000000 0.093750
vt 0.937500 0.093750
vt 1.000000 0.031250
vt 1.000000 0.093750
vt 0.937500 0.093750
vt 1.000000 0.406250
vt 0.937500 0.406250
vt 1.000000 0.406250
vt 0.937500 0.406250
vt 0.875000 0.812500
vt 0.812500 0.812500
vt 0.812500 0.875000
vt 0.875000 0.875000
vt 0.875000 0.875000
vt 0.937500 0.937500
vt 0.875000 0.937500
vt 0.750000 0.812500
vt 0.812500 0.750000
vt 0.812500 0.812500
vt 0.750000 1.000000
vt 0.875000 1.000000
vt 0.875000 0.937500
vt 0.750000 0.937500
vt 0.937500 0.750000
vt 0.937500 0.812500
vt 0.937500 0.531250
vt 0.937500 0.468750
vt 1.000000 0.531250
vt 1.000000 0.812500
vt 1.000000 1.000000
vt 0.937500 1.000000
vt 0.937500 0.812500
vt 1.000000 0.468750
vt 1.000000 0.531250
vt 0.937500 0.531250
vt 1.000000 0.812500
vt 1.000000 1.000000
vt 0.937500 0.937500
vt 0.937500 0.812500
vt 1.000000 0.812500
vt 1.000000 0.937500
vt 0.937500 0.937500
vt 0.937500 0.812500
vt 1.000000 0.812500
vt 1.000000 0.937500
vt 0.937500 1.000000
vt 0.937500 0.812500
vt 0.875000 0.937500
vt 0.750000 0.937500
vt 0.750000 1.000000
vt 0.875000 1.000000
vt 1.000000 0.406250
vt 1.000000 0.468750
vt 0.937500 0.468750
vt 0.937500 0.406250
vt 1.000000 0.468750
vt 0.937500 0.468750
vt 0.812500 0.875000
vt 0.750000 0.875000
vt 0.468750 0.656250
vt 0.406250 0.656250
vt 0.406250 0.718750
vt 0.468750 0.718750
vt 1.000000 0.093750
vt 0.937500 0.093750
vt 1.000000 0.531250
vt 0.937500 0.531250
vt 1.000000 0.531250
vt 0.937500 0.531250
vt 0.875000 0.812500
vt 0.875000 0.875000
vt 0.937500 0.875000
vt 0.937500 0.812500
vt 0.968750 0.093750
vt 0.937500 0.093750
vt 0.937500 0.031250
vt 0.968750 0.031250
vt 0.750000 0.937500
vt 0.750000 0.875000
vt 0.937500 0.062500
vt 1.000000 0.031250
vt 1.000000 0.062500
vt 0.968750 0.031250
vt 1.000000 0.093750
vt 0.968750 0.093750
vt 0.937500 0.062500
vt 0.937500 0.093750
vt 1.000000 0.093750
vt 1.000000 0.062500
vn 1.0000 0.0000 0.0000
vn -1.0000 0.0000 0.0000
vn 0.0000 -0.7071 0.7071
vn 0.0000 0.0000 1.0000
vn 0.0000 -1.0000 0.0000
vn 0.0000 1.0000 0.0000
vn 0.0000 0.0000 -1.0000
vn 0.0000 -0.7071 -0.7071
vn 0.0000 0.7071 0.7071
vn 0.7071 0.0000 0.7071
usemtl INFERNO_ENGINE
s off
f 124/286/34 133/287/34 129/288/34 128/289/34
f 125/290/35 126/291/35 127/292/35
f 125/290/36 123/293/36 124/294/36 126/295/36
f 124/294/37 128/296/37 131/297/37 126/295/37
f 126/291/35 131/298/35 130/299/35 127/292/35
f 131/300/37 128/301/37 132/302/37 144/303/37
f 134/304/38 128/305/38 129/306/38
f 132/307/39 135/308/39 136/309/39
f 136/310/35 140/311/35 138/312/35 129/313/35
f 135/308/39 139/314/39 140/315/39 136/309/39
f 139/316/34 137/317/34 141/318/34
f 150/319/40 148/320/40 147/321/40 151/322/40
f 138/323/41 142/324/41 141/325/41 137/317/41
f 151/326/34 147/327/34 145/328/34 152/329/34
f 152/330/37 145/331/37 146/332/37 153/333/37
f 153/334/35 146/335/35 148/336/35 150/337/35
f 134/338/34 137/339/34 139/340/34 135/341/34
f 130/342/40 143/343/40 136/344/40 129/345/40
f 131/298/35 144/346/35 143/347/35 130/299/35
f 132/307/39 136/309/39 143/348/39 144/349/39
f 146/350/42 145/351/42 147/352/42 148/353/42
f 127/354/40 130/342/40 129/345/40 133/355/40
f 140/356/35 153/334/35 150/337/35 142/357/35
f 139/358/37 152/330/37 153/333/37 140/359/37
f 141/318/34 151/326/34 152/329/34 139/316/34
f 142/324/40 150/319/40 151/322/40 141/325/40
f 142/357/35 138/323/35 140/356/35
f 134/360/43 135/361/43 132/362/43 128/363/43
f 124/286/34 123/293/34 133/287/34
f 127/364/35 149/365/35 154/366/35 125/367/35
f 129/306/38 138/368/38 137/369/38 134/304/38
f 125/370/38 154/366/38 155/371/38 123/372/38
f 123/373/34 155/371/34 156/374/34 133/375/34
f 133/376/39 156/377/39 149/378/39 127/379/39
