# Blender v2.80 (sub 75) OBJ File: 'chem devices.blend'
# www.blender.org
mtllib actuator_fire_pipecenter.mtl
o INFERNO_ENGINE_PIPE_CENTER_Cube.017
v 0.375000 0.937500 0.312500
v 0.375000 0.937500 0.062500
v 0.625000 0.937500 0.312500
v 0.625000 0.937500 0.062500
v 0.375000 1.562500 0.312500
v 0.375000 1.812500 0.062500
v 0.625000 1.812500 0.062500
v 0.625000 1.562500 0.312500
vt 0.250000 0.468750
vt 0.375000 0.468750
vt 0.375000 0.906250
vt 0.250000 0.781250
vt 0.250000 0.468750
vt 0.375000 0.468750
vt 0.375000 0.781250
vt 0.250000 0.906250
vt 0.250000 0.468750
vt 0.375000 0.468750
vt 0.375000 0.781250
vt 0.250000 0.781250
vt 0.250000 0.468750
vt 0.375000 0.468750
vt 0.375000 0.906250
vt 0.250000 0.906250
vt 0.375000 0.625000
vt 0.500000 0.625000
vt 0.500000 0.750000
vt 0.375000 0.750000
vn 1.0000 0.0000 0.0000
vn -1.0000 0.0000 0.0000
vn 0.0000 0.0000 1.0000
vn 0.0000 0.0000 -1.0000
vn 0.0000 0.7071 0.7071
usemtl INFERNO_ENGINE
s off
f 3/1/1 4/2/1 7/3/1 8/4/1
f 2/5/2 1/6/2 5/7/2 6/8/2
f 1/9/3 3/10/3 8/11/3 5/12/3
f 4/13/4 2/14/4 6/15/4 7/16/4
f 5/17/5 8/18/5 7/19/5 6/20/5
