# Blender v2.80 (sub 75) OBJ File: 'chem devices.blend'
# www.blender.org
mtllib actuator_fire_pipeleft.mtl
o INFERNO_ENGINE_PIPE_LEFT_Cube.018
v 0.250000 0.187500 0.375000
v 0.250000 0.312500 0.500000
v 0.125000 0.187500 0.375000
v 0.125000 0.312500 0.500000
v 0.125000 0.312500 0.375000
v 0.250000 0.937500 0.500000
v 0.250000 0.937500 0.375000
v 0.125000 0.937500 0.375000
v 0.125000 0.937500 0.500000
v 0.250000 1.062500 0.500000
v 0.250000 0.312500 0.375000
v 0.375000 0.937500 0.375000
v 0.375000 1.062500 0.375000
v 0.250000 1.062500 0.375000
v 0.375000 0.937500 0.125000
v 0.250000 0.937500 0.125000
v 0.375000 1.062500 0.125000
v 0.250000 1.062500 0.125000
v 0.375000 1.062500 0.000000
v 0.250000 1.062500 0.000000
v 0.125000 1.062500 0.375000
v 0.125000 1.062500 0.500000
v 0.375000 1.937500 0.125000
v 0.250000 1.937500 0.125000
v 0.375000 2.062500 0.000000
v 0.250000 2.062500 0.000000
v 0.125000 0.312500 0.312500
v 0.250000 1.687500 0.000000
v 0.375000 1.687500 0.000000
v 0.375000 1.687500 0.125000
v 0.250000 1.687500 0.125000
v 0.125000 0.187500 0.312500
v 0.250000 0.187500 0.312500
v 0.250000 0.312500 0.312500
vt 0.937500 0.093750
vt 1.000000 0.093750
vt 1.000000 0.406250
vt 0.937500 0.406250
vt 0.937500 0.031250
vt 1.000000 0.093750
vt 0.937500 0.093750
vt 1.000000 0.031250
vt 1.000000 0.093750
vt 0.937500 0.093750
vt 1.000000 0.406250
vt 0.937500 0.406250
vt 1.000000 0.406250
vt 0.937500 0.406250
vt 0.875000 0.812500
vt 0.812500 0.812500
vt 0.812500 0.875000
vt 0.875000 0.875000
vt 0.875000 0.875000
vt 0.937500 0.937500
vt 0.875000 0.937500
vt 0.750000 0.812500
vt 0.812500 0.750000
vt 0.812500 0.812500
vt 0.750000 1.000000
vt 0.875000 1.000000
vt 0.875000 0.937500
vt 0.750000 0.937500
vt 0.937500 0.750000
vt 0.937500 0.812500
vt 0.937500 0.531250
vt 0.937500 0.468750
vt 1.000000 0.531250
vt 1.000000 0.812500
vt 1.000000 1.000000
vt 0.937500 1.000000
vt 0.937500 0.812500
vt 1.000000 0.468750
vt 1.000000 0.531250
vt 0.937500 0.531250
vt 1.000000 0.812500
vt 1.000000 1.000000
vt 0.937500 0.937500
vt 0.937500 0.812500
vt 1.000000 0.812500
vt 1.000000 0.937500
vt 0.937500 0.937500
vt 0.937500 0.812500
vt 1.000000 0.812500
vt 1.000000 0.937500
vt 0.937500 1.000000
vt 0.937500 0.812500
vt 0.875000 0.937500
vt 0.750000 0.937500
vt 0.750000 1.000000
vt 0.875000 1.000000
vt 1.000000 0.406250
vt 1.000000 0.468750
vt 0.937500 0.468750
vt 0.937500 0.406250
vt 1.000000 0.468750
vt 0.937500 0.468750
vt 0.812500 0.875000
vt 0.750000 0.875000
vt 0.468750 0.656250
vt 0.406250 0.656250
vt 0.406250 0.718750
vt 0.468750 0.718750
vt 1.000000 0.093750
vt 0.937500 0.093750
vt 1.000000 0.531250
vt 0.937500 0.531250
vt 1.000000 0.531250
vt 0.937500 0.531250
vt 0.875000 0.812500
vt 0.875000 0.875000
vt 0.937500 0.875000
vt 0.937500 0.812500
vt 0.968750 0.093750
vt 0.937500 0.093750
vt 0.937500 0.031250
vt 0.968750 0.031250
vt 0.750000 0.937500
vt 0.750000 0.875000
vt 0.937500 0.062500
vt 1.000000 0.031250
vt 1.000000 0.062500
vt 0.968750 0.031250
vt 1.000000 0.093750
vt 0.968750 0.093750
vt 0.937500 0.062500
vt 0.937500 0.093750
vt 1.000000 0.093750
vt 1.000000 0.062500
vn 1.0000 0.0000 0.0000
vn -1.0000 0.0000 0.0000
vn 0.0000 -0.7071 0.7071
vn 0.0000 0.0000 1.0000
vn 0.0000 -1.0000 0.0000
vn 0.0000 1.0000 0.0000
vn 0.0000 0.0000 -1.0000
vn 0.0000 -0.7071 -0.7071
vn 0.0000 0.7071 0.7071
vn 0.7071 0.0000 0.7071
usemtl INFERNO_ENGINE
s off
f 2/1/1 11/2/1 7/3/1 6/4/1
f 3/5/2 4/6/2 5/7/2
f 3/5/3 1/8/3 2/9/3 4/10/3
f 2/9/4 6/11/4 9/12/4 4/10/4
f 4/6/2 9/13/2 8/14/2 5/7/2
f 9/15/4 6/16/4 10/17/4 22/18/4
f 12/19/5 6/20/5 7/21/5
f 10/22/6 13/23/6 14/24/6
f 14/25/2 18/26/2 16/27/2 7/28/2
f 13/23/6 17/29/6 18/30/6 14/24/6
f 17/31/1 15/32/1 19/33/1
f 28/34/7 26/35/7 25/36/7 29/37/7
f 16/38/8 20/39/8 19/40/8 15/32/8
f 29/41/1 25/42/1 23/43/1 30/44/1
f 30/45/4 23/46/4 24/47/4 31/48/4
f 31/49/2 24/50/2 26/51/2 28/52/2
f 12/53/1 15/54/1 17/55/1 13/56/1
f 8/57/7 21/58/7 14/59/7 7/60/7
f 9/13/2 22/61/2 21/62/2 8/14/2
f 10/22/6 14/24/6 21/63/6 22/64/6
f 24/65/9 23/66/9 25/67/9 26/68/9
f 5/69/7 8/57/7 7/60/7 11/70/7
f 18/71/2 31/49/2 28/52/2 20/72/2
f 17/73/4 30/45/4 31/48/4 18/74/4
f 19/33/1 29/41/1 30/44/1 17/31/1
f 20/39/7 28/34/7 29/37/7 19/40/7
f 20/72/2 16/38/2 18/71/2
f 12/75/10 13/76/10 10/77/10 6/78/10
f 2/1/1 1/8/1 11/2/1
f 5/79/2 27/80/2 32/81/2 3/82/2
f 7/21/5 16/83/5 15/84/5 12/19/5
f 3/85/5 32/81/5 33/86/5 1/87/5
f 1/88/1 33/86/1 34/89/1 11/90/1
f 11/91/6 34/92/6 27/93/6 5/94/6
