# Blender v2.80 (sub 75) OBJ File: 'chem devices.blend'
# www.blender.org
mtllib actuator_neutral.mtl
o PROTO_ACTUATOR_BODY_Cube.181
v 0.687500 0.687500 0.937500
v 0.250000 0.000000 0.000000
v 0.312500 0.687500 0.937500
v 0.750000 0.000000 0.000000
v 0.062500 0.000000 0.000000
v 0.250000 0.000000 0.750000
v 0.750000 0.000000 0.750000
v 0.062500 0.750000 0.000000
v 0.937500 0.750000 0.000000
v 0.937500 0.000000 0.000000
v 0.062500 0.250000 0.687500
v 0.062500 0.687500 0.687500
v 0.937500 0.687500 0.687500
v 0.250000 0.937500 0.000000
v 0.750000 0.937500 0.000000
v 0.937500 0.250000 0.687500
v 0.250000 0.250000 0.000000
v 0.250000 0.750000 0.000000
v 0.312500 0.312500 -0.187500
v 0.312500 0.687500 -0.187500
v 0.750000 0.250000 0.000000
v 0.750000 0.750000 0.000000
v 0.687500 0.312500 -0.187500
v 0.687500 0.687500 -0.187500
v 0.250000 0.750000 -0.125000
v 0.250000 0.250000 -0.125000
v 0.750000 0.250000 -0.125000
v 0.750000 0.750000 -0.125000
v 0.750000 0.750000 0.000000
v 0.250000 0.750000 0.000000
v 0.250000 0.250000 0.000000
v 0.750000 0.250000 0.000000
v 0.250000 0.937500 0.750000
v 0.750000 0.937500 0.750000
v 0.750000 0.937500 0.250000
v 0.250000 0.937500 0.250000
v 0.937500 0.250000 0.312500
v 0.937500 0.687500 0.312500
v 0.062500 0.687500 0.312500
v 0.062500 0.250000 0.312500
v 0.750000 0.000000 0.250000
v 0.250000 0.000000 0.250000
v 0.312500 0.250000 0.937500
v 0.687500 0.250000 0.937500
v 0.062500 0.000000 0.250000
v 0.062500 0.000000 0.750000
v 0.062500 0.750000 0.750000
v 0.062500 0.750000 0.250000
v 0.250000 0.750000 0.937500
v 0.750000 0.750000 0.937500
v 0.750000 0.000000 0.937500
v 0.250000 0.000000 0.937500
v 0.937500 0.000000 0.250000
v 0.937500 0.000000 0.750000
v 0.937500 0.750000 0.750000
v 0.937500 0.750000 0.250000
v 0.687500 0.250000 0.312500
v 0.687500 0.250000 0.687500
v 0.687500 0.687500 0.687500
v 0.687500 0.687500 0.312500
v 0.312500 0.687500 0.687500
v 0.687500 0.687500 0.687500
v 0.687500 0.250000 0.687500
v 0.312500 0.250000 0.687500
v 0.312500 0.250000 0.312500
v 0.312500 0.250000 0.687500
v 0.312500 0.687500 0.687500
v 0.312500 0.687500 0.312500
v 0.312500 0.500000 0.812500
v 0.687500 0.562500 0.812500
v 0.312500 0.437500 0.750000
v 0.687500 0.500000 0.750000
v 0.312500 0.375000 0.812500
v 0.687500 0.437500 0.812500
v 0.312500 0.312500 0.750000
v 0.687500 0.375000 0.750000
v 0.312500 0.250000 0.812500
v 0.687500 0.312500 0.812500
v 0.687500 0.250000 0.750000
v 0.312500 0.187500 0.750000
v 0.750000 0.187500 0.687500
v 0.750000 0.250000 0.312500
v 0.812500 0.312500 0.312500
v 0.812500 0.250000 0.687500
v 0.750000 0.375000 0.312500
v 0.750000 0.312500 0.687500
v 0.812500 0.437500 0.312500
v 0.812500 0.375000 0.687500
v 0.750000 0.500000 0.312500
v 0.750000 0.437500 0.687500
v 0.812500 0.562500 0.312500
v 0.812500 0.500000 0.687500
v 0.750000 0.625000 0.312500
v 0.750000 0.562500 0.687500
v 0.812500 0.687500 0.312500
v 0.812500 0.625000 0.687500
v 0.750000 0.750000 0.312500
v 0.750000 0.687500 0.687500
v 0.687500 0.625000 0.750000
v 0.312500 0.562500 0.750000
v 0.687500 0.687500 0.812500
v 0.312500 0.625000 0.812500
v 0.687500 0.750000 0.750000
v 0.312500 0.687500 0.750000
v 0.187500 0.500000 0.312500
v 0.187500 0.562500 0.687500
v 0.250000 0.437500 0.312500
v 0.250000 0.500000 0.687500
v 0.187500 0.375000 0.312500
v 0.187500 0.437500 0.687500
v 0.250000 0.312500 0.312500
v 0.250000 0.375000 0.687500
v 0.187500 0.250000 0.312500
v 0.187500 0.312500 0.687500
v 0.250000 0.250000 0.687500
v 0.250000 0.187500 0.312500
v 0.250000 0.625000 0.687500
v 0.250000 0.562500 0.312500
v 0.187500 0.687500 0.687500
v 0.187500 0.625000 0.312500
v 0.250000 0.750000 0.687500
v 0.250000 0.687500 0.312500
v 0.250000 0.875000 0.812500
v 0.812500 0.937500 0.750000
v 0.250000 0.875000 0.187500
v 0.812500 0.937500 0.250000
v 0.750000 0.875000 0.812500
v 0.812500 0.875000 0.250000
v 0.750000 0.875000 0.187500
v 0.812500 0.875000 0.750000
v 0.250000 0.937500 0.812500
v 0.250000 0.937500 0.187500
v 0.750000 0.937500 0.187500
v 0.750000 0.937500 0.812500
v 0.187500 0.875000 0.750000
v 0.187500 0.875000 0.250000
v 0.187500 0.937500 0.750000
v 0.187500 0.937500 0.250000
v 0.625000 1.000000 0.625000
v 0.625000 1.000000 0.375000
v 0.375000 1.000000 0.375000
v 0.375000 1.000000 0.625000
v 0.250000 1.000000 0.750000
v 0.750000 1.000000 0.750000
v 0.250000 1.000000 0.250000
v 0.750000 1.000000 0.250000
v 0.462468 1.000000 0.590609
v 0.537531 1.000000 0.590609
v 0.590609 1.000000 0.537531
v 0.590609 1.000000 0.462468
v 0.537531 1.000000 0.409391
v 0.462468 1.000000 0.409391
v 0.409391 1.000000 0.462468
v 0.409391 1.000000 0.537532
v 0.653109 1.062500 0.563420
v 0.653109 1.062500 0.436580
v 0.436580 1.062500 0.653109
v 0.563420 1.062500 0.653109
v 0.563420 1.062500 0.346891
v 0.436580 1.062500 0.346891
v 0.346891 1.062500 0.436580
v 0.346891 1.062500 0.563420
v 0.500000 1.000000 0.500000
v 0.715609 1.000000 0.589308
v 0.410692 1.000000 0.715609
v 0.715609 1.000000 0.410692
v 0.589308 1.000000 0.715609
v 0.589308 1.000000 0.284391
v 0.410692 1.000000 0.284391
v 0.284391 1.000000 0.410692
v 0.284391 1.000000 0.589309
vt 0.750000 0.593750
vt 0.750000 0.687500
vt 0.500000 0.687500
vt 0.500000 0.593750
vt 0.812500 0.375000
vt 0.812500 0.000000
vt 0.906250 0.000000
vt 0.906250 0.375000
vt 0.812500 0.375000
vt 0.812500 0.468750
vt 0.718750 0.375000
vt 0.812500 0.000000
vt 0.718750 0.000000
vt 0.812500 0.468750
vt 0.750000 0.468750
vt 0.750000 0.593750
vt 0.500000 0.593750
vt 0.500000 0.468750
vt 0.218750 0.625000
vt 0.218750 0.531250
vt 0.468750 0.531250
vt 0.468750 0.625000
vt 0.125000 0.250000
vt 0.093750 0.250000
vt 0.093750 0.281250
vt 0.125000 0.281250
vt 0.125000 0.250000
vt 0.093750 0.250000
vt 0.093750 0.281250
vt 0.125000 0.281250
vt 0.906250 0.750000
vt 0.906250 0.968750
vt 0.781250 0.968750
vt 0.781250 0.750000
vt -0.000000 1.000000
vt -0.000000 0.625000
vt 0.125000 0.625000
vt 0.125000 1.000000
vt 0.125000 0.281250
vt 0.093750 0.281250
vt 1.000000 0.375000
vt 1.000000 0.625000
vt 0.875000 0.625000
vt 0.875000 0.375000
vt 0.625000 0.531250
vt 0.875000 0.531250
vt 0.875000 0.468750
vt 0.625000 0.468750
vt 0.843750 0.250000
vt 0.843750 0.437500
vt 0.656250 0.437500
vt 0.656250 0.250000
vt 0.625000 0.468750
vt 0.875000 0.468750
vt 0.875000 0.531250
vt 0.625000 0.531250
vt 0.875000 0.468750
vt 0.875000 0.531250
vt 0.625000 0.468750
vt 0.625000 0.531250
vt 0.875000 0.218750
vt 0.625000 0.218750
vt 0.125000 0.281250
vt 0.093750 0.281250
vt 0.093750 0.625000
vt 0.093750 0.531250
vt 0.500000 0.531250
vt 0.500000 0.625000
vt 0.375000 0.625000
vt 0.375000 0.531250
vt 0.750000 0.625000
vt 0.750000 1.000000
vt 0.625000 1.000000
vt 0.625000 0.625000
vt 0.906250 0.750000
vt 0.906250 0.968750
vt 0.781250 0.968750
vt 0.781250 0.750000
vt 0.125000 0.625000
vt 0.125000 0.531250
vt 0.750000 0.625000
vt 0.500000 0.625000
vt 0.500000 0.531250
vt 0.750000 0.531250
vt 0.125000 0.250000
vt 0.093750 0.250000
vt 0.750000 0.531250
vt 0.843750 0.531250
vt 0.796875 0.625000
vt 0.796875 0.625000
vt 0.843750 0.531250
vt 0.906250 0.750000
vt 0.906250 0.968750
vt 0.781250 0.968750
vt 0.781250 0.750000
vt 0.093750 0.250000
vt 0.093750 0.625000
vt 0.000000 0.625000
vt 0.000000 0.250000
vt -0.000000 0.250000
vt 0.093750 0.625000
vt -0.000000 0.625000
vt 0.343750 0.750000
vt 0.156250 0.750000
vt 0.375000 0.625000
vt 0.156250 0.968750
vt 0.343750 0.968750
vt 0.375000 1.000000
vt 0.781250 0.968750
vt 0.968750 0.968750
vt 1.000000 1.000000
vt 0.750000 1.000000
vt 0.968750 0.750000
vt 0.781250 0.750000
vt 0.750000 0.625000
vt 1.000000 0.625000
vt 0.593750 0.750000
vt 0.406250 0.750000
vt 0.375000 0.625000
vt 0.406250 0.968750
vt 0.375000 1.000000
vt 0.593750 0.968750
vt 0.156250 0.750000
vt 0.343750 0.750000
vt 0.343750 0.875000
vt 0.156250 0.875000
vt 0.406250 0.843750
vt 0.593750 0.843750
vt 0.781250 0.968750
vt 0.781250 0.750000
vt 0.906250 0.750000
vt 0.906250 0.968750
vt 0.156250 0.750000
vt 0.343750 0.750000
vt 0.343750 0.875000
vt 0.156250 0.875000
vt 0.906250 0.750000
vt 0.906250 0.968750
vt 0.593750 0.968750
vt 0.406250 0.968750
vt 0.406250 0.843750
vt 0.593750 0.843750
vt 0.343750 0.875000
vt 0.156250 0.875000
vt 0.781250 0.968750
vt 0.781250 0.750000
vt 0.906250 0.750000
vt 0.906250 0.968750
vt 0.593750 0.968750
vt 0.406250 0.968750
vt 0.406250 0.843750
vt 0.593750 0.843750
vt -0.000000 0.156250
vt 0.187500 0.156250
vt 0.187500 0.187500
vt -0.000000 0.187500
vt -0.000000 0.125000
vt 0.187500 0.125000
vt -0.000000 0.093750
vt 0.187500 0.093750
vt -0.000000 0.062500
vt 0.187500 0.062500
vt -0.000000 0.031250
vt 0.187500 0.031250
vt -0.000000 0.000000
vt 0.187500 0.000000
vt 0.187500 0.031250
vt -0.000000 0.031250
vt -0.000000 0.000000
vt 0.187500 0.000000
vt 0.187500 0.062500
vt -0.000000 0.062500
vt 0.187500 0.093750
vt -0.000000 0.093750
vt 0.187500 0.125000
vt -0.000000 0.125000
vt 0.187500 0.156250
vt -0.000000 0.156250
vt 0.187500 0.187500
vt -0.000000 0.187500
vt 0.187500 0.218750
vt -0.000000 0.218750
vt 0.187500 0.250000
vt -0.000000 0.250000
vt 0.187500 0.218750
vt -0.000000 0.218750
vt 0.187500 0.250000
vt -0.000000 0.250000
vt -0.000000 0.156250
vt 0.187500 0.156250
vt 0.187500 0.187500
vt -0.000000 0.187500
vt -0.000000 0.125000
vt 0.187500 0.125000
vt -0.000000 0.093750
vt 0.187500 0.093750
vt -0.000000 0.062500
vt 0.187500 0.062500
vt -0.000000 0.031250
vt 0.187500 0.031250
vt -0.000000 0.000000
vt 0.187500 0.000000
vt 0.187500 0.218750
vt -0.000000 0.218750
vt 0.187500 0.250000
vt -0.000000 0.250000
vt 0.593750 0.500000
vt 0.593750 0.468750
vt 0.625000 0.468750
vt 0.625000 0.500000
vt 0.343750 0.500000
vt 0.343750 0.468750
vt 0.593750 0.468750
vt 0.593750 0.500000
vt 0.343750 0.500000
vt 0.343750 0.468750
vt 0.593750 0.468750
vt 0.593750 0.500000
vt 0.343750 0.500000
vt 0.343750 0.468750
vt 0.625000 0.468750
vt 0.625000 0.500000
vt 0.625000 0.468750
vt 0.625000 0.500000
vt 0.593750 0.468750
vt 0.625000 0.468750
vt 0.625000 0.500000
vt 0.593750 0.500000
vt 0.593750 0.531250
vt 0.593750 0.531250
vt 0.343750 0.531250
vt 0.593750 0.531250
vt 0.343750 0.531250
vt 0.593750 0.531250
vt 0.343750 0.531250
vt 0.343750 0.500000
vt 0.343750 0.531250
vt 0.281250 0.343750
vt 0.156250 0.343750
vt 0.093750 0.281250
vt 0.343750 0.281250
vt 0.156250 0.468750
vt 0.281250 0.468750
vt 0.093750 0.531250
vt 0.071885 0.578125
vt 0.078324 0.562500
vt 0.046676 0.562500
vt 0.053115 0.578125
vt 0.181260 0.578125
vt 0.187699 0.562500
vt 0.156051 0.562500
vt 0.162490 0.578125
vt 0.078324 0.562500
vt 0.071885 0.578125
vt 0.071885 0.578125
vt 0.078324 0.562500
vt 0.046676 0.562500
vt 0.053115 0.578125
vt 0.078324 0.562500
vt 0.071885 0.578125
vt 0.162490 0.578125
vt 0.156051 0.562500
vt 0.187699 0.562500
vt 0.181260 0.578125
vt 0.156051 0.562500
vt 0.162490 0.578125
vt 0.162490 0.578125
vt 0.156051 0.562500
vt 0.015625 0.968750
vt -0.000000 0.984375
vt -0.000000 0.968750
vt 0.015625 0.968750
vt -0.000000 0.968750
vt 0.015625 0.968750
vt -0.000000 0.968750
vt 0.015625 0.968750
vt -0.000000 0.968750
vt 0.015625 0.968750
vt -0.000000 0.968750
vt 0.015625 0.968750
vt -0.000000 0.968750
vt 0.015625 0.968750
vt -0.000000 0.968750
vt 0.015625 0.968750
vt -0.000000 0.968750
vt 0.062301 0.500000
vt 0.055827 0.484375
vt 0.100423 0.484375
vt 0.093949 0.500000
vt 0.015426 0.500000
vt 0.008952 0.484375
vt 0.053548 0.484375
vt 0.047074 0.500000
vt 0.187301 0.500000
vt 0.180827 0.484375
vt 0.225423 0.484375
vt 0.218949 0.500000
vt 0.046676 0.500000
vt 0.040202 0.484375
vt 0.084798 0.484375
vt 0.078324 0.500000
vt 0.015426 0.500000
vt 0.008952 0.484375
vt 0.053548 0.484375
vt 0.047074 0.500000
vt 0.062301 0.500000
vt 0.055827 0.484375
vt 0.100423 0.484375
vt 0.093949 0.500000
vt 0.187301 0.500000
vt 0.180827 0.484375
vt 0.225423 0.484375
vt 0.218949 0.500000
vt 0.046676 0.500000
vt 0.040202 0.484375
vt 0.084798 0.484375
vt 0.078324 0.500000
vn 0.0000 0.0000 -1.0000
vn -0.7071 0.7071 0.0000
vn 0.0000 -1.0000 0.0000
vn -1.0000 0.0000 0.0000
vn 0.0000 1.0000 0.0000
vn 1.0000 0.0000 0.0000
vn -0.7071 0.0000 -0.7071
vn 0.0000 -0.7071 -0.7071
vn 0.0000 0.7071 -0.7071
vn 0.7071 0.0000 -0.7071
vn 0.7071 0.7071 0.0000
vn 0.0000 0.0000 1.0000
vn 0.0000 0.7071 0.7071
vn -0.5774 0.5774 0.5774
vn 0.5774 0.5774 0.5774
vn 0.7071 0.0000 0.7071
vn -0.7071 0.0000 0.7071
vn -0.1170 0.7022 0.7022
vn 0.1170 -0.7022 0.7022
vn 0.7022 -0.7022 -0.1170
vn 0.7022 0.7022 0.1170
vn -0.7022 0.7022 -0.1170
vn -0.7022 -0.7022 0.1170
vn -0.5774 0.5774 -0.5774
vn 0.5774 0.5774 -0.5774
vn 0.5000 0.7071 -0.5000
vn -0.5000 0.7071 0.5000
vn 0.5000 0.7071 0.5000
vn -0.5000 0.7071 -0.5000
usemtl INFERNO_ENGINE
s off
f 30/1/1 14/2/1 15/3/1 29/4/1
f 30/5/1 2/6/1 5/7/1 8/8/1
f 29/9/1 15/10/1 9/11/1
f 4/12/1 29/9/1 9/11/1 10/13/1
f 14/14/1 30/5/1 8/8/1
f 2/15/1 31/16/1 32/17/1 4/18/1
usemtl PROTO_ACTUATOR
f 36/19/2 48/20/2 47/21/2 33/22/2
f 41/23/3 53/24/3 54/25/3 7/26/3
f 45/27/3 42/28/3 6/29/3 46/30/3
f 11/31/1 12/32/1 67/33/1 66/34/1
f 8/35/4 5/36/4 45/37/4 48/38/4
f 4/39/3 10/40/3 53/24/3 41/23/3
f 15/41/5 14/42/5 36/43/5 35/44/5
f 17/45/4 18/46/4 25/47/4 26/48/4
f 19/49/1 20/50/1 24/51/1 23/52/1
f 27/53/6 28/54/6 22/55/6 21/56/6
f 26/57/3 27/53/3 21/56/3 17/58/3
f 28/59/5 25/47/5 18/46/5 22/60/5
f 20/50/7 19/49/7 26/61/7 25/47/7
f 19/49/8 23/52/8 27/62/8 26/61/8
f 24/51/9 20/50/9 25/47/9 28/59/9
f 23/52/10 24/51/10 28/59/10 27/62/10
f 5/63/3 2/64/3 42/28/3 45/27/3
f 14/65/2 8/66/2 48/20/2 36/19/2
f 2/64/3 4/39/3 41/23/3 42/28/3
f 9/67/11 15/68/11 35/69/11 56/70/11
f 10/71/6 9/72/6 56/73/6 53/74/6
f 37/75/12 38/76/12 60/77/12 57/78/12
f 56/70/11 35/69/11 34/79/11 55/80/11
f 42/28/3 41/23/3 7/26/3 6/29/3
f 34/81/13 33/82/13 49/83/13 50/84/13
f 6/29/3 7/26/3 51/85/3 52/86/3
f 6/29/3 52/86/3 46/30/3
f 54/25/3 51/85/3 7/26/3
f 47/87/14 49/88/14 33/89/14
f 34/90/15 50/84/15 55/91/15
f 44/92/4 1/93/4 62/94/4 63/95/4
f 54/96/16 55/97/16 50/98/16 51/99/16
f 46/100/17 52/86/17 49/101/17 47/102/17
f 11/103/4 40/104/4 45/37/4 46/105/4
f 39/106/4 12/107/4 47/108/4 48/38/4
f 12/107/4 11/103/4 46/105/4 47/108/4
f 40/104/4 39/106/4 48/38/4 45/37/4
f 3/109/12 1/110/12 50/111/12 49/112/12
f 44/113/12 43/114/12 52/115/12 51/116/12
f 43/114/12 3/109/12 49/112/12 52/115/12
f 1/110/12 44/113/12 51/116/12 50/111/12
f 37/117/6 16/118/6 54/119/6 53/74/6
f 16/118/6 13/120/6 55/121/6 54/119/6
f 38/122/6 37/117/6 53/74/6 56/73/6
f 13/120/6 38/122/6 56/73/6 55/121/6
f 16/123/5 37/124/5 57/125/5 58/126/5
f 38/122/3 13/120/3 59/127/3 60/128/3
f 13/129/1 16/130/1 58/131/1 59/132/1
f 43/133/5 44/134/5 63/135/5 64/136/5
f 3/109/6 43/114/6 64/137/6 61/138/6
f 1/139/3 3/140/3 61/141/3 62/142/3
f 40/104/5 11/103/5 66/143/5 65/144/5
f 39/145/12 40/146/12 65/147/12 68/148/12
f 12/149/3 39/150/3 68/151/3 67/152/3
f 69/153/18 70/154/18 99/155/18 100/156/18
f 71/157/19 72/158/19 70/154/19 69/153/19
f 73/159/18 74/160/18 72/158/18 71/157/18
f 75/161/19 76/162/19 74/160/19 73/159/19
f 77/163/18 78/164/18 76/162/18 75/161/18
f 78/164/19 77/163/19 80/165/19 79/166/19
f 83/167/20 84/168/20 81/169/20 82/170/20
f 84/168/21 83/167/21 85/171/21 86/172/21
f 86/172/20 85/171/20 87/173/20 88/174/20
f 88/174/21 87/173/21 89/175/21 90/176/21
f 90/176/20 89/175/20 91/177/20 92/178/20
f 92/178/21 91/177/21 93/179/21 94/180/21
f 94/180/20 93/179/20 95/181/20 96/182/20
f 96/182/21 95/181/21 97/183/21 98/184/21
f 100/156/19 99/155/19 101/185/19 102/186/19
f 102/186/18 101/185/18 103/187/18 104/188/18
f 105/189/22 106/190/22 117/191/22 118/192/22
f 107/193/23 108/194/23 106/190/23 105/189/23
f 109/195/22 110/196/22 108/194/22 107/193/22
f 111/197/23 112/198/23 110/196/23 109/195/23
f 113/199/22 114/200/22 112/198/22 111/197/22
f 114/200/23 113/199/23 116/201/23 115/202/23
f 118/192/23 117/191/23 119/203/23 120/204/23
f 120/204/22 119/203/22 121/205/22 122/206/22
f 137/207/17 135/208/17 123/209/17 131/210/17
f 135/208/4 137/207/4 138/211/4 136/212/4
f 127/213/12 134/214/12 131/215/12 123/216/12
f 128/217/6 126/218/6 124/219/6 130/220/6
f 127/213/16 130/221/16 124/222/16 134/214/16
f 129/223/10 133/224/10 126/218/10 128/217/10
f 125/225/7 136/226/7 138/227/7 132/228/7
f 144/229/15 134/214/15 124/222/15
f 132/228/24 138/227/24 145/230/24
f 144/231/11 124/219/11 126/218/11 146/232/11
f 131/215/13 134/214/13 144/229/13 143/233/13
f 126/218/25 133/224/25 146/232/25
f 137/207/2 143/234/2 145/235/2 138/211/2
f 133/236/9 132/228/9 145/230/9 146/237/9
f 137/207/14 131/210/14 143/234/14
f 139/238/5 142/239/5 143/240/5 144/241/5
f 141/242/5 140/243/5 146/237/5 145/244/5
f 140/243/5 139/238/5 144/241/5 146/237/5
f 142/239/5 141/242/5 145/244/5 143/240/5
usemtl GRAND_DISTILLERY
f 154/245/26 162/246/26 157/247/26 147/248/26
f 149/249/2 155/250/2 156/251/2 150/252/2
f 147/248/9 157/247/9 158/253/9 148/254/9
f 150/255/27 156/256/27 159/257/27 151/258/27
f 151/258/13 159/257/13 160/259/13 152/260/13
f 152/261/28 160/262/28 161/263/28 153/264/28
f 153/264/11 161/263/11 162/265/11 154/266/11
f 148/267/29 158/268/29 155/250/29 149/249/29
f 149/269/5 163/270/5 148/271/5
f 148/272/5 163/270/5 147/273/5
f 147/274/5 163/270/5 154/275/5
f 154/276/5 163/270/5 153/277/5
f 153/278/5 163/270/5 152/279/5
f 152/280/5 163/270/5 151/281/5
f 151/282/5 163/270/5 150/283/5
f 150/284/5 163/270/5 149/285/5
f 162/286/27 171/287/27 165/288/27 157/289/27
f 155/290/11 164/291/11 166/292/11 156/293/11
f 157/294/13 165/295/13 167/296/13 158/297/13
f 156/298/26 166/299/26 168/300/26 159/301/26
f 159/302/9 168/303/9 169/304/9 160/305/9
f 160/306/29 169/307/29 170/308/29 161/309/29
f 161/310/2 170/311/2 171/312/2 162/313/2
f 158/314/28 167/315/28 164/316/28 155/317/28
