# Blender v2.80 (sub 75) OBJ File: 'chem devices.blend'
# www.blender.org
mtllib alchemical_nexus_crystal.mtl
o ALCHEMICAL_NEXUS_CRYSTAL_Cube.040
v 0.000000 0.000000 0.000000
v -0.093750 0.187500 0.093750
v -0.093750 0.187500 -0.093750
v 0.093750 0.187500 0.093750
v 0.093750 0.187500 -0.093750
v -0.093750 0.937500 0.093750
v -0.093750 0.937500 -0.093750
v 0.093750 0.937500 -0.093750
v 0.093750 0.937500 0.093750
v 0.000000 1.125000 0.000000
vt 0.437500 0.156250
vt 0.250000 0.062500
vt 0.250000 0.250000
vt 0.250000 0.062500
vt 0.250000 0.250000
vt 0.250000 0.125000
vt 0.062500 0.125000
vt 0.062500 0.875000
vt 0.250000 0.875000
vt 0.250000 0.937500
vt 0.250000 0.750000
vt 0.437500 0.843750
vt 0.250000 0.125000
vt 0.062500 0.125000
vt 0.062500 0.875000
vt 0.250000 0.875000
vt 0.250000 0.937500
vt 0.250000 0.750000
vn -0.8944 -0.4472 0.0000
vn 0.0000 -0.4472 -0.8944
vn 0.8944 -0.4472 0.0000
vn 0.0000 -0.4472 0.8944
vn 1.0000 0.0000 0.0000
vn 0.0000 0.4472 0.8944
vn -1.0000 0.0000 0.0000
vn 0.0000 0.0000 1.0000
vn 0.0000 0.0000 -1.0000
vn 0.0000 0.4472 -0.8944
vn 0.8944 0.4472 0.0000
vn -0.8944 0.4472 0.0000
usemtl CHIMERITE
s off
f 1/1/1 2/2/1 3/3/1
f 1/1/2 3/3/2 5/4/2
f 1/1/3 5/4/3 4/5/3
f 1/1/4 4/5/4 2/2/4
f 4/6/5 5/7/5 8/8/5 9/9/5
f 6/10/6 9/11/6 10/12/6
f 3/13/7 2/14/7 6/15/7 7/16/7
f 2/14/8 4/6/8 9/9/8 6/15/8
f 5/7/9 3/13/9 7/16/9 8/8/9
f 8/17/10 7/18/10 10/12/10
f 9/11/11 8/17/11 10/12/11
f 7/18/12 6/10/12 10/12/12
