# Blender v2.80 (sub 75) OBJ File: 'chem devices.blend'
# www.blender.org
mtllib astral_observer_telescope.mtl
o ASTRAL_OBSERVER_TELESCOPE_Cube.059
v 1.500000 0.000000 0.176777
v 0.937500 0.000000 -0.088388
v 0.937500 -0.088388 -0.000000
v 1.500000 -0.176777 -0.000000
v 1.500000 0.000000 0.176777
v 0.937500 0.088388 -0.000000
v 0.937500 0.000000 0.088388
v 1.687500 0.000000 0.132582
v 1.687500 0.132583 -0.000000
v 1.687500 0.000000 -0.132583
v 1.687500 -0.132583 -0.000000
v 1.625000 0.176777 -0.044194
v 1.625000 0.044194 -0.176777
v 1.687500 0.176777 -0.044194
v 1.687500 0.044194 -0.176777
v 1.625000 -0.176777 -0.044194
v 1.625000 -0.044194 -0.176777
v 1.687500 -0.044194 -0.176777
v 1.687500 -0.176777 -0.044194
v 1.500000 -0.176777 -0.000000
v 1.656250 0.132583 -0.000000
v 1.656250 0.000000 0.132582
v 1.625000 -0.044194 0.176777
v 1.625000 -0.176777 0.044194
v 1.687500 -0.044194 0.176777
v 1.687500 -0.176777 0.044194
v 1.625000 0.044194 0.176777
v 1.625000 0.176777 0.044194
v 1.687500 0.044194 0.176777
v 1.687500 0.176777 0.044194
v 1.656250 0.000000 -0.132583
v 1.656250 -0.132583 -0.000000
v 1.062500 0.000000 -0.132583
v 1.062500 -0.132583 -0.000000
v 1.062500 0.132583 -0.000000
v 1.062500 0.000000 0.132582
v 1.437500 0.000000 0.132582
v 1.437500 0.132583 -0.000000
v 1.437500 -0.132583 -0.000000
v 1.437500 0.000000 -0.132583
v 1.500000 0.176777 -0.044194
v 1.500000 0.044194 -0.176777
v 1.562500 0.176777 -0.044194
v 1.562500 0.044194 -0.176777
v 1.500000 -0.176777 -0.044194
v 1.500000 -0.044194 -0.176777
v 1.562500 -0.044194 -0.176777
v 1.562500 -0.176777 -0.044194
v 1.500000 -0.044194 0.176777
v 1.500000 -0.176777 0.044194
v 1.562500 -0.044194 0.176777
v 1.562500 -0.176777 0.044194
v 1.500000 0.044194 0.176777
v 1.500000 0.176777 0.044194
v 1.562500 0.044194 0.176777
v 1.562500 0.176777 0.044194
v 1.593750 0.154680 -0.022097
v 1.593750 0.154680 0.022097
v 1.593750 0.022097 0.154680
v 1.593750 -0.022097 0.154680
v 1.593750 -0.154680 0.022097
v 1.593750 -0.154680 -0.022097
v 1.593750 -0.022097 -0.154680
v 1.593750 0.022097 -0.154680
v 1.000000 0.176777 -0.044194
v 1.000000 0.044194 -0.176777
v 1.062500 0.176777 -0.044194
v 1.062500 0.044194 -0.176777
v 1.000000 -0.176777 -0.044194
v 1.000000 -0.044194 -0.176777
v 1.062500 -0.044194 -0.176777
v 1.062500 -0.176777 -0.044194
v 1.000000 -0.044194 0.176777
v 1.000000 -0.176777 0.044194
v 1.062500 -0.044194 0.176777
v 1.062500 -0.176777 0.044194
v 1.000000 0.044194 0.176777
v 1.000000 0.176777 0.044194
v 1.062500 0.044194 0.176777
v 1.062500 0.176777 0.044194
v 1.000000 0.000000 -0.132583
v 1.000000 -0.132583 -0.000000
v 0.312500 0.000000 -0.044194
v 0.312500 -0.044194 0.000000
v 0.312500 0.000000 0.044194
v 0.312500 0.044194 0.000000
v 1.000000 0.000000 0.132582
v 1.000000 0.132583 -0.000000
v 0.437500 0.022097 -0.110485
v 0.437500 -0.110485 -0.022097
v 0.437500 -0.022097 -0.110485
v 0.437500 0.110485 0.022097
v 0.500000 0.000000 0.088388
v 0.500000 0.088388 -0.000000
v 0.500000 -0.088388 -0.000000
v 0.500000 0.000000 -0.088388
v 0.500000 -0.110485 0.022097
v 0.500000 0.110485 0.022097
v 0.500000 -0.022097 0.110485
v 0.500000 0.022097 0.110485
v 0.500000 0.110485 -0.022097
v 0.500000 0.022097 -0.110485
v 0.437500 0.110485 -0.022097
v 0.500000 -0.110485 -0.022097
v 0.500000 -0.022097 -0.110485
v 0.437500 0.022097 0.110485
v 0.437500 -0.022097 0.110485
v 0.437500 -0.110485 0.022097
v 0.407353 -0.088388 -0.000000
v 0.407353 0.088388 -0.000000
v 0.407353 0.000000 -0.088388
v 0.375000 -0.022097 -0.110485
v 0.375000 -0.110485 -0.022097
v 0.375000 0.022097 -0.110485
v 0.375000 0.110485 0.022097
v 0.375000 -0.110485 0.022097
v 0.375000 -0.022097 0.110485
v 0.375000 0.022097 0.110485
v 0.375000 0.110485 -0.022097
v 0.312500 -0.022097 -0.110485
v 0.312500 -0.110485 -0.022097
v 0.312500 0.022097 -0.110485
v 0.312500 0.110485 0.022097
v 0.312500 -0.110485 0.022097
v 0.312500 -0.022097 0.110485
v 0.312500 0.022097 0.110485
v 0.312500 0.110485 -0.022097
v 0.407353 0.000000 0.088388
v 0.312500 0.000000 -0.088388
v 0.312500 -0.088388 0.000000
v 0.312500 0.088388 0.000000
v 0.312500 0.000000 0.088388
v 0.375000 0.000000 -0.000000
v -0.937501 -0.388325 0.031250
v -0.937500 0.388325 0.031250
v -0.937501 -0.388325 -0.031250
v -0.937500 0.388325 -0.031250
v -1.000001 -0.414214 -0.031250
v -1.000001 0.414214 -0.031250
v -1.000001 0.414214 0.031250
v -0.414214 1.000000 -0.031250
v 0.414214 1.000000 -0.031250
v -0.414214 1.000000 0.031250
v 0.414214 1.000000 0.031250
v 0.414214 -1.000000 -0.031250
v -0.388325 -0.937500 -0.031250
v 0.388325 -0.937500 -0.031250
v 0.388325 -0.937500 0.031250
v -0.388325 0.937500 0.031250
v -0.388325 0.937500 -0.031250
v 0.414214 -1.000000 0.031250
v 1.000000 -0.414214 0.031250
v 1.000000 -0.414214 -0.031250
v 0.937500 -0.388325 -0.031250
v 0.937500 -0.388325 0.031250
v 0.388326 0.937500 0.031250
v 0.937501 0.388325 0.031250
v 0.388326 0.937500 -0.031250
v 0.937501 0.388325 -0.031250
v -1.000001 -0.414214 0.031250
v 1.000001 0.414214 -0.031250
v -0.414214 -1.000001 0.031250
v 1.000001 0.414214 0.031250
v -0.414214 -1.000001 -0.031250
v -0.388325 -0.937501 0.031250
vt 0.187500 0.531250
vt 0.187500 0.593750
vt 0.406250 0.593750
vt 0.406250 0.531250
vt 1.000000 0.750000
vt 1.000000 0.781250
vt 0.968750 0.781250
vt 0.937500 0.656250
vt 0.937500 0.750000
vt 0.968750 0.750000
vt 0.968750 0.656250
vt 1.000000 0.750000
vt 1.000000 0.781250
vt 0.968750 0.781250
vt 0.937500 0.750000
vt 0.937500 0.656250
vt 0.968750 0.656250
vt 0.968750 0.750000
vt 0.968750 0.781250
vt 0.968750 0.812500
vt 0.937500 0.812500
vt 0.937500 0.781250
vt 0.406250 0.531250
vt 0.187500 0.531250
vt 0.937500 0.750000
vt 0.937500 0.656250
vt 0.968750 0.656250
vt 0.968750 0.750000
vt 0.968750 0.437500
vt 0.968750 0.531250
vt 1.000000 0.531250
vt 1.000000 0.437500
vt 0.968750 0.562500
vt 1.000000 0.562500
vt 1.000000 0.593750
vt 0.968750 0.406250
vt 0.937500 0.406250
vt 0.937500 0.375000
vt 0.968750 0.375000
vt 0.937500 0.656250
vt 0.937500 0.750000
vt 0.968750 0.750000
vt 0.968750 0.656250
vt 0.937500 0.593750
vt 0.968750 0.593750
vt 0.968750 0.562500
vt 0.937500 0.562500
vt 0.968750 0.812500
vt 0.937500 0.781250
vt 0.937500 0.812500
vt 0.937500 0.562500
vt 0.968750 0.593750
vt 0.937500 0.593750
vt 1.000000 0.750000
vt 1.000000 0.656250
vt 1.000000 0.750000
vt 1.000000 0.656250
vt 1.000000 0.750000
vt 0.968750 0.750000
vt 0.968750 0.656250
vt 1.000000 0.656250
vt 1.000000 0.593750
vt 0.968750 0.562500
vt 1.000000 0.562500
vt 0.718750 0.562500
vt 0.718750 0.468750
vt 0.812500 0.468750
vt 0.812500 0.562500
vt 0.968750 0.531250
vt 1.000000 0.531250
vt 1.000000 0.437500
vt 1.000000 0.531250
vt 0.968750 0.531250
vt 0.968750 0.437500
vt 1.000000 0.531250
vt 0.968750 0.531250
vt 0.187500 0.593750
vt 0.406250 0.593750
vt 0.000000 0.593750
vt 0.000000 0.500000
vt 0.187500 0.500000
vt 0.187500 0.593750
vt 0.000000 0.500000
vt 0.187500 0.500000
vt 0.000000 0.593750
vt 0.187500 0.593750
vt 0.937500 0.656250
vt 0.937500 0.750000
vt 0.968750 0.750000
vt 0.968750 0.656250
vt 0.937500 0.750000
vt 0.937500 0.656250
vt 0.968750 0.656250
vt 0.968750 0.750000
vt 0.968750 0.781250
vt 0.968750 0.812500
vt 0.937500 0.812500
vt 0.937500 0.781250
vt 0.937500 0.750000
vt 0.937500 0.656250
vt 0.968750 0.656250
vt 0.968750 0.750000
vt 0.937500 0.656250
vt 0.937500 0.750000
vt 0.968750 0.750000
vt 0.968750 0.656250
vt 0.937500 0.593750
vt 0.968750 0.593750
vt 0.968750 0.562500
vt 0.937500 0.562500
vt 0.968750 0.812500
vt 0.968750 0.781250
vt 0.937500 0.781250
vt 0.937500 0.812500
vt 0.937500 0.562500
vt 0.968750 0.562500
vt 0.968750 0.593750
vt 0.937500 0.593750
vt 0.937500 0.281250
vt 0.968750 0.281250
vt 0.937500 0.250000
vt 0.968750 0.250000
vt 0.968750 0.281250
vt 0.937500 0.281250
vt 0.937500 0.375000
vt 0.968750 0.375000
vt 0.937500 0.406250
vt 0.968750 0.406250
vt 0.968750 0.375000
vt 0.937500 0.375000
vt 0.937500 0.281250
vt 0.968750 0.281250
vt 0.968750 0.250000
vt 0.937500 0.250000
vt 0.937500 0.281250
vt 0.968750 0.281250
vt 0.937500 0.375000
vt 0.968750 0.375000
vt 1.000000 0.281250
vt 1.000000 0.375000
vt 1.000000 0.250000
vt 1.000000 0.375000
vt 1.000000 0.281250
vt 1.000000 0.375000
vt 1.000000 0.406250
vt 1.000000 0.281250
vt 1.000000 0.281250
vt 1.000000 0.250000
vt 1.000000 0.375000
vt 1.000000 0.406250
vt 0.937500 0.656250
vt 0.937500 0.750000
vt 0.968750 0.750000
vt 0.968750 0.656250
vt 0.937500 0.750000
vt 0.937500 0.656250
vt 0.968750 0.656250
vt 0.968750 0.750000
vt 0.937500 0.781250
vt 0.968750 0.781250
vt 0.968750 0.812500
vt 0.937500 0.812500
vt 0.937500 0.750000
vt 0.937500 0.656250
vt 0.968750 0.656250
vt 0.968750 0.750000
vt 0.937500 0.656250
vt 0.937500 0.750000
vt 0.968750 0.750000
vt 0.968750 0.656250
vt 0.937500 0.593750
vt 0.968750 0.593750
vt 0.968750 0.562500
vt 0.937500 0.562500
vt 0.968750 0.781250
vt 0.937500 0.781250
vt 0.937500 0.812500
vt 0.968750 0.812500
vt 0.937500 0.562500
vt 0.968750 0.562500
vt 0.968750 0.593750
vt 0.937500 0.593750
vt 1.000000 0.750000
vt 1.000000 0.656250
vt 1.000000 0.656250
vt 1.000000 0.750000
vt 1.000000 0.593750
vt 0.968750 0.562500
vt 1.000000 0.562500
vt 1.000000 0.781250
vt 1.000000 0.781250
vt 1.000000 0.562500
vt 0.968750 0.562500
vt 1.000000 0.593750
vt 0.968750 0.750000
vt 0.968750 0.656250
vt 1.000000 0.656250
vt 1.000000 0.750000
vt 0.968750 0.750000
vt 0.968750 0.656250
vt 1.000000 0.656250
vt 1.000000 0.750000
vt 1.000000 0.781250
vt 0.968750 0.781250
vt 1.000000 0.562500
vt 0.968750 0.562500
vt 1.000000 0.593750
vt 0.968750 0.781250
vt 1.000000 0.781250
vt 0.968750 0.656250
vt 0.968750 0.750000
vt 1.000000 0.593750
vt 0.968750 0.562500
vt 1.000000 0.562500
vt 0.968750 0.656250
vt 0.968750 0.750000
vt 0.968750 0.656250
vt 0.968750 0.750000
vt 1.000000 0.750000
vt 1.000000 0.656250
vt 0.968750 0.750000
vt 1.000000 0.656250
vt 1.000000 0.750000
vt 1.000000 0.593750
vt 1.000000 0.562500
vt 0.968750 0.562500
vt 1.000000 0.812500
vt 1.000000 0.781250
vt 0.968750 0.781250
vt 0.968750 0.656250
vt 1.000000 0.656250
vt 1.000000 0.750000
vt 1.000000 0.781250
vt 1.000000 0.593750
vt 0.968750 0.562500
vt 1.000000 0.562500
vt 1.000000 0.750000
vt 1.000000 0.656250
vt 0.531250 0.156250
vt 0.531250 0.093750
vt 0.500000 0.078125
vt 0.500000 0.171875
vt 0.531250 0.156250
vt 0.500000 0.171875
vt 0.531250 0.093750
vt 0.500000 0.078125
vt 0.968750 0.343750
vt 0.968750 0.281250
vt 0.937500 0.281250
vt 0.937500 0.343750
vt 0.968750 0.250000
vt 0.937500 0.250000
vt 0.937500 0.281250
vt 0.968750 0.281250
vt 0.937500 0.343750
vt 0.937500 0.281250
vt 0.968750 0.343750
vt 0.937500 0.343750
vt 0.937500 0.375000
vt 0.937500 0.343750
vt 0.937500 0.375000
vt 0.937500 0.281250
vt 0.968750 0.250000
vt 0.937500 0.250000
vt 0.937500 0.656250
vt 0.937500 0.718750
vt 0.968750 0.718750
vt 0.968750 0.656250
vt 0.937500 0.718750
vt 0.937500 0.656250
vt 0.968750 0.656250
vt 0.968750 0.718750
vt 0.937500 0.656250
vt 0.937500 0.718750
vt 0.968750 0.718750
vt 0.968750 0.656250
vt 0.937500 0.718750
vt 0.937500 0.656250
vt 0.968750 0.656250
vt 0.968750 0.718750
vt 1.000000 0.656250
vt 0.968750 0.656250
vt 0.968750 0.718750
vt 1.000000 0.718750
vt 1.000000 0.718750
vt 0.968750 0.718750
vt 0.968750 0.656250
vt 0.968750 0.625000
vt 1.000000 0.625000
vt 1.000000 0.593750
vt 0.968750 0.625000
vt 0.937500 0.625000
vt 0.937500 0.593750
vt 0.968750 0.593750
vt 0.968750 0.750000
vt 0.968750 0.781250
vt 0.937500 0.781250
vt 0.937500 0.750000
vt 1.000000 0.656250
vt 0.968750 0.656250
vt 0.968750 0.718750
vt 0.937500 0.593750
vt 0.937500 0.625000
vt 0.968750 0.625000
vt 0.968750 0.593750
vt 0.968750 0.718750
vt 0.968750 0.656250
vt 0.968750 0.750000
vt 1.000000 0.781250
vt 1.000000 0.750000
vt 0.968750 0.625000
vt 1.000000 0.625000
vt 1.000000 0.593750
vt 1.000000 0.781250
vt 1.000000 0.750000
vt 0.968750 0.750000
vt 0.937500 0.781250
vt 0.968750 0.781250
vt 0.937500 0.750000
vt 0.968750 0.250000
vt 0.968750 0.281250
vt 1.000000 0.250000
vt 0.937500 0.593750
vt 0.937500 0.625000
vt 0.968750 0.625000
vt 0.968750 0.593750
vt 0.937500 0.718750
vt 0.937500 0.656250
vt 0.968750 0.656250
vt 0.968750 0.718750
vt 0.937500 0.656250
vt 0.937500 0.718750
vt 0.968750 0.718750
vt 0.968750 0.656250
vt 0.968750 0.750000
vt 0.968750 0.781250
vt 0.937500 0.781250
vt 0.937500 0.750000
vt 0.937500 0.625000
vt 0.937500 0.593750
vt 0.968750 0.593750
vt 0.968750 0.625000
vt 0.968750 0.781250
vt 0.968750 0.750000
vt 0.937500 0.750000
vt 0.937500 0.781250
vt 0.937500 0.718750
vt 0.937500 0.656250
vt 0.968750 0.656250
vt 0.968750 0.718750
vt 0.937500 0.656250
vt 0.937500 0.718750
vt 0.968750 0.718750
vt 0.968750 0.656250
vt 1.000000 0.656250
vt 1.000000 0.718750
vt 1.000000 0.718750
vt 1.000000 0.593750
vt 1.000000 0.625000
vt 1.000000 0.656250
vt 0.968750 0.750000
vt 1.000000 0.750000
vt 1.000000 0.781250
vt 0.968750 0.625000
vt 1.000000 0.593750
vt 1.000000 0.625000
vt 1.000000 0.781250
vt 0.968750 0.750000
vt 1.000000 0.750000
vt 0.968750 0.343750
vt 1.000000 0.343750
vt 1.000000 0.281250
vt 0.968750 0.375000
vt 0.968750 0.343750
vt 1.000000 0.343750
vt 0.968750 0.375000
vt 0.968750 0.343750
vt 0.968750 0.281250
vt 1.000000 0.281250
vt 0.968750 0.281250
vt 0.968750 0.343750
vt 0.968750 0.250000
vt 1.000000 0.250000
vt 0.968750 0.281250
vt 1.000000 0.515625
vt 1.000000 0.484375
vt 0.968750 0.468750
vt 0.968750 0.531250
vt 1.000000 0.515625
vt 0.968750 0.531250
vt 1.000000 0.484375
vt 0.968750 0.468750
vt 0.281250 0.406250
vt 0.250000 0.437500
vt 0.250000 0.406250
vt 0.281250 0.406250
vt 0.250000 0.437500
vt 0.843750 0.988359
vt 0.843750 0.574141
vt 0.812500 0.574141
vt 0.812500 0.988359
vt 0.843750 0.587085
vt 0.812500 0.587085
vt 0.812500 0.975415
vt 0.843750 0.975415
vt 0.199141 0.500000
vt 0.613359 0.500000
vt 0.613359 0.531250
vt 0.199141 0.531250
vt 0.875000 0.587085
vt 0.875000 0.975415
vt 0.843750 0.988359
vt 0.843750 0.574141
vt 0.875000 0.975415
vt 0.875000 0.587085
vt 0.843750 0.587085
vt 0.812500 0.587085
vt 0.812500 0.975415
vt 0.843750 0.975415
vt 0.875000 0.975415
vt 0.875000 0.587085
vt 0.843750 0.574141
vt 0.843750 0.988359
vt 0.875000 0.587085
vt 0.875000 0.975415
vt 0.843750 0.988359
vt 0.843750 0.574141
vt 0.812500 0.574141
vt 0.812500 0.988359
vt 0.843750 0.574141
vt 0.843750 0.988359
vt 0.812500 0.988359
vt 0.812500 0.574141
vt 0.875000 0.975415
vt 0.875000 0.587085
vt 0.843750 0.574141
vt 0.843750 0.988359
vt 0.600415 0.468750
vt 0.212085 0.468750
vt 0.199141 0.500000
vt 0.613359 0.500000
vt 0.875000 0.587085
vt 0.875000 0.975415
vt 0.843750 0.975415
vt 0.812500 0.975415
vt 0.812500 0.587085
vt 0.843750 0.587085
vt 0.875000 0.587085
vt 0.875000 0.975415
vt 0.843750 0.988359
vt 0.843750 0.574141
vt 0.875000 0.975415
vt 0.875000 0.587085
vt 0.843750 0.574141
vt 0.843750 0.988359
vt 0.843750 0.975415
vt 0.812500 0.975415
vt 0.812500 0.587085
vt 0.843750 0.587085
vt 0.812500 0.988359
vt 0.812500 0.574141
vt 0.781250 0.574141
vt 0.781250 0.988359
vt 0.750000 0.988359
vt 0.750000 0.574141
vt 0.212085 0.468750
vt 0.600415 0.468750
vt 0.781250 0.975415
vt 0.750000 0.975415
vt 0.750000 0.587085
vt 0.781250 0.587085
vt 0.812500 0.975415
vt 0.812500 0.587085
vt 0.781250 0.574141
vt 0.781250 0.988359
vt 0.812500 0.975415
vt 0.781250 0.975415
vt 0.750000 0.975415
vt 0.750000 0.587085
vt 0.781250 0.587085
vt 0.812500 0.975415
vt 0.781250 0.988359
vt 0.781250 0.574141
vt 0.812500 0.975415
vt 0.812500 0.587085
vt 0.781250 0.574141
vt 0.781250 0.988359
vt 0.750000 0.988359
vt 0.750000 0.574141
vt 0.600415 0.500000
vt 0.600415 0.531250
vt 0.212085 0.531250
vt 0.212085 0.500000
vt 0.212085 0.468750
vt 0.600415 0.468750
vt 0.613359 0.500000
vt 0.199141 0.500000
vt 0.600415 0.468750
vt 0.212085 0.468750
vt 0.199141 0.500000
vt 0.613359 0.500000
vt 0.600415 0.500000
vt 0.600415 0.531250
vt 0.212085 0.531250
vt 0.212085 0.500000
vt 0.613359 0.531250
vt 0.199141 0.531250
vn -0.0000 0.7071 -0.7071
vn 1.0000 0.0000 0.0000
vn 0.0000 0.7071 0.7071
vn 0.0000 1.0000 0.0000
vn 0.0000 -0.7071 -0.7071
vn 0.5774 0.8165 0.0000
vn 0.0000 -0.7071 0.7071
vn 0.0000 0.0000 -1.0000
vn 0.0000 -1.0000 0.0000
vn 0.0000 0.0000 1.0000
vn 0.7071 0.5000 0.5000
vn 0.5774 0.0000 0.8165
vn 0.7071 -0.5000 0.5000
vn 0.5774 -0.8165 0.0000
vn 0.7071 -0.5000 -0.5000
vn 0.5774 0.0000 -0.8165
vn 0.7071 0.5000 -0.5000
vn -0.7071 0.5000 -0.5000
vn -0.5774 0.0000 -0.8165
vn -0.7071 -0.5000 -0.5000
vn -0.5774 -0.8165 0.0000
vn -0.7071 -0.5000 0.5000
vn -0.5774 0.0000 0.8165
vn -0.7071 0.5000 0.5000
vn -0.5774 0.8165 0.0000
vn -1.0000 0.0000 0.0000
vn -0.5773 0.0000 -0.8165
vn -0.5773 -0.8165 0.0000
vn -0.5773 0.8165 0.0000
vn -0.4472 -0.6325 -0.6325
vn -0.4472 0.6325 -0.6325
vn -0.4472 0.6325 0.6325
vn -0.4472 -0.6325 0.6325
vn 0.6947 -0.5086 0.5086
vn 0.5640 0.0000 -0.8258
vn 0.6947 -0.5086 -0.5086
vn 0.6947 0.5086 -0.5086
vn 0.5640 0.8258 0.0000
vn 0.5640 -0.8258 0.0000
vn 0.6947 0.5086 0.5086
vn 0.5640 0.0000 0.8258
vn -0.5912 0.0000 0.8065
vn -0.7197 0.4909 0.4909
vn -0.5912 -0.8065 0.0000
vn -0.5912 0.8065 0.0000
vn -0.7197 0.4909 -0.4909
vn -0.7197 -0.4909 -0.4909
vn -0.5912 0.0000 -0.8065
vn -0.7197 -0.4909 0.4909
vn 0.7071 0.7071 0.0000
vn -0.7071 -0.7071 0.0000
vn 0.7071 -0.7071 0.0000
vn -0.7071 0.7071 0.0000
usemtl DELUGE_PURIFIER
s off
f 96/1/1 94/2/1 6/3/1 2/4/1
f 19/5/2 11/6/2 26/7/2
f 13/8/1 12/9/1 14/10/1 15/11/1
f 30/12/2 9/13/2 14/14/2
f 28/15/3 27/16/3 29/17/3 30/18/3
f 30/19/4 14/20/4 12/21/4 28/22/4
f 7/23/3 6/3/3 94/2/3 93/24/3
f 16/25/5 17/26/5 18/27/5 19/28/5
f 8/29/1 11/30/1 32/31/1 22/32/1
f 25/33/2 8/34/2 29/35/2
f 57/36/6 43/37/6 56/38/6 58/39/6
f 23/40/7 24/41/7 26/42/7 25/43/7
f 13/44/8 15/45/8 18/46/8 17/47/8
f 19/48/9 26/7/9 24/49/9 16/50/9
f 23/51/10 25/33/10 29/52/10 27/53/10
f 9/54/2 30/18/2 29/17/2 8/55/2
f 11/56/2 8/55/2 25/43/2 26/42/2
f 11/56/2 19/28/2 18/27/2 10/57/2
f 14/58/2 9/59/2 10/60/2 15/61/2
f 18/62/2 15/63/2 10/64/2
f 22/65/2 32/66/2 31/67/2 21/68/2
f 9/69/5 8/29/5 22/32/5 21/70/5
f 10/71/7 9/72/7 21/73/7 31/74/7
f 11/75/3 10/71/3 31/74/3 32/76/3
f 93/24/7 95/77/7 3/78/7 7/23/7
f 95/77/5 96/1/5 2/4/5 3/78/5
f 34/79/5 33/80/5 40/81/5 39/82/5
f 36/83/7 34/79/7 39/82/7 37/84/7
f 33/80/1 35/85/1 38/86/1 40/81/1
f 37/84/3 38/86/3 35/85/3 36/83/3
f 42/87/1 41/88/1 43/89/1 44/90/1
f 54/91/3 53/92/3 55/93/3 56/94/3
f 56/95/4 43/96/4 41/97/4 54/98/4
f 45/99/5 46/100/5 47/101/5 48/102/5
f 49/103/7 50/104/7 52/105/7 51/106/7
f 42/107/8 44/108/8 47/109/8 46/110/8
f 48/111/9 52/112/9 50/113/9 45/114/9
f 49/115/10 51/116/10 55/117/10 53/118/10
f 58/39/11 56/38/11 55/119/11 59/120/11
f 59/120/12 55/119/12 51/121/12 60/122/12
f 60/123/13 51/124/13 52/125/13 61/126/13
f 61/126/14 52/125/14 48/127/14 62/128/14
f 62/129/15 48/130/15 47/131/15 63/132/15
f 63/133/16 47/134/16 44/135/16 64/136/16
f 64/136/17 44/135/17 43/137/17 57/138/17
f 13/139/18 64/136/18 57/138/18 12/140/18
f 17/141/19 63/133/19 64/136/19 13/139/19
f 16/142/20 62/129/20 63/132/20 17/143/20
f 24/144/21 61/126/21 62/128/21 16/145/21
f 23/146/22 60/123/22 61/126/22 24/144/22
f 27/147/23 59/120/23 60/122/23 23/148/23
f 28/149/24 58/39/24 59/120/24 27/147/24
f 12/150/25 57/36/25 58/39/25 28/149/25
f 66/151/1 65/152/1 67/153/1 68/154/1
f 78/155/3 77/156/3 79/157/3 80/158/3
f 80/159/4 67/160/4 65/161/4 78/162/4
f 69/163/5 70/164/5 71/165/5 72/166/5
f 73/167/7 74/168/7 76/169/7 75/170/7
f 66/171/8 68/172/8 71/173/8 70/174/8
f 72/175/9 76/176/9 74/177/9 69/178/9
f 73/179/10 75/180/10 79/181/10 77/182/10
f 35/183/2 33/184/2 68/154/2 67/153/2
f 35/183/2 80/158/2 79/157/2 36/185/2
f 34/186/2 36/185/2 75/170/2 76/169/2
f 34/186/2 72/166/2 71/165/2 33/184/2
f 68/187/2 33/188/2 71/189/2
f 67/160/2 80/190/2 35/183/2
f 72/175/2 34/186/2 76/191/2
f 75/192/2 36/193/2 79/194/2
f 65/195/26 66/196/26 81/197/26 88/198/26
f 74/199/26 73/200/26 87/201/26 82/202/26
f 74/203/26 82/202/26 69/204/26
f 70/205/26 81/206/26 66/207/26
f 65/208/26 88/198/26 78/209/26
f 70/210/26 69/211/26 82/202/26 81/197/26
f 77/212/26 87/213/26 73/214/26
f 77/215/26 78/216/26 88/198/26 87/201/26
f 40/217/18 38/218/18 41/219/18 42/220/18
f 39/221/20 40/217/20 46/222/20 45/223/20
f 42/224/27 46/225/27 40/226/27
f 45/227/28 50/228/28 39/229/28
f 38/218/24 37/230/24 53/231/24 54/232/24
f 54/232/29 41/233/29 38/218/29
f 53/234/23 37/235/23 49/236/23
f 37/230/22 39/221/22 50/237/22 49/238/22
f 3/239/30 2/240/30 81/241/30 82/242/30
f 2/240/31 6/243/31 88/244/31 81/241/31
f 6/243/32 7/245/32 87/246/32 88/244/32
f 7/245/33 3/239/33 82/242/33 87/246/33
f 109/247/34 128/248/34 117/249/34 116/250/34
f 111/251/35 112/252/35 114/253/35
f 111/254/36 109/247/36 113/255/36 112/256/36
f 110/257/37 111/254/37 114/253/37 119/258/37
f 110/257/38 119/259/38 115/260/38
f 109/247/39 116/250/39 113/261/39
f 128/248/40 110/257/40 115/260/40 118/262/40
f 128/263/41 118/262/41 117/264/41
f 105/265/5 104/266/5 90/267/5 91/268/5
f 97/269/7 99/270/7 107/271/7 108/272/7
f 100/273/3 98/274/3 92/275/3 106/276/3
f 101/277/1 102/278/1 89/279/1 103/280/1
f 96/281/2 102/282/2 101/283/2 94/284/2
f 95/285/2 104/286/2 105/287/2 96/281/2
f 102/288/2 96/289/2 105/290/2
f 89/291/8 102/292/8 105/293/8 91/294/8
f 98/295/4 101/296/4 103/297/4 92/298/4
f 93/299/2 99/300/2 97/301/2 95/285/2
f 99/302/10 100/303/10 106/304/10 107/305/10
f 93/299/2 94/284/2 98/306/2 100/307/2
f 101/308/2 98/309/2 94/310/2
f 99/311/2 93/312/2 100/313/2
f 104/314/2 95/315/2 97/316/2
f 90/317/9 104/318/9 97/316/9 108/319/9
f 107/320/42 106/321/42 128/322/42
f 117/323/10 118/324/10 126/325/10 125/326/10
f 119/327/1 114/328/1 122/329/1 127/330/1
f 112/331/5 113/332/5 121/333/5 120/334/5
f 115/335/4 119/336/4 127/337/4 123/338/4
f 114/339/8 112/340/8 120/341/8 122/342/8
f 113/343/9 116/344/9 124/345/9 121/346/9
f 116/347/7 117/348/7 125/349/7 124/350/7
f 118/351/3 115/352/3 123/353/3 126/354/3
f 129/355/26 131/356/26 127/330/26 122/329/26
f 130/357/26 129/355/26 120/334/26 121/333/26
f 122/342/26 120/358/26 129/359/26
f 132/360/26 130/357/26 124/350/26 125/349/26
f 132/360/26 126/354/26 123/353/26 131/356/26
f 127/361/26 131/362/26 123/363/26
f 125/364/26 126/365/26 132/366/26
f 121/367/26 124/368/26 130/369/26
f 106/321/43 92/370/43 110/371/43 128/372/43
f 90/373/44 108/374/44 109/375/44
f 92/370/45 103/376/45 110/371/45
f 103/377/46 89/378/46 111/379/46 110/371/46
f 91/380/47 90/381/47 109/375/47 111/379/47
f 89/378/48 91/382/48 111/383/48
f 108/374/49 107/384/49 128/372/49 109/375/49
f 84/385/26 83/386/26 129/387/26 130/388/26
f 83/386/26 86/389/26 131/390/26 129/387/26
f 85/391/26 84/385/26 130/388/26 132/392/26
f 86/389/26 85/391/26 132/392/26 131/390/26
f 85/393/30 86/394/30 133/395/30
f 86/394/33 83/396/33 133/395/33
f 83/396/32 84/397/32 133/395/32
f 84/397/31 85/393/31 133/395/31
f 144/398/50 163/399/50 161/400/50 142/401/50
f 136/402/50 134/403/50 165/404/50 146/405/50
f 143/406/4 144/407/4 142/408/4 141/409/4
f 159/410/8 158/411/8 142/412/8 161/413/8
f 156/414/10 157/415/10 163/399/10 144/398/10
f 159/416/51 157/417/51 156/418/51 158/419/51
f 165/420/10 134/421/10 160/422/10 162/423/10
f 136/424/8 146/425/8 164/426/8 138/427/8
f 162/423/51 160/422/51 138/428/51 164/429/51
f 152/430/52 151/431/52 145/432/52 153/433/52
f 147/434/8 154/435/8 153/436/8 145/437/8
f 158/438/8 150/439/8 141/440/8 142/441/8
f 155/442/10 148/443/10 151/431/10 152/430/10
f 150/444/52 149/445/52 135/446/52 137/447/52
f 135/448/10 149/449/10 143/450/10 140/451/10
f 150/452/8 137/453/8 139/454/8 141/455/8
f 147/456/53 148/457/53 155/458/53 154/459/53
f 140/451/53 143/450/53 141/460/53 139/461/53
f 160/462/26 140/463/26 139/464/26 138/465/26
f 149/466/10 156/467/10 144/407/10 143/406/10
f 154/468/26 155/469/26 157/470/26 159/471/26
f 137/472/8 136/473/8 138/474/8 139/475/8
f 134/403/10 135/476/10 140/463/10 160/462/10
f 137/477/2 135/478/2 134/479/2 136/480/2
f 157/417/10 155/481/10 152/482/10 163/483/10
f 154/484/8 159/485/8 161/486/8 153/487/8
f 163/483/2 152/482/2 153/488/2 161/489/2
f 146/490/4 165/491/4 148/492/4 147/493/4
f 148/494/10 165/495/10 162/496/10 151/497/10
f 146/498/8 147/499/8 145/500/8 164/501/8
f 158/502/9 156/503/9 149/504/9 150/505/9
f 151/497/9 162/496/9 164/506/9 145/507/9
l 20 4
l 1 5
