# Blender v2.80 (sub 75) OBJ File: 'chem devices.blend'
# www.blender.org
mtllib astral_observer_body.mtl
o ASTRAL_OBSERVER_BODY_Cube.160
v 0.937500 0.000000 0.937500
v 0.937500 0.000000 0.062500
v 0.937500 0.125000 0.937500
v 0.937500 0.125000 0.062500
v 1.000000 0.125000 0.062500
v 1.000000 0.000000 0.062500
v 1.000000 0.000000 0.937500
v 1.000000 0.125000 0.937500
v 0.875000 1.000000 0.500000
v 0.875000 0.875000 0.500000
v 0.937500 0.125000 0.000000
v 0.937500 0.437500 0.937500
v 0.937500 0.437500 0.062500
v 0.937500 0.562500 0.937500
v 1.000000 0.562500 0.062500
v 1.000000 0.437500 0.062500
v 1.000000 0.437500 0.937500
v 1.000000 0.562500 0.937500
v 0.812500 1.000000 0.500000
v 0.812500 0.875000 0.500000
v 0.937500 0.437500 0.000000
v 0.812500 0.875000 0.812500
v 0.812500 0.875000 0.187500
v 0.875000 1.000000 0.187500
v 0.875000 0.875000 0.187500
v 0.875000 0.875000 0.812500
v 0.875000 1.000000 0.812500
v 0.812500 0.875000 0.125000
v 0.812500 1.000000 0.125000
v 0.937500 0.125000 0.937500
v 0.937500 0.125000 0.062500
v 0.937500 0.437500 0.937500
v 0.937500 0.125000 0.187500
v 0.804470 0.726788 0.437500
v 0.862500 0.750000 0.562500
v 0.862500 0.750000 0.862500
v 0.862500 0.750000 0.137500
v 0.937500 0.125000 0.500000
v 0.937500 0.125000 0.812500
v 0.937500 0.437500 0.812500
v 1.000000 0.562500 0.500000
v 1.000000 0.437500 0.500000
v 0.937500 0.562500 0.500000
v 0.937500 0.437500 0.500000
v 0.937500 0.437500 0.500000
v 1.000000 0.125000 0.500000
v 1.000000 0.000000 0.500000
v 0.937500 0.125000 0.500000
v 0.937500 0.437500 0.187500
v 0.062500 0.000000 0.062500
v 0.062500 0.125000 0.000000
v 0.062500 0.000000 0.000000
v 0.937500 0.000000 0.000000
v 0.500000 1.000000 0.125000
v 0.500000 0.875000 0.125000
v 0.062500 0.437500 0.062500
v 0.937500 0.562500 0.062500
v 0.062500 0.562500 0.000000
v 0.062500 0.437500 0.000000
v 0.937500 0.562500 0.000000
v 0.500000 1.000000 0.187500
v 0.500000 0.875000 0.187500
v 0.187500 0.875000 0.187500
v 0.625000 0.937500 0.375000
v 0.187500 1.000000 0.125000
v 0.187500 0.875000 0.125000
v 0.125000 0.875000 0.187500
v 0.125000 1.000000 0.187500
v 0.812500 1.000000 0.187500
v 0.937500 0.437500 0.062500
v 0.187500 0.125000 0.062500
v 0.187500 0.875000 0.187500
v 0.812500 0.875000 0.187500
v 0.062500 0.562500 0.062500
v 0.937500 0.562500 0.062500
v 0.500000 0.125000 0.062500
v 0.812500 0.125000 0.062500
v 0.812500 0.437500 0.062500
v 0.500000 0.562500 0.000000
v 0.500000 0.437500 0.000000
v 0.500000 0.562500 0.062500
v 0.500000 0.437500 0.062500
v 0.500000 0.437500 0.062500
v 0.500000 0.125000 0.000000
v 0.500000 0.000000 0.000000
v 0.500000 0.125000 0.062500
v 0.187500 0.437500 0.062500
v 0.062500 0.125000 0.062500
v 0.000000 0.125000 0.937500
v 0.000000 0.000000 0.937500
v 0.000000 0.000000 0.062500
v 0.000000 0.125000 0.062500
v 0.125000 1.000000 0.500000
v 0.125000 0.875000 0.500000
v 0.062500 0.562500 0.062500
v 0.000000 0.562500 0.937500
v 0.000000 0.437500 0.937500
v 0.000000 0.437500 0.062500
v 0.000000 0.562500 0.062500
v 0.187500 1.000000 0.500000
v 0.187500 0.875000 0.500000
v 0.375000 0.937500 0.375000
v 0.125000 1.000000 0.812500
v 0.125000 0.875000 0.812500
v 0.187500 1.000000 0.187500
v 0.187500 1.000000 0.812500
v 0.062500 0.125000 0.062500
v 0.062500 0.437500 0.062500
v 0.062500 0.125000 0.812500
v 0.120530 0.539288 0.562500
v 0.120530 0.539288 0.437500
v 0.137500 0.750000 0.562500
v 0.195530 0.726788 0.437500
v 0.062500 0.125000 0.500000
v 0.062500 0.125000 0.187500
v 0.062500 0.437500 0.187500
v 0.000000 0.562500 0.500000
v 0.000000 0.437500 0.500000
v 0.062500 0.562500 0.500000
v 0.062500 0.437500 0.500000
v 0.062500 0.437500 0.500000
v 0.000000 0.125000 0.500000
v 0.000000 0.000000 0.500000
v 0.062500 0.125000 0.500000
v 0.062500 0.437500 0.812500
v 0.062500 0.000000 0.937500
v 0.062500 0.125000 0.937500
v 0.937500 0.125000 1.000000
v 0.937500 0.000000 1.000000
v 0.062500 0.000000 1.000000
v 0.062500 0.125000 1.000000
v 0.500000 1.000000 0.875000
v 0.500000 0.875000 0.875000
v 0.062500 0.437500 0.937500
v 0.062500 0.562500 0.937500
v 0.937500 0.562500 1.000000
v 0.937500 0.437500 1.000000
v 0.062500 0.437500 1.000000
v 0.062500 0.562500 1.000000
v 0.500000 1.000000 0.812500
v 0.500000 0.875000 0.812500
v 0.187500 0.875000 0.812500
v 0.375000 0.937500 0.625000
v 0.625000 0.937500 0.625000
v 0.812500 1.000000 0.875000
v 0.812500 0.875000 0.875000
v 0.187500 0.875000 0.875000
v 0.187500 1.000000 0.875000
v 0.812500 1.000000 0.812500
v 0.062500 0.125000 0.937500
v 0.062500 0.437500 0.937500
v 0.812500 0.125000 0.937500
v 0.812500 0.875000 0.812500
v 0.187500 0.875000 0.812500
v 0.937500 0.562500 0.937500
v 0.062500 0.562500 0.937500
v 0.500000 0.125000 0.937500
v 0.187500 0.125000 0.937500
v 0.187500 0.437500 0.937500
v 0.500000 0.562500 1.000000
v 0.500000 0.437500 1.000000
v 0.500000 0.562500 0.937500
v 0.500000 0.437500 0.937500
v 0.500000 0.437500 0.937500
v 0.500000 0.125000 1.000000
v 0.500000 0.000000 1.000000
v 0.500000 0.125000 0.937500
v 0.812500 0.437500 0.937500
v 0.250000 0.875000 0.187500
v 0.187500 0.875000 0.250000
v 0.125000 0.875000 0.187500
v 0.187500 0.875000 0.125000
v 0.000000 0.000000 0.062500
v 0.062500 0.000000 0.000000
v 0.061231 0.000000 0.123731
v 0.123731 0.000000 0.061231
v 0.061231 0.562500 0.123731
v 0.000000 0.562500 0.062500
v 0.062500 0.562500 0.000000
v 0.123731 0.562500 0.061231
v 0.750000 0.875000 0.812500
v 0.812500 0.875000 0.750000
v 0.875000 0.875000 0.812500
v 0.812500 0.875000 0.875000
v 1.000000 0.000000 0.937500
v 0.937500 0.000000 1.000000
v 0.938769 0.000000 0.876269
v 0.876269 0.000000 0.938769
v 0.938769 0.562500 0.876269
v 1.000000 0.562500 0.937500
v 0.937500 0.562500 1.000000
v 0.876269 0.562500 0.938769
v 0.187500 0.875000 0.750000
v 0.250000 0.875000 0.812500
v 0.187500 0.875000 0.875000
v 0.125000 0.875000 0.812500
v 0.062500 0.000000 1.000000
v 0.000000 0.000000 0.937500
v 0.123731 0.000000 0.938769
v 0.061231 0.000000 0.876269
v 0.123731 0.562500 0.938769
v 0.062500 0.562500 1.000000
v 0.000000 0.562500 0.937500
v 0.061231 0.562500 0.876269
v 0.812500 0.875000 0.250000
v 0.750000 0.875000 0.187500
v 0.812500 0.875000 0.125000
v 0.875000 0.875000 0.187500
v 0.937500 0.000000 0.000000
v 1.000000 0.000000 0.062500
v 0.876269 0.000000 0.061231
v 0.938769 0.000000 0.123731
v 0.876269 0.562500 0.061231
v 0.937500 0.562500 0.000000
v 1.000000 0.562500 0.062500
v 0.938769 0.562500 0.123731
v 0.812500 0.875000 0.437500
v 0.812500 0.875000 0.562500
v 0.187500 0.875000 0.812500
v 0.187500 0.875000 0.187500
v 0.937500 0.562500 0.562500
v 0.937500 0.562500 0.437500
v 0.062500 0.562500 0.937500
v 0.062500 0.562500 0.062500
v 0.937500 0.562500 0.937500
v 0.937500 0.562500 0.062500
v 0.812500 0.875000 0.812500
v 0.812500 0.875000 0.187500
v 0.062500 0.562500 0.562500
v 0.062500 0.562500 0.437500
v 0.187500 0.875000 0.437500
v 0.187500 0.875000 0.562500
v 0.137500 0.750000 0.862500
v 0.137500 0.750000 0.137500
v 0.137500 0.750000 0.437500
v 0.195530 0.726788 0.562500
v 0.804470 0.726788 0.562500
v 0.862500 0.750000 0.437500
v 0.879470 0.539288 0.562500
v 0.879470 0.539288 0.437500
vt 0.437500 0.062500
vt 0.437500 0.187500
vt 0.000000 0.187500
vt 0.000000 0.062500
vt 0.000000 -0.000000
vt 0.000000 0.062500
vt 0.062500 0.062500
vt 0.437500 0.250000
vt -0.000000 0.250000
vt 0.437500 0.000000
vt 0.500000 0.062500
vt 0.437500 0.062500
vt 0.437500 0.250000
vt 0.437500 0.187500
vt 0.500000 0.187500
vt 1.000000 0.000000
vt 0.812500 0.187500
vt 1.000000 0.312500
vt 0.062500 0.062500
vt 0.062500 0.187500
vt 0.375000 0.187500
vt 0.375000 0.062500
vt 0.437500 0.062500
vt 0.437500 0.187500
vt 0.000000 0.187500
vt 0.000000 0.062500
vt 0.437500 0.000000
vt 0.000000 0.000000
vt 0.000000 0.062500
vt 0.437500 0.250000
vt 0.000000 0.250000
vt 0.437500 0.000000
vt 0.500000 0.062500
vt 0.437500 0.062500
vt 0.062500 -0.000000
vt 0.375000 -0.000000
vt 0.062500 0.062500
vt 0.062500 0.250000
vt 0.375000 0.250000
vt 0.062500 0.187500
vt 0.062500 -0.000000
vt 0.062500 0.250000
vt 0.375000 0.750000
vt 0.375000 0.750000
vt 0.375000 0.750000
vt 0.437500 0.250000
vt 0.437500 0.187500
vt 0.500000 0.187500
vt 0.437500 0.062500
vt 0.500000 0.062500
vt 0.000000 0.250000
vt 0.000000 0.187500
vt 0.812500 0.437500
vt 1.000000 0.625000
vt 0.562500 0.250000
vt 0.562500 0.562500
vt 0.500000 0.562500
vt 0.500000 0.250000
vt 0.000000 0.000000
vt 0.000000 0.187500
vt 0.375000 0.250000
vt 0.375000 0.562500
vt 0.062500 0.562500
vt 0.062500 0.250000
vt 0.000000 0.250000
vt 0.500000 0.250000
vt 0.500000 0.562500
vt 0.187500 0.562500
vt 0.187500 0.250000
vt 0.062500 0.250000
vt 0.062500 0.562500
vt -0.000000 0.562500
vt 0.000000 0.250000
vt 0.437500 0.062500
vt 0.437500 0.187500
vt 0.000000 0.187500
vt 0.000000 0.062500
vt 0.000000 -0.000000
vt 0.000000 0.062500
vt 0.062500 0.062500
vt 0.437500 0.250000
vt 0.437500 0.000000
vt 0.500000 0.062500
vt 0.437500 0.062500
vt 0.437500 0.250000
vt 0.437500 0.187500
vt 0.500000 0.187500
vt 1.000000 0.625000
vt 0.812500 0.437500
vt 1.000000 0.312500
vt 0.062500 0.062500
vt 0.062500 0.187500
vt 0.375000 0.187500
vt 0.375000 0.062500
vt 0.437500 0.062500
vt 0.437500 0.187500
vt 0.000000 0.187500
vt 0.000000 0.062500
vt 0.437500 0.000000
vt 0.000000 0.000000
vt 0.000000 0.062500
vt 0.437500 0.250000
vt 0.437500 0.000000
vt 0.500000 0.062500
vt 0.437500 0.062500
vt 0.375000 -0.000000
vt 0.062500 0.062500
vt 0.062500 0.250000
vt 0.375000 0.250000
vt 0.062500 0.187500
vt 0.062500 -0.000000
vt 0.375000 0.750000
vt 0.375000 0.750000
vt 0.375000 0.750000
vt 0.437500 0.250000
vt 0.437500 0.187500
vt 0.500000 0.187500
vt 0.437500 0.062500
vt 0.500000 0.062500
vt 0.000000 0.250000
vt 0.000000 0.187500
vt 0.562500 0.250000
vt 0.562500 0.562500
vt 0.500000 0.562500
vt 0.500000 0.250000
vt 0.000000 0.187500
vt 0.375000 0.250000
vt 0.375000 0.562500
vt 0.062500 0.562500
vt 0.062500 0.250000
vt 0.000000 0.250000
vt 0.500000 0.250000
vt 0.500000 0.562500
vt 0.187500 0.562500
vt 0.187500 0.250000
vt 0.062500 0.250000
vt 0.062500 0.562500
vt -0.000000 0.562500
vt 0.000000 0.250000
vt 0.437500 0.062500
vt 0.437500 0.187500
vt 0.000000 0.187500
vt 0.000000 0.062500
vt 0.000000 -0.000000
vt 0.000000 0.062500
vt 0.062500 0.062500
vt 0.437500 0.250000
vt 0.437500 0.000000
vt 0.500000 0.062500
vt 0.437500 0.062500
vt 0.437500 0.250000
vt 0.437500 0.187500
vt 0.500000 0.187500
vt 1.000000 0.000000
vt 0.812500 0.187500
vt 1.000000 0.312500
vt 0.062500 0.062500
vt 0.062500 0.187500
vt 0.375000 0.187500
vt 0.375000 0.062500
vt 0.437500 0.062500
vt 0.437500 0.187500
vt 0.000000 0.187500
vt 0.000000 0.062500
vt 0.437500 0.000000
vt 0.000000 0.000000
vt 0.000000 0.062500
vt 0.437500 0.250000
vt 0.437500 0.000000
vt 0.500000 0.062500
vt 0.437500 0.062500
vt 0.375000 -0.000000
vt 0.062500 0.062500
vt 0.062500 0.250000
vt 0.375000 0.250000
vt 0.062500 0.187500
vt 0.062500 -0.000000
vt 0.375000 0.750000
vt 0.375000 0.750000
vt 0.375000 0.750000
vt 0.437500 0.250000
vt 0.437500 0.187500
vt 0.500000 0.187500
vt 0.437500 0.062500
vt 0.500000 0.062500
vt 0.000000 0.250000
vt 0.000000 0.187500
vt 0.562500 0.250000
vt 0.562500 0.562500
vt 0.500000 0.562500
vt 0.500000 0.250000
vt 0.000000 0.187500
vt 0.375000 0.250000
vt 0.375000 0.562500
vt 0.062500 0.562500
vt 0.062500 0.250000
vt 0.000000 0.250000
vt 0.500000 0.250000
vt 0.500000 0.562500
vt 0.187500 0.562500
vt 0.187500 0.250000
vt 0.062500 0.250000
vt 0.062500 0.562500
vt -0.000000 0.562500
vt 0.000000 0.250000
vt 0.437500 0.062500
vt 0.437500 0.187500
vt 0.000000 0.187500
vt 0.000000 0.062500
vt 0.000000 -0.000000
vt 0.000000 0.062500
vt 0.062500 0.062500
vt 0.437500 0.250000
vt 0.437500 0.000000
vt 0.500000 0.062500
vt 0.437500 0.062500
vt 0.437500 0.250000
vt 0.437500 0.187500
vt 0.500000 0.187500
vt 1.000000 0.312500
vt 0.062500 0.062500
vt 0.062500 0.187500
vt 0.375000 0.187500
vt 0.375000 0.062500
vt 0.437500 0.062500
vt 0.437500 0.187500
vt 0.000000 0.187500
vt 0.000000 0.062500
vt 0.437500 0.000000
vt 0.000000 0.062500
vt 0.437500 0.250000
vt 0.437500 0.000000
vt 0.500000 0.062500
vt 0.437500 0.062500
vt 0.375000 -0.000000
vt 0.062500 0.062500
vt 0.375000 0.250000
vt 0.062500 0.187500
vt 0.375000 0.750000
vt 0.375000 0.750000
vt 0.375000 0.750000
vt 0.437500 0.250000
vt 0.437500 0.187500
vt 0.500000 0.187500
vt 0.437500 0.062500
vt 0.500000 0.062500
vt 0.000000 0.187500
vt 0.562500 0.250000
vt 0.562500 0.562500
vt 0.500000 0.562500
vt 0.500000 0.250000
vt 0.000000 0.187500
vt 0.375000 0.250000
vt 0.375000 0.562500
vt 0.062500 0.562500
vt 0.062500 0.250000
vt 0.500000 0.250000
vt 0.500000 0.562500
vt 0.187500 0.562500
vt 0.187500 0.250000
vt 0.062500 0.250000
vt 0.062500 0.562500
vt -0.000000 0.562500
vt 0.000000 0.250000
vt 0.562500 0.562500
vt 0.562500 0.312500
vt 0.812500 0.312500
vt 0.812500 0.562500
vt 0.812500 0.562500
vt 0.875000 0.562500
vt 0.875000 0.500000
vt 0.812500 0.500000
vt -0.000000 0.937500
vt 0.000000 0.875000
vt 0.312500 0.875000
vt 0.312500 0.937500
vt 0.875000 0.875000
vt 0.875000 0.937500
vt 0.875000 0.937500
vt 0.875000 0.875000
vt 0.312500 0.875000
vt 0.312500 0.937500
vt -0.000000 0.875000
vt 0.000000 0.937500
vt -0.000000 1.000000
vt 0.312500 1.000000
vt 0.875000 1.000000
vt -0.000000 0.937500
vt 0.000000 0.875000
vt 0.312500 0.875000
vt 0.312500 0.937500
vt 0.875000 0.875000
vt 0.875000 0.937500
vt 0.875000 0.937500
vt 0.875000 0.875000
vt 0.312500 0.875000
vt 0.312500 0.937500
vt -0.000000 0.875000
vt 0.000000 0.937500
vt -0.000000 1.000000
vt 0.312500 1.000000
vt 0.875000 1.000000
vt -0.000000 0.937500
vt 0.000000 0.875000
vt 0.312500 0.875000
vt 0.312500 0.937500
vt 0.875000 0.875000
vt 0.875000 0.937500
vt 0.875000 0.937500
vt 0.875000 0.875000
vt 0.312500 0.875000
vt 0.312500 0.937500
vt -0.000000 0.875000
vt 0.000000 0.937500
vt -0.000000 1.000000
vt 0.312500 1.000000
vt 0.875000 1.000000
vt -0.000000 0.937500
vt 0.000000 0.875000
vt 0.312500 0.875000
vt 0.312500 0.937500
vt 0.875000 0.875000
vt 0.875000 0.937500
vt 0.875000 0.937500
vt 0.875000 0.875000
vt 0.312500 0.875000
vt 0.312500 0.937500
vt -0.000000 0.875000
vt 0.000000 0.937500
vt -0.000000 1.000000
vt 0.312500 1.000000
vt 0.875000 1.000000
vt 0.062500 -0.000000
vt 0.062500 0.000000
vt 0.062500 -0.000000
vt 0.062500 -0.000000
vt 0.750000 0.375000
vt 0.687500 0.375000
vt 0.687500 0.343750
vt 0.750000 0.343750
vt 0.718750 0.531250
vt 0.656250 0.687500
vt 0.343750 0.687500
vt 0.281250 0.531250
vt 0.718750 0.531250
vt 0.656250 0.687500
vt 0.343750 0.687500
vt 0.281250 0.531250
vt 0.750000 0.437500
vt 0.750000 0.500000
vt 0.687500 0.500000
vt 0.687500 0.437500
vt 0.468750 0.625000
vt 0.468750 0.687500
vt 0.343750 0.687500
vt 0.318750 0.625000
vt 0.468750 0.437500
vt 0.468750 0.531250
vt 0.312500 0.531250
vt 0.281250 0.437500
vt 0.562500 0.437500
vt 0.562500 0.343750
vt 0.593750 0.343750
vt 0.593750 0.437500
vt 0.625000 0.531250
vt 0.468750 0.531250
vt 0.468750 0.437500
vt 0.656250 0.437500
vt 0.687500 0.312500
vt 0.750000 0.312500
vt 0.750000 0.343750
vt 0.687500 0.343750
vt 0.656250 0.343750
vt 0.656250 0.437500
vt 0.656250 0.687500
vt 0.531250 0.687500
vt 0.531250 0.625000
vt 0.681250 0.625000
vt 0.593750 0.343750
vt 0.593750 0.437500
vt 0.562500 0.437500
vt 0.562500 0.343750
vt 0.656250 0.687500
vt 0.531250 0.687500
vt 0.531250 0.625000
vt 0.681250 0.625000
vt 0.656250 0.343750
vt 0.656250 0.437500
vt 0.593750 0.437500
vt 0.593750 0.343750
vt 0.687500 0.312500
vt 0.750000 0.312500
vt 0.750000 0.343750
vt 0.687500 0.343750
vt 0.625000 0.531250
vt 0.468750 0.531250
vt 0.468750 0.437500
vt 0.656250 0.437500
vt 0.562500 0.437500
vt 0.562500 0.343750
vt 0.750000 0.437500
vt 0.750000 0.500000
vt 0.687500 0.500000
vt 0.687500 0.437500
vt 0.593750 0.343750
vt 0.593750 0.437500
vt 0.562500 0.437500
vt 0.562500 0.343750
vt 0.468750 0.437500
vt 0.468750 0.531250
vt 0.312500 0.531250
vt 0.281250 0.437500
vt 0.468750 0.625000
vt 0.468750 0.687500
vt 0.343750 0.687500
vt 0.318750 0.625000
vt 0.750000 0.375000
vt 0.687500 0.375000
vt 0.687500 0.343750
vt 0.750000 0.343750
vn 1.0000 0.0000 0.0000
vn 0.0000 -1.0000 0.0000
vn 0.0000 1.0000 0.0000
vn -0.3162 0.9487 0.0000
vn 0.7071 0.0000 -0.7071
vn 0.0000 0.0000 -1.0000
vn -0.0000 0.9487 0.3162
vn -0.7071 0.0000 -0.7071
vn -1.0000 0.0000 0.0000
vn 0.3162 0.9487 0.0000
vn -0.7071 0.0000 0.7071
vn 0.0000 0.0000 1.0000
vn 0.0000 0.9487 -0.3162
vn 0.7071 0.0000 0.7071
vn -0.6155 0.4924 -0.6155
vn 0.6155 0.4924 0.6155
vn -0.6155 0.4924 0.6155
vn 0.6155 0.4924 -0.6155
vn -0.3714 -0.9285 0.0000
vn -0.0000 0.3714 -0.9285
vn 0.0000 0.3714 0.9285
vn 0.9285 0.3714 0.0000
vn -0.9285 0.3714 0.0000
vn -0.3714 0.9285 0.0000
vn 0.3714 0.9285 0.0000
vn 0.3714 -0.9285 0.0000
usemtl SKYWRATH_ALTAR
s off
f 47/1/1 46/2/1 8/3/1 7/4/1
f 2/5/2 6/6/2 47/7/2
f 48/8/3 3/9/3 8/3/3 46/2/3
f 2/10/2 53/11/2 6/12/2
f 4/13/3 5/14/3 11/15/3
f 69/16/4 64/17/4 19/18/4
f 25/19/1 24/20/1 9/21/1 10/22/1
f 42/23/1 41/24/1 18/25/1 17/26/1
f 44/27/2 13/28/2 16/29/2 42/23/2
f 43/30/3 14/31/3 18/25/3 41/24/3
f 13/32/2 21/33/2 16/34/2
f 22/35/2 20/36/2 10/22/2 26/37/2
f 69/38/3 19/39/3 9/21/3 24/20/3
f 10/22/1 9/21/1 27/40/1 26/37/1
f 20/36/2 23/41/2 25/19/2 10/22/2
f 19/39/3 149/42/3 27/40/3 9/21/3
f 23/43/2 28/44/2 25/45/2
f 69/46/3 24/47/3 29/48/3
f 25/49/5 28/50/5 29/48/5 24/47/5
f 57/51/3 43/30/3 41/24/3 15/52/3
f 144/53/4 149/54/4 19/18/4
f 31/55/1 70/56/1 49/57/1 33/58/1
f 12/59/2 44/27/2 42/23/2 17/26/2
f 6/6/1 5/60/1 46/2/1 47/1/1
f 33/61/1 49/62/1 45/63/1 38/64/1
f 4/65/3 48/8/3 46/2/3 5/60/3
f 64/17/4 144/53/4 19/18/4
f 16/29/1 15/52/1 41/24/1 42/23/1
f 38/66/1 45/67/1 40/68/1 39/69/1
f 39/70/1 40/71/1 32/72/1 30/73/1
f 85/74/6 84/75/6 11/76/6 53/77/6
f 50/78/2 52/79/2 85/80/2
f 86/81/3 4/65/3 11/76/3 84/75/3
f 50/82/2 91/83/2 52/84/2
f 88/85/3 51/86/3 92/87/3
f 105/88/7 102/89/7 61/90/7
f 66/91/6 65/92/6 54/93/6 55/94/6
f 80/95/6 79/96/6 60/97/6 21/98/6
f 82/99/2 56/100/2 59/101/2 80/95/2
f 81/102/3 57/51/3 60/97/3 79/96/3
f 56/103/2 98/104/2 59/105/2
f 23/41/2 62/106/2 55/94/2 28/107/2
f 105/108/3 61/109/3 54/93/3 65/92/3
f 55/94/6 54/93/6 29/110/6 28/107/6
f 62/106/2 63/111/2 66/91/2 55/94/2
f 61/109/3 69/38/3 29/110/3 54/93/3
f 63/112/2 67/113/2 66/114/2
f 105/115/3 65/116/3 68/117/3
f 66/118/8 67/119/8 68/117/8 65/116/8
f 95/120/3 81/102/3 79/96/3 58/121/3
f 64/17/7 69/16/7 61/90/7
f 107/122/6 108/123/6 87/124/6 71/125/6
f 13/28/2 82/99/2 80/95/2 21/98/2
f 52/79/6 51/126/6 84/75/6 85/74/6
f 71/127/6 87/128/6 83/129/6 76/130/6
f 88/131/3 86/81/3 84/75/3 51/126/3
f 102/89/7 64/17/7 61/90/7
f 59/101/6 58/121/6 79/96/6 80/95/6
f 76/132/6 83/133/6 78/134/6 77/135/6
f 77/136/6 78/137/6 70/138/6 31/139/6
f 123/140/9 122/141/9 92/142/9 91/143/9
f 126/144/2 90/145/2 123/146/2
f 124/147/3 88/131/3 92/142/3 122/141/3
f 126/148/2 130/149/2 90/150/2
f 127/151/3 89/152/3 131/153/3
f 106/154/10 143/155/10 100/156/10
f 104/157/9 103/158/9 93/159/9 94/160/9
f 118/161/9 117/162/9 99/163/9 98/164/9
f 120/165/2 134/166/2 97/167/2 118/161/2
f 119/168/3 95/120/3 99/163/3 117/162/3
f 134/169/2 138/170/2 97/171/2
f 63/111/2 101/172/2 94/160/2 67/173/2
f 106/174/3 100/175/3 93/159/3 103/158/3
f 94/160/9 93/159/9 68/176/9 67/173/9
f 101/172/2 142/177/2 104/157/2 94/160/2
f 100/175/3 105/108/3 68/176/3 93/159/3
f 142/178/2 147/179/2 104/180/2
f 106/181/3 103/182/3 148/183/3
f 104/184/11 147/185/11 148/183/11 103/182/11
f 135/186/3 119/168/3 117/162/3 96/187/3
f 102/89/10 105/88/10 100/156/10
f 150/188/9 151/189/9 125/190/9 109/191/9
f 56/100/2 120/165/2 118/161/2 98/164/2
f 90/145/9 89/192/9 122/141/9 123/140/9
f 109/193/9 125/194/9 121/195/9 114/196/9
f 127/197/3 124/147/3 122/141/3 89/192/3
f 143/155/10 102/89/10 100/156/10
f 97/167/9 96/187/9 117/162/9 118/161/9
f 114/198/9 121/199/9 116/200/9 115/201/9
f 115/202/9 116/203/9 108/204/9 107/205/9
f 166/206/12 165/207/12 131/208/12 130/209/12
f 1/210/2 129/211/2 166/212/2
f 167/213/3 127/197/3 131/208/3 165/207/3
f 1/214/2 7/215/2 129/216/2
f 3/217/3 128/218/3 8/219/3
f 149/54/13 144/53/13 140/220/13
f 146/221/12 145/222/12 132/223/12 133/224/12
f 161/225/12 160/226/12 139/227/12 138/228/12
f 163/229/2 12/59/2 137/230/2 161/225/2
f 162/231/3 135/186/3 139/227/3 160/226/3
f 12/232/2 17/233/2 137/234/2
f 142/177/2 141/235/2 133/224/2 147/236/2
f 149/42/3 140/237/3 132/223/3 145/222/3
f 133/224/12 132/223/12 148/238/12 147/236/12
f 141/235/2 22/35/2 146/221/2 133/224/2
f 140/237/3 106/174/3 148/238/3 132/223/3
f 22/239/2 26/240/2 146/241/2
f 149/242/3 145/243/3 27/244/3
f 146/245/14 26/246/14 27/244/14 145/243/14
f 14/31/3 162/231/3 160/226/3 136/247/3
f 143/155/13 106/154/13 140/220/13
f 30/248/12 32/249/12 168/250/12 152/251/12
f 134/166/2 163/229/2 161/225/2 138/228/2
f 129/211/12 128/252/12 165/207/12 166/206/12
f 152/253/12 168/254/12 164/255/12 157/256/12
f 3/9/3 167/213/3 165/207/3 128/252/3
f 144/53/13 143/155/13 140/220/13
f 137/230/12 136/247/12 160/226/12 161/225/12
f 157/257/12 164/258/12 159/259/12 158/260/12
f 158/261/12 159/262/12 151/263/12 150/264/12
f 143/265/3 144/266/3 64/267/3 102/268/3
f 2/269/2 1/270/2 126/271/2 50/272/2
f 172/273/5 169/274/5 180/275/5 179/276/5
f 179/276/5 180/275/5 176/277/5 174/278/5
f 173/279/11 175/280/11 177/281/11 178/282/11
f 178/282/11 177/281/11 170/283/11 171/284/11
f 171/285/15 172/273/15 179/276/15 178/286/15
f 178/286/8 179/276/8 174/278/8 173/287/8
f 184/288/11 181/289/11 192/290/11 191/291/11
f 191/291/11 192/290/11 188/292/11 186/293/11
f 185/294/5 187/295/5 189/296/5 190/297/5
f 190/297/5 189/296/5 182/298/5 183/299/5
f 183/300/16 184/288/16 191/291/16 190/301/16
f 190/301/14 191/291/14 186/293/14 185/302/14
f 196/303/8 193/304/8 204/305/8 203/306/8
f 203/306/8 204/305/8 200/307/8 198/308/8
f 197/309/14 199/310/14 201/311/14 202/312/14
f 202/312/14 201/311/14 194/313/14 195/314/14
f 195/315/17 196/303/17 203/306/17 202/316/17
f 202/316/11 203/306/11 198/308/11 197/317/11
f 208/318/14 205/319/14 216/320/14 215/321/14
f 215/321/14 216/320/14 212/322/14 210/323/14
f 209/324/8 211/325/8 213/326/8 214/327/8
f 214/327/8 213/326/8 206/328/8 207/329/8
f 207/330/18 208/318/18 215/321/18 214/331/18
f 214/331/5 215/321/5 210/323/5 209/332/5
f 53/77/2 2/5/2 85/80/2
f 50/333/2 126/144/2 123/146/2
f 91/143/2 50/78/2 123/146/2
f 126/334/2 1/210/2 166/212/2
f 130/209/2 126/144/2 166/212/2
f 7/4/2 1/210/2 47/7/2
f 2/335/2 50/78/2 85/80/2
f 1/336/2 2/5/2 47/7/2
usemtl GALE_PRESSURIZER
f 112/337/19 235/338/19 113/339/19 236/340/19
f 74/341/20 72/342/20 73/343/20 75/344/20
f 155/345/21 153/346/21 154/347/21 156/348/21
f 238/349/22 217/350/22 218/351/22 35/352/22
f 235/353/23 231/354/23 220/355/23 234/356/23
f 230/357/23 235/358/23 234/359/23 224/360/23
f 35/361/6 221/362/6 239/363/6 237/364/6
f 37/365/22 238/366/22 222/367/22 226/368/22
f 221/369/24 222/370/24 240/371/24 239/372/24
f 240/373/22 34/374/22 237/364/22 239/363/22
f 228/375/22 217/376/22 238/377/22 37/378/22
f 229/379/6 112/380/6 236/381/6 110/382/6
f 219/383/23 232/384/23 112/385/23 233/386/23
f 110/387/23 236/388/23 113/389/23 111/390/23
f 230/391/25 229/392/25 110/393/25 111/394/25
f 233/395/23 112/396/23 229/397/23 223/398/23
f 235/399/12 230/400/12 111/390/12 113/389/12
f 112/401/23 232/402/23 231/403/23 235/404/23
f 222/405/12 238/406/12 34/407/12 240/408/12
f 221/409/22 35/410/22 36/411/22 225/412/22
f 35/413/22 218/414/22 227/415/22 36/416/22
f 238/417/26 35/418/26 237/419/26 34/420/26
