# Blender v2.80 (sub 75) OBJ File: 'chem devices.blend'
# www.blender.org
mtllib astral_observer_inventory.mtl
o ASTRAL_OBSERVER_TELESCOPE_Cube.059
v 1.885819 2.136525 0.676777
v 1.366137 1.921266 0.411612
v 1.399962 1.839606 0.500000
v 1.953469 1.973205 0.500000
v 1.885819 2.136525 0.676777
v 1.332312 2.002926 0.500000
v 1.366137 1.921266 0.588388
v 2.059047 2.208278 0.632582
v 2.008309 2.330769 0.500000
v 2.059047 2.208278 0.367417
v 2.109784 2.085788 0.500000
v 1.933655 2.347681 0.455806
v 1.984392 2.225191 0.323223
v 1.991397 2.371599 0.455806
v 2.042134 2.249109 0.323223
v 2.068954 2.021040 0.455806
v 2.018217 2.143530 0.323223
v 2.075959 2.167448 0.323223
v 2.126696 2.044958 0.455806
v 1.953469 1.973205 0.500000
v 1.979438 2.318810 0.500000
v 2.030175 2.196320 0.632582
v 2.018217 2.143530 0.676777
v 2.068954 2.021040 0.544194
v 2.075959 2.167448 0.676777
v 2.126696 2.044958 0.544194
v 1.984392 2.225191 0.676777
v 1.933655 2.347681 0.544194
v 2.042134 2.249109 0.676777
v 1.991397 2.371599 0.544194
v 2.030175 2.196320 0.367417
v 2.080913 2.073829 0.500000
v 1.481622 1.969101 0.367417
v 1.532359 1.846611 0.500000
v 1.430885 2.091591 0.500000
v 1.481622 1.969101 0.632582
v 1.828077 2.112607 0.632582
v 1.777340 2.235098 0.500000
v 1.878814 1.990117 0.500000
v 1.828077 2.112607 0.367417
v 1.818170 2.299845 0.455806
v 1.868907 2.177355 0.323223
v 1.875912 2.323763 0.455806
v 1.926649 2.201273 0.323223
v 1.953469 1.973205 0.455806
v 1.902732 2.095695 0.323223
v 1.960474 2.119613 0.323223
v 2.011211 1.997123 0.455806
v 1.902732 2.095695 0.676777
v 1.953469 1.973205 0.544194
v 1.960474 2.119613 0.676777
v 2.011211 1.997123 0.544194
v 1.868907 2.177355 0.676777
v 1.818170 2.299845 0.544194
v 1.926649 2.201273 0.676777
v 1.875912 2.323763 0.544194
v 1.913240 2.315307 0.477903
v 1.913240 2.315307 0.522097
v 1.963977 2.192817 0.654680
v 1.980889 2.151987 0.654680
v 2.031626 2.029497 0.522097
v 2.031626 2.029497 0.477903
v 1.980889 2.151987 0.345320
v 1.963977 2.192817 0.345320
v 1.356230 2.108504 0.455806
v 1.406967 1.986014 0.323223
v 1.413972 2.132421 0.455806
v 1.464710 2.009931 0.323223
v 1.491529 1.781863 0.455806
v 1.440792 1.904353 0.323223
v 1.498534 1.928271 0.323223
v 1.549271 1.805781 0.455806
v 1.440792 1.904353 0.676777
v 1.491529 1.781863 0.544194
v 1.498534 1.928271 0.676777
v 1.549271 1.805781 0.544194
v 1.406967 1.986014 0.676777
v 1.356230 2.108504 0.544194
v 1.464710 2.009931 0.676777
v 1.413972 2.132421 0.544194
v 1.423880 1.945184 0.367417
v 1.474617 1.822693 0.500000
v 0.788712 1.682089 0.455806
v 0.805625 1.641258 0.500000
v 0.788712 1.682089 0.544194
v 0.771800 1.722919 0.500000
v 1.423880 1.945184 0.632582
v 1.373142 2.067674 0.500000
v 0.895741 1.750339 0.389515
v 0.946478 1.627849 0.477903
v 0.912653 1.709509 0.389515
v 0.861916 1.831999 0.522097
v 0.961940 1.753842 0.588388
v 0.928115 1.835502 0.500000
v 0.995764 1.672181 0.500000
v 0.961940 1.753842 0.411612
v 1.004221 1.651766 0.522097
v 0.919659 1.855917 0.522097
v 0.970396 1.733427 0.610485
v 0.953483 1.774257 0.610485
v 0.919659 1.855917 0.477903
v 0.953483 1.774257 0.389515
v 0.861916 1.831999 0.477903
v 1.004221 1.651766 0.477903
v 0.970396 1.733427 0.389515
v 0.895741 1.750339 0.610485
v 0.912653 1.709509 0.610485
v 0.946478 1.627849 0.522097
v 0.910170 1.636727 0.500000
v 0.842521 1.800048 0.500000
v 0.876345 1.718387 0.411612
v 0.854911 1.685591 0.389515
v 0.888736 1.603931 0.477903
v 0.837999 1.726421 0.389515
v 0.804174 1.808082 0.522097
v 0.888736 1.603931 0.522097
v 0.854911 1.685591 0.610485
v 0.837999 1.726421 0.610485
v 0.804174 1.808082 0.477903
v 0.797168 1.661674 0.389515
v 0.830993 1.580013 0.477903
v 0.780256 1.702504 0.389515
v 0.746431 1.784164 0.522097
v 0.830993 1.580013 0.522097
v 0.797168 1.661674 0.610485
v 0.780256 1.702504 0.610485
v 0.746431 1.784164 0.477903
v 0.876345 1.718387 0.588388
v 0.788712 1.682089 0.411612
v 0.822537 1.600428 0.500000
v 0.754888 1.763749 0.500000
v 0.788712 1.682089 0.588388
v 0.846455 1.706006 0.500000
v -0.217532 0.844968 0.531250
v -0.514743 1.562500 0.531250
v -0.217532 0.844968 0.468750
v -0.514743 1.562500 0.468750
v -0.265367 0.797133 0.468750
v -0.582393 1.562500 0.468750
v -0.582393 1.562500 0.531250
v -0.265367 2.327867 0.468750
v 0.500000 2.644893 0.468750
v -0.265367 2.327867 0.531250
v 0.500000 2.644893 0.531250
v 1.265367 0.797133 0.468750
v 0.500000 0.547757 0.468750
v 1.217532 0.844968 0.468750
v 1.217532 0.844968 0.531250
v -0.217532 2.280032 0.531250
v -0.217532 2.280032 0.468750
v 1.265367 0.797133 0.531250
v 1.582393 1.562500 0.531250
v 1.582393 1.562500 0.468750
v 1.514743 1.562500 0.468750
v 1.514743 1.562500 0.531250
v 0.500000 2.577243 0.531250
v 1.217532 2.280032 0.531250
v 0.500000 2.577243 0.468750
v 1.217532 2.280032 0.468750
v -0.265367 0.797133 0.531250
v 1.265368 2.327868 0.468750
v 0.500000 0.480107 0.531250
v 1.265368 2.327868 0.531250
v 0.500000 0.480107 0.468750
v 0.500000 0.547757 0.531250
vt 0.187500 0.531250
vt 0.187500 0.593750
vt 0.406250 0.593750
vt 0.406250 0.531250
vt 1.000000 0.750000
vt 1.000000 0.781250
vt 0.968750 0.781250
vt 0.937500 0.656250
vt 0.937500 0.750000
vt 0.968750 0.750000
vt 0.968750 0.656250
vt 1.000000 0.750000
vt 1.000000 0.781250
vt 0.968750 0.781250
vt 0.937500 0.750000
vt 0.937500 0.656250
vt 0.968750 0.656250
vt 0.968750 0.750000
vt 0.968750 0.781250
vt 0.968750 0.812500
vt 0.937500 0.812500
vt 0.937500 0.781250
vt 0.406250 0.531250
vt 0.187500 0.531250
vt 0.937500 0.750000
vt 0.937500 0.656250
vt 0.968750 0.656250
vt 0.968750 0.750000
vt 0.968750 0.437500
vt 0.968750 0.531250
vt 1.000000 0.531250
vt 1.000000 0.437500
vt 0.968750 0.562500
vt 1.000000 0.562500
vt 1.000000 0.593750
vt 0.968750 0.406250
vt 0.937500 0.406250
vt 0.937500 0.375000
vt 0.968750 0.375000
vt 0.937500 0.656250
vt 0.937500 0.750000
vt 0.968750 0.750000
vt 0.968750 0.656250
vt 0.937500 0.593750
vt 0.968750 0.593750
vt 0.968750 0.562500
vt 0.937500 0.562500
vt 0.968750 0.812500
vt 0.937500 0.781250
vt 0.937500 0.812500
vt 0.937500 0.562500
vt 0.968750 0.593750
vt 0.937500 0.593750
vt 1.000000 0.750000
vt 1.000000 0.656250
vt 1.000000 0.750000
vt 1.000000 0.656250
vt 1.000000 0.750000
vt 0.968750 0.750000
vt 0.968750 0.656250
vt 1.000000 0.656250
vt 1.000000 0.593750
vt 0.968750 0.562500
vt 1.000000 0.562500
vt 0.718750 0.562500
vt 0.718750 0.468750
vt 0.812500 0.468750
vt 0.812500 0.562500
vt 0.968750 0.531250
vt 1.000000 0.531250
vt 1.000000 0.437500
vt 1.000000 0.531250
vt 0.968750 0.531250
vt 0.968750 0.437500
vt 1.000000 0.531250
vt 0.968750 0.531250
vt 0.187500 0.593750
vt 0.406250 0.593750
vt 0.000000 0.593750
vt 0.000000 0.500000
vt 0.187500 0.500000
vt 0.187500 0.593750
vt 0.000000 0.500000
vt 0.187500 0.500000
vt 0.000000 0.593750
vt 0.187500 0.593750
vt 0.937500 0.656250
vt 0.937500 0.750000
vt 0.968750 0.750000
vt 0.968750 0.656250
vt 0.937500 0.750000
vt 0.937500 0.656250
vt 0.968750 0.656250
vt 0.968750 0.750000
vt 0.968750 0.781250
vt 0.968750 0.812500
vt 0.937500 0.812500
vt 0.937500 0.781250
vt 0.937500 0.750000
vt 0.937500 0.656250
vt 0.968750 0.656250
vt 0.968750 0.750000
vt 0.937500 0.656250
vt 0.937500 0.750000
vt 0.968750 0.750000
vt 0.968750 0.656250
vt 0.937500 0.593750
vt 0.968750 0.593750
vt 0.968750 0.562500
vt 0.937500 0.562500
vt 0.968750 0.812500
vt 0.968750 0.781250
vt 0.937500 0.781250
vt 0.937500 0.812500
vt 0.937500 0.562500
vt 0.968750 0.562500
vt 0.968750 0.593750
vt 0.937500 0.593750
vt 0.937500 0.281250
vt 0.968750 0.281250
vt 0.937500 0.250000
vt 0.968750 0.250000
vt 0.968750 0.281250
vt 0.937500 0.281250
vt 0.937500 0.375000
vt 0.968750 0.375000
vt 0.937500 0.406250
vt 0.968750 0.406250
vt 0.968750 0.375000
vt 0.937500 0.375000
vt 0.937500 0.281250
vt 0.968750 0.281250
vt 0.968750 0.250000
vt 0.937500 0.250000
vt 0.937500 0.281250
vt 0.968750 0.281250
vt 0.937500 0.375000
vt 0.968750 0.375000
vt 1.000000 0.281250
vt 1.000000 0.375000
vt 1.000000 0.250000
vt 1.000000 0.375000
vt 1.000000 0.281250
vt 1.000000 0.375000
vt 1.000000 0.406250
vt 1.000000 0.281250
vt 1.000000 0.281250
vt 1.000000 0.250000
vt 1.000000 0.375000
vt 1.000000 0.406250
vt 0.937500 0.656250
vt 0.937500 0.750000
vt 0.968750 0.750000
vt 0.968750 0.656250
vt 0.937500 0.750000
vt 0.937500 0.656250
vt 0.968750 0.656250
vt 0.968750 0.750000
vt 0.937500 0.781250
vt 0.968750 0.781250
vt 0.968750 0.812500
vt 0.937500 0.812500
vt 0.937500 0.750000
vt 0.937500 0.656250
vt 0.968750 0.656250
vt 0.968750 0.750000
vt 0.937500 0.656250
vt 0.937500 0.750000
vt 0.968750 0.750000
vt 0.968750 0.656250
vt 0.937500 0.593750
vt 0.968750 0.593750
vt 0.968750 0.562500
vt 0.937500 0.562500
vt 0.968750 0.781250
vt 0.937500 0.781250
vt 0.937500 0.812500
vt 0.968750 0.812500
vt 0.937500 0.562500
vt 0.968750 0.562500
vt 0.968750 0.593750
vt 0.937500 0.593750
vt 1.000000 0.750000
vt 1.000000 0.656250
vt 1.000000 0.656250
vt 1.000000 0.750000
vt 1.000000 0.593750
vt 0.968750 0.562500
vt 1.000000 0.562500
vt 1.000000 0.781250
vt 1.000000 0.781250
vt 1.000000 0.562500
vt 0.968750 0.562500
vt 1.000000 0.593750
vt 0.968750 0.750000
vt 0.968750 0.656250
vt 1.000000 0.656250
vt 1.000000 0.750000
vt 0.968750 0.750000
vt 0.968750 0.656250
vt 1.000000 0.656250
vt 1.000000 0.750000
vt 1.000000 0.781250
vt 0.968750 0.781250
vt 1.000000 0.562500
vt 0.968750 0.562500
vt 1.000000 0.593750
vt 0.968750 0.781250
vt 1.000000 0.781250
vt 0.968750 0.656250
vt 0.968750 0.750000
vt 1.000000 0.593750
vt 0.968750 0.562500
vt 1.000000 0.562500
vt 0.968750 0.656250
vt 0.968750 0.750000
vt 0.968750 0.656250
vt 0.968750 0.750000
vt 1.000000 0.750000
vt 1.000000 0.656250
vt 0.968750 0.750000
vt 1.000000 0.656250
vt 1.000000 0.750000
vt 1.000000 0.593750
vt 1.000000 0.562500
vt 0.968750 0.562500
vt 1.000000 0.812500
vt 1.000000 0.781250
vt 0.968750 0.781250
vt 0.968750 0.656250
vt 1.000000 0.656250
vt 1.000000 0.750000
vt 1.000000 0.781250
vt 1.000000 0.593750
vt 0.968750 0.562500
vt 1.000000 0.562500
vt 1.000000 0.750000
vt 1.000000 0.656250
vt 0.531250 0.156250
vt 0.531250 0.093750
vt 0.500000 0.078125
vt 0.500000 0.171875
vt 0.531250 0.156250
vt 0.500000 0.171875
vt 0.531250 0.093750
vt 0.500000 0.078125
vt 0.968750 0.343750
vt 0.968750 0.281250
vt 0.937500 0.281250
vt 0.937500 0.343750
vt 0.968750 0.250000
vt 0.937500 0.250000
vt 0.937500 0.281250
vt 0.968750 0.281250
vt 0.937500 0.343750
vt 0.937500 0.281250
vt 0.968750 0.343750
vt 0.937500 0.343750
vt 0.937500 0.375000
vt 0.937500 0.343750
vt 0.937500 0.375000
vt 0.937500 0.281250
vt 0.968750 0.250000
vt 0.937500 0.250000
vt 0.937500 0.656250
vt 0.937500 0.718750
vt 0.968750 0.718750
vt 0.968750 0.656250
vt 0.937500 0.718750
vt 0.937500 0.656250
vt 0.968750 0.656250
vt 0.968750 0.718750
vt 0.937500 0.656250
vt 0.937500 0.718750
vt 0.968750 0.718750
vt 0.968750 0.656250
vt 0.937500 0.718750
vt 0.937500 0.656250
vt 0.968750 0.656250
vt 0.968750 0.718750
vt 1.000000 0.656250
vt 0.968750 0.656250
vt 0.968750 0.718750
vt 1.000000 0.718750
vt 1.000000 0.718750
vt 0.968750 0.718750
vt 0.968750 0.656250
vt 0.968750 0.625000
vt 1.000000 0.625000
vt 1.000000 0.593750
vt 0.968750 0.625000
vt 0.937500 0.625000
vt 0.937500 0.593750
vt 0.968750 0.593750
vt 0.968750 0.750000
vt 0.968750 0.781250
vt 0.937500 0.781250
vt 0.937500 0.750000
vt 1.000000 0.656250
vt 0.968750 0.656250
vt 0.968750 0.718750
vt 0.937500 0.593750
vt 0.937500 0.625000
vt 0.968750 0.625000
vt 0.968750 0.593750
vt 0.968750 0.718750
vt 0.968750 0.656250
vt 0.968750 0.750000
vt 1.000000 0.781250
vt 1.000000 0.750000
vt 0.968750 0.625000
vt 1.000000 0.625000
vt 1.000000 0.593750
vt 1.000000 0.781250
vt 1.000000 0.750000
vt 0.968750 0.750000
vt 0.937500 0.781250
vt 0.968750 0.781250
vt 0.937500 0.750000
vt 0.968750 0.250000
vt 0.968750 0.281250
vt 1.000000 0.250000
vt 0.937500 0.593750
vt 0.937500 0.625000
vt 0.968750 0.625000
vt 0.968750 0.593750
vt 0.937500 0.718750
vt 0.937500 0.656250
vt 0.968750 0.656250
vt 0.968750 0.718750
vt 0.937500 0.656250
vt 0.937500 0.718750
vt 0.968750 0.718750
vt 0.968750 0.656250
vt 0.968750 0.750000
vt 0.968750 0.781250
vt 0.937500 0.781250
vt 0.937500 0.750000
vt 0.937500 0.625000
vt 0.937500 0.593750
vt 0.968750 0.593750
vt 0.968750 0.625000
vt 0.968750 0.781250
vt 0.968750 0.750000
vt 0.937500 0.750000
vt 0.937500 0.781250
vt 0.937500 0.718750
vt 0.937500 0.656250
vt 0.968750 0.656250
vt 0.968750 0.718750
vt 0.937500 0.656250
vt 0.937500 0.718750
vt 0.968750 0.718750
vt 0.968750 0.656250
vt 1.000000 0.656250
vt 1.000000 0.718750
vt 1.000000 0.718750
vt 1.000000 0.593750
vt 1.000000 0.625000
vt 1.000000 0.656250
vt 0.968750 0.750000
vt 1.000000 0.750000
vt 1.000000 0.781250
vt 0.968750 0.625000
vt 1.000000 0.593750
vt 1.000000 0.625000
vt 1.000000 0.781250
vt 0.968750 0.750000
vt 1.000000 0.750000
vt 0.968750 0.343750
vt 1.000000 0.343750
vt 1.000000 0.281250
vt 0.968750 0.375000
vt 0.968750 0.343750
vt 1.000000 0.343750
vt 0.968750 0.375000
vt 0.968750 0.343750
vt 0.968750 0.281250
vt 1.000000 0.281250
vt 0.968750 0.281250
vt 0.968750 0.343750
vt 0.968750 0.250000
vt 1.000000 0.250000
vt 0.968750 0.281250
vt 1.000000 0.515625
vt 1.000000 0.484375
vt 0.968750 0.468750
vt 0.968750 0.531250
vt 1.000000 0.515625
vt 0.968750 0.531250
vt 1.000000 0.484375
vt 0.968750 0.468750
vt 0.281250 0.406250
vt 0.250000 0.437500
vt 0.250000 0.406250
vt 0.281250 0.406250
vt 0.250000 0.437500
vt 0.843750 0.988359
vt 0.843750 0.574141
vt 0.812500 0.574141
vt 0.812500 0.988359
vt 0.843750 0.587085
vt 0.812500 0.587085
vt 0.812500 0.975415
vt 0.843750 0.975415
vt 0.199141 0.500000
vt 0.613359 0.500000
vt 0.613359 0.531250
vt 0.199141 0.531250
vt 0.875000 0.587085
vt 0.875000 0.975415
vt 0.843750 0.988359
vt 0.843750 0.574141
vt 0.875000 0.975415
vt 0.875000 0.587085
vt 0.843750 0.587085
vt 0.812500 0.587085
vt 0.812500 0.975415
vt 0.843750 0.975415
vt 0.875000 0.975415
vt 0.875000 0.587085
vt 0.843750 0.574141
vt 0.843750 0.988359
vt 0.875000 0.587085
vt 0.875000 0.975415
vt 0.843750 0.988359
vt 0.843750 0.574141
vt 0.812500 0.574141
vt 0.812500 0.988359
vt 0.843750 0.574141
vt 0.843750 0.988359
vt 0.812500 0.988359
vt 0.812500 0.574141
vt 0.875000 0.975415
vt 0.875000 0.587085
vt 0.843750 0.574141
vt 0.843750 0.988359
vt 0.600415 0.468750
vt 0.212085 0.468750
vt 0.199141 0.500000
vt 0.613359 0.500000
vt 0.875000 0.587085
vt 0.875000 0.975415
vt 0.843750 0.975415
vt 0.812500 0.975415
vt 0.812500 0.587085
vt 0.843750 0.587085
vt 0.875000 0.587085
vt 0.875000 0.975415
vt 0.843750 0.988359
vt 0.843750 0.574141
vt 0.875000 0.975415
vt 0.875000 0.587085
vt 0.843750 0.574141
vt 0.843750 0.988359
vt 0.843750 0.975415
vt 0.812500 0.975415
vt 0.812500 0.587085
vt 0.843750 0.587085
vt 0.812500 0.988359
vt 0.812500 0.574141
vt 0.781250 0.574141
vt 0.781250 0.988359
vt 0.750000 0.988359
vt 0.750000 0.574141
vt 0.212085 0.468750
vt 0.600415 0.468750
vt 0.781250 0.975415
vt 0.750000 0.975415
vt 0.750000 0.587085
vt 0.781250 0.587085
vt 0.812500 0.975415
vt 0.812500 0.587085
vt 0.781250 0.574141
vt 0.781250 0.988359
vt 0.812500 0.975415
vt 0.781250 0.975415
vt 0.750000 0.975415
vt 0.750000 0.587085
vt 0.781250 0.587085
vt 0.812500 0.975415
vt 0.781250 0.988359
vt 0.781250 0.574141
vt 0.812500 0.975415
vt 0.812500 0.587085
vt 0.781250 0.574141
vt 0.781250 0.988359
vt 0.750000 0.988359
vt 0.750000 0.574141
vt 0.600415 0.500000
vt 0.600415 0.531250
vt 0.212085 0.531250
vt 0.212085 0.500000
vt 0.212085 0.468750
vt 0.600415 0.468750
vt 0.613359 0.500000
vt 0.199141 0.500000
vt 0.600415 0.468750
vt 0.212085 0.468750
vt 0.199141 0.500000
vt 0.613359 0.500000
vt 0.600415 0.500000
vt 0.600415 0.531250
vt 0.212085 0.531250
vt 0.212085 0.500000
vt 0.613359 0.531250
vt 0.199141 0.531250
vn -0.2706 0.6533 -0.7071
vn 0.9239 0.3827 0.0000
vn -0.2706 0.6533 0.7071
vn -0.3827 0.9239 0.0000
vn 0.2706 -0.6533 -0.7071
vn 0.2209 0.9753 0.0000
vn 0.2706 -0.6533 0.7071
vn -0.0000 0.0000 -1.0000
vn 0.3827 -0.9239 0.0000
vn 0.0000 0.0000 1.0000
vn 0.4619 0.7325 0.5000
vn 0.5334 0.2209 0.8165
vn 0.8446 -0.1913 0.5000
vn 0.8459 -0.5334 0.0000
vn 0.8446 -0.1913 -0.5000
vn 0.5334 0.2209 -0.8165
vn 0.4619 0.7325 -0.5000
vn -0.8446 0.1913 -0.5000
vn -0.5334 -0.2209 -0.8165
vn -0.4619 -0.7325 -0.5000
vn -0.2209 -0.9753 0.0000
vn -0.4619 -0.7325 0.5000
vn -0.5334 -0.2209 0.8165
vn -0.8446 0.1913 0.5000
vn -0.8459 0.5334 0.0000
vn -0.9239 -0.3827 -0.0000
vn -0.1711 -0.7555 -0.6325
vn -0.6552 0.4132 -0.6325
vn -0.6552 0.4132 0.6325
vn -0.1711 -0.7555 0.6325
vn 0.8365 -0.2040 0.5086
vn 0.5211 0.2158 -0.8258
vn 0.8365 -0.2040 -0.5086
vn 0.4472 0.7357 -0.5086
vn 0.2051 0.9788 0.0000
vn 0.8371 -0.5471 0.0000
vn 0.4472 0.7357 0.5086
vn 0.5211 0.2158 0.8258
vn -0.5462 -0.2262 0.8065
vn -0.8528 0.1781 0.4909
vn -0.2375 -0.9714 0.0000
vn -0.8548 0.5189 0.0000
vn -0.8528 0.1781 -0.4909
vn -0.4770 -0.7290 -0.4909
vn -0.5462 -0.2262 -0.8065
vn -0.4770 -0.7290 0.4909
vn 0.3827 0.9239 0.0000
vn -0.3827 -0.9239 0.0000
vn 0.9239 -0.3827 0.0000
vn -0.9239 0.3827 0.0000
usemtl DELUGE_PURIFIER
s off
f 96/1/1 94/2/1 6/3/1 2/4/1
f 19/5/2 11/6/2 26/7/2
f 13/8/1 12/9/1 14/10/1 15/11/1
f 30/12/2 9/13/2 14/14/2
f 28/15/3 27/16/3 29/17/3 30/18/3
f 30/19/4 14/20/4 12/21/4 28/22/4
f 7/23/3 6/3/3 94/2/3 93/24/3
f 16/25/5 17/26/5 18/27/5 19/28/5
f 8/29/1 11/30/1 32/31/1 22/32/1
f 25/33/2 8/34/2 29/35/2
f 57/36/6 43/37/6 56/38/6 58/39/6
f 23/40/7 24/41/7 26/42/7 25/43/7
f 13/44/8 15/45/8 18/46/8 17/47/8
f 19/48/9 26/7/9 24/49/9 16/50/9
f 23/51/10 25/33/10 29/52/10 27/53/10
f 9/54/2 30/18/2 29/17/2 8/55/2
f 11/56/2 8/55/2 25/43/2 26/42/2
f 11/56/2 19/28/2 18/27/2 10/57/2
f 14/58/2 9/59/2 10/60/2 15/61/2
f 18/62/2 15/63/2 10/64/2
f 22/65/2 32/66/2 31/67/2 21/68/2
f 9/69/5 8/29/5 22/32/5 21/70/5
f 10/71/7 9/72/7 21/73/7 31/74/7
f 11/75/3 10/71/3 31/74/3 32/76/3
f 93/24/7 95/77/7 3/78/7 7/23/7
f 95/77/5 96/1/5 2/4/5 3/78/5
f 34/79/5 33/80/5 40/81/5 39/82/5
f 36/83/7 34/79/7 39/82/7 37/84/7
f 33/80/1 35/85/1 38/86/1 40/81/1
f 37/84/3 38/86/3 35/85/3 36/83/3
f 42/87/1 41/88/1 43/89/1 44/90/1
f 54/91/3 53/92/3 55/93/3 56/94/3
f 56/95/4 43/96/4 41/97/4 54/98/4
f 45/99/5 46/100/5 47/101/5 48/102/5
f 49/103/7 50/104/7 52/105/7 51/106/7
f 42/107/8 44/108/8 47/109/8 46/110/8
f 48/111/9 52/112/9 50/113/9 45/114/9
f 49/115/10 51/116/10 55/117/10 53/118/10
f 58/39/11 56/38/11 55/119/11 59/120/11
f 59/120/12 55/119/12 51/121/12 60/122/12
f 60/123/13 51/124/13 52/125/13 61/126/13
f 61/126/14 52/125/14 48/127/14 62/128/14
f 62/129/15 48/130/15 47/131/15 63/132/15
f 63/133/16 47/134/16 44/135/16 64/136/16
f 64/136/17 44/135/17 43/137/17 57/138/17
f 13/139/18 64/136/18 57/138/18 12/140/18
f 17/141/19 63/133/19 64/136/19 13/139/19
f 16/142/20 62/129/20 63/132/20 17/143/20
f 24/144/21 61/126/21 62/128/21 16/145/21
f 23/146/22 60/123/22 61/126/22 24/144/22
f 27/147/23 59/120/23 60/122/23 23/148/23
f 28/149/24 58/39/24 59/120/24 27/147/24
f 12/150/25 57/36/25 58/39/25 28/149/25
f 66/151/1 65/152/1 67/153/1 68/154/1
f 78/155/3 77/156/3 79/157/3 80/158/3
f 80/159/4 67/160/4 65/161/4 78/162/4
f 69/163/5 70/164/5 71/165/5 72/166/5
f 73/167/7 74/168/7 76/169/7 75/170/7
f 66/171/8 68/172/8 71/173/8 70/174/8
f 72/175/9 76/176/9 74/177/9 69/178/9
f 73/179/10 75/180/10 79/181/10 77/182/10
f 35/183/2 33/184/2 68/154/2 67/153/2
f 35/183/2 80/158/2 79/157/2 36/185/2
f 34/186/2 36/185/2 75/170/2 76/169/2
f 34/186/2 72/166/2 71/165/2 33/184/2
f 68/187/2 33/188/2 71/189/2
f 67/160/2 80/190/2 35/183/2
f 72/175/2 34/186/2 76/191/2
f 75/192/2 36/193/2 79/194/2
f 65/195/26 66/196/26 81/197/26 88/198/26
f 74/199/26 73/200/26 87/201/26 82/202/26
f 74/203/26 82/202/26 69/204/26
f 70/205/26 81/206/26 66/207/26
f 65/208/26 88/198/26 78/209/26
f 70/210/26 69/211/26 82/202/26 81/197/26
f 77/212/26 87/213/26 73/214/26
f 77/215/26 78/216/26 88/198/26 87/201/26
f 40/217/18 38/218/18 41/219/18 42/220/18
f 39/221/20 40/217/20 46/222/20 45/223/20
f 42/224/19 46/225/19 40/226/19
f 45/227/21 50/228/21 39/229/21
f 38/218/24 37/230/24 53/231/24 54/232/24
f 54/232/25 41/233/25 38/218/25
f 53/234/23 37/235/23 49/236/23
f 37/230/22 39/221/22 50/237/22 49/238/22
f 3/239/27 2/240/27 81/241/27 82/242/27
f 2/240/28 6/243/28 88/244/28 81/241/28
f 6/243/29 7/245/29 87/246/29 88/244/29
f 7/245/30 3/239/30 82/242/30 87/246/30
f 109/247/31 128/248/31 117/249/31 116/250/31
f 111/251/32 112/252/32 114/253/32
f 111/254/33 109/247/33 113/255/33 112/256/33
f 110/257/34 111/254/34 114/253/34 119/258/34
f 110/257/35 119/259/35 115/260/35
f 109/247/36 116/250/36 113/261/36
f 128/248/37 110/257/37 115/260/37 118/262/37
f 128/263/38 118/262/38 117/264/38
f 105/265/5 104/266/5 90/267/5 91/268/5
f 97/269/7 99/270/7 107/271/7 108/272/7
f 100/273/3 98/274/3 92/275/3 106/276/3
f 101/277/1 102/278/1 89/279/1 103/280/1
f 96/281/2 102/282/2 101/283/2 94/284/2
f 95/285/2 104/286/2 105/287/2 96/281/2
f 102/288/2 96/289/2 105/290/2
f 89/291/8 102/292/8 105/293/8 91/294/8
f 98/295/4 101/296/4 103/297/4 92/298/4
f 93/299/2 99/300/2 97/301/2 95/285/2
f 99/302/10 100/303/10 106/304/10 107/305/10
f 93/299/2 94/284/2 98/306/2 100/307/2
f 101/308/2 98/309/2 94/310/2
f 99/311/2 93/312/2 100/313/2
f 104/314/2 95/315/2 97/316/2
f 90/317/9 104/318/9 97/316/9 108/319/9
f 107/320/39 106/321/39 128/322/39
f 117/323/10 118/324/10 126/325/10 125/326/10
f 119/327/1 114/328/1 122/329/1 127/330/1
f 112/331/5 113/332/5 121/333/5 120/334/5
f 115/335/4 119/336/4 127/337/4 123/338/4
f 114/339/8 112/340/8 120/341/8 122/342/8
f 113/343/9 116/344/9 124/345/9 121/346/9
f 116/347/7 117/348/7 125/349/7 124/350/7
f 118/351/3 115/352/3 123/353/3 126/354/3
f 129/355/26 131/356/26 127/330/26 122/329/26
f 130/357/26 129/355/26 120/334/26 121/333/26
f 122/342/26 120/358/26 129/359/26
f 132/360/26 130/357/26 124/350/26 125/349/26
f 132/360/26 126/354/26 123/353/26 131/356/26
f 127/361/26 131/362/26 123/363/26
f 125/364/26 126/365/26 132/366/26
f 121/367/26 124/368/26 130/369/26
f 106/321/40 92/370/40 110/371/40 128/372/40
f 90/373/41 108/374/41 109/375/41
f 92/370/42 103/376/42 110/371/42
f 103/377/43 89/378/43 111/379/43 110/371/43
f 91/380/44 90/381/44 109/375/44 111/379/44
f 89/378/45 91/382/45 111/383/45
f 108/374/46 107/384/46 128/372/46 109/375/46
f 84/385/26 83/386/26 129/387/26 130/388/26
f 83/386/26 86/389/26 131/390/26 129/387/26
f 85/391/26 84/385/26 130/388/26 132/392/26
f 86/389/26 85/391/26 132/392/26 131/390/26
f 85/393/27 86/394/27 133/395/27
f 86/394/30 83/396/30 133/395/30
f 83/396/29 84/397/29 133/395/29
f 84/397/28 85/393/28 133/395/28
f 144/398/47 163/399/47 161/400/47 142/401/47
f 136/402/47 134/403/47 165/404/47 146/405/47
f 143/406/4 144/407/4 142/408/4 141/409/4
f 159/410/8 158/411/8 142/412/8 161/413/8
f 156/414/10 157/415/10 163/399/10 144/398/10
f 159/416/48 157/417/48 156/418/48 158/419/48
f 165/420/10 134/421/10 160/422/10 162/423/10
f 136/424/8 146/425/8 164/426/8 138/427/8
f 162/423/48 160/422/48 138/428/48 164/429/48
f 152/430/49 151/431/49 145/432/49 153/433/49
f 147/434/8 154/435/8 153/436/8 145/437/8
f 158/438/8 150/439/8 141/440/8 142/441/8
f 155/442/10 148/443/10 151/431/10 152/430/10
f 150/444/49 149/445/49 135/446/49 137/447/49
f 135/448/10 149/449/10 143/450/10 140/451/10
f 150/452/8 137/453/8 139/454/8 141/455/8
f 147/456/50 148/457/50 155/458/50 154/459/50
f 140/451/50 143/450/50 141/460/50 139/461/50
f 160/462/26 140/463/26 139/464/26 138/465/26
f 149/466/10 156/467/10 144/407/10 143/406/10
f 154/468/26 155/469/26 157/470/26 159/471/26
f 137/472/8 136/473/8 138/474/8 139/475/8
f 134/403/10 135/476/10 140/463/10 160/462/10
f 137/477/2 135/478/2 134/479/2 136/480/2
f 157/417/10 155/481/10 152/482/10 163/483/10
f 154/484/8 159/485/8 161/486/8 153/487/8
f 163/483/2 152/482/2 153/488/2 161/489/2
f 146/490/4 165/491/4 148/492/4 147/493/4
f 148/494/10 165/495/10 162/496/10 151/497/10
f 146/498/8 147/499/8 145/500/8 164/501/8
f 158/502/9 156/503/9 149/504/9 150/505/9
f 151/497/9 162/496/9 164/506/9 145/507/9
l 20 4
l 1 5
o ASTRAL_OBSERVER_BODY_Cube.160
v 0.937500 0.000000 0.937500
v 0.937500 0.000000 0.062500
v 0.937500 0.125000 0.937500
v 0.937500 0.125000 0.062500
v 1.000000 0.125000 0.062500
v 1.000000 0.000000 0.062500
v 1.000000 0.000000 0.937500
v 1.000000 0.125000 0.937500
v 0.875000 1.000000 0.500000
v 0.875000 0.875000 0.500000
v 0.937500 0.125000 0.000000
v 0.937500 0.437500 0.937500
v 0.937500 0.437500 0.062500
v 0.937500 0.562500 0.937500
v 1.000000 0.562500 0.062500
v 1.000000 0.437500 0.062500
v 1.000000 0.437500 0.937500
v 1.000000 0.562500 0.937500
v 0.812500 1.000000 0.500000
v 0.812500 0.875000 0.500000
v 0.937500 0.437500 0.000000
v 0.812500 0.875000 0.812500
v 0.812500 0.875000 0.187500
v 0.875000 1.000000 0.187500
v 0.875000 0.875000 0.187500
v 0.875000 0.875000 0.812500
v 0.875000 1.000000 0.812500
v 0.812500 0.875000 0.125000
v 0.812500 1.000000 0.125000
v 0.937500 0.125000 0.937500
v 0.937500 0.125000 0.062500
v 0.937500 0.437500 0.937500
v 0.937500 0.125000 0.187500
v 0.804470 0.726788 0.437500
v 0.862500 0.750000 0.562500
v 0.862500 0.750000 0.862500
v 0.862500 0.750000 0.137500
v 0.937500 0.125000 0.500000
v 0.937500 0.125000 0.812500
v 0.937500 0.437500 0.812500
v 1.000000 0.562500 0.500000
v 1.000000 0.437500 0.500000
v 0.937500 0.562500 0.500000
v 0.937500 0.437500 0.500000
v 0.937500 0.437500 0.500000
v 1.000000 0.125000 0.500000
v 1.000000 0.000000 0.500000
v 0.937500 0.125000 0.500000
v 0.937500 0.437500 0.187500
v 0.062500 0.000000 0.062500
v 0.062500 0.125000 0.000000
v 0.062500 0.000000 0.000000
v 0.937500 0.000000 0.000000
v 0.500000 1.000000 0.125000
v 0.500000 0.875000 0.125000
v 0.062500 0.437500 0.062500
v 0.937500 0.562500 0.062500
v 0.062500 0.562500 0.000000
v 0.062500 0.437500 0.000000
v 0.937500 0.562500 0.000000
v 0.500000 1.000000 0.187500
v 0.500000 0.875000 0.187500
v 0.187500 0.875000 0.187500
v 0.625000 0.937500 0.375000
v 0.187500 1.000000 0.125000
v 0.187500 0.875000 0.125000
v 0.125000 0.875000 0.187500
v 0.125000 1.000000 0.187500
v 0.812500 1.000000 0.187500
v 0.937500 0.437500 0.062500
v 0.187500 0.125000 0.062500
v 0.187500 0.875000 0.187500
v 0.812500 0.875000 0.187500
v 0.062500 0.562500 0.062500
v 0.937500 0.562500 0.062500
v 0.500000 0.125000 0.062500
v 0.812500 0.125000 0.062500
v 0.812500 0.437500 0.062500
v 0.500000 0.562500 0.000000
v 0.500000 0.437500 0.000000
v 0.500000 0.562500 0.062500
v 0.500000 0.437500 0.062500
v 0.500000 0.437500 0.062500
v 0.500000 0.125000 0.000000
v 0.500000 0.000000 0.000000
v 0.500000 0.125000 0.062500
v 0.187500 0.437500 0.062500
v 0.062500 0.125000 0.062500
v 0.000000 0.125000 0.937500
v 0.000000 0.000000 0.937500
v 0.000000 0.000000 0.062500
v 0.000000 0.125000 0.062500
v 0.125000 1.000000 0.500000
v 0.125000 0.875000 0.500000
v 0.062500 0.562500 0.062500
v 0.000000 0.562500 0.937500
v 0.000000 0.437500 0.937500
v 0.000000 0.437500 0.062500
v 0.000000 0.562500 0.062500
v 0.187500 1.000000 0.500000
v 0.187500 0.875000 0.500000
v 0.375000 0.937500 0.375000
v 0.125000 1.000000 0.812500
v 0.125000 0.875000 0.812500
v 0.187500 1.000000 0.187500
v 0.187500 1.000000 0.812500
v 0.062500 0.125000 0.062500
v 0.062500 0.437500 0.062500
v 0.062500 0.125000 0.812500
v 0.120530 0.539288 0.562500
v 0.120530 0.539288 0.437500
v 0.137500 0.750000 0.562500
v 0.195530 0.726788 0.437500
v 0.062500 0.125000 0.500000
v 0.062500 0.125000 0.187500
v 0.062500 0.437500 0.187500
v 0.000000 0.562500 0.500000
v 0.000000 0.437500 0.500000
v 0.062500 0.562500 0.500000
v 0.062500 0.437500 0.500000
v 0.062500 0.437500 0.500000
v 0.000000 0.125000 0.500000
v 0.000000 0.000000 0.500000
v 0.062500 0.125000 0.500000
v 0.062500 0.437500 0.812500
v 0.062500 0.000000 0.937500
v 0.062500 0.125000 0.937500
v 0.937500 0.125000 1.000000
v 0.937500 0.000000 1.000000
v 0.062500 0.000000 1.000000
v 0.062500 0.125000 1.000000
v 0.500000 1.000000 0.875000
v 0.500000 0.875000 0.875000
v 0.062500 0.437500 0.937500
v 0.062500 0.562500 0.937500
v 0.937500 0.562500 1.000000
v 0.937500 0.437500 1.000000
v 0.062500 0.437500 1.000000
v 0.062500 0.562500 1.000000
v 0.500000 1.000000 0.812500
v 0.500000 0.875000 0.812500
v 0.187500 0.875000 0.812500
v 0.375000 0.937500 0.625000
v 0.625000 0.937500 0.625000
v 0.812500 1.000000 0.875000
v 0.812500 0.875000 0.875000
v 0.187500 0.875000 0.875000
v 0.187500 1.000000 0.875000
v 0.812500 1.000000 0.812500
v 0.062500 0.125000 0.937500
v 0.062500 0.437500 0.937500
v 0.812500 0.125000 0.937500
v 0.812500 0.875000 0.812500
v 0.187500 0.875000 0.812500
v 0.937500 0.562500 0.937500
v 0.062500 0.562500 0.937500
v 0.500000 0.125000 0.937500
v 0.187500 0.125000 0.937500
v 0.187500 0.437500 0.937500
v 0.500000 0.562500 1.000000
v 0.500000 0.437500 1.000000
v 0.500000 0.562500 0.937500
v 0.500000 0.437500 0.937500
v 0.500000 0.437500 0.937500
v 0.500000 0.125000 1.000000
v 0.500000 0.000000 1.000000
v 0.500000 0.125000 0.937500
v 0.812500 0.437500 0.937500
v 0.250000 0.875000 0.187500
v 0.187500 0.875000 0.250000
v 0.125000 0.875000 0.187500
v 0.187500 0.875000 0.125000
v 0.000000 0.000000 0.062500
v 0.062500 0.000000 0.000000
v 0.061231 0.000000 0.123731
v 0.123731 0.000000 0.061231
v 0.061231 0.562500 0.123731
v 0.000000 0.562500 0.062500
v 0.062500 0.562500 0.000000
v 0.123731 0.562500 0.061231
v 0.750000 0.875000 0.812500
v 0.812500 0.875000 0.750000
v 0.875000 0.875000 0.812500
v 0.812500 0.875000 0.875000
v 1.000000 0.000000 0.937500
v 0.937500 0.000000 1.000000
v 0.938769 0.000000 0.876269
v 0.876269 0.000000 0.938769
v 0.938769 0.562500 0.876269
v 1.000000 0.562500 0.937500
v 0.937500 0.562500 1.000000
v 0.876269 0.562500 0.938769
v 0.187500 0.875000 0.750000
v 0.250000 0.875000 0.812500
v 0.187500 0.875000 0.875000
v 0.125000 0.875000 0.812500
v 0.062500 0.000000 1.000000
v 0.000000 0.000000 0.937500
v 0.123731 0.000000 0.938769
v 0.061231 0.000000 0.876269
v 0.123731 0.562500 0.938769
v 0.062500 0.562500 1.000000
v 0.000000 0.562500 0.937500
v 0.061231 0.562500 0.876269
v 0.812500 0.875000 0.250000
v 0.750000 0.875000 0.187500
v 0.812500 0.875000 0.125000
v 0.875000 0.875000 0.187500
v 0.937500 0.000000 0.000000
v 1.000000 0.000000 0.062500
v 0.876269 0.000000 0.061231
v 0.938769 0.000000 0.123731
v 0.876269 0.562500 0.061231
v 0.937500 0.562500 0.000000
v 1.000000 0.562500 0.062500
v 0.938769 0.562500 0.123731
v 0.812500 0.875000 0.437500
v 0.812500 0.875000 0.562500
v 0.187500 0.875000 0.812500
v 0.187500 0.875000 0.187500
v 0.937500 0.562500 0.562500
v 0.937500 0.562500 0.437500
v 0.062500 0.562500 0.937500
v 0.062500 0.562500 0.062500
v 0.937500 0.562500 0.937500
v 0.937500 0.562500 0.062500
v 0.812500 0.875000 0.812500
v 0.812500 0.875000 0.187500
v 0.062500 0.562500 0.562500
v 0.062500 0.562500 0.437500
v 0.187500 0.875000 0.437500
v 0.187500 0.875000 0.562500
v 0.137500 0.750000 0.862500
v 0.137500 0.750000 0.137500
v 0.137500 0.750000 0.437500
v 0.195530 0.726788 0.562500
v 0.804470 0.726788 0.562500
v 0.862500 0.750000 0.437500
v 0.879470 0.539288 0.562500
v 0.879470 0.539288 0.437500
vt 0.437500 0.062500
vt 0.437500 0.187500
vt 0.000000 0.187500
vt 0.000000 0.062500
vt 0.000000 -0.000000
vt 0.000000 0.062500
vt 0.062500 0.062500
vt 0.437500 0.250000
vt -0.000000 0.250000
vt 0.437500 0.000000
vt 0.500000 0.062500
vt 0.437500 0.062500
vt 0.437500 0.250000
vt 0.437500 0.187500
vt 0.500000 0.187500
vt 1.000000 0.000000
vt 0.812500 0.187500
vt 1.000000 0.312500
vt 0.062500 0.062500
vt 0.062500 0.187500
vt 0.375000 0.187500
vt 0.375000 0.062500
vt 0.437500 0.062500
vt 0.437500 0.187500
vt 0.000000 0.187500
vt 0.000000 0.062500
vt 0.437500 0.000000
vt 0.000000 0.000000
vt 0.000000 0.062500
vt 0.437500 0.250000
vt 0.000000 0.250000
vt 0.437500 0.000000
vt 0.500000 0.062500
vt 0.437500 0.062500
vt 0.062500 -0.000000
vt 0.375000 -0.000000
vt 0.062500 0.062500
vt 0.062500 0.250000
vt 0.375000 0.250000
vt 0.062500 0.187500
vt 0.062500 -0.000000
vt 0.062500 0.250000
vt 0.375000 0.750000
vt 0.375000 0.750000
vt 0.375000 0.750000
vt 0.437500 0.250000
vt 0.437500 0.187500
vt 0.500000 0.187500
vt 0.437500 0.062500
vt 0.500000 0.062500
vt 0.000000 0.250000
vt 0.000000 0.187500
vt 0.812500 0.437500
vt 1.000000 0.625000
vt 0.562500 0.250000
vt 0.562500 0.562500
vt 0.500000 0.562500
vt 0.500000 0.250000
vt 0.000000 0.000000
vt 0.000000 0.187500
vt 0.375000 0.250000
vt 0.375000 0.562500
vt 0.062500 0.562500
vt 0.062500 0.250000
vt 0.000000 0.250000
vt 0.500000 0.250000
vt 0.500000 0.562500
vt 0.187500 0.562500
vt 0.187500 0.250000
vt 0.062500 0.250000
vt 0.062500 0.562500
vt -0.000000 0.562500
vt 0.000000 0.250000
vt 0.437500 0.062500
vt 0.437500 0.187500
vt 0.000000 0.187500
vt 0.000000 0.062500
vt 0.000000 -0.000000
vt 0.000000 0.062500
vt 0.062500 0.062500
vt 0.437500 0.250000
vt 0.437500 0.000000
vt 0.500000 0.062500
vt 0.437500 0.062500
vt 0.437500 0.250000
vt 0.437500 0.187500
vt 0.500000 0.187500
vt 1.000000 0.625000
vt 0.812500 0.437500
vt 1.000000 0.312500
vt 0.062500 0.062500
vt 0.062500 0.187500
vt 0.375000 0.187500
vt 0.375000 0.062500
vt 0.437500 0.062500
vt 0.437500 0.187500
vt 0.000000 0.187500
vt 0.000000 0.062500
vt 0.437500 0.000000
vt 0.000000 0.000000
vt 0.000000 0.062500
vt 0.437500 0.250000
vt 0.437500 0.000000
vt 0.500000 0.062500
vt 0.437500 0.062500
vt 0.375000 -0.000000
vt 0.062500 0.062500
vt 0.062500 0.250000
vt 0.375000 0.250000
vt 0.062500 0.187500
vt 0.062500 -0.000000
vt 0.375000 0.750000
vt 0.375000 0.750000
vt 0.375000 0.750000
vt 0.437500 0.250000
vt 0.437500 0.187500
vt 0.500000 0.187500
vt 0.437500 0.062500
vt 0.500000 0.062500
vt 0.000000 0.250000
vt 0.000000 0.187500
vt 0.562500 0.250000
vt 0.562500 0.562500
vt 0.500000 0.562500
vt 0.500000 0.250000
vt 0.000000 0.187500
vt 0.375000 0.250000
vt 0.375000 0.562500
vt 0.062500 0.562500
vt 0.062500 0.250000
vt 0.000000 0.250000
vt 0.500000 0.250000
vt 0.500000 0.562500
vt 0.187500 0.562500
vt 0.187500 0.250000
vt 0.062500 0.250000
vt 0.062500 0.562500
vt -0.000000 0.562500
vt 0.000000 0.250000
vt 0.437500 0.062500
vt 0.437500 0.187500
vt 0.000000 0.187500
vt 0.000000 0.062500
vt 0.000000 -0.000000
vt 0.000000 0.062500
vt 0.062500 0.062500
vt 0.437500 0.250000
vt 0.437500 0.000000
vt 0.500000 0.062500
vt 0.437500 0.062500
vt 0.437500 0.250000
vt 0.437500 0.187500
vt 0.500000 0.187500
vt 1.000000 0.000000
vt 0.812500 0.187500
vt 1.000000 0.312500
vt 0.062500 0.062500
vt 0.062500 0.187500
vt 0.375000 0.187500
vt 0.375000 0.062500
vt 0.437500 0.062500
vt 0.437500 0.187500
vt 0.000000 0.187500
vt 0.000000 0.062500
vt 0.437500 0.000000
vt 0.000000 0.000000
vt 0.000000 0.062500
vt 0.437500 0.250000
vt 0.437500 0.000000
vt 0.500000 0.062500
vt 0.437500 0.062500
vt 0.375000 -0.000000
vt 0.062500 0.062500
vt 0.062500 0.250000
vt 0.375000 0.250000
vt 0.062500 0.187500
vt 0.062500 -0.000000
vt 0.375000 0.750000
vt 0.375000 0.750000
vt 0.375000 0.750000
vt 0.437500 0.250000
vt 0.437500 0.187500
vt 0.500000 0.187500
vt 0.437500 0.062500
vt 0.500000 0.062500
vt 0.000000 0.250000
vt 0.000000 0.187500
vt 0.562500 0.250000
vt 0.562500 0.562500
vt 0.500000 0.562500
vt 0.500000 0.250000
vt 0.000000 0.187500
vt 0.375000 0.250000
vt 0.375000 0.562500
vt 0.062500 0.562500
vt 0.062500 0.250000
vt 0.000000 0.250000
vt 0.500000 0.250000
vt 0.500000 0.562500
vt 0.187500 0.562500
vt 0.187500 0.250000
vt 0.062500 0.250000
vt 0.062500 0.562500
vt -0.000000 0.562500
vt 0.000000 0.250000
vt 0.437500 0.062500
vt 0.437500 0.187500
vt 0.000000 0.187500
vt 0.000000 0.062500
vt 0.000000 -0.000000
vt 0.000000 0.062500
vt 0.062500 0.062500
vt 0.437500 0.250000
vt 0.437500 0.000000
vt 0.500000 0.062500
vt 0.437500 0.062500
vt 0.437500 0.250000
vt 0.437500 0.187500
vt 0.500000 0.187500
vt 1.000000 0.312500
vt 0.062500 0.062500
vt 0.062500 0.187500
vt 0.375000 0.187500
vt 0.375000 0.062500
vt 0.437500 0.062500
vt 0.437500 0.187500
vt 0.000000 0.187500
vt 0.000000 0.062500
vt 0.437500 0.000000
vt 0.000000 0.062500
vt 0.437500 0.250000
vt 0.437500 0.000000
vt 0.500000 0.062500
vt 0.437500 0.062500
vt 0.375000 -0.000000
vt 0.062500 0.062500
vt 0.375000 0.250000
vt 0.062500 0.187500
vt 0.375000 0.750000
vt 0.375000 0.750000
vt 0.375000 0.750000
vt 0.437500 0.250000
vt 0.437500 0.187500
vt 0.500000 0.187500
vt 0.437500 0.062500
vt 0.500000 0.062500
vt 0.000000 0.187500
vt 0.562500 0.250000
vt 0.562500 0.562500
vt 0.500000 0.562500
vt 0.500000 0.250000
vt 0.000000 0.187500
vt 0.375000 0.250000
vt 0.375000 0.562500
vt 0.062500 0.562500
vt 0.062500 0.250000
vt 0.500000 0.250000
vt 0.500000 0.562500
vt 0.187500 0.562500
vt 0.187500 0.250000
vt 0.062500 0.250000
vt 0.062500 0.562500
vt -0.000000 0.562500
vt 0.000000 0.250000
vt 0.562500 0.562500
vt 0.562500 0.312500
vt 0.812500 0.312500
vt 0.812500 0.562500
vt 0.812500 0.562500
vt 0.875000 0.562500
vt 0.875000 0.500000
vt 0.812500 0.500000
vt -0.000000 0.937500
vt 0.000000 0.875000
vt 0.312500 0.875000
vt 0.312500 0.937500
vt 0.875000 0.875000
vt 0.875000 0.937500
vt 0.875000 0.937500
vt 0.875000 0.875000
vt 0.312500 0.875000
vt 0.312500 0.937500
vt -0.000000 0.875000
vt 0.000000 0.937500
vt -0.000000 1.000000
vt 0.312500 1.000000
vt 0.875000 1.000000
vt -0.000000 0.937500
vt 0.000000 0.875000
vt 0.312500 0.875000
vt 0.312500 0.937500
vt 0.875000 0.875000
vt 0.875000 0.937500
vt 0.875000 0.937500
vt 0.875000 0.875000
vt 0.312500 0.875000
vt 0.312500 0.937500
vt -0.000000 0.875000
vt 0.000000 0.937500
vt -0.000000 1.000000
vt 0.312500 1.000000
vt 0.875000 1.000000
vt -0.000000 0.937500
vt 0.000000 0.875000
vt 0.312500 0.875000
vt 0.312500 0.937500
vt 0.875000 0.875000
vt 0.875000 0.937500
vt 0.875000 0.937500
vt 0.875000 0.875000
vt 0.312500 0.875000
vt 0.312500 0.937500
vt -0.000000 0.875000
vt 0.000000 0.937500
vt -0.000000 1.000000
vt 0.312500 1.000000
vt 0.875000 1.000000
vt -0.000000 0.937500
vt 0.000000 0.875000
vt 0.312500 0.875000
vt 0.312500 0.937500
vt 0.875000 0.875000
vt 0.875000 0.937500
vt 0.875000 0.937500
vt 0.875000 0.875000
vt 0.312500 0.875000
vt 0.312500 0.937500
vt -0.000000 0.875000
vt 0.000000 0.937500
vt -0.000000 1.000000
vt 0.312500 1.000000
vt 0.875000 1.000000
vt 0.062500 -0.000000
vt 0.062500 0.000000
vt 0.062500 -0.000000
vt 0.062500 -0.000000
vt 0.750000 0.375000
vt 0.687500 0.375000
vt 0.687500 0.343750
vt 0.750000 0.343750
vt 0.718750 0.531250
vt 0.656250 0.687500
vt 0.343750 0.687500
vt 0.281250 0.531250
vt 0.718750 0.531250
vt 0.656250 0.687500
vt 0.343750 0.687500
vt 0.281250 0.531250
vt 0.750000 0.437500
vt 0.750000 0.500000
vt 0.687500 0.500000
vt 0.687500 0.437500
vt 0.468750 0.625000
vt 0.468750 0.687500
vt 0.343750 0.687500
vt 0.318750 0.625000
vt 0.468750 0.437500
vt 0.468750 0.531250
vt 0.312500 0.531250
vt 0.281250 0.437500
vt 0.562500 0.437500
vt 0.562500 0.343750
vt 0.593750 0.343750
vt 0.593750 0.437500
vt 0.625000 0.531250
vt 0.468750 0.531250
vt 0.468750 0.437500
vt 0.656250 0.437500
vt 0.687500 0.312500
vt 0.750000 0.312500
vt 0.750000 0.343750
vt 0.687500 0.343750
vt 0.656250 0.343750
vt 0.656250 0.437500
vt 0.656250 0.687500
vt 0.531250 0.687500
vt 0.531250 0.625000
vt 0.681250 0.625000
vt 0.593750 0.343750
vt 0.593750 0.437500
vt 0.562500 0.437500
vt 0.562500 0.343750
vt 0.656250 0.687500
vt 0.531250 0.687500
vt 0.531250 0.625000
vt 0.681250 0.625000
vt 0.656250 0.343750
vt 0.656250 0.437500
vt 0.593750 0.437500
vt 0.593750 0.343750
vt 0.687500 0.312500
vt 0.750000 0.312500
vt 0.750000 0.343750
vt 0.687500 0.343750
vt 0.625000 0.531250
vt 0.468750 0.531250
vt 0.468750 0.437500
vt 0.656250 0.437500
vt 0.562500 0.437500
vt 0.562500 0.343750
vt 0.750000 0.437500
vt 0.750000 0.500000
vt 0.687500 0.500000
vt 0.687500 0.437500
vt 0.593750 0.343750
vt 0.593750 0.437500
vt 0.562500 0.437500
vt 0.562500 0.343750
vt 0.468750 0.437500
vt 0.468750 0.531250
vt 0.312500 0.531250
vt 0.281250 0.437500
vt 0.468750 0.625000
vt 0.468750 0.687500
vt 0.343750 0.687500
vt 0.318750 0.625000
vt 0.750000 0.375000
vt 0.687500 0.375000
vt 0.687500 0.343750
vt 0.750000 0.343750
vn 1.0000 0.0000 0.0000
vn 0.0000 -1.0000 0.0000
vn 0.0000 1.0000 0.0000
vn -0.3162 0.9487 0.0000
vn 0.7071 0.0000 -0.7071
vn 0.0000 0.0000 -1.0000
vn -0.0000 0.9487 0.3162
vn -0.7071 0.0000 -0.7071
vn -1.0000 0.0000 0.0000
vn 0.3162 0.9487 0.0000
vn -0.7071 0.0000 0.7071
vn 0.0000 0.0000 1.0000
vn 0.0000 0.9487 -0.3162
vn 0.7071 0.0000 0.7071
vn -0.6155 0.4924 -0.6155
vn 0.6155 0.4924 0.6155
vn -0.6155 0.4924 0.6155
vn 0.6155 0.4924 -0.6155
vn -0.3714 -0.9285 0.0000
vn -0.0000 0.3714 -0.9285
vn 0.0000 0.3714 0.9285
vn 0.9285 0.3714 0.0000
vn -0.9285 0.3714 0.0000
vn -0.3714 0.9285 0.0000
vn 0.3714 0.9285 0.0000
vn 0.3714 -0.9285 0.0000
usemtl SKYWRATH_ALTAR
s off
f 212/508/51 211/509/51 173/510/51 172/511/51
f 167/512/52 171/513/52 212/514/52
f 213/515/53 168/516/53 173/510/53 211/509/53
f 167/517/52 218/518/52 171/519/52
f 169/520/53 170/521/53 176/522/53
f 234/523/54 229/524/54 184/525/54
f 190/526/51 189/527/51 174/528/51 175/529/51
f 207/530/51 206/531/51 183/532/51 182/533/51
f 209/534/52 178/535/52 181/536/52 207/530/52
f 208/537/53 179/538/53 183/532/53 206/531/53
f 178/539/52 186/540/52 181/541/52
f 187/542/52 185/543/52 175/529/52 191/544/52
f 234/545/53 184/546/53 174/528/53 189/527/53
f 175/529/51 174/528/51 192/547/51 191/544/51
f 185/543/52 188/548/52 190/526/52 175/529/52
f 184/546/53 314/549/53 192/547/53 174/528/53
f 188/550/52 193/551/52 190/552/52
f 234/553/53 189/554/53 194/555/53
f 190/556/55 193/557/55 194/555/55 189/554/55
f 222/558/53 208/537/53 206/531/53 180/559/53
f 309/560/54 314/561/54 184/525/54
f 196/562/51 235/563/51 214/564/51 198/565/51
f 177/566/52 209/534/52 207/530/52 182/533/52
f 171/513/51 170/567/51 211/509/51 212/508/51
f 198/568/51 214/569/51 210/570/51 203/571/51
f 169/572/53 213/515/53 211/509/53 170/567/53
f 229/524/54 309/560/54 184/525/54
f 181/536/51 180/559/51 206/531/51 207/530/51
f 203/573/51 210/574/51 205/575/51 204/576/51
f 204/577/51 205/578/51 197/579/51 195/580/51
f 250/581/56 249/582/56 176/583/56 218/584/56
f 215/585/52 217/586/52 250/587/52
f 251/588/53 169/572/53 176/583/53 249/582/53
f 215/589/52 256/590/52 217/591/52
f 253/592/53 216/593/53 257/594/53
f 270/595/57 267/596/57 226/597/57
f 231/598/56 230/599/56 219/600/56 220/601/56
f 245/602/56 244/603/56 225/604/56 186/605/56
f 247/606/52 221/607/52 224/608/52 245/602/52
f 246/609/53 222/558/53 225/604/53 244/603/53
f 221/610/52 263/611/52 224/612/52
f 188/548/52 227/613/52 220/601/52 193/614/52
f 270/615/53 226/616/53 219/600/53 230/599/53
f 220/601/56 219/600/56 194/617/56 193/614/56
f 227/613/52 228/618/52 231/598/52 220/601/52
f 226/616/53 234/545/53 194/617/53 219/600/53
f 228/619/52 232/620/52 231/621/52
f 270/622/53 230/623/53 233/624/53
f 231/625/58 232/626/58 233/624/58 230/623/58
f 260/627/53 246/609/53 244/603/53 223/628/53
f 229/524/57 234/523/57 226/597/57
f 272/629/56 273/630/56 252/631/56 236/632/56
f 178/535/52 247/606/52 245/602/52 186/605/52
f 217/586/56 216/633/56 249/582/56 250/581/56
f 236/634/56 252/635/56 248/636/56 241/637/56
f 253/638/53 251/588/53 249/582/53 216/633/53
f 267/596/57 229/524/57 226/597/57
f 224/608/56 223/628/56 244/603/56 245/602/56
f 241/639/56 248/640/56 243/641/56 242/642/56
f 242/643/56 243/644/56 235/645/56 196/646/56
f 288/647/59 287/648/59 257/649/59 256/650/59
f 291/651/52 255/652/52 288/653/52
f 289/654/53 253/638/53 257/649/53 287/648/53
f 291/655/52 295/656/52 255/657/52
f 292/658/53 254/659/53 296/660/53
f 271/661/60 308/662/60 265/663/60
f 269/664/59 268/665/59 258/666/59 259/667/59
f 283/668/59 282/669/59 264/670/59 263/671/59
f 285/672/52 299/673/52 262/674/52 283/668/52
f 284/675/53 260/627/53 264/670/53 282/669/53
f 299/676/52 303/677/52 262/678/52
f 228/618/52 266/679/52 259/667/52 232/680/52
f 271/681/53 265/682/53 258/666/53 268/665/53
f 259/667/59 258/666/59 233/683/59 232/680/59
f 266/679/52 307/684/52 269/664/52 259/667/52
f 265/682/53 270/615/53 233/683/53 258/666/53
f 307/685/52 312/686/52 269/687/52
f 271/688/53 268/689/53 313/690/53
f 269/691/61 312/692/61 313/690/61 268/689/61
f 300/693/53 284/675/53 282/669/53 261/694/53
f 267/596/60 270/595/60 265/663/60
f 315/695/59 316/696/59 290/697/59 274/698/59
f 221/607/52 285/672/52 283/668/52 263/671/52
f 255/652/59 254/699/59 287/648/59 288/647/59
f 274/700/59 290/701/59 286/702/59 279/703/59
f 292/704/53 289/654/53 287/648/53 254/699/53
f 308/662/60 267/596/60 265/663/60
f 262/674/59 261/694/59 282/669/59 283/668/59
f 279/705/59 286/706/59 281/707/59 280/708/59
f 280/709/59 281/710/59 273/711/59 272/712/59
f 331/713/62 330/714/62 296/715/62 295/716/62
f 166/717/52 294/718/52 331/719/52
f 332/720/53 292/704/53 296/715/53 330/714/53
f 166/721/52 172/722/52 294/723/52
f 168/724/53 293/725/53 173/726/53
f 314/561/63 309/560/63 305/727/63
f 311/728/62 310/729/62 297/730/62 298/731/62
f 326/732/62 325/733/62 304/734/62 303/735/62
f 328/736/52 177/566/52 302/737/52 326/732/52
f 327/738/53 300/693/53 304/734/53 325/733/53
f 177/739/52 182/740/52 302/741/52
f 307/684/52 306/742/52 298/731/52 312/743/52
f 314/549/53 305/744/53 297/730/53 310/729/53
f 298/731/62 297/730/62 313/745/62 312/743/62
f 306/742/52 187/542/52 311/728/52 298/731/52
f 305/744/53 271/681/53 313/745/53 297/730/53
f 187/746/52 191/747/52 311/748/52
f 314/749/53 310/750/53 192/751/53
f 311/752/64 191/753/64 192/751/64 310/750/64
f 179/538/53 327/738/53 325/733/53 301/754/53
f 308/662/63 271/661/63 305/727/63
f 195/755/62 197/756/62 333/757/62 317/758/62
f 299/673/52 328/736/52 326/732/52 303/735/52
f 294/718/62 293/759/62 330/714/62 331/713/62
f 317/760/62 333/761/62 329/762/62 322/763/62
f 168/516/53 332/720/53 330/714/53 293/759/53
f 309/560/63 308/662/63 305/727/63
f 302/737/62 301/754/62 325/733/62 326/732/62
f 322/764/62 329/765/62 324/766/62 323/767/62
f 323/768/62 324/769/62 316/770/62 315/771/62
f 308/772/53 309/773/53 229/774/53 267/775/53
f 167/776/52 166/777/52 291/778/52 215/779/52
f 337/780/55 334/781/55 345/782/55 344/783/55
f 344/783/55 345/782/55 341/784/55 339/785/55
f 338/786/61 340/787/61 342/788/61 343/789/61
f 343/789/61 342/788/61 335/790/61 336/791/61
f 336/792/65 337/780/65 344/783/65 343/793/65
f 343/793/58 344/783/58 339/785/58 338/794/58
f 349/795/61 346/796/61 357/797/61 356/798/61
f 356/798/61 357/797/61 353/799/61 351/800/61
f 350/801/55 352/802/55 354/803/55 355/804/55
f 355/804/55 354/803/55 347/805/55 348/806/55
f 348/807/66 349/795/66 356/798/66 355/808/66
f 355/808/64 356/798/64 351/800/64 350/809/64
f 361/810/58 358/811/58 369/812/58 368/813/58
f 368/813/58 369/812/58 365/814/58 363/815/58
f 362/816/64 364/817/64 366/818/64 367/819/64
f 367/819/64 366/818/64 359/820/64 360/821/64
f 360/822/67 361/810/67 368/813/67 367/823/67
f 367/823/61 368/813/61 363/815/61 362/824/61
f 373/825/64 370/826/64 381/827/64 380/828/64
f 380/828/64 381/827/64 377/829/64 375/830/64
f 374/831/58 376/832/58 378/833/58 379/834/58
f 379/834/58 378/833/58 371/835/58 372/836/58
f 372/837/68 373/825/68 380/828/68 379/838/68
f 379/838/55 380/828/55 375/830/55 374/839/55
f 218/584/52 167/512/52 250/587/52
f 215/840/52 291/651/52 288/653/52
f 256/650/52 215/585/52 288/653/52
f 291/841/52 166/717/52 331/719/52
f 295/716/52 291/651/52 331/719/52
f 172/511/52 166/717/52 212/514/52
f 167/842/52 215/585/52 250/587/52
f 166/843/52 167/512/52 212/514/52
usemtl GALE_PRESSURIZER
f 277/844/69 400/845/69 278/846/69 401/847/69
f 239/848/70 237/849/70 238/850/70 240/851/70
f 320/852/71 318/853/71 319/854/71 321/855/71
f 403/856/72 382/857/72 383/858/72 200/859/72
f 400/860/73 396/861/73 385/862/73 399/863/73
f 395/864/73 400/865/73 399/866/73 389/867/73
f 200/868/56 386/869/56 404/870/56 402/871/56
f 202/872/72 403/873/72 387/874/72 391/875/72
f 386/876/74 387/877/74 405/878/74 404/879/74
f 405/880/72 199/881/72 402/871/72 404/870/72
f 393/882/72 382/883/72 403/884/72 202/885/72
f 394/886/56 277/887/56 401/888/56 275/889/56
f 384/890/73 397/891/73 277/892/73 398/893/73
f 275/894/73 401/895/73 278/896/73 276/897/73
f 395/898/75 394/899/75 275/900/75 276/901/75
f 398/902/73 277/903/73 394/904/73 388/905/73
f 400/906/62 395/907/62 276/897/62 278/896/62
f 277/908/73 397/909/73 396/910/73 400/911/73
f 387/912/62 403/913/62 199/914/62 405/915/62
f 386/916/72 200/917/72 201/918/72 390/919/72
f 200/920/72 383/921/72 392/922/72 201/923/72
f 403/924/76 200/925/76 402/926/76 199/927/76
