# Blender v2.80 (sub 75) OBJ File: 'boss_trophies.blend'
# www.blender.org
mtllib boss_trophy_fey_winter_3.mtl
o BOSS_TROPHY_FEY_WINTER_3_Plane.007
v 0.641085 0.234375 0.159391
v 1.043734 0.328125 0.725222
v 0.358915 0.234375 0.840609
v -0.043734 0.234375 0.274778
v 0.274778 0.328125 1.043734
v 0.725222 0.328125 1.043734
v 1.043734 0.234375 0.725222
v -0.043734 0.328125 0.274778
v 0.274778 0.234375 -0.043734
v 0.358915 0.234375 0.159391
v 1.043734 0.328125 0.274778
v 0.725222 0.234375 -0.043734
v 1.043734 0.234375 0.274778
v 0.725222 0.234375 1.043734
v -0.043734 0.328125 0.725222
v 0.617337 0.328125 0.216723
v 0.725222 0.328125 -0.043734
v 0.783277 0.328125 0.382663
v 0.382663 0.328125 0.783277
v 0.274778 0.328125 -0.043734
v 0.274778 0.234375 1.043734
v 0.840609 0.234375 0.641085
v 0.159391 0.234375 0.641085
v 0.216723 0.328125 0.382663
v -0.043734 0.234375 0.725222
v 0.840609 0.234375 0.358915
v 0.159391 0.234375 0.358915
v 0.617337 0.328125 0.783277
v 0.783277 0.328125 0.617337
v 0.216723 0.328125 0.617337
v 0.641085 0.234375 0.840609
v 0.382663 0.328125 0.216723
v 0.999540 0.062500 0.274778
v 0.999540 0.250000 0.318972
v 0.911152 0.250000 0.230584
v 0.955346 0.250000 0.274778
v 0.955346 0.250000 0.274778
v 1.043734 0.250000 0.274778
v 0.955346 0.187500 0.230584
v 0.999540 0.250000 0.230584
v 0.999540 0.250000 0.230584
v 0.955346 0.250000 0.186390
v 0.866957 0.250000 0.186390
v 0.911152 0.250000 0.230584
v 0.911152 0.125000 0.186390
v 0.955346 0.250000 0.186390
v 0.911152 0.250000 0.142195
v 0.000460 0.062500 0.725222
v 0.000460 0.250000 0.681028
v 0.088848 0.250000 0.769416
v 0.044654 0.250000 0.725222
v 0.044654 0.250000 0.725222
v -0.043734 0.250000 0.725222
v 0.044654 0.187500 0.769416
v 0.000460 0.250000 0.769416
v 0.000460 0.250000 0.769416
v 0.044654 0.250000 0.813610
v 0.133043 0.250000 0.813611
v 0.088848 0.250000 0.769416
v 0.088848 0.125000 0.813610
v 0.044654 0.250000 0.813610
v 0.088848 0.250000 0.857805
v 0.725222 0.062500 0.999540
v 0.681028 0.250000 0.999540
v 0.769416 0.250000 0.911152
v 0.725222 0.250000 0.955346
v 0.725222 0.250000 0.955346
v 0.725222 0.250000 1.043734
v 0.769416 0.187500 0.955346
v 0.769416 0.250000 0.999540
v 0.769416 0.250000 0.999540
v 0.813611 0.250000 0.955346
v 0.813611 0.250000 0.866957
v 0.769416 0.250000 0.911152
v 0.813611 0.125000 0.911152
v 0.813611 0.250000 0.955346
v 0.857805 0.250000 0.911152
v 0.274778 0.062500 0.000460
v 0.318972 0.250000 0.000460
v 0.230584 0.250000 0.088848
v 0.274778 0.250000 0.044654
v 0.274778 0.250000 0.044654
v 0.274778 0.250000 -0.043734
v 0.230584 0.187500 0.044654
v 0.230584 0.250000 0.000460
v 0.230584 0.250000 0.000460
v 0.186389 0.250000 0.044654
v 0.186389 0.250000 0.133043
v 0.230584 0.250000 0.088848
v 0.186389 0.125000 0.088848
v 0.186389 0.250000 0.044654
v 0.142195 0.250000 0.088848
v 1.012484 0.062500 0.693972
v 0.981234 0.250000 0.725222
v 0.981234 0.250000 0.662722
v 1.043734 0.250000 0.725222
v 1.043734 0.250000 0.662722
v 1.012484 0.125000 0.506472
v 0.981234 0.250000 0.537722
v 0.981234 0.250000 0.475222
v 1.043734 0.250000 0.537722
v 1.043734 0.250000 0.475222
v 1.012484 0.125000 0.443972
v 0.981234 0.250000 0.475222
v 0.981234 0.250000 0.412722
v 1.043734 0.250000 0.475222
v 1.043734 0.250000 0.412722
v 1.012484 0.187500 0.381472
v 0.981234 0.250000 0.412722
v 0.981234 0.250000 0.350222
v 1.043734 0.250000 0.412722
v 1.043734 0.250000 0.350222
v 1.012484 0.187500 0.568972
v 0.981234 0.250000 0.600222
v 0.981234 0.250000 0.537722
v 1.043734 0.250000 0.600222
v 1.043734 0.250000 0.537722
v -0.012484 0.062500 0.306028
v 0.018766 0.250000 0.274778
v 0.018766 0.250000 0.337278
v -0.043734 0.250000 0.274778
v -0.043734 0.250000 0.337278
v -0.012484 0.125000 0.493528
v 0.018766 0.250000 0.462278
v 0.018766 0.250000 0.524778
v -0.043734 0.250000 0.462278
v -0.043734 0.250000 0.524778
v -0.012484 0.125000 0.556028
v 0.018766 0.250000 0.524778
v 0.018766 0.250000 0.587278
v -0.043734 0.250000 0.524778
v -0.043734 0.250000 0.587278
v -0.012484 0.187500 0.618528
v 0.018766 0.250000 0.587278
v 0.018766 0.250000 0.649778
v -0.043734 0.250000 0.587278
v -0.043734 0.250000 0.649778
v -0.012484 0.187500 0.431028
v 0.018766 0.250000 0.399778
v 0.018766 0.250000 0.462278
v -0.043734 0.250000 0.399778
v -0.043734 0.250000 0.462278
v 0.306028 0.062500 1.012484
v 0.274778 0.250000 0.981234
v 0.337278 0.250000 0.981234
v 0.274778 0.250000 1.043734
v 0.337278 0.250000 1.043734
v 0.493528 0.125000 1.012484
v 0.462278 0.250000 0.981234
v 0.524778 0.250000 0.981234
v 0.462278 0.250000 1.043734
v 0.524778 0.250000 1.043734
v 0.556028 0.125000 1.012484
v 0.524778 0.250000 0.981234
v 0.587278 0.250000 0.981234
v 0.524778 0.250000 1.043734
v 0.587278 0.250000 1.043734
v 0.618528 0.187500 1.012484
v 0.587278 0.250000 0.981234
v 0.649778 0.250000 0.981234
v 0.587278 0.250000 1.043734
v 0.649778 0.250000 1.043734
v 0.431028 0.187500 1.012484
v 0.399778 0.250000 0.981234
v 0.462278 0.250000 0.981234
v 0.399778 0.250000 1.043734
v 0.462278 0.250000 1.043734
v 0.693972 0.062500 -0.012484
v 0.725222 0.250000 0.018766
v 0.662722 0.250000 0.018766
v 0.725222 0.250000 -0.043734
v 0.662722 0.250000 -0.043734
v 0.506472 0.125000 -0.012484
v 0.537722 0.250000 0.018766
v 0.475222 0.250000 0.018766
v 0.537722 0.250000 -0.043734
v 0.475222 0.250000 -0.043734
v 0.443972 0.125000 -0.012484
v 0.475222 0.250000 0.018766
v 0.412722 0.250000 0.018766
v 0.475222 0.250000 -0.043734
v 0.412722 0.250000 -0.043734
v 0.381472 0.187500 -0.012484
v 0.412722 0.250000 0.018766
v 0.350222 0.250000 0.018766
v 0.412722 0.250000 -0.043734
v 0.350222 0.250000 -0.043734
v 0.568972 0.187500 -0.012484
v 0.600222 0.250000 0.018766
v 0.537722 0.250000 0.018766
v 0.600222 0.250000 -0.043734
v 0.537722 0.250000 -0.043734
vt 0.687500 0.922335
vt 0.500000 1.000000
vt 0.500000 0.562500
vt 0.687500 0.640166
vt 0.500000 1.000000
vt 0.687500 0.922334
vt 0.437500 0.562500
vt 0.437500 1.000000
vt 0.500000 1.000000
vt 0.500000 0.562500
vt 0.687500 0.667116
vt 0.437500 0.562500
vt 0.437500 1.000000
vt 0.687500 0.895384
vt 0.437500 1.000000
vt 0.437500 0.562500
vt 0.500000 0.562500
vt 0.500000 1.000000
vt 0.500000 0.562500
vt 0.687500 0.640166
vt 0.437500 0.562500
vt 0.500000 0.562500
vt 0.500000 1.000000
vt 0.687500 0.922334
vt 0.437500 1.000000
vt 0.437500 0.562500
vt 0.500000 0.562500
vt 0.500000 1.000000
vt 0.500000 0.562500
vt 0.687500 0.640166
vt 0.687500 0.895384
vt 0.437500 1.000000
vt 0.437500 0.562500
vt 0.687500 0.667116
vt 0.500000 1.000000
vt 0.687500 0.922334
vt 0.687500 0.667116
vt 0.437500 0.562500
vt 0.437500 1.000000
vt 0.687500 0.895384
vt 0.500000 0.562500
vt 0.687500 0.640166
vt 0.437500 1.000000
vt 0.500000 1.000000
vt 0.437500 0.562500
vt 0.687500 0.667116
vt 0.687500 0.895384
vt 0.437500 1.000000
vt 0.687500 0.375000
vt 0.687500 0.562500
vt 0.625000 0.562500
vt 0.687500 0.562500
vt 0.625000 0.562500
vt 0.687500 0.562500
vt 0.625000 0.562500
vt 0.687500 0.562500
vt 0.625000 0.562500
vt 0.687500 0.375000
vt 0.687500 0.437500
vt 0.625000 0.437500
vt 0.687500 0.437500
vt 0.625000 0.437500
vt 0.687500 0.437500
vt 0.625000 0.437500
vt 0.687500 0.437500
vt 0.625000 0.437500
vt 0.687500 0.375000
vt 0.687500 0.500000
vt 0.625000 0.500000
vt 0.687500 0.500000
vt 0.625000 0.500000
vt 0.687500 0.500000
vt 0.625000 0.500000
vt 0.687500 0.500000
vt 0.625000 0.500000
vt 0.687500 0.375000
vt 0.687500 0.562500
vt 0.625000 0.562500
vt 0.687500 0.562500
vt 0.625000 0.562500
vt 0.687500 0.562500
vt 0.625000 0.562500
vt 0.687500 0.562500
vt 0.625000 0.562500
vt 0.687500 0.375000
vt 0.687500 0.437500
vt 0.625000 0.437500
vt 0.687500 0.437500
vt 0.625000 0.437500
vt 0.687500 0.437500
vt 0.625000 0.437500
vt 0.687500 0.437500
vt 0.625000 0.437500
vt 0.687500 0.375000
vt 0.687500 0.500000
vt 0.625000 0.500000
vt 0.687500 0.500000
vt 0.625000 0.500000
vt 0.687500 0.500000
vt 0.625000 0.500000
vt 0.687500 0.500000
vt 0.625000 0.500000
vt 0.687500 0.375000
vt 0.687500 0.562500
vt 0.625000 0.562500
vt 0.687500 0.562500
vt 0.625000 0.562500
vt 0.687500 0.562500
vt 0.625000 0.562500
vt 0.687500 0.562500
vt 0.625000 0.562500
vt 0.687500 0.375000
vt 0.687500 0.437500
vt 0.625000 0.437500
vt 0.687500 0.437500
vt 0.625000 0.437500
vt 0.687500 0.437500
vt 0.625000 0.437500
vt 0.687500 0.437500
vt 0.625000 0.437500
vt 0.687500 0.375000
vt 0.687500 0.500000
vt 0.625000 0.500000
vt 0.687500 0.500000
vt 0.625000 0.500000
vt 0.687500 0.500000
vt 0.625000 0.500000
vt 0.687500 0.500000
vt 0.625000 0.500000
vt 0.687500 0.375000
vt 0.687500 0.562500
vt 0.625000 0.562500
vt 0.687500 0.562500
vt 0.625000 0.562500
vt 0.687500 0.562500
vt 0.625000 0.562500
vt 0.687500 0.562500
vt 0.625000 0.562500
vt 0.687500 0.375000
vt 0.687500 0.437500
vt 0.625000 0.437500
vt 0.687500 0.437500
vt 0.625000 0.437500
vt 0.687500 0.437500
vt 0.625000 0.437500
vt 0.687500 0.437500
vt 0.625000 0.437500
vt 0.687500 0.375000
vt 0.687500 0.500000
vt 0.625000 0.500000
vt 0.687500 0.500000
vt 0.625000 0.500000
vt 0.687500 0.500000
vt 0.625000 0.500000
vt 0.687500 0.500000
vt 0.625000 0.500000
vt 0.687500 0.375000
vt 0.687500 0.562500
vt 0.625000 0.562500
vt 0.687500 0.562500
vt 0.625000 0.562500
vt 0.687500 0.562500
vt 0.625000 0.562500
vt 0.687500 0.562500
vt 0.625000 0.562500
vt 0.687500 0.375000
vt 0.687500 0.500000
vt 0.625000 0.500000
vt 0.687500 0.500000
vt 0.625000 0.500000
vt 0.687500 0.500000
vt 0.625000 0.500000
vt 0.687500 0.500000
vt 0.625000 0.500000
vt 0.687500 0.375000
vt 0.687500 0.500000
vt 0.625000 0.500000
vt 0.687500 0.500000
vt 0.625000 0.500000
vt 0.687500 0.500000
vt 0.625000 0.500000
vt 0.687500 0.500000
vt 0.625000 0.500000
vt 0.687500 0.375000
vt 0.687500 0.437500
vt 0.625000 0.437500
vt 0.687500 0.437500
vt 0.625000 0.437500
vt 0.687500 0.437500
vt 0.625000 0.437500
vt 0.687500 0.437500
vt 0.625000 0.437500
vt 0.687500 0.375000
vt 0.687500 0.437500
vt 0.625000 0.437500
vt 0.687500 0.437500
vt 0.625000 0.437500
vt 0.687500 0.437500
vt 0.625000 0.437500
vt 0.687500 0.437500
vt 0.625000 0.437500
vt 0.687500 0.375000
vt 0.687500 0.562500
vt 0.625000 0.562500
vt 0.687500 0.562500
vt 0.625000 0.562500
vt 0.687500 0.562500
vt 0.625000 0.562500
vt 0.687500 0.562500
vt 0.625000 0.562500
vt 0.687500 0.375000
vt 0.687500 0.500000
vt 0.625000 0.500000
vt 0.687500 0.500000
vt 0.625000 0.500000
vt 0.687500 0.500000
vt 0.625000 0.500000
vt 0.687500 0.500000
vt 0.625000 0.500000
vt 0.687500 0.375000
vt 0.687500 0.500000
vt 0.625000 0.500000
vt 0.687500 0.500000
vt 0.625000 0.500000
vt 0.687500 0.500000
vt 0.625000 0.500000
vt 0.687500 0.500000
vt 0.625000 0.500000
vt 0.687500 0.375000
vt 0.687500 0.437500
vt 0.625000 0.437500
vt 0.687500 0.437500
vt 0.625000 0.437500
vt 0.687500 0.437500
vt 0.625000 0.437500
vt 0.687500 0.437500
vt 0.625000 0.437500
vt 0.687500 0.375000
vt 0.687500 0.437500
vt 0.625000 0.437500
vt 0.687500 0.437500
vt 0.625000 0.437500
vt 0.687500 0.437500
vt 0.625000 0.437500
vt 0.687500 0.437500
vt 0.625000 0.437500
vt 0.687500 0.375000
vt 0.687500 0.562500
vt 0.625000 0.562500
vt 0.687500 0.562500
vt 0.625000 0.562500
vt 0.687500 0.562500
vt 0.625000 0.562500
vt 0.687500 0.562500
vt 0.625000 0.562500
vt 0.687500 0.375000
vt 0.687500 0.500000
vt 0.625000 0.500000
vt 0.687500 0.500000
vt 0.625000 0.500000
vt 0.687500 0.500000
vt 0.625000 0.500000
vt 0.687500 0.500000
vt 0.625000 0.500000
vt 0.687500 0.375000
vt 0.687500 0.500000
vt 0.625000 0.500000
vt 0.687500 0.500000
vt 0.625000 0.500000
vt 0.687500 0.500000
vt 0.625000 0.500000
vt 0.687500 0.500000
vt 0.625000 0.500000
vt 0.687500 0.375000
vt 0.687500 0.437500
vt 0.625000 0.437500
vt 0.687500 0.437500
vt 0.625000 0.437500
vt 0.687500 0.437500
vt 0.625000 0.437500
vt 0.687500 0.437500
vt 0.625000 0.437500
vt 0.687500 0.375000
vt 0.687500 0.437500
vt 0.625000 0.437500
vt 0.687500 0.437500
vt 0.625000 0.437500
vt 0.687500 0.437500
vt 0.625000 0.437500
vt 0.687500 0.437500
vt 0.625000 0.437500
vt 0.687500 0.375000
vt 0.687500 0.562500
vt 0.625000 0.562500
vt 0.687500 0.562500
vt 0.625000 0.562500
vt 0.687500 0.562500
vt 0.625000 0.562500
vt 0.687500 0.562500
vt 0.625000 0.562500
vt 0.687500 0.375000
vt 0.687500 0.500000
vt 0.625000 0.500000
vt 0.687500 0.500000
vt 0.625000 0.500000
vt 0.687500 0.500000
vt 0.625000 0.500000
vt 0.687500 0.500000
vt 0.625000 0.500000
vt 0.687500 0.375000
vt 0.687500 0.500000
vt 0.625000 0.500000
vt 0.687500 0.500000
vt 0.625000 0.500000
vt 0.687500 0.500000
vt 0.625000 0.500000
vt 0.687500 0.500000
vt 0.625000 0.500000
vt 0.687500 0.375000
vt 0.687500 0.437500
vt 0.625000 0.437500
vt 0.687500 0.437500
vt 0.625000 0.437500
vt 0.687500 0.437500
vt 0.625000 0.437500
vt 0.687500 0.437500
vt 0.625000 0.437500
vt 0.687500 0.375000
vt 0.687500 0.437500
vt 0.625000 0.437500
vt 0.687500 0.437500
vt 0.625000 0.437500
vt 0.687500 0.437500
vt 0.625000 0.437500
vt 0.687500 0.437500
vt 0.625000 0.437500
vn 0.0000 -1.0000 -0.0000
vn 1.0000 0.0000 -0.0000
vn -0.0000 1.0000 0.0000
vn -0.7071 0.0000 -0.7071
vn -0.0000 0.0000 -1.0000
vn -0.7071 0.0000 0.7071
vn -1.0000 0.0000 0.0000
vn 0.0000 0.0000 1.0000
vn 0.7071 0.0000 -0.7071
vn 0.7071 -0.0000 0.7071
vn -0.6975 -0.1644 0.6975
vn -0.6975 -0.1644 -0.6975
vn 0.6975 -0.1644 -0.6975
vn 0.6975 -0.1644 0.6975
vn 0.6325 -0.4472 -0.6325
vn -0.6325 -0.4472 0.6325
vn -0.6325 -0.4472 -0.6325
vn 0.6325 -0.4472 0.6325
vn 0.6860 -0.2425 -0.6860
vn -0.6860 -0.2425 0.6860
vn -0.6860 -0.2425 -0.6860
vn 0.6860 -0.2425 0.6860
vn -0.9864 -0.1644 0.0000
vn 0.0000 -0.1644 -0.9864
vn 0.9864 -0.1644 0.0000
vn 0.0000 -0.1644 0.9864
vn -0.9701 -0.2425 0.0000
vn 0.0000 -0.2425 -0.9701
vn 0.9701 -0.2425 0.0000
vn 0.0000 -0.2425 0.9701
vn -0.8944 -0.4472 0.0000
vn 0.0000 -0.4472 -0.8944
vn 0.8944 -0.4472 0.0000
vn 0.0000 -0.4472 0.8944
usemtl BOSS_TROPHY_FEY
s off
f 31/1/1 14/2/1 21/3/1 3/4/1
f 3/4/1 21/3/1 25/5/1 23/6/1
f 7/7/2 13/8/2 11/9/2 2/10/2
f 19/11/3 5/12/3 6/13/3 28/14/3
f 9/15/4 4/16/4 8/17/4 20/18/4
f 23/6/1 25/5/1 4/19/1 27/20/1
f 12/21/5 9/15/5 20/18/5 17/22/5
f 27/20/1 4/19/1 9/23/1 10/24/1
f 25/25/6 21/26/6 5/27/6 15/28/6
f 10/24/1 9/23/1 12/29/1 1/30/1
f 32/31/3 20/32/3 8/33/3 24/34/3
f 4/16/7 25/25/7 15/28/7 8/17/7
f 1/30/1 12/29/1 13/35/1 26/36/1
f 29/37/3 2/38/3 11/39/3 18/40/3
f 26/36/1 13/35/1 7/41/1 22/42/1
f 28/14/3 6/13/3 2/38/3 29/37/3
f 21/26/8 14/43/8 6/44/8 5/27/8
f 22/42/1 7/41/1 14/2/1 31/1/1
f 13/8/9 12/21/9 17/22/9 11/9/9
f 18/40/3 11/39/3 17/45/3 16/46/3
f 14/43/10 7/7/10 2/10/10 6/44/10
f 20/32/3 32/31/3 16/46/3 17/45/3
f 5/12/3 19/11/3 30/47/3 15/48/3
f 15/48/3 30/47/3 24/34/3 8/33/3
f 33/49/11 34/50/11 36/51/11
f 33/49/12 36/52/12 40/53/12
f 33/49/13 40/54/13 38/55/13
f 33/49/14 38/56/14 34/57/14
f 39/58/15 42/59/15 41/60/15
f 39/58/16 37/61/16 35/62/16
f 39/58/17 35/63/17 42/64/17
f 39/58/18 41/65/18 37/66/18
f 45/67/19 47/68/19 46/69/19
f 45/67/20 44/70/20 43/71/20
f 45/67/21 43/72/21 47/73/21
f 45/67/22 46/74/22 44/75/22
f 48/76/13 49/77/13 51/78/13
f 48/76/14 51/79/14 55/80/14
f 48/76/11 55/81/11 53/82/11
f 48/76/12 53/83/12 49/84/12
f 54/85/16 57/86/16 56/87/16
f 54/85/15 52/88/15 50/89/15
f 54/85/18 50/90/18 57/91/18
f 54/85/17 56/92/17 52/93/17
f 60/94/20 62/95/20 61/96/20
f 60/94/19 59/97/19 58/98/19
f 60/94/22 58/99/22 62/100/22
f 60/94/21 61/101/21 59/102/21
f 63/103/12 64/104/12 66/105/12
f 63/103/13 66/106/13 70/107/13
f 63/103/14 70/108/14 68/109/14
f 63/103/11 68/110/11 64/111/11
f 69/112/18 72/113/18 71/114/18
f 69/112/17 67/115/17 65/116/17
f 69/112/15 65/117/15 72/118/15
f 69/112/16 71/119/16 67/120/16
f 75/121/22 77/122/22 76/123/22
f 75/121/21 74/124/21 73/125/21
f 75/121/19 73/126/19 77/127/19
f 75/121/20 76/128/20 74/129/20
f 78/130/14 79/131/14 81/132/14
f 78/130/11 81/133/11 85/134/11
f 78/130/12 85/135/12 83/136/12
f 78/130/13 83/137/13 79/138/13
f 84/139/17 87/140/17 86/141/17
f 84/139/18 82/142/18 80/143/18
f 84/139/16 80/144/16 87/145/16
f 84/139/15 86/146/15 82/147/15
f 90/148/21 92/149/21 91/150/21
f 90/148/22 89/151/22 88/152/22
f 90/148/20 88/153/20 92/154/20
f 90/148/19 91/155/19 89/156/19
f 93/157/23 94/158/23 95/159/23
f 93/157/24 95/160/24 97/161/24
f 93/157/25 97/162/25 96/163/25
f 93/157/26 96/164/26 94/165/26
f 98/166/27 99/167/27 100/168/27
f 98/166/28 100/169/28 102/170/28
f 98/166/29 102/171/29 101/172/29
f 98/166/30 101/173/30 99/174/30
f 103/175/27 104/176/27 105/177/27
f 103/175/28 105/178/28 107/179/28
f 103/175/29 107/180/29 106/181/29
f 103/175/30 106/182/30 104/183/30
f 108/184/31 109/185/31 110/186/31
f 108/184/32 110/187/32 112/188/32
f 108/184/33 112/189/33 111/190/33
f 108/184/34 111/191/34 109/192/34
f 113/193/31 114/194/31 115/195/31
f 113/193/32 115/196/32 117/197/32
f 113/193/33 117/198/33 116/199/33
f 113/193/34 116/200/34 114/201/34
f 118/202/25 119/203/25 120/204/25
f 118/202/26 120/205/26 122/206/26
f 118/202/23 122/207/23 121/208/23
f 118/202/24 121/209/24 119/210/24
f 123/211/29 124/212/29 125/213/29
f 123/211/30 125/214/30 127/215/30
f 123/211/27 127/216/27 126/217/27
f 123/211/28 126/218/28 124/219/28
f 128/220/29 129/221/29 130/222/29
f 128/220/30 130/223/30 132/224/30
f 128/220/27 132/225/27 131/226/27
f 128/220/28 131/227/28 129/228/28
f 133/229/33 134/230/33 135/231/33
f 133/229/34 135/232/34 137/233/34
f 133/229/31 137/234/31 136/235/31
f 133/229/32 136/236/32 134/237/32
f 138/238/33 139/239/33 140/240/33
f 138/238/34 140/241/34 142/242/34
f 138/238/31 142/243/31 141/244/31
f 138/238/32 141/245/32 139/246/32
f 143/247/24 144/248/24 145/249/24
f 143/247/25 145/250/25 147/251/25
f 143/247/26 147/252/26 146/253/26
f 143/247/23 146/254/23 144/255/23
f 148/256/28 149/257/28 150/258/28
f 148/256/29 150/259/29 152/260/29
f 148/256/30 152/261/30 151/262/30
f 148/256/27 151/263/27 149/264/27
f 153/265/28 154/266/28 155/267/28
f 153/265/29 155/268/29 157/269/29
f 153/265/30 157/270/30 156/271/30
f 153/265/27 156/272/27 154/273/27
f 158/274/32 159/275/32 160/276/32
f 158/274/33 160/277/33 162/278/33
f 158/274/34 162/279/34 161/280/34
f 158/274/31 161/281/31 159/282/31
f 163/283/32 164/284/32 165/285/32
f 163/283/33 165/286/33 167/287/33
f 163/283/34 167/288/34 166/289/34
f 163/283/31 166/290/31 164/291/31
f 168/292/26 169/293/26 170/294/26
f 168/292/23 170/295/23 172/296/23
f 168/292/24 172/297/24 171/298/24
f 168/292/25 171/299/25 169/300/25
f 173/301/30 174/302/30 175/303/30
f 173/301/27 175/304/27 177/305/27
f 173/301/28 177/306/28 176/307/28
f 173/301/29 176/308/29 174/309/29
f 178/310/30 179/311/30 180/312/30
f 178/310/27 180/313/27 182/314/27
f 178/310/28 182/315/28 181/316/28
f 178/310/29 181/317/29 179/318/29
f 183/319/34 184/320/34 185/321/34
f 183/319/31 185/322/31 187/323/31
f 183/319/32 187/324/32 186/325/32
f 183/319/33 186/326/33 184/327/33
f 188/328/34 189/329/34 190/330/34
f 188/328/31 190/331/31 192/332/31
f 188/328/32 192/333/32 191/334/32
f 188/328/33 191/335/33 189/336/33
