# Blender v2.80 (sub 75) OBJ File: 'boss_trophies.blend'
# www.blender.org
mtllib boss_trophy_council_slate.mtl
o SLATE_Cube.018
v 0.156250 -0.062500 -0.218750
v -0.156250 0.000000 -0.218750
v 0.156250 -0.062500 0.218750
v -0.156250 0.000000 0.218750
v -0.156250 -0.062500 -0.218750
v 0.156250 0.000000 -0.218750
v -0.156250 -0.062500 0.218750
v 0.156250 0.000000 0.218750
v 0.218750 -0.062500 -0.281250
v 0.218750 -0.062500 0.281250
v -0.218750 -0.062500 -0.281250
v -0.218750 -0.062500 0.281250
v 0.156250 -0.031250 -0.218750
v 0.125000 0.000000 -0.187500
v 0.156250 -0.031250 0.218750
v 0.125000 0.000000 0.187500
v -0.156250 -0.031250 -0.218750
v -0.125000 0.000000 -0.187500
v -0.156250 -0.031250 0.218750
v -0.125000 0.000000 0.187500
v 0.218750 0.000000 0.281250
v 0.218750 0.000000 -0.281250
v -0.218750 0.000000 -0.281250
v -0.218750 0.000000 0.281250
v 0.000000 0.000000 0.343750
v 0.000000 -0.078125 -0.325444
v 0.000000 0.015625 -0.325444
v 0.058926 -0.078125 -0.281250
v 0.058926 0.015625 -0.281250
v -0.058925 -0.078125 -0.281250
v -0.058925 0.015625 -0.281250
v 0.000000 -0.078125 -0.237056
v 0.000000 0.015625 -0.237056
v -0.218750 -0.078125 -0.058926
v -0.218750 0.015625 -0.058926
v -0.174556 -0.078125 0.000000
v -0.174556 0.015625 0.000000
v -0.262944 -0.078125 0.000000
v -0.262944 0.015625 0.000000
v -0.218750 -0.078125 0.058926
v -0.218750 0.015625 0.058926
v 0.218750 0.015625 0.058926
v 0.218750 -0.078125 0.058926
v 0.262944 0.015625 0.000000
v 0.262944 -0.078125 0.000000
v 0.174556 0.015625 0.000000
v 0.174556 -0.078125 0.000000
v 0.218750 0.015625 -0.058926
v 0.218750 -0.078125 -0.058926
v 0.000000 0.062500 0.405140
v -0.044194 0.031250 0.405140
v 0.000000 0.031250 0.360945
v 0.000000 0.031250 0.449334
v 0.044194 0.031250 0.405140
v 0.000000 -0.078125 0.351013
v 0.000000 0.015625 0.351013
v -0.088388 0.031250 0.405140
v 0.000000 0.031250 0.316751
v -0.088388 -0.093750 0.405140
v 0.000000 -0.093750 0.316751
v 0.000000 0.031250 0.493528
v 0.088389 0.031250 0.405140
v 0.000000 -0.093750 0.493528
v 0.088389 -0.093750 0.405140
v -0.110485 -0.031250 0.405140
v 0.000000 -0.031250 0.515625
v 0.000000 -0.031250 0.294654
v 0.110486 -0.031250 0.405140
v -0.139503 -0.078125 0.342640
v -0.108253 -0.078125 0.288513
v -0.139503 0.015625 0.342640
v -0.108253 0.015625 0.288513
v -0.031250 -0.078125 0.405140
v -0.031250 0.015625 0.405140
v -0.170753 0.015625 0.396766
v -0.170753 -0.078125 0.396766
v -0.062500 0.015625 0.459266
v -0.062500 -0.078125 0.459266
v -0.247756 0.015625 0.280140
v -0.247756 -0.078125 0.280140
v -0.216506 -0.078125 0.226013
v -0.216506 0.015625 0.226013
v 0.000000 -0.031250 -0.156250
v -0.000000 -0.078125 0.351013
v -0.000000 0.015625 0.351013
v 0.139503 -0.078125 0.342640
v 0.108253 -0.078125 0.288513
v 0.139503 0.015625 0.342640
v 0.108253 0.015625 0.288513
v 0.031250 -0.078125 0.405140
v 0.031250 0.015625 0.405140
v 0.170753 0.015625 0.396766
v 0.170753 -0.078125 0.396766
v 0.062500 0.015625 0.459266
v 0.062500 -0.078125 0.459266
v 0.247756 0.015625 0.280140
v 0.247756 -0.078125 0.280140
v 0.216506 -0.078125 0.226013
v 0.216506 0.015625 0.226013
v 0.125000 0.015625 -0.187500
v 0.125000 0.015625 0.187500
v -0.125000 0.015625 -0.187500
v -0.125000 0.015625 0.187500
vt 0.937500 0.562500
vt 0.937500 0.125000
vt 1.000000 0.125000
vt 1.000000 0.562500
vt 0.062500 0.375000
vt 0.062500 0.062500
vt 0.125000 0.000000
vt 0.125000 0.437500
vt 0.250000 0.375000
vt 0.187500 0.437500
vt 0.187500 0.000000
vt 0.250000 0.062500
vt 1.000000 0.562500
vt 0.937500 0.625000
vt 0.937500 0.062500
vt 1.000000 0.125000
vt 0.937500 0.062500
vt 0.937500 0.625000
vt 1.000000 0.125000
vt 0.937500 0.062500
vt 0.937500 0.625000
vt 1.000000 0.562500
vt 0.250000 0.062500
vt 0.250000 0.375000
vt 0.187500 0.437500
vt 0.187500 0.000000
vt 0.062500 0.375000
vt 0.125000 0.437500
vt 0.125000 0.000000
vt 0.062500 0.062500
vt 0.906250 0.031250
vt 0.875000 0.062500
vt 0.500000 0.062500
vt 0.468750 0.031250
vt 0.500000 0.312500
vt 0.468750 0.343750
vt 0.875000 0.312500
vt 0.906250 0.343750
vt 0.156250 0.218750
vt 0.937500 0.125000
vt 0.937500 0.562500
vt 1.000000 0.562500
vt 1.000000 0.125000
vt 0.937500 0.375000
vt 0.375000 0.375000
vt 0.375000 0.437500
vt 0.937500 0.437500
vt 0.000000 0.375000
vt 0.000000 0.062500
vt 0.187500 0.062500
vt 0.187500 0.375000
vt 0.937500 0.000000
vt 1.000000 0.000000
vt 1.000000 0.062500
vt 0.937500 0.062500
vt 0.375000 0.375000
vt 0.937500 0.375000
vt 0.937500 0.437500
vt 0.375000 0.437500
vt 0.937500 0.625000
vt 0.937500 0.062500
vt 0.062500 0.000000
vt 0.062500 0.437500
vt 0.062500 0.687500
vt 0.062500 0.750000
vt 0.000000 0.750000
vt 0.000000 0.687500
vt 0.062500 0.750000
vt 0.062500 0.687500
vt 0.937500 0.687500
vt 0.937500 0.750000
vt 1.000000 0.750000
vt 1.000000 0.687500
vt 0.937500 0.750000
vt 0.937500 0.687500
vt 0.437500 0.375000
vt 0.437500 0.312500
vt 0.375000 0.250000
vt 0.375000 0.312500
vt 0.437500 0.312500
vt 0.437500 0.375000
vt 0.375000 0.312500
vt 0.375000 0.250000
vt 0.250000 0.375000
vt 0.312500 0.375000
vt 0.312500 0.312500
vt 0.250000 0.312500
vt 0.312500 0.250000
vt 0.250000 0.250000
vt 0.312500 0.312500
vt 0.250000 0.312500
vt 0.312500 0.437500
vt 0.375000 0.375000
vt 0.312500 0.375000
vt 0.250000 0.437500
vt 0.375000 0.375000
vt 0.312500 0.437500
vt 0.250000 0.437500
vt 0.312500 0.375000
vt 0.375000 0.375000
vt 0.312500 0.375000
vt 0.250000 0.437500
vt 0.312500 0.437500
vt 0.312500 0.437500
vt 0.250000 0.437500
vt 0.312500 0.375000
vt 0.375000 0.375000
vt 0.250000 0.312500
vt 0.250000 0.375000
vt 0.312500 0.375000
vt 0.312500 0.312500
vt 0.250000 0.250000
vt 0.312500 0.250000
vt 0.250000 0.312500
vt 0.312500 0.312500
vt 0.699846 0.750000
vt 0.800154 0.750000
vt 0.812500 0.687500
vt 0.687500 0.687500
vt 0.562500 0.750000
vt 0.562500 0.625000
vt 0.437500 0.625000
vt 0.437500 0.750000
vt 0.437500 0.750000
vt 0.437500 0.625000
vt 0.562500 0.625000
vt 0.562500 0.750000
vt 0.300154 0.750000
vt 0.199846 0.750000
vt 0.187500 0.687500
vt 0.312500 0.687500
vt 0.300154 0.750000
vt 0.312500 0.687500
vt 0.199846 0.687500
vt 0.300154 0.687500
vt 0.312500 0.750000
vt 0.187500 0.750000
vt 0.699846 0.687500
vt 0.800154 0.687500
vt 0.812500 0.750000
vt 0.687500 0.750000
vt 0.800154 0.750000
vt 0.812500 0.687500
vt 0.300154 0.687500
vt 0.312500 0.750000
vt 0.800154 0.687500
vt 0.812500 0.750000
vt 0.437500 0.125000
vt 0.437500 0.250000
vt 0.375000 0.250000
vt 0.375000 0.125000
vt 0.375000 0.000000
vt 0.437500 0.000000
vt 0.375000 0.000000
vt 0.375000 0.125000
vt 0.437500 0.125000
vt 0.437500 0.000000
vt 0.250000 0.125000
vt 0.250000 0.062500
vt 0.312500 0.062500
vt 0.312500 0.125000
vt 0.375000 0.125000
vt 0.312500 0.125000
vt 0.312500 0.250000
vt 0.375000 0.250000
vt 0.312500 0.125000
vt 0.250000 0.125000
vt 0.250000 0.000000
vt 0.312500 0.000000
vt 0.312500 0.000000
vt 0.312500 0.062500
vt 0.250000 0.062500
vt 0.250000 0.000000
vt 0.312500 0.000000
vt 0.312500 0.125000
vt 0.375000 0.250000
vt 0.437500 0.250000
vt 0.312500 0.375000
vt 0.375000 0.375000
vt 0.250000 0.187500
vt 0.312500 0.187500
vt 0.312500 0.250000
vt 0.250000 0.250000
vt 0.312500 0.250000
vt 0.250000 0.250000
vt 0.437500 0.125000
vt 0.375000 0.125000
vt 0.375000 0.250000
vt 0.437500 0.250000
vt 0.437500 0.000000
vt 0.375000 0.000000
vt 0.375000 0.000000
vt 0.437500 0.000000
vt 0.437500 0.125000
vt 0.375000 0.125000
vt 0.250000 0.125000
vt 0.312500 0.125000
vt 0.312500 0.062500
vt 0.250000 0.062500
vt 0.375000 0.125000
vt 0.375000 0.250000
vt 0.312500 0.250000
vt 0.312500 0.125000
vt 0.312500 0.125000
vt 0.312500 0.000000
vt 0.250000 0.000000
vt 0.250000 0.125000
vt 0.312500 0.000000
vt 0.250000 0.000000
vt 0.250000 0.062500
vt 0.312500 0.062500
vt 0.312500 0.125000
vt 0.312500 0.000000
vt 0.437500 0.250000
vt 0.375000 0.250000
vt 0.375000 0.375000
vt 0.312500 0.375000
vt 0.250000 0.187500
vt 0.250000 0.250000
vt 0.312500 0.250000
vt 0.312500 0.187500
vt 0.250000 0.250000
vt 0.312500 0.250000
vt 0.812500 0.187500
vt 0.812500 0.250000
vt 0.750000 0.250000
vt 0.187500 0.187500
vt 0.250000 0.187500
vt 0.187500 0.250000
vt 0.187500 0.687500
vt 0.250000 0.687500
vt 0.187500 0.750000
vt 0.750000 0.687500
vt 0.812500 0.687500
vt 0.750000 0.750000
vt 0.000000 0.250000
vt 0.500000 0.250000
vt 0.500000 1.000000
vt 0.000000 1.000000
vn -1.0000 0.0000 0.0000
vn 0.0000 1.0000 0.0000
vn 0.0000 -1.0000 0.0000
vn 0.7071 0.7071 -0.0000
vn 0.0000 0.7071 0.7071
vn -0.7071 0.7071 0.0000
vn 0.0000 0.7071 -0.7071
vn 0.0000 -0.7071 0.7071
vn 1.0000 0.0000 0.0000
vn 0.0000 0.0000 1.0000
vn 0.0000 0.0000 -1.0000
vn 0.6000 0.0000 -0.8000
vn 0.6000 0.0000 0.8000
vn -0.6000 0.0000 0.8000
vn -0.6000 0.0000 -0.8000
vn 0.8000 0.0000 -0.6000
vn 0.8000 0.0000 0.6000
vn -0.8000 0.0000 0.6000
vn -0.8000 0.0000 -0.6000
vn 0.6860 0.2425 -0.6860
vn -0.6860 -0.2425 0.6860
vn 0.6860 -0.2425 0.6860
vn -0.6860 0.2425 0.6860
vn -0.6860 -0.2425 -0.6860
vn -0.6860 0.2425 -0.6860
vn 0.6860 0.2425 0.6860
vn 0.6860 -0.2425 -0.6860
vn -0.8660 0.0000 -0.5000
vn 0.5000 0.0000 -0.8660
vn -0.5000 0.0000 0.8660
vn 0.8660 0.0000 0.5000
vn 0.8660 0.0000 -0.5000
vn -0.5000 0.0000 -0.8660
vn 0.5000 0.0000 0.8660
vn -0.8660 0.0000 0.5000
vn -0.5000 0.7071 -0.5000
vn 0.5000 0.7071 0.5000
vn -0.5000 0.7071 0.5000
vn 0.5000 0.7071 -0.5000
usemtl BOSS_TROPHY_COUNCIL
s off
f 1/1/1 3/2/1 8/3/1 6/4/1
f 2/5/2 6/6/2 22/7/2 23/8/2
f 4/9/2 24/10/2 21/11/2 8/12/2
f 1/13/3 9/14/3 10/15/3 3/16/3
f 6/4/2 8/3/2 21/17/2 22/18/2
f 7/19/3 12/20/3 11/21/3 5/22/3
f 7/23/3 3/24/3 10/25/3 12/26/3
f 5/27/3 11/28/3 9/29/3 1/30/3
f 13/31/4 14/32/4 16/33/4 15/34/4
f 15/34/5 16/33/5 20/35/5 19/36/5
f 19/36/6 20/35/6 18/37/6 17/38/6
f 17/38/7 18/37/7 14/32/7 13/31/7
f 20/35/2 16/33/2 14/32/2 18/37/2
f 12/26/8 10/25/8 25/39/8
f 7/40/9 5/41/9 2/42/9 4/43/9
f 10/44/9 9/45/9 22/46/9 21/47/9
f 5/48/10 1/49/10 6/6/10 2/5/10
f 3/50/11 7/51/11 4/9/11 8/12/11
f 3/52/3 7/53/3 5/54/3 1/55/3
f 11/56/1 12/57/1 24/58/1 23/59/1
f 21/11/2 24/10/2 25/39/2
f 2/42/2 23/60/2 24/61/2 4/43/2
f 23/8/11 22/7/11 9/62/11 11/63/11
f 26/64/12 27/65/12 29/66/12 28/67/12
f 28/67/13 29/66/13 33/68/13 32/69/13
f 32/70/14 33/71/14 31/72/14 30/73/14
f 30/73/15 31/72/15 27/74/15 26/75/15
f 28/76/3 32/77/3 30/78/3 26/79/3
f 33/80/2 29/81/2 27/82/2 31/83/2
f 34/84/16 35/85/16 37/86/16 36/87/16
f 36/87/17 37/86/17 41/88/17 40/89/17
f 40/89/18 41/88/18 39/90/18 38/91/18
f 38/91/19 39/90/19 35/85/19 34/84/19
f 36/92/3 40/93/3 38/94/3 34/95/3
f 41/96/2 37/97/2 35/98/2 39/99/2
f 42/100/2 44/101/2 48/102/2 46/103/2
f 47/104/3 49/105/3 45/106/3 43/107/3
f 45/108/16 49/109/16 48/110/16 44/111/16
f 43/112/17 45/108/17 44/111/17 42/113/17
f 47/114/18 43/112/18 42/113/18 46/115/18
f 49/109/19 47/114/19 46/115/19 48/110/19
f 58/116/20 62/117/20 68/118/20 67/119/20
f 59/120/3 60/121/3 64/122/3 63/123/3
f 61/124/2 62/125/2 58/126/2 57/127/2
f 59/128/21 63/129/21 66/130/21 65/131/21
f 63/129/22 64/132/22 68/133/22 66/130/22
f 61/134/23 57/135/23 65/136/23 66/137/23
f 60/138/24 59/139/24 65/140/24 67/141/24
f 57/142/25 58/116/25 67/119/25 65/143/25
f 62/144/26 61/134/26 66/137/26 68/145/26
f 64/146/27 60/138/27 67/141/27 68/147/27
f 72/148/2 82/149/2 79/150/2 71/151/2
f 71/151/2 74/152/2 56/153/2 72/148/2
f 73/154/3 69/155/3 70/156/3 55/157/3
f 69/158/28 76/159/28 75/160/28 71/161/28
f 56/162/29 55/163/29 70/164/29 72/165/29
f 75/166/30 76/167/30 78/168/30 77/169/30
f 74/170/31 77/171/31 78/172/31 73/173/31
f 73/154/3 78/174/3 76/175/3 69/155/3
f 71/151/2 75/166/2 77/169/2 74/152/2
f 69/155/3 80/176/3 81/177/3 70/156/3
f 70/164/29 81/178/29 82/179/29 72/165/29
f 80/180/28 79/181/28 82/182/28 81/183/28
f 71/161/30 79/184/30 80/185/30 69/158/30
f 89/186/2 88/187/2 96/188/2 99/189/2
f 88/187/2 89/186/2 85/190/2 91/191/2
f 90/192/3 84/193/3 87/194/3 86/195/3
f 86/196/32 88/197/32 92/198/32 93/199/32
f 85/200/33 89/201/33 87/202/33 84/203/33
f 92/204/34 94/205/34 95/206/34 93/207/34
f 91/208/35 90/209/35 95/210/35 94/211/35
f 90/192/3 86/195/3 93/212/3 95/213/3
f 88/187/2 91/191/2 94/205/2 92/204/2
f 86/195/3 87/194/3 98/214/3 97/215/3
f 87/202/33 89/201/33 99/216/33 98/217/33
f 97/218/32 98/219/32 99/220/32 96/221/32
f 88/197/34 86/196/34 97/222/34 96/223/34
usemtl CHIMERITE
f 50/224/36 52/225/36 51/226/36
f 53/227/37 54/228/37 50/229/37
f 51/230/38 53/231/38 50/232/38
f 54/233/39 52/234/39 50/235/39
usemtl BOSS_TROPHY_COUNCIL_TEXT
f 103/236/2 101/237/2 100/238/2 102/239/2
