# Blender v2.80 (sub 75) OBJ File: 'boss_trophies.blend'
# www.blender.org
mtllib boss_trophy_fey_winter_2.mtl
o BOSS_TROPHY_FEY_WINTER_2_Plane.008
v 1.043734 0.328125 0.725222
v -0.043734 0.234375 0.274778
v 0.274778 0.328125 1.043734
v 0.725222 0.328125 1.043734
v 1.043734 0.234375 0.725222
v -0.043734 0.328125 0.274778
v 0.274778 0.234375 -0.043734
v 1.043734 0.328125 0.274778
v 0.725222 0.234375 -0.043734
v 1.043734 0.234375 0.274778
v 0.725222 0.234375 1.043734
v -0.043734 0.328125 0.725222
v 0.725222 0.328125 -0.043734
v 0.274778 0.328125 -0.043734
v 0.274778 0.234375 1.043734
v -0.043734 0.234375 0.725222
v 0.999540 0.125000 0.274778
v 0.999540 0.250000 0.318972
v 0.955346 0.250000 0.274778
v 1.043734 0.250000 0.274778
v 0.999540 0.250000 0.230584
v 0.866957 0.250000 0.186390
v 0.911152 0.250000 0.230584
v 0.911152 0.187500 0.186390
v 0.955346 0.250000 0.186390
v 0.911152 0.250000 0.142195
v 0.000460 0.125000 0.725222
v 0.000460 0.250000 0.681028
v 0.044654 0.250000 0.725222
v -0.043734 0.250000 0.725222
v 0.000460 0.250000 0.769416
v 0.133043 0.250000 0.813611
v 0.088848 0.250000 0.769416
v 0.088848 0.187500 0.813610
v 0.044654 0.250000 0.813610
v 0.088848 0.250000 0.857805
v 0.725222 0.125000 0.999540
v 0.681028 0.250000 0.999540
v 0.725222 0.250000 0.955346
v 0.725222 0.250000 1.043734
v 0.769416 0.250000 0.999540
v 0.813611 0.250000 0.866957
v 0.769416 0.250000 0.911152
v 0.813611 0.187500 0.911152
v 0.813611 0.250000 0.955346
v 0.857805 0.250000 0.911152
v 0.274778 0.125000 0.000460
v 0.318972 0.250000 0.000460
v 0.274778 0.250000 0.044654
v 0.274778 0.250000 -0.043734
v 0.230584 0.250000 0.000460
v 0.186389 0.250000 0.133043
v 0.230584 0.250000 0.088848
v 0.186389 0.187500 0.088848
v 0.186389 0.250000 0.044654
v 0.142195 0.250000 0.088848
v 1.012484 0.125000 0.693972
v 0.981234 0.250000 0.725222
v 0.981234 0.250000 0.662722
v 1.043734 0.250000 0.725222
v 1.043734 0.250000 0.662722
v 1.012484 0.187500 0.506472
v 0.981234 0.250000 0.537722
v 0.981234 0.250000 0.475222
v 1.043734 0.250000 0.537722
v 1.043734 0.250000 0.475222
v 1.012484 0.187500 0.443972
v 0.981234 0.250000 0.475222
v 0.981234 0.250000 0.412722
v 1.043734 0.250000 0.475222
v 1.043734 0.250000 0.412722
v -0.012484 0.125000 0.306028
v 0.018766 0.250000 0.274778
v 0.018766 0.250000 0.337278
v -0.043734 0.250000 0.274778
v -0.043734 0.250000 0.337278
v -0.012484 0.187500 0.493528
v 0.018766 0.250000 0.462278
v 0.018766 0.250000 0.524778
v -0.043734 0.250000 0.462278
v -0.043734 0.250000 0.524778
v -0.012484 0.187500 0.556028
v 0.018766 0.250000 0.524778
v 0.018766 0.250000 0.587278
v -0.043734 0.250000 0.524778
v -0.043734 0.250000 0.587278
v 0.306028 0.125000 1.012484
v 0.274778 0.250000 0.981234
v 0.337278 0.250000 0.981234
v 0.274778 0.250000 1.043734
v 0.337278 0.250000 1.043734
v 0.493528 0.187500 1.012484
v 0.462278 0.250000 0.981234
v 0.524778 0.250000 0.981234
v 0.462278 0.250000 1.043734
v 0.524778 0.250000 1.043734
v 0.556028 0.187500 1.012484
v 0.524778 0.250000 0.981234
v 0.587278 0.250000 0.981234
v 0.524778 0.250000 1.043734
v 0.587278 0.250000 1.043734
v 0.693972 0.125000 -0.012484
v 0.725222 0.250000 0.018766
v 0.662722 0.250000 0.018766
v 0.725222 0.250000 -0.043734
v 0.662722 0.250000 -0.043734
v 0.506472 0.187500 -0.012484
v 0.537722 0.250000 0.018766
v 0.475222 0.250000 0.018766
v 0.537722 0.250000 -0.043734
v 0.475222 0.250000 -0.043734
v 0.443972 0.187500 -0.012484
v 0.475222 0.250000 0.018766
v 0.412722 0.250000 0.018766
v 0.475222 0.250000 -0.043734
v 0.412722 0.250000 -0.043734
v 0.355691 0.328125 0.151608
v 0.151608 0.328125 0.644309
v 0.644309 0.328125 0.848392
v 0.151608 0.328125 0.355692
v 0.848392 0.328125 0.644309
v 0.355692 0.328125 0.848392
v 0.848392 0.328125 0.355691
v 0.644309 0.328125 0.151608
v 0.091682 0.234375 0.330869
v 0.669131 0.234375 0.908317
v 0.908318 0.234375 0.330869
v 0.330869 0.234375 0.908318
v 0.091683 0.234375 0.669131
v 0.669131 0.234375 0.091682
v 0.908318 0.234375 0.669131
v 0.330869 0.234375 0.091683
vt 0.687500 0.948223
vt 0.562500 1.000000
vt 0.562500 0.562500
vt 0.687500 0.614277
vt 0.500000 0.562500
vt 0.500000 1.000000
vt 0.562500 1.000000
vt 0.562500 0.562500
vt 0.687500 0.614277
vt 0.562500 0.562500
vt 0.500000 1.000000
vt 0.500000 0.562500
vt 0.562500 0.562500
vt 0.562500 1.000000
vt 0.562500 1.000000
vt 0.687500 0.948223
vt 0.500000 0.562500
vt 0.562500 0.562500
vt 0.562500 0.562500
vt 0.687500 0.614277
vt 0.500000 1.000000
vt 0.500000 0.562500
vt 0.562500 0.562500
vt 0.562500 1.000000
vt 0.562500 1.000000
vt 0.687500 0.948223
vt 0.562500 0.562500
vt 0.687500 0.614277
vt 0.562500 1.000000
vt 0.687500 0.948223
vt 0.500000 1.000000
vt 0.562500 1.000000
vt 0.687500 0.375000
vt 0.687500 0.500000
vt 0.625000 0.500000
vt 0.687500 0.500000
vt 0.625000 0.500000
vt 0.687500 0.500000
vt 0.625000 0.500000
vt 0.687500 0.500000
vt 0.625000 0.500000
vt 0.687500 0.375000
vt 0.687500 0.437500
vt 0.625000 0.437500
vt 0.687500 0.437500
vt 0.625000 0.437500
vt 0.687500 0.437500
vt 0.625000 0.437500
vt 0.687500 0.437500
vt 0.625000 0.437500
vt 0.687500 0.375000
vt 0.687500 0.500000
vt 0.625000 0.500000
vt 0.687500 0.500000
vt 0.625000 0.500000
vt 0.687500 0.500000
vt 0.625000 0.500000
vt 0.687500 0.500000
vt 0.625000 0.500000
vt 0.687500 0.375000
vt 0.687500 0.437500
vt 0.625000 0.437500
vt 0.687500 0.437500
vt 0.625000 0.437500
vt 0.687500 0.437500
vt 0.625000 0.437500
vt 0.687500 0.437500
vt 0.625000 0.437500
vt 0.687500 0.375000
vt 0.687500 0.500000
vt 0.625000 0.500000
vt 0.687500 0.500000
vt 0.625000 0.500000
vt 0.687500 0.500000
vt 0.625000 0.500000
vt 0.687500 0.500000
vt 0.625000 0.500000
vt 0.687500 0.375000
vt 0.687500 0.437500
vt 0.625000 0.437500
vt 0.687500 0.437500
vt 0.625000 0.437500
vt 0.687500 0.437500
vt 0.625000 0.437500
vt 0.687500 0.437500
vt 0.625000 0.437500
vt 0.687500 0.375000
vt 0.687500 0.500000
vt 0.625000 0.500000
vt 0.687500 0.500000
vt 0.625000 0.500000
vt 0.687500 0.500000
vt 0.625000 0.500000
vt 0.687500 0.500000
vt 0.625000 0.500000
vt 0.687500 0.375000
vt 0.687500 0.437500
vt 0.625000 0.437500
vt 0.687500 0.437500
vt 0.625000 0.437500
vt 0.687500 0.437500
vt 0.625000 0.437500
vt 0.687500 0.437500
vt 0.625000 0.437500
vt 0.687500 0.375000
vt 0.687500 0.500000
vt 0.625000 0.500000
vt 0.687500 0.500000
vt 0.625000 0.500000
vt 0.687500 0.500000
vt 0.625000 0.500000
vt 0.687500 0.500000
vt 0.625000 0.500000
vt 0.687500 0.375000
vt 0.687500 0.437500
vt 0.625000 0.437500
vt 0.687500 0.437500
vt 0.625000 0.437500
vt 0.687500 0.437500
vt 0.625000 0.437500
vt 0.687500 0.437500
vt 0.625000 0.437500
vt 0.687500 0.375000
vt 0.687500 0.437500
vt 0.625000 0.437500
vt 0.687500 0.437500
vt 0.625000 0.437500
vt 0.687500 0.437500
vt 0.625000 0.437500
vt 0.687500 0.437500
vt 0.625000 0.437500
vt 0.687500 0.375000
vt 0.687500 0.500000
vt 0.625000 0.500000
vt 0.687500 0.500000
vt 0.625000 0.500000
vt 0.687500 0.500000
vt 0.625000 0.500000
vt 0.687500 0.500000
vt 0.625000 0.500000
vt 0.687500 0.375000
vt 0.687500 0.437500
vt 0.625000 0.437500
vt 0.687500 0.437500
vt 0.625000 0.437500
vt 0.687500 0.437500
vt 0.625000 0.437500
vt 0.687500 0.437500
vt 0.625000 0.437500
vt 0.687500 0.375000
vt 0.687500 0.437500
vt 0.625000 0.437500
vt 0.687500 0.437500
vt 0.625000 0.437500
vt 0.687500 0.437500
vt 0.625000 0.437500
vt 0.687500 0.437500
vt 0.625000 0.437500
vt 0.687500 0.375000
vt 0.687500 0.500000
vt 0.625000 0.500000
vt 0.687500 0.500000
vt 0.625000 0.500000
vt 0.687500 0.500000
vt 0.625000 0.500000
vt 0.687500 0.500000
vt 0.625000 0.500000
vt 0.687500 0.375000
vt 0.687500 0.437500
vt 0.625000 0.437500
vt 0.687500 0.437500
vt 0.625000 0.437500
vt 0.687500 0.437500
vt 0.625000 0.437500
vt 0.687500 0.437500
vt 0.625000 0.437500
vt 0.687500 0.375000
vt 0.687500 0.437500
vt 0.625000 0.437500
vt 0.687500 0.437500
vt 0.625000 0.437500
vt 0.687500 0.437500
vt 0.625000 0.437500
vt 0.687500 0.437500
vt 0.625000 0.437500
vt 0.687500 0.375000
vt 0.687500 0.500000
vt 0.625000 0.500000
vt 0.687500 0.500000
vt 0.625000 0.500000
vt 0.687500 0.500000
vt 0.625000 0.500000
vt 0.687500 0.500000
vt 0.625000 0.500000
vt 0.687500 0.375000
vt 0.687500 0.437500
vt 0.625000 0.437500
vt 0.687500 0.437500
vt 0.625000 0.437500
vt 0.687500 0.437500
vt 0.625000 0.437500
vt 0.687500 0.437500
vt 0.625000 0.437500
vt 0.687500 0.375000
vt 0.687500 0.437500
vt 0.625000 0.437500
vt 0.687500 0.437500
vt 0.625000 0.437500
vt 0.687500 0.437500
vt 0.625000 0.437500
vt 0.687500 0.437500
vt 0.625000 0.437500
vt 0.500000 1.000000
vt 0.687500 0.921538
vt 0.687500 0.640962
vt 0.500000 0.562500
vt 0.500000 0.562500
vt 0.687500 0.640962
vt 0.500000 1.000000
vt 0.687500 0.921538
vt 0.687500 0.640962
vt 0.500000 0.562500
vt 0.687500 0.921538
vt 0.500000 1.000000
vt 0.687500 0.921538
vt 0.500000 1.000000
vt 0.500000 0.562500
vt 0.687500 0.640962
vn 0.0000 -1.0000 -0.0000
vn 1.0000 0.0000 -0.0000
vn -0.7071 0.0000 -0.7071
vn -0.0000 0.0000 -1.0000
vn -0.7071 0.0000 0.7071
vn -1.0000 0.0000 0.0000
vn 0.0000 0.0000 1.0000
vn 0.7071 0.0000 -0.7071
vn 0.7071 -0.0000 0.7071
vn -0.6860 -0.2425 0.6860
vn -0.6860 -0.2425 -0.6860
vn 0.6860 -0.2425 -0.6860
vn 0.6860 -0.2425 0.6860
vn 0.6325 -0.4472 -0.6325
vn -0.6325 -0.4472 0.6325
vn -0.6325 -0.4472 -0.6325
vn 0.6325 -0.4472 0.6325
vn -0.9701 -0.2425 0.0000
vn 0.0000 -0.2425 -0.9701
vn 0.9701 -0.2425 0.0000
vn 0.0000 -0.2425 0.9701
vn -0.8944 -0.4472 0.0000
vn 0.0000 -0.4472 -0.8944
vn 0.8944 -0.4472 0.0000
vn 0.0000 -0.4472 0.8944
vn 0.0000 1.0000 0.0000
usemtl BOSS_TROPHY_FEY
s off
f 126/1/1 11/2/1 15/3/1 128/4/1
f 5/5/2 10/6/2 8/7/2 1/8/2
f 131/9/1 5/10/1 11/2/1 126/1/1
f 7/11/3 2/12/3 6/13/3 14/14/3
f 128/4/1 15/3/1 16/15/1 129/16/1
f 9/17/4 7/11/4 14/14/4 13/18/4
f 129/16/1 16/15/1 2/19/1 125/20/1
f 16/21/5 15/22/5 3/23/5 12/24/5
f 125/20/1 2/19/1 7/25/1 132/26/1
f 2/12/6 16/21/6 12/24/6 6/13/6
f 132/26/1 7/25/1 9/27/1 130/28/1
f 130/28/1 9/27/1 10/29/1 127/30/1
f 15/22/7 11/31/7 4/32/7 3/23/7
f 127/30/1 10/29/1 5/10/1 131/9/1
f 10/6/8 9/17/8 13/18/8 8/7/8
f 11/31/9 5/5/9 1/8/9 4/32/9
f 17/33/10 18/34/10 19/35/10
f 17/33/11 19/36/11 21/37/11
f 17/33/12 21/38/12 20/39/12
f 17/33/13 20/40/13 18/41/13
f 24/42/14 26/43/14 25/44/14
f 24/42/15 23/45/15 22/46/15
f 24/42/16 22/47/16 26/48/16
f 24/42/17 25/49/17 23/50/17
f 27/51/12 28/52/12 29/53/12
f 27/51/13 29/54/13 31/55/13
f 27/51/10 31/56/10 30/57/10
f 27/51/11 30/58/11 28/59/11
f 34/60/15 36/61/15 35/62/15
f 34/60/14 33/63/14 32/64/14
f 34/60/17 32/65/17 36/66/17
f 34/60/16 35/67/16 33/68/16
f 37/69/11 38/70/11 39/71/11
f 37/69/12 39/72/12 41/73/12
f 37/69/13 41/74/13 40/75/13
f 37/69/10 40/76/10 38/77/10
f 44/78/17 46/79/17 45/80/17
f 44/78/16 43/81/16 42/82/16
f 44/78/14 42/83/14 46/84/14
f 44/78/15 45/85/15 43/86/15
f 47/87/13 48/88/13 49/89/13
f 47/87/10 49/90/10 51/91/10
f 47/87/11 51/92/11 50/93/11
f 47/87/12 50/94/12 48/95/12
f 54/96/16 56/97/16 55/98/16
f 54/96/17 53/99/17 52/100/17
f 54/96/15 52/101/15 56/102/15
f 54/96/14 55/103/14 53/104/14
f 57/105/18 58/106/18 59/107/18
f 57/105/19 59/108/19 61/109/19
f 57/105/20 61/110/20 60/111/20
f 57/105/21 60/112/21 58/113/21
f 62/114/22 63/115/22 64/116/22
f 62/114/23 64/117/23 66/118/23
f 62/114/24 66/119/24 65/120/24
f 62/114/25 65/121/25 63/122/25
f 67/123/22 68/124/22 69/125/22
f 67/123/23 69/126/23 71/127/23
f 67/123/24 71/128/24 70/129/24
f 67/123/25 70/130/25 68/131/25
f 72/132/20 73/133/20 74/134/20
f 72/132/21 74/135/21 76/136/21
f 72/132/18 76/137/18 75/138/18
f 72/132/19 75/139/19 73/140/19
f 77/141/24 78/142/24 79/143/24
f 77/141/25 79/144/25 81/145/25
f 77/141/22 81/146/22 80/147/22
f 77/141/23 80/148/23 78/149/23
f 82/150/24 83/151/24 84/152/24
f 82/150/25 84/153/25 86/154/25
f 82/150/22 86/155/22 85/156/22
f 82/150/23 85/157/23 83/158/23
f 87/159/19 88/160/19 89/161/19
f 87/159/20 89/162/20 91/163/20
f 87/159/21 91/164/21 90/165/21
f 87/159/18 90/166/18 88/167/18
f 92/168/23 93/169/23 94/170/23
f 92/168/24 94/171/24 96/172/24
f 92/168/25 96/173/25 95/174/25
f 92/168/22 95/175/22 93/176/22
f 97/177/23 98/178/23 99/179/23
f 97/177/24 99/180/24 101/181/24
f 97/177/25 101/182/25 100/183/25
f 97/177/22 100/184/22 98/185/22
f 102/186/21 103/187/21 104/188/21
f 102/186/18 104/189/18 106/190/18
f 102/186/19 106/191/19 105/192/19
f 102/186/20 105/193/20 103/194/20
f 107/195/25 108/196/25 109/197/25
f 107/195/22 109/198/22 111/199/22
f 107/195/23 111/200/23 110/201/23
f 107/195/24 110/202/24 108/203/24
f 112/204/25 113/205/25 114/206/25
f 112/204/22 114/207/22 116/208/22
f 112/204/23 116/209/23 115/210/23
f 112/204/24 115/211/24 113/212/24
f 12/213/26 118/214/26 120/215/26 6/216/26
f 3/217/26 122/218/26 118/214/26 12/213/26
f 14/219/26 117/220/26 124/221/26 13/222/26
f 123/223/26 8/224/26 13/222/26 124/221/26
f 119/225/26 4/226/26 1/227/26 121/228/26
f 1/227/26 8/224/26 123/223/26 121/228/26
f 117/220/26 14/219/26 6/216/26 120/215/26
f 122/218/26 3/217/26 4/226/26 119/225/26
