# Blender v2.80 (sub 75) OBJ File: 'boss_trophies.blend'
# www.blender.org
mtllib boss_trophy_fey_summer_1.mtl
o BOSS_TROPHY_FEY_SUMMER_1_Plane.013
v 1.043734 0.328125 0.725222
v -0.043734 0.234375 0.274778
v 0.274778 0.328125 1.043734
v 0.725222 0.328125 1.043734
v 1.043734 0.234375 0.725222
v -0.043734 0.328125 0.274778
v 0.274778 0.234375 -0.043734
v 1.043734 0.328125 0.274778
v 0.725222 0.234375 -0.043734
v 1.043734 0.234375 0.274778
v 0.725222 0.234375 1.043734
v -0.043734 0.328125 0.725222
v 0.725222 0.328125 -0.043734
v 0.274778 0.328125 -0.043734
v 0.274778 0.234375 1.043734
v -0.043734 0.234375 0.725222
v 0.976012 0.171875 0.302829
v 0.302829 0.234375 0.976013
v 0.976012 0.234375 0.302829
v 0.697171 0.234375 0.976012
v 0.302829 0.171875 0.023988
v 0.302829 0.234375 0.023988
v 0.023987 0.171875 0.302829
v 0.023987 0.234375 0.302829
v 0.023988 0.234375 0.697171
v 0.023988 0.171875 0.697171
v 0.697171 0.171875 0.023987
v 0.697171 0.234375 0.023988
v 0.976012 0.234375 0.697171
v 0.697171 0.171875 0.976012
v 0.976012 0.171875 0.697171
v 0.302829 0.171875 0.976013
v 0.302824 0.234375 0.023974
v 0.976026 0.234375 0.697176
v 0.697176 0.234375 0.023974
v 0.023974 0.234375 0.697176
v 0.302824 0.234375 0.976026
v 0.976026 0.234375 0.302824
v 0.697176 0.234375 0.976026
v 0.023974 0.234375 0.302824
v 0.328720 0.328125 0.086494
v 0.301749 0.328125 0.021380
v 0.671280 0.328125 0.913506
v 0.698251 0.328125 0.978620
v 0.086494 0.328125 0.328720
v 0.021380 0.328125 0.301749
v 0.328720 0.328125 0.913506
v 0.301749 0.328125 0.978620
v 0.913506 0.328125 0.328720
v 0.978620 0.328125 0.301749
v 0.671280 0.328125 0.086494
v 0.698251 0.328125 0.021380
v 0.021380 0.328125 0.698251
v 0.086494 0.328125 0.671280
v 0.978620 0.328125 0.698251
v 0.913506 0.328125 0.671280
vt 0.937500 0.974111
vt 0.875000 1.000000
vt 0.875000 0.562500
vt 0.937500 0.588388
vt 0.812500 0.562500
vt 0.812500 1.000000
vt 0.875000 1.000000
vt 0.875000 0.562500
vt 0.812500 1.000000
vt 0.812500 0.562500
vt 0.875000 0.562500
vt 0.875000 1.000000
vt 0.875000 1.000000
vt 0.937500 0.974111
vt 0.812500 0.562500
vt 0.875000 0.562500
vt 0.875000 0.562500
vt 0.937500 0.588388
vt 0.812500 1.000000
vt 0.812500 0.562500
vt 0.875000 0.562500
vt 0.875000 1.000000
vt 0.875000 1.000000
vt 0.937500 0.974112
vt 0.875000 0.588654
vt 0.812500 0.562500
vt 0.812500 1.000000
vt 0.875000 0.973846
vt 0.875000 0.562500
vt 0.937500 0.588388
vt 0.875000 0.973846
vt 0.812500 1.000000
vt 0.812500 0.562500
vt 0.875000 0.588654
vt 0.875000 1.000000
vt 0.937500 0.974112
vt 0.875000 0.588654
vt 0.812500 0.562500
vt 0.812500 1.000000
vt 0.875000 0.973846
vt 0.812500 1.000000
vt 0.875000 1.000000
vt 0.875000 0.562500
vt 0.937500 0.588388
vt 0.937500 0.972755
vt 0.875000 0.972755
vt 0.875000 0.589745
vt 0.937500 0.589745
vt 0.937500 0.972755
vt 0.875000 0.972755
vt 0.875000 0.589745
vt 0.937500 0.589745
vt 0.937500 0.972755
vt 0.875000 0.972755
vt 0.875000 0.589745
vt 0.937500 0.589745
vt 0.937500 0.972755
vt 0.875000 0.972755
vt 0.875000 0.589745
vt 0.937500 0.589745
vt 0.812500 0.562500
vt 0.875000 0.588654
vt 0.812500 1.000000
vt 0.875000 0.973846
vt 0.937500 0.947692
vt 0.937500 0.614808
vt 0.937500 0.947692
vt 0.937500 0.614808
vt 0.937500 0.947692
vt 0.937500 0.614808
vt 0.937500 0.947692
vt 0.937500 0.614808
vn 0.0000 -1.0000 -0.0000
vn 1.0000 0.0000 -0.0000
vn -0.7071 0.0000 -0.7071
vn -0.0000 0.0000 -1.0000
vn -0.7071 0.0000 0.7071
vn -0.0000 1.0000 0.0000
vn -1.0000 0.0000 0.0000
vn 0.0000 0.0000 1.0000
vn 0.7071 0.0000 -0.7071
vn 0.7071 -0.0000 0.7071
usemtl BOSS_TROPHY_FEY
s off
f 39/1/1 11/2/1 15/3/1 37/4/1
f 5/5/2 10/6/2 8/7/2 1/8/2
f 7/9/3 2/10/3 6/11/3 14/12/3
f 37/4/1 15/3/1 16/13/1 36/14/1
f 9/15/4 7/9/4 14/12/4 13/16/4
f 36/14/1 16/13/1 2/17/1 40/18/1
f 16/19/5 15/20/5 3/21/5 12/22/5
f 40/18/1 2/17/1 7/23/1 33/24/1
f 48/25/6 3/26/6 4/27/6 44/28/6
f 2/10/7 16/19/7 12/22/7 6/11/7
f 33/24/1 7/23/1 9/29/1 35/30/1
f 42/31/6 14/32/6 6/33/6 46/34/6
f 35/30/1 9/29/1 10/35/1 38/36/1
f 55/37/6 1/38/6 8/39/6 50/40/6
f 15/20/8 11/41/8 4/42/8 3/21/8
f 38/36/1 10/35/1 5/43/1 34/44/1
f 10/6/9 9/15/9 13/16/9 8/7/9
f 44/28/6 4/27/6 1/38/6 55/37/6
f 11/41/10 5/5/10 1/8/10 4/42/10
f 21/45/4 22/46/4 28/47/4 27/48/4
f 17/49/2 19/50/2 29/51/2 31/52/2
f 30/53/8 20/54/8 18/55/8 32/56/8
f 26/57/7 25/58/7 24/59/7 23/60/7
f 50/40/6 8/39/6 13/61/6 52/62/6
f 34/44/1 5/43/1 11/2/1 39/1/1
f 12/63/6 53/64/6 46/34/6 6/33/6
f 53/64/6 54/65/6 45/66/6 46/34/6
f 49/67/6 50/40/6 52/62/6 51/68/6
f 14/32/6 42/31/6 52/62/6 13/61/6
f 42/31/6 41/69/6 51/68/6 52/62/6
f 3/26/6 48/25/6 53/64/6 12/63/6
f 48/25/6 47/70/6 54/65/6 53/64/6
f 43/71/6 44/28/6 55/37/6 56/72/6
f 56/72/6 55/37/6 50/40/6 49/67/6
f 41/69/6 42/31/6 46/34/6 45/66/6
f 47/70/6 48/25/6 44/28/6 43/71/6
