# Blender v2.80 (sub 75) OBJ File: 'boss_trophies.blend'
# www.blender.org
mtllib boss_trophy_undead_water.mtl
o BOSS_TROPHY_UNDEAD_WATER_Cube.003
v 0.500000 0.375000 0.581491
v 0.671393 0.375000 0.284630
v 0.842785 0.375000 0.581491
v 0.328607 0.375000 0.284630
v 0.157215 0.375000 0.581491
v 0.671393 0.375000 0.878351
v 0.328607 0.375000 0.878351
v 0.375000 0.515009 0.381484
v 0.625000 0.515009 0.381484
v 0.375000 0.515009 0.256484
v 0.625000 0.515009 0.256484
v 0.375000 0.452509 0.443984
v 0.625000 0.452509 0.443984
v 0.375000 0.390009 0.443984
v 0.625000 0.390009 0.443984
vt 0.841142 0.671358
vt 0.841142 0.328642
vt 0.562500 0.500000
vt 0.809892 0.358858
vt 0.809892 0.016142
vt 0.531250 0.187500
vt 0.872392 0.983858
vt 0.872392 0.641142
vt 0.593750 0.812500
vt 0.341142 0.358858
vt 0.341142 0.016142
vt 0.062500 0.187500
vt 0.309892 0.671358
vt 0.309892 0.328642
vt 0.031250 0.500000
vt 0.278642 0.983858
vt 0.278642 0.641142
vt 0.000000 0.812500
vt 0.625000 0.406250
vt 0.875000 0.406250
vt 0.875000 0.531250
vt 0.625000 0.531250
vt 0.625000 0.343750
vt 0.875000 0.343750
vt 0.625000 0.281250
vt 0.875000 0.281250
vn 0.0000 1.0000 -0.0000
vn 0.0000 0.7071 0.7071
vn 0.0000 0.0000 1.0000
usemtl WATER
s off
f 2/1/1 4/2/1 1/3/1
f 4/4/1 5/5/1 1/6/1
f 3/7/1 2/8/1 1/9/1
f 6/10/1 3/11/1 1/12/1
f 7/13/1 6/14/1 1/15/1
f 5/16/1 7/17/1 1/18/1
f 8/19/1 9/20/1 11/21/1 10/22/1
f 9/20/2 8/19/2 12/23/2 13/24/2
f 13/24/3 12/23/3 14/25/3 15/26/3
