# Blender v2.80 (sub 75) OBJ File: 'boss_trophies.blend'
# www.blender.org
mtllib boss_trophy_fey.mtl
o BOSS_TROPHY_FEY_Plane
v 0.511643 0.312500 0.528109
v 0.718750 0.312500 1.028109
v 0.666973 0.312500 0.903109
v 0.679917 0.281250 0.934359
v 0.358915 0.250000 0.840609
v 0.965609 0.312500 0.692862
v 0.692862 0.312500 0.965609
v 0.718750 0.250000 1.028109
v 0.840609 0.250000 0.641085
v 0.641085 0.250000 0.840609
v 0.528109 0.312500 0.488357
v 1.028109 0.312500 0.718750
v 0.528109 0.312500 0.511643
v 1.028109 0.250000 0.718750
v 0.903109 0.312500 0.666973
v 0.934359 0.281250 0.679917
v 0.692862 0.312500 0.034391
v 0.965609 0.312500 0.307138
v 0.511643 0.312500 0.471891
v 1.028109 0.312500 0.281250
v 1.028109 0.250000 0.281250
v 0.666973 0.312500 0.096891
v 0.903109 0.312500 0.333027
v 0.934359 0.281250 0.320083
v 0.641085 0.250000 0.159391
v 0.840609 0.250000 0.358915
v 0.488357 0.312500 0.471891
v 0.718750 0.312500 -0.028109
v 0.718750 0.250000 -0.028109
v 0.679917 0.281250 0.065641
v 0.358915 0.250000 0.159391
v 0.307138 0.312500 0.034391
v 0.281250 0.312500 -0.028109
v 0.281250 0.250000 -0.028109
v 0.333027 0.312500 0.096891
v 0.320082 0.281250 0.065641
v 0.034391 0.312500 0.307138
v -0.028109 0.312500 0.281250
v 0.471891 0.312500 0.488357
v -0.028109 0.250000 0.281250
v 0.096891 0.312500 0.333027
v 0.065641 0.281250 0.679918
v 0.065641 0.281250 0.320083
v 0.159391 0.250000 0.358915
v 0.307138 0.312500 0.965609
v 0.034391 0.312500 0.692862
v 0.488357 0.312500 0.528109
v 0.281250 0.312500 1.028109
v -0.028109 0.312500 0.718750
v 0.471891 0.312500 0.511643
v -0.028109 0.250000 0.718750
v 0.333027 0.312500 0.903109
v 0.096891 0.312500 0.666973
v 0.320083 0.281250 0.934359
v 0.281250 0.250000 1.028109
v 0.159391 0.250000 0.641085
v 0.630206 0.187500 0.203288
v 0.630206 0.062500 0.203288
v 0.380206 0.062500 0.203288
v 0.380206 0.187500 0.203288
v 0.203316 0.187500 0.380178
v 0.203316 0.062500 0.380178
v 0.203316 0.062500 0.630178
v 0.203316 0.187500 0.630178
v 0.380206 0.187500 0.807068
v 0.380206 0.062500 0.807068
v 0.630206 0.062500 0.807068
v 0.630206 0.187500 0.807068
v 0.807096 0.187500 0.630178
v 0.807096 0.062500 0.630178
v 0.807096 0.187500 0.380178
v 0.807096 0.062500 0.380178
v 0.807096 0.000000 0.380178
v 0.807096 0.000000 0.630178
v 0.630206 0.000000 0.807068
v 0.380206 0.000000 0.807068
v 0.203316 0.000000 0.630178
v 0.203316 0.000000 0.380178
v 0.380206 0.000000 0.203288
v 0.630206 0.000000 0.203288
v 0.851290 0.250000 0.335983
v 0.851290 0.250000 0.674372
v 0.674400 0.250000 0.851262
v 0.336012 0.250000 0.851262
v 0.159122 0.250000 0.674372
v 0.159122 0.250000 0.335984
v 0.336012 0.250000 0.159094
v 0.674400 0.250000 0.159094
v 0.674400 0.062500 0.851262
v 0.851290 0.062500 0.674372
v 0.718594 0.000000 0.895456
v 0.895484 0.000000 0.718566
v 0.851290 0.062500 0.335983
v 0.674400 0.062500 0.159094
v 0.718594 0.000000 0.114899
v 0.895484 0.000000 0.291789
v 0.336012 0.062500 0.159094
v 0.159122 0.062500 0.335984
v 0.291817 0.000000 0.114900
v 0.114928 0.000000 0.291789
v 0.159122 0.062500 0.674372
v 0.336012 0.062500 0.851262
v 0.291818 0.000000 0.895456
v 0.114928 0.000000 0.718566
v 0.505206 0.000000 0.505178
v 0.630206 0.250000 0.140788
v 0.380206 0.250000 0.140788
v 0.140816 0.250000 0.380178
v 0.140816 0.250000 0.630178
v 0.380206 0.250000 0.869568
v 0.630206 0.250000 0.869568
v 0.869596 0.250000 0.630178
v 0.869596 0.250000 0.380178
v 0.468750 0.375000 0.531250
v 0.500000 0.750000 0.156250
v 0.468750 0.375000 0.468750
v 0.500000 0.687500 0.156250
v 0.531250 0.375000 0.531250
v 0.531250 0.375000 0.468750
v 0.468750 0.312500 0.468750
v 0.468750 0.312500 0.531250
v 0.531250 0.312500 0.468750
v 0.531250 0.312500 0.531250
v 0.500000 0.312500 0.343750
v 0.500000 0.375000 0.343750
vt 0.000000 0.000000
vt 0.437500 0.000000
vt 0.437500 0.062500
vt 0.000000 0.062500
vt 0.411611 0.125000
vt 0.025889 0.125000
vt 0.230392 0.562500
vt 0.207108 0.562500
vt 0.051778 0.187500
vt 0.385722 0.187500
vt 0.038833 0.156250
vt 0.398667 0.156250
vt 0.187500 0.640165
vt 0.000000 0.562500
vt 0.000000 1.000000
vt 0.187500 0.922334
vt 0.000000 0.000000
vt 0.000000 0.062500
vt 0.025889 0.125000
vt 0.207108 0.562500
vt 0.051778 0.187500
vt 0.038833 0.156250
vt 0.187500 0.922335
vt 0.000000 1.000000
vt 0.437500 0.000000
vt 0.437500 0.062500
vt 0.411611 0.125000
vt 0.230392 0.562500
vt 0.385722 0.187500
vt 0.398667 0.156250
vt 0.187500 0.640165
vt 0.000000 0.562500
vt 0.000000 0.000000
vt 0.000000 0.062500
vt 0.025889 0.125000
vt 0.207108 0.562500
vt 0.051778 0.187500
vt 0.038833 0.156250
vt 0.187500 0.922335
vt 0.000000 1.000000
vt 0.437500 0.000000
vt 0.437500 0.062500
vt 0.411611 0.125000
vt 0.230392 0.562500
vt 0.385722 0.187500
vt 0.398667 0.156250
vt 0.187500 0.640165
vt 0.000000 0.562500
vt 0.000000 0.000000
vt 0.000000 0.062500
vt 0.025889 0.125000
vt 0.207108 0.562500
vt 0.051778 0.187500
vt 0.038833 0.156250
vt 0.187500 0.922335
vt 0.000000 1.000000
vt 0.437500 0.000000
vt 0.437500 0.062500
vt 0.411611 0.125000
vt 0.230392 0.562500
vt 0.385722 0.187500
vt 0.398667 0.156250
vt 0.187500 0.640165
vt 0.000000 0.562500
vt 0.437500 0.937500
vt 0.187500 0.937500
vt 0.187500 0.812500
vt 0.437500 0.812500
vt 0.437500 0.937500
vt 0.187500 0.937500
vt 0.187500 0.812500
vt 0.437500 0.812500
vt 0.437500 0.937500
vt 0.187500 0.937500
vt 0.187500 0.812500
vt 0.437500 0.812500
vt 0.437500 0.937500
vt 0.187500 0.937500
vt 0.187500 0.812500
vt 0.437500 0.812500
vt 0.437500 0.937500
vt 0.187500 0.937500
vt 0.187500 0.812500
vt 0.437500 0.812500
vt 0.437500 0.937500
vt 0.187500 0.937500
vt 0.187500 0.812500
vt 0.437500 0.812500
vt 0.437500 0.937500
vt 0.187500 0.937500
vt 0.187500 0.812500
vt 0.437500 0.812500
vt 0.437500 0.937500
vt 0.187500 0.937500
vt 0.187500 0.812500
vt 0.437500 0.812500
vt 0.375000 0.437500
vt 0.625000 0.437500
vt 0.625000 0.562500
vt 0.375000 0.562500
vt 0.312500 0.750000
vt 0.312500 0.687500
vt 0.437500 0.687500
vt 0.375000 0.750000
vt 0.312500 0.750000
vt 0.312500 0.687500
vt 0.437500 0.687500
vt 0.375000 0.750000
vt 0.312500 0.750000
vt 0.312500 0.687500
vt 0.437500 0.687500
vt 0.375000 0.750000
vt 0.187500 0.750000
vt 0.437500 0.750000
vt 0.187500 0.750000
vt 0.437500 0.750000
vt 0.187500 0.750000
vt 0.437500 0.750000
vt 0.187500 0.750000
vt 0.437500 0.750000
vt 0.437500 1.000000
vt 0.187500 1.000000
vt 0.437500 1.000000
vt 0.187500 1.000000
vt 0.437500 1.000000
vt 0.187500 1.000000
vt 0.437500 1.000000
vt 0.187500 1.000000
vt 0.437500 1.000000
vt 0.187500 1.000000
vt 0.437500 1.000000
vt 0.187500 1.000000
vt 0.437500 1.000000
vt 0.187500 1.000000
vt 0.437500 1.000000
vt 0.187500 1.000000
vt 0.437500 0.625000
vt 0.187500 0.625000
vt 0.187500 0.562500
vt 0.437500 0.562500
vt 0.375000 0.437500
vt 0.625000 0.437500
vt 0.625000 0.562500
vt 0.375000 0.562500
vt 0.437500 0.687500
vt 0.187500 0.687500
vt 0.312500 0.687500
vt 0.312500 0.750000
vt 0.250000 0.750000
vt 0.187500 0.687500
vt 0.437500 0.625000
vt 0.187500 0.625000
vt 0.187500 0.562500
vt 0.437500 0.562500
vt 0.312500 0.750000
vt 0.312500 0.687500
vt 0.437500 0.687500
vt 0.375000 0.750000
vt 0.437500 0.687500
vt 0.187500 0.687500
vt 0.312500 0.687500
vt 0.312500 0.750000
vt 0.250000 0.750000
vt 0.187500 0.687500
vt 0.437500 0.625000
vt 0.187500 0.625000
vt 0.187500 0.562500
vt 0.437500 0.562500
vt 0.437500 0.687500
vt 0.187500 0.687500
vt 0.312500 0.687500
vt 0.312500 0.750000
vt 0.250000 0.750000
vt 0.187500 0.687500
vt 0.375000 0.437500
vt 0.625000 0.437500
vt 0.625000 0.562500
vt 0.375000 0.562500
vt 0.437500 0.625000
vt 0.187500 0.625000
vt 0.187500 0.562500
vt 0.437500 0.562500
vt 0.437500 0.687500
vt 0.187500 0.687500
vt 0.375000 0.437500
vt 0.625000 0.437500
vt 0.625000 0.562500
vt 0.375000 0.562500
vt 0.312500 0.687500
vt 0.312500 0.750000
vt 0.250000 0.750000
vt 0.187500 0.687500
vt 0.500000 0.125000
vt 0.562500 -0.000000
vt 0.625000 0.062500
vt 0.562500 0.062500
vt 0.562500 -0.000000
vt 0.625000 0.062500
vt 0.562500 0.062500
vt 0.562500 -0.000000
vt 0.625000 0.062500
vt 0.562500 0.062500
vt 0.562500 -0.000000
vt 0.625000 0.062500
vt 0.562500 0.062500
vt 0.625000 0.062500
vt 0.562500 0.062500
vt 0.562500 -0.000000
vt 0.562500 -0.000000
vt 0.625000 0.062500
vt 0.562500 0.062500
vt 0.625000 0.062500
vt 0.562500 0.062500
vt 0.562500 -0.000000
vt 0.562500 -0.000000
vt 0.625000 0.062500
vt 0.562500 0.062500
vt 0.500000 0.062500
vt 0.875000 0.437500
vt 0.875000 0.375000
vt 0.562500 0.062500
vt 0.750000 0.062500
vt 0.937500 0.375000
vt 0.625000 0.062500
vt 0.562500 0.062500
vt 0.500000 0.062500
vt 1.000000 0.062500
vt 1.000000 0.437500
vt 0.937500 0.062500
vt 0.562500 0.000000
vt 0.500000 0.000000
vt 0.500000 0.000000
vt 0.562500 0.000000
vt 0.937500 0.000000
vt 1.000000 0.000000
vt 0.625000 0.000000
vt 0.750000 0.000000
vt 0.625000 0.062500
vt 0.625000 0.000000
vn 0.0000 -0.0000 1.0000
vn 0.0000 1.0000 0.0000
vn 0.0000 0.7071 0.7071
vn 0.0000 0.7071 -0.7071
vn 0.0000 -1.0000 0.0000
vn 0.7071 0.0000 0.7071
vn 0.5000 0.7071 0.5000
vn -0.5000 0.7071 -0.5000
vn 1.0000 0.0000 -0.0000
vn 0.7071 0.7071 0.0000
vn -0.7071 0.7071 0.0000
vn 0.7071 0.0000 -0.7071
vn 0.5000 0.7071 -0.5000
vn -0.5000 0.7071 0.5000
vn -0.0000 0.0000 -1.0000
vn -0.7071 0.0000 -0.7071
vn -1.0000 0.0000 0.0000
vn -0.7071 0.0000 0.7071
vn -0.5000 -0.7071 -0.5000
vn 0.0000 -0.7071 0.7071
vn 0.7071 -0.7071 -0.0000
vn -0.5000 -0.7071 0.5000
vn 0.0000 -0.7071 -0.7071
vn 0.5000 -0.7071 -0.5000
vn 0.5000 -0.7071 0.5000
vn -0.7071 -0.7071 0.0000
vn 0.2811 -0.6786 0.6786
vn 0.6786 -0.6786 0.2811
vn 0.6786 -0.6786 -0.2811
vn 0.2811 -0.6786 -0.6786
vn -0.2811 -0.6786 -0.6786
vn -0.6786 -0.6786 -0.2811
vn -0.6786 -0.6786 0.2811
vn -0.2811 -0.6786 0.6786
vn -0.9979 0.0454 -0.0454
vn 0.9600 -0.1440 -0.2400
vn 0.9979 0.0454 -0.0454
vn 0.9701 0.0000 -0.2425
vn -0.9701 0.0000 -0.2425
vn -0.9600 -0.1440 -0.2400
usemtl BOSS_TROPHY_FEY
s off
f 55/1/1 8/2/1 2/3/1 48/4/1
f 7/5/2 45/6/2 48/4/2 2/3/2
f 1/7/2 47/8/2 52/9/2 3/10/2
f 3/10/3 52/9/3 54/11/3 4/12/3
f 4/12/4 54/11/4 45/6/4 7/5/4
f 10/13/5 8/14/5 55/15/5 5/16/5
f 8/2/6 14/17/6 12/18/6 2/3/6
f 6/19/2 7/5/2 2/3/2 12/18/2
f 13/20/2 1/7/2 3/10/2 15/21/2
f 15/21/7 3/10/7 4/12/7 16/22/7
f 16/22/8 4/12/8 7/5/8 6/19/8
f 9/23/5 14/24/5 8/14/5 10/13/5
f 14/17/9 21/25/9 20/26/9 12/18/9
f 18/27/2 6/19/2 12/18/2 20/26/2
f 11/28/2 13/20/2 15/21/2 23/29/2
f 23/29/10 15/21/10 16/22/10 24/30/10
f 24/30/11 16/22/11 6/19/11 18/27/11
f 26/31/5 21/32/5 14/24/5 9/23/5
f 21/25/12 29/33/12 28/34/12 20/26/12
f 17/35/2 18/27/2 20/26/2 28/34/2
f 19/36/2 11/28/2 23/29/2 22/37/2
f 22/37/13 23/29/13 24/30/13 30/38/13
f 30/38/14 24/30/14 18/27/14 17/35/14
f 25/39/5 29/40/5 21/32/5 26/31/5
f 29/33/15 34/41/15 33/42/15 28/34/15
f 32/43/2 17/35/2 28/34/2 33/42/2
f 27/44/2 19/36/2 22/37/2 35/45/2
f 35/45/4 22/37/4 30/38/4 36/46/4
f 36/46/3 30/38/3 17/35/3 32/43/3
f 31/47/5 34/48/5 29/40/5 25/39/5
f 34/41/16 40/49/16 38/50/16 33/42/16
f 37/51/2 32/43/2 33/42/2 38/50/2
f 39/52/2 27/44/2 35/45/2 41/53/2
f 41/53/8 35/45/8 36/46/8 43/54/8
f 43/54/7 36/46/7 32/43/7 37/51/7
f 44/55/5 40/56/5 34/48/5 31/47/5
f 40/49/17 51/57/17 49/58/17 38/50/17
f 46/59/2 37/51/2 38/50/2 49/58/2
f 50/60/2 39/52/2 41/53/2 53/61/2
f 53/61/11 41/53/11 43/54/11 42/62/11
f 42/62/10 43/54/10 37/51/10 46/59/10
f 56/63/5 51/64/5 40/56/5 44/55/5
f 51/57/18 55/1/18 48/4/18 49/58/18
f 45/6/2 46/59/2 49/58/2 48/4/2
f 47/8/2 50/60/2 53/61/2 52/9/2
f 52/9/14 53/61/14 42/62/14 54/11/14
f 54/11/13 42/62/13 46/59/13 45/6/13
f 5/16/5 55/15/5 51/64/5 56/63/5
f 57/65/12 71/66/12 72/67/12 58/68/12
f 60/69/15 57/70/15 58/71/15 59/72/15
f 61/73/16 60/74/16 59/75/16 62/76/16
f 64/77/17 61/78/17 62/79/17 63/80/17
f 65/81/18 64/82/18 63/83/18 66/84/18
f 68/85/1 65/86/1 66/87/1 67/88/1
f 69/89/6 68/90/6 67/91/6 70/92/6
f 71/93/9 69/94/9 70/95/9 72/96/9
f 73/97/5 80/98/5 95/99/5 96/100/5
f 67/101/18 75/102/18 91/103/18 89/104/18
f 59/105/12 79/106/12 99/107/12 97/108/12
f 63/109/16 77/110/16 104/111/16 101/112/16
f 67/88/1 66/87/1 76/113/1 75/114/1
f 59/72/15 58/71/15 80/115/15 79/116/15
f 63/80/17 62/79/17 78/117/17 77/118/17
f 72/96/9 70/95/9 74/119/9 73/120/9
f 60/74/19 61/73/19 86/121/19 87/122/19
f 65/86/20 68/85/20 111/123/20 110/124/20
f 69/94/21 71/93/21 113/125/21 112/126/21
f 64/82/22 65/81/22 84/127/22 85/128/22
f 57/70/23 60/69/23 107/129/23 106/130/23
f 71/66/24 57/65/24 88/131/24 81/132/24
f 68/90/25 69/89/25 82/133/25 83/134/25
f 61/78/26 64/77/26 109/135/26 108/136/26
f 90/137/7 89/138/7 91/139/7 92/140/7
f 75/141/5 74/142/5 92/143/5 91/144/5
f 70/145/2 67/146/2 89/138/2 90/137/2
f 74/147/12 70/148/12 90/149/12 92/150/12
f 94/151/13 93/152/13 96/153/13 95/154/13
f 72/155/6 73/156/6 96/157/6 93/158/6
f 58/159/2 72/160/2 93/152/2 94/151/2
f 80/161/16 58/162/16 94/163/16 95/164/16
f 98/165/8 97/166/8 99/167/8 100/168/8
f 62/169/2 59/170/2 97/166/2 98/165/2
f 78/171/18 62/172/18 98/173/18 100/174/18
f 79/175/5 78/176/5 100/177/5 99/178/5
f 102/179/14 101/180/14 104/181/14 103/182/14
f 66/183/2 63/184/2 101/180/2 102/179/2
f 77/185/5 76/186/5 103/187/5 104/188/5
f 76/189/6 66/190/6 102/191/6 103/192/6
f 77/185/5 78/176/5 105/193/5
f 78/176/5 79/175/5 105/193/5
f 79/175/5 80/98/5 105/193/5
f 80/98/5 73/97/5 105/193/5
f 73/97/5 74/142/5 105/193/5
f 74/142/5 75/141/5 105/193/5
f 75/141/5 76/186/5 105/193/5
f 76/186/5 77/185/5 105/193/5
f 68/194/27 83/195/27 111/196/27
f 69/197/28 112/198/28 82/199/28
f 71/200/29 81/201/29 113/202/29
f 57/203/30 106/204/30 88/205/30
f 87/206/31 107/207/31 60/208/31
f 61/209/32 108/210/32 86/211/32
f 85/212/33 109/213/33 64/214/33
f 65/215/34 110/216/34 84/217/34
f 114/218/35 115/219/35 117/220/35 116/221/35
f 125/222/36 117/223/36 119/224/36
f 119/225/37 117/220/37 115/219/37 118/226/37
f 118/227/3 115/228/3 114/229/3
f 114/218/17 116/221/17 120/230/17 121/231/17
f 119/225/9 118/226/9 123/232/9 122/233/9
f 118/227/1 114/229/1 121/234/1 123/235/1
f 125/222/38 119/224/38 122/236/38 124/237/38
f 116/238/39 125/222/39 124/237/39 120/239/39
f 116/238/40 117/223/40 125/222/40
