# Blender v2.80 (sub 75) OBJ File: 'boss_trophies.blend'
# www.blender.org
mtllib boss_trophy_fey_winter_1.mtl
o BOSS_TROPHY_FEY_WINTER_1_Plane.009
v 1.043734 0.328125 0.725222
v -0.043734 0.234375 0.274778
v 0.274778 0.328125 1.043734
v 0.725222 0.328125 1.043734
v 1.043734 0.234375 0.725222
v -0.043734 0.328125 0.274778
v 0.274778 0.234375 -0.043734
v 1.043734 0.328125 0.274778
v 0.725222 0.234375 -0.043734
v 1.043734 0.234375 0.274778
v 0.725222 0.234375 1.043734
v -0.043734 0.328125 0.725222
v 0.725222 0.328125 -0.043734
v 0.274778 0.328125 -0.043734
v 0.274778 0.234375 1.043734
v -0.043734 0.234375 0.725222
v 0.999540 0.187500 0.274778
v 0.999540 0.250000 0.318972
v 0.955346 0.250000 0.274778
v 1.043734 0.250000 0.274778
v 0.999540 0.250000 0.230584
v 0.000460 0.187500 0.725222
v 0.000460 0.250000 0.681028
v 0.044654 0.250000 0.725222
v -0.043734 0.250000 0.725222
v 0.000460 0.250000 0.769416
v 0.725222 0.187500 0.999540
v 0.681028 0.250000 0.999540
v 0.725222 0.250000 0.955346
v 0.725222 0.250000 1.043734
v 0.769416 0.250000 0.999540
v 0.274778 0.187500 0.000460
v 0.318972 0.250000 0.000460
v 0.274778 0.250000 0.044654
v 0.274778 0.250000 -0.043734
v 0.230584 0.250000 0.000460
v 1.012484 0.187500 0.693972
v 0.981234 0.250000 0.725222
v 0.981234 0.250000 0.662722
v 1.043734 0.250000 0.725222
v 1.043734 0.250000 0.662722
v -0.012484 0.187500 0.306028
v 0.018766 0.250000 0.274778
v 0.018766 0.250000 0.337278
v -0.043734 0.250000 0.274778
v -0.043734 0.250000 0.337278
v 0.306028 0.187500 1.012484
v 0.274778 0.250000 0.981234
v 0.337278 0.250000 0.981234
v 0.274778 0.250000 1.043734
v 0.337278 0.250000 1.043734
v 0.693972 0.187500 -0.012484
v 0.725222 0.250000 0.018766
v 0.662722 0.250000 0.018766
v 0.725222 0.250000 -0.043734
v 0.662722 0.250000 -0.043734
v 0.302824 0.234375 0.023974
v 0.976026 0.234375 0.697176
v 0.697176 0.234375 0.023974
v 0.023974 0.234375 0.697176
v 0.302824 0.234375 0.976026
v 0.976026 0.234375 0.302824
v 0.697176 0.234375 0.976026
v 0.023974 0.234375 0.302824
v 0.328720 0.328125 0.086494
v 0.086494 0.328125 0.671280
v 0.671280 0.328125 0.913506
v 0.086494 0.328125 0.328720
v 0.913506 0.328125 0.671280
v 0.328720 0.328125 0.913506
v 0.913506 0.328125 0.328720
v 0.671280 0.328125 0.086494
vt 0.687500 0.974111
vt 0.625000 1.000000
vt 0.625000 0.562500
vt 0.687500 0.588388
vt 0.562500 0.562500
vt 0.562500 1.000000
vt 0.625000 1.000000
vt 0.625000 0.562500
vt 0.687500 0.588388
vt 0.625000 0.562500
vt 0.562500 1.000000
vt 0.562500 0.562500
vt 0.625000 0.562500
vt 0.625000 1.000000
vt 0.625000 1.000000
vt 0.687500 0.974111
vt 0.562500 0.562500
vt 0.625000 0.562500
vt 0.625000 0.562500
vt 0.687500 0.588388
vt 0.562500 1.000000
vt 0.562500 0.562500
vt 0.625000 0.562500
vt 0.625000 1.000000
vt 0.625000 1.000000
vt 0.687500 0.974112
vt 0.625000 0.562500
vt 0.687500 0.588388
vt 0.625000 1.000000
vt 0.687500 0.974112
vt 0.562500 1.000000
vt 0.625000 1.000000
vt 0.687500 0.375000
vt 0.687500 0.437500
vt 0.625000 0.437500
vt 0.687500 0.437500
vt 0.625000 0.437500
vt 0.687500 0.437500
vt 0.625000 0.437500
vt 0.687500 0.437500
vt 0.625000 0.437500
vt 0.687500 0.375000
vt 0.687500 0.437500
vt 0.625000 0.437500
vt 0.687500 0.437500
vt 0.625000 0.437500
vt 0.687500 0.437500
vt 0.625000 0.437500
vt 0.687500 0.437500
vt 0.625000 0.437500
vt 0.687500 0.375000
vt 0.687500 0.437500
vt 0.625000 0.437500
vt 0.687500 0.437500
vt 0.625000 0.437500
vt 0.687500 0.437500
vt 0.625000 0.437500
vt 0.687500 0.437500
vt 0.625000 0.437500
vt 0.687500 0.375000
vt 0.687500 0.437500
vt 0.625000 0.437500
vt 0.687500 0.437500
vt 0.625000 0.437500
vt 0.687500 0.437500
vt 0.625000 0.437500
vt 0.687500 0.437500
vt 0.625000 0.437500
vt 0.687500 0.375000
vt 0.687500 0.437500
vt 0.625000 0.437500
vt 0.687500 0.437500
vt 0.625000 0.437500
vt 0.687500 0.437500
vt 0.625000 0.437500
vt 0.687500 0.437500
vt 0.625000 0.437500
vt 0.687500 0.375000
vt 0.687500 0.437500
vt 0.625000 0.437500
vt 0.687500 0.437500
vt 0.625000 0.437500
vt 0.687500 0.437500
vt 0.625000 0.437500
vt 0.687500 0.437500
vt 0.625000 0.437500
vt 0.687500 0.375000
vt 0.687500 0.437500
vt 0.625000 0.437500
vt 0.687500 0.437500
vt 0.625000 0.437500
vt 0.687500 0.437500
vt 0.625000 0.437500
vt 0.687500 0.437500
vt 0.625000 0.437500
vt 0.687500 0.375000
vt 0.687500 0.437500
vt 0.625000 0.437500
vt 0.687500 0.437500
vt 0.625000 0.437500
vt 0.687500 0.437500
vt 0.625000 0.437500
vt 0.687500 0.437500
vt 0.625000 0.437500
vt 0.562500 1.000000
vt 0.687500 0.947692
vt 0.687500 0.614808
vt 0.562500 0.562500
vt 0.687500 0.947692
vt 0.562500 1.000000
vt 0.562500 0.562500
vt 0.687500 0.614808
vt 0.562500 0.562500
vt 0.687500 0.614808
vt 0.687500 0.947692
vt 0.562500 1.000000
vt 0.687500 0.614808
vt 0.562500 0.562500
vt 0.687500 0.947692
vt 0.562500 1.000000
vn 0.0000 -1.0000 -0.0000
vn 1.0000 0.0000 -0.0000
vn -0.7071 0.0000 -0.7071
vn -0.0000 0.0000 -1.0000
vn -0.7071 0.0000 0.7071
vn -1.0000 0.0000 0.0000
vn 0.0000 0.0000 1.0000
vn 0.7071 0.0000 -0.7071
vn 0.7071 -0.0000 0.7071
vn -0.6325 -0.4472 0.6325
vn -0.6325 -0.4472 -0.6325
vn 0.6325 -0.4472 -0.6325
vn 0.6325 -0.4472 0.6325
vn -0.8944 -0.4472 0.0000
vn 0.0000 -0.4472 -0.8944
vn 0.8944 -0.4472 0.0000
vn 0.0000 -0.4472 0.8944
vn 0.0000 1.0000 -0.0000
usemtl BOSS_TROPHY_FEY
s off
f 63/1/1 11/2/1 15/3/1 61/4/1
f 5/5/2 10/6/2 8/7/2 1/8/2
f 58/9/1 5/10/1 11/2/1 63/1/1
f 7/11/3 2/12/3 6/13/3 14/14/3
f 61/4/1 15/3/1 16/15/1 60/16/1
f 9/17/4 7/11/4 14/14/4 13/18/4
f 60/16/1 16/15/1 2/19/1 64/20/1
f 16/21/5 15/22/5 3/23/5 12/24/5
f 64/20/1 2/19/1 7/25/1 57/26/1
f 2/12/6 16/21/6 12/24/6 6/13/6
f 57/26/1 7/25/1 9/27/1 59/28/1
f 59/28/1 9/27/1 10/29/1 62/30/1
f 15/22/7 11/31/7 4/32/7 3/23/7
f 62/30/1 10/29/1 5/10/1 58/9/1
f 10/6/8 9/17/8 13/18/8 8/7/8
f 11/31/9 5/5/9 1/8/9 4/32/9
f 17/33/10 18/34/10 19/35/10
f 17/33/11 19/36/11 21/37/11
f 17/33/12 21/38/12 20/39/12
f 17/33/13 20/40/13 18/41/13
f 22/42/12 23/43/12 24/44/12
f 22/42/13 24/45/13 26/46/13
f 22/42/10 26/47/10 25/48/10
f 22/42/11 25/49/11 23/50/11
f 27/51/11 28/52/11 29/53/11
f 27/51/12 29/54/12 31/55/12
f 27/51/13 31/56/13 30/57/13
f 27/51/10 30/58/10 28/59/10
f 32/60/13 33/61/13 34/62/13
f 32/60/10 34/63/10 36/64/10
f 32/60/11 36/65/11 35/66/11
f 32/60/12 35/67/12 33/68/12
f 37/69/14 38/70/14 39/71/14
f 37/69/15 39/72/15 41/73/15
f 37/69/16 41/74/16 40/75/16
f 37/69/17 40/76/17 38/77/17
f 42/78/16 43/79/16 44/80/16
f 42/78/17 44/81/17 46/82/17
f 42/78/14 46/83/14 45/84/14
f 42/78/15 45/85/15 43/86/15
f 47/87/15 48/88/15 49/89/15
f 47/87/16 49/90/16 51/91/16
f 47/87/17 51/92/17 50/93/17
f 47/87/14 50/94/14 48/95/14
f 52/96/17 53/97/17 54/98/17
f 52/96/14 54/99/14 56/100/14
f 52/96/15 56/101/15 55/102/15
f 52/96/16 55/103/16 53/104/16
f 14/105/18 65/106/18 72/107/18 13/108/18
f 71/109/18 8/110/18 13/108/18 72/107/18
f 1/111/18 8/110/18 71/109/18 69/112/18
f 65/106/18 14/105/18 6/113/18 68/114/18
f 67/115/18 4/116/18 1/111/18 69/112/18
f 70/117/18 3/118/18 4/116/18 67/115/18
f 3/118/18 70/117/18 66/119/18 12/120/18
f 12/120/18 66/119/18 68/114/18 6/113/18
