# Blender v2.80 (sub 75) OBJ File: 'boss_trophies.blend'
# www.blender.org
mtllib boss_trophy_council_crystal_inner.mtl
o CRYSTAL_MIDDLE_Cube.008
v -0.062500 0.000000 0.000000
v 0.062500 0.000000 0.000000
v 0.000000 -0.062500 0.000000
v 0.000000 0.062500 0.000000
v 0.000000 0.000000 0.062500
v 0.000000 0.000000 -0.062500
vt 0.625000 0.875000
vt 0.687500 0.875000
vt 0.625000 0.937500
vt 0.125000 0.875000
vt 0.187500 0.875000
vt 0.125000 0.937500
vt 0.125000 0.812500
vt 0.187500 0.812500
vt 0.125000 0.875000
vt 0.625000 0.812500
vt 0.687500 0.812500
vt 0.625000 0.875000
vt 0.937500 0.875000
vt 0.937500 0.937500
vt 0.875000 0.937500
vt 0.437500 0.875000
vt 0.437500 0.937500
vt 0.375000 0.937500
vt 0.437500 0.812500
vt 0.437500 0.875000
vt 0.375000 0.875000
vt 0.937500 0.812500
vt 0.937500 0.875000
vt 0.875000 0.875000
vn 0.5774 0.5774 -0.5774
vn -0.5774 0.5774 0.5774
vn -0.5774 -0.5774 0.5774
vn 0.5774 -0.5774 -0.5774
vn -0.5774 -0.5774 -0.5774
vn 0.5774 -0.5774 0.5774
vn 0.5774 0.5774 0.5774
vn -0.5774 0.5774 -0.5774
usemtl BOSS_TROPHY_COUNCIL
s off
f 6/1/1 4/2/1 2/3/1
f 5/4/2 4/5/2 1/6/2
f 3/7/3 5/8/3 1/9/3
f 3/10/4 6/11/4 2/12/4
f 1/13/5 6/14/5 3/15/5
f 2/16/6 5/17/6 3/18/6
f 2/19/7 4/20/7 5/21/7
f 1/22/8 4/23/8 6/24/8
