# Blender v2.80 (sub 75) OBJ File: 'boss_trophies.blend'
# www.blender.org
mtllib boss_trophy_council_crystal_outer.mtl
o CRYSTAL_OUTER_Cube.021
v 0.067862 -0.031250 -0.208027
v 0.093750 -0.031250 -0.270527
v -0.067864 -0.031250 -0.208027
v -0.270529 -0.031250 -0.093750
v -0.093752 -0.031250 -0.270527
v -0.208029 -0.031250 -0.067862
v -0.208029 0.031250 -0.067862
v -0.093752 0.031250 -0.270527
v -0.067864 0.031250 -0.208027
v 0.093750 0.031250 -0.270527
v -0.216037 -0.023162 -0.083456
v -0.237381 -0.031250 -0.104800
v -0.088025 -0.232291 -0.132221
v -0.109369 -0.240379 -0.153565
v -0.183483 0.007023 -0.127449
v -0.204827 -0.001065 -0.148793
v -0.055471 -0.202106 -0.176214
v -0.076815 -0.210194 -0.197558
v -0.077366 -0.292661 -0.165757
v -0.056022 -0.284573 -0.144412
v -0.109920 -0.322846 -0.121764
v -0.088576 -0.314758 -0.100420
v -0.120579 -0.262476 -0.088229
v -0.141923 -0.270564 -0.109573
v -0.121130 -0.344944 -0.056428
v -0.142475 -0.353032 -0.077772
v 0.176777 -0.187500 0.000000
v 0.088388 -0.062500 0.000000
v 0.000000 -0.187500 0.176777
v 0.000000 -0.062500 0.088388
v 0.000000 -0.187500 -0.176777
v 0.000000 -0.062500 -0.088388
v -0.176777 -0.187500 0.000000
v -0.088388 -0.062500 0.000000
v 0.176777 -0.125000 0.000000
v 0.000000 -0.125000 0.176777
v -0.176777 -0.125000 0.000000
v 0.000000 -0.125000 -0.176777
v 0.000000 -0.375000 0.000000
v -0.208027 -0.031250 0.067864
v -0.270527 -0.031250 0.093752
v -0.067862 -0.031250 0.208029
v -0.067862 0.031250 0.208029
v -0.270527 0.031250 0.093752
v -0.093750 0.031250 0.270529
v -0.208027 0.031250 0.067864
v -0.270527 0.031250 -0.093750
v -0.083456 -0.023162 0.216037
v -0.104801 -0.031250 0.237381
v -0.132221 -0.232291 0.088025
v -0.153565 -0.240379 0.109369
v -0.127449 0.007023 0.183483
v -0.148793 -0.001065 0.204827
v -0.176214 -0.202106 0.055471
v -0.197558 -0.210194 0.076815
v -0.165757 -0.292661 0.077366
v -0.144412 -0.284573 0.056022
v -0.121764 -0.322846 0.109920
v -0.100420 -0.314758 0.088576
v -0.088229 -0.262476 0.120579
v -0.109573 -0.270564 0.141923
v -0.056428 -0.344944 0.121130
v -0.077772 -0.353032 0.142475
v -0.093750 -0.031250 0.270527
v 0.067864 -0.031250 0.208027
v 0.270529 -0.031250 0.093750
v 0.093752 -0.031250 0.270527
v 0.208029 -0.031250 0.067862
v 0.093752 0.031250 0.270527
v 0.067864 0.031250 0.208027
v 0.216037 -0.023162 0.083456
v 0.237381 -0.031250 0.104800
v 0.088025 -0.232291 0.132221
v 0.109369 -0.240379 0.153565
v 0.183483 0.007023 0.127449
v 0.204827 -0.001065 0.148793
v 0.055471 -0.202106 0.176214
v 0.076815 -0.210194 0.197558
v 0.077366 -0.292661 0.165757
v 0.056022 -0.284573 0.144412
v 0.109920 -0.322846 0.121764
v 0.088576 -0.314758 0.100420
v 0.120579 -0.262476 0.088229
v 0.141923 -0.270564 0.109573
v 0.121130 -0.344944 0.056428
v 0.142475 -0.353032 0.077772
v 0.208027 -0.031250 -0.067864
v 0.270527 -0.031250 -0.093752
v 0.067862 0.031250 -0.208029
v 0.270527 0.031250 -0.093752
v 0.208027 0.031250 -0.067864
v 0.270527 0.031250 0.093750
v 0.208027 0.031250 0.067862
v 0.083456 -0.023162 -0.216037
v 0.104800 -0.031250 -0.237381
v 0.132221 -0.232291 -0.088025
v 0.153565 -0.240379 -0.109369
v 0.127449 0.007023 -0.183483
v 0.148793 -0.001065 -0.204827
v 0.176214 -0.202106 -0.055471
v 0.197558 -0.210194 -0.076815
v 0.165757 -0.292661 -0.077366
v 0.144412 -0.284573 -0.056022
v 0.121764 -0.322846 -0.109920
v 0.100420 -0.314758 -0.088576
v 0.088229 -0.262476 -0.120579
v 0.109573 -0.270564 -0.141923
v 0.056428 -0.344944 -0.121130
v 0.077772 -0.353032 -0.142475
vt 0.400892 0.500000
vt 0.213392 0.500000
vt 0.213392 0.437500
vt 0.400892 0.437500
vt 0.161610 0.500000
vt 0.025890 0.500000
vt 0.025890 0.437500
vt 0.161610 0.437500
vt 0.187500 0.562500
vt 0.437500 0.562500
vt 0.437500 0.625000
vt 0.187500 0.625000
vt 0.000000 0.562500
vt 0.000000 0.625000
vt 0.213392 0.687500
vt 0.411608 0.687500
vt 0.025890 0.687500
vt 0.161610 0.687500
vt 0.625000 0.687500
vt 0.625000 0.625000
vt 0.875000 0.625000
vt 0.875000 0.687500
vt 0.875000 0.562500
vt 0.875000 0.625000
vt 0.937500 0.562500
vt 0.625000 0.500000
vt 0.625000 0.437500
vt 0.875000 0.437500
vt 0.875000 0.500000
vt 0.625000 0.562500
vt 0.875000 0.562500
vt 0.625000 0.562500
vt 0.625000 0.625000
vt 0.562500 0.437500
vt 0.562500 0.500000
vt 0.500000 0.500000
vt 0.500000 0.437500
vt 0.937500 0.625000
vt 0.937500 0.687500
vt 0.562500 0.562500
vt 0.625000 0.625000
vt 0.562500 0.625000
vt 1.000000 0.625000
vt 1.000000 0.687500
vt 0.937500 0.500000
vt 0.875000 0.500000
vt 0.937500 0.437500
vt 0.437500 0.500000
vt 0.437500 0.437500
vt 0.562500 0.687500
vt 0.500000 0.875000
vt 0.500000 0.937500
vt 0.250000 0.937500
vt 0.250000 0.875000
vt 0.000000 0.937500
vt 0.000000 0.875000
vt 1.000000 0.875000
vt 1.000000 0.937500
vt 0.750000 0.937500
vt 0.750000 0.875000
vt 0.875000 0.687500
vt 0.437500 0.500000
vt 0.562500 0.500000
vt 0.562500 0.625000
vt 0.437500 0.625000
vt 0.437500 1.000000
vt 0.312500 1.000000
vt 0.187500 1.000000
vt 0.062500 1.000000
vt 0.937500 1.000000
vt 0.812500 1.000000
vt 0.687500 1.000000
vt 0.562500 1.000000
vt 0.625000 0.687500
vt 0.125000 0.687500
vt 0.375000 0.687500
vt 0.400892 0.500000
vt 0.213392 0.500000
vt 0.213392 0.437500
vt 0.400892 0.437500
vt 0.161610 0.500000
vt 0.025890 0.500000
vt 0.025890 0.437500
vt 0.161610 0.437500
vt 0.187500 0.562500
vt 0.437500 0.562500
vt 0.437500 0.625000
vt 0.187500 0.625000
vt 0.000000 0.562500
vt 0.000000 0.625000
vt 0.213392 0.687500
vt 0.411608 0.687500
vt 0.025890 0.687500
vt 0.161610 0.687500
vt 0.625000 0.687500
vt 0.625000 0.625000
vt 0.875000 0.625000
vt 0.875000 0.687500
vt 0.875000 0.562500
vt 0.875000 0.625000
vt 0.937500 0.562500
vt 0.625000 0.500000
vt 0.625000 0.437500
vt 0.875000 0.437500
vt 0.875000 0.500000
vt 0.625000 0.562500
vt 0.875000 0.562500
vt 0.625000 0.562500
vt 0.625000 0.625000
vt 0.562500 0.437500
vt 0.562500 0.500000
vt 0.500000 0.500000
vt 0.500000 0.437500
vt 0.937500 0.625000
vt 0.937500 0.687500
vt 0.562500 0.562500
vt 0.625000 0.625000
vt 0.562500 0.625000
vt 1.000000 0.625000
vt 1.000000 0.687500
vt 0.937500 0.500000
vt 0.875000 0.500000
vt 0.937500 0.437500
vt 0.437500 0.500000
vt 0.437500 0.437500
vt 0.562500 0.687500
vt 0.400892 0.500000
vt 0.213392 0.500000
vt 0.213392 0.437500
vt 0.400892 0.437500
vt 0.161610 0.500000
vt 0.025890 0.500000
vt 0.025890 0.437500
vt 0.161610 0.437500
vt 0.187500 0.562500
vt 0.437500 0.562500
vt 0.437500 0.625000
vt 0.187500 0.625000
vt 0.000000 0.562500
vt 0.000000 0.625000
vt 0.213392 0.687500
vt 0.411608 0.687500
vt 0.025890 0.687500
vt 0.161610 0.687500
vt 0.625000 0.687500
vt 0.625000 0.625000
vt 0.875000 0.625000
vt 0.875000 0.687500
vt 0.875000 0.562500
vt 0.875000 0.625000
vt 0.937500 0.562500
vt 0.625000 0.500000
vt 0.625000 0.437500
vt 0.875000 0.437500
vt 0.875000 0.500000
vt 0.625000 0.562500
vt 0.875000 0.562500
vt 0.625000 0.562500
vt 0.625000 0.625000
vt 0.562500 0.437500
vt 0.562500 0.500000
vt 0.500000 0.500000
vt 0.500000 0.437500
vt 0.937500 0.625000
vt 0.937500 0.687500
vt 0.562500 0.562500
vt 0.625000 0.625000
vt 0.562500 0.625000
vt 1.000000 0.625000
vt 1.000000 0.687500
vt 0.937500 0.500000
vt 0.875000 0.500000
vt 0.937500 0.437500
vt 0.437500 0.500000
vt 0.437500 0.437500
vt 0.562500 0.687500
vt 0.400892 0.500000
vt 0.213392 0.500000
vt 0.213392 0.437500
vt 0.400892 0.437500
vt 0.161610 0.500000
vt 0.025890 0.500000
vt 0.025890 0.437500
vt 0.161610 0.437500
vt 0.187500 0.562500
vt 0.437500 0.562500
vt 0.437500 0.625000
vt 0.187500 0.625000
vt 0.000000 0.562500
vt 0.000000 0.625000
vt 0.213392 0.687500
vt 0.411608 0.687500
vt 0.025890 0.687500
vt 0.161610 0.687500
vt 0.625000 0.687500
vt 0.625000 0.625000
vt 0.875000 0.625000
vt 0.875000 0.687500
vt 0.875000 0.562500
vt 0.875000 0.625000
vt 0.937500 0.562500
vt 0.625000 0.500000
vt 0.625000 0.437500
vt 0.875000 0.437500
vt 0.875000 0.500000
vt 0.625000 0.562500
vt 0.875000 0.562500
vt 0.625000 0.562500
vt 0.625000 0.625000
vt 0.562500 0.437500
vt 0.562500 0.500000
vt 0.500000 0.500000
vt 0.500000 0.437500
vt 0.937500 0.625000
vt 0.937500 0.687500
vt 0.562500 0.562500
vt 0.625000 0.625000
vt 0.562500 0.625000
vt 1.000000 0.625000
vt 1.000000 0.687500
vt 0.937500 0.500000
vt 0.875000 0.500000
vt 0.937500 0.437500
vt 0.437500 0.500000
vt 0.437500 0.437500
vt 0.562500 0.687500
vn 0.7071 0.0000 0.7071
vn 0.0000 0.0000 1.0000
vn -0.7071 0.0000 -0.7071
vn -0.0000 0.0000 -1.0000
vn 0.0000 -1.0000 0.0000
vn -0.0000 1.0000 0.0000
vn -0.5209 -0.4830 0.7039
vn -0.6830 -0.2588 -0.6830
vn 0.5209 0.4830 -0.7039
vn 0.6830 0.2588 0.6830
vn 0.5120 -0.8365 -0.1951
vn -0.5120 0.8365 0.1951
vn 0.7304 -0.2500 -0.6356
vn -0.7304 0.2500 0.6356
vn -0.7071 0.0000 0.7071
vn 0.7071 0.0000 -0.7071
vn -0.5883 -0.5547 -0.5883
vn 0.5000 0.7071 0.5000
vn -0.5000 0.7071 0.5000
vn -0.5000 0.7071 -0.5000
vn 0.5000 0.7071 -0.5000
vn 0.5883 -0.5547 -0.5883
vn -0.5883 -0.5547 0.5883
vn 0.5883 -0.5547 0.5883
vn 1.0000 0.0000 -0.0000
vn -1.0000 0.0000 0.0000
vn 0.7039 -0.4830 0.5209
vn -0.6830 -0.2588 0.6830
vn -0.7039 0.4830 -0.5209
vn 0.6830 0.2588 -0.6830
vn -0.1951 -0.8365 -0.5120
vn 0.1951 0.8365 0.5120
vn -0.6356 -0.2500 -0.7304
vn 0.6356 0.2500 0.7304
vn 0.5209 -0.4830 -0.7039
vn 0.6830 -0.2588 0.6830
vn -0.5209 0.4830 0.7039
vn -0.6830 0.2588 -0.6830
vn -0.5120 -0.8365 0.1951
vn 0.5120 0.8365 -0.1951
vn -0.7304 -0.2500 0.6356
vn 0.7304 0.2500 -0.6356
vn -0.7039 -0.4830 -0.5209
vn 0.6830 -0.2588 -0.6830
vn 0.7039 0.4830 0.5209
vn -0.6830 0.2588 0.6830
vn 0.1951 -0.8365 0.5120
vn -0.1951 0.8365 -0.5120
vn 0.6356 -0.2500 0.7304
vn -0.6356 0.2500 -0.7304
usemtl BOSS_TROPHY_COUNCIL
s off
f 6/1/1 3/2/1 9/3/1 7/4/1
f 3/5/2 1/6/2 89/7/2 9/8/2
f 5/9/3 4/10/3 47/11/3 8/12/3
f 2/13/4 5/9/4 8/12/4 10/14/4
f 1/6/5 3/5/5 5/9/5 2/13/5
f 3/2/5 6/1/5 4/10/5 5/9/5
f 9/15/6 8/12/6 47/11/6 7/16/6
f 89/17/6 10/14/6 8/12/6 9/18/6
f 11/19/7 12/20/7 14/21/7 13/22/7
f 14/23/8 18/24/8 19/25/8
f 17/26/9 18/27/9 16/28/9 15/29/9
f 13/30/10 17/26/10 15/29/10 11/31/10
f 18/24/8 14/23/8 12/32/8 16/33/8
f 19/34/11 20/35/11 22/36/11 21/37/11
f 13/22/12 14/21/12 24/38/12 23/39/12
f 18/27/13 17/26/13 20/35/13 19/34/13
f 17/26/10 13/30/10 20/40/10
f 20/40/10 13/30/10 23/41/10 22/42/10
f 23/39/14 24/38/14 26/43/14 25/44/14
f 14/23/8 19/25/8 21/45/8 24/46/8
f 24/46/8 21/45/8 26/47/8
f 21/37/11 22/36/11 25/48/11 26/49/11
f 22/42/10 23/41/10 25/50/10
f 27/51/1 35/52/1 36/53/1 29/54/1
f 29/54/15 36/53/15 37/55/15 33/56/15
f 33/57/3 37/58/3 38/59/3 31/60/3
f 31/60/16 38/59/16 35/52/16 27/51/16
f 33/57/17 31/60/17 39/61/17
f 34/62/6 30/63/6 28/64/6 32/65/6
f 28/66/18 30/67/18 36/53/18 35/52/18
f 30/68/19 34/69/19 37/55/19 36/53/19
f 34/70/20 32/71/20 38/59/20 37/58/20
f 32/72/21 28/73/21 35/52/21 38/59/21
f 31/60/22 27/51/22 39/74/22
f 29/54/23 33/56/23 39/75/23
f 27/51/24 29/54/24 39/76/24
f 42/77/16 40/78/16 46/79/16 43/80/16
f 40/81/25 6/82/25 7/83/25 46/84/25
f 41/85/15 64/86/15 45/87/15 44/88/15
f 4/89/26 41/85/26 44/88/26 47/90/26
f 6/82/5 40/81/5 41/85/5 4/89/5
f 40/78/5 42/77/5 64/86/5 41/85/5
f 46/91/6 44/88/6 45/87/6 43/92/6
f 7/93/6 47/90/6 44/88/6 46/94/6
f 48/95/27 49/96/27 51/97/27 50/98/27
f 51/99/28 55/100/28 56/101/28
f 54/102/29 55/103/29 53/104/29 52/105/29
f 50/106/30 54/102/30 52/105/30 48/107/30
f 55/100/28 51/99/28 49/108/28 53/109/28
f 56/110/31 57/111/31 59/112/31 58/113/31
f 50/98/32 51/97/32 61/114/32 60/115/32
f 55/103/33 54/102/33 57/111/33 56/110/33
f 54/102/30 50/106/30 57/116/30
f 57/116/30 50/106/30 60/117/30 59/118/30
f 60/115/34 61/114/34 63/119/34 62/120/34
f 51/99/28 56/101/28 58/121/28 61/122/28
f 61/122/28 58/121/28 63/123/28
f 58/113/31 59/112/31 62/124/31 63/125/31
f 59/118/30 60/117/30 62/126/30
f 68/127/3 65/128/3 70/129/3 93/130/3
f 65/131/4 42/132/4 43/133/4 70/134/4
f 67/135/1 66/136/1 92/137/1 69/138/1
f 64/139/2 67/135/2 69/138/2 45/140/2
f 42/132/5 65/131/5 67/135/5 64/139/5
f 65/128/5 68/127/5 66/136/5 67/135/5
f 70/141/6 69/138/6 92/137/6 93/142/6
f 43/143/6 45/140/6 69/138/6 70/144/6
f 71/145/35 72/146/35 74/147/35 73/148/35
f 74/149/36 78/150/36 79/151/36
f 77/152/37 78/153/37 76/154/37 75/155/37
f 73/156/38 77/152/38 75/155/38 71/157/38
f 78/150/36 74/149/36 72/158/36 76/159/36
f 79/160/39 80/161/39 82/162/39 81/163/39
f 73/148/40 74/147/40 84/164/40 83/165/40
f 78/153/41 77/152/41 80/161/41 79/160/41
f 77/152/38 73/156/38 80/166/38
f 80/166/38 73/156/38 83/167/38 82/168/38
f 83/165/42 84/164/42 86/169/42 85/170/42
f 74/149/36 79/151/36 81/171/36 84/172/36
f 84/172/36 81/171/36 86/173/36
f 81/163/39 82/162/39 85/174/39 86/175/39
f 82/168/38 83/167/38 85/176/38
f 1/177/15 87/178/15 91/179/15 89/180/15
f 87/181/26 68/182/26 93/183/26 91/184/26
f 88/185/16 2/186/16 10/187/16 90/188/16
f 66/189/25 88/185/25 90/188/25 92/190/25
f 68/182/5 87/181/5 88/185/5 66/189/5
f 87/178/5 1/177/5 2/186/5 88/185/5
f 91/191/6 90/188/6 10/187/6 89/192/6
f 93/193/6 92/190/6 90/188/6 91/194/6
f 94/195/43 95/196/43 97/197/43 96/198/43
f 97/199/44 101/200/44 102/201/44
f 100/202/45 101/203/45 99/204/45 98/205/45
f 96/206/46 100/202/46 98/205/46 94/207/46
f 101/200/44 97/199/44 95/208/44 99/209/44
f 102/210/47 103/211/47 105/212/47 104/213/47
f 96/198/48 97/197/48 107/214/48 106/215/48
f 101/203/49 100/202/49 103/211/49 102/210/49
f 100/202/46 96/206/46 103/216/46
f 103/216/46 96/206/46 106/217/46 105/218/46
f 106/215/50 107/214/50 109/219/50 108/220/50
f 97/199/44 102/201/44 104/221/44 107/222/44
f 107/222/44 104/221/44 109/223/44
f 104/213/47 105/212/47 108/224/47 109/225/47
f 105/218/46 106/217/46 108/226/46
