# Blender v2.80 (sub 75) OBJ File: 'boss_trophies.blend'
# www.blender.org
mtllib boss_trophy_fey_summer_3.mtl
o BOSS_TROPHY_FEY_SUMMER_3_Plane.010
v 0.641085 0.234375 0.159391
v 1.043734 0.328125 0.725222
v 0.358915 0.234375 0.840609
v -0.043734 0.234375 0.274778
v 0.274778 0.328125 1.043734
v 0.725222 0.328125 1.043734
v 1.043734 0.234375 0.725222
v -0.043734 0.328125 0.274778
v 0.274778 0.234375 -0.043734
v 0.358915 0.234375 0.159391
v 1.043734 0.328125 0.274778
v 0.725222 0.234375 -0.043734
v 1.043734 0.234375 0.274778
v 0.725222 0.234375 1.043734
v -0.043734 0.328125 0.725222
v 0.617337 0.328125 0.216723
v 0.725222 0.328125 -0.043734
v 0.783277 0.328125 0.382663
v 0.382663 0.328125 0.783277
v 0.274778 0.328125 -0.043734
v 0.274778 0.234375 1.043734
v 0.840609 0.234375 0.641085
v 0.159391 0.234375 0.641085
v 0.216723 0.328125 0.382663
v -0.043734 0.234375 0.725222
v 0.840609 0.234375 0.358915
v 0.159391 0.234375 0.358915
v 0.617337 0.328125 0.783277
v 0.783277 0.328125 0.617337
v 0.216723 0.328125 0.617337
v 0.641085 0.234375 0.840609
v 0.382663 0.328125 0.216723
v 0.976012 0.046875 0.302829
v 0.302829 0.234375 0.976013
v 0.976012 0.234375 0.302829
v 0.697171 0.234375 0.976012
v 0.302829 0.046875 0.023988
v 0.302829 0.234375 0.023988
v 0.023987 0.046875 0.302829
v 0.023987 0.234375 0.302829
v 0.023988 0.234375 0.697171
v 0.023988 0.046875 0.697171
v 0.697171 0.046875 0.023987
v 0.697171 0.234375 0.023988
v 0.976012 0.234375 0.697171
v 0.697171 0.046875 0.976012
v 0.976012 0.046875 0.697171
v 0.302829 0.046875 0.976013
v 0.976012 0.109375 0.302829
v 0.302829 0.234375 0.976013
v 0.976012 0.234375 0.302829
v 0.697171 0.234375 0.976012
v 0.302829 0.109375 0.023988
v 0.302829 0.234375 0.023988
v 0.023987 0.109375 0.302829
v 0.023987 0.234375 0.302829
v 0.023988 0.234375 0.697171
v 0.023988 0.109375 0.697171
v 0.697171 0.109375 0.023987
v 0.697171 0.234375 0.023988
v 0.976012 0.234375 0.697171
v 0.697171 0.109375 0.976012
v 0.976012 0.109375 0.697171
v 0.302829 0.109375 0.976013
vt 0.937500 0.922335
vt 0.750000 1.000000
vt 0.750000 0.562500
vt 0.937500 0.640166
vt 0.750000 1.000000
vt 0.937500 0.922334
vt 0.687500 0.562500
vt 0.687500 1.000000
vt 0.750000 1.000000
vt 0.750000 0.562500
vt 0.937500 0.667116
vt 0.687500 0.562500
vt 0.687500 1.000000
vt 0.937500 0.895384
vt 0.687500 1.000000
vt 0.687500 0.562500
vt 0.750000 0.562500
vt 0.750000 1.000000
vt 0.750000 0.562500
vt 0.937500 0.640166
vt 0.687500 0.562500
vt 0.750000 0.562500
vt 0.750000 1.000000
vt 0.937500 0.922334
vt 0.687500 1.000000
vt 0.687500 0.562500
vt 0.750000 0.562500
vt 0.750000 1.000000
vt 0.750000 0.562500
vt 0.937500 0.640166
vt 0.937500 0.895384
vt 0.687500 1.000000
vt 0.687500 0.562500
vt 0.937500 0.667116
vt 0.750000 1.000000
vt 0.937500 0.922334
vt 0.937500 0.667116
vt 0.687500 0.562500
vt 0.687500 1.000000
vt 0.937500 0.895384
vt 0.750000 0.562500
vt 0.937500 0.640166
vt 0.687500 1.000000
vt 0.750000 1.000000
vt 0.687500 0.562500
vt 0.937500 0.667116
vt 0.937500 0.895384
vt 0.687500 1.000000
vt 0.875000 0.972755
vt 0.687500 0.972755
vt 0.687500 0.589745
vt 0.875000 0.589745
vt 0.875000 0.972755
vt 0.687500 0.972755
vt 0.687500 0.589745
vt 0.875000 0.589745
vt 0.875000 0.972755
vt 0.687500 0.972755
vt 0.687500 0.589745
vt 0.875000 0.589745
vt 0.875000 0.972755
vt 0.687500 0.972755
vt 0.687500 0.589745
vt 0.875000 0.589745
vt 0.937500 0.589745
vt 0.812500 0.589745
vt 0.812500 0.972755
vt 0.937500 0.972755
vt 0.937500 0.589745
vt 0.812500 0.589745
vt 0.812500 0.972755
vt 0.937500 0.972755
vt 0.937500 0.589745
vt 0.812500 0.589745
vt 0.812500 0.972755
vt 0.937500 0.972755
vt 0.937500 0.589745
vt 0.812500 0.589745
vt 0.812500 0.972755
vt 0.937500 0.972755
vn 0.0000 -1.0000 -0.0000
vn 1.0000 0.0000 -0.0000
vn -0.0000 1.0000 0.0000
vn -0.7071 0.0000 -0.7071
vn -0.0000 0.0000 -1.0000
vn -0.7071 0.0000 0.7071
vn -1.0000 0.0000 0.0000
vn 0.0000 0.0000 1.0000
vn 0.7071 0.0000 -0.7071
vn 0.7071 -0.0000 0.7071
usemtl BOSS_TROPHY_FEY
s off
f 31/1/1 14/2/1 21/3/1 3/4/1
f 3/4/1 21/3/1 25/5/1 23/6/1
f 7/7/2 13/8/2 11/9/2 2/10/2
f 19/11/3 5/12/3 6/13/3 28/14/3
f 9/15/4 4/16/4 8/17/4 20/18/4
f 23/6/1 25/5/1 4/19/1 27/20/1
f 12/21/5 9/15/5 20/18/5 17/22/5
f 27/20/1 4/19/1 9/23/1 10/24/1
f 25/25/6 21/26/6 5/27/6 15/28/6
f 10/24/1 9/23/1 12/29/1 1/30/1
f 32/31/3 20/32/3 8/33/3 24/34/3
f 4/16/7 25/25/7 15/28/7 8/17/7
f 1/30/1 12/29/1 13/35/1 26/36/1
f 29/37/3 2/38/3 11/39/3 18/40/3
f 26/36/1 13/35/1 7/41/1 22/42/1
f 28/14/3 6/13/3 2/38/3 29/37/3
f 21/26/8 14/43/8 6/44/8 5/27/8
f 22/42/1 7/41/1 14/2/1 31/1/1
f 13/8/9 12/21/9 17/22/9 11/9/9
f 18/40/3 11/39/3 17/45/3 16/46/3
f 14/43/10 7/7/10 2/10/10 6/44/10
f 20/32/3 32/31/3 16/46/3 17/45/3
f 5/12/3 19/11/3 30/47/3 15/48/3
f 15/48/3 30/47/3 24/34/3 8/33/3
f 37/49/5 38/50/5 44/51/5 43/52/5
f 33/53/2 35/54/2 45/55/2 47/56/2
f 46/57/8 36/58/8 34/59/8 48/60/8
f 42/61/7 41/62/7 40/63/7 39/64/7
f 55/65/4 56/66/4 54/67/4 53/68/4
f 59/69/9 60/70/9 51/71/9 49/72/9
f 63/73/10 61/74/10 52/75/10 62/76/10
f 64/77/6 50/78/6 57/79/6 58/80/6
