# Blender v2.80 (sub 75) OBJ File: 'boss_trophies.blend'
# www.blender.org
mtllib boss_trophy_fey_summer_2.mtl
o BOSS_TROPHY_FEY_SUMMER_2_Plane.012
v 1.043734 0.328125 0.725222
v -0.043734 0.234375 0.274778
v 0.274778 0.328125 1.043734
v 0.725222 0.328125 1.043734
v 1.043734 0.234375 0.725222
v -0.043734 0.328125 0.274778
v 0.274778 0.234375 -0.043734
v 1.043734 0.328125 0.274778
v 0.725222 0.234375 -0.043734
v 1.043734 0.234375 0.274778
v 0.725222 0.234375 1.043734
v -0.043734 0.328125 0.725222
v 0.725222 0.328125 -0.043734
v 0.274778 0.328125 -0.043734
v 0.274778 0.234375 1.043734
v -0.043734 0.234375 0.725222
v 0.976012 0.109375 0.302829
v 0.302829 0.234375 0.976013
v 0.976012 0.234375 0.302829
v 0.697171 0.234375 0.976012
v 0.302829 0.109375 0.023988
v 0.302829 0.234375 0.023988
v 0.023987 0.109375 0.302829
v 0.023987 0.234375 0.302829
v 0.023988 0.234375 0.697171
v 0.023988 0.109375 0.697171
v 0.697171 0.109375 0.023987
v 0.697171 0.234375 0.023988
v 0.976012 0.234375 0.697171
v 0.697171 0.109375 0.976012
v 0.976012 0.109375 0.697171
v 0.302829 0.109375 0.976013
v 0.976012 0.171875 0.302829
v 0.302829 0.234375 0.976013
v 0.976012 0.234375 0.302829
v 0.697171 0.234375 0.976012
v 0.302829 0.171875 0.023988
v 0.302829 0.234375 0.023988
v 0.023987 0.171875 0.302829
v 0.023987 0.234375 0.302829
v 0.023988 0.234375 0.697171
v 0.023988 0.171875 0.697171
v 0.697171 0.171875 0.023987
v 0.697171 0.234375 0.023988
v 0.976012 0.234375 0.697171
v 0.697171 0.171875 0.976012
v 0.976012 0.171875 0.697171
v 0.302829 0.171875 0.976013
v 0.151608 0.328125 0.644309
v 0.848392 0.328125 0.644309
v 0.355691 0.328125 0.151608
v 0.644309 0.328125 0.848392
v 0.151608 0.328125 0.355692
v 0.355692 0.328125 0.848392
v 0.848392 0.328125 0.355691
v 0.644308 0.328125 0.151608
v 0.091682 0.234375 0.330869
v 0.669131 0.234375 0.908317
v 0.908318 0.234375 0.330869
v 0.330869 0.234375 0.908318
v 0.091683 0.234375 0.669131
v 0.669131 0.234375 0.091682
v 0.908318 0.234375 0.669131
v 0.330869 0.234375 0.091683
v 0.468472 0.312535 1.064830
v 0.530811 0.316929 1.064000
v 0.464626 0.359295 1.023539
v 0.526966 0.363688 1.022708
v 0.495437 0.379349 1.090680
v 0.483454 0.307467 0.986744
v 0.485377 0.284087 1.007390
v 0.516546 0.286283 1.006974
v 0.514624 0.309663 0.986329
v 0.468472 0.312535 1.064830
v 0.530811 0.316929 1.064000
v 0.464626 0.359295 1.023539
v 0.526966 0.363688 1.022708
v 0.526966 0.363688 1.022708
v 0.524685 0.404925 1.069619
v 0.464626 0.359295 1.023539
v 0.528530 0.358165 1.110910
v 0.466190 0.353772 1.111740
v 0.462345 0.400532 1.070449
v 0.530811 0.316929 1.064000
v 0.468472 0.312535 1.064830
v 0.524685 0.404925 1.069619
v 0.528530 0.358165 1.110910
v 0.466190 0.353772 1.111740
v 0.462345 0.400532 1.070449
v 0.267991 0.346969 -0.034581
v 0.298544 0.348034 -0.041057
v 0.284783 0.290440 -0.002347
v 0.286358 0.302778 0.007109
v 0.301634 0.303310 0.003872
v 0.300060 0.290972 -0.005585
v 0.264842 0.322292 -0.053495
v 0.295395 0.323357 -0.059970
v 0.275935 0.354307 -0.071295
v 0.717800 0.358779 -0.020243
v 0.746330 0.348267 -0.013025
v 0.699766 0.295282 -0.007615
v 0.699551 0.303724 0.005531
v 0.713816 0.298468 0.009139
v 0.714031 0.290026 -0.004007
v 0.718229 0.341894 -0.046535
v 0.746759 0.331382 -0.039317
v 0.745024 0.369183 -0.045051
v 1.046649 0.340598 0.498051
v 1.057339 0.318098 0.516919
v 0.995506 0.297930 0.489085
v 0.992867 0.307070 0.501480
v 0.998213 0.295820 0.510914
v 1.000851 0.286680 0.498519
v 1.051925 0.322318 0.473261
v 1.062616 0.299817 0.492130
v 1.083519 0.331874 0.492636
v 0.866655 0.316671 0.912715
v 0.894438 0.314197 0.898623
v 0.843049 0.304181 0.851044
v 0.845725 0.290806 0.858667
v 0.859616 0.289569 0.851621
v 0.856940 0.302944 0.843998
v 0.861304 0.343420 0.897470
v 0.889087 0.340946 0.883378
v 0.891140 0.344775 0.921404
v 0.250121 0.299177 1.049564
v 0.269716 0.322771 1.055559
v 0.284871 0.295247 0.992174
v 0.291749 0.286706 1.003305
v 0.301547 0.298503 1.006302
v 0.294669 0.307044 0.995171
v 0.236365 0.316258 1.027302
v 0.255960 0.339852 1.033297
v 0.232956 0.330834 1.062527
v 0.090198 0.346189 0.145699
v 0.134729 0.356822 0.103154
v 0.078228 0.290803 0.119329
v 0.122759 0.301436 0.076783
v 0.064289 0.350749 0.073815
v 0.134542 0.280370 0.152711
v 0.140527 0.308063 0.165897
v 0.162793 0.313380 0.144624
v 0.156808 0.285687 0.131439
v 0.090198 0.346189 0.145699
v 0.134729 0.356822 0.103154
v 0.078228 0.290803 0.119329
v 0.122759 0.301436 0.076783
v 0.122759 0.301436 0.076783
v 0.080570 0.328373 0.039357
v 0.078228 0.290803 0.119329
v 0.092540 0.383759 0.065728
v 0.048009 0.373126 0.108273
v 0.036039 0.317740 0.081903
v 0.134729 0.356822 0.103154
v 0.090198 0.346189 0.145699
v 0.080570 0.328373 0.039357
v 0.092540 0.383759 0.065728
v 0.048009 0.373126 0.108273
v 0.036039 0.317740 0.081903
v -0.027346 0.329449 0.770102
v 0.012081 0.365831 0.738038
v -0.066840 0.329558 0.721662
v -0.027413 0.365939 0.689598
v -0.055521 0.398514 0.752908
v -0.018968 0.287807 0.702697
v 0.000779 0.287752 0.726917
v 0.020493 0.305943 0.710885
v 0.000745 0.305998 0.686665
v -0.027346 0.329449 0.770102
v 0.012081 0.365831 0.738038
v -0.066840 0.329558 0.721662
v -0.027413 0.365939 0.689598
v -0.027413 0.365939 0.689598
v -0.055555 0.416759 0.712656
v -0.066840 0.329558 0.721662
v -0.016061 0.416650 0.761096
v -0.055488 0.380268 0.793160
v -0.094982 0.380377 0.744720
v 0.012081 0.365831 0.738038
v -0.027346 0.329449 0.770102
v -0.055555 0.416759 0.712656
v -0.016061 0.416650 0.761096
v -0.055488 0.380268 0.793160
v -0.094982 0.380377 0.744720
v 0.110046 0.328954 0.894621
v 0.138980 0.337303 0.902968
v 0.141792 0.299650 0.843142
v 0.141076 0.289925 0.855350
v 0.155543 0.294100 0.859524
v 0.156259 0.303825 0.847315
v 0.111477 0.348404 0.870204
v 0.140411 0.356754 0.878551
v 0.113509 0.365843 0.904213
v 0.862294 0.367828 0.122116
v 0.914153 0.332996 0.124006
v 0.837415 0.328523 0.080373
v 0.889275 0.293691 0.082263
v 0.900236 0.364644 0.055712
v 0.832148 0.295757 0.137759
v 0.844587 0.315409 0.158631
v 0.870517 0.297993 0.159576
v 0.858078 0.278341 0.138704
v 0.862294 0.367828 0.122116
v 0.914153 0.332996 0.124006
v 0.837415 0.328523 0.080373
v 0.889275 0.293691 0.082263
v 0.889275 0.293691 0.082263
v 0.913727 0.327576 0.035785
v 0.837415 0.328523 0.080373
v 0.938605 0.366880 0.077528
v 0.886746 0.401712 0.075639
v 0.861867 0.362408 0.033895
v 0.914153 0.332996 0.124006
v 0.862294 0.367828 0.122116
v 0.913727 0.327576 0.035785
v 0.938605 0.366880 0.077528
v 0.886746 0.401712 0.075639
v 0.861867 0.362408 0.033895
v 1.027022 0.332674 0.768483
v 1.070427 0.303712 0.734082
v 1.014334 0.370656 0.720497
v 1.057739 0.341694 0.686096
v 1.085523 0.377493 0.747788
v 0.985215 0.313611 0.703395
v 0.991559 0.294620 0.727388
v 1.013261 0.280139 0.710187
v 1.006917 0.299130 0.686194
v 1.027022 0.332674 0.768483
v 1.070427 0.303712 0.734082
v 1.014334 0.370656 0.720497
v 1.057739 0.341694 0.686096
v 1.057739 0.341694 0.686096
v 1.100881 0.382003 0.706594
v 1.014334 0.370656 0.720497
v 1.113569 0.344021 0.754580
v 1.070164 0.372983 0.788981
v 1.057476 0.410965 0.740995
v 1.070427 0.303712 0.734082
v 1.027022 0.332674 0.768483
v 1.100881 0.382003 0.706594
v 1.113569 0.344021 0.754580
v 1.070164 0.372983 0.788981
v 1.057476 0.410965 0.740995
vt 0.937500 0.948223
vt 0.812500 1.000000
vt 0.812500 0.562500
vt 0.937500 0.614277
vt 0.750000 0.562500
vt 0.750000 1.000000
vt 0.812500 1.000000
vt 0.812500 0.562500
vt 0.750000 1.000000
vt 0.750000 0.562500
vt 0.812500 0.562500
vt 0.812500 1.000000
vt 0.812500 1.000000
vt 0.937500 0.948223
vt 0.750000 0.562500
vt 0.812500 0.562500
vt 0.812500 0.562500
vt 0.937500 0.614277
vt 0.750000 1.000000
vt 0.750000 0.562500
vt 0.812500 0.562500
vt 0.812500 1.000000
vt 0.812500 1.000000
vt 0.937500 0.948223
vt 0.937500 0.640962
vt 0.750000 0.562500
vt 0.750000 1.000000
vt 0.937500 0.921538
vt 0.812500 0.562500
vt 0.937500 0.614277
vt 0.937500 0.921538
vt 0.750000 1.000000
vt 0.750000 0.562500
vt 0.937500 0.640962
vt 0.812500 1.000000
vt 0.937500 0.948223
vt 0.937500 0.640962
vt 0.750000 0.562500
vt 0.750000 1.000000
vt 0.937500 0.921538
vt 0.750000 1.000000
vt 0.812500 1.000000
vt 0.812500 0.562500
vt 0.937500 0.614277
vt 0.875000 0.972755
vt 0.750000 0.972755
vt 0.750000 0.589745
vt 0.875000 0.589745
vt 0.875000 0.972755
vt 0.750000 0.972755
vt 0.750000 0.589745
vt 0.875000 0.589745
vt 0.875000 0.972755
vt 0.750000 0.972755
vt 0.750000 0.589745
vt 0.875000 0.589745
vt 0.875000 0.972755
vt 0.750000 0.972755
vt 0.750000 0.589745
vt 0.875000 0.589745
vt 0.937500 0.589745
vt 0.875000 0.589745
vt 0.875000 0.972755
vt 0.937500 0.972755
vt 0.937500 0.589745
vt 0.875000 0.589745
vt 0.875000 0.972755
vt 0.937500 0.972755
vt 0.937500 0.589745
vt 0.875000 0.589745
vt 0.875000 0.972755
vt 0.937500 0.972755
vt 0.937500 0.589745
vt 0.875000 0.589745
vt 0.875000 0.972755
vt 0.937500 0.972755
vt 0.937500 0.921538
vt 0.750000 1.000000
vt 0.937500 0.640962
vt 0.750000 0.562500
vt 0.875000 0.125000
vt 0.812500 0.125000
vt 0.812500 0.062500
vt 0.875000 0.062500
vt 0.812500 0.000000
vt 0.875000 0.000000
vt 0.812500 0.062500
vt 0.937500 -0.000000
vt 0.875000 -0.000000
vt 0.875000 0.062500
vt 0.812500 0.000000
vt 0.875000 0.000000
vt 0.937500 -0.000000
vt 0.875000 -0.000000
vt 0.875000 0.125000
vt 0.812500 0.125000
vt 0.812500 0.062500
vt 0.875000 0.062500
vt 0.937500 0.125000
vt 0.937500 0.062500
vt 0.937500 0.125000
vt 0.937500 0.062500
vt 0.875000 0.000000
vt 0.875000 0.062500
vt 0.937500 0.062500
vt 0.937500 0.000000
vt 0.750000 -0.000000
vt 0.750000 0.062500
vt 0.812500 0.062500
vt 0.812500 -0.000000
vt 0.875000 0.000000
vt 0.875000 0.062500
vt 0.937500 0.062500
vt 0.937500 0.000000
vt 0.750000 0.000000
vt 0.750000 0.062500
vt 0.812500 0.062500
vt 0.812500 0.000000
vt 0.875000 0.000000
vt 0.937500 0.000000
vt 0.937500 0.062500
vt 0.875000 0.062500
vt 0.750000 -0.000000
vt 0.812500 -0.000000
vt 0.812500 0.062500
vt 0.750000 0.062500
vt 0.875000 0.000000
vt 0.937500 0.000000
vt 0.937500 0.062500
vt 0.875000 0.062500
vt 0.750000 0.000000
vt 0.812500 0.000000
vt 0.812500 0.062500
vt 0.750000 0.062500
vt 0.875000 0.125000
vt 0.812500 0.125000
vt 0.812500 0.062500
vt 0.875000 0.062500
vt 0.875000 0.125000
vt 0.812500 0.125000
vt 0.812500 0.062500
vt 0.875000 0.062500
vt 0.937500 0.125000
vt 0.937500 0.062500
vt 0.937500 0.125000
vt 0.937500 0.062500
vt 0.875000 0.000000
vt 0.937500 0.000000
vt 0.875000 0.062500
vt 0.750000 -0.000000
vt 0.812500 -0.000000
vt 0.750000 0.062500
vt 0.875000 0.000000
vt 0.937500 0.000000
vt 0.750000 0.000000
vt 0.812500 0.000000
vt 0.875000 0.125000
vt 0.812500 0.125000
vt 0.812500 0.062500
vt 0.875000 0.062500
vt 0.875000 0.125000
vt 0.812500 0.125000
vt 0.812500 0.062500
vt 0.875000 0.062500
vt 0.937500 0.125000
vt 0.937500 0.062500
vt 0.937500 0.125000
vt 0.937500 0.062500
vt 0.875000 0.000000
vt 0.937500 0.000000
vt 0.875000 0.062500
vt 0.750000 -0.000000
vt 0.812500 -0.000000
vt 0.750000 0.062500
vt 0.875000 0.000000
vt 0.937500 0.000000
vt 0.750000 0.000000
vt 0.812500 0.000000
vt 0.875000 0.125000
vt 0.812500 0.125000
vt 0.812500 0.062500
vt 0.875000 0.062500
vt 0.875000 0.125000
vt 0.812500 0.125000
vt 0.812500 0.062500
vt 0.875000 0.062500
vt 0.937500 0.125000
vt 0.937500 0.062500
vt 0.937500 0.125000
vt 0.937500 0.062500
vt 0.875000 0.000000
vt 0.937500 0.000000
vt 0.875000 0.062500
vt 0.750000 -0.000000
vt 0.812500 -0.000000
vt 0.750000 0.062500
vt 0.875000 0.000000
vt 0.937500 0.000000
vt 0.750000 0.000000
vt 0.812500 0.000000
vt 0.875000 0.125000
vt 0.812500 0.125000
vt 0.812500 0.062500
vt 0.875000 0.062500
vt 0.875000 0.125000
vt 0.812500 0.125000
vt 0.812500 0.062500
vt 0.875000 0.062500
vt 0.937500 0.125000
vt 0.937500 0.062500
vt 0.937500 0.125000
vt 0.937500 0.062500
vt 0.875000 0.000000
vt 0.937500 0.000000
vt 0.875000 0.062500
vt 0.750000 -0.000000
vt 0.812500 -0.000000
vt 0.750000 0.062500
vt 0.875000 0.000000
vt 0.937500 0.000000
vt 0.750000 0.000000
vt 0.812500 0.000000
vt 0.875000 0.125000
vt 0.812500 0.125000
vt 0.812500 0.062500
vt 0.875000 0.062500
vt 0.875000 0.125000
vt 0.812500 0.125000
vt 0.812500 0.062500
vt 0.875000 0.062500
vt 0.937500 0.125000
vt 0.937500 0.062500
vt 0.937500 0.125000
vt 0.937500 0.062500
vt 0.875000 0.000000
vt 0.937500 0.000000
vt 0.875000 0.062500
vt 0.750000 -0.000000
vt 0.812500 -0.000000
vt 0.750000 0.062500
vt 0.875000 0.000000
vt 0.937500 0.000000
vt 0.750000 0.000000
vt 0.812500 0.000000
vt 0.875000 0.125000
vt 0.812500 0.125000
vt 0.812500 0.062500
vt 0.875000 0.062500
vt 0.812500 0.000000
vt 0.875000 0.000000
vt 0.812500 0.062500
vt 0.937500 -0.000000
vt 0.875000 -0.000000
vt 0.875000 0.062500
vt 0.812500 0.000000
vt 0.875000 0.000000
vt 0.937500 -0.000000
vt 0.875000 -0.000000
vt 0.875000 0.125000
vt 0.812500 0.125000
vt 0.812500 0.062500
vt 0.875000 0.062500
vt 0.937500 0.125000
vt 0.937500 0.062500
vt 0.937500 0.125000
vt 0.937500 0.062500
vt 0.875000 0.000000
vt 0.875000 0.062500
vt 0.937500 0.062500
vt 0.937500 0.000000
vt 0.750000 -0.000000
vt 0.750000 0.062500
vt 0.812500 0.062500
vt 0.812500 -0.000000
vt 0.875000 0.000000
vt 0.875000 0.062500
vt 0.937500 0.062500
vt 0.937500 0.000000
vt 0.750000 0.000000
vt 0.750000 0.062500
vt 0.812500 0.062500
vt 0.812500 0.000000
vt 0.875000 0.000000
vt 0.937500 0.000000
vt 0.937500 0.062500
vt 0.875000 0.062500
vt 0.750000 -0.000000
vt 0.812500 -0.000000
vt 0.812500 0.062500
vt 0.750000 0.062500
vt 0.875000 0.000000
vt 0.937500 0.000000
vt 0.937500 0.062500
vt 0.875000 0.062500
vt 0.750000 0.000000
vt 0.812500 0.000000
vt 0.812500 0.062500
vt 0.750000 0.062500
vt 0.875000 0.125000
vt 0.812500 0.125000
vt 0.812500 0.062500
vt 0.875000 0.062500
vt 0.812500 0.000000
vt 0.875000 0.000000
vt 0.812500 0.062500
vt 0.937500 -0.000000
vt 0.875000 -0.000000
vt 0.875000 0.062500
vt 0.812500 0.000000
vt 0.875000 0.000000
vt 0.937500 -0.000000
vt 0.875000 -0.000000
vt 0.875000 0.125000
vt 0.812500 0.125000
vt 0.812500 0.062500
vt 0.875000 0.062500
vt 0.937500 0.125000
vt 0.937500 0.062500
vt 0.937500 0.125000
vt 0.937500 0.062500
vt 0.875000 0.000000
vt 0.875000 0.062500
vt 0.937500 0.062500
vt 0.937500 0.000000
vt 0.750000 -0.000000
vt 0.750000 0.062500
vt 0.812500 0.062500
vt 0.812500 -0.000000
vt 0.875000 0.000000
vt 0.875000 0.062500
vt 0.937500 0.062500
vt 0.937500 0.000000
vt 0.750000 0.000000
vt 0.750000 0.062500
vt 0.812500 0.062500
vt 0.812500 0.000000
vt 0.875000 0.000000
vt 0.937500 0.000000
vt 0.937500 0.062500
vt 0.875000 0.062500
vt 0.750000 -0.000000
vt 0.812500 -0.000000
vt 0.812500 0.062500
vt 0.750000 0.062500
vt 0.875000 0.000000
vt 0.937500 0.000000
vt 0.937500 0.062500
vt 0.875000 0.062500
vt 0.750000 0.000000
vt 0.812500 0.000000
vt 0.812500 0.062500
vt 0.750000 0.062500
vt 0.875000 0.125000
vt 0.812500 0.125000
vt 0.812500 0.062500
vt 0.875000 0.062500
vt 0.875000 0.125000
vt 0.812500 0.125000
vt 0.812500 0.062500
vt 0.875000 0.062500
vt 0.937500 0.125000
vt 0.937500 0.062500
vt 0.937500 0.125000
vt 0.937500 0.062500
vt 0.875000 0.000000
vt 0.937500 0.000000
vt 0.875000 0.062500
vt 0.750000 -0.000000
vt 0.812500 -0.000000
vt 0.750000 0.062500
vt 0.875000 0.000000
vt 0.937500 0.000000
vt 0.750000 0.000000
vt 0.812500 0.000000
vt 0.875000 0.125000
vt 0.812500 0.125000
vt 0.812500 0.062500
vt 0.875000 0.062500
vt 0.812500 0.000000
vt 0.875000 0.000000
vt 0.812500 0.062500
vt 0.937500 -0.000000
vt 0.875000 -0.000000
vt 0.875000 0.062500
vt 0.812500 0.000000
vt 0.875000 0.000000
vt 0.937500 -0.000000
vt 0.875000 -0.000000
vt 0.875000 0.125000
vt 0.812500 0.125000
vt 0.812500 0.062500
vt 0.875000 0.062500
vt 0.937500 0.125000
vt 0.937500 0.062500
vt 0.937500 0.125000
vt 0.937500 0.062500
vt 0.875000 0.000000
vt 0.875000 0.062500
vt 0.937500 0.062500
vt 0.937500 0.000000
vt 0.750000 -0.000000
vt 0.750000 0.062500
vt 0.812500 0.062500
vt 0.812500 -0.000000
vt 0.875000 0.000000
vt 0.875000 0.062500
vt 0.937500 0.062500
vt 0.937500 0.000000
vt 0.750000 0.000000
vt 0.750000 0.062500
vt 0.812500 0.062500
vt 0.812500 0.000000
vt 0.875000 0.000000
vt 0.937500 0.000000
vt 0.937500 0.062500
vt 0.875000 0.062500
vt 0.750000 -0.000000
vt 0.812500 -0.000000
vt 0.812500 0.062500
vt 0.750000 0.062500
vt 0.875000 0.000000
vt 0.937500 0.000000
vt 0.937500 0.062500
vt 0.875000 0.062500
vt 0.750000 0.000000
vt 0.812500 0.000000
vt 0.812500 0.062500
vt 0.750000 0.062500
vt 0.875000 0.125000
vt 0.812500 0.125000
vt 0.812500 0.062500
vt 0.875000 0.062500
vt 0.812500 0.000000
vt 0.875000 0.000000
vt 0.812500 0.062500
vt 0.937500 -0.000000
vt 0.875000 -0.000000
vt 0.875000 0.062500
vt 0.812500 0.000000
vt 0.875000 0.000000
vt 0.937500 -0.000000
vt 0.875000 -0.000000
vt 0.875000 0.125000
vt 0.812500 0.125000
vt 0.812500 0.062500
vt 0.875000 0.062500
vt 0.937500 0.125000
vt 0.937500 0.062500
vt 0.937500 0.125000
vt 0.937500 0.062500
vt 0.875000 0.000000
vt 0.875000 0.062500
vt 0.937500 0.062500
vt 0.937500 0.000000
vt 0.750000 -0.000000
vt 0.750000 0.062500
vt 0.812500 0.062500
vt 0.812500 -0.000000
vt 0.875000 0.000000
vt 0.875000 0.062500
vt 0.937500 0.062500
vt 0.937500 0.000000
vt 0.750000 0.000000
vt 0.750000 0.062500
vt 0.812500 0.062500
vt 0.812500 0.000000
vt 0.875000 0.000000
vt 0.937500 0.000000
vt 0.937500 0.062500
vt 0.875000 0.062500
vt 0.750000 -0.000000
vt 0.812500 -0.000000
vt 0.812500 0.062500
vt 0.750000 0.062500
vt 0.875000 0.000000
vt 0.937500 0.000000
vt 0.937500 0.062500
vt 0.875000 0.062500
vt 0.750000 0.000000
vt 0.812500 0.000000
vt 0.812500 0.062500
vt 0.750000 0.062500
vn 0.0000 -1.0000 -0.0000
vn 1.0000 0.0000 -0.0000
vn -0.7071 0.0000 -0.7071
vn -0.0000 0.0000 -1.0000
vn -0.7071 0.0000 0.7071
vn -0.0000 1.0000 0.0000
vn -1.0000 0.0000 0.0000
vn 0.0000 0.0000 1.0000
vn 0.7071 0.0000 -0.7071
vn 0.7071 -0.0000 0.7071
vn 0.9765 -0.0918 -0.1949
vn 0.0387 -0.3741 0.9266
vn 0.8758 0.3579 0.3238
vn -0.0714 0.9642 -0.2553
vn -0.9085 0.2322 0.3475
vn -0.9588 -0.2282 -0.1692
vn -0.0508 0.5658 -0.8230
vn 0.0685 -0.8858 0.4589
vn -0.9974 -0.0703 0.0133
vn -0.0615 0.7482 -0.6607
vn 0.9974 0.0703 -0.0133
vn 0.0615 -0.7482 0.6607
vn 0.9930 -0.0422 -0.1103
vn -0.9473 -0.1098 0.3010
vn -0.0771 -0.8595 -0.5052
vn 0.1228 0.7076 0.6959
vn 0.7921 0.3044 -0.5291
vn 0.0077 0.9803 0.1976
vn -0.9569 0.2435 -0.1584
vn -0.1725 -0.4323 -0.8851
vn 0.8553 -0.4295 0.2898
vn -0.9565 0.2381 -0.1686
vn -0.0369 -0.6318 -0.7742
vn -0.0642 0.4405 0.8955
vn 0.9990 0.0440 -0.0120
vn 0.1701 0.8282 0.5340
vn -0.6342 0.6458 -0.4251
vn 0.1947 -0.1383 -0.9711
vn 0.2248 -0.7608 0.6089
vn -0.4541 0.6681 -0.5894
vn 0.0529 -0.6268 -0.7774
vn -0.2822 0.5342 0.7969
vn 0.7194 -0.4770 0.5049
vn 0.2624 0.6902 0.6744
vn 0.1074 0.8110 -0.5752
vn 0.5644 -0.3563 -0.7447
vn 0.8295 -0.1419 -0.5402
vn -0.9348 0.0152 0.3548
vn -0.2226 0.7860 -0.5768
vn 0.1173 -0.9127 0.3914
vn 0.9851 0.1577 -0.0691
vn 0.3431 -0.5371 0.7706
vn -0.6053 0.2993 0.7376
vn 0.0367 0.9941 -0.1021
vn 0.7019 0.7042 0.1066
vn -0.5425 -0.7941 -0.2741
vn -0.3571 0.4974 -0.7906
vn 0.5165 -0.5873 0.6231
vn 0.2734 0.8373 0.4735
vn 0.1063 -0.3269 0.9391
vn -0.8483 -0.5133 0.1303
vn -0.6811 0.6509 -0.3353
vn 0.8549 0.0605 -0.5152
vn -0.1306 0.9854 0.1096
vn 0.3354 0.3449 -0.8767
vn -0.4732 -0.5999 -0.6452
vn -0.9392 0.0406 0.3411
vn -0.5275 -0.2696 0.8056
vn -0.0221 -0.9642 -0.2641
vn 0.3495 0.7552 0.5546
vn -0.7125 -0.1701 0.6807
vn -0.1915 -0.8862 -0.4219
vn 0.7125 0.1701 -0.6807
vn 0.1915 0.8862 0.4219
vn 0.7212 0.3675 -0.5872
vn 0.3638 0.3621 0.8582
vn 0.3629 0.8843 -0.2939
vn -0.7666 0.3652 -0.5282
vn -0.7656 -0.1570 0.6239
vn -0.5028 -0.7619 0.4082
vn -0.5038 -0.1955 -0.8414
vn 0.7222 -0.1989 0.6624
vn -0.6308 -0.5821 0.5130
vn -0.6319 0.0017 -0.7750
vn 0.6308 0.5821 -0.5130
vn 0.6319 -0.0017 0.7750
vn 0.9653 0.1739 0.1951
vn -0.8722 -0.3564 -0.3350
vn 0.0920 0.5264 -0.8453
vn 0.0011 -0.7089 0.7053
vn 0.6604 0.5680 0.4912
vn -0.2087 -0.2277 0.9511
vn -0.9959 0.0900 0.0133
vn -0.1268 0.8857 -0.4466
vn 0.7101 -0.6722 0.2097
vn 0.5310 0.8049 0.2648
vn 0.9171 -0.2560 -0.3055
vn -0.1811 -0.3200 -0.9299
vn -0.5672 0.7409 -0.3596
vn -0.8999 0.4092 0.1510
vn -0.4811 -0.7416 -0.4676
vn 0.2913 0.4786 0.8283
vn -0.8298 0.5573 -0.0302
vn -0.3981 -0.6289 -0.6679
vn 0.8298 -0.5573 0.0302
vn 0.3981 0.6289 0.6679
vn 0.5063 -0.6060 -0.6135
vn 0.4903 -0.2551 0.8334
vn 0.9299 -0.1260 -0.3456
vn 0.1271 0.8320 -0.5400
vn -0.3125 0.7029 0.6390
vn -0.8412 0.2931 0.4544
vn -0.3644 0.4331 -0.8244
vn 0.0295 -0.7460 0.6653
vn -0.6945 0.4634 0.5504
vn -0.2030 0.6077 -0.7678
vn 0.6945 -0.4634 -0.5504
vn 0.2030 -0.6077 0.7678
usemtl BOSS_TROPHY_FEY
s off
f 58/1/1 11/2/1 15/3/1 60/4/1
f 5/5/2 10/6/2 8/7/2 1/8/2
f 7/9/3 2/10/3 6/11/3 14/12/3
f 60/4/1 15/3/1 16/13/1 61/14/1
f 9/15/4 7/9/4 14/12/4 13/16/4
f 61/14/1 16/13/1 2/17/1 57/18/1
f 16/19/5 15/20/5 3/21/5 12/22/5
f 57/18/1 2/17/1 7/23/1 64/24/1
f 54/25/6 3/26/6 4/27/6 52/28/6
f 2/10/7 16/19/7 12/22/7 6/11/7
f 64/24/1 7/23/1 9/29/1 62/30/1
f 51/31/6 14/32/6 6/33/6 53/34/6
f 62/30/1 9/29/1 10/35/1 59/36/1
f 50/37/6 1/38/6 8/39/6 55/40/6
f 15/20/8 11/41/8 4/42/8 3/21/8
f 59/36/1 10/35/1 5/43/1 63/44/1
f 10/6/9 9/15/9 13/16/9 8/7/9
f 52/28/6 4/27/6 1/38/6 50/37/6
f 11/41/10 5/5/10 1/8/10 4/42/10
f 21/45/4 22/46/4 28/47/4 27/48/4
f 17/49/2 19/50/2 29/51/2 31/52/2
f 30/53/8 20/54/8 18/55/8 32/56/8
f 26/57/7 25/58/7 24/59/7 23/60/7
f 39/61/3 40/62/3 38/63/3 37/64/3
f 43/65/9 44/66/9 35/67/9 33/68/9
f 47/69/10 45/70/10 36/71/10 46/72/10
f 48/73/5 34/74/5 41/75/5 42/76/5
f 3/26/6 54/25/6 49/77/6 12/78/6
f 14/32/6 51/31/6 56/79/6 13/80/6
f 55/40/6 8/39/6 13/80/6 56/79/6
f 12/78/6 49/77/6 53/34/6 6/33/6
f 63/44/1 5/43/1 11/2/1 58/1/1
f 68/81/11 66/82/11 72/83/11 73/84/11
f 65/85/12 66/86/12 69/87/12
f 66/88/13 68/89/13 69/90/13
f 68/91/14 67/92/14 69/87/14
f 67/93/15 65/94/15 69/90/15
f 65/95/16 67/96/16 70/97/16 71/98/16
f 67/99/17 68/81/17 73/84/17 70/100/17
f 66/101/18 65/95/18 71/98/18 72/102/18
f 75/103/19 81/104/19 79/105/19 77/106/19
f 74/107/20 82/108/20 81/109/20 75/110/20
f 76/111/21 83/112/21 82/113/21 74/114/21
f 77/115/22 79/116/22 83/117/22 76/118/22
f 84/119/21 78/120/21 86/121/21 87/122/21
f 85/123/22 84/124/22 87/125/22 88/126/22
f 80/127/19 85/128/19 88/129/19 89/130/19
f 78/131/20 80/132/20 89/133/20 86/134/20
f 97/135/23 91/136/23 94/137/23 95/138/23
f 90/139/24 96/140/24 92/141/24 93/142/24
f 96/143/25 97/135/25 95/138/25 92/144/25
f 91/145/26 90/139/26 93/142/26 94/146/26
f 91/147/27 97/148/27 98/149/27
f 90/150/28 91/151/28 98/152/28
f 96/153/29 90/154/29 98/149/29
f 97/155/30 96/156/30 98/152/30
f 106/157/31 100/158/31 103/159/31 104/160/31
f 99/161/32 105/162/32 101/163/32 102/164/32
f 105/165/33 106/157/33 104/160/33 101/166/33
f 100/167/34 99/161/34 102/164/34 103/168/34
f 100/169/35 106/170/35 107/171/35
f 99/172/36 100/173/36 107/174/36
f 105/175/37 99/176/37 107/171/37
f 106/177/38 105/178/38 107/174/38
f 115/179/39 109/180/39 112/181/39 113/182/39
f 108/183/40 114/184/40 110/185/40 111/186/40
f 114/187/41 115/179/41 113/182/41 110/188/41
f 109/189/42 108/183/42 111/186/42 112/190/42
f 109/191/43 115/192/43 116/193/43
f 108/194/44 109/195/44 116/196/44
f 114/197/45 108/198/45 116/193/45
f 115/199/46 114/200/46 116/196/46
f 124/201/47 118/202/47 121/203/47 122/204/47
f 117/205/48 123/206/48 119/207/48 120/208/48
f 123/209/49 124/201/49 122/204/49 119/210/49
f 118/211/50 117/205/50 120/208/50 121/212/50
f 118/213/51 124/214/51 125/215/51
f 117/216/52 118/217/52 125/218/52
f 123/219/53 117/220/53 125/215/53
f 124/221/54 123/222/54 125/218/54
f 133/223/55 127/224/55 130/225/55 131/226/55
f 126/227/56 132/228/56 128/229/56 129/230/56
f 132/231/57 133/223/57 131/226/57 128/232/57
f 127/233/58 126/227/58 129/230/58 130/234/58
f 127/235/59 133/236/59 134/237/59
f 126/238/60 127/239/60 134/240/60
f 132/241/61 126/242/61 134/237/61
f 133/243/62 132/244/62 134/240/62
f 138/245/63 136/246/63 142/247/63 143/248/63
f 135/249/64 136/250/64 139/251/64
f 136/252/65 138/253/65 139/254/65
f 138/255/66 137/256/66 139/251/66
f 137/257/67 135/258/67 139/254/67
f 135/259/68 137/260/68 140/261/68 141/262/68
f 137/263/69 138/245/69 143/248/69 140/264/69
f 136/265/70 135/259/70 141/262/70 142/266/70
f 145/267/71 151/268/71 149/269/71 147/270/71
f 144/271/72 152/272/72 151/273/72 145/274/72
f 146/275/73 153/276/73 152/277/73 144/278/73
f 147/279/74 149/280/74 153/281/74 146/282/74
f 154/283/73 148/284/73 156/285/73 157/286/73
f 155/287/74 154/288/74 157/289/74 158/290/74
f 150/291/71 155/292/71 158/293/71 159/294/71
f 148/295/72 150/296/72 159/297/72 156/298/72
f 163/299/75 161/300/75 167/301/75 168/302/75
f 160/303/76 161/304/76 164/305/76
f 161/306/77 163/307/77 164/308/77
f 163/309/78 162/310/78 164/305/78
f 162/311/79 160/312/79 164/308/79
f 160/313/80 162/314/80 165/315/80 166/316/80
f 162/317/81 163/299/81 168/302/81 165/318/81
f 161/319/82 160/313/82 166/316/82 167/320/82
f 170/321/83 176/322/83 174/323/83 172/324/83
f 169/325/84 177/326/84 176/327/84 170/328/84
f 171/329/85 178/330/85 177/331/85 169/332/85
f 172/333/86 174/334/86 178/335/86 171/336/86
f 179/337/85 173/338/85 181/339/85 182/340/85
f 180/341/86 179/342/86 182/343/86 183/344/86
f 175/345/83 180/346/83 183/347/83 184/348/83
f 173/349/84 175/350/84 184/351/84 181/352/84
f 192/353/87 186/354/87 189/355/87 190/356/87
f 185/357/88 191/358/88 187/359/88 188/360/88
f 191/361/89 192/353/89 190/356/89 187/362/89
f 186/363/90 185/357/90 188/360/90 189/364/90
f 186/365/91 192/366/91 193/367/91
f 185/368/92 186/369/92 193/370/92
f 191/371/93 185/372/93 193/367/93
f 192/373/94 191/374/94 193/370/94
f 197/375/95 195/376/95 201/377/95 202/378/95
f 194/379/96 195/380/96 198/381/96
f 195/382/97 197/383/97 198/384/97
f 197/385/98 196/386/98 198/381/98
f 196/387/99 194/388/99 198/384/99
f 194/389/100 196/390/100 199/391/100 200/392/100
f 196/393/101 197/375/101 202/378/101 199/394/101
f 195/395/102 194/389/102 200/392/102 201/396/102
f 204/397/103 210/398/103 208/399/103 206/400/103
f 203/401/104 211/402/104 210/403/104 204/404/104
f 205/405/105 212/406/105 211/407/105 203/408/105
f 206/409/106 208/410/106 212/411/106 205/412/106
f 213/413/105 207/414/105 215/415/105 216/416/105
f 214/417/106 213/418/106 216/419/106 217/420/106
f 209/421/103 214/422/103 217/423/103 218/424/103
f 207/425/104 209/426/104 218/427/104 215/428/104
f 222/429/107 220/430/107 226/431/107 227/432/107
f 219/433/108 220/434/108 223/435/108
f 220/436/109 222/437/109 223/438/109
f 222/439/110 221/440/110 223/435/110
f 221/441/111 219/442/111 223/438/111
f 219/443/112 221/444/112 224/445/112 225/446/112
f 221/447/113 222/429/113 227/432/113 224/448/113
f 220/449/114 219/443/114 225/446/114 226/450/114
f 229/451/115 235/452/115 233/453/115 231/454/115
f 228/455/116 236/456/116 235/457/116 229/458/116
f 230/459/117 237/460/117 236/461/117 228/462/117
f 231/463/118 233/464/118 237/465/118 230/466/118
f 238/467/117 232/468/117 240/469/117 241/470/117
f 239/471/118 238/472/118 241/473/118 242/474/118
f 234/475/115 239/476/115 242/477/115 243/478/115
f 232/479/116 234/480/116 243/481/116 240/482/116
