# Blender v2.80 (sub 75) OBJ File: 'boss_trophies.blend'
# www.blender.org
mtllib boss_trophy_council_inventory.mtl
o SLATE_Cube.018
v 0.366066 0.658193 0.467778
v 0.122496 0.689443 0.670903
v 0.475441 0.279307 0.657221
v 0.231871 0.310557 0.860346
v 0.095433 0.658193 0.624028
v 0.393129 0.689443 0.514653
v 0.204808 0.279307 0.813471
v 0.502504 0.310557 0.704096
v 0.404567 0.712320 0.409465
v 0.545192 0.225180 0.653035
v 0.025681 0.712320 0.628215
v 0.166306 0.225180 0.871785
v 0.379597 0.673818 0.491216
v 0.373878 0.662380 0.543810
v 0.488972 0.294932 0.680659
v 0.467628 0.337620 0.706190
v 0.108965 0.673818 0.647466
v 0.157372 0.662380 0.668810
v 0.218340 0.294932 0.836909
v 0.251122 0.337620 0.831190
v 0.572256 0.256430 0.699910
v 0.431631 0.743570 0.456340
v 0.052745 0.743570 0.675090
v 0.193370 0.256430 0.918660
v 0.398438 0.202304 0.836348
v 0.197310 0.742780 0.487985
v 0.237905 0.789655 0.558297
v 0.259389 0.704507 0.477659
v 0.299984 0.751382 0.547971
v 0.157327 0.704507 0.536584
v 0.197922 0.751382 0.606897
v 0.219407 0.666234 0.526258
v 0.260002 0.713109 0.596571
v 0.074497 0.511969 0.712766
v 0.115091 0.558844 0.783078
v 0.127501 0.460938 0.716184
v 0.168096 0.507812 0.786497
v 0.050955 0.460938 0.760378
v 0.091550 0.507812 0.830691
v 0.103959 0.409906 0.763797
v 0.144554 0.456781 0.834109
v 0.523440 0.456781 0.615359
v 0.482845 0.409906 0.545047
v 0.546982 0.507812 0.567747
v 0.506387 0.460938 0.497434
v 0.470436 0.507812 0.611941
v 0.429841 0.460938 0.541628
v 0.493977 0.558844 0.564328
v 0.453382 0.511969 0.494016
v 0.440848 0.180389 0.909805
v 0.389043 0.164764 0.908465
v 0.416268 0.203037 0.867231
v 0.438365 0.126490 0.905505
v 0.465590 0.164764 0.864271
v 0.366424 0.156951 0.780899
v 0.407019 0.203826 0.851212
v 0.350770 0.164764 0.930562
v 0.405220 0.241310 0.848095
v 0.296644 0.102264 0.836812
v 0.351093 0.178810 0.754345
v 0.449414 0.088217 0.924641
v 0.503863 0.164764 0.842174
v 0.395287 0.025717 0.830891
v 0.449737 0.102264 0.748424
v 0.304570 0.133514 0.894736
v 0.427875 0.037831 0.887335
v 0.372632 0.229197 0.791651
v 0.495937 0.133514 0.784250
v 0.243518 0.164203 0.847025
v 0.257049 0.211078 0.807963
v 0.284113 0.211078 0.917338
v 0.297644 0.257953 0.878275
v 0.352893 0.110076 0.819962
v 0.393487 0.156951 0.890274
v 0.270581 0.164203 0.956400
v 0.229986 0.117328 0.886088
v 0.379956 0.110076 0.929337
v 0.339361 0.063201 0.859024
v 0.174738 0.265205 0.944401
v 0.134143 0.218329 0.874088
v 0.147674 0.265204 0.835026
v 0.188269 0.312080 0.905338
v 0.259906 0.619691 0.596404
v 0.366424 0.156951 0.780899
v 0.407019 0.203826 0.851212
v 0.485144 0.164203 0.707522
v 0.444549 0.211078 0.699709
v 0.525739 0.211078 0.777835
v 0.485144 0.257953 0.770022
v 0.407019 0.110076 0.788712
v 0.447614 0.156951 0.859024
v 0.566334 0.164203 0.785647
v 0.525739 0.117328 0.715334
v 0.488209 0.110076 0.866837
v 0.447614 0.063201 0.796524
v 0.603864 0.265205 0.696645
v 0.563269 0.218329 0.626332
v 0.522674 0.265204 0.618520
v 0.563269 0.312080 0.688832
vt 0.937500 0.562500
vt 0.937500 0.125000
vt 1.000000 0.125000
vt 1.000000 0.562500
vt 0.062500 0.375000
vt 0.062500 0.062500
vt 0.125000 0.000000
vt 0.125000 0.437500
vt 0.250000 0.375000
vt 0.187500 0.437500
vt 0.187500 0.000000
vt 0.250000 0.062500
vt 1.000000 0.562500
vt 0.937500 0.625000
vt 0.937500 0.062500
vt 1.000000 0.125000
vt 0.937500 0.062500
vt 0.937500 0.625000
vt 1.000000 0.125000
vt 0.937500 0.062500
vt 0.937500 0.625000
vt 1.000000 0.562500
vt 0.250000 0.062500
vt 0.250000 0.375000
vt 0.187500 0.437500
vt 0.187500 0.000000
vt 0.062500 0.375000
vt 0.125000 0.437500
vt 0.125000 0.000000
vt 0.062500 0.062500
vt 0.906250 0.031250
vt 0.875000 0.062500
vt 0.500000 0.062500
vt 0.468750 0.031250
vt 0.500000 0.312500
vt 0.468750 0.343750
vt 0.875000 0.312500
vt 0.906250 0.343750
vt 0.156250 0.218750
vt 0.937500 0.125000
vt 0.937500 0.562500
vt 1.000000 0.562500
vt 1.000000 0.125000
vt 0.937500 0.375000
vt 0.375000 0.375000
vt 0.375000 0.437500
vt 0.937500 0.437500
vt 0.000000 0.375000
vt 0.000000 0.062500
vt 0.187500 0.062500
vt 0.187500 0.375000
vt 0.937500 0.000000
vt 1.000000 0.000000
vt 1.000000 0.062500
vt 0.937500 0.062500
vt 0.375000 0.375000
vt 0.937500 0.375000
vt 0.937500 0.437500
vt 0.375000 0.437500
vt 0.937500 0.625000
vt 0.937500 0.062500
vt 0.062500 0.000000
vt 0.062500 0.437500
vt 0.062500 0.687500
vt 0.062500 0.750000
vt 0.000000 0.750000
vt 0.000000 0.687500
vt 0.062500 0.750000
vt 0.062500 0.687500
vt 0.937500 0.687500
vt 0.937500 0.750000
vt 1.000000 0.750000
vt 1.000000 0.687500
vt 0.937500 0.750000
vt 0.937500 0.687500
vt 0.437500 0.375000
vt 0.437500 0.312500
vt 0.375000 0.250000
vt 0.375000 0.312500
vt 0.437500 0.312500
vt 0.437500 0.375000
vt 0.375000 0.312500
vt 0.375000 0.250000
vt 0.250000 0.375000
vt 0.312500 0.375000
vt 0.312500 0.312500
vt 0.250000 0.312500
vt 0.312500 0.250000
vt 0.250000 0.250000
vt 0.312500 0.312500
vt 0.250000 0.312500
vt 0.312500 0.437500
vt 0.375000 0.375000
vt 0.312500 0.375000
vt 0.250000 0.437500
vt 0.375000 0.375000
vt 0.312500 0.437500
vt 0.250000 0.437500
vt 0.312500 0.375000
vt 0.375000 0.375000
vt 0.312500 0.375000
vt 0.250000 0.437500
vt 0.312500 0.437500
vt 0.312500 0.437500
vt 0.250000 0.437500
vt 0.312500 0.375000
vt 0.375000 0.375000
vt 0.250000 0.312500
vt 0.250000 0.375000
vt 0.312500 0.375000
vt 0.312500 0.312500
vt 0.250000 0.250000
vt 0.312500 0.250000
vt 0.250000 0.312500
vt 0.312500 0.312500
vt 0.699846 0.750000
vt 0.800154 0.750000
vt 0.812500 0.687500
vt 0.687500 0.687500
vt 0.562500 0.750000
vt 0.562500 0.625000
vt 0.437500 0.625000
vt 0.437500 0.750000
vt 0.437500 0.750000
vt 0.437500 0.625000
vt 0.562500 0.625000
vt 0.562500 0.750000
vt 0.300154 0.750000
vt 0.199846 0.750000
vt 0.187500 0.687500
vt 0.312500 0.687500
vt 0.300154 0.750000
vt 0.312500 0.687500
vt 0.199846 0.687500
vt 0.300154 0.687500
vt 0.312500 0.750000
vt 0.187500 0.750000
vt 0.699846 0.687500
vt 0.800154 0.687500
vt 0.812500 0.750000
vt 0.687500 0.750000
vt 0.800154 0.750000
vt 0.812500 0.687500
vt 0.300154 0.687500
vt 0.312500 0.750000
vt 0.800154 0.687500
vt 0.812500 0.750000
vt 0.437500 0.125000
vt 0.437500 0.250000
vt 0.375000 0.250000
vt 0.375000 0.125000
vt 0.375000 0.000000
vt 0.437500 0.000000
vt 0.375000 0.000000
vt 0.375000 0.125000
vt 0.437500 0.125000
vt 0.437500 0.000000
vt 0.250000 0.125000
vt 0.250000 0.062500
vt 0.312500 0.062500
vt 0.312500 0.125000
vt 0.375000 0.125000
vt 0.312500 0.125000
vt 0.312500 0.250000
vt 0.375000 0.250000
vt 0.312500 0.125000
vt 0.250000 0.125000
vt 0.250000 0.000000
vt 0.312500 0.000000
vt 0.312500 0.000000
vt 0.312500 0.062500
vt 0.250000 0.062500
vt 0.250000 0.000000
vt 0.312500 0.000000
vt 0.312500 0.125000
vt 0.375000 0.250000
vt 0.437500 0.250000
vt 0.312500 0.375000
vt 0.375000 0.375000
vt 0.250000 0.187500
vt 0.312500 0.187500
vt 0.312500 0.250000
vt 0.250000 0.250000
vt 0.312500 0.250000
vt 0.250000 0.250000
vt 0.437500 0.125000
vt 0.375000 0.125000
vt 0.375000 0.250000
vt 0.437500 0.250000
vt 0.437500 0.000000
vt 0.375000 0.000000
vt 0.375000 0.000000
vt 0.437500 0.000000
vt 0.437500 0.125000
vt 0.375000 0.125000
vt 0.250000 0.125000
vt 0.312500 0.125000
vt 0.312500 0.062500
vt 0.250000 0.062500
vt 0.375000 0.125000
vt 0.375000 0.250000
vt 0.312500 0.250000
vt 0.312500 0.125000
vt 0.312500 0.125000
vt 0.312500 0.000000
vt 0.250000 0.000000
vt 0.250000 0.125000
vt 0.312500 0.000000
vt 0.250000 0.000000
vt 0.250000 0.062500
vt 0.312500 0.062500
vt 0.312500 0.125000
vt 0.312500 0.000000
vt 0.437500 0.250000
vt 0.375000 0.250000
vt 0.375000 0.375000
vt 0.312500 0.375000
vt 0.250000 0.187500
vt 0.250000 0.250000
vt 0.312500 0.250000
vt 0.312500 0.187500
vt 0.250000 0.250000
vt 0.312500 0.250000
vt 0.812500 0.187500
vt 0.812500 0.250000
vt 0.750000 0.250000
vt 0.187500 0.187500
vt 0.250000 0.187500
vt 0.187500 0.250000
vt 0.187500 0.687500
vt 0.250000 0.687500
vt 0.187500 0.750000
vt 0.750000 0.687500
vt 0.812500 0.687500
vt 0.750000 0.750000
vn -0.8660 0.0000 0.5000
vn 0.4330 0.5000 0.7500
vn -0.4330 -0.5000 -0.7500
vn 0.9186 0.3536 0.1768
vn 0.4830 -0.2588 0.8365
vn -0.3062 0.3536 0.8839
vn 0.1294 0.9659 0.2241
vn -0.1294 -0.9659 -0.2241
vn 0.8660 0.0000 -0.5000
vn 0.2500 -0.8660 0.4330
vn -0.2500 0.8660 -0.4330
vn 0.3196 0.6928 -0.6464
vn 0.7196 -0.6928 0.0464
vn -0.3196 -0.6928 0.6464
vn -0.7196 0.6928 -0.0464
vn 0.5428 0.5196 -0.6598
vn 0.8428 -0.5196 -0.1402
vn -0.5428 -0.5196 0.6598
vn -0.8428 0.5196 0.1402
vn 0.5276 0.7154 -0.4581
vn -0.5276 -0.7154 0.4581
vn 0.6606 -0.7154 -0.2279
vn -0.3176 -0.4728 0.8219
vn -0.8706 0.4728 -0.1359
vn -0.6606 0.7154 0.2279
vn 0.8706 -0.4728 0.1359
vn 0.3176 0.4728 -0.8219
vn -0.8750 0.4330 0.2165
vn 0.2165 0.7500 -0.6250
vn -0.2165 -0.7500 0.6250
vn 0.8750 -0.4330 -0.2165
vn 0.6250 0.4330 -0.6495
vn -0.6495 0.7500 -0.1250
vn 0.6495 -0.7500 0.1250
vn -0.6250 -0.4330 0.6495
vn -0.2518 0.7866 0.5638
vn 0.8642 -0.0795 0.4968
vn -0.0018 -0.0795 0.9968
vn 0.6142 0.7866 0.0638
usemtl BOSS_TROPHY_COUNCIL
s off
f 1/1/1 3/2/1 8/3/1 6/4/1
f 2/5/2 6/6/2 22/7/2 23/8/2
f 4/9/2 24/10/2 21/11/2 8/12/2
f 1/13/3 9/14/3 10/15/3 3/16/3
f 6/4/2 8/3/2 21/17/2 22/18/2
f 7/19/3 12/20/3 11/21/3 5/22/3
f 7/23/3 3/24/3 10/25/3 12/26/3
f 5/27/3 11/28/3 9/29/3 1/30/3
f 13/31/4 14/32/4 16/33/4 15/34/4
f 15/34/5 16/33/5 20/35/5 19/36/5
f 19/36/6 20/35/6 18/37/6 17/38/6
f 17/38/7 18/37/7 14/32/7 13/31/7
f 20/35/2 16/33/2 14/32/2 18/37/2
f 12/26/8 10/25/8 25/39/8
f 7/40/9 5/41/9 2/42/9 4/43/9
f 10/44/9 9/45/9 22/46/9 21/47/9
f 5/48/10 1/49/10 6/6/10 2/5/10
f 3/50/11 7/51/11 4/9/11 8/12/11
f 3/52/3 7/53/3 5/54/3 1/55/3
f 11/56/1 12/57/1 24/58/1 23/59/1
f 21/11/2 24/10/2 25/39/2
f 2/42/2 23/60/2 24/61/2 4/43/2
f 23/8/11 22/7/11 9/62/11 11/63/11
f 26/64/12 27/65/12 29/66/12 28/67/12
f 28/67/13 29/66/13 33/68/13 32/69/13
f 32/70/14 33/71/14 31/72/14 30/73/14
f 30/73/15 31/72/15 27/74/15 26/75/15
f 28/76/3 32/77/3 30/78/3 26/79/3
f 33/80/2 29/81/2 27/82/2 31/83/2
f 34/84/16 35/85/16 37/86/16 36/87/16
f 36/87/17 37/86/17 41/88/17 40/89/17
f 40/89/18 41/88/18 39/90/18 38/91/18
f 38/91/19 39/90/19 35/85/19 34/84/19
f 36/92/3 40/93/3 38/94/3 34/95/3
f 41/96/2 37/97/2 35/98/2 39/99/2
f 42/100/2 44/101/2 48/102/2 46/103/2
f 47/104/3 49/105/3 45/106/3 43/107/3
f 45/108/16 49/109/16 48/110/16 44/111/16
f 43/112/17 45/108/17 44/111/17 42/113/17
f 47/114/18 43/112/18 42/113/18 46/115/18
f 49/109/19 47/114/19 46/115/19 48/110/19
f 58/116/20 62/117/20 68/118/20 67/119/20
f 59/120/3 60/121/3 64/122/3 63/123/3
f 61/124/2 62/125/2 58/126/2 57/127/2
f 59/128/21 63/129/21 66/130/21 65/131/21
f 63/129/22 64/132/22 68/133/22 66/130/22
f 61/134/23 57/135/23 65/136/23 66/137/23
f 60/138/24 59/139/24 65/140/24 67/141/24
f 57/142/25 58/116/25 67/119/25 65/143/25
f 62/144/26 61/134/26 66/137/26 68/145/26
f 64/146/27 60/138/27 67/141/27 68/147/27
f 72/148/2 82/149/2 79/150/2 71/151/2
f 71/151/2 74/152/2 56/153/2 72/148/2
f 73/154/3 69/155/3 70/156/3 55/157/3
f 69/158/28 76/159/28 75/160/28 71/161/28
f 56/162/29 55/163/29 70/164/29 72/165/29
f 75/166/30 76/167/30 78/168/30 77/169/30
f 74/170/31 77/171/31 78/172/31 73/173/31
f 73/154/3 78/174/3 76/175/3 69/155/3
f 71/151/2 75/166/2 77/169/2 74/152/2
f 69/155/3 80/176/3 81/177/3 70/156/3
f 70/164/29 81/178/29 82/179/29 72/165/29
f 80/180/28 79/181/28 82/182/28 81/183/28
f 71/161/30 79/184/30 80/185/30 69/158/30
f 89/186/2 88/187/2 96/188/2 99/189/2
f 88/187/2 89/186/2 85/190/2 91/191/2
f 90/192/3 84/193/3 87/194/3 86/195/3
f 86/196/32 88/197/32 92/198/32 93/199/32
f 85/200/33 89/201/33 87/202/33 84/203/33
f 92/204/34 94/205/34 95/206/34 93/207/34
f 91/208/35 90/209/35 95/210/35 94/211/35
f 90/192/3 86/195/3 93/212/3 95/213/3
f 88/187/2 91/191/2 94/205/2 92/204/2
f 86/195/3 87/194/3 98/214/3 97/215/3
f 87/202/33 89/201/33 99/216/33 98/217/33
f 97/218/32 98/219/32 99/220/32 96/221/32
f 88/197/34 86/196/34 97/222/34 96/223/34
usemtl CHIMERITE
f 50/224/36 52/225/36 51/226/36
f 53/227/37 54/228/37 50/229/37
f 51/230/38 53/231/38 50/232/38
f 54/233/39 52/234/39 50/235/39
o CRYSTAL_OUTER_Cube.017
v 0.557138 0.093750 0.166223
v 0.531250 0.093750 0.103723
v 0.692864 0.093750 0.166223
v 0.895529 0.093750 0.280500
v 0.718752 0.093750 0.103723
v 0.833029 0.093750 0.306388
v 0.833029 0.031250 0.306388
v 0.718752 0.031250 0.103723
v 0.692864 0.031250 0.166223
v 0.531250 0.031250 0.103723
v 0.841037 0.085662 0.290794
v 0.862381 0.093750 0.269450
v 0.713025 0.294791 0.242029
v 0.734369 0.302879 0.220685
v 0.808483 0.055477 0.246801
v 0.829827 0.063565 0.225457
v 0.680471 0.264606 0.198036
v 0.701815 0.272694 0.176692
v 0.702366 0.355161 0.208493
v 0.681022 0.347073 0.229837
v 0.734921 0.385346 0.252486
v 0.713576 0.377258 0.273830
v 0.745579 0.324976 0.286021
v 0.766923 0.333064 0.264677
v 0.746131 0.407444 0.317822
v 0.767475 0.415532 0.296478
v 0.448223 0.250000 0.374250
v 0.536612 0.125000 0.374250
v 0.625000 0.250000 0.551027
v 0.625000 0.125000 0.462638
v 0.625000 0.250000 0.197473
v 0.625000 0.125000 0.285862
v 0.801777 0.250000 0.374250
v 0.713388 0.125000 0.374250
v 0.448223 0.187500 0.374250
v 0.625000 0.187500 0.551027
v 0.801777 0.187500 0.374250
v 0.625000 0.187500 0.197473
v 0.625000 0.437500 0.374250
v 0.833027 0.093750 0.442114
v 0.895527 0.093750 0.468002
v 0.692862 0.093750 0.582279
v 0.692862 0.031250 0.582279
v 0.895527 0.031250 0.468002
v 0.718750 0.031250 0.644779
v 0.833027 0.031250 0.442114
v 0.895527 0.031250 0.280500
v 0.708456 0.085662 0.590287
v 0.729801 0.093750 0.611631
v 0.757221 0.294791 0.462275
v 0.778565 0.302879 0.483619
v 0.752449 0.055477 0.557733
v 0.773793 0.063565 0.579077
v 0.801214 0.264606 0.429721
v 0.822558 0.272694 0.451065
v 0.790757 0.355161 0.451616
v 0.769413 0.347073 0.430272
v 0.746764 0.385346 0.484170
v 0.725420 0.377258 0.462826
v 0.713229 0.324976 0.494829
v 0.734573 0.333064 0.516173
v 0.681428 0.407444 0.495380
v 0.702772 0.415532 0.516725
v 0.718750 0.093750 0.644777
v 0.557136 0.093750 0.582277
v 0.354471 0.093750 0.468000
v 0.531248 0.093750 0.644777
v 0.416971 0.093750 0.442112
v 0.531248 0.031250 0.644777
v 0.557136 0.031250 0.582277
v 0.408963 0.085662 0.457706
v 0.387619 0.093750 0.479050
v 0.536975 0.294791 0.506471
v 0.515631 0.302879 0.527815
v 0.441517 0.055477 0.501699
v 0.420173 0.063565 0.523043
v 0.569529 0.264606 0.550464
v 0.548185 0.272694 0.571808
v 0.547634 0.355161 0.540007
v 0.568978 0.347073 0.518662
v 0.515080 0.385347 0.496014
v 0.536424 0.377258 0.474670
v 0.504421 0.324976 0.462479
v 0.483077 0.333064 0.483823
v 0.503870 0.407444 0.430678
v 0.482526 0.415532 0.452022
v 0.416973 0.093750 0.306386
v 0.354473 0.093750 0.280498
v 0.557138 0.031250 0.166221
v 0.354473 0.031250 0.280498
v 0.416973 0.031250 0.306386
v 0.354473 0.031250 0.468000
v 0.416973 0.031250 0.442112
v 0.541544 0.085662 0.158213
v 0.520200 0.093750 0.136869
v 0.492779 0.294791 0.286225
v 0.471435 0.302879 0.264881
v 0.497551 0.055477 0.190767
v 0.476207 0.063565 0.169423
v 0.448786 0.264606 0.318779
v 0.427442 0.272694 0.297435
v 0.459243 0.355161 0.296884
v 0.480588 0.347073 0.318228
v 0.503236 0.385346 0.264329
v 0.524580 0.377258 0.285674
v 0.536771 0.324976 0.253671
v 0.515427 0.333064 0.232327
v 0.568572 0.407444 0.253119
v 0.547228 0.415532 0.231775
vt 0.400892 0.500000
vt 0.213392 0.500000
vt 0.213392 0.437500
vt 0.400892 0.437500
vt 0.161610 0.500000
vt 0.025890 0.500000
vt 0.025890 0.437500
vt 0.161610 0.437500
vt 0.187500 0.562500
vt 0.437500 0.562500
vt 0.437500 0.625000
vt 0.187500 0.625000
vt 0.000000 0.562500
vt 0.000000 0.625000
vt 0.213392 0.687500
vt 0.411608 0.687500
vt 0.025890 0.687500
vt 0.161610 0.687500
vt 0.625000 0.687500
vt 0.625000 0.625000
vt 0.875000 0.625000
vt 0.875000 0.687500
vt 0.875000 0.562500
vt 0.875000 0.625000
vt 0.937500 0.562500
vt 0.625000 0.500000
vt 0.625000 0.437500
vt 0.875000 0.437500
vt 0.875000 0.500000
vt 0.625000 0.562500
vt 0.875000 0.562500
vt 0.625000 0.562500
vt 0.625000 0.625000
vt 0.562500 0.437500
vt 0.562500 0.500000
vt 0.500000 0.500000
vt 0.500000 0.437500
vt 0.937500 0.625000
vt 0.937500 0.687500
vt 0.562500 0.562500
vt 0.625000 0.625000
vt 0.562500 0.625000
vt 1.000000 0.625000
vt 1.000000 0.687500
vt 0.937500 0.500000
vt 0.875000 0.500000
vt 0.937500 0.437500
vt 0.437500 0.500000
vt 0.437500 0.437500
vt 0.562500 0.687500
vt 0.500000 0.875000
vt 0.500000 0.937500
vt 0.250000 0.937500
vt 0.250000 0.875000
vt 0.000000 0.937500
vt 0.000000 0.875000
vt 1.000000 0.875000
vt 1.000000 0.937500
vt 0.750000 0.937500
vt 0.750000 0.875000
vt 0.875000 0.687500
vt 0.437500 0.500000
vt 0.562500 0.500000
vt 0.562500 0.625000
vt 0.437500 0.625000
vt 0.437500 1.000000
vt 0.312500 1.000000
vt 0.187500 1.000000
vt 0.062500 1.000000
vt 0.937500 1.000000
vt 0.812500 1.000000
vt 0.687500 1.000000
vt 0.562500 1.000000
vt 0.625000 0.687500
vt 0.125000 0.687500
vt 0.375000 0.687500
vt 0.400892 0.500000
vt 0.213392 0.500000
vt 0.213392 0.437500
vt 0.400892 0.437500
vt 0.161610 0.500000
vt 0.025890 0.500000
vt 0.025890 0.437500
vt 0.161610 0.437500
vt 0.187500 0.562500
vt 0.437500 0.562500
vt 0.437500 0.625000
vt 0.187500 0.625000
vt 0.000000 0.562500
vt 0.000000 0.625000
vt 0.213392 0.687500
vt 0.411608 0.687500
vt 0.025890 0.687500
vt 0.161610 0.687500
vt 0.625000 0.687500
vt 0.625000 0.625000
vt 0.875000 0.625000
vt 0.875000 0.687500
vt 0.875000 0.562500
vt 0.875000 0.625000
vt 0.937500 0.562500
vt 0.625000 0.500000
vt 0.625000 0.437500
vt 0.875000 0.437500
vt 0.875000 0.500000
vt 0.625000 0.562500
vt 0.875000 0.562500
vt 0.625000 0.562500
vt 0.625000 0.625000
vt 0.562500 0.437500
vt 0.562500 0.500000
vt 0.500000 0.500000
vt 0.500000 0.437500
vt 0.937500 0.625000
vt 0.937500 0.687500
vt 0.562500 0.562500
vt 0.625000 0.625000
vt 0.562500 0.625000
vt 1.000000 0.625000
vt 1.000000 0.687500
vt 0.937500 0.500000
vt 0.875000 0.500000
vt 0.937500 0.437500
vt 0.437500 0.500000
vt 0.437500 0.437500
vt 0.562500 0.687500
vt 0.400892 0.500000
vt 0.213392 0.500000
vt 0.213392 0.437500
vt 0.400892 0.437500
vt 0.161610 0.500000
vt 0.025890 0.500000
vt 0.025890 0.437500
vt 0.161610 0.437500
vt 0.187500 0.562500
vt 0.437500 0.562500
vt 0.437500 0.625000
vt 0.187500 0.625000
vt 0.000000 0.562500
vt 0.000000 0.625000
vt 0.213392 0.687500
vt 0.411608 0.687500
vt 0.025890 0.687500
vt 0.161610 0.687500
vt 0.625000 0.687500
vt 0.625000 0.625000
vt 0.875000 0.625000
vt 0.875000 0.687500
vt 0.875000 0.562500
vt 0.875000 0.625000
vt 0.937500 0.562500
vt 0.625000 0.500000
vt 0.625000 0.437500
vt 0.875000 0.437500
vt 0.875000 0.500000
vt 0.625000 0.562500
vt 0.875000 0.562500
vt 0.625000 0.562500
vt 0.625000 0.625000
vt 0.562500 0.437500
vt 0.562500 0.500000
vt 0.500000 0.500000
vt 0.500000 0.437500
vt 0.937500 0.625000
vt 0.937500 0.687500
vt 0.562500 0.562500
vt 0.625000 0.625000
vt 0.562500 0.625000
vt 1.000000 0.625000
vt 1.000000 0.687500
vt 0.937500 0.500000
vt 0.875000 0.500000
vt 0.937500 0.437500
vt 0.437500 0.500000
vt 0.437500 0.437500
vt 0.562500 0.687500
vt 0.400892 0.500000
vt 0.213392 0.500000
vt 0.213392 0.437500
vt 0.400892 0.437500
vt 0.161610 0.500000
vt 0.025890 0.500000
vt 0.025890 0.437500
vt 0.161610 0.437500
vt 0.187500 0.562500
vt 0.437500 0.562500
vt 0.437500 0.625000
vt 0.187500 0.625000
vt 0.000000 0.562500
vt 0.000000 0.625000
vt 0.213392 0.687500
vt 0.411608 0.687500
vt 0.025890 0.687500
vt 0.161610 0.687500
vt 0.625000 0.687500
vt 0.625000 0.625000
vt 0.875000 0.625000
vt 0.875000 0.687500
vt 0.875000 0.562500
vt 0.875000 0.625000
vt 0.937500 0.562500
vt 0.625000 0.500000
vt 0.625000 0.437500
vt 0.875000 0.437500
vt 0.875000 0.500000
vt 0.625000 0.562500
vt 0.875000 0.562500
vt 0.625000 0.562500
vt 0.625000 0.625000
vt 0.562500 0.437500
vt 0.562500 0.500000
vt 0.500000 0.500000
vt 0.500000 0.437500
vt 0.937500 0.625000
vt 0.937500 0.687500
vt 0.562500 0.562500
vt 0.625000 0.625000
vt 0.562500 0.625000
vt 1.000000 0.625000
vt 1.000000 0.687500
vt 0.937500 0.500000
vt 0.875000 0.500000
vt 0.937500 0.437500
vt 0.437500 0.500000
vt 0.437500 0.437500
vt 0.562500 0.687500
vn -0.7071 0.0000 0.7071
vn -0.0000 -0.0000 1.0000
vn 0.7071 -0.0000 -0.7071
vn 0.0000 -0.0000 -1.0000
vn 0.0000 1.0000 0.0000
vn -0.0000 -1.0000 0.0000
vn 0.5209 0.4830 0.7039
vn 0.6830 0.2588 -0.6830
vn -0.5209 -0.4830 -0.7039
vn -0.6830 -0.2588 0.6830
vn -0.5120 0.8365 -0.1951
vn 0.5120 -0.8365 0.1951
vn -0.7304 0.2500 -0.6356
vn 0.7304 -0.2500 0.6356
vn 0.7071 0.0000 0.7071
vn -0.7071 0.0000 -0.7071
vn 0.5883 0.5547 -0.5883
vn -0.5000 -0.7071 0.5000
vn 0.5000 -0.7071 0.5000
vn 0.5000 -0.7071 -0.5000
vn -0.5000 -0.7071 -0.5000
vn -0.5883 0.5547 -0.5883
vn 0.5883 0.5547 0.5883
vn -0.5883 0.5547 0.5883
vn -1.0000 0.0000 -0.0000
vn 1.0000 -0.0000 0.0000
vn -0.7039 0.4830 0.5209
vn 0.6830 0.2588 0.6830
vn 0.7039 -0.4830 -0.5209
vn -0.6830 -0.2588 -0.6830
vn 0.1951 0.8365 -0.5120
vn -0.1951 -0.8365 0.5120
vn 0.6356 0.2500 -0.7304
vn -0.6356 -0.2500 0.7304
vn -0.5209 0.4830 -0.7039
vn -0.6830 0.2588 0.6830
vn 0.5209 -0.4830 0.7039
vn 0.6830 -0.2588 -0.6830
vn 0.5120 0.8365 0.1951
vn -0.5120 -0.8365 -0.1951
vn 0.7304 0.2500 0.6356
vn -0.7304 -0.2500 -0.6356
vn 0.7039 0.4830 -0.5209
vn -0.6830 0.2588 -0.6830
vn -0.7039 -0.4830 0.5209
vn 0.6830 -0.2588 0.6830
vn -0.1951 0.8365 0.5120
vn 0.1951 -0.8365 -0.5120
vn -0.6356 0.2500 0.7304
vn 0.6356 -0.2500 -0.7304
usemtl BOSS_TROPHY_COUNCIL
s off
f 105/236/40 102/237/40 108/238/40 106/239/40
f 102/240/41 100/241/41 188/242/41 108/243/41
f 104/244/42 103/245/42 146/246/42 107/247/42
f 101/248/43 104/244/43 107/247/43 109/249/43
f 100/241/44 102/240/44 104/244/44 101/248/44
f 102/237/44 105/236/44 103/245/44 104/244/44
f 108/250/45 107/247/45 146/246/45 106/251/45
f 188/252/45 109/249/45 107/247/45 108/253/45
f 110/254/46 111/255/46 113/256/46 112/257/46
f 113/258/47 117/259/47 118/260/47
f 116/261/48 117/262/48 115/263/48 114/264/48
f 112/265/49 116/261/49 114/264/49 110/266/49
f 117/259/47 113/258/47 111/267/47 115/268/47
f 118/269/50 119/270/50 121/271/50 120/272/50
f 112/257/51 113/256/51 123/273/51 122/274/51
f 117/262/52 116/261/52 119/270/52 118/269/52
f 116/261/49 112/265/49 119/275/49
f 119/275/49 112/265/49 122/276/49 121/277/49
f 122/274/53 123/273/53 125/278/53 124/279/53
f 113/258/47 118/260/47 120/280/47 123/281/47
f 123/281/47 120/280/47 125/282/47
f 120/272/50 121/271/50 124/283/50 125/284/50
f 121/277/49 122/276/49 124/285/49
f 126/286/40 134/287/40 135/288/40 128/289/40
f 128/289/54 135/288/54 136/290/54 132/291/54
f 132/292/42 136/293/42 137/294/42 130/295/42
f 130/295/55 137/294/55 134/287/55 126/286/55
f 132/292/56 130/295/56 138/296/56
f 133/297/45 129/298/45 127/299/45 131/300/45
f 127/301/57 129/302/57 135/288/57 134/287/57
f 129/303/58 133/304/58 136/290/58 135/288/58
f 133/305/59 131/306/59 137/294/59 136/293/59
f 131/307/60 127/308/60 134/287/60 137/294/60
f 130/295/61 126/286/61 138/309/61
f 128/289/62 132/291/62 138/310/62
f 126/286/63 128/289/63 138/311/63
f 141/312/55 139/313/55 145/314/55 142/315/55
f 139/316/64 105/317/64 106/318/64 145/319/64
f 140/320/54 163/321/54 144/322/54 143/323/54
f 103/324/65 140/320/65 143/323/65 146/325/65
f 105/317/44 139/316/44 140/320/44 103/324/44
f 139/313/44 141/312/44 163/321/44 140/320/44
f 145/326/45 143/323/45 144/322/45 142/327/45
f 106/328/45 146/325/45 143/323/45 145/329/45
f 147/330/66 148/331/66 150/332/66 149/333/66
f 150/334/67 154/335/67 155/336/67
f 153/337/68 154/338/68 152/339/68 151/340/68
f 149/341/69 153/337/69 151/340/69 147/342/69
f 154/335/67 150/334/67 148/343/67 152/344/67
f 155/345/70 156/346/70 158/347/70 157/348/70
f 149/333/71 150/332/71 160/349/71 159/350/71
f 154/338/72 153/337/72 156/346/72 155/345/72
f 153/337/69 149/341/69 156/351/69
f 156/351/69 149/341/69 159/352/69 158/353/69
f 159/350/73 160/349/73 162/354/73 161/355/73
f 150/334/67 155/336/67 157/356/67 160/357/67
f 160/357/67 157/356/67 162/358/67
f 157/348/70 158/347/70 161/359/70 162/360/70
f 158/353/69 159/352/69 161/361/69
f 167/362/42 164/363/42 169/364/42 192/365/42
f 164/366/43 141/367/43 142/368/43 169/369/43
f 166/370/40 165/371/40 191/372/40 168/373/40
f 163/374/41 166/370/41 168/373/41 144/375/41
f 141/367/44 164/366/44 166/370/44 163/374/44
f 164/363/44 167/362/44 165/371/44 166/370/44
f 169/376/45 168/373/45 191/372/45 192/377/45
f 142/378/45 144/375/45 168/373/45 169/379/45
f 170/380/74 171/381/74 173/382/74 172/383/74
f 173/384/75 177/385/75 178/386/75
f 176/387/76 177/388/76 175/389/76 174/390/76
f 172/391/77 176/387/77 174/390/77 170/392/77
f 177/385/75 173/384/75 171/393/75 175/394/75
f 178/395/78 179/396/78 181/397/78 180/398/78
f 172/383/79 173/382/79 183/399/79 182/400/79
f 177/388/80 176/387/80 179/396/80 178/395/80
f 176/387/77 172/391/77 179/401/77
f 179/401/77 172/391/77 182/402/77 181/403/77
f 182/400/81 183/399/81 185/404/81 184/405/81
f 173/384/75 178/386/75 180/406/75 183/407/75
f 183/407/75 180/406/75 185/408/75
f 180/398/78 181/397/78 184/409/78 185/410/78
f 181/403/77 182/402/77 184/411/77
f 100/412/54 186/413/54 190/414/54 188/415/54
f 186/416/65 167/417/65 192/418/65 190/419/65
f 187/420/55 101/421/55 109/422/55 189/423/55
f 165/424/64 187/420/64 189/423/64 191/425/64
f 167/417/44 186/416/44 187/420/44 165/424/44
f 186/413/44 100/412/44 101/421/44 187/420/44
f 190/426/45 189/423/45 109/422/45 188/427/45
f 192/428/45 191/425/45 189/423/45 190/429/45
f 193/430/82 194/431/82 196/432/82 195/433/82
f 196/434/83 200/435/83 201/436/83
f 199/437/84 200/438/84 198/439/84 197/440/84
f 195/441/85 199/437/85 197/440/85 193/442/85
f 200/435/83 196/434/83 194/443/83 198/444/83
f 201/445/86 202/446/86 204/447/86 203/448/86
f 195/433/87 196/432/87 206/449/87 205/450/87
f 200/438/88 199/437/88 202/446/88 201/445/88
f 199/437/85 195/441/85 202/451/85
f 202/451/85 195/441/85 205/452/85 204/453/85
f 205/450/89 206/449/89 208/454/89 207/455/89
f 196/434/83 201/436/83 203/456/83 206/457/83
f 206/457/83 203/456/83 208/458/83
f 203/448/86 204/447/86 207/459/86 208/460/86
f 204/453/85 205/452/85 207/461/85
o CRYSTAL_MIDDLE_Cube.008
v 0.562500 0.500000 0.374250
v 0.687500 0.500000 0.374250
v 0.625000 0.437500 0.374250
v 0.625000 0.562500 0.374250
v 0.625000 0.500000 0.436750
v 0.625000 0.500000 0.311750
vt 0.625000 0.875000
vt 0.687500 0.875000
vt 0.625000 0.937500
vt 0.125000 0.875000
vt 0.187500 0.875000
vt 0.125000 0.937500
vt 0.125000 0.812500
vt 0.187500 0.812500
vt 0.125000 0.875000
vt 0.625000 0.812500
vt 0.687500 0.812500
vt 0.625000 0.875000
vt 0.937500 0.875000
vt 0.937500 0.937500
vt 0.875000 0.937500
vt 0.437500 0.875000
vt 0.437500 0.937500
vt 0.375000 0.937500
vt 0.437500 0.812500
vt 0.437500 0.875000
vt 0.375000 0.875000
vt 0.937500 0.812500
vt 0.937500 0.875000
vt 0.875000 0.875000
vn 0.5774 0.5774 -0.5774
vn -0.5774 0.5774 0.5774
vn -0.5774 -0.5774 0.5774
vn 0.5774 -0.5774 -0.5774
vn -0.5774 -0.5774 -0.5774
vn 0.5774 -0.5774 0.5774
vn 0.5774 0.5774 0.5774
vn -0.5774 0.5774 -0.5774
usemtl BOSS_TROPHY_COUNCIL
s off
f 214/462/90 212/463/90 210/464/90
f 213/465/91 212/466/91 209/467/91
f 211/468/92 213/469/92 209/470/92
f 211/471/93 214/472/93 210/473/93
f 209/474/94 214/475/94 211/476/94
f 210/477/95 213/478/95 211/479/95
f 210/480/96 212/481/96 213/482/96
f 209/483/97 212/484/97 214/485/97
o CRYSTAL_OUTER.001_Cube.021
v 0.692862 0.906250 0.166223
v 0.718750 0.906250 0.103723
v 0.557136 0.906250 0.166223
v 0.354471 0.906250 0.280500
v 0.531248 0.906250 0.103723
v 0.416971 0.906250 0.306388
v 0.416971 0.968750 0.306388
v 0.531248 0.968750 0.103723
v 0.557136 0.968750 0.166223
v 0.718750 0.968750 0.103723
v 0.408963 0.914338 0.290794
v 0.387619 0.906250 0.269450
v 0.536975 0.705209 0.242029
v 0.515631 0.697121 0.220685
v 0.441517 0.944523 0.246801
v 0.420173 0.936435 0.225457
v 0.569529 0.735394 0.198036
v 0.548185 0.727306 0.176692
v 0.547634 0.644839 0.208493
v 0.568978 0.652927 0.229838
v 0.515080 0.614654 0.252486
v 0.536424 0.622742 0.273830
v 0.504421 0.675024 0.286021
v 0.483077 0.666936 0.264677
v 0.503870 0.592556 0.317822
v 0.482525 0.584468 0.296478
v 0.801777 0.750000 0.374250
v 0.713388 0.875000 0.374250
v 0.625000 0.750000 0.551027
v 0.625000 0.875000 0.462638
v 0.625000 0.750000 0.197473
v 0.625000 0.875000 0.285862
v 0.448223 0.750000 0.374250
v 0.536612 0.875000 0.374250
v 0.801777 0.812500 0.374250
v 0.625000 0.812500 0.551027
v 0.448223 0.812500 0.374250
v 0.625000 0.812500 0.197473
v 0.625000 0.562500 0.374250
v 0.416973 0.906250 0.442114
v 0.354473 0.906250 0.468002
v 0.557138 0.906250 0.582279
v 0.557138 0.968750 0.582279
v 0.354473 0.968750 0.468002
v 0.531250 0.968750 0.644779
v 0.416973 0.968750 0.442114
v 0.354473 0.968750 0.280500
v 0.541544 0.914338 0.590287
v 0.520199 0.906250 0.611631
v 0.492779 0.705209 0.462275
v 0.471435 0.697121 0.483619
v 0.497551 0.944523 0.557733
v 0.476207 0.936435 0.579077
v 0.448786 0.735394 0.429721
v 0.427442 0.727306 0.451065
v 0.459243 0.644839 0.451616
v 0.480588 0.652927 0.430272
v 0.503236 0.614654 0.484170
v 0.524580 0.622742 0.462826
v 0.536771 0.675024 0.494829
v 0.515427 0.666936 0.516173
v 0.568572 0.592556 0.495380
v 0.547228 0.584468 0.516725
v 0.531250 0.906250 0.644777
v 0.692864 0.906250 0.582277
v 0.895529 0.906250 0.468000
v 0.718752 0.906250 0.644777
v 0.833029 0.906250 0.442112
v 0.718752 0.968750 0.644777
v 0.692864 0.968750 0.582277
v 0.841037 0.914338 0.457706
v 0.862381 0.906250 0.479050
v 0.713025 0.705209 0.506471
v 0.734369 0.697121 0.527815
v 0.808483 0.944523 0.501699
v 0.829827 0.936435 0.523043
v 0.680471 0.735394 0.550464
v 0.701815 0.727306 0.571808
v 0.702366 0.644839 0.540007
v 0.681022 0.652927 0.518662
v 0.734920 0.614654 0.496014
v 0.713576 0.622742 0.474670
v 0.745579 0.675024 0.462479
v 0.766923 0.666936 0.483823
v 0.746130 0.592556 0.430678
v 0.767475 0.584468 0.452022
v 0.833027 0.906250 0.306386
v 0.895527 0.906250 0.280498
v 0.692862 0.968750 0.166221
v 0.895527 0.968750 0.280498
v 0.833027 0.968750 0.306386
v 0.895527 0.968750 0.468000
v 0.833027 0.968750 0.442112
v 0.708456 0.914338 0.158213
v 0.729800 0.906250 0.136869
v 0.757221 0.705209 0.286225
v 0.778565 0.697121 0.264881
v 0.752449 0.944523 0.190767
v 0.773793 0.936435 0.169423
v 0.801214 0.735394 0.318779
v 0.822558 0.727306 0.297435
v 0.790757 0.644839 0.296884
v 0.769412 0.652927 0.318228
v 0.746764 0.614654 0.264330
v 0.725420 0.622742 0.285674
v 0.713229 0.675024 0.253671
v 0.734573 0.666936 0.232327
v 0.681428 0.592556 0.253120
v 0.702772 0.584468 0.231775
vt 0.400892 0.500000
vt 0.213392 0.500000
vt 0.213392 0.437500
vt 0.400892 0.437500
vt 0.161610 0.500000
vt 0.025890 0.500000
vt 0.025890 0.437500
vt 0.161610 0.437500
vt 0.187500 0.562500
vt 0.437500 0.562500
vt 0.437500 0.625000
vt 0.187500 0.625000
vt 0.000000 0.562500
vt 0.000000 0.625000
vt 0.213392 0.687500
vt 0.411608 0.687500
vt 0.025890 0.687500
vt 0.161610 0.687500
vt 0.625000 0.687500
vt 0.625000 0.625000
vt 0.875000 0.625000
vt 0.875000 0.687500
vt 0.875000 0.562500
vt 0.875000 0.625000
vt 0.937500 0.562500
vt 0.625000 0.500000
vt 0.625000 0.437500
vt 0.875000 0.437500
vt 0.875000 0.500000
vt 0.625000 0.562500
vt 0.875000 0.562500
vt 0.625000 0.562500
vt 0.625000 0.625000
vt 0.562500 0.437500
vt 0.562500 0.500000
vt 0.500000 0.500000
vt 0.500000 0.437500
vt 0.937500 0.625000
vt 0.937500 0.687500
vt 0.562500 0.562500
vt 0.625000 0.625000
vt 0.562500 0.625000
vt 1.000000 0.625000
vt 1.000000 0.687500
vt 0.937500 0.500000
vt 0.875000 0.500000
vt 0.937500 0.437500
vt 0.437500 0.500000
vt 0.437500 0.437500
vt 0.562500 0.687500
vt 0.500000 0.875000
vt 0.500000 0.937500
vt 0.250000 0.937500
vt 0.250000 0.875000
vt 0.000000 0.937500
vt 0.000000 0.875000
vt 1.000000 0.875000
vt 1.000000 0.937500
vt 0.750000 0.937500
vt 0.750000 0.875000
vt 0.875000 0.687500
vt 0.437500 0.500000
vt 0.562500 0.500000
vt 0.562500 0.625000
vt 0.437500 0.625000
vt 0.437500 1.000000
vt 0.312500 1.000000
vt 0.187500 1.000000
vt 0.062500 1.000000
vt 0.937500 1.000000
vt 0.812500 1.000000
vt 0.687500 1.000000
vt 0.562500 1.000000
vt 0.625000 0.687500
vt 0.125000 0.687500
vt 0.375000 0.687500
vt 0.400892 0.500000
vt 0.213392 0.500000
vt 0.213392 0.437500
vt 0.400892 0.437500
vt 0.161610 0.500000
vt 0.025890 0.500000
vt 0.025890 0.437500
vt 0.161610 0.437500
vt 0.187500 0.562500
vt 0.437500 0.562500
vt 0.437500 0.625000
vt 0.187500 0.625000
vt 0.000000 0.562500
vt 0.000000 0.625000
vt 0.213392 0.687500
vt 0.411608 0.687500
vt 0.025890 0.687500
vt 0.161610 0.687500
vt 0.625000 0.687500
vt 0.625000 0.625000
vt 0.875000 0.625000
vt 0.875000 0.687500
vt 0.875000 0.562500
vt 0.875000 0.625000
vt 0.937500 0.562500
vt 0.625000 0.500000
vt 0.625000 0.437500
vt 0.875000 0.437500
vt 0.875000 0.500000
vt 0.625000 0.562500
vt 0.875000 0.562500
vt 0.625000 0.562500
vt 0.625000 0.625000
vt 0.562500 0.437500
vt 0.562500 0.500000
vt 0.500000 0.500000
vt 0.500000 0.437500
vt 0.937500 0.625000
vt 0.937500 0.687500
vt 0.562500 0.562500
vt 0.625000 0.625000
vt 0.562500 0.625000
vt 1.000000 0.625000
vt 1.000000 0.687500
vt 0.937500 0.500000
vt 0.875000 0.500000
vt 0.937500 0.437500
vt 0.437500 0.500000
vt 0.437500 0.437500
vt 0.562500 0.687500
vt 0.400892 0.500000
vt 0.213392 0.500000
vt 0.213392 0.437500
vt 0.400892 0.437500
vt 0.161610 0.500000
vt 0.025890 0.500000
vt 0.025890 0.437500
vt 0.161610 0.437500
vt 0.187500 0.562500
vt 0.437500 0.562500
vt 0.437500 0.625000
vt 0.187500 0.625000
vt 0.000000 0.562500
vt 0.000000 0.625000
vt 0.213392 0.687500
vt 0.411608 0.687500
vt 0.025890 0.687500
vt 0.161610 0.687500
vt 0.625000 0.687500
vt 0.625000 0.625000
vt 0.875000 0.625000
vt 0.875000 0.687500
vt 0.875000 0.562500
vt 0.875000 0.625000
vt 0.937500 0.562500
vt 0.625000 0.500000
vt 0.625000 0.437500
vt 0.875000 0.437500
vt 0.875000 0.500000
vt 0.625000 0.562500
vt 0.875000 0.562500
vt 0.625000 0.562500
vt 0.625000 0.625000
vt 0.562500 0.437500
vt 0.562500 0.500000
vt 0.500000 0.500000
vt 0.500000 0.437500
vt 0.937500 0.625000
vt 0.937500 0.687500
vt 0.562500 0.562500
vt 0.625000 0.625000
vt 0.562500 0.625000
vt 1.000000 0.625000
vt 1.000000 0.687500
vt 0.937500 0.500000
vt 0.875000 0.500000
vt 0.937500 0.437500
vt 0.437500 0.500000
vt 0.437500 0.437500
vt 0.562500 0.687500
vt 0.400892 0.500000
vt 0.213392 0.500000
vt 0.213392 0.437500
vt 0.400892 0.437500
vt 0.161610 0.500000
vt 0.025890 0.500000
vt 0.025890 0.437500
vt 0.161610 0.437500
vt 0.187500 0.562500
vt 0.437500 0.562500
vt 0.437500 0.625000
vt 0.187500 0.625000
vt 0.000000 0.562500
vt 0.000000 0.625000
vt 0.213392 0.687500
vt 0.411608 0.687500
vt 0.025890 0.687500
vt 0.161610 0.687500
vt 0.625000 0.687500
vt 0.625000 0.625000
vt 0.875000 0.625000
vt 0.875000 0.687500
vt 0.875000 0.562500
vt 0.875000 0.625000
vt 0.937500 0.562500
vt 0.625000 0.500000
vt 0.625000 0.437500
vt 0.875000 0.437500
vt 0.875000 0.500000
vt 0.625000 0.562500
vt 0.875000 0.562500
vt 0.625000 0.562500
vt 0.625000 0.625000
vt 0.562500 0.437500
vt 0.562500 0.500000
vt 0.500000 0.500000
vt 0.500000 0.437500
vt 0.937500 0.625000
vt 0.937500 0.687500
vt 0.562500 0.562500
vt 0.625000 0.625000
vt 0.562500 0.625000
vt 1.000000 0.625000
vt 1.000000 0.687500
vt 0.937500 0.500000
vt 0.875000 0.500000
vt 0.937500 0.437500
vt 0.437500 0.500000
vt 0.437500 0.437500
vt 0.562500 0.687500
vn 0.7071 0.0000 0.7071
vn 0.0000 0.0000 1.0000
vn -0.7071 0.0000 -0.7071
vn -0.0000 0.0000 -1.0000
vn 0.0000 -1.0000 0.0000
vn 0.0000 1.0000 0.0000
vn -0.5209 -0.4830 0.7039
vn -0.6830 -0.2588 -0.6830
vn 0.5209 0.4830 -0.7039
vn 0.6830 0.2588 0.6830
vn 0.5120 -0.8365 -0.1951
vn -0.5120 0.8365 0.1951
vn 0.7304 -0.2500 -0.6356
vn -0.7304 0.2500 0.6356
vn -0.7071 0.0000 0.7071
vn 0.7071 0.0000 -0.7071
vn -0.5883 -0.5547 -0.5883
vn 0.5000 0.7071 0.5000
vn -0.5000 0.7071 0.5000
vn -0.5000 0.7071 -0.5000
vn 0.5000 0.7071 -0.5000
vn 0.5883 -0.5547 -0.5883
vn -0.5883 -0.5547 0.5883
vn 0.5883 -0.5547 0.5883
vn 1.0000 0.0000 -0.0000
vn -1.0000 0.0000 0.0000
vn 0.7039 -0.4830 0.5209
vn -0.6830 -0.2588 0.6830
vn -0.7039 0.4830 -0.5209
vn 0.6830 0.2588 -0.6830
vn -0.1951 -0.8365 -0.5120
vn 0.1951 0.8365 0.5120
vn -0.6356 -0.2500 -0.7304
vn 0.6356 0.2500 0.7304
vn 0.5209 -0.4830 -0.7039
vn 0.6830 -0.2588 0.6830
vn -0.5209 0.4830 0.7039
vn -0.6830 0.2588 -0.6830
vn -0.5120 -0.8365 0.1951
vn 0.5120 0.8365 -0.1951
vn -0.7304 -0.2500 0.6356
vn 0.7304 0.2500 -0.6356
vn -0.7039 -0.4830 -0.5209
vn 0.6830 -0.2588 -0.6830
vn 0.7039 0.4830 0.5209
vn -0.6830 0.2588 0.6830
vn 0.1951 -0.8365 0.5120
vn -0.1951 0.8365 -0.5120
vn 0.6356 -0.2500 0.7304
vn -0.6356 0.2500 -0.7304
usemtl BOSS_TROPHY_COUNCIL
s off
f 220/486/98 217/487/98 223/488/98 221/489/98
f 217/490/99 215/491/99 303/492/99 223/493/99
f 219/494/100 218/495/100 261/496/100 222/497/100
f 216/498/101 219/494/101 222/497/101 224/499/101
f 215/491/102 217/490/102 219/494/102 216/498/102
f 217/487/102 220/486/102 218/495/102 219/494/102
f 223/500/103 222/497/103 261/496/103 221/501/103
f 303/502/103 224/499/103 222/497/103 223/503/103
f 225/504/104 226/505/104 228/506/104 227/507/104
f 228/508/105 232/509/105 233/510/105
f 231/511/106 232/512/106 230/513/106 229/514/106
f 227/515/107 231/511/107 229/514/107 225/516/107
f 232/509/105 228/508/105 226/517/105 230/518/105
f 233/519/108 234/520/108 236/521/108 235/522/108
f 227/507/109 228/506/109 238/523/109 237/524/109
f 232/512/110 231/511/110 234/520/110 233/519/110
f 231/511/107 227/515/107 234/525/107
f 234/525/107 227/515/107 237/526/107 236/527/107
f 237/524/111 238/523/111 240/528/111 239/529/111
f 228/508/105 233/510/105 235/530/105 238/531/105
f 238/531/105 235/530/105 240/532/105
f 235/522/108 236/521/108 239/533/108 240/534/108
f 236/527/107 237/526/107 239/535/107
f 241/536/98 249/537/98 250/538/98 243/539/98
f 243/539/112 250/538/112 251/540/112 247/541/112
f 247/542/100 251/543/100 252/544/100 245/545/100
f 245/545/113 252/544/113 249/537/113 241/536/113
f 247/542/114 245/545/114 253/546/114
f 248/547/103 244/548/103 242/549/103 246/550/103
f 242/551/115 244/552/115 250/538/115 249/537/115
f 244/553/116 248/554/116 251/540/116 250/538/116
f 248/555/117 246/556/117 252/544/117 251/543/117
f 246/557/118 242/558/118 249/537/118 252/544/118
f 245/545/119 241/536/119 253/559/119
f 243/539/120 247/541/120 253/560/120
f 241/536/121 243/539/121 253/561/121
f 256/562/113 254/563/113 260/564/113 257/565/113
f 254/566/122 220/567/122 221/568/122 260/569/122
f 255/570/112 278/571/112 259/572/112 258/573/112
f 218/574/123 255/570/123 258/573/123 261/575/123
f 220/567/102 254/566/102 255/570/102 218/574/102
f 254/563/102 256/562/102 278/571/102 255/570/102
f 260/576/103 258/573/103 259/572/103 257/577/103
f 221/578/103 261/575/103 258/573/103 260/579/103
f 262/580/124 263/581/124 265/582/124 264/583/124
f 265/584/125 269/585/125 270/586/125
f 268/587/126 269/588/126 267/589/126 266/590/126
f 264/591/127 268/587/127 266/590/127 262/592/127
f 269/585/125 265/584/125 263/593/125 267/594/125
f 270/595/128 271/596/128 273/597/128 272/598/128
f 264/583/129 265/582/129 275/599/129 274/600/129
f 269/588/130 268/587/130 271/596/130 270/595/130
f 268/587/127 264/591/127 271/601/127
f 271/601/127 264/591/127 274/602/127 273/603/127
f 274/600/131 275/599/131 277/604/131 276/605/131
f 265/584/125 270/586/125 272/606/125 275/607/125
f 275/607/125 272/606/125 277/608/125
f 272/598/128 273/597/128 276/609/128 277/610/128
f 273/603/127 274/602/127 276/611/127
f 282/612/100 279/613/100 284/614/100 307/615/100
f 279/616/101 256/617/101 257/618/101 284/619/101
f 281/620/98 280/621/98 306/622/98 283/623/98
f 278/624/99 281/620/99 283/623/99 259/625/99
f 256/617/102 279/616/102 281/620/102 278/624/102
f 279/613/102 282/612/102 280/621/102 281/620/102
f 284/626/103 283/623/103 306/622/103 307/627/103
f 257/628/103 259/625/103 283/623/103 284/629/103
f 285/630/132 286/631/132 288/632/132 287/633/132
f 288/634/133 292/635/133 293/636/133
f 291/637/134 292/638/134 290/639/134 289/640/134
f 287/641/135 291/637/135 289/640/135 285/642/135
f 292/635/133 288/634/133 286/643/133 290/644/133
f 293/645/136 294/646/136 296/647/136 295/648/136
f 287/633/137 288/632/137 298/649/137 297/650/137
f 292/638/138 291/637/138 294/646/138 293/645/138
f 291/637/135 287/641/135 294/651/135
f 294/651/135 287/641/135 297/652/135 296/653/135
f 297/650/139 298/649/139 300/654/139 299/655/139
f 288/634/133 293/636/133 295/656/133 298/657/133
f 298/657/133 295/656/133 300/658/133
f 295/648/136 296/647/136 299/659/136 300/660/136
f 296/653/135 297/652/135 299/661/135
f 215/662/112 301/663/112 305/664/112 303/665/112
f 301/666/123 282/667/123 307/668/123 305/669/123
f 302/670/113 216/671/113 224/672/113 304/673/113
f 280/674/122 302/670/122 304/673/122 306/675/122
f 282/667/102 301/666/102 302/670/102 280/674/102
f 301/663/102 215/662/102 216/671/102 302/670/102
f 305/676/103 304/673/103 224/672/103 303/677/103
f 307/678/103 306/675/103 304/673/103 305/679/103
f 308/680/140 309/681/140 311/682/140 310/683/140
f 311/684/141 315/685/141 316/686/141
f 314/687/142 315/688/142 313/689/142 312/690/142
f 310/691/143 314/687/143 312/690/143 308/692/143
f 315/685/141 311/684/141 309/693/141 313/694/141
f 316/695/144 317/696/144 319/697/144 318/698/144
f 310/683/145 311/682/145 321/699/145 320/700/145
f 315/688/146 314/687/146 317/696/146 316/695/146
f 314/687/143 310/691/143 317/701/143
f 317/701/143 310/691/143 320/702/143 319/703/143
f 320/700/147 321/699/147 323/704/147 322/705/147
f 311/684/141 316/686/141 318/706/141 321/707/141
f 321/707/141 318/706/141 323/708/141
f 318/698/144 319/697/144 322/709/144 323/710/144
f 319/703/143 320/702/143 322/711/143
