# Blender v2.80 (sub 75) OBJ File: 'boss_trophies.blend'
# www.blender.org
mtllib boss_trophy_demons.mtl
o STAND_Cube.002
v 0.281250 -0.007742 0.688622
v 0.281250 0.046384 0.657372
v 0.406250 -0.007742 0.688622
v 0.406250 0.046384 0.657372
v 0.281250 0.117258 0.905128
v 0.281250 0.171384 0.873878
v 0.406250 0.117258 0.905128
v 0.406250 0.171384 0.873878
v 0.281250 0.015134 0.603245
v 0.281250 0.015134 0.603245
v 0.406250 0.015134 0.603245
v 0.406250 0.015134 0.603245
v 0.281250 0.641777 0.313622
v 0.406250 0.641777 0.313622
v 0.281250 0.610527 0.259495
v 0.406250 0.610527 0.259495
v 0.281250 0.750030 0.188622
v 0.406250 0.750030 0.188622
v 0.281250 0.750030 0.251122
v 0.406250 0.750030 0.251122
v 0.406250 0.750030 0.251122
v 0.406250 0.062530 0.188622
v 0.281250 0.062530 0.188622
v 0.406250 0.062530 0.251122
v 0.281250 0.062530 0.251122
v 0.406250 0.625030 0.251122
v 0.281250 0.625030 0.251122
v 0.281250 0.562530 0.188622
v 0.281250 0.562530 0.251122
v 0.406250 0.562530 0.251122
v 0.406250 0.562530 0.188622
v 0.406250 0.000030 0.188622
v 0.281250 0.000030 0.188622
v 0.406250 0.000030 0.251122
v 0.281250 0.000030 0.251122
v 0.406250 0.062530 0.126122
v 0.281250 0.062530 0.126122
v 0.406250 0.000030 0.063622
v 0.281250 0.000030 0.063622
v 0.593750 -0.007742 0.688622
v 0.593750 0.046384 0.657372
v 0.718750 -0.007742 0.688622
v 0.718750 0.046384 0.657372
v 0.593750 0.117258 0.905128
v 0.593750 0.171384 0.873878
v 0.718750 0.117258 0.905128
v 0.718750 0.171384 0.873878
v 0.593750 0.015134 0.603245
v 0.593750 0.015134 0.603245
v 0.718750 0.015134 0.603245
v 0.718750 0.015134 0.603245
v 0.593750 0.641777 0.313622
v 0.718750 0.641777 0.313622
v 0.593750 0.610527 0.259495
v 0.718750 0.610527 0.259495
v 0.593750 0.750030 0.188622
v 0.718750 0.750030 0.188622
v 0.593750 0.750030 0.251122
v 0.718750 0.750030 0.251122
v 0.718750 0.750030 0.251122
v 0.718750 0.062530 0.188622
v 0.593750 0.062530 0.188622
v 0.718750 0.062530 0.251122
v 0.593750 0.062530 0.251122
v 0.718750 0.625030 0.251122
v 0.593750 0.625030 0.251122
v 0.593750 0.562530 0.188622
v 0.593750 0.562530 0.251122
v 0.718750 0.562530 0.251122
v 0.718750 0.562530 0.188622
v 0.718750 0.000030 0.188622
v 0.593750 0.000030 0.188622
v 0.718750 0.000030 0.251122
v 0.593750 0.000030 0.251122
v 0.718750 0.062530 0.126122
v 0.593750 0.062530 0.126122
v 0.718750 0.000030 0.063622
v 0.593750 0.000030 0.063622
vt 0.687500 0.125000
vt 0.687500 0.062500
vt 0.625000 0.125000
vt 0.625000 0.125000
vt 0.937500 0.125000
vt 0.937500 0.062500
vt 0.875000 0.062500
vt 0.875000 0.125000
vt 0.750000 0.125000
vt 0.750000 0.062500
vt 0.937500 0.062500
vt 0.937500 0.125000
vt 0.687500 0.125000
vt 0.687500 0.062500
vt 0.750000 0.000000
vt 1.000000 -0.000000
vt 1.000000 0.062500
vt 0.750000 0.062500
vt 0.687500 1.000000
vt 0.937500 1.000000
vt 0.937500 0.937500
vt 0.687500 0.937500
vt 0.625000 0.125000
vt 0.625000 0.125000
vt 0.375000 0.000000
vt 0.625000 0.000000
vt 0.625000 0.250000
vt 0.375000 0.250000
vt 0.375000 0.062500
vt 0.437500 0.062500
vt 0.437500 0.750000
vt 0.375000 0.750000
vt 0.500000 -0.000000
vt 0.625000 -0.000000
vt 0.625000 0.062500
vt 0.500000 0.062500
vt 0.562500 0.062500
vt 0.562500 0.750000
vt 0.437500 0.768223
vt 0.375000 0.875000
vt 0.625000 0.062500
vt 0.625000 0.750000
vt 0.625000 1.000000
vt 0.625000 0.937500
vt 0.500000 0.937500
vt 0.500000 1.000000
vt 0.562500 0.687500
vt 0.562500 0.812500
vt 0.500000 0.812500
vt 0.375000 0.125000
vt 0.375000 0.625000
vt 0.312500 0.625000
vt 0.312500 0.125000
vt 0.562500 0.125000
vt 0.500000 0.125000
vt 0.500000 0.062500
vt 0.562500 0.062500
vt 0.375000 0.812500
vt 0.500000 0.625000
vt 0.312500 0.812500
vt 0.312500 0.687500
vt 0.625000 0.875000
vt 0.562500 0.768223
vt 0.187500 0.625000
vt 0.187500 0.125000
vt 0.187500 0.687500
vt 0.562500 0.625000
vt 0.375000 0.750000
vt 0.375000 0.000000
vt 0.375000 0.500000
vt 0.375000 0.250000
vt 0.312500 0.062500
vt 0.375000 0.062500
vt 0.375000 0.250000
vt 0.375000 0.500000
vt 0.375000 0.250000
vt 0.500000 0.062500
vt 0.437500 0.125000
vt 0.062500 0.125000
vt 0.062500 0.250000
vt 0.000000 0.250000
vt 0.000000 0.125000
vt 0.437500 0.125000
vt 0.375000 0.062500
vt 0.562500 1.000000
vt 0.437500 1.000000
vt 0.437500 0.937500
vt 0.562500 0.937500
vt 0.375000 0.250000
vt 0.375000 0.750000
vt 0.687500 0.125000
vt 0.687500 0.062500
vt 0.625000 0.125000
vt 0.625000 0.125000
vt 0.937500 0.125000
vt 0.937500 0.062500
vt 0.875000 0.062500
vt 0.875000 0.125000
vt 0.750000 0.125000
vt 0.750000 0.062500
vt 0.937500 0.062500
vt 0.937500 0.125000
vt 0.687500 0.125000
vt 0.687500 0.062500
vt 0.750000 0.000000
vt 1.000000 -0.000000
vt 1.000000 0.062500
vt 0.750000 0.062500
vt 0.687500 1.000000
vt 0.937500 1.000000
vt 0.937500 0.937500
vt 0.687500 0.937500
vt 0.625000 0.125000
vt 0.625000 0.125000
vt 0.375000 0.000000
vt 0.625000 0.000000
vt 0.625000 0.250000
vt 0.375000 0.250000
vt 0.375000 0.062500
vt 0.437500 0.062500
vt 0.437500 0.750000
vt 0.375000 0.750000
vt 0.500000 -0.000000
vt 0.625000 -0.000000
vt 0.625000 0.062500
vt 0.500000 0.062500
vt 0.562500 0.062500
vt 0.562500 0.750000
vt 0.437500 0.768223
vt 0.375000 0.875000
vt 0.625000 0.062500
vt 0.625000 0.750000
vt 0.625000 1.000000
vt 0.625000 0.937500
vt 0.500000 0.937500
vt 0.500000 1.000000
vt 0.562500 0.687500
vt 0.562500 0.812500
vt 0.500000 0.812500
vt 0.375000 0.125000
vt 0.375000 0.625000
vt 0.312500 0.625000
vt 0.312500 0.125000
vt 0.562500 0.125000
vt 0.500000 0.125000
vt 0.500000 0.062500
vt 0.562500 0.062500
vt 0.375000 0.812500
vt 0.500000 0.625000
vt 0.312500 0.812500
vt 0.312500 0.687500
vt 0.625000 0.875000
vt 0.562500 0.768223
vt 0.187500 0.625000
vt 0.187500 0.125000
vt 0.187500 0.687500
vt 0.562500 0.625000
vt 0.375000 0.750000
vt 0.375000 0.000000
vt 0.375000 0.500000
vt 0.375000 0.250000
vt 0.312500 0.062500
vt 0.375000 0.062500
vt 0.375000 0.250000
vt 0.375000 0.500000
vt 0.375000 0.250000
vt 0.500000 0.062500
vt 0.437500 0.125000
vt 0.062500 0.125000
vt 0.062500 0.250000
vt 0.000000 0.250000
vt 0.000000 0.125000
vt 0.437500 0.125000
vt 0.375000 0.062500
vt 0.562500 1.000000
vt 0.437500 1.000000
vt 0.437500 0.937500
vt 0.562500 0.937500
vt 0.375000 0.250000
vt 0.375000 0.750000
vn 1.0000 -0.0000 0.0000
vn 0.0000 0.5000 0.8660
vn -1.0000 -0.0000 0.0000
vn 0.0000 -0.8660 0.5000
vn -0.0000 0.8660 -0.5000
vn 0.0000 0.0000 1.0000
vn -0.0000 -0.9659 -0.2588
vn 0.0000 -0.5000 -0.8660
vn 0.0000 1.0000 0.0000
vn 0.0000 0.0000 -1.0000
vn -0.0000 -1.0000 0.0000
vn -0.0000 0.7071 -0.7071
usemtl BREAK_DULL_IRON
s off
f 4/1/1 3/2/1 11/3/1 12/4/1
f 3/2/1 4/1/1 8/5/1 7/6/1
f 7/7/2 8/8/2 6/9/2 5/10/2
f 5/11/3 6/12/3 2/13/3 1/14/3
f 3/15/4 7/16/4 5/17/4 1/18/4
f 8/19/5 4/20/5 2/21/5 6/22/5
f 1/14/3 2/13/3 9/23/3 10/24/3
f 10/25/6 9/26/6 12/27/6 11/28/6
f 4/29/1 12/30/1 16/31/1 14/32/1
f 3/33/7 1/34/7 10/35/7 11/36/7
f 12/30/8 9/37/8 15/38/8 16/31/8
f 26/39/1 21/40/1 14/32/1 16/31/1
f 9/37/3 2/41/3 13/42/3 15/38/3
f 20/43/9 18/44/9 17/45/9 19/46/9
f 27/47/3 19/48/3 17/49/3
f 22/50/1 31/51/1 30/52/1 24/53/1
f 25/54/3 23/55/3 33/56/3 35/57/3
f 18/58/10 31/51/10 28/59/10 17/49/10
f 21/60/1 26/61/1 18/58/1
f 15/38/3 13/42/3 19/62/3 27/63/3
f 26/61/1 30/52/1 31/51/1 18/58/1
f 24/53/6 30/52/6 29/64/6 25/65/6
f 26/39/8 16/31/8 15/38/8 27/63/8
f 29/64/6 30/52/6 26/61/6 27/66/6
f 28/59/3 29/67/3 27/47/3 17/49/3
f 25/54/3 29/67/3 28/59/3 23/55/3
f 23/55/10 28/59/10 31/51/10 22/50/10
f 32/68/11 34/69/11 35/70/11 33/71/11
f 22/50/1 24/53/1 34/72/1 32/73/1
f 24/74/6 25/75/6 35/70/6 34/76/6
f 22/50/1 32/73/1 38/77/1 36/78/1
f 37/79/12 36/80/12 38/81/12 39/82/12
f 33/56/3 23/55/3 37/83/3 39/84/3
f 23/85/9 22/86/9 36/87/9 37/88/9
f 32/68/11 33/71/11 39/89/11 38/90/11
f 43/91/1 42/92/1 50/93/1 51/94/1
f 42/92/1 43/91/1 47/95/1 46/96/1
f 46/97/2 47/98/2 45/99/2 44/100/2
f 44/101/3 45/102/3 41/103/3 40/104/3
f 42/105/4 46/106/4 44/107/4 40/108/4
f 47/109/5 43/110/5 41/111/5 45/112/5
f 40/104/3 41/103/3 48/113/3 49/114/3
f 49/115/6 48/116/6 51/117/6 50/118/6
f 43/119/1 51/120/1 55/121/1 53/122/1
f 42/123/7 40/124/7 49/125/7 50/126/7
f 51/120/8 48/127/8 54/128/8 55/121/8
f 65/129/1 60/130/1 53/122/1 55/121/1
f 48/127/3 41/131/3 52/132/3 54/128/3
f 59/133/9 57/134/9 56/135/9 58/136/9
f 66/137/3 58/138/3 56/139/3
f 61/140/1 70/141/1 69/142/1 63/143/1
f 64/144/3 62/145/3 72/146/3 74/147/3
f 57/148/10 70/141/10 67/149/10 56/139/10
f 60/150/1 65/151/1 57/148/1
f 54/128/3 52/132/3 58/152/3 66/153/3
f 65/151/1 69/142/1 70/141/1 57/148/1
f 63/143/6 69/142/6 68/154/6 64/155/6
f 65/129/8 55/121/8 54/128/8 66/153/8
f 68/154/6 69/142/6 65/151/6 66/156/6
f 67/149/3 68/157/3 66/137/3 56/139/3
f 64/144/3 68/157/3 67/149/3 62/145/3
f 62/145/10 67/149/10 70/141/10 61/140/10
f 71/158/11 73/159/11 74/160/11 72/161/11
f 61/140/1 63/143/1 73/162/1 71/163/1
f 63/164/6 64/165/6 74/160/6 73/166/6
f 61/140/1 71/163/1 77/167/1 75/168/1
f 76/169/12 75/170/12 77/171/12 78/172/12
f 72/146/3 62/145/3 76/173/3 78/174/3
f 62/175/9 61/176/9 75/177/9 76/178/9
f 71/158/11 72/161/11 78/179/11 77/180/11
o TABLET_Cube
v 0.125000 0.128007 0.610247
v 0.125000 0.777093 0.235497
v 0.500000 0.128007 0.610247
v 0.500000 0.777093 0.235497
v 0.125000 0.190507 0.718500
v 0.125000 0.839593 0.343750
v 0.500000 0.190507 0.718500
v 0.500000 0.839593 0.343750
v 0.187500 0.108073 0.701719
v 0.187500 0.865845 0.264219
v 0.812500 0.108073 0.701719
v 0.812500 0.865845 0.264219
v 0.187500 0.170573 0.809972
v 0.187500 0.928345 0.372472
v 0.812500 0.170573 0.809972
v 0.812500 0.928345 0.372472
v 0.875000 0.947847 0.281250
v 0.875000 0.190074 0.718750
v 0.500000 0.947846 0.281250
v 0.500000 0.190074 0.718750
v 0.875000 0.885346 0.172997
v 0.875000 0.127574 0.610497
v 0.500000 0.885347 0.172997
v 0.500000 0.127574 0.610497
v 0.156250 0.936408 0.323938
v 0.843750 0.936408 0.323938
v 0.156250 0.124509 0.792688
v 0.843750 0.124509 0.792688
v 0.156250 0.873908 0.215685
v 0.843750 0.873908 0.215685
v 0.156250 0.062009 0.684435
v 0.843750 0.062009 0.684435
v 0.250000 0.019754 0.672747
v 0.250000 0.127574 0.610497
v 0.750000 0.019754 0.672747
v 0.750000 0.127574 0.610497
v 0.250000 0.082254 0.781000
v 0.250000 0.190074 0.718750
v 0.750000 0.082254 0.781000
v 0.750000 0.190074 0.718750
v 0.440981 0.618863 0.561400
v 0.559019 0.618863 0.561400
v 0.500000 0.461556 0.652221
v 0.500000 0.522949 0.616776
v 0.528868 0.599891 0.572353
v 0.471132 0.599891 0.572353
v 0.500000 0.599891 0.572353
v 0.500000 0.618863 0.561400
v 0.559019 0.618863 0.561400
v 0.595495 0.716084 0.505269
v 0.750010 0.618863 0.561400
v 0.682589 0.637834 0.550447
v 0.607012 0.685388 0.522992
v 0.589171 0.637834 0.550447
v 0.598091 0.661611 0.536719
v 0.577257 0.667473 0.533334
v 0.595495 0.716084 0.505269
v 0.500000 0.776170 0.470578
v 0.654514 0.873391 0.414448
v 0.612846 0.823723 0.443124
v 0.537269 0.776170 0.470578
v 0.583978 0.746781 0.487547
v 0.500000 0.438106 0.665760
v 0.775762 0.611617 0.565583
v 0.750010 0.618863 0.561400
v 0.500000 0.461556 0.652221
v 0.560624 0.761475 0.479063
v 0.547747 0.746127 0.487924
v 0.500000 0.776170 0.470578
v 0.404505 0.716084 0.505269
v 0.345485 0.873391 0.414448
v 0.387154 0.823723 0.443124
v 0.416022 0.746780 0.487547
v 0.462731 0.776170 0.470578
v 0.670430 0.892362 0.403495
v 0.654514 0.873391 0.414448
v 0.439376 0.761475 0.479063
v 0.452252 0.746127 0.487924
v 0.404505 0.716084 0.505269
v 0.440981 0.618863 0.561400
v 0.249990 0.618863 0.561400
v 0.317411 0.637834 0.550447
v 0.410829 0.637834 0.550447
v 0.392988 0.685388 0.522992
v 0.401909 0.661611 0.536719
v 0.422743 0.667473 0.533335
v 0.500000 0.873391 0.414448
v 0.500000 0.892363 0.403495
v 0.218750 0.283263 0.755158
v 0.781250 0.337390 0.723908
v 0.781250 0.283263 0.755158
v 0.218750 0.418580 0.677033
v 0.218750 0.364453 0.708283
v 0.781250 0.418580 0.677033
v 0.781250 0.364453 0.708283
v 0.218750 0.256200 0.770783
v 0.218750 0.202073 0.802033
v 0.781250 0.256200 0.770783
v 0.218750 0.391517 0.692658
v 0.781250 0.391517 0.692658
v 0.218750 0.310327 0.739533
v 0.781250 0.310327 0.739533
v 0.218750 0.229137 0.786408
v 0.781250 0.229137 0.786408
v 0.500000 0.418580 0.677033
v 0.500000 0.364453 0.708283
v 0.500000 0.391517 0.692658
v 0.500000 0.337390 0.723908
v 0.500000 0.283263 0.755158
v 0.500000 0.310327 0.739533
v 0.500000 0.256200 0.770783
v 0.500000 0.202073 0.802033
v 0.500000 0.229137 0.786408
v 0.468750 0.256200 0.770783
v 0.437500 0.256200 0.770783
v 0.406250 0.256200 0.770783
v 0.375000 0.256200 0.770783
v 0.343750 0.256200 0.770783
v 0.312500 0.256200 0.770783
v 0.250000 0.256200 0.770783
v 0.250000 0.202073 0.802033
v 0.281250 0.202073 0.802033
v 0.312500 0.202073 0.802033
v 0.406250 0.202073 0.802033
v 0.437500 0.202073 0.802033
v 0.468750 0.202073 0.802033
v 0.250000 0.229137 0.786408
v 0.281250 0.229137 0.786408
v 0.312500 0.229137 0.786408
v 0.343750 0.229137 0.786408
v 0.375000 0.229137 0.786408
v 0.406250 0.229137 0.786408
v 0.437500 0.229137 0.786408
v 0.468750 0.229137 0.786408
v 0.468750 0.337390 0.723908
v 0.437500 0.337390 0.723908
v 0.406250 0.337390 0.723908
v 0.375000 0.337390 0.723908
v 0.343750 0.337390 0.723908
v 0.312500 0.337390 0.723908
v 0.281250 0.337390 0.723908
v 0.250000 0.337390 0.723908
v 0.250000 0.283263 0.755158
v 0.281250 0.283263 0.755158
v 0.312500 0.283263 0.755158
v 0.343750 0.283263 0.755158
v 0.375000 0.283263 0.755158
v 0.406250 0.283263 0.755158
v 0.437500 0.283263 0.755158
v 0.250000 0.310327 0.739533
v 0.281250 0.310327 0.739533
v 0.312500 0.310327 0.739533
v 0.343750 0.310327 0.739533
v 0.375000 0.310327 0.739533
v 0.406250 0.310327 0.739533
v 0.437500 0.310327 0.739533
v 0.468750 0.310327 0.739533
v 0.468750 0.418580 0.677033
v 0.406250 0.418580 0.677033
v 0.375000 0.418580 0.677033
v 0.343750 0.418580 0.677033
v 0.312500 0.418580 0.677033
v 0.250000 0.418580 0.677033
v 0.250000 0.364453 0.708283
v 0.281250 0.364453 0.708283
v 0.312500 0.364453 0.708283
v 0.343750 0.364453 0.708283
v 0.375000 0.364453 0.708283
v 0.406250 0.364453 0.708283
v 0.437500 0.364453 0.708283
v 0.468750 0.364453 0.708283
v 0.250000 0.391517 0.692658
v 0.281250 0.391517 0.692658
v 0.312500 0.391517 0.692658
v 0.343750 0.391517 0.692658
v 0.375000 0.391517 0.692658
v 0.406250 0.391517 0.692658
v 0.437500 0.391517 0.692658
v 0.468750 0.391517 0.692658
v 0.562500 0.364453 0.708283
v 0.593750 0.364453 0.708283
v 0.625000 0.364453 0.708283
v 0.656250 0.364453 0.708283
v 0.687500 0.364453 0.708283
v 0.750000 0.364453 0.708283
v 0.531250 0.391517 0.692658
v 0.562500 0.391517 0.692658
v 0.593750 0.391517 0.692658
v 0.625000 0.391517 0.692658
v 0.656250 0.391517 0.692658
v 0.687500 0.391517 0.692658
v 0.718750 0.391517 0.692658
v 0.750000 0.391517 0.692658
v 0.750000 0.418580 0.677033
v 0.718750 0.418580 0.677033
v 0.687500 0.418580 0.677033
v 0.625000 0.418580 0.677033
v 0.593750 0.418580 0.677033
v 0.562500 0.418580 0.677033
v 0.531250 0.418580 0.677033
v 0.531250 0.283263 0.755158
v 0.562500 0.283263 0.755158
v 0.593750 0.283263 0.755158
v 0.625000 0.283263 0.755158
v 0.656250 0.283263 0.755158
v 0.750000 0.283263 0.755158
v 0.531250 0.310327 0.739533
v 0.562500 0.310327 0.739533
v 0.593750 0.310327 0.739533
v 0.625000 0.310327 0.739533
v 0.656250 0.310327 0.739533
v 0.687500 0.310327 0.739533
v 0.718750 0.310327 0.739533
v 0.750000 0.310327 0.739533
v 0.750000 0.337390 0.723908
v 0.718750 0.337390 0.723908
v 0.687500 0.337390 0.723908
v 0.656250 0.337390 0.723908
v 0.625000 0.337390 0.723908
v 0.593750 0.337390 0.723908
v 0.562500 0.337390 0.723908
v 0.531250 0.337390 0.723908
v 0.531250 0.202073 0.802033
v 0.562500 0.202073 0.802033
v 0.593750 0.202074 0.802033
v 0.625000 0.202074 0.802033
v 0.656250 0.202074 0.802033
v 0.687500 0.202074 0.802033
v 0.718750 0.202074 0.802033
v 0.750000 0.202074 0.802033
v 0.531250 0.229137 0.786408
v 0.562500 0.229137 0.786408
v 0.593750 0.229137 0.786408
v 0.625000 0.229137 0.786408
v 0.656250 0.229137 0.786408
v 0.687500 0.229137 0.786408
v 0.718750 0.229137 0.786408
v 0.750000 0.229137 0.786408
v 0.750000 0.256200 0.770783
v 0.718750 0.256200 0.770783
v 0.687500 0.256200 0.770783
v 0.656250 0.256200 0.770783
v 0.625000 0.256200 0.770783
v 0.593750 0.256200 0.770783
v 0.562500 0.256200 0.770783
v 0.654514 0.892363 0.403495
v 0.675348 0.879254 0.411063
v 0.770844 0.624726 0.558015
v 0.512876 0.446208 0.661082
v 0.762886 0.603515 0.570261
v 0.224238 0.611617 0.565583
v 0.249990 0.618863 0.561400
v 0.329570 0.892363 0.403495
v 0.345486 0.873391 0.414448
v 0.345486 0.892363 0.403495
v 0.324651 0.879254 0.411063
v 0.229156 0.624725 0.558015
v 0.487124 0.446208 0.661082
v 0.237114 0.603515 0.570261
vt 0.062500 0.062500
vt 0.062500 0.812500
vt 0.437500 0.812500
vt 0.437500 0.062500
vt 0.437500 0.062500
vt 0.437500 0.812500
vt 0.062500 0.812500
vt 0.062500 0.062500
vt 0.187500 0.812500
vt 0.187500 0.062500
vt 0.437500 0.125000
vt 0.062500 0.125000
vt 0.437500 0.687500
vt 0.062500 0.687500
vt 0.875000 0.062500
vt 0.875000 0.875000
vt 0.937500 0.875000
vt 0.937500 0.062500
vt 0.312500 0.875000
vt 0.312500 0.062500
vt 0.375000 0.062500
vt 0.375000 0.875000
vt 0.312500 0.875000
vt 0.312500 0.062500
vt 0.937500 0.062500
vt 0.937500 0.125000
vt 0.312500 0.125000
vt 0.937500 0.812500
vt 0.312500 0.812500
vt 0.812500 0.125000
vt 0.812500 0.062500
vt 0.437500 0.062500
vt 0.437500 0.125000
vt 0.687500 0.062500
vt 0.687500 0.937500
vt 0.812500 0.937500
vt 0.437500 0.062500
vt 0.437500 0.937500
vt 0.812500 0.937500
vt 0.812500 0.062500
vt 0.437500 0.937500
vt 0.562500 0.937500
vt 0.562500 0.062500
vt 0.812500 0.812500
vt 0.437500 0.812500
vt 0.750000 0.875000
vt 0.687500 0.875000
vt 0.687500 -0.000000
vt 0.750000 0.000000
vt 0.750000 0.750000
vt 0.062500 0.750000
vt 0.062500 0.875000
vt 0.750000 0.875000
vt 0.062500 0.000000
vt 0.062500 0.875000
vt 0.750000 0.062500
vt 0.062500 0.062500
vt 0.125000 0.875000
vt 0.125000 -0.000000
vt 0.062500 -0.000000
vt 0.750000 -0.000000
vt 0.250000 -0.000000
vt 0.250000 0.125000
vt 0.750000 0.125000
vt 0.750000 0.000000
vt 0.375000 0.250000
vt 0.625000 0.250000
vt 0.625000 0.500000
vt 0.375000 0.500000
vt 0.250000 0.125000
vt 0.250000 0.000000
vt 0.750000 0.000000
vt 0.750000 0.125000
vt 0.375000 0.750000
vt 0.625000 0.750000
vt 0.625000 1.000000
vt 0.375000 1.000000
vt 0.750000 0.062500
vt 0.750000 0.000000
vt 0.250000 0.000000
vt 0.250000 0.062500
vt 0.875000 0.242618
vt 0.812500 0.375000
vt 0.812500 0.000000
vt 0.875000 0.059424
vt 0.875000 0.059424
vt 0.812500 0.000000
vt 0.750000 0.062500
vt 0.750000 0.000000
vt 0.875000 0.000000
vt 0.810598 0.062500
vt 0.810598 0.062500
vt 0.875000 0.000000
vt 0.750000 0.242618
vt 0.687500 0.375000
vt 0.687500 0.000000
vt 0.750000 0.059424
vt 0.750000 0.059424
vt 0.687500 0.000000
vt 0.625000 0.062500
vt 0.625000 0.000000
vt 0.750000 0.000000
vt 0.685598 0.062500
vt 0.685598 0.062500
vt 0.750000 0.000000
vt 0.625000 0.242618
vt 0.562500 0.375000
vt 0.562500 0.000000
vt 0.625000 0.059424
vt 0.625000 0.059424
vt 0.562500 0.000000
vt 0.500000 0.062500
vt 0.500000 0.000000
vt 0.625000 0.000000
vt 0.560598 0.062500
vt 0.560598 0.062500
vt 0.625000 0.000000
vt 0.625000 0.242618
vt 0.562500 0.375000
vt 0.562500 0.000000
vt 0.625000 0.059424
vt 0.625000 0.059424
vt 0.562500 0.000000
vt 0.500000 0.062500
vt 0.500000 0.000000
vt 0.625000 0.000000
vt 0.560598 0.062500
vt 0.560598 0.062500
vt 0.625000 0.000000
vt 0.750000 0.242618
vt 0.687500 0.375000
vt 0.687500 0.000000
vt 0.750000 0.059424
vt 0.750000 0.059424
vt 0.687500 0.000000
vt 0.625000 0.062500
vt 0.625000 0.000000
vt 0.750000 0.000000
vt 0.685598 0.062500
vt 0.685598 0.062500
vt 0.750000 0.000000
vt 0.812500 0.187500
vt 0.812500 0.125000
vt 0.875000 0.125000
vt 0.875000 0.187500
vt 0.812500 0.312500
vt 0.812500 0.250000
vt 0.875000 0.250000
vt 0.875000 0.312500
vt 0.812500 0.375000
vt 0.875000 0.375000
vt 0.812500 0.250000
vt 0.875000 0.250000
vt 0.812500 0.125000
vt 0.812500 0.062500
vt 0.875000 0.062500
vt 0.875000 0.125000
vt 0.312500 0.375000
vt 0.312500 0.312500
vt 0.375000 0.312500
vt 0.375000 0.375000
vt 0.312500 0.250000
vt 0.375000 0.250000
vt 0.312500 0.250000
vt 0.312500 0.187500
vt 0.375000 0.187500
vt 0.375000 0.250000
vt 0.312500 0.125000
vt 0.312500 0.062500
vt 0.375000 0.062500
vt 0.375000 0.125000
vt 0.312500 -0.000000
vt 0.375000 -0.000000
vt 0.125000 0.062500
vt 0.125000 0.000000
vt 0.187500 0.000000
vt 0.187500 0.062500
vt 0.250000 0.062500
vt 0.250000 0.000000
vt 0.312500 0.000000
vt 0.312500 0.062500
vt 0.500000 0.062500
vt 0.500000 0.000000
vt 0.562500 0.000000
vt 0.562500 0.062500
vt 0.125000 0.125000
vt 0.187500 0.125000
vt 0.312500 0.125000
vt 0.375000 0.062500
vt 0.375000 0.125000
vt 0.437500 0.125000
vt 0.437500 0.062500
vt 0.500000 0.125000
vt 0.562500 0.125000
vt 0.125000 0.187500
vt 0.125000 0.125000
vt 0.187500 0.125000
vt 0.187500 0.187500
vt 0.250000 0.187500
vt 0.250000 0.125000
vt 0.312500 0.125000
vt 0.312500 0.187500
vt 0.375000 0.187500
vt 0.375000 0.125000
vt 0.437500 0.125000
vt 0.437500 0.187500
vt 0.500000 0.187500
vt 0.500000 0.125000
vt 0.562500 0.125000
vt 0.562500 0.187500
vt 0.187500 0.250000
vt 0.250000 0.250000
vt 0.312500 0.250000
vt 0.375000 0.250000
vt 0.437500 0.250000
vt 0.500000 0.250000
vt 0.562500 0.250000
vt 0.125000 0.312500
vt 0.125000 0.250000
vt 0.187500 0.250000
vt 0.187500 0.312500
vt 0.250000 0.250000
vt 0.250000 0.312500
vt 0.312500 0.312500
vt 0.312500 0.250000
vt 0.375000 0.250000
vt 0.375000 0.312500
vt 0.437500 0.312500
vt 0.437500 0.250000
vt 0.500000 0.250000
vt 0.500000 0.312500
vt 0.562500 0.250000
vt 0.562500 0.312500
vt 0.125000 0.375000
vt 0.187500 0.375000
vt 0.312500 0.375000
vt 0.375000 0.375000
vt 0.437500 0.375000
vt 0.500000 0.375000
vt 0.437500 0.375000
vt 0.437500 0.312500
vt 0.500000 0.312500
vt 0.500000 0.375000
vt 0.562500 0.375000
vt 0.562500 0.312500
vt 0.625000 0.312500
vt 0.625000 0.375000
vt 0.687500 0.375000
vt 0.687500 0.312500
vt 0.750000 0.312500
vt 0.750000 0.375000
vt 0.500000 0.250000
vt 0.562500 0.250000
vt 0.625000 0.250000
vt 0.625000 0.312500
vt 0.625000 0.250000
vt 0.687500 0.250000
vt 0.437500 0.250000
vt 0.437500 0.187500
vt 0.500000 0.187500
vt 0.500000 0.250000
vt 0.562500 0.250000
vt 0.562500 0.187500
vt 0.625000 0.187500
vt 0.625000 0.250000
vt 0.687500 0.250000
vt 0.687500 0.187500
vt 0.750000 0.187500
vt 0.750000 0.250000
vt 0.750000 0.250000
vt 0.750000 0.187500
vt 0.375000 0.125000
vt 0.437500 0.125000
vt 0.500000 0.125000
vt 0.562500 0.125000
vt 0.625000 0.125000
vt 0.687500 0.125000
vt 0.500000 0.125000
vt 0.500000 0.062500
vt 0.562500 0.062500
vt 0.562500 0.125000
vt 0.562500 0.125000
vt 0.562500 0.062500
vt 0.625000 0.062500
vt 0.625000 0.125000
vt 0.687500 0.125000
vt 0.687500 0.062500
vt 0.750000 0.062500
vt 0.750000 0.125000
vt 0.437500 0.062500
vt 0.437500 -0.000000
vt 0.500000 -0.000000
vt 0.562500 -0.000000
vt 0.562500 -0.000000
vt 0.625000 -0.000000
vt 0.687500 -0.000000
vt 0.750000 -0.000000
vt 0.812500 -0.000000
vt 0.750000 -0.000000
vt 0.750000 0.062500
vt 0.687500 0.062500
vt 0.687500 0.000000
vt 0.687500 0.065429
vt 0.687500 0.375000
vt 0.750000 0.375000
vt 0.750000 0.065429
vt 0.625000 0.062500
vt 0.625000 0.000000
vt 0.562500 0.000000
vt 0.562500 0.062500
vt 0.625000 0.065429
vt 0.562500 0.065429
vt 0.562500 0.684571
vt 0.625000 0.684571
vt 0.437500 0.684571
vt 0.437500 0.065429
vt 0.500000 0.065429
vt 0.500000 0.684571
vt 0.625000 0.062500
vt 0.562500 0.062500
vt 0.562500 0.000000
vt 0.625000 0.000000
vt 0.687500 0.065429
vt 0.750000 0.065429
vt 0.625000 0.065429
vt 0.625000 0.684571
vt 0.562500 0.684571
vt 0.562500 0.065429
vt 0.437500 -0.000000
vt 0.500000 -0.000000
vt 0.500000 0.062500
vt 0.437500 0.062500
vt 0.437500 0.684571
vt 0.500000 0.684571
vt 0.500000 0.065429
vt 0.687500 0.062500
vt 0.750000 0.062500
vt 0.750000 -0.000000
vt 0.687500 0.000000
vn 0.0000 -0.5000 -0.8660
vn -0.0000 0.5000 0.8660
vn -1.0000 -0.0000 0.0000
vn 0.0000 -0.8660 0.5000
vn -0.0000 0.8660 -0.5000
vn 1.0000 0.0000 -0.0000
vn -0.0220 0.5415 0.8404
vn 0.0008 0.5000 0.8660
usemtl POLISHED_BLACKSTONE
s off
f 79/181/13 80/182/13 82/183/13 81/184/13
f 85/185/14 86/186/14 84/187/14 83/188/14
f 83/188/15 84/187/15 80/189/15 79/190/15
f 81/191/16 85/185/16 83/188/16 79/192/16
f 86/193/17 82/183/17 80/182/17 84/194/17
f 89/195/18 90/196/18 94/197/18 93/198/18
f 93/198/14 94/197/14 92/199/14 91/200/14
f 91/201/15 92/202/15 88/203/15 87/204/15
f 89/205/16 93/206/16 91/207/16 87/204/16
f 94/197/17 90/208/17 88/209/17 92/199/17
f 100/210/16 96/211/16 98/212/16 102/213/16
f 100/214/18 99/215/18 95/216/18 96/211/18
f 102/217/13 101/218/13 99/219/13 100/220/13
f 98/212/15 97/221/15 101/222/15 102/223/15
f 95/216/17 99/224/17 101/225/17 97/221/17
f 96/211/14 95/216/14 97/221/14 98/212/14
f 108/226/18 104/227/18 106/228/18 110/229/18
f 108/230/17 107/231/17 103/232/17 104/233/17
f 110/229/13 109/234/13 107/235/13 108/226/13
f 106/236/16 105/237/16 109/234/16 110/229/16
f 103/238/15 107/235/15 109/234/15 105/239/15
f 104/233/14 103/232/14 105/240/14 106/241/14
f 111/242/13 112/243/13 114/244/13 113/245/13
f 113/246/18 114/247/18 118/248/18 117/249/18
f 117/250/14 118/251/14 116/252/14 115/253/14
f 115/254/15 116/255/15 112/256/15 111/257/15
f 113/258/16 117/259/16 115/260/16 111/261/16
usemtl FIRE
f 122/262/14 121/263/14 120/264/14 123/265/14
f 124/266/14 119/267/14 121/263/14 122/262/14
f 125/268/14 126/269/14 119/270/14 124/271/14
f 123/272/14 120/273/14 126/269/14 125/268/14
f 130/274/14 129/275/14 128/276/14 131/277/14
f 132/278/14 127/279/14 129/275/14 130/274/14
f 133/280/14 134/281/14 127/282/14 132/283/14
f 131/284/14 128/285/14 134/281/14 133/280/14
f 138/286/14 137/287/14 136/288/14 139/289/14
f 140/290/14 135/291/14 137/287/14 138/286/14
f 145/292/14 146/293/14 135/294/14 140/295/14
f 139/296/14 136/297/14 146/293/14 145/292/14
f 150/298/14 149/299/14 148/300/14 151/301/14
f 152/302/14 147/303/14 149/299/14 150/298/14
f 155/304/14 156/305/14 147/306/14 152/307/14
f 151/308/14 148/309/14 156/305/14 155/304/14
f 160/310/14 159/311/14 158/312/14 161/313/14
f 162/314/14 157/315/14 159/311/14 160/310/14
f 163/316/14 164/317/14 157/318/14 162/319/14
f 161/320/14 158/321/14 164/317/14 163/316/14
f 292/322/14 284/323/14 169/324/14 180/325/14
f 271/326/14 263/327/14 173/328/14 178/329/14
f 272/330/14 271/326/14 178/329/14 172/331/14
f 293/332/14 292/322/14 180/325/14 168/333/14
f 317/334/14 316/335/14 182/336/14 176/337/14
f 236/338/14 257/339/14 185/340/14 183/341/14
f 257/339/14 249/342/14 184/343/14 185/340/14
f 213/344/14 235/345/14 188/346/14 186/347/14
f 192/348/14 212/349/14 191/350/14 189/351/14
f 212/349/14 204/352/14 190/353/14 191/350/14
f 181/354/14 175/355/14 199/356/14 205/357/14
f 206/358/14 200/359/14 201/360/14 207/361/14
f 210/362/14 202/363/14 203/364/14 211/365/14
f 174/366/14 181/354/14 205/357/14 198/367/14
f 197/368/14 207/361/14 208/369/14 196/370/14
f 195/371/14 209/372/14 210/362/14 194/373/14
f 194/373/14 210/362/14 211/365/14 193/374/14
f 179/375/14 167/376/14 221/377/14 228/378/14
f 229/379/14 222/380/14 223/381/14 230/382/14
f 231/383/14 224/384/14 225/385/14 232/386/14
f 233/387/14 226/388/14 227/389/14 234/390/14
f 220/391/14 228/378/14 229/379/14 219/392/14
f 219/392/14 229/379/14 230/382/14 218/393/14
f 217/394/14 231/383/14 232/386/14 216/395/14
f 215/396/14 233/387/14 234/390/14 214/397/14
f 177/398/14 171/399/14 242/400/14 250/401/14
f 250/401/14 242/400/14 243/402/14 251/403/14
f 252/404/14 244/405/14 245/406/14 253/407/14
f 254/408/14 246/409/14 247/410/14 255/411/14
f 255/411/14 247/410/14 248/412/14 256/413/14
f 170/414/14 177/398/14 250/401/14 241/415/14
f 240/416/14 252/404/14 253/407/14 239/417/14
f 238/418/14 254/408/14 255/411/14 237/419/14
f 278/420/14 264/421/14 265/422/14 277/423/14
f 276/424/14 266/425/14 267/426/14 275/427/14
f 274/428/14 269/429/14 270/430/14 273/431/14
f 265/422/14 258/432/14 259/433/14 266/425/14
f 266/425/14 259/433/14 260/434/14 267/426/14
f 268/435/14 261/436/14 262/437/14 269/429/14
f 300/438/14 285/439/14 286/440/14 299/441/14
f 298/442/14 287/443/14 288/444/14 297/445/14
f 296/446/14 289/447/14 290/448/14 295/449/14
f 294/450/14 291/451/14 292/322/14 293/332/14
f 188/346/14 187/452/14 279/453/14 285/439/14
f 285/439/14 279/453/14 280/454/14 286/440/14
f 287/443/14 281/455/14 282/456/14 288/444/14
f 288/444/14 282/456/14 283/457/14 289/447/14
f 323/458/14 310/459/14 311/460/14 322/461/14
f 321/462/14 312/463/14 313/464/14 320/465/14
f 319/466/14 314/467/14 315/468/14 318/469/14
f 309/470/14 301/471/14 302/472/14 310/459/14
f 310/459/14 302/472/14 303/473/14 311/460/14
f 312/463/14 304/474/14 305/475/14 313/464/14
f 314/467/14 306/476/14 307/477/14 315/468/14
f 315/468/14 307/477/14 308/478/14 316/335/14
s 1
f 332/479/14 333/480/14 331/481/14 334/482/14
f 324/483/14 166/484/14 165/485/14 154/486/14
f 337/487/14 330/488/14 335/489/14 329/490/14
f 143/491/14 326/492/14 325/493/14 154/494/14
f 143/495/14 144/496/19 327/497/14 328/498/14
f 328/499/14 142/500/14 326/501/14 143/502/14
f 333/503/14 332/504/14 165/485/14 166/484/14
f 330/505/14 332/506/14 334/507/14 335/508/14
f 144/509/19 336/510/14 141/511/20 327/512/14
f 330/513/14 337/514/14 336/515/14 144/496/19
f 153/516/14 324/517/14 154/518/14 325/519/14
