# Blender v2.80 (sub 75) OBJ File: 'boss_trophies.blend'
# www.blender.org
mtllib boss_trophy_undead.mtl
o BOSS_TROPHY_UNDEAD_Cube.024
v 0.102123 0.437500 0.550241
v 0.102123 0.437500 0.612741
v 0.102123 0.500000 0.612741
v 0.102123 0.500000 0.550241
v 0.039623 0.500000 0.612741
v 0.039623 0.500000 0.550241
v 0.039623 0.437500 0.612741
v 0.039623 0.437500 0.550241
v 0.070873 0.625000 0.581491
v 0.102123 0.375000 0.612741
v 0.102123 0.375000 0.550241
v 0.039623 0.375000 0.612741
v 0.039623 0.375000 0.550241
v 0.102123 0.312500 0.612741
v 0.102123 0.312500 0.550241
v 0.164623 0.375000 0.612741
v 0.164623 0.375000 0.550241
v 0.164623 0.312500 0.612741
v 0.164623 0.312500 0.550241
v 0.102123 0.187500 0.612741
v 0.102123 0.187500 0.550241
v 0.164623 0.187500 0.612741
v 0.164623 0.187500 0.550241
v 0.164623 0.125000 0.612741
v 0.164623 0.125000 0.550241
v 0.227123 0.125000 0.612741
v 0.227123 0.125000 0.550241
v 0.164623 0.062500 0.612741
v 0.164623 0.062500 0.550241
v 0.227123 0.000000 0.612741
v 0.227123 0.000000 0.550241
v 0.102123 0.062500 0.612741
v 0.102123 0.062500 0.550241
v 0.039623 0.000000 0.612741
v 0.039623 0.000000 0.550241
v 0.897877 0.437500 0.612740
v 0.897877 0.437500 0.550240
v 0.897877 0.500000 0.550240
v 0.897877 0.500000 0.612740
v 0.960377 0.500000 0.550240
v 0.960377 0.500000 0.612740
v 0.960377 0.437500 0.550240
v 0.960377 0.437500 0.612740
v 0.929127 0.625000 0.581490
v 0.897877 0.375000 0.550240
v 0.897877 0.375000 0.612740
v 0.960377 0.375000 0.550240
v 0.960377 0.375000 0.612740
v 0.897877 0.312500 0.550240
v 0.897877 0.312500 0.612740
v 0.835377 0.375000 0.550240
v 0.835377 0.375000 0.612740
v 0.835377 0.312500 0.550240
v 0.835377 0.312500 0.612740
v 0.897877 0.187500 0.550240
v 0.897877 0.187500 0.612740
v 0.835377 0.187500 0.550240
v 0.835377 0.187500 0.612740
v 0.835377 0.125000 0.550240
v 0.835377 0.125000 0.612740
v 0.772877 0.125000 0.550240
v 0.772877 0.125000 0.612740
v 0.835377 0.062500 0.550240
v 0.835377 0.062500 0.612740
v 0.772877 0.000000 0.550240
v 0.772877 0.000000 0.612740
v 0.897877 0.062500 0.550241
v 0.897877 0.062500 0.612741
v 0.960377 0.000000 0.550241
v 0.960377 0.000000 0.612741
v 0.671875 0.437500 0.941687
v 0.726002 0.437500 0.910437
v 0.726002 0.500000 0.910437
v 0.671875 0.500000 0.941687
v 0.757252 0.500000 0.964563
v 0.703125 0.500000 0.995813
v 0.757252 0.437500 0.964563
v 0.703125 0.437500 0.995813
v 0.714564 0.625000 0.953125
v 0.726002 0.375000 0.910437
v 0.671875 0.375000 0.941687
v 0.757252 0.375000 0.964563
v 0.703125 0.375000 0.995813
v 0.726002 0.312500 0.910437
v 0.671875 0.312500 0.941687
v 0.694752 0.375000 0.856310
v 0.640625 0.375000 0.887560
v 0.694752 0.312500 0.856310
v 0.640625 0.312500 0.887560
v 0.726002 0.187500 0.910437
v 0.671875 0.187500 0.941687
v 0.694752 0.187500 0.856310
v 0.640625 0.187500 0.887560
v 0.694752 0.125000 0.856310
v 0.640625 0.125000 0.887560
v 0.663502 0.125000 0.802183
v 0.609375 0.125000 0.833433
v 0.694752 0.062500 0.856310
v 0.640625 0.062500 0.887560
v 0.663502 0.000000 0.802183
v 0.609375 0.000000 0.833433
v 0.726002 0.062500 0.910437
v 0.671875 0.062500 0.941687
v 0.757252 0.000000 0.964563
v 0.703125 0.000000 0.995813
v 0.273999 0.437500 0.910437
v 0.328125 0.437500 0.941687
v 0.328125 0.500000 0.941687
v 0.273999 0.500000 0.910437
v 0.296875 0.500000 0.995814
v 0.242749 0.500000 0.964564
v 0.296875 0.437500 0.995814
v 0.242749 0.437500 0.964563
v 0.285437 0.625000 0.953125
v 0.328125 0.375000 0.941687
v 0.273999 0.375000 0.910437
v 0.296875 0.375000 0.995814
v 0.242749 0.375000 0.964563
v 0.328125 0.312500 0.941687
v 0.273999 0.312500 0.910437
v 0.359375 0.375000 0.887560
v 0.305249 0.375000 0.856310
v 0.359375 0.312500 0.887560
v 0.305249 0.312500 0.856310
v 0.328125 0.187500 0.941687
v 0.273999 0.187500 0.910437
v 0.359375 0.187500 0.887560
v 0.305249 0.187500 0.856310
v 0.359375 0.125000 0.887560
v 0.305249 0.125000 0.856310
v 0.390625 0.125000 0.833434
v 0.336499 0.125000 0.802184
v 0.359375 0.062500 0.887560
v 0.305249 0.062500 0.856310
v 0.390625 0.000000 0.833434
v 0.336499 0.000000 0.802184
v 0.328125 0.062500 0.941687
v 0.273998 0.062500 0.910437
v 0.296875 0.000000 0.995813
v 0.242748 0.000000 0.964563
v 0.375000 0.769404 0.267046
v 0.375000 0.715294 0.022972
v 0.625000 0.715294 0.022972
v 0.625000 0.769404 0.267046
v 0.625000 0.471220 0.077082
v 0.375000 0.471220 0.077082
v 0.375000 0.525330 0.321156
v 0.625000 0.525330 0.321156
v 0.312500 0.980218 0.221533
v 0.312500 0.813904 0.308110
v 0.500000 0.813904 0.308110
v 0.500000 0.980218 0.221533
v 0.687500 0.807062 -0.111097
v 0.687500 0.864782 -0.000221
v 0.687500 0.698466 0.086358
v 0.687500 0.640748 -0.024519
v 0.375000 0.703027 0.365829
v 0.375000 0.758466 0.336969
v 0.312500 0.758466 0.336969
v 0.312500 0.703027 0.365829
v 0.312500 0.698466 0.086358
v 0.312500 0.643028 0.115217
v 0.312500 0.587591 0.144076
v 0.500000 0.864782 -0.000221
v 0.500000 0.807062 -0.111097
v 0.312500 0.807062 -0.111097
v 0.312500 0.864782 -0.000221
v 0.687500 0.813904 0.308110
v 0.687500 0.758466 0.336969
v 0.687500 0.643028 0.115217
v 0.687500 0.703027 0.365829
v 0.687500 0.587591 0.144076
v 0.687500 0.980218 0.221532
v 0.562500 0.758466 0.336969
v 0.625000 0.758466 0.336969
v 0.437500 0.758466 0.336969
v 0.500000 0.640748 -0.024519
v 0.312500 0.640748 -0.024519
v 0.500000 0.758466 0.336969
v 0.625000 0.703027 0.365829
v 0.562500 0.703027 0.365829
v 0.500000 0.703027 0.365829
v 0.437500 0.703027 0.365829
v 0.312500 0.452509 0.350111
v 0.312500 0.453249 -0.024888
v 0.375000 0.453125 0.037611
v 0.375000 0.452632 0.287611
v 0.375000 0.515009 0.350234
v 0.312500 0.515009 0.350234
v 0.687500 0.515502 0.100234
v 0.687500 0.515009 0.350234
v 0.687500 0.452509 0.350111
v 0.687500 0.453249 -0.024889
v 0.625000 0.515009 0.350234
v 0.562500 0.515009 0.350234
v 0.500000 0.452509 0.350111
v 0.687500 0.640748 -0.024519
v 0.687500 0.640501 0.100480
v 0.437500 0.515009 0.350234
v 0.625000 0.452632 0.287610
v 0.625000 0.453125 0.037611
v 0.500000 0.452632 0.287610
v 0.687500 0.577508 0.350357
v 0.625000 0.577508 0.350357
v 0.562500 0.577508 0.350357
v 0.500000 0.577508 0.350357
v 0.500000 0.515009 0.350234
v 0.437500 0.577508 0.350357
v 0.375000 0.577508 0.350357
v 0.312500 0.515502 0.100235
v 0.312500 0.640748 -0.024519
v 0.312500 0.640501 0.100481
v 0.312500 0.980218 0.221533
v 0.312500 0.813904 0.308110
v 0.500000 0.813904 0.308110
v 0.500000 0.980218 0.221533
v 0.687500 0.807062 -0.111097
v 0.687500 0.864782 -0.000221
v 0.687500 0.698466 0.086358
v 0.687500 0.640748 -0.024519
v 0.375000 0.703027 0.365829
v 0.375000 0.758466 0.336969
v 0.312500 0.758466 0.336969
v 0.312500 0.703027 0.365829
v 0.312500 0.698466 0.086358
v 0.312500 0.643028 0.115217
v 0.312500 0.587591 0.144076
v 0.500000 0.864782 -0.000221
v 0.500000 0.807062 -0.111097
v 0.312500 0.807062 -0.111097
v 0.312500 0.864782 -0.000221
v 0.687500 0.813904 0.308110
v 0.687500 0.758466 0.336969
v 0.687500 0.643028 0.115217
v 0.687500 0.703027 0.365829
v 0.687500 0.587591 0.144076
v 0.687500 0.980218 0.221532
v 0.562500 0.758466 0.336969
v 0.625000 0.758466 0.336969
v 0.437500 0.758466 0.336969
v 0.500000 0.640748 -0.024519
v 0.312500 0.640748 -0.024519
v 0.500000 0.758466 0.336969
v 0.625000 0.703027 0.365829
v 0.562500 0.703027 0.365829
v 0.500000 0.703027 0.365829
v 0.437500 0.703027 0.365829
v 0.312500 0.452509 0.350111
v 0.312500 0.453249 -0.024888
v 0.375000 0.453125 0.037611
v 0.375000 0.452632 0.287611
v 0.375000 0.515009 0.350234
v 0.312500 0.515009 0.350234
v 0.687500 0.515502 0.100234
v 0.687500 0.515009 0.350234
v 0.687500 0.452509 0.350111
v 0.687500 0.453249 -0.024889
v 0.625000 0.515009 0.350234
v 0.562500 0.515009 0.350234
v 0.500000 0.452509 0.350111
v 0.687500 0.640748 -0.024519
v 0.687500 0.640501 0.100480
v 0.437500 0.515009 0.350234
v 0.625000 0.452632 0.287610
v 0.625000 0.453125 0.037611
v 0.500000 0.452632 0.287610
v 0.687500 0.577508 0.350357
v 0.625000 0.577508 0.350357
v 0.562500 0.577508 0.350357
v 0.500000 0.577508 0.350357
v 0.500000 0.515009 0.350234
v 0.437500 0.577508 0.350357
v 0.375000 0.577508 0.350357
v 0.312500 0.515502 0.100235
v 0.312500 0.640748 -0.024519
v 0.312500 0.640501 0.100481
v 0.312500 0.375000 0.968750
v 0.312500 0.437500 0.968750
v 0.348584 0.437500 0.843750
v 0.687500 0.375000 0.968750
v 0.687500 0.437500 0.968750
v 0.384669 0.187500 0.781250
v 0.651416 0.125000 0.843750
v 0.312500 0.187500 0.906250
v 0.312500 0.187500 0.256731
v 0.741627 0.375000 0.937500
v 0.651416 0.437500 0.843750
v 0.651415 0.125000 0.319231
v 0.500000 0.125000 0.581491
v 0.687500 0.375000 0.256731
v 0.500000 0.187500 0.581491
v 0.687500 0.375000 0.906250
v 0.651416 0.437500 0.319231
v 0.687500 0.375000 0.194231
v 0.875000 0.187500 0.581491
v 0.615331 0.187500 0.381731
v 0.651416 0.250000 0.319231
v 0.730662 0.187500 0.581491
v 0.741627 0.437500 0.225481
v 0.741627 0.375000 0.225481
v 0.802831 0.437500 0.581491
v 0.929127 0.437500 0.550241
v 0.651416 0.250000 0.843750
v 0.875000 0.375000 0.581490
v 0.929127 0.375000 0.550240
v 0.687500 0.187500 0.906250
v 0.802831 0.125000 0.581490
v 0.802831 0.250000 0.581491
v 0.615331 0.187500 0.781250
v 0.929127 0.437500 0.612740
v 0.929127 0.375000 0.612740
v 0.348584 0.125000 0.843750
v 0.312500 0.375000 0.906250
v 0.741627 0.437500 0.937500
v 0.258373 0.437500 0.225481
v 0.687500 0.187500 0.256731
v 0.348584 0.125000 0.319231
v 0.384669 0.187500 0.381731
v 0.348584 0.250000 0.319231
v 0.312500 0.437500 0.194231
v 0.312500 0.375000 0.194231
v 0.687500 0.437500 0.194231
v 0.197169 0.250000 0.581491
v 0.197169 0.125000 0.581491
v 0.125000 0.375000 0.581491
v 0.125000 0.187500 0.581491
v 0.070873 0.437500 0.612741
v 0.070873 0.375000 0.612741
v 0.070873 0.437500 0.550241
v 0.070873 0.375000 0.550241
v 0.348584 0.437500 0.319231
v 0.258373 0.375000 0.225481
v 0.348584 0.250000 0.843750
v 0.269338 0.187500 0.581491
v 0.258373 0.437500 0.937500
v 0.258373 0.375000 0.937500
v 0.312500 0.375000 0.256731
v 0.197169 0.437500 0.581491
v 0.531250 0.312500 0.131731
v 0.468750 0.312500 0.131731
v 0.531250 0.375000 0.069231
v 0.468750 0.375000 0.069231
v 0.468750 0.375000 0.256731
v 0.531250 0.375000 0.256731
v 0.468750 0.312500 0.194231
v 0.531250 0.312500 0.194231
v 0.468750 0.187500 0.194231
v 0.531250 0.187500 0.194231
v 0.468750 0.187500 0.256731
v 0.531250 0.187500 0.256731
v 0.468750 0.125000 0.256731
v 0.531250 0.125000 0.256731
v 0.468750 0.125000 0.319231
v 0.531250 0.125000 0.319231
v 0.468750 0.062500 0.256731
v 0.531250 0.062500 0.256731
v 0.468750 0.000000 0.319231
v 0.531250 0.000000 0.319231
v 0.468750 0.062500 0.131731
v 0.531250 0.062500 0.131731
v 0.468750 0.000000 0.069231
v 0.531250 0.000000 0.069231
v 0.656250 0.375000 0.194231
v 0.656250 0.437500 0.194231
v 0.343750 0.375000 0.194231
v 0.343750 0.437500 0.194231
v 0.656250 0.437500 0.069231
v 0.656250 0.375000 0.069231
v 0.343750 0.375000 0.069231
v 0.343750 0.437500 0.069231
v 0.593750 0.437500 0.006731
v 0.593750 0.375000 0.006731
v 0.406250 0.375000 0.006731
v 0.406250 0.437500 0.006731
v 0.500000 0.375000 0.194231
v 0.500000 0.437500 0.194231
v 0.500000 0.375000 0.069231
v 0.500000 0.437500 0.069231
v 0.500000 0.375000 0.006731
v 0.500000 0.437500 0.006731
vt 0.500000 0.437500
vt 0.500000 0.375000
vt 0.562500 0.375000
vt 0.562500 0.437500
vt 0.687500 0.375000
vt 0.625000 0.375000
vt 0.625000 0.312500
vt 0.687500 0.312500
vt 0.625000 0.375000
vt 0.625000 0.312500
vt 0.562500 0.312500
vt 0.562500 0.375000
vt 0.562500 0.562500
vt 0.937500 0.187500
vt 0.937500 0.250000
vt 0.875000 0.250000
vt 0.875000 0.187500
vt 0.625000 0.312500
vt 0.625000 0.375000
vt 0.562500 0.375000
vt 0.562500 0.312500
vt 0.625000 0.500000
vt 0.687500 0.500000
vt 0.937500 0.500000
vt 1.000000 0.500000
vt 1.000000 0.437500
vt 0.875000 0.187500
vt 0.875000 0.250000
vt 0.812500 0.250000
vt 0.812500 0.187500
vt 0.937500 0.250000
vt 0.937500 0.187500
vt 0.875000 0.187500
vt 0.875000 0.250000
vt 0.937500 0.375000
vt 1.000000 0.375000
vt 1.000000 0.437500
vt 0.937500 0.437500
vt 1.000000 0.625000
vt 0.937500 0.625000
vt 0.937500 0.500000
vt 1.000000 0.500000
vt 1.000000 0.500000
vt 0.937500 0.500000
vt 1.000000 0.437500
vt 0.937500 0.437500
vt 0.937500 0.375000
vt 1.000000 0.375000
vt 1.000000 0.437500
vt 0.937500 0.437500
vt 1.000000 0.437500
vt 1.000000 0.375000
vt 0.937500 0.375000
vt 1.000000 0.375000
vt 1.000000 0.312500
vt 0.937500 0.312500
vt 0.937500 0.500000
vt 1.000000 0.500000
vt 1.000000 0.500000
vt 0.937500 0.500000
vt 0.937500 0.375000
vt 1.000000 0.375000
vt 1.000000 0.187500
vt 0.937500 0.187500
vt 0.937500 0.062500
vt 1.000000 0.062500
vt 0.937500 0.437500
vt 1.000000 0.437500
vt 0.937500 0.312500
vt 1.000000 0.312500
vt 1.000000 0.187500
vt 0.937500 0.250000
vt 0.937500 0.375000
vt 1.000000 0.375000
vt 0.937500 0.250000
vt 1.000000 0.187500
vt 0.937500 0.187500
vt 1.000000 0.250000
vt 1.000000 0.062500
vt 0.937500 0.125000
vt 1.000000 0.250000
vt 0.937500 0.250000
vt 0.937500 0.187500
vt 1.000000 0.187500
vt 1.000000 0.312500
vt 0.937500 0.312500
vt 1.000000 0.250000
vt 0.937500 0.187500
vt 0.937500 0.125000
vt 1.000000 0.062500
vt 0.937500 0.187500
vt 0.937500 0.000000
vt 1.000000 0.000000
vt 0.500000 0.437500
vt 0.500000 0.375000
vt 0.562500 0.375000
vt 0.562500 0.437500
vt 0.687500 0.375000
vt 0.625000 0.375000
vt 0.625000 0.312500
vt 0.687500 0.312500
vt 0.625000 0.375000
vt 0.625000 0.312500
vt 0.562500 0.312500
vt 0.562500 0.375000
vt 0.562500 0.562500
vt 0.937500 0.187500
vt 0.937500 0.250000
vt 0.875000 0.250000
vt 0.875000 0.187500
vt 0.625000 0.312500
vt 0.625000 0.375000
vt 0.562500 0.375000
vt 0.562500 0.312500
vt 0.625000 0.500000
vt 0.687500 0.500000
vt 0.937500 0.500000
vt 1.000000 0.500000
vt 1.000000 0.437500
vt 0.875000 0.187500
vt 0.875000 0.250000
vt 0.812500 0.250000
vt 0.812500 0.187500
vt 0.937500 0.250000
vt 0.937500 0.187500
vt 0.875000 0.187500
vt 0.875000 0.250000
vt 0.937500 0.375000
vt 1.000000 0.375000
vt 1.000000 0.437500
vt 0.937500 0.437500
vt 1.000000 0.625000
vt 0.937500 0.625000
vt 0.937500 0.500000
vt 1.000000 0.500000
vt 1.000000 0.500000
vt 0.937500 0.500000
vt 1.000000 0.437500
vt 0.937500 0.437500
vt 0.937500 0.375000
vt 1.000000 0.375000
vt 1.000000 0.437500
vt 0.937500 0.437500
vt 1.000000 0.437500
vt 1.000000 0.375000
vt 0.937500 0.375000
vt 1.000000 0.375000
vt 1.000000 0.312500
vt 0.937500 0.312500
vt 0.937500 0.500000
vt 1.000000 0.500000
vt 1.000000 0.500000
vt 0.937500 0.500000
vt 0.937500 0.375000
vt 1.000000 0.375000
vt 1.000000 0.187500
vt 0.937500 0.187500
vt 0.937500 0.062500
vt 1.000000 0.062500
vt 0.937500 0.437500
vt 1.000000 0.437500
vt 0.937500 0.312500
vt 1.000000 0.312500
vt 1.000000 0.187500
vt 0.937500 0.250000
vt 0.937500 0.375000
vt 1.000000 0.375000
vt 0.937500 0.250000
vt 1.000000 0.187500
vt 0.937500 0.187500
vt 1.000000 0.250000
vt 1.000000 0.062500
vt 0.937500 0.125000
vt 1.000000 0.250000
vt 0.937500 0.250000
vt 0.937500 0.187500
vt 1.000000 0.187500
vt 1.000000 0.312500
vt 0.937500 0.312500
vt 1.000000 0.250000
vt 0.937500 0.187500
vt 0.937500 0.125000
vt 1.000000 0.062500
vt 0.937500 0.187500
vt 0.937500 0.000000
vt 1.000000 0.000000
vt 0.500000 0.437500
vt 0.500000 0.375000
vt 0.562500 0.375000
vt 0.562500 0.437500
vt 0.687500 0.375000
vt 0.625000 0.375000
vt 0.625000 0.312500
vt 0.687500 0.312500
vt 0.625000 0.375000
vt 0.625000 0.312500
vt 0.562500 0.312500
vt 0.562500 0.375000
vt 0.562500 0.562500
vt 0.937500 0.187500
vt 0.937500 0.250000
vt 0.875000 0.250000
vt 0.875000 0.187500
vt 0.625000 0.312500
vt 0.625000 0.375000
vt 0.562500 0.375000
vt 0.562500 0.312500
vt 0.625000 0.500000
vt 0.687500 0.500000
vt 0.937500 0.500000
vt 1.000000 0.500000
vt 1.000000 0.437500
vt 0.875000 0.187500
vt 0.875000 0.250000
vt 0.812500 0.250000
vt 0.812500 0.187500
vt 0.937500 0.250000
vt 0.937500 0.187500
vt 0.875000 0.187500
vt 0.875000 0.250000
vt 0.937500 0.375000
vt 1.000000 0.375000
vt 1.000000 0.437500
vt 0.937500 0.437500
vt 1.000000 0.625000
vt 0.937500 0.625000
vt 0.937500 0.500000
vt 1.000000 0.500000
vt 1.000000 0.500000
vt 0.937500 0.500000
vt 1.000000 0.437500
vt 0.937500 0.437500
vt 0.937500 0.375000
vt 1.000000 0.375000
vt 1.000000 0.437500
vt 0.937500 0.437500
vt 1.000000 0.437500
vt 1.000000 0.375000
vt 0.937500 0.375000
vt 1.000000 0.375000
vt 1.000000 0.312500
vt 0.937500 0.312500
vt 0.937500 0.500000
vt 1.000000 0.500000
vt 1.000000 0.500000
vt 0.937500 0.500000
vt 0.937500 0.375000
vt 1.000000 0.375000
vt 1.000000 0.187500
vt 0.937500 0.187500
vt 0.937500 0.062500
vt 1.000000 0.062500
vt 0.937500 0.437500
vt 1.000000 0.437500
vt 0.937500 0.312500
vt 1.000000 0.312500
vt 1.000000 0.187500
vt 0.937500 0.250000
vt 0.937500 0.375000
vt 1.000000 0.375000
vt 0.937500 0.250000
vt 1.000000 0.187500
vt 0.937500 0.187500
vt 1.000000 0.250000
vt 1.000000 0.062500
vt 0.937500 0.125000
vt 1.000000 0.250000
vt 0.937500 0.250000
vt 0.937500 0.187500
vt 1.000000 0.187500
vt 1.000000 0.312500
vt 0.937500 0.312500
vt 1.000000 0.250000
vt 0.937500 0.187500
vt 0.937500 0.125000
vt 1.000000 0.062500
vt 0.937500 0.187500
vt 0.937500 0.000000
vt 1.000000 0.000000
vt 0.500000 0.437500
vt 0.500000 0.375000
vt 0.562500 0.375000
vt 0.562500 0.437500
vt 0.687500 0.375000
vt 0.625000 0.375000
vt 0.625000 0.312500
vt 0.687500 0.312500
vt 0.625000 0.375000
vt 0.625000 0.312500
vt 0.562500 0.312500
vt 0.562500 0.375000
vt 0.562500 0.562500
vt 0.937500 0.187500
vt 0.937500 0.250000
vt 0.875000 0.250000
vt 0.875000 0.187500
vt 0.625000 0.312500
vt 0.625000 0.375000
vt 0.562500 0.375000
vt 0.562500 0.312500
vt 0.625000 0.500000
vt 0.687500 0.500000
vt 0.937500 0.500000
vt 1.000000 0.500000
vt 1.000000 0.437500
vt 0.875000 0.187500
vt 0.875000 0.250000
vt 0.812500 0.250000
vt 0.812500 0.187500
vt 0.937500 0.250000
vt 0.937500 0.187500
vt 0.875000 0.187500
vt 0.875000 0.250000
vt 0.937500 0.375000
vt 1.000000 0.375000
vt 1.000000 0.437500
vt 0.937500 0.437500
vt 1.000000 0.625000
vt 0.937500 0.625000
vt 0.937500 0.500000
vt 1.000000 0.500000
vt 1.000000 0.500000
vt 0.937500 0.500000
vt 1.000000 0.437500
vt 0.937500 0.437500
vt 0.937500 0.375000
vt 1.000000 0.375000
vt 1.000000 0.437500
vt 0.937500 0.437500
vt 1.000000 0.437500
vt 1.000000 0.375000
vt 0.937500 0.375000
vt 1.000000 0.375000
vt 1.000000 0.312500
vt 0.937500 0.312500
vt 0.937500 0.500000
vt 1.000000 0.500000
vt 1.000000 0.500000
vt 0.937500 0.500000
vt 0.937500 0.375000
vt 1.000000 0.375000
vt 1.000000 0.187500
vt 0.937500 0.187500
vt 0.937500 0.062500
vt 1.000000 0.062500
vt 0.937500 0.437500
vt 1.000000 0.437500
vt 0.937500 0.312500
vt 1.000000 0.312500
vt 1.000000 0.187500
vt 0.937500 0.250000
vt 0.937500 0.375000
vt 1.000000 0.375000
vt 0.937500 0.250000
vt 1.000000 0.187500
vt 0.937500 0.187500
vt 1.000000 0.250000
vt 1.000000 0.062500
vt 0.937500 0.125000
vt 1.000000 0.250000
vt 0.937500 0.250000
vt 0.937500 0.187500
vt 1.000000 0.187500
vt 1.000000 0.312500
vt 0.937500 0.312500
vt 1.000000 0.250000
vt 0.937500 0.187500
vt 0.937500 0.125000
vt 1.000000 0.062500
vt 0.937500 0.187500
vt 0.937500 0.000000
vt 1.000000 0.000000
vt 0.687500 0.312500
vt 0.687500 0.562500
vt 0.437500 0.562500
vt 0.437500 0.312500
vt 0.437500 0.312500
vt 0.687500 0.312500
vt 0.687500 0.562500
vt 0.437500 0.312500
vt 0.437500 0.562500
vt 0.687500 0.562500
vt 0.687500 0.312500
vt 0.687500 0.312500
vt 0.687500 0.562500
vt 0.437500 0.562500
vt 0.437500 0.312500
vt 0.687500 0.312500
vt 0.437500 0.562500
vt 0.437500 0.312500
vt 0.000000 1.000000
vt 0.000000 0.812500
vt 0.187500 0.812500
vt 0.187500 1.000000
vt 0.750000 1.000000
vt 0.625000 1.000000
vt 0.625000 0.812500
vt 0.750000 0.812500
vt 0.062500 0.687500
vt 0.062500 0.750000
vt 0.000000 0.750000
vt 0.000000 0.687500
vt 0.437500 0.812500
vt 0.687500 0.812500
vt 0.687500 0.750000
vt 0.437500 0.750000
vt 0.375000 0.750000
vt 0.625000 0.750000
vt 0.625000 0.687500
vt 0.375000 0.687500
vt 0.187500 0.375000
vt 0.187500 0.250000
vt 0.375000 0.250000
vt 0.375000 0.375000
vt 0.375000 0.812500
vt 0.375000 0.750000
vt 0.625000 0.750000
vt 0.687500 0.750000
vt 0.437500 0.750000
vt 0.437500 0.687500
vt 0.687500 0.687500
vt 0.375000 1.000000
vt 0.375000 1.000000
vt 0.625000 1.000000
vt 0.625000 0.812500
vt 0.375000 0.812500
vt -0.000000 0.375000
vt -0.000000 0.250000
vt 0.250000 0.750000
vt 0.312500 0.750000
vt 0.125000 0.750000
vt 0.187500 0.625000
vt 0.187500 0.437500
vt 0.375000 0.437500
vt 0.375000 0.625000
vt 0.187500 0.750000
vt 0.312500 0.687500
vt 0.250000 0.687500
vt 0.187500 0.687500
vt 0.125000 0.687500
vt 0.187500 0.625000
vt -0.000000 0.625000
vt 0.000000 0.625000
vt 0.000000 0.437500
vt 0.375000 0.625000
vt 0.750000 1.000000
vt 0.750000 0.812500
vt 0.375000 0.250000
vt 0.750000 0.250000
vt 0.687500 0.312500
vt 0.437500 0.312500
vt 0.062500 0.687500
vt 0.000000 0.687500
vt 0.000000 0.625000
vt 0.625000 0.687500
vt 0.375000 0.687500
vt 0.375000 0.625000
vt 0.750000 0.625000
vt 0.312500 0.687500
vt 0.250000 0.687500
vt 0.187500 0.625000
vt 0.750000 0.812500
vt 0.625000 0.812500
vt 0.125000 0.687500
vt 0.437500 0.562500
vt 0.687500 0.562500
vt 0.437500 0.437500
vt 0.375000 0.437500
vt 0.375000 0.750000
vt 0.312500 0.750000
vt 0.250000 0.750000
vt 0.187500 0.750000
vt 0.187500 0.687500
vt 0.125000 0.750000
vt 0.062500 0.750000
vt 0.375000 0.687500
vt 0.625000 0.687500
vt 0.750000 0.625000
vt 0.375000 0.625000
vt 0.000000 0.250000
vt 0.375000 0.250000
vt 0.375000 0.437500
vt 0.000000 0.437500
vt 0.625000 0.812500
vt 0.750000 0.812500
vt 0.375000 0.687500
vt 0.375000 0.687500
vt 0.375000 0.687500
vt 0.375000 0.687500
vt 0.000000 1.000000
vt 0.187500 1.000000
vt 0.187500 0.812500
vt 0.000000 0.812500
vt 0.750000 1.000000
vt 0.750000 0.812500
vt 0.625000 0.812500
vt 0.625000 1.000000
vt 0.062500 0.687500
vt 0.000000 0.687500
vt 0.000000 0.750000
vt 0.062500 0.750000
vt 0.437500 0.812500
vt 0.437500 0.750000
vt 0.687500 0.750000
vt 0.687500 0.812500
vt 0.375000 0.750000
vt 0.375000 0.687500
vt 0.625000 0.687500
vt 0.625000 0.750000
vt 0.187500 0.375000
vt 0.375000 0.375000
vt 0.375000 0.250000
vt 0.187500 0.250000
vt 0.625000 0.750000
vt 0.375000 0.750000
vt 0.375000 0.812500
vt 0.687500 0.750000
vt 0.687500 0.687500
vt 0.437500 0.687500
vt 0.437500 0.750000
vt 0.375000 1.000000
vt 0.375000 1.000000
vt 0.375000 0.812500
vt 0.625000 0.812500
vt 0.625000 1.000000
vt -0.000000 0.250000
vt -0.000000 0.375000
vt 0.312500 0.750000
vt 0.250000 0.750000
vt 0.125000 0.750000
vt 0.187500 0.625000
vt 0.375000 0.625000
vt 0.375000 0.437500
vt 0.187500 0.437500
vt 0.187500 0.750000
vt 0.312500 0.687500
vt 0.250000 0.687500
vt 0.187500 0.687500
vt 0.125000 0.687500
vt -0.000000 0.625000
vt 0.187500 0.625000
vt 0.000000 0.625000
vt 0.000000 0.437500
vt 0.375000 0.625000
vt 0.750000 0.812500
vt 0.750000 1.000000
vt 0.375000 0.250000
vt 0.437500 0.312500
vt 0.687500 0.312500
vt 0.750000 0.250000
vt 0.062500 0.687500
vt 0.000000 0.625000
vt 0.000000 0.687500
vt 0.625000 0.687500
vt 0.750000 0.625000
vt 0.375000 0.625000
vt 0.375000 0.687500
vt 0.312500 0.687500
vt 0.187500 0.625000
vt 0.250000 0.687500
vt 0.625000 0.812500
vt 0.750000 0.812500
vt 0.125000 0.687500
vt 0.437500 0.562500
vt 0.687500 0.562500
vt 0.375000 0.437500
vt 0.437500 0.437500
vt 0.312500 0.750000
vt 0.375000 0.750000
vt 0.187500 0.687500
vt 0.187500 0.750000
vt 0.250000 0.750000
vt 0.062500 0.750000
vt 0.125000 0.750000
vt 0.375000 0.687500
vt 0.375000 0.625000
vt 0.750000 0.625000
vt 0.625000 0.687500
vt 0.000000 0.250000
vt 0.000000 0.437500
vt 0.375000 0.437500
vt 0.375000 0.250000
vt 0.750000 0.812500
vt 0.625000 0.812500
vt 0.750000 0.588917
vt 0.750000 0.286083
vt 0.937500 0.286083
vt 0.937500 0.588917
vt 0.411083 0.187500
vt 0.375000 0.062500
vt 0.750000 0.062500
vt 0.713917 0.187500
vt 0.812500 0.697192
vt 0.812500 0.927808
vt 0.750000 0.963917
vt 0.750000 0.661083
vt 0.375000 0.250000
vt 0.411083 0.187500
vt 0.713917 0.187500
vt 0.750000 0.250000
vt 0.375000 0.000000
vt 0.750000 0.000000
vt 0.375000 0.250000
vt 0.000000 0.250000
vt 0.000000 0.187500
vt 0.375000 0.187500
vt 0.000000 0.187500
vt 0.000000 -0.000000
vt 0.375000 -0.000000
vt 0.375000 0.187500
vt 1.000000 0.937500
vt 0.937500 0.937500
vt 1.000000 0.875000
vt 1.000000 1.000000
vt 0.875000 1.000000
vt 0.875000 0.937500
vt 0.000000 -0.000000
vt 0.375000 -0.000000
vt 0.812500 1.000000
vt 0.812500 0.937500
vt 0.812500 0.625000
vt 0.875000 0.625000
vt 0.875000 0.687500
vt 0.812500 0.697192
vt 1.000000 0.812500
vt 0.875000 0.937500
vt 0.875000 1.000000
vt 0.812500 1.000000
vt 0.812500 0.937500
vt 1.000000 1.000000
vt 1.000000 0.937500
vt 0.937500 0.937500
vt 1.000000 0.875000
vt 1.000000 0.937500
vt 0.937500 0.937500
vt 1.000000 0.875000
vt 1.000000 1.000000
vt 0.875000 1.000000
vt 0.875000 0.937500
vt 0.812500 1.000000
vt 0.812500 0.937500
vt 0.000000 0.187500
vt 0.000000 -0.000000
vt 0.375000 -0.000000
vt 0.375000 0.187500
vt 0.411083 0.187500
vt 0.375000 0.062500
vt 0.750000 0.062500
vt 0.713917 0.187500
vt 0.812500 0.927808
vt 0.812500 0.697192
vt 0.750000 0.661083
vt 0.750000 0.963917
vt 0.375000 0.250000
vt 0.411083 0.187500
vt 0.713917 0.187500
vt 0.750000 0.250000
vt 0.375000 0.000000
vt 0.750000 0.000000
vt 0.375000 0.250000
vt 0.000000 0.250000
vt 0.000000 0.187500
vt 0.375000 0.187500
vt 0.000000 -0.000000
vt 0.375000 -0.000000
vt 1.000000 0.937500
vt 0.937500 0.937500
vt 1.000000 0.875000
vt 1.000000 1.000000
vt 0.875000 1.000000
vt 0.875000 0.937500
vt 0.812500 1.000000
vt 0.812500 0.937500
vt 0.812500 0.625000
vt 0.875000 0.625000
vt 0.875000 0.937500
vt 0.875000 1.000000
vt 0.812500 1.000000
vt 0.812500 0.937500
vt 1.000000 1.000000
vt 1.000000 0.937500
vt 0.937500 0.937500
vt 1.000000 0.875000
vt 0.000000 0.187500
vt 0.000000 -0.000000
vt 0.375000 -0.000000
vt 0.375000 0.187500
vt 0.375000 0.250000
vt 0.000000 0.250000
vt 0.375000 0.000000
vt 0.750000 0.000000
vt 0.750000 0.062500
vt 0.375000 0.062500
vt 0.375000 0.250000
vt 0.411083 0.187500
vt 0.713917 0.187500
vt 0.750000 0.250000
vt 0.812500 0.927808
vt 0.750000 0.963917
vt 0.411083 0.187500
vt 0.713917 0.187500
vt 0.750000 0.588917
vt 0.750000 0.286083
vt 0.937500 0.286083
vt 0.937500 0.588917
vt 0.812500 0.625000
vt 0.875000 0.625000
vt 0.875000 0.937500
vt 0.875000 1.000000
vt 0.812500 1.000000
vt 0.812500 0.937500
vt 1.000000 1.000000
vt 1.000000 0.937500
vt 0.937500 0.937500
vt 1.000000 0.875000
vt 0.000000 0.187500
vt 0.000000 -0.000000
vt 0.375000 -0.000000
vt 0.375000 0.187500
vt 0.375000 0.250000
vt 0.000000 0.250000
vt 0.375000 0.000000
vt 0.750000 0.000000
vt 0.750000 0.062500
vt 0.375000 0.062500
vt 0.375000 0.250000
vt 0.411083 0.187500
vt 0.713917 0.187500
vt 0.750000 0.250000
vt 0.750000 0.588917
vt 0.937500 0.588917
vt 0.812500 0.625000
vt 0.875000 0.625000
vt 0.750000 0.286083
vt 0.937500 0.286083
vt 0.411083 0.187500
vt 0.375000 0.062500
vt 0.750000 0.062500
vt 0.713917 0.187500
vt 0.750000 0.661083
vt 0.812500 0.697192
vt 0.812500 0.927808
vt 0.750000 0.963917
vt 0.750000 0.661083
vt 0.411083 0.187500
vt 0.713917 0.187500
vt 0.375000 0.250000
vt 0.411083 0.187500
vt 0.713917 0.187500
vt 0.750000 0.250000
vt 0.375000 0.250000
vt 0.000000 0.250000
vt 0.812500 0.625000
vt 0.875000 0.625000
vt 0.375000 0.000000
vt 0.750000 0.000000
vt 0.375000 0.000000
vt 0.750000 0.000000
vt 0.750000 0.062500
vt 0.375000 0.062500
vt 0.375000 0.250000
vt 0.411083 0.187500
vt 0.713917 0.187500
vt 0.750000 0.250000
vt 0.411083 0.187500
vt 0.713917 0.187500
vt 0.812500 0.625000
vt 0.875000 0.625000
vt 0.375000 0.250000
vt 0.000000 0.250000
vt 1.000000 0.125000
vt 0.937500 0.125000
vt 0.937500 0.062500
vt 1.000000 0.062500
vt 0.937500 0.125000
vt 1.000000 0.250000
vt 0.937500 0.187500
vt 1.000000 0.187500
vt 1.000000 0.250000
vt 0.937500 0.250000
vt 0.937500 0.187500
vt 0.937500 0.312500
vt 1.000000 0.312500
vt 1.000000 0.437500
vt 0.937500 0.437500
vt 0.937500 0.187500
vt 1.000000 0.250000
vt 1.000000 0.062500
vt 0.937500 0.437500
vt 1.000000 0.437500
vt 1.000000 0.375000
vt 0.937500 0.375000
vt 0.937500 0.250000
vt 1.000000 0.187500
vt 1.000000 0.375000
vt 0.937500 0.375000
vt 1.000000 0.187500
vt 0.937500 0.375000
vt 1.000000 0.375000
vt 1.000000 0.250000
vt 0.937500 0.250000
vt 0.937500 0.125000
vt 1.000000 0.125000
vt 1.000000 0.500000
vt 0.937500 0.500000
vt 0.937500 0.437500
vt 1.000000 0.437500
vt 1.000000 0.437500
vt 0.937500 0.375000
vt 1.000000 0.375000
vt 1.000000 0.250000
vt 0.937500 0.312500
vt 0.937500 0.375000
vt 1.000000 0.375000
vt 0.937500 0.312500
vt 1.000000 0.250000
vt 0.937500 0.250000
vt 1.000000 0.312500
vt 1.000000 0.062500
vt 0.937500 0.125000
vt 1.000000 0.250000
vt 0.937500 0.250000
vt 0.937500 0.187500
vt 1.000000 0.187500
vt 1.000000 0.312500
vt 0.937500 0.250000
vt 0.937500 0.125000
vt 1.000000 0.062500
vt 1.000000 0.187500
vt 0.937500 0.187500
vt 0.937500 0.000000
vt 1.000000 0.000000
vt 0.875000 0.156250
vt 0.875000 -0.000000
vt 0.937500 0.062500
vt 0.937500 0.156250
vt 0.375000 0.000000
vt 0.375000 0.062500
vt 0.500000 0.062500
vt 0.500000 0.000000
vt 0.375000 0.062500
vt 0.375000 0.000000
vt 0.500000 0.000000
vt 0.500000 0.062500
vt 0.750000 0.156250
vt 0.750000 -0.000000
vt 0.750000 0.156250
vt 0.750000 0.000000
vt 0.875000 0.000000
vt 0.875000 0.156250
vt 0.656250 0.000000
vt 0.562500 0.000000
vt 0.562500 0.062500
vt 0.656250 0.062500
vt 0.937500 0.062500
vt 0.937500 0.156250
vt 0.562500 0.000000
vt 0.562500 0.062500
vt 0.875000 -0.000000
vt 0.937500 0.062500
vt 0.750000 -0.000000
vt 0.750000 0.000000
vt 0.875000 0.000000
vt 0.937500 0.062500
vn 1.0000 0.0000 0.0000
vn -1.0000 -0.0000 -0.0000
vn 0.0000 0.0000 -1.0000
vn 0.9701 0.2425 0.0000
vn 0.0000 0.0000 1.0000
vn 0.0000 0.2425 -0.9701
vn 0.0000 0.2425 0.9701
vn -0.9701 0.2425 0.0000
vn -0.7071 -0.7071 -0.0000
vn -0.7071 0.7071 -0.0000
vn 0.0000 1.0000 0.0000
vn 0.0000 -1.0000 0.0000
vn 0.7071 -0.7071 0.0000
vn 0.7071 0.7071 0.0000
vn -0.5000 0.0000 -0.8660
vn 0.5000 0.0000 0.8660
vn -0.8660 0.0000 0.5000
vn -0.4851 0.2425 -0.8402
vn 0.8660 0.0000 -0.5000
vn -0.8402 0.2425 0.4851
vn 0.8402 0.2425 -0.4851
vn 0.4851 0.2425 0.8402
vn 0.3536 -0.7071 0.6124
vn 0.3536 0.7071 0.6124
vn 0.5000 0.0000 -0.8660
vn -0.5000 0.0000 0.8660
vn -0.8660 0.0000 -0.5000
vn 0.4851 0.2425 -0.8402
vn 0.8660 0.0000 0.5000
vn -0.8402 0.2425 -0.4851
vn 0.8402 0.2425 0.4851
vn -0.4851 0.2425 0.8402
vn -0.3536 -0.7071 0.6124
vn -0.3536 0.7071 0.6124
vn -0.0000 0.9763 -0.2164
vn 0.0000 -0.9763 0.2164
vn 0.0000 0.2164 0.9763
vn 0.0000 0.4617 0.8870
vn 0.0000 0.4618 0.8870
vn -0.0000 0.8870 -0.4618
vn -0.0000 -0.4618 -0.8870
vn -0.0000 0.8870 -0.4617
vn -0.0000 -1.0000 -0.0020
vn 0.0000 -0.0020 1.0000
vn -0.0000 0.0020 -1.0000
vn -0.0000 -0.2164 -0.9763
vn -0.0000 -0.4617 -0.8870
vn 0.0000 -0.8870 0.4618
vn 0.0000 -0.8870 0.4617
vn 0.0000 1.0000 0.0020
vn 0.0000 0.7071 -0.7071
vn 0.0000 -0.7071 0.7071
vn 0.0000 0.7071 0.7071
vn 0.0000 -0.7071 -0.7071
vn 0.6124 -0.7071 -0.3536
vn -0.6124 0.7071 0.3536
vn 0.6124 -0.7071 0.3536
vn 0.6124 0.7071 0.3536
vn -0.6124 0.7071 -0.3536
vn -0.6124 -0.7071 -0.3536
vn -0.6124 -0.7071 0.3536
vn 0.6124 0.7071 -0.3536
vn -0.7071 -0.0000 -0.7071
vn 0.7071 0.0000 -0.7071
usemtl BOSS_TROPHY_UNDEAD
s off
f 3/1/1 2/2/1 1/3/1 4/4/1
f 5/5/2 6/6/2 8/7/2 7/8/2
f 4/9/3 1/10/3 8/11/3 6/12/3
f 3/1/4 4/4/4 9/13/4
f 2/14/5 7/15/5 12/16/5 10/17/5
f 2/18/5 3/19/5 5/20/5 7/21/5
f 4/9/6 6/12/6 9/22/6
f 5/20/7 3/19/7 9/22/7
f 6/6/8 5/5/8 9/23/8
f 13/24/3 11/25/3 15/26/3
f 7/27/2 8/28/2 13/29/2 12/30/2
f 8/31/3 1/32/3 11/33/3 13/34/3
f 15/35/9 14/36/9 12/37/9 13/38/9
f 14/39/2 15/40/2 21/41/2 20/42/2
f 10/43/5 12/44/5 14/45/5
f 10/46/5 14/47/5 18/48/5 16/49/5
f 15/35/3 11/50/3 17/51/3 19/52/3
f 21/53/3 23/54/3 27/55/3 25/56/3
f 15/57/3 19/58/3 23/54/3 21/53/3
f 18/59/5 14/60/5 20/61/5 22/62/5
f 27/63/1 26/64/1 30/65/1 31/66/1
f 20/42/9 21/41/9 25/67/9 24/68/9
f 22/62/5 20/61/5 24/69/5 26/70/5
f 25/56/3 27/55/3 31/71/3 29/72/3
f 24/68/2 25/67/2 29/73/2 28/74/2
f 26/70/5 24/69/5 28/75/5 30/76/5
f 29/77/3 31/78/3 35/79/3 33/80/3
f 32/81/10 33/82/10 35/83/10 34/84/10
f 28/85/11 29/86/11 33/82/11 32/81/11
f 30/87/5 28/88/5 32/89/5 34/90/5
f 31/71/12 30/91/12 34/92/12 35/93/12
f 38/94/2 37/95/2 36/96/2 39/97/2
f 40/98/1 41/99/1 43/100/1 42/101/1
f 39/102/5 36/103/5 43/104/5 41/105/5
f 38/94/8 39/97/8 44/106/8
f 37/107/3 42/108/3 47/109/3 45/110/3
f 37/111/3 38/112/3 40/113/3 42/114/3
f 39/102/7 41/105/7 44/115/7
f 40/113/6 38/112/6 44/115/6
f 41/99/4 40/98/4 44/116/4
f 48/117/5 46/118/5 50/119/5
f 42/120/1 43/121/1 48/122/1 47/123/1
f 43/124/5 36/125/5 46/126/5 48/127/5
f 50/128/13 49/129/13 47/130/13 48/131/13
f 49/132/1 50/133/1 56/134/1 55/135/1
f 45/136/3 47/137/3 49/138/3
f 45/139/3 49/140/3 53/141/3 51/142/3
f 50/128/5 46/143/5 52/144/5 54/145/5
f 56/146/5 58/147/5 62/148/5 60/149/5
f 50/150/5 54/151/5 58/147/5 56/146/5
f 53/152/3 49/153/3 55/154/3 57/155/3
f 62/156/2 61/157/2 65/158/2 66/159/2
f 55/135/13 56/134/13 60/160/13 59/161/13
f 57/155/3 55/154/3 59/162/3 61/163/3
f 60/149/5 62/148/5 66/164/5 64/165/5
f 59/161/1 60/160/1 64/166/1 63/167/1
f 61/163/3 59/162/3 63/168/3 65/169/3
f 64/170/5 66/171/5 70/172/5 68/173/5
f 67/174/14 68/175/14 70/176/14 69/177/14
f 63/178/11 64/179/11 68/175/11 67/174/11
f 65/180/3 63/181/3 67/182/3 69/183/3
f 66/164/12 65/184/12 69/185/12 70/186/12
f 73/187/15 72/188/15 71/189/15 74/190/15
f 75/191/16 76/192/16 78/193/16 77/194/16
f 74/195/17 71/196/17 78/197/17 76/198/17
f 73/187/18 74/190/18 79/199/18
f 72/200/19 77/201/19 82/202/19 80/203/19
f 72/204/19 73/205/19 75/206/19 77/207/19
f 74/195/20 76/198/20 79/208/20
f 75/206/21 73/205/21 79/208/21
f 76/192/22 75/191/22 79/209/22
f 83/210/17 81/211/17 85/212/17
f 77/213/16 78/214/16 83/215/16 82/216/16
f 78/217/17 71/218/17 81/219/17 83/220/17
f 85/221/23 84/222/23 82/223/23 83/224/23
f 84/225/16 85/226/16 91/227/16 90/228/16
f 80/229/19 82/230/19 84/231/19
f 80/232/19 84/233/19 88/234/19 86/235/19
f 85/221/17 81/236/17 87/237/17 89/238/17
f 91/239/17 93/240/17 97/241/17 95/242/17
f 85/243/17 89/244/17 93/240/17 91/239/17
f 88/245/19 84/246/19 90/247/19 92/248/19
f 97/249/15 96/250/15 100/251/15 101/252/15
f 90/228/23 91/227/23 95/253/23 94/254/23
f 92/248/19 90/247/19 94/255/19 96/256/19
f 95/242/17 97/241/17 101/257/17 99/258/17
f 94/254/16 95/253/16 99/259/16 98/260/16
f 96/256/19 94/255/19 98/261/19 100/262/19
f 99/263/17 101/264/17 105/265/17 103/266/17
f 102/267/24 103/268/24 105/269/24 104/270/24
f 98/271/11 99/272/11 103/268/11 102/267/11
f 100/273/19 98/274/19 102/275/19 104/276/19
f 101/257/12 100/277/12 104/278/12 105/279/12
f 108/280/25 107/281/25 106/282/25 109/283/25
f 110/284/26 111/285/26 113/286/26 112/287/26
f 109/288/27 106/289/27 113/290/27 111/291/27
f 108/280/28 109/283/28 114/292/28
f 107/293/29 112/294/29 117/295/29 115/296/29
f 107/297/29 108/298/29 110/299/29 112/300/29
f 109/288/30 111/291/30 114/301/30
f 110/299/31 108/298/31 114/301/31
f 111/285/32 110/284/32 114/302/32
f 118/303/27 116/304/27 120/305/27
f 112/306/26 113/307/26 118/308/26 117/309/26
f 113/310/27 106/311/27 116/312/27 118/313/27
f 120/314/33 119/315/33 117/316/33 118/317/33
f 119/318/26 120/319/26 126/320/26 125/321/26
f 115/322/29 117/323/29 119/324/29
f 115/325/29 119/326/29 123/327/29 121/328/29
f 120/314/27 116/329/27 122/330/27 124/331/27
f 126/332/27 128/333/27 132/334/27 130/335/27
f 120/336/27 124/337/27 128/333/27 126/332/27
f 123/338/29 119/339/29 125/340/29 127/341/29
f 132/342/25 131/343/25 135/344/25 136/345/25
f 125/321/33 126/320/33 130/346/33 129/347/33
f 127/341/29 125/340/29 129/348/29 131/349/29
f 130/335/27 132/334/27 136/350/27 134/351/27
f 129/347/26 130/346/26 134/352/26 133/353/26
f 131/349/29 129/348/29 133/354/29 135/355/29
f 134/356/27 136/357/27 140/358/27 138/359/27
f 137/360/34 138/361/34 140/362/34 139/363/34
f 133/364/11 134/365/11 138/361/11 137/360/11
f 135/366/29 133/367/29 137/368/29 139/369/29
f 136/350/12 135/370/12 139/371/12 140/372/12
f 145/373/1 143/374/1 144/375/1 148/376/1
f 144/375/35 143/377/35 142/378/35 141/379/35
f 145/380/36 148/381/36 147/382/36 146/383/36
f 148/384/37 144/385/37 141/386/37 147/387/37
f 147/388/2 141/379/2 142/389/2 146/390/2
f 149/391/38 150/392/38 151/393/38 152/394/38
f 153/395/1 154/396/1 155/397/1 156/398/1
f 157/399/39 158/400/39 159/401/39 160/402/39
f 150/403/2 161/404/2 162/405/2 159/406/2
f 159/407/2 162/408/2 163/409/2 160/410/2
f 164/411/40 165/412/40 166/413/40 167/414/40
f 155/397/1 168/415/1 169/416/1 170/417/1
f 170/418/1 169/419/1 171/420/1 172/421/1
f 154/396/1 173/422/1 168/415/1 155/397/1
f 149/423/2 167/424/2 161/425/2 150/426/2
f 164/411/40 154/427/40 153/428/40 165/412/40
f 152/394/38 151/393/38 168/415/38 173/422/38
f 168/415/38 151/393/38 174/429/38 175/430/38
f 151/393/38 150/392/38 158/400/38 176/431/38
f 165/432/41 177/433/41 178/434/41 166/435/41
f 179/436/38 174/429/38 151/393/38
f 180/437/39 175/430/39 174/429/39 181/438/39
f 159/401/38 158/400/38 150/392/38
f 182/439/39 179/436/39 176/431/39 183/440/39
f 179/436/38 151/393/38 176/431/38
f 154/427/42 164/411/42 152/441/42 173/442/42
f 169/416/38 168/415/38 175/430/38
f 153/443/41 156/444/41 177/433/41 165/432/41
f 152/441/42 164/411/42 167/414/42 149/445/42
f 161/425/2 167/424/2 166/446/2 178/447/2
f 184/448/43 185/449/43 186/450/43 187/451/43
f 188/452/44 189/453/44 184/454/44
f 190/455/1 191/456/1 192/457/1 193/458/1
f 194/459/44 195/460/44 196/461/44 192/457/44
f 190/455/1 193/458/1 197/462/1 198/463/1
f 199/464/44 188/452/44 184/454/44 196/461/44
f 200/465/43 201/466/43 193/458/43 192/457/43
f 184/448/43 187/451/43 202/467/43 196/468/43
f 202/467/43 200/465/43 192/457/43 196/468/43
f 191/456/44 203/469/44 204/470/44 194/459/44
f 195/460/44 205/471/44 206/472/44 207/473/44
f 199/464/44 208/474/44 209/475/44 188/452/44
f 192/457/44 191/456/44 194/459/44
f 195/460/44 207/473/44 196/461/44
f 196/461/44 207/473/44 199/464/44
f 189/476/2 210/477/2 185/478/2 184/479/2
f 193/480/45 185/481/45 211/482/45 197/483/45
f 185/478/2 210/477/2 212/484/2 211/485/2
f 185/449/43 193/458/43 201/466/43 186/450/43
f 146/486/46 142/487/46 143/488/46 145/489/46
f 213/490/47 216/491/47 215/492/47 214/493/47
f 217/494/2 220/495/2 219/496/2 218/497/2
f 221/498/41 224/499/41 223/500/41 222/501/41
f 214/502/1 223/503/1 226/504/1 225/505/1
f 223/506/1 224/507/1 227/508/1 226/509/1
f 228/510/48 231/511/48 230/512/48 229/513/48
f 219/496/2 234/514/2 233/515/2 232/516/2
f 234/517/2 236/518/2 235/519/2 233/520/2
f 218/497/2 219/496/2 232/516/2 237/521/2
f 213/522/1 214/523/1 225/524/1 231/525/1
f 228/510/48 229/513/48 217/526/48 218/527/48
f 216/491/47 237/521/47 232/516/47 215/492/47
f 232/516/47 239/528/47 238/529/47 215/492/47
f 215/492/47 240/530/47 222/501/47 214/493/47
f 229/531/39 230/532/39 242/533/39 241/534/39
f 243/535/47 215/492/47 238/529/47
f 244/536/41 245/537/41 238/529/41 239/528/41
f 223/500/47 214/493/47 222/501/47
f 246/538/41 247/539/41 240/530/41 243/535/41
f 243/535/47 240/530/47 215/492/47
f 218/527/49 237/540/49 216/541/49 228/510/49
f 233/515/47 239/528/47 232/516/47
f 217/542/39 229/531/39 241/534/39 220/543/39
f 216/541/49 213/544/49 231/511/49 228/510/49
f 225/524/1 242/545/1 230/546/1 231/525/1
f 248/547/50 251/548/50 250/549/50 249/550/50
f 252/551/45 248/552/45 253/553/45
f 254/554/2 257/555/2 256/556/2 255/557/2
f 258/558/45 256/556/45 260/559/45 259/560/45
f 254/554/2 262/561/2 261/562/2 257/555/2
f 263/563/45 260/559/45 248/552/45 252/551/45
f 264/564/50 256/556/50 257/555/50 265/565/50
f 248/547/50 260/566/50 266/567/50 251/548/50
f 266/567/50 260/566/50 256/556/50 264/564/50
f 255/557/45 258/558/45 268/568/45 267/569/45
f 259/560/45 271/570/45 270/571/45 269/572/45
f 263/563/45 252/551/45 273/573/45 272/574/45
f 256/556/45 258/558/45 255/557/45
f 259/560/45 260/559/45 271/570/45
f 260/559/45 263/563/45 271/570/45
f 253/575/1 248/576/1 249/577/1 274/578/1
f 257/579/44 261/580/44 275/581/44 249/582/44
f 249/577/1 275/583/1 276/584/1 274/578/1
f 249/550/50 250/549/50 265/565/50 257/555/50
f 303/585/3 333/586/3 279/587/3 287/588/3
f 279/589/11 278/590/11 281/591/11 287/592/11
f 309/593/51 282/594/51 333/595/51 303/596/51
f 284/597/52 312/598/52 283/599/52 306/600/52
f 277/601/5 280/602/5 281/591/5 278/590/5
f 280/603/12 277/604/12 313/605/12 292/606/12
f 337/607/27 285/608/27 326/609/27 325/610/27
f 330/611/12 325/612/12 328/613/12
f 338/614/11 329/615/11 327/616/11
f 313/605/5 284/617/5 306/618/5 292/606/5
f 327/616/2 329/615/2 330/619/2 328/620/2
f 312/621/12 324/622/12 289/623/12
f 334/624/11 282/594/11 291/625/11
f 278/626/26 335/627/26 336/628/26 277/629/26
f 279/630/11 335/627/11 278/626/11
f 336/631/12 313/632/12 277/633/12
f 280/634/12 292/635/12 286/636/12
f 287/637/11 281/638/11 314/639/11
f 314/639/16 281/638/16 280/640/16 286/641/16
f 325/642/17 326/643/17 284/644/17 313/645/17
f 293/646/11 322/647/11 320/648/11 331/649/11
f 318/650/53 296/651/53 297/652/53 319/653/53
f 316/654/54 288/655/54 317/656/54 285/657/54
f 294/658/3 321/659/3 320/648/3 322/647/3
f 321/660/12 294/661/12 290/662/12 337/663/12
f 290/662/3 316/664/3 285/665/3 337/663/3
f 321/666/12 337/667/12 332/668/12
f 331/669/11 320/670/11 315/671/11
f 315/671/15 320/670/15 321/672/15 332/673/15
f 296/651/11 318/650/11 291/625/11
f 317/674/12 288/675/12 289/623/12
f 322/676/25 299/677/25 300/678/25 294/679/25
f 293/680/11 299/677/11 322/676/11
f 300/681/12 290/682/12 294/683/12
f 304/684/19 295/685/19 316/686/19 290/687/19
f 300/688/12 305/689/12 304/684/12 290/687/12
f 305/690/19 300/691/19 299/692/19 302/693/19
f 295/694/55 307/695/55 288/696/55 316/697/55
f 296/651/56 298/698/56 308/699/56 297/652/56
f 301/700/11 302/693/11 299/692/11 293/701/11
f 297/702/17 308/703/17 301/704/17 293/705/17
f 307/706/12 283/707/12 289/623/12
f 309/593/11 298/698/11 291/625/11
f 302/708/1 310/709/1 311/710/1 305/711/1
f 301/712/11 310/709/11 302/708/11
f 311/713/12 304/714/12 305/715/12
f 292/716/29 306/717/29 295/718/29 304/719/29
f 311/720/12 286/721/12 292/716/12 304/719/12
f 286/722/29 311/723/29 310/724/29 314/725/29
f 306/726/57 283/727/57 307/728/57 295/729/57
f 333/586/19 323/730/19 338/731/19 279/587/19
f 318/650/11 334/624/11 291/625/11
f 324/732/12 317/733/12 289/623/12
f 323/730/29 319/734/29 331/735/29 338/731/29
f 331/736/11 315/737/11 329/738/11 338/739/11
f 334/624/58 318/650/58 319/653/58 323/740/58
f 298/741/59 309/742/59 303/743/59 308/744/59
f 287/745/11 314/725/11 310/724/11 301/746/11
f 308/703/27 303/585/27 287/588/27 301/704/27
f 285/747/60 317/748/60 324/749/60 326/750/60
f 336/751/12 328/752/12 325/642/12 313/645/12
f 288/753/12 307/754/12 289/623/12
f 298/698/11 296/651/11 291/625/11
f 319/734/5 297/702/5 293/705/5 331/735/5
f 332/755/27 330/756/27 329/738/27 315/737/27
f 282/594/11 309/593/11 291/625/11
f 328/757/17 336/758/17 335/759/17 327/760/17
f 326/761/61 324/762/61 312/763/61 284/764/61
f 282/594/62 334/624/62 323/740/62 333/595/62
f 338/765/11 327/760/11 335/759/11 279/766/11
f 283/767/12 312/768/12 289/623/12
f 330/769/12 332/770/12 337/607/12 325/610/12
f 339/771/54 340/772/54 342/773/54 341/774/54
f 339/775/1 341/774/1 344/776/1 346/777/1
f 339/778/12 346/779/12 345/780/12 340/781/12
f 345/782/3 346/783/3 348/784/3 347/785/3
f 340/772/2 345/786/2 343/787/2 342/788/2
f 348/789/1 350/790/1 354/791/1 352/792/1
f 346/793/1 344/794/1 350/795/1 348/796/1
f 343/797/2 345/780/2 347/798/2 349/799/2
f 354/800/5 353/801/5 357/802/5 358/803/5
f 347/804/54 348/805/54 352/806/54 351/807/54
f 349/808/2 347/785/2 351/809/2 353/810/2
f 352/792/1 354/791/1 358/811/1 356/812/1
f 351/807/3 352/806/3 356/813/3 355/814/3
f 353/810/2 351/809/2 355/815/2 357/816/2
f 356/817/1 358/818/1 362/819/1 360/820/1
f 359/821/51 360/822/51 362/823/51 361/824/51
f 355/814/11 356/813/11 360/822/11 359/821/11
f 357/825/2 355/826/2 359/827/2 361/828/2
f 358/829/12 357/830/12 361/831/12 362/832/12
f 378/833/11 367/834/11 371/835/11 380/836/11
f 365/837/2 366/838/2 370/839/2 369/840/2
f 364/841/1 363/842/1 368/843/1 367/844/1
f 376/845/11 364/846/11 367/834/11 378/833/11
f 375/847/12 365/848/12 369/849/12 377/850/12
f 379/851/3 373/852/3 374/853/3 380/854/3
f 377/850/12 369/849/12 373/855/12 379/856/12
f 369/840/63 370/839/63 374/853/63 373/852/63
f 367/844/64 368/843/64 372/857/64 371/858/64
f 368/859/12 377/850/12 379/856/12 372/860/12
f 372/857/3 379/851/3 380/854/3 371/858/3
f 363/861/12 375/847/12 377/850/12 368/859/12
f 366/862/11 376/845/11 378/833/11 370/863/11
f 370/863/11 378/833/11 380/836/11 374/864/11
