# Blender v2.80 (sub 75) OBJ File: 'chem devices.blend'
# www.blender.org
mtllib centrifuge_wheel.mtl
o CENTRIFUGE_WHEEL_Cylinder.001
v -0.374604 0.312500 -0.155166
v -0.000000 0.500000 -0.000000
v -0.374604 0.312500 0.155166
v -0.155166 0.312500 0.374604
v 0.155166 0.312500 0.374604
v 0.374604 0.312500 0.155166
v 0.374604 0.312500 -0.155166
v -0.155166 0.312500 -0.374604
v 0.155166 0.312500 -0.374604
v 0.077583 0.500000 -0.187302
v -0.077583 0.500000 -0.187302
v 0.187302 0.500000 -0.077583
v 0.187302 0.500000 0.077583
v 0.077583 0.500000 0.187302
v -0.077583 0.500000 0.187302
v -0.187302 0.500000 0.077583
v -0.187302 0.500000 -0.077583
v -0.258610 0.406250 -0.624340
v 0.258610 0.406250 -0.624340
v -0.624341 0.406250 -0.258610
v -0.258610 0.406250 0.624340
v -0.624340 0.406250 0.258610
v 0.624340 0.406250 -0.258610
v 0.624340 0.406250 0.258610
v 0.258610 0.406250 0.624340
vt 0.820313 1.000000
vt 0.859375 0.906250
vt 0.703125 0.906250
vt 0.742188 1.000000
vt 0.742188 1.000000
vt 0.703125 0.906250
vt 0.859375 0.906250
vt 0.820313 1.000000
vt 0.742188 1.000000
vt 0.703125 0.906250
vt 0.859375 0.906250
vt 0.820313 1.000000
vt 0.703125 0.906250
vt 0.742188 1.000000
vt 0.859375 0.906250
vt 0.820313 1.000000
vt 0.625000 0.937500
vt 0.664063 0.843750
vt 0.585938 0.843750
vt 0.585938 0.843750
vt 0.664063 0.843750
vt 0.585938 0.843750
vt 0.664063 0.843750
vt 0.585938 0.843750
vt 0.664063 0.843750
vt 0.703125 0.843750
vt 0.859375 0.843750
vt 0.911458 0.968750
vt 0.651042 0.968750
vt 0.859375 0.843750
vt 0.703125 0.843750
vt 0.651042 0.968750
vt 0.911458 0.968750
vt 0.703125 0.843750
vt 0.859375 0.843750
vt 0.911458 0.968750
vt 0.651042 0.968750
vt 0.703125 0.843750
vt 0.651042 0.968750
vt 0.859375 0.843750
vt 0.911458 0.968750
vn -0.5003 0.7067 0.5003
vn 0.7075 0.7067 0.0000
vn 0.0000 0.7067 -0.7075
vn -0.5003 0.7067 -0.5003
vn -0.0000 0.7067 0.7075
vn 0.5003 0.7067 -0.5003
vn -0.7075 0.7067 0.0000
vn 0.5003 0.7067 0.5003
vn 0.0000 1.0000 0.0000
vn -0.2485 0.9362 -0.2485
vn 0.3514 0.9362 -0.0000
vn -0.2485 0.9362 0.2485
vn 0.0000 0.9362 -0.3514
vn -0.3514 0.9362 0.0000
vn 0.2485 0.9362 -0.2485
vn 0.2485 0.9362 0.2485
vn 0.0000 0.9362 0.3514
usemtl CENTRIFUGE
s off
f 16/1/1 3/2/1 4/3/1 15/4/1
f 13/5/2 6/6/2 7/7/2 12/8/2
f 10/9/3 9/10/3 8/11/3 11/12/3
f 11/12/4 8/11/4 1/13/4 17/14/4
f 15/4/5 4/3/5 5/15/5 14/16/5
f 12/8/6 7/7/6 9/10/6 10/9/6
f 17/14/7 1/13/7 3/2/7 16/1/7
f 14/16/8 5/15/8 6/6/8 13/5/8
f 2/17/9 10/18/9 11/19/9
f 2/17/9 12/20/9 10/18/9
f 2/17/9 13/21/9 12/20/9
f 2/17/9 14/22/9 13/21/9
f 2/17/9 15/23/9 14/22/9
f 2/17/9 16/24/9 15/23/9
f 2/17/9 17/25/9 16/24/9
f 2/17/9 11/19/9 17/25/9
f 6/26/10 5/27/10 25/28/10 24/29/10
f 3/30/11 1/31/11 20/32/11 22/33/11
f 9/34/12 7/35/12 23/36/12 19/37/12
f 5/27/13 4/38/13 21/39/13 25/28/13
f 7/35/14 6/26/14 24/29/14 23/36/14
f 4/38/15 3/30/15 22/33/15 21/39/15
f 1/31/16 8/40/16 18/41/16 20/32/16
f 8/40/17 9/34/17 19/37/17 18/41/17
