# Blender v2.80 (sub 75) OBJ File: 'chalice_of_tears.blend'
# www.blender.org
mtllib chalice_of_tears.mtl
o Cube
v 0.500000 0.750000 0.367417
v 0.632583 0.750000 0.500000
v 0.367417 0.750000 0.500000
v 0.500000 0.750000 0.632583
v 0.455806 0.750000 0.676777
v 0.455806 0.437500 0.676777
v 0.323223 0.437500 0.544194
v 0.323223 0.750000 0.544194
v 0.676777 0.437500 0.455806
v 0.544194 0.437500 0.323223
v 0.544194 0.750000 0.323223
v 0.676777 0.750000 0.455806
v 0.455806 0.437500 0.323223
v 0.455806 0.750000 0.323223
v 0.323223 0.750000 0.455806
v 0.323223 0.437500 0.455806
v 0.676777 0.750000 0.544194
v 0.676777 0.437500 0.544194
v 0.544194 0.437500 0.676777
v 0.544194 0.750000 0.676777
v 0.632583 0.312500 0.500000
v 0.500000 0.312500 0.367417
v 0.500000 0.312500 0.632583
v 0.367417 0.312500 0.500000
v 0.500000 0.375000 0.455806
v 0.544194 0.375000 0.500000
v 0.500000 0.375000 0.544194
v 0.455806 0.375000 0.500000
v 0.500000 0.437500 0.367417
v 0.632583 0.437500 0.500000
v 0.500000 0.437500 0.632583
v 0.367417 0.437500 0.500000
v 0.562500 0.125000 0.437500
v 0.562500 0.312500 0.437500
v 0.562500 0.125000 0.562500
v 0.562500 0.312500 0.562500
v 0.437500 0.125000 0.437500
v 0.437500 0.312500 0.437500
v 0.437500 0.125000 0.562500
v 0.437500 0.312500 0.562500
v 0.632583 0.125000 0.500000
v 0.500000 0.125000 0.367417
v 0.500000 0.125000 0.632583
v 0.367417 0.125000 0.500000
v 0.500000 0.062500 0.367417
v 0.500000 0.062500 0.632583
v 0.367417 0.062500 0.500000
v 0.632583 0.062500 0.500000
v 0.367417 0.000000 0.500000
v 0.676777 0.000000 0.455806
v 0.544194 0.000000 0.323223
v 0.455806 0.000000 0.676777
v 0.323223 0.000000 0.544194
v 0.676777 0.000000 0.544194
v 0.455806 0.000000 0.323223
v 0.544194 0.000000 0.676777
v 0.323223 0.000000 0.455806
v 0.632583 0.000000 0.500000
v 0.500000 0.000000 0.367417
v 0.500000 0.000000 0.632583
v 0.166973 0.375000 0.531250
v 0.354473 0.625000 0.531250
v 0.229473 0.437500 0.531250
v 0.354473 0.625000 0.468750
v 0.166973 0.375000 0.468750
v 0.229473 0.437500 0.468750
v 0.291973 0.625000 0.468750
v 0.291973 0.375000 0.531250
v 0.291973 0.437500 0.531250
v 0.291973 0.437500 0.468750
v 0.291973 0.375000 0.468750
v 0.354473 0.437500 0.531250
v 0.354473 0.437500 0.468750
v 0.291973 0.687500 0.468750
v 0.229473 0.562500 0.531250
v 0.166973 0.562500 0.531250
v 0.229473 0.562500 0.468750
v 0.166973 0.562500 0.468750
v 0.291973 0.625000 0.531250
v 0.354473 0.687500 0.531250
v 0.291973 0.687500 0.531250
v 0.354473 0.687500 0.468750
v 0.345320 0.531250 0.654680
v 0.367417 0.656250 0.632583
v 0.323223 0.531250 0.588388
v 0.367417 0.406250 0.632583
v 0.323223 0.468750 0.588388
v 0.345320 0.468750 0.654680
v 0.367417 0.531250 0.544194
v 0.411612 0.531250 0.676777
v 0.411612 0.468750 0.676777
v 0.411612 0.656250 0.588388
v 0.411612 0.406250 0.588388
v 0.367417 0.468750 0.544194
v 0.455806 0.531250 0.632583
v 0.455806 0.468750 0.632583
v 0.833027 0.375000 0.468750
v 0.645527 0.625000 0.468750
v 0.770527 0.437500 0.468750
v 0.645527 0.625000 0.531250
v 0.833027 0.375000 0.531250
v 0.770527 0.437500 0.531250
v 0.708027 0.625000 0.531250
v 0.708027 0.375000 0.468750
v 0.708027 0.437500 0.468750
v 0.708027 0.437500 0.531250
v 0.708027 0.375000 0.531250
v 0.645527 0.437500 0.468750
v 0.645527 0.437500 0.531250
v 0.708027 0.687500 0.531250
v 0.770527 0.562500 0.468750
v 0.833027 0.562500 0.468750
v 0.770527 0.562500 0.531250
v 0.833027 0.562500 0.531250
v 0.708027 0.625000 0.468750
v 0.645527 0.687500 0.468750
v 0.708027 0.687500 0.468750
v 0.645527 0.687500 0.531250
v 0.654680 0.531250 0.345320
v 0.632583 0.656250 0.367417
v 0.676777 0.531250 0.411612
v 0.632583 0.406250 0.367417
v 0.676777 0.468750 0.411612
v 0.654680 0.468750 0.345320
v 0.632583 0.531250 0.455806
v 0.588388 0.531250 0.323223
v 0.588388 0.468750 0.323223
v 0.588388 0.656250 0.411612
v 0.588388 0.406250 0.411612
v 0.632583 0.468750 0.455806
v 0.544194 0.531250 0.367417
v 0.544194 0.468750 0.367417
v 0.654680 0.531250 0.654680
v 0.632583 0.656250 0.632583
v 0.588388 0.531250 0.676777
v 0.632583 0.406250 0.632583
v 0.588388 0.468750 0.676777
v 0.654680 0.468750 0.654680
v 0.544194 0.531250 0.632583
v 0.676777 0.531250 0.588388
v 0.676777 0.468750 0.588388
v 0.588388 0.656250 0.588388
v 0.588388 0.406250 0.588388
v 0.544194 0.468750 0.632583
v 0.632583 0.531250 0.544194
v 0.632583 0.468750 0.544194
v 0.345320 0.531250 0.345320
v 0.367417 0.656250 0.367417
v 0.411612 0.531250 0.323223
v 0.367417 0.406250 0.367417
v 0.411612 0.468750 0.323223
v 0.345320 0.468750 0.345320
v 0.455806 0.531250 0.367417
v 0.323223 0.531250 0.411612
v 0.323223 0.468750 0.411612
v 0.411612 0.656250 0.411612
v 0.411612 0.406250 0.411612
v 0.455806 0.468750 0.367417
v 0.367417 0.531250 0.455806
v 0.367417 0.468750 0.455806
v 0.531250 0.687500 0.676777
v 0.468750 0.687500 0.676777
v 0.531250 0.750000 0.676777
v 0.468750 0.750000 0.676777
v 0.500000 0.718750 0.708027
v 0.468750 0.687500 0.323223
v 0.531250 0.687500 0.323223
v 0.468750 0.750000 0.323223
v 0.531250 0.750000 0.323223
v 0.500000 0.718750 0.291973
v 0.676777 0.687500 0.468750
v 0.676777 0.687500 0.531250
v 0.676777 0.750000 0.468750
v 0.676777 0.750000 0.531250
v 0.708027 0.718750 0.500000
v 0.323223 0.687500 0.531250
v 0.323223 0.687500 0.468750
v 0.323223 0.750000 0.531250
v 0.323223 0.750000 0.468750
v 0.291973 0.718750 0.500000
vt 1.000000 0.750000
vt 0.937500 0.750000
vt 0.937500 0.687500
vt 0.750000 0.750000
vt 0.750000 0.687500
vt 0.500000 0.562500
vt 0.500000 0.687500
vt 0.437500 0.687500
vt 0.687500 1.000000
vt 0.500000 1.000000
vt 0.500000 0.750000
vt 0.687500 0.750000
vt -0.000000 0.562500
vt 0.187500 0.562500
vt 0.187500 0.687500
vt -0.000000 0.687500
vt 0.750000 0.937500
vt 0.687500 0.937500
vt 0.687500 0.750000
vt 0.250000 0.562500
vt 0.250000 0.687500
vt 0.187500 0.687500
vt 0.250000 0.562500
vt 0.250000 0.687500
vt 0.937500 0.937500
vt 1.000000 0.937500
vt 0.000000 0.562500
vt 0.187500 0.562500
vt 0.000000 0.687500
vt 0.187500 1.000000
vt 0.000000 1.000000
vt 0.187500 1.000000
vt 0.000000 1.000000
vt 0.437500 0.562500
vt 0.750000 1.000000
vt 0.937500 1.000000
vt 0.437500 1.000000
vt 0.250000 1.000000
vt 0.437500 0.562500
vt 0.437500 0.687500
vt 0.500000 0.562500
vt 0.500000 0.687500
vt 0.812500 0.812500
vt 0.875000 0.812500
vt 0.875000 0.875000
vt 0.812500 0.875000
vt 0.687500 1.000000
vt 0.500000 1.000000
vt 0.500000 0.750000
vt 0.687500 0.750000
vt 0.687500 1.000000
vt 0.500000 1.000000
vt 0.500000 0.750000
vt 0.687500 0.750000
vt 0.687500 1.000000
vt 0.500000 1.000000
vt 0.500000 0.750000
vt 0.687500 0.750000
vt 0.937500 0.750000
vt 0.937500 0.937500
vt 0.750000 0.750000
vt 0.750000 0.937500
vt 0.125000 0.000000
vt 0.125000 0.187500
vt -0.000000 0.187500
vt -0.000000 0.000000
vt 0.125000 0.000000
vt 0.125000 0.187500
vt -0.000000 0.187500
vt -0.000000 0.000000
vt 0.125000 0.000000
vt 0.125000 0.187500
vt -0.000000 0.187500
vt -0.000000 0.000000
vt 0.125000 0.000000
vt 0.125000 0.187500
vt -0.000000 0.187500
vt -0.000000 0.000000
vt 0.125000 0.187500
vt 0.125000 -0.000000
vt 0.312500 -0.000000
vt 0.312500 0.187500
vt 0.500000 0.750000
vt 0.500000 0.562500
vt 0.687500 0.562500
vt 0.687500 0.750000
vt 0.500000 0.562500
vt 0.500000 0.500000
vt 0.687500 0.500000
vt 0.687500 0.562500
vt 0.500000 0.562500
vt 0.500000 0.500000
vt 0.687500 0.500000
vt 0.687500 0.562500
vt 0.500000 0.500000
vt 0.687500 0.500000
vt 0.500000 0.562500
vt 0.500000 0.500000
vt 0.687500 0.500000
vt 0.687500 0.562500
vt 0.500000 0.437500
vt 0.687500 0.437500
vt 0.500000 0.437500
vt 0.687500 0.437500
vt 0.500000 0.437500
vt 0.687500 0.437500
vt 0.500000 0.437500
vt 0.687500 0.437500
vt 0.750000 0.437500
vt 0.750000 0.437500
vt 0.750000 0.437500
vt 0.750000 0.437500
vt 0.500000 0.375000
vt 0.687500 0.375000
vt 0.500000 0.375000
vt 0.687500 0.375000
vt 0.500000 0.375000
vt 0.687500 0.375000
vt 0.500000 0.375000
vt 0.687500 0.375000
vt 0.750000 0.375000
vt 0.750000 0.375000
vt 0.750000 0.375000
vt 0.750000 0.375000
vt 0.312500 0.562500
vt 0.312500 0.375000
vt 0.500000 0.562500
vt 0.062500 0.250000
vt 0.062500 0.187500
vt 0.187500 0.187500
vt 0.187500 0.250000
vt 0.250000 0.312500
vt 0.312500 0.312500
vt 0.312500 0.500000
vt 0.250000 0.500000
vt 0.125000 0.312500
vt 0.062500 0.250000
vt 0.062500 0.437500
vt 0.125000 0.437500
vt 0.187500 0.312500
vt 0.250000 0.312500
vt 0.250000 0.500000
vt 0.187500 0.500000
vt 0.250000 0.187500
vt 0.250000 0.250000
vt 0.125000 0.312500
vt 0.187500 0.312500
vt 0.187500 0.250000
vt 0.000000 0.250000
vt 0.000000 0.187500
vt 0.062500 0.187500
vt 0.062500 0.250000
vt 0.250000 0.500000
vt 0.312500 0.500000
vt 0.312500 0.562500
vt 0.250000 0.562500
vt 0.250000 0.312500
vt 0.187500 0.500000
vt 0.250000 0.500000
vt 0.250000 0.562500
vt 0.187500 0.562500
vt 0.000000 0.250000
vt 0.062500 0.437500
vt 0.000000 0.437500
vt 0.187500 0.312500
vt 0.187500 0.437500
vt 0.125000 0.437500
vt 0.187500 0.562500
vt 0.062500 0.562500
vt 0.062500 0.500000
vt 0.125000 0.500000
vt 0.125000 0.562500
vt 0.250000 0.562500
vt 0.062500 0.562500
vt 0.000000 0.562500
vt 0.437500 1.000000
vt 0.500000 1.000000
vt 0.250000 1.000000
vt 0.875000 0.562500
vt 0.875000 0.687500
vt 0.812500 0.562500
vt 0.875000 0.500000
vt 0.812500 0.500000
vt 0.875000 0.437500
vt 0.937500 0.562500
vt 0.937500 0.500000
vt 0.812500 0.437500
vt 0.750000 0.500000
vt 0.750000 0.437500
vt 0.812500 0.687500
vt 0.750000 0.687500
vt 0.750000 0.562500
vt 1.000000 0.500000
vt 1.000000 0.562500
vt 0.937500 0.437500
vt 1.000000 0.437500
vt 0.937500 0.687500
vt 1.000000 0.687500
vt 0.062500 0.250000
vt 0.062500 0.187500
vt 0.187500 0.187500
vt 0.187500 0.250000
vt 0.250000 0.312500
vt 0.312500 0.312500
vt 0.312500 0.500000
vt 0.250000 0.500000
vt 0.125000 0.312500
vt 0.062500 0.250000
vt 0.062500 0.437500
vt 0.125000 0.437500
vt 0.187500 0.312500
vt 0.250000 0.312500
vt 0.250000 0.500000
vt 0.187500 0.500000
vt 0.250000 0.187500
vt 0.250000 0.250000
vt 0.125000 0.312500
vt 0.187500 0.312500
vt 0.187500 0.250000
vt 0.000000 0.250000
vt 0.000000 0.187500
vt 0.062500 0.187500
vt 0.062500 0.250000
vt 0.250000 0.500000
vt 0.312500 0.500000
vt 0.312500 0.562500
vt 0.250000 0.562500
vt 0.250000 0.312500
vt 0.187500 0.500000
vt 0.250000 0.500000
vt 0.250000 0.562500
vt 0.187500 0.562500
vt 0.000000 0.250000
vt 0.062500 0.437500
vt 0.000000 0.437500
vt 0.187500 0.312500
vt 0.187500 0.437500
vt 0.125000 0.437500
vt 0.187500 0.562500
vt 0.062500 0.562500
vt 0.062500 0.500000
vt 0.125000 0.500000
vt 0.125000 0.562500
vt 0.250000 0.562500
vt 0.062500 0.562500
vt 0.000000 0.562500
vt 0.875000 0.562500
vt 0.875000 0.687500
vt 0.812500 0.562500
vt 0.875000 0.500000
vt 0.812500 0.500000
vt 0.875000 0.437500
vt 0.937500 0.562500
vt 0.937500 0.500000
vt 0.812500 0.437500
vt 0.750000 0.500000
vt 0.750000 0.437500
vt 0.812500 0.687500
vt 0.750000 0.687500
vt 0.750000 0.562500
vt 1.000000 0.500000
vt 1.000000 0.562500
vt 0.937500 0.437500
vt 1.000000 0.437500
vt 0.937500 0.687500
vt 1.000000 0.687500
vt 0.875000 0.562500
vt 0.875000 0.687500
vt 0.812500 0.562500
vt 0.875000 0.500000
vt 0.812500 0.500000
vt 0.875000 0.437500
vt 0.937500 0.562500
vt 0.937500 0.500000
vt 0.812500 0.437500
vt 0.750000 0.500000
vt 0.750000 0.437500
vt 0.812500 0.687500
vt 0.750000 0.687500
vt 0.750000 0.562500
vt 1.000000 0.500000
vt 1.000000 0.562500
vt 0.937500 0.437500
vt 1.000000 0.437500
vt 0.937500 0.687500
vt 1.000000 0.687500
vt 0.875000 0.562500
vt 0.875000 0.687500
vt 0.812500 0.562500
vt 0.875000 0.500000
vt 0.812500 0.500000
vt 0.875000 0.437500
vt 0.937500 0.562500
vt 0.937500 0.500000
vt 0.812500 0.437500
vt 0.750000 0.500000
vt 0.750000 0.437500
vt 0.812500 0.687500
vt 0.750000 0.687500
vt 0.750000 0.562500
vt 1.000000 0.500000
vt 1.000000 0.562500
vt 0.937500 0.437500
vt 1.000000 0.437500
vt 0.937500 0.687500
vt 1.000000 0.687500
vt 0.500000 1.000000
vt 0.875000 0.625000
vt 0.875000 0.562500
vt 0.937500 0.562500
vt 0.937500 0.562500
vt 1.000000 0.562500
vt 1.000000 0.625000
vt 0.937500 0.500000
vt 0.937500 0.562500
vt 0.875000 0.500000
vt 0.875000 0.625000
vt 0.812500 0.625000
vt 0.875000 0.687500
vt 0.875000 0.625000
vt 0.875000 0.562500
vt 0.937500 0.562500
vt 0.937500 0.562500
vt 1.000000 0.562500
vt 1.000000 0.625000
vt 0.937500 0.500000
vt 0.937500 0.562500
vt 0.875000 0.500000
vt 0.875000 0.625000
vt 0.812500 0.625000
vt 0.875000 0.687500
vt 0.875000 0.625000
vt 0.875000 0.562500
vt 0.937500 0.562500
vt 0.937500 0.562500
vt 1.000000 0.562500
vt 1.000000 0.625000
vt 0.937500 0.500000
vt 0.937500 0.562500
vt 0.875000 0.500000
vt 0.875000 0.625000
vt 0.812500 0.625000
vt 0.875000 0.687500
vt 0.875000 0.625000
vt 0.875000 0.562500
vt 0.937500 0.562500
vt 0.937500 0.562500
vt 1.000000 0.562500
vt 1.000000 0.625000
vt 0.937500 0.500000
vt 0.937500 0.562500
vt 0.875000 0.500000
vt 0.875000 0.625000
vt 0.812500 0.625000
vt 0.875000 0.687500
vn 0.0000 1.0000 0.0000
vn -0.9428 -0.3333 0.0000
vn 0.7071 0.0000 0.7071
vn -0.6325 -0.4472 0.6325
vn 0.0000 -0.3333 0.9428
vn 0.0000 -0.3333 -0.9428
vn 0.6325 -0.4472 -0.6325
vn -0.7071 0.0000 0.7071
vn 0.7071 0.0000 -0.7071
vn -0.6325 -0.4472 -0.6325
vn -0.7071 0.0000 -0.7071
vn 0.6325 -0.4472 0.6325
vn 0.9428 -0.3333 0.0000
vn -0.5000 0.7071 0.5000
vn -0.5000 0.7071 -0.5000
vn 0.5000 0.7071 -0.5000
vn 0.5000 0.7071 0.5000
vn 1.0000 0.0000 0.0000
vn 0.0000 0.0000 1.0000
vn -1.0000 0.0000 0.0000
vn 0.0000 0.0000 -1.0000
vn 0.0000 -1.0000 0.0000
vn 0.8165 0.5773 -0.0000
vn 0.0000 0.5774 -0.8165
vn -0.8165 0.5774 0.0000
vn 0.0000 0.5774 0.8165
vn 0.7071 -0.7071 0.0000
vn -0.7071 0.7071 0.0000
vn -0.9258 0.2182 0.3086
vn -0.8660 -0.4082 0.2887
vn -0.3086 0.2182 0.9258
vn -0.2887 -0.4082 0.8660
vn -0.9487 0.0000 0.3162
vn -0.3162 0.0000 0.9487
vn -0.5000 -0.7071 -0.5000
vn -0.6325 0.4472 -0.6325
vn 0.5000 -0.7071 0.5000
vn 0.6325 0.4472 0.6325
vn -0.7071 -0.7071 0.0000
vn 0.7071 0.7071 0.0000
vn 0.9258 0.2182 -0.3086
vn 0.8660 -0.4082 -0.2887
vn 0.3086 0.2182 -0.9258
vn 0.2887 -0.4082 -0.8660
vn 0.9487 0.0000 -0.3162
vn 0.3162 0.0000 -0.9487
vn 0.3086 0.2182 0.9258
vn 0.2887 -0.4082 0.8660
vn 0.9258 0.2182 0.3086
vn 0.8660 -0.4082 0.2887
vn 0.3162 0.0000 0.9487
vn 0.9487 0.0000 0.3162
vn -0.5000 -0.7071 0.5000
vn -0.6325 0.4472 0.6325
vn 0.5000 -0.7071 -0.5000
vn 0.6325 0.4472 -0.6325
vn -0.3086 0.2182 -0.9258
vn -0.2887 -0.4082 -0.8660
vn -0.9258 0.2182 -0.3086
vn -0.8660 -0.4082 -0.2887
vn -0.3162 0.0000 -0.9487
vn -0.9487 0.0000 -0.3162
vn 0.0000 -0.7071 0.7071
vn 0.0000 0.7071 0.7071
vn -0.0000 -0.7071 -0.7071
vn -0.0000 0.7071 -0.7071
usemtl CHALICE
s off
f 12/1/1 2/2/1 17/3/1
f 2/2/1 4/4/1 20/5/1 17/3/1
f 24/6/2 7/7/2 16/8/2
f 1/9/3 3/10/3 32/11/3 29/12/3
f 24/13/4 23/14/4 6/15/4 7/16/4
f 4/4/1 3/17/1 8/18/1 5/19/1
f 6/15/5 23/20/5 19/21/5
f 10/22/6 22/23/6 13/24/6
f 1/25/1 2/2/1 12/1/1 11/26/1
f 21/27/7 22/28/7 10/22/7 9/29/7
f 6/15/8 5/30/8 8/31/8 7/16/8
f 10/22/9 11/32/9 12/33/9 9/29/9
f 22/23/10 24/34/10 16/8/10 13/24/10
f 8/18/1 3/17/1 15/35/1
f 1/25/1 11/26/1 14/36/1
f 16/8/11 15/37/11 14/38/11 13/24/11
f 3/17/1 1/25/1 14/36/1 15/35/1
f 4/4/1 5/19/1 20/5/1
f 23/20/12 21/39/12 18/40/12 19/21/12
f 21/41/13 9/42/13 18/40/13
f 27/43/1 26/44/1 25/45/1 28/46/1
f 4/47/11 2/48/11 30/49/11 31/50/11
f 2/51/8 1/52/8 29/53/8 30/54/8
f 3/55/9 4/56/9 31/57/9 32/58/9
f 25/45/14 26/44/14 30/59/14 29/60/14
f 26/44/15 27/43/15 31/61/15 30/59/15
f 27/43/16 28/46/16 32/62/16 31/61/16
f 28/46/17 25/45/17 29/60/17 32/62/17
f 33/63/18 34/64/18 36/65/18 35/66/18
f 35/67/19 36/68/19 40/69/19 39/70/19
f 39/71/20 40/72/20 38/73/20 37/74/20
f 37/75/21 38/76/21 34/77/21 33/78/21
f 21/79/22 23/80/22 24/81/22 22/82/22
f 41/83/1 42/84/1 44/85/1 43/86/1
f 44/87/8 47/88/8 46/89/8 43/90/8
f 41/91/9 48/92/9 45/93/9 42/94/9
f 42/84/11 45/95/11 47/96/11 44/85/11
f 43/97/3 46/98/3 48/99/3 41/100/3
f 47/88/14 53/101/14 52/102/14 46/89/14
f 46/98/17 56/103/17 54/104/17 48/99/17
f 48/92/16 50/105/16 51/106/16 45/93/16
f 45/95/15 55/107/15 57/108/15 47/96/15
f 48/99/23 54/104/23 50/109/23
f 45/93/24 51/106/24 55/110/24
f 47/96/25 57/108/25 53/111/25
f 46/89/26 52/102/26 56/112/26
f 53/101/22 49/113/22 60/114/22 52/102/22
f 55/107/22 59/115/22 49/116/22 57/108/22
f 50/105/22 58/117/22 59/118/22 51/106/22
f 56/103/22 60/119/22 58/120/22 54/104/22
f 56/121/22 52/102/22 60/114/22
f 49/116/22 53/122/22 57/108/22
f 55/123/22 51/106/22 59/118/22
f 50/124/22 54/104/22 58/120/22
f 58/125/22 60/126/22 49/113/22 59/127/22
f 61/128/22 65/129/22 71/130/22 68/131/22
f 70/132/20 69/133/20 79/134/20 67/135/20
f 66/136/21 65/137/21 78/138/21 77/139/21
f 69/140/19 72/141/19 62/142/19 79/143/19
f 68/131/27 71/130/27 73/144/27 72/145/27
f 63/146/19 61/128/19 68/131/19 69/140/19
f 65/137/21 66/136/21 70/147/21 71/148/21
f 66/149/1 63/150/1 69/151/1 70/152/1
f 75/153/27 77/154/27 67/155/27 79/156/27
f 69/140/19 68/131/19 72/141/19
f 71/148/21 70/147/21 73/157/21
f 73/157/21 70/147/21 67/158/21 64/159/21
f 79/143/19 62/142/19 80/160/19 81/161/19
f 65/162/20 61/128/20 76/163/20 78/164/20
f 63/146/18 66/165/18 77/166/18 75/167/18
f 61/128/19 63/146/19 75/167/19 76/163/19
f 77/139/21 78/138/21 74/168/21 67/158/21
f 75/167/19 79/143/19 81/161/19 76/163/19
f 74/169/1 81/170/1 80/171/1 82/172/1
f 64/159/21 67/158/21 74/168/21 82/173/21
f 76/163/28 81/174/28 74/175/28 78/164/28
f 17/176/18 18/40/18 9/42/18 12/177/18
f 18/40/3 17/176/3 20/178/3 19/21/3
f 83/179/29 84/180/29 85/181/29
f 88/182/30 87/183/30 86/184/30
f 84/180/31 83/179/31 90/185/31
f 91/186/32 88/182/32 86/184/32
f 83/179/33 85/181/33 87/183/33 88/182/33
f 90/185/34 83/179/34 88/182/34 91/186/34
f 86/187/35 87/183/35 94/188/35 93/189/35
f 85/181/36 84/190/36 92/191/36 89/192/36
f 90/185/3 91/186/3 96/193/3 95/194/3
f 91/186/37 86/195/37 93/196/37 96/193/37
f 87/183/11 85/181/11 89/192/11 94/188/11
f 84/197/38 90/185/38 95/194/38 92/198/38
f 97/199/22 101/200/22 107/201/22 104/202/22
f 106/203/18 105/204/18 115/205/18 103/206/18
f 102/207/19 101/208/19 114/209/19 113/210/19
f 105/211/21 108/212/21 98/213/21 115/214/21
f 104/202/39 107/201/39 109/215/39 108/216/39
f 99/217/21 97/199/21 104/202/21 105/211/21
f 101/208/19 102/207/19 106/218/19 107/219/19
f 102/220/1 99/221/1 105/222/1 106/223/1
f 111/224/39 113/225/39 103/226/39 115/227/39
f 105/211/21 104/202/21 108/212/21
f 107/219/19 106/218/19 109/228/19
f 109/228/19 106/218/19 103/229/19 100/230/19
f 115/214/21 98/213/21 116/231/21 117/232/21
f 101/233/18 97/199/18 112/234/18 114/235/18
f 99/217/20 102/236/20 113/237/20 111/238/20
f 97/199/21 99/217/21 111/238/21 112/234/21
f 113/210/19 114/209/19 110/239/19 103/229/19
f 111/238/21 115/214/21 117/232/21 112/234/21
f 110/240/1 117/241/1 116/242/1 118/243/1
f 100/230/19 103/229/19 110/239/19 118/244/19
f 112/234/40 117/245/40 110/246/40 114/235/40
f 119/247/41 120/248/41 121/249/41
f 124/250/42 123/251/42 122/252/42
f 120/248/43 119/247/43 126/253/43
f 127/254/44 124/250/44 122/252/44
f 119/247/45 121/249/45 123/251/45 124/250/45
f 126/253/46 119/247/46 124/250/46 127/254/46
f 122/255/37 123/251/37 130/256/37 129/257/37
f 121/249/38 120/258/38 128/259/38 125/260/38
f 126/253/11 127/254/11 132/261/11 131/262/11
f 127/254/35 122/263/35 129/264/35 132/261/35
f 123/251/3 121/249/3 125/260/3 130/256/3
f 120/265/36 126/253/36 131/262/36 128/266/36
f 133/267/47 134/268/47 135/269/47
f 138/270/48 137/271/48 136/272/48
f 134/268/49 133/267/49 140/273/49
f 141/274/50 138/270/50 136/272/50
f 133/267/51 135/269/51 137/271/51 138/270/51
f 140/273/52 133/267/52 138/270/52 141/274/52
f 136/275/53 137/271/53 144/276/53 143/277/53
f 135/269/54 134/278/54 142/279/54 139/280/54
f 140/273/9 141/274/9 146/281/9 145/282/9
f 141/274/55 136/283/55 143/284/55 146/281/55
f 137/271/8 135/269/8 139/280/8 144/276/8
f 134/285/56 140/273/56 145/282/56 142/286/56
f 147/287/57 148/288/57 149/289/57
f 152/290/58 151/291/58 150/292/58
f 148/288/59 147/287/59 154/293/59
f 155/294/60 152/290/60 150/292/60
f 147/287/61 149/289/61 151/291/61 152/290/61
f 154/293/62 147/287/62 152/290/62 155/294/62
f 150/295/55 151/291/55 158/296/55 157/297/55
f 149/289/56 148/298/56 156/299/56 153/300/56
f 154/293/8 155/294/8 160/301/8 159/302/8
f 155/294/53 150/303/53 157/304/53 160/301/53
f 151/291/9 149/289/9 153/300/9 158/296/9
f 148/305/54 154/293/54 159/302/54 156/306/54
f 7/7/20 8/307/20 15/37/20 16/8/20
f 13/24/21 14/38/21 11/32/21 10/22/21
f 5/30/19 6/15/19 19/21/19 20/178/19
f 164/308/8 162/309/8 165/310/8
f 162/311/63 161/312/63 165/313/63
f 161/314/3 163/315/3 165/316/3
f 163/317/64 164/318/64 165/319/64
f 169/320/9 167/321/9 170/322/9
f 167/323/65 166/324/65 170/325/65
f 166/326/11 168/327/11 170/328/11
f 168/329/66 169/330/66 170/331/66
f 174/332/3 172/333/3 175/334/3
f 172/335/27 171/336/27 175/337/27
f 171/338/9 173/339/9 175/340/9
f 173/341/40 174/342/40 175/343/40
f 179/344/11 177/345/11 180/346/11
f 177/347/39 176/348/39 180/349/39
f 176/350/8 178/351/8 180/352/8
f 178/353/28 179/354/28 180/355/28
