# Blender v2.80 (sub 75) OBJ File: 'chem devices.blend'
# www.blender.org
mtllib circle_fabrication_circle.mtl
o CIRCLE_FABRICATION_CHALK_CIRCLE_Circle.001
v 0.500000 0.015625 -0.500000
v -0.142788 0.015625 -0.266044
v -0.484808 0.015625 0.326352
v -0.366025 0.015625 1.000000
v 0.157980 0.015625 1.439693
v 0.842020 0.015625 1.439692
v 1.366025 0.015625 1.000000
v 1.484808 0.015625 0.326352
v 1.142788 0.015625 -0.266044
v -0.100035 0.015625 -0.215094
v 0.500000 0.015625 -0.433489
v -0.419307 0.015625 0.337901
v -0.308425 0.015625 0.966744
v 0.180728 0.015625 1.377193
v 0.819272 0.015625 1.377192
v 1.308425 0.015625 0.966744
v 1.419307 0.015625 0.337901
v 1.100035 0.015625 -0.215094
v 0.149914 0.015625 0.297878
v 1.200172 0.015625 0.904244
v 0.500000 0.015625 -0.308489
v -0.200172 0.015625 0.904244
v 0.095787 0.015625 0.266628
v 0.850086 0.015625 0.297878
v 0.904213 0.015625 0.266628
v 0.781250 0.015625 0.341744
v 0.843750 0.015625 0.904244
v 0.781250 0.015625 0.904244
v 0.843750 0.015625 0.966744
v 0.843750 0.015625 0.279244
v 0.156250 0.015625 0.279244
v 0.156250 0.015625 0.966744
v 0.218750 0.015625 0.904244
v -0.200172 0.015625 0.966744
v 1.200172 0.015625 0.966744
v 0.156250 0.015625 0.904244
v 0.218750 0.015625 0.341744
v 0.445873 0.015625 -0.339739
v -0.254298 0.015625 0.872994
v 0.554127 0.015625 -0.339739
v 1.254299 0.015625 0.872994
v 0.499989 0.015946 0.342995
v 0.302005 0.014795 0.425012
v 0.220004 0.014130 0.623004
v 0.302021 0.014340 0.820991
v 0.500011 0.015304 0.902994
v 0.697995 0.016455 0.820977
v 0.779996 0.017120 0.622985
v 0.697979 0.016910 0.424998
v 0.349842 0.014995 0.472845
v 0.499991 0.015869 0.410644
v 0.287653 0.014491 0.623002
v 0.349854 0.014651 0.773154
v 0.500009 0.015381 0.835345
v 0.650158 0.016255 0.773144
v 0.712347 0.016759 0.622987
v 0.650146 0.016599 0.472835
vt 0.143513 0.875000
vt 0.035372 0.875000
vt 0.143513 0.937500
vt 0.694272 1.000000
vt 0.055728 1.000000
vt 0.032980 0.937500
vt 0.717020 0.937500
vt 0.944272 1.000000
vt 0.305728 1.000000
vt 0.282980 0.937500
vt 0.967020 0.937500
vt 0.819272 1.000000
vt 0.180728 1.000000
vt 0.157980 0.937500
vt 0.842020 0.937500
vt 0.694272 1.000000
vt 0.055728 1.000000
vt 0.032980 0.937500
vt 0.717020 0.937500
vt 0.944272 1.000000
vt 0.305728 1.000000
vt 0.282980 0.937500
vt 0.967020 0.937500
vt 0.819272 1.000000
vt 0.180728 1.000000
vt 0.157980 0.937500
vt 0.842020 0.937500
vt 0.694272 1.000000
vt 0.055728 1.000000
vt 0.032980 0.937500
vt 0.717020 0.937500
vt 0.944272 1.000000
vt 0.305728 1.000000
vt 0.282980 0.937500
vt 0.967020 0.937500
vt 0.819272 1.000000
vt 0.180728 1.000000
vt 0.157980 0.937500
vt 0.842020 0.937500
vt 0.035372 0.875000
vt 0.143513 0.875000
vt 0.143513 0.937500
vt 0.035372 0.875000
vt 0.143513 0.875000
vt 0.143513 0.937500
vt 0.143513 0.875000
vt 0.375000 0.937500
vt 0.312500 0.875000
vt 1.000000 0.875000
vt 0.937500 0.937500
vt 0.143513 0.875000
vt 0.143513 0.875000
vt 0.937500 0.875000
vt 0.312500 0.875000
vt 0.375000 0.937500
vt 0.375000 0.875000
vt 0.937500 0.937500
vt 1.000000 0.875000
vt 0.500000 0.875000
vt 0.500000 0.937500
vt 0.500000 0.875000
vt 0.500000 0.937500
vt 0.843750 0.875000
vt 0.843750 0.937500
vt 0.843750 0.875000
vt 0.843750 0.937500
vt 0.324924 0.875095
vt 0.487576 0.875095
vt 0.513424 0.812405
vt 0.299076 0.812405
vt 0.074924 0.875095
vt 0.237576 0.875095
vt 0.263424 0.812405
vt 0.049076 0.812405
vt 0.324924 0.875095
vt 0.487576 0.875095
vt 0.513424 0.812405
vt 0.299076 0.812405
vt 0.074924 0.875095
vt 0.237576 0.875095
vt 0.263424 0.812405
vt 0.049076 0.812405
vt 0.324924 0.875095
vt 0.487576 0.875095
vt 0.513424 0.812405
vt 0.299076 0.812405
vt 0.074924 0.875095
vt 0.237576 0.875095
vt 0.263424 0.812405
vt 0.049076 0.812405
vt 0.324924 0.875095
vt 0.487576 0.875095
vt 0.513424 0.812405
vt 0.299076 0.812405
vt 0.074924 0.875095
vt 0.237576 0.875095
vt 0.263424 0.812405
vt 0.049076 0.812405
vn 0.0000 1.0000 0.0000
vn -0.0053 1.0000 0.0011
usemtl CIRCLE_FABRICATION_BASIC
s off
f 39/1/1 13/2/1 22/3/1
f 10/4/1 11/5/1 1/6/1 2/7/1
f 12/8/1 10/9/1 2/10/1 3/11/1
f 13/12/1 12/13/1 3/14/1 4/15/1
f 14/16/1 13/17/1 4/18/1 5/19/1
f 15/20/1 14/21/1 5/22/1 6/23/1
f 16/24/1 15/25/1 6/26/1 7/27/1
f 17/28/1 16/29/1 7/30/1 8/31/1
f 18/32/1 17/33/1 8/34/1 9/35/1
f 11/36/1 18/37/1 9/38/1 1/39/1
f 16/40/1 41/41/1 20/42/1
f 11/43/1 38/44/1 21/45/1
f 40/46/1 11/43/1 21/45/1
f 33/47/1 32/48/1 29/49/1 28/50/1
f 13/2/1 34/51/1 22/3/1
f 35/52/1 16/40/1 20/42/1
f 29/49/1 27/53/1 28/50/1
f 27/53/1 30/54/1 26/55/1 28/50/1
f 36/56/1 33/47/1 37/57/1 31/58/1
f 32/48/1 33/47/1 36/56/1
f 34/51/1 32/59/1 36/60/1 22/3/1
f 29/61/1 35/52/1 20/42/1 27/62/1
f 30/54/1 31/58/1 37/57/1 26/55/1
f 38/44/1 23/63/1 19/64/1 21/45/1
f 39/1/1 22/3/1 19/64/1 23/63/1
f 41/41/1 25/65/1 24/66/1 20/42/1
f 40/46/1 21/45/1 24/66/1 25/65/1
f 50/67/2 51/68/2 42/69/2 43/70/2
f 52/71/2 50/72/2 43/73/2 44/74/2
f 53/75/2 52/76/2 44/77/2 45/78/2
f 54/79/2 53/80/2 45/81/2 46/82/2
f 55/83/2 54/84/2 46/85/2 47/86/2
f 56/87/2 55/88/2 47/89/2 48/90/2
f 57/91/2 56/92/2 48/93/2 49/94/2
f 51/95/2 57/96/2 49/97/2 42/98/2
