# Blender v2.80 (sub 75) OBJ File: 'chem devices.blend'
# www.blender.org
mtllib circle_power_body.mtl
o Cube.001_Cube.038
v 0.062500 0.375000 0.375000
v 0.375000 0.375000 0.062500
v 0.937500 0.375000 0.375000
v 0.062500 0.375000 0.625000
v 0.625000 0.375000 0.062500
v 0.250000 0.375000 -0.187500
v -0.187500 0.375000 0.250000
v 0.375000 0.375000 0.937500
v 0.000000 0.187500 -0.875000
v 0.000000 0.437500 -0.875000
v 0.937500 0.375000 0.625000
v 0.750000 0.375000 -0.187500
v 0.625000 0.375000 0.937500
v 0.250000 0.375000 1.187500
v -0.875000 0.187500 0.000000
v -0.875000 0.437500 0.000000
v -0.625000 0.187500 -0.250000
v -0.250000 0.187500 -0.625000
v -0.250000 0.437500 -0.625000
v -0.625000 0.187500 -0.625000
v -0.625000 0.437500 -0.625000
v 0.000000 0.125000 -0.937500
v 1.187500 0.375000 0.250000
v -0.250000 0.125000 -0.687500
v -0.687500 0.125000 -0.687500
v -0.687500 0.125000 -0.250000
v -0.187500 0.375000 0.750000
v -0.937500 0.125000 0.000000
v 0.000000 0.000000 -0.937500
v 0.000000 0.187500 1.875000
v -0.250000 0.000000 -0.687500
v -0.687500 0.000000 -0.687500
v -0.687500 0.000000 -0.250000
v 0.000000 0.437500 1.875000
v -0.937500 0.000000 0.000000
v -0.349112 0.625000 -0.437500
v -0.250000 0.562500 -0.250000
v -0.625000 0.437500 -0.250000
v -0.562500 0.562500 -0.250000
v -0.250000 0.562500 -0.562500
v -0.562500 0.500000 -0.250000
v -0.625000 0.562500 -0.625000
v -0.250000 0.562500 -0.625000
v -0.525888 0.625000 -0.437500
v -0.437500 0.625000 -0.525888
v -0.625000 0.562500 -0.250000
v -0.437500 0.625000 -0.349112
v 0.000000 0.500000 -0.812500
v -0.250000 0.500000 -0.562500
v -0.250000 0.500000 -0.250000
v 1.000000 0.187500 -0.875000
v 0.750000 0.375000 1.187500
v -0.812500 0.500000 0.000000
v -0.562500 0.625000 -0.312500
v -0.312500 0.625000 -0.312500
v -0.312500 0.625000 -0.562500
v -0.562500 0.625000 -0.562500
v -0.437500 0.687500 -0.349112
v -0.349112 0.687500 -0.437500
v -0.437500 0.687500 -0.525888
v -0.525888 0.687500 -0.437500
v -0.437500 0.750000 -0.437500
v -0.875000 0.187500 1.000000
v -0.312500 0.500000 0.187500
v 0.187500 0.500000 -0.312500
v 1.000000 0.437500 -0.875000
v 0.437500 0.500000 0.187500
v -0.875000 0.437500 1.000000
v 0.187500 0.500000 0.437500
v -0.625000 0.187500 1.250000
v -0.250000 0.187500 1.625000
v 1.875000 0.187500 0.000000
v 1.875000 0.437500 0.000000
v 1.625000 0.187500 -0.250000
v 1.250000 0.187500 -0.625000
v 1.250000 0.437500 -0.625000
v 1.625000 0.187500 -0.625000
v 1.625000 0.437500 -0.625000
v 1.000000 0.125000 -0.937500
v 1.250000 0.125000 -0.687500
v 1.687500 0.125000 -0.687500
v 1.687500 0.125000 -0.250000
v -0.250000 0.437500 1.625000
v 1.937500 0.125000 0.000000
v 1.000000 0.000000 -0.937500
v 1.250000 0.000000 -0.687500
v 1.687500 0.000000 -0.687500
v 1.687500 0.000000 -0.250000
v -0.625000 0.187500 1.625000
v 1.937500 0.000000 0.000000
v 1.349112 0.625000 -0.437500
v 1.250000 0.562500 -0.250000
v 1.625000 0.437500 -0.250000
v 1.562500 0.562500 -0.250000
v 1.250000 0.562500 -0.562500
v 1.562500 0.500000 -0.250000
v 1.625000 0.562500 -0.625000
v 1.250000 0.562500 -0.625000
v 1.525888 0.625000 -0.437500
v 1.437500 0.625000 -0.525888
v 1.625000 0.562500 -0.250000
v 1.437500 0.625000 -0.349112
v 1.000000 0.500000 -0.812500
v 1.250000 0.500000 -0.562500
v 1.250000 0.500000 -0.250000
v -0.625000 0.437500 1.625000
v 1.812500 0.500000 0.000000
v 1.562500 0.625000 -0.312500
v 1.312500 0.625000 -0.312500
v 1.312500 0.625000 -0.562500
v 1.562500 0.625000 -0.562500
v 1.437500 0.687500 -0.349112
v 1.349112 0.687500 -0.437500
v 1.437500 0.687500 -0.525888
v 1.525888 0.687500 -0.437500
v 1.437500 0.750000 -0.437500
v 0.000000 0.125000 1.937500
v 1.312500 0.500000 0.187500
v 0.812500 0.500000 -0.312500
v 0.562500 0.500000 0.187500
v 0.812500 0.500000 0.437500
v 1.187500 0.375000 0.750000
v 0.250000 0.500000 0.500000
v 0.500000 0.500000 0.750000
v 0.500000 0.500000 0.250000
v 0.750000 0.500000 0.500000
v -0.250000 0.125000 1.687500
v -0.687500 0.125000 1.687500
v -0.687500 0.125000 1.250000
v -0.937500 0.125000 1.000000
v 0.000000 0.000000 1.937500
v -0.250000 0.000000 1.687500
v -0.687500 0.000000 1.687500
v -0.687500 0.000000 1.250000
v -0.937500 0.000000 1.000000
v -0.349112 0.625000 1.437500
v -0.250000 0.562500 1.250000
v -0.625000 0.437500 1.250000
v -0.562500 0.562500 1.250000
v -0.250000 0.562500 1.562500
v -0.562500 0.500000 1.250000
v -0.625000 0.562500 1.625000
v -0.250000 0.562500 1.625000
v -0.525888 0.625000 1.437500
v -0.437500 0.625000 1.525888
v -0.625000 0.562500 1.250000
v -0.437500 0.625000 1.349112
v 0.000000 0.500000 1.812500
v -0.250000 0.500000 1.562500
v -0.250000 0.500000 1.250000
v 1.000000 0.187500 1.875000
v -0.812500 0.500000 1.000000
v -0.562500 0.625000 1.312500
v -0.312500 0.625000 1.312500
v -0.312500 0.625000 1.562500
v -0.562500 0.625000 1.562500
v -0.437500 0.687500 1.349112
v -0.349112 0.687500 1.437500
v -0.437500 0.687500 1.525888
v -0.525888 0.687500 1.437500
v -0.437500 0.750000 1.437500
v -0.312500 0.500000 0.812500
v 0.187500 0.500000 1.312500
v 1.000000 0.437500 1.875000
v 0.437500 0.500000 0.812500
v 0.187500 0.500000 0.562500
v 1.875000 0.187500 1.000000
v 1.875000 0.437500 1.000000
v 1.625000 0.187500 1.250000
v 1.250000 0.187500 1.625000
v 1.250000 0.437500 1.625000
v 1.625000 0.187500 1.625000
v 1.625000 0.437500 1.625000
v 1.000000 0.125000 1.937500
v 1.250000 0.125000 1.687500
v 1.687500 0.125000 1.687500
v 1.687500 0.125000 1.250000
v 1.937500 0.125000 1.000000
v 1.000000 0.000000 1.937500
v 1.250000 0.000000 1.687500
v 1.687500 0.000000 1.687500
v 1.687500 0.000000 1.250000
v 1.937500 0.000000 1.000000
v 1.349112 0.625000 1.437500
v 1.250000 0.562500 1.250000
v 1.625000 0.437500 1.250000
v 1.562500 0.562500 1.250000
v 1.250000 0.562500 1.562500
v 1.562500 0.500000 1.250000
v 1.625000 0.562500 1.625000
v 1.250000 0.562500 1.625000
v 1.525888 0.625000 1.437500
v 1.437500 0.625000 1.525888
v 1.625000 0.562500 1.250000
v 1.437500 0.625000 1.349112
v 1.000000 0.500000 1.812500
v 1.250000 0.500000 1.562500
v 1.250000 0.500000 1.250000
v 1.812500 0.500000 1.000000
v 1.562500 0.625000 1.312500
v 1.312500 0.625000 1.312500
v 1.312500 0.625000 1.562500
v 1.562500 0.625000 1.562500
v 1.437500 0.687500 1.349112
v 1.349112 0.687500 1.437500
v 1.437500 0.687500 1.525888
v 1.525888 0.687500 1.437500
v 1.437500 0.750000 1.437500
v 1.312500 0.500000 0.812500
v 0.812500 0.500000 1.312500
v 0.562500 0.500000 0.812500
v 0.812500 0.500000 0.562500
v -0.250000 0.000000 -0.250000
v -0.250000 0.000000 1.250000
v 1.250000 0.000000 -0.250000
v 1.250000 0.000000 1.250000
vn -0.7071 0.0000 -0.7071
vn -0.7071 0.7071 0.0000
vn 0.4851 0.7276 0.4851
vn 0.0000 1.0000 0.0000
vn 0.0000 0.0000 1.0000
vn 0.0000 0.7071 -0.7071
vn 0.7071 0.7071 0.0000
vn 0.0000 0.0000 -1.0000
vn -1.0000 0.0000 0.0000
vn -0.4851 0.7276 0.4851
vn -0.5774 0.5774 -0.5774
vn 0.0000 0.7071 0.7071
vn 1.0000 0.0000 0.0000
vn -0.5000 0.7071 -0.5000
vn -0.7071 0.0000 0.7071
vn 0.7071 0.0000 0.7071
vn 0.7071 0.0000 -0.7071
vn -0.5000 0.7071 0.5000
vn 0.5000 0.7071 0.5000
vn 0.5000 0.7071 -0.5000
vn -0.4851 0.7276 -0.4851
vn -0.5774 0.5774 0.5774
vn 0.5774 0.5774 -0.5774
vn 0.4851 0.7276 -0.4851
vn 0.5774 0.5774 0.5774
vn 0.0000 -1.0000 0.0000
usemtl None
s off
f 15//1 16//1 38//1 17//1
f 28//2 130//2 63//2 15//2
f 6//3 65//3 64//3 7//3
f 2//4 5//4 12//4 6//4
f 83//5 106//5 89//5 71//5
f 67//6 120//6 5//6 2//6
f 72//7 167//7 178//7 84//7
f 10//1 9//1 18//1 19//1
f 19//8 18//8 20//8 21//8
f 17//9 38//9 21//9 20//9
f 12//10 23//10 118//10 119//10
f 20//6 18//6 24//6 25//6
f 17//2 20//2 25//2 26//2
f 18//11 9//11 22//11 24//11
f 162//7 27//7 7//7 64//7
f 15//11 17//11 26//11 28//11
f 68//2 152//2 53//2 16//2
f 26//9 25//9 32//9 33//9
f 25//8 24//8 31//8 32//8
f 28//1 26//1 33//1 35//1
f 24//1 22//1 29//1 31//1
f 19//8 21//8 42//8 43//8
f 54//12 39//12 37//12 55//12
f 40//7 56//7 55//7 37//7
f 21//9 38//9 46//9 42//9
f 43//6 42//6 57//6 56//6
f 57//2 42//2 46//2 54//2
f 40//7 43//7 56//7
f 46//12 39//12 54//12
f 49//13 40//13 37//13 50//13
f 46//5 38//5 41//5 39//5
f 60//14 61//14 62//14
f 19//13 43//13 40//13 49//13
f 37//5 39//5 41//5 50//5
f 51//8 9//8 10//8 66//8
f 10//11 19//11 49//11 48//11
f 16//11 53//11 41//11 38//11
f 41//4 53//4 64//4 50//4
f 79//8 85//8 29//8 22//8
f 34//15 83//15 71//15 30//15
f 55//4 56//4 57//4 54//4
f 44//15 47//15 58//15 61//15
f 47//16 36//16 59//16 58//16
f 45//1 44//1 61//1 60//1
f 36//17 45//17 60//17 59//17
f 61//18 58//18 62//18
f 58//19 59//19 62//19
f 59//20 60//20 62//20
f 50//4 65//4 48//4 49//4
f 64//4 65//4 50//4
f 63//15 70//15 138//15 68//15
f 7//4 1//4 2//4 6//4
f 70//9 89//9 106//9 138//9
f 1//21 69//21 67//21 2//21
f 66//17 76//17 75//17 51//17
f 48//6 103//6 66//6 10//6
f 63//22 130//22 129//22 70//22
f 51//6 79//6 22//6 9//6
f 6//12 12//12 119//12 65//12
f 72//17 74//17 93//17 73//17
f 76//8 78//8 77//8 75//8
f 74//13 77//13 78//13 93//13
f 77//6 81//6 80//6 75//6
f 74//7 82//7 81//7 77//7
f 75//23 80//23 79//23 51//23
f 122//4 23//4 3//4 11//4
f 72//23 84//23 82//23 74//23
f 209//2 118//2 23//2 122//2
f 82//13 88//13 87//13 81//13
f 81//8 87//8 86//8 80//8
f 84//17 90//17 88//17 82//17
f 80//17 86//17 85//17 79//17
f 76//8 98//8 97//8 78//8
f 108//12 109//12 92//12 94//12
f 95//2 92//2 109//2 110//2
f 78//13 97//13 101//13 93//13
f 98//6 110//6 111//6 97//6
f 111//7 108//7 101//7 97//7
f 95//2 110//2 98//2
f 101//12 108//12 94//12
f 104//9 105//9 92//9 95//9
f 101//5 94//5 96//5 93//5
f 114//20 116//20 115//20
f 76//9 104//9 95//9 98//9
f 92//5 105//5 96//5 94//5
f 66//23 103//23 104//23 76//23
f 71//22 127//22 117//22 30//22
f 73//23 93//23 96//23 107//23
f 96//4 105//4 118//4 107//4
f 69//4 166//4 123//4
f 109//4 108//4 111//4 110//4
f 99//16 115//16 112//16 102//16
f 102//15 112//15 113//15 91//15
f 100//17 114//17 115//17 99//17
f 91//1 113//1 114//1 100//1
f 115//19 116//19 112//19
f 112//18 116//18 113//18
f 113//14 116//14 114//14
f 105//4 104//4 103//4 119//4
f 118//4 105//4 119//4
f 8//4 14//4 52//4 13//4
f 23//4 12//4 5//4 3//4
f 211//4 212//4 126//4 124//4
f 3//24 5//24 120//24 121//24
f 65//4 119//4 103//4 48//4
f 84//13 178//13 183//13 90//13
f 70//2 129//2 128//2 89//2
f 168//7 73//7 107//7 199//7
f 35//9 135//9 130//9 28//9
f 73//13 168//13 167//13 72//13
f 52//21 210//21 209//21 122//21
f 89//12 128//12 127//12 71//12
f 165//12 8//12 13//12 211//12
f 15//9 63//9 68//9 16//9
f 67//4 69//4 123//4 125//4
f 14//24 27//24 162//24 163//24
f 27//4 4//4 1//4 7//4
f 4//2 166//2 69//2 1//2
f 212//4 121//4 126//4
f 11//7 3//7 121//7 212//7
f 152//4 162//4 64//4 53//4
f 129//9 134//9 133//9 128//9
f 128//5 133//5 132//5 127//5
f 130//15 135//15 134//15 129//15
f 127//15 132//15 131//15 117//15
f 83//5 143//5 142//5 106//5
f 153//6 154//6 137//6 139//6
f 140//7 137//7 154//7 155//7
f 106//9 142//9 146//9 138//9
f 143//12 155//12 156//12 142//12
f 156//2 153//2 146//2 142//2
f 140//7 155//7 143//7
f 146//6 153//6 139//6
f 149//13 150//13 137//13 140//13
f 146//8 139//8 141//8 138//8
f 159//18 161//18 160//18
f 83//13 149//13 140//13 143//13
f 137//8 150//8 141//8 139//8
f 151//5 164//5 34//5 30//5
f 34//22 148//22 149//22 83//22
f 68//22 138//22 141//22 152//22
f 141//4 150//4 162//4 152//4
f 174//5 117//5 131//5 179//5
f 154//4 153//4 156//4 155//4
f 144//1 160//1 157//1 147//1
f 147//17 157//17 158//17 136//17
f 145//15 159//15 160//15 144//15
f 136//16 158//16 159//16 145//16
f 160//14 161//14 157//14
f 157//20 161//20 158//20
f 158//19 161//19 159//19
f 150//4 149//4 148//4 163//4
f 162//4 150//4 163//4
f 27//4 14//4 8//4 4//4
f 4//10 8//10 165//10 166//10
f 164//16 151//16 170//16 171//16
f 148//12 34//12 164//12 196//12
f 151//12 30//12 117//12 174//12
f 14//6 163//6 210//6 52//6
f 167//16 168//16 186//16 169//16
f 171//5 170//5 172//5 173//5
f 169//13 186//13 173//13 172//13
f 172//12 170//12 175//12 176//12
f 169//7 172//7 176//7 177//7
f 170//25 151//25 174//25 175//25
f 167//25 169//25 177//25 178//25
f 177//13 176//13 181//13 182//13
f 176//5 175//5 180//5 181//5
f 178//16 177//16 182//16 183//16
f 175//16 174//16 179//16 180//16
f 171//5 173//5 190//5 191//5
f 200//6 187//6 185//6 201//6
f 188//2 202//2 201//2 185//2
f 173//13 186//13 194//13 190//13
f 191//12 190//12 203//12 202//12
f 203//7 190//7 194//7 200//7
f 188//2 191//2 202//2
f 194//6 187//6 200//6
f 197//9 188//9 185//9 198//9
f 194//8 186//8 189//8 187//8
f 206//19 207//19 208//19
f 171//9 191//9 188//9 197//9
f 185//8 187//8 189//8 198//8
f 164//25 171//25 197//25 196//25
f 168//25 199//25 189//25 186//25
f 189//4 199//4 209//4 198//4
f 201//4 202//4 203//4 200//4
f 192//17 195//17 204//17 207//17
f 195//1 184//1 205//1 204//1
f 193//16 192//16 207//16 206//16
f 184//15 193//15 206//15 205//15
f 207//20 204//20 208//20
f 204//14 205//14 208//14
f 205//18 206//18 208//18
f 198//4 210//4 196//4 197//4
f 209//4 210//4 198//4
f 122//4 11//4 13//4 52//4
f 11//3 212//3 211//3 13//3
f 163//4 148//4 196//4 210//4
f 124//4 126//4 125//4 123//4
f 124//4 123//4 166//4 165//4
f 165//4 211//4 124//4
f 125//4 126//4 121//4 120//4
f 120//4 67//4 125//4
f 199//4 107//4 118//4 209//4
f 35//26 33//26 134//26 135//26
f 31//26 29//26 85//26 86//26
f 90//26 183//26 182//26 88//26
f 132//26 180//26 179//26 131//26
f 134//26 33//26 213//26 214//26
f 88//26 182//26 216//26 215//26
f 87//26 88//26 215//26 86//26
f 180//26 216//26 182//26 181//26
f 134//26 214//26 132//26 133//26
f 31//26 213//26 33//26 32//26
f 31//26 86//26 215//26 213//26
f 214//26 213//26 215//26 216//26
f 180//26 132//26 214//26 216//26
