# Blender v2.80 (sub 75) OBJ File: 'chem devices.blend'
# www.blender.org
mtllib circle_toil_handle.mtl
o CIRCLE_TOIL_COG_Cube.043
v 0.031250 0.794375 -0.031250
v -0.031250 0.794375 -0.031250
v 0.031250 0.825625 -0.031250
v -0.031250 0.794375 -0.343750
v 0.031250 0.794375 -0.343750
v -0.031250 0.825625 -0.343750
v 0.031250 0.825625 -0.343750
v -0.031250 0.825625 0.343750
v 0.031250 0.825625 0.343750
v -0.031250 0.794375 0.343750
v 0.031250 0.794375 0.343750
v 0.031250 0.825625 0.031250
v 0.031250 0.794375 0.031250
v -0.031250 0.794375 0.031250
v -0.343750 0.825625 -0.031250
v -0.343750 0.825625 0.031250
v -0.343750 0.794375 -0.031250
v -0.343750 0.794375 0.031250
v -0.031250 0.825625 0.031250
v -0.031250 0.825625 -0.031250
v 0.343750 0.825625 0.031250
v 0.343750 0.825625 -0.031250
v 0.343750 0.794375 0.031250
v 0.343750 0.794375 -0.031250
v -0.305294 0.781250 0.060727
v -0.305294 0.843750 0.060727
v -0.305294 0.781250 -0.060727
v -0.305294 0.843750 -0.060727
v -0.258816 0.781250 -0.172935
v -0.258816 0.843750 -0.172935
v -0.172935 0.781250 -0.258816
v -0.172935 0.843750 -0.258816
v -0.060727 0.781250 -0.305294
v -0.060727 0.843750 -0.305294
v 0.060727 0.781250 -0.305294
v 0.060727 0.843750 -0.305294
v 0.172935 0.781250 -0.258816
v 0.172935 0.843750 -0.258816
v 0.258816 0.781250 -0.172935
v 0.258816 0.843750 -0.172935
v 0.305294 0.781250 -0.060727
v 0.305294 0.843750 -0.060727
v 0.305294 0.781250 0.060727
v 0.305294 0.843750 0.060727
v 0.258816 0.781250 0.172935
v 0.258816 0.843750 0.172935
v 0.172935 0.781250 0.258816
v 0.172935 0.843750 0.258816
v 0.060727 0.781250 0.305294
v 0.060727 0.843750 0.305294
v -0.060727 0.781250 0.305294
v -0.060727 0.843750 0.305294
v -0.172935 0.781250 0.258816
v -0.172936 0.843750 0.258816
v -0.258816 0.781250 0.172935
v -0.258816 0.843750 0.172935
v -0.430294 0.781250 0.073159
v -0.430294 0.843750 0.073159
v -0.430294 0.843750 -0.073159
v -0.430294 0.781250 -0.073159
v -0.355995 0.781250 -0.252533
v -0.355995 0.843750 -0.252533
v -0.252533 0.843750 -0.355995
v -0.252533 0.781250 -0.355995
v -0.073159 0.781250 -0.430294
v -0.073159 0.843750 -0.430294
v 0.073159 0.843750 -0.430294
v 0.073159 0.781250 -0.430294
v 0.252533 0.781250 -0.355995
v 0.252533 0.843750 -0.355995
v 0.355995 0.843750 -0.252533
v 0.355995 0.781250 -0.252533
v 0.430294 0.781250 -0.073159
v 0.430294 0.843750 -0.073159
v 0.430294 0.843750 0.073159
v 0.430295 0.781250 0.073159
v 0.355995 0.781250 0.252533
v 0.355995 0.843750 0.252533
v 0.252533 0.843750 0.355995
v 0.252533 0.781250 0.355995
v 0.073159 0.781250 0.430294
v 0.073159 0.843750 0.430294
v -0.073159 0.843750 0.430294
v -0.073159 0.781250 0.430294
v -0.252533 0.781250 0.355995
v -0.252533 0.843750 0.355995
v -0.355995 0.843750 0.252533
v -0.355995 0.781250 0.252533
v -0.367794 0.781250 0.073159
v -0.367794 0.781250 -0.073159
v -0.367794 0.843750 -0.073159
v -0.367794 0.843750 0.073159
v -0.311801 0.781250 -0.208339
v -0.311801 0.843750 -0.208339
v -0.208339 0.781250 -0.311801
v -0.208339 0.843750 -0.311801
v -0.073159 0.781250 -0.367794
v -0.073159 0.843750 -0.367794
v 0.073159 0.781250 -0.367794
v 0.073159 0.843750 -0.367794
v 0.208339 0.781250 -0.311801
v 0.208339 0.843750 -0.311801
v 0.311801 0.781250 -0.208339
v 0.311801 0.843750 -0.208339
v 0.367794 0.781250 -0.073159
v 0.367794 0.843750 -0.073159
v 0.367795 0.781250 0.073159
v 0.367794 0.843750 0.073159
v 0.311801 0.781250 0.208339
v 0.311801 0.843750 0.208339
v 0.208339 0.781250 0.311801
v 0.208339 0.843750 0.311801
v 0.073159 0.781250 0.367794
v 0.073159 0.843750 0.367794
v -0.073159 0.781250 0.367794
v -0.073159 0.843750 0.367794
v -0.208339 0.781250 0.311801
v -0.208339 0.843750 0.311801
v -0.311801 0.781250 0.208339
v -0.311801 0.843750 0.208339
v 0.000000 0.625000 0.044194
v 0.000000 0.937500 0.044194
v -0.044194 0.625000 0.000000
v -0.044194 0.937500 -0.000000
v 0.044194 0.625000 0.000000
v 0.044194 0.937500 -0.000000
v 0.000000 0.625000 -0.044194
v 0.000000 0.937500 -0.044194
v 0.000000 1.000000 0.044194
v -0.044194 1.000000 0.000000
v 0.000000 1.000000 -0.044194
v 0.044194 1.000000 0.000000
v 0.000000 1.062500 0.044194
v -0.044194 1.062500 0.000000
v 0.000000 1.062500 -0.044194
v 0.044194 1.062500 0.000000
v 0.000000 1.187500 -0.000000
v 0.088388 0.968750 0.000000
v 0.000000 0.968750 0.088388
v -0.088388 0.968750 0.000000
v 0.000000 0.968750 -0.088388
v -0.805294 0.781250 0.031250
v -0.805294 0.843750 0.031250
v -0.805294 0.781250 -0.031250
v -0.805294 0.843750 -0.031250
v -0.555294 0.781250 0.031250
v -0.555294 0.843750 0.031250
v -0.555294 0.781250 -0.031250
v -0.555294 0.843750 -0.031250
v -2.055295 0.781250 0.031250
v -2.055295 0.843750 0.031250
v -2.055295 0.781250 -0.031250
v -2.055295 0.843750 -0.031250
v -1.805295 0.781250 0.031250
v -1.805295 0.843750 0.031250
v -1.805295 0.781250 -0.031250
v -1.805295 0.843750 -0.031250
v -2.055295 0.790403 0.000000
v -0.555294 0.812500 -0.022097
v -0.555294 0.812500 0.022097
v -0.555294 0.790403 0.000000
v -0.555294 0.834597 0.000000
v -0.430294 0.812500 0.022097
v -0.430294 0.790403 0.000000
v -0.430294 0.834597 0.000000
v -0.430294 0.812500 -0.022097
v -2.055295 0.812500 0.022097
v -2.055295 0.812500 -0.022097
v -2.055295 0.834597 0.000000
v -2.180295 0.834597 0.000000
v -2.180295 0.812500 -0.022097
v -2.180295 0.812500 0.022097
v -2.180295 0.790403 0.000000
v -2.242795 0.812500 0.000000
vt 0.437500 0.062500
vt 0.437500 0.125000
vt 0.125000 0.125000
vt 0.125000 0.062500
vt 0.437500 0.062500
vt 0.437500 0.125000
vt 0.125000 0.125000
vt 0.125000 0.062500
vt 0.500000 -0.000000
vt 0.500000 0.062500
vt 0.187500 0.062500
vt 0.187500 -0.000000
vt 0.500000 0.062500
vt 0.500000 -0.000000
vt 0.187500 -0.000000
vt 0.187500 0.062500
vt 0.437500 0.125000
vt 0.437500 0.062500
vt 0.125000 0.062500
vt 0.125000 0.125000
vt 0.187500 0.062500
vt 0.187500 -0.000000
vt 0.500000 0.062500
vt 0.500000 -0.000000
vt 0.187500 -0.000000
vt 0.187500 0.062500
vt 0.437500 0.125000
vt 0.437500 0.062500
vt 0.125000 0.062500
vt 0.125000 0.125000
vt 0.437500 0.125000
vt 0.437500 0.062500
vt 0.125000 0.062500
vt 0.125000 0.125000
vt 0.500000 0.062500
vt 0.500000 -0.000000
vt 0.187500 -0.000000
vt 0.187500 0.062500
vt 0.187500 0.062500
vt 0.187500 -0.000000
vt 0.437500 0.062500
vt 0.437500 0.125000
vt 0.125000 0.125000
vt 0.125000 0.062500
vt 0.437500 0.125000
vt 0.437500 0.062500
vt 0.125000 0.062500
vt 0.125000 0.125000
vt 0.187500 -0.000000
vt 0.187500 0.062500
vt 0.187500 0.062500
vt 0.187500 -0.000000
vt 0.500000 0.125000
vt 0.500000 0.062500
vt 0.500000 0.125000
vt 0.437500 0.062500
vt 0.437500 0.125000
vt 0.125000 0.125000
vt 0.125000 0.062500
vt 0.354819 0.000000
vt 0.354819 0.062500
vt 0.207681 0.062500
vt 0.207681 0.000000
vt 0.354819 0.000000
vt 0.354819 0.062500
vt 0.207681 0.062500
vt 0.207681 0.000000
vt 0.354819 0.000000
vt 0.354819 0.062500
vt 0.207681 0.062500
vt 0.207681 0.000000
vt 0.354819 0.000000
vt 0.354819 0.062500
vt 0.207681 0.062500
vt 0.207681 0.000000
vt 0.354819 0.000000
vt 0.354819 0.062500
vt 0.207681 0.062500
vt 0.207681 0.000000
vt 0.354819 0.000000
vt 0.354819 0.062500
vt 0.207681 0.062500
vt 0.207681 0.000000
vt 0.354819 0.000000
vt 0.354819 0.062500
vt 0.207681 0.062500
vt 0.207681 0.000000
vt 0.529424 0.187500
vt 0.529424 0.250000
vt 0.408076 0.250000
vt 0.408076 0.187500
vt 0.354819 0.000000
vt 0.354819 0.062500
vt 0.207681 0.062500
vt 0.207681 0.000000
vt 0.341924 0.187500
vt 0.341924 0.250000
vt 0.220576 0.250000
vt 0.220576 0.187500
vt 0.167319 0.000000
vt 0.167319 0.062500
vt 0.020181 0.062500
vt 0.020181 0.000000
vt 0.187500 0.125000
vt 0.125000 0.125000
vt 0.125000 0.062500
vt 0.187500 0.062500
vt 0.020181 0.125000
vt 0.167319 0.125000
vt 0.125000 0.062500
vt 0.187500 0.062500
vt 0.187500 0.125000
vt 0.125000 0.125000
vt 0.020181 0.125000
vt 0.020181 0.062500
vt 0.167319 0.062500
vt 0.167319 0.125000
vt 0.542319 0.000000
vt 0.542319 0.062500
vt 0.395181 0.062500
vt 0.395181 0.000000
vt 0.562500 0.125000
vt 0.500000 0.125000
vt 0.500000 0.062500
vt 0.562500 0.062500
vt 0.395181 0.125000
vt 0.542319 0.125000
vt 0.500000 0.062500
vt 0.562500 0.062500
vt 0.562500 0.125000
vt 0.500000 0.125000
vt 0.395181 0.125000
vt 0.395181 0.062500
vt 0.542319 0.062500
vt 0.542319 0.125000
vt 0.167319 0.000000
vt 0.167319 0.062500
vt 0.020181 0.062500
vt 0.020181 0.000000
vt 0.187500 0.125000
vt 0.125000 0.125000
vt 0.125000 0.062500
vt 0.187500 0.062500
vt 0.020181 0.125000
vt 0.167319 0.125000
vt 0.125000 0.062500
vt 0.187500 0.062500
vt 0.187500 0.125000
vt 0.125000 0.125000
vt 0.020181 0.125000
vt 0.020181 0.062500
vt 0.167319 0.062500
vt 0.167319 0.125000
vt 0.542319 0.000000
vt 0.542319 0.062500
vt 0.395181 0.062500
vt 0.395181 0.000000
vt 0.562500 0.125000
vt 0.500000 0.125000
vt 0.500000 0.062500
vt 0.562500 0.062500
vt 0.395181 0.125000
vt 0.542319 0.125000
vt 0.500000 0.062500
vt 0.562500 0.062500
vt 0.562500 0.125000
vt 0.500000 0.125000
vt 0.395181 0.125000
vt 0.395181 0.062500
vt 0.542319 0.062500
vt 0.542319 0.125000
vt 0.167319 0.000000
vt 0.167319 0.062500
vt 0.020181 0.062500
vt 0.020181 0.000000
vt 0.020181 0.125000
vt 0.167319 0.125000
vt 0.020181 0.125000
vt 0.020181 0.062500
vt 0.167319 0.062500
vt 0.167319 0.125000
vt 0.542319 0.000000
vt 0.542319 0.062500
vt 0.395181 0.062500
vt 0.395181 0.000000
vt 0.562500 0.125000
vt 0.500000 0.125000
vt 0.500000 0.062500
vt 0.562500 0.062500
vt 0.395181 0.125000
vt 0.542319 0.125000
vt 0.500000 0.062500
vt 0.562500 0.062500
vt 0.562500 0.125000
vt 0.500000 0.125000
vt 0.395181 0.125000
vt 0.395181 0.062500
vt 0.542319 0.062500
vt 0.542319 0.125000
vt 0.167319 0.000000
vt 0.167319 0.062500
vt 0.020181 0.062500
vt 0.020181 0.000000
vt 0.187500 0.125000
vt 0.125000 0.125000
vt 0.125000 0.062500
vt 0.187500 0.062500
vt 0.020181 0.125000
vt 0.167319 0.125000
vt 0.125000 0.062500
vt 0.187500 0.062500
vt 0.187500 0.125000
vt 0.125000 0.125000
vt 0.020181 0.125000
vt 0.020181 0.062500
vt 0.167319 0.062500
vt 0.167319 0.125000
vt 0.542319 0.000000
vt 0.542319 0.062500
vt 0.395181 0.062500
vt 0.395181 0.000000
vt 0.562500 0.125000
vt 0.500000 0.125000
vt 0.500000 0.062500
vt 0.562500 0.062500
vt 0.395181 0.125000
vt 0.542319 0.125000
vt 0.500000 0.062500
vt 0.562500 0.062500
vt 0.562500 0.125000
vt 0.500000 0.125000
vt 0.395181 0.125000
vt 0.395181 0.062500
vt 0.542319 0.062500
vt 0.542319 0.125000
vt 0.154424 0.187500
vt 0.033076 0.187500
vt 0.154424 0.187500
vt 0.033076 0.187500
vt 0.341924 0.187500
vt 0.220576 0.187500
vt 0.207681 0.125000
vt 0.354819 0.125000
vt 0.341924 0.187500
vt 0.220576 0.187500
vt 0.207681 0.125000
vt 0.354819 0.125000
vt 0.529424 0.187500
vt 0.408076 0.187500
vt 0.529424 0.187500
vt 0.408076 0.187500
vt 0.341924 0.187500
vt 0.220576 0.187500
vt 0.207681 0.125000
vt 0.354819 0.125000
vt 0.341924 0.187500
vt 0.220576 0.187500
vt 0.207681 0.125000
vt 0.354819 0.125000
vt 0.154424 0.187500
vt 0.033076 0.187500
vt 0.154424 0.187500
vt 0.033076 0.187500
vt 0.341924 0.187500
vt 0.220576 0.187500
vt 0.207681 0.125000
vt 0.354819 0.125000
vt 0.341924 0.187500
vt 0.220576 0.187500
vt 0.207681 0.125000
vt 0.354819 0.125000
vt 0.529424 0.187500
vt 0.408076 0.187500
vt 0.529424 0.187500
vt 0.408076 0.187500
vt 0.341924 0.187500
vt 0.220576 0.187500
vt 0.207681 0.125000
vt 0.354819 0.125000
vt 0.341924 0.187500
vt 0.220576 0.187500
vt 0.207681 0.125000
vt 0.354819 0.125000
vt 0.154424 0.187500
vt 0.033076 0.187500
vt 0.154424 0.187500
vt 0.033076 0.187500
vt 0.341924 0.187500
vt 0.220576 0.187500
vt 0.207681 0.125000
vt 0.354819 0.125000
vt 0.341924 0.187500
vt 0.220576 0.187500
vt 0.207681 0.125000
vt 0.354819 0.125000
vt 0.529424 0.187500
vt 0.408076 0.187500
vt 0.529424 0.187500
vt 0.408076 0.187500
vt 0.341924 0.187500
vt 0.220576 0.187500
vt 0.207681 0.125000
vt 0.354819 0.125000
vt 0.341924 0.187500
vt 0.220576 0.187500
vt 0.207681 0.125000
vt 0.354819 0.125000
vt 0.154424 0.187500
vt 0.033076 0.187500
vt 0.154424 0.187500
vt 0.033076 0.187500
vt 0.341924 0.187500
vt 0.220576 0.187500
vt 0.207681 0.125000
vt 0.354819 0.125000
vt 0.341924 0.187500
vt 0.220576 0.187500
vt 0.207681 0.125000
vt 0.354819 0.125000
vt 0.529424 0.187500
vt 0.408076 0.187500
vt 0.207681 0.125000
vt 0.354819 0.125000
vt 0.341924 0.187500
vt 0.220576 0.187500
vt 0.207681 0.125000
vt 0.354819 0.125000
vt 0.341924 0.250000
vt 0.220576 0.250000
vt 0.154424 0.250000
vt 0.033076 0.250000
vt 0.341924 0.250000
vt 0.220576 0.250000
vt 0.529424 0.250000
vt 0.408076 0.250000
vt 0.341924 0.250000
vt 0.220576 0.250000
vt 0.154424 0.250000
vt 0.033076 0.250000
vt 0.341924 0.250000
vt 0.220576 0.250000
vt 0.529424 0.250000
vt 0.408076 0.250000
vt 0.341924 0.250000
vt 0.220576 0.250000
vt 0.154424 0.250000
vt 0.033076 0.250000
vt 0.341924 0.250000
vt 0.220576 0.250000
vt 0.529424 0.250000
vt 0.408076 0.250000
vt 0.341924 0.250000
vt 0.220576 0.250000
vt 0.154424 0.250000
vt 0.033076 0.250000
vt 0.125000 0.125000
vt 0.187500 0.125000
vt 0.187500 0.062500
vt 0.125000 0.062500
vt 0.125000 0.125000
vt 0.187500 0.125000
vt 0.187500 0.062500
vt 0.125000 0.062500
vt 0.937500 -0.000000
vt 0.937500 0.312500
vt 0.875000 0.312500
vt 0.875000 -0.000000
vt 1.000000 -0.000000
vt 1.000000 0.312500
vt 0.937500 0.312500
vt 0.937500 -0.000000
vt 0.875000 0.312500
vt 0.875000 -0.000000
vt 1.000000 -0.000000
vt 1.000000 0.312500
vt 1.000000 0.375000
vt 0.937500 0.375000
vt 1.000000 0.437500
vt 0.937500 0.437500
vt 0.937500 0.375000
vt 1.000000 0.375000
vt 0.875000 0.375000
vt 1.000000 0.437500
vt 0.937500 0.437500
vt 0.875000 0.437500
vt 0.875000 0.375000
vt 0.875000 0.437500
vt 0.000000 0.687500
vt 0.000000 0.750000
vt 0.125000 0.750000
vt 0.125000 0.687500
vt 1.000000 0.687500
vt 1.000000 0.750000
vt 0.750000 0.750000
vt 0.750000 0.687500
vt 0.812500 0.687500
vt 0.812500 0.750000
vt 0.750000 0.750000
vt 0.750000 0.687500
vt 1.000000 0.687500
vt 1.000000 0.750000
vt 0.750000 0.625000
vt 1.000000 0.625000
vt 1.000000 0.812500
vt 0.750000 0.812500
vt 0.000000 0.812500
vt 0.125000 0.812500
vt 1.000000 0.687500
vt 1.000000 0.750000
vt 0.750000 0.750000
vt 0.750000 0.687500
vt 0.000000 0.750000
vt 0.125000 0.750000
vt 0.750000 0.750000
vt 0.750000 0.687500
vt 1.000000 0.687500
vt 1.000000 0.750000
vt 0.750000 0.625000
vt 1.000000 0.625000
vt 1.000000 0.812500
vt 0.750000 0.812500
vt 0.187500 0.750000
vt 0.750000 0.687500
vt 0.812500 0.687500
vt 0.812500 0.750000
vt 0.750000 0.750000
vt 0.125000 0.687500
vt 0.125000 0.750000
vt 0.000000 0.750000
vt 0.000000 0.687500
vt 0.125000 0.812500
vt 0.000000 0.812500
vt 0.000000 0.812500
vt 0.000000 0.750000
vt 0.125000 0.750000
vt 0.125000 0.812500
vt 0.000000 0.687500
vt 0.125000 0.687500
vt -0.000000 0.937500
vt -0.000000 0.875000
vt 1.000000 0.875000
vt 1.000000 0.937500
vt 0.000000 0.875000
vt 0.000000 0.812500
vt 1.000000 0.812500
vt 1.000000 0.875000
vt 0.000000 1.000000
vt -0.000000 0.937500
vt 1.000000 0.937500
vt 1.000000 1.000000
vt 0.750000 0.437500
vt 0.812500 0.437500
vt 0.812500 0.500000
vt 0.750000 0.500000
vt 0.625000 0.500000
vt 0.687500 0.500000
vt 0.687500 0.625000
vt 0.625000 0.437500
vt 0.687500 0.437500
vt 0.937500 0.500000
vt 0.875000 0.500000
vt 0.750000 0.437500
vt 0.812500 0.437500
vt 0.812500 0.500000
vt 0.750000 0.500000
vt 0.937500 0.625000
vt 0.750000 0.625000
vn -0.0000 -1.0000 -0.0000
vn -1.0000 0.0000 -0.0000
vn 1.0000 0.0000 0.0000
vn 0.0000 1.0000 0.0000
vn -0.0000 0.0000 -1.0000
vn 0.0000 -0.0000 1.0000
vn -0.9239 -0.0000 -0.3827
vn -0.3827 0.0000 -0.9239
vn 0.3827 0.0000 -0.9239
vn 0.9239 0.0000 -0.3827
vn 0.9239 0.0000 0.3827
vn 0.3827 0.0000 0.9239
vn -0.3827 -0.0000 0.9239
vn 0.7071 0.0000 -0.7071
vn -0.9239 -0.0000 0.3827
vn -0.7071 0.0000 -0.7071
vn -0.7071 -0.0000 0.7071
vn 0.7071 -0.0000 0.7071
vn 0.5000 -0.7071 0.5000
vn -0.5000 0.7071 -0.5000
vn -0.5000 -0.7071 0.5000
vn 0.5000 0.7071 0.5000
vn -0.5000 -0.7071 -0.5000
vn 0.5000 0.7071 -0.5000
vn 0.5000 -0.7071 -0.5000
vn -0.5000 0.7071 0.5000
vn 0.0000 -0.7071 0.7071
vn 0.0000 0.7071 0.7071
vn 0.0000 0.7071 -0.7071
vn -0.2425 -0.6860 0.6860
vn 0.0000 -0.7071 -0.7071
vn -0.2425 0.6860 -0.6860
vn -0.2425 -0.6860 -0.6860
vn -0.2425 0.6860 0.6860
vn 0.6860 0.2425 -0.6860
vn -0.6860 0.2425 0.6860
vn 0.6860 0.2425 0.6860
vn -0.6860 0.2425 -0.6860
usemtl LODESTAR
s off
f 13/1/1 1/2/1 24/3/1 23/4/1
f 1/5/1 2/6/1 4/7/1 5/8/1
f 2/9/2 20/10/2 6/11/2 4/12/2
f 3/13/3 1/14/3 5/15/3 7/16/3
f 20/17/4 3/18/4 7/19/4 6/20/4
f 1/14/5 3/13/5 22/21/5 24/22/5
f 12/23/6 13/24/6 23/25/6 21/26/6
f 3/27/4 12/28/4 21/29/4 22/30/4
f 12/31/4 19/32/4 8/33/4 9/34/4
f 19/35/2 14/36/2 10/37/2 8/38/2
f 13/24/3 12/23/3 9/39/3 11/40/3
f 14/41/1 13/42/1 11/43/1 10/44/1
f 19/45/4 20/46/4 15/47/4 16/48/4
f 20/10/5 2/9/5 17/49/5 15/50/5
f 14/36/6 19/35/6 16/51/6 18/52/6
f 20/17/4 19/53/4 12/23/4 3/18/4
f 2/6/1 1/5/1 13/54/1 14/55/1
f 2/56/1 14/57/1 18/58/1 17/59/1
f 90/60/7 91/61/7 94/62/7 93/63/7
f 95/64/8 96/65/8 98/66/8 97/67/8
f 99/68/9 100/69/9 102/70/9 101/71/9
f 103/72/10 104/73/10 106/74/10 105/75/10
f 107/76/11 108/77/11 110/78/11 109/79/11
f 111/80/12 112/81/12 114/82/12 113/83/12
f 115/84/13 116/85/13 118/86/13 117/87/13
f 55/88/14 56/89/14 54/90/14 53/91/14
f 119/92/15 120/93/15 92/94/15 89/95/15
f 25/96/10 26/97/10 56/98/10 55/99/10
f 57/100/2 58/101/2 59/102/2 60/103/2
f 92/104/6 58/105/6 57/106/6 89/107/6
f 91/108/4 59/102/4 58/101/4 92/109/4
f 90/110/5 60/111/5 59/112/5 91/113/5
f 89/114/1 57/115/1 60/116/1 90/117/1
f 61/118/16 62/119/16 63/120/16 64/121/16
f 94/122/17 62/123/17 61/124/17 93/125/17
f 96/126/4 63/120/4 62/119/4 94/127/4
f 95/128/14 64/129/14 63/130/14 96/131/14
f 93/132/1 61/133/1 64/134/1 95/135/1
f 65/136/5 66/137/5 67/138/5 68/139/5
f 98/140/2 66/141/2 65/142/2 97/143/2
f 100/144/4 67/138/4 66/137/4 98/145/4
f 99/146/3 68/147/3 67/148/3 100/149/3
f 97/150/1 65/151/1 68/152/1 99/153/1
f 69/154/14 70/155/14 71/156/14 72/157/14
f 102/158/16 70/159/16 69/160/16 101/161/16
f 104/162/4 71/156/4 70/155/4 102/163/4
f 103/164/18 72/165/18 71/166/18 104/167/18
f 101/168/1 69/169/1 72/170/1 103/171/1
f 73/172/3 74/173/3 75/174/3 76/175/3
f 108/176/4 75/174/4 74/173/4 106/177/4
f 105/178/1 73/179/1 76/180/1 107/181/1
f 77/182/18 78/183/18 79/184/18 80/185/18
f 110/186/14 78/187/14 77/188/14 109/189/14
f 112/190/4 79/184/4 78/183/4 110/191/4
f 111/192/17 80/193/17 79/194/17 112/195/17
f 109/196/1 77/197/1 80/198/1 111/199/1
f 81/200/6 82/201/6 83/202/6 84/203/6
f 114/204/3 82/205/3 81/206/3 113/207/3
f 116/208/4 83/202/4 82/201/4 114/209/4
f 115/210/2 84/211/2 83/212/2 116/213/2
f 113/214/1 81/215/1 84/216/1 115/217/1
f 85/218/17 86/219/17 87/220/17 88/221/17
f 118/222/18 86/223/18 85/224/18 117/225/18
f 120/226/4 87/220/4 86/219/4 118/227/4
f 119/228/16 88/229/16 87/230/16 120/231/16
f 117/232/1 85/233/1 88/234/1 119/235/1
f 27/236/1 25/237/1 89/114/1 90/117/1
f 26/238/4 28/239/4 91/108/4 92/109/4
f 29/240/1 27/241/1 90/242/1 93/243/1
f 28/244/4 30/245/4 94/246/4 91/247/4
f 31/248/1 29/249/1 93/132/1 95/135/1
f 30/250/4 32/251/4 96/126/4 94/127/4
f 33/252/1 31/253/1 95/254/1 97/255/1
f 32/256/4 34/257/4 98/258/4 96/259/4
f 35/260/1 33/261/1 97/150/1 99/153/1
f 34/262/4 36/263/4 100/144/4 98/145/4
f 37/264/1 35/265/1 99/266/1 101/267/1
f 36/268/4 38/269/4 102/270/4 100/271/4
f 39/272/1 37/273/1 101/168/1 103/171/1
f 38/274/4 40/275/4 104/162/4 102/163/4
f 41/276/1 39/277/1 103/278/1 105/279/1
f 40/280/4 42/281/4 106/282/4 104/283/4
f 43/284/1 41/285/1 105/178/1 107/181/1
f 42/286/4 44/287/4 108/176/4 106/177/4
f 45/288/1 43/289/1 107/290/1 109/291/1
f 44/292/4 46/293/4 110/294/4 108/295/4
f 47/296/1 45/297/1 109/196/1 111/199/1
f 46/298/4 48/299/4 112/190/4 110/191/4
f 49/300/1 47/301/1 111/302/1 113/303/1
f 48/304/4 50/305/4 114/306/4 112/307/4
f 51/308/1 49/309/1 113/214/1 115/217/1
f 50/310/4 52/311/4 116/208/4 114/209/4
f 53/312/1 51/313/1 115/314/1 117/315/1
f 52/316/4 54/317/4 118/318/4 116/319/4
f 55/88/1 53/91/1 117/232/1 119/235/1
f 54/320/4 56/321/4 120/226/4 118/227/4
f 25/96/1 55/99/1 119/322/1 89/323/1
f 56/324/4 26/325/4 92/326/4 120/327/4
f 53/312/9 54/328/9 52/329/9 51/313/9
f 51/308/5 52/330/5 50/331/5 49/309/5
f 49/300/8 50/332/8 48/333/8 47/301/8
f 47/296/16 48/334/16 46/335/16 45/297/16
f 45/288/7 46/336/7 44/337/7 43/289/7
f 43/284/2 44/338/2 42/339/2 41/285/2
f 41/276/15 42/340/15 40/341/15 39/277/15
f 39/272/17 40/342/17 38/343/17 37/273/17
f 37/264/13 38/344/13 36/345/13 35/265/13
f 35/260/6 36/346/6 34/347/6 33/261/6
f 33/252/12 34/348/12 32/349/12 31/253/12
f 31/248/18 32/350/18 30/351/18 29/249/18
f 29/240/11 30/352/11 28/353/11 27/241/11
f 27/236/3 28/354/3 26/355/3 25/237/3
f 105/356/5 106/357/5 74/358/5 73/359/5
f 108/360/6 107/361/6 76/362/6 75/363/6
usemtl CIRCLE_TOIL
f 121/364/17 122/365/17 124/366/17 123/367/17
f 123/368/16 124/369/16 128/370/16 127/371/16
f 127/371/14 128/370/14 126/372/14 125/373/14
f 125/374/18 126/375/18 122/365/18 121/364/18
f 122/365/19 126/375/19 138/376/19 139/377/19
f 130/378/20 131/379/20 141/380/20 140/381/20
f 124/366/21 122/365/21 139/377/21 140/382/21
f 132/383/22 129/384/22 139/377/22 138/376/22
f 128/370/23 124/369/23 140/381/23 141/380/23
f 131/379/24 132/385/24 138/386/24 141/380/24
f 126/372/25 128/370/25 141/380/25 138/386/25
f 129/384/26 130/387/26 140/382/26 139/377/26
f 158/388/27 167/389/27 172/390/27 173/391/27
f 144/392/5 145/393/5 149/394/5 148/395/5
f 148/395/3 149/396/3 147/397/3 146/398/3
f 146/398/6 147/399/6 143/400/6 142/401/6
f 144/392/1 148/395/1 146/402/1 142/403/1
f 149/394/4 145/393/4 143/404/4 147/405/4
f 167/389/28 169/406/28 170/407/28 172/390/28
f 152/408/5 153/409/5 157/410/5 156/411/5
f 169/406/29 168/412/29 171/413/29 170/407/29
f 154/414/6 155/415/6 151/416/6 150/417/6
f 152/408/1 156/411/1 154/418/1 150/419/1
f 157/410/4 153/409/4 151/420/4 155/421/4
f 173/391/30 172/390/30 174/422/30
f 152/423/2 150/424/2 151/425/2 153/426/2
f 168/412/31 158/388/31 173/391/31 171/413/31
f 161/427/31 159/428/31 166/429/31 164/430/31
f 159/428/29 162/431/29 165/432/29 166/429/29
f 162/433/28 160/434/28 163/435/28 165/436/28
f 160/434/27 161/437/27 164/438/27 163/435/27
f 170/407/32 171/413/32 174/422/32
f 171/413/33 173/391/33 174/422/33
f 172/390/34 170/407/34 174/422/34
f 142/439/6 143/440/6 155/441/6 154/442/6
f 144/443/1 142/444/1 154/445/1 156/446/1
f 143/447/4 145/448/4 157/449/4 155/450/4
f 144/443/5 156/446/5 157/449/5 145/448/5
usemtl CHIMERITE
f 131/451/16 130/452/16 134/453/16 135/454/16
f 136/455/35 135/456/35 137/457/35
f 132/458/14 131/459/14 135/456/14 136/455/14
f 130/387/17 129/384/17 133/460/17 134/461/17
f 129/462/18 132/463/18 136/464/18 133/465/18
f 134/461/36 133/460/36 137/466/36
f 133/465/37 136/464/37 137/467/37
f 135/454/38 134/453/38 137/467/38
