# Blender v2.80 (sub 75) OBJ File: 'chem devices.blend'
# www.blender.org
mtllib coloring_cauldron.mtl
o COLORING_CAULDRON_Plane
v 0.218750 0.937500 0.062500
v 0.218750 0.812500 0.062500
v 0.250000 0.250000 0.125000
v 0.250000 0.812500 0.125000
v 0.500000 0.375000 0.250000
v 0.750000 0.125000 0.250000
v 0.250000 0.125000 0.250000
v 0.500000 0.875000 0.250000
v 0.250000 0.937500 0.187500
v 0.500000 0.937500 0.187500
v 0.500000 0.937500 0.062500
v 0.500000 0.812500 0.125000
v 0.500000 0.812500 0.062500
v 0.500000 0.250000 0.125000
v 0.500000 0.125000 0.250000
v 0.250000 0.125000 0.500000
v 0.500000 0.125000 0.500000
v 0.062500 0.937500 0.218750
v 0.218750 0.937500 0.937500
v 0.062500 0.812500 0.218750
v 0.062500 0.937500 0.781250
v 0.062500 0.812500 0.781250
v 0.125000 0.250000 0.750000
v 0.250000 0.250000 0.875000
v 0.125000 0.250000 0.250000
v 0.125000 0.812500 0.750000
v 0.125000 0.812500 0.250000
v 0.250000 0.375000 0.500000
v 0.250000 0.125000 0.750000
v 0.250000 0.875000 0.500000
v 0.187500 0.937500 0.750000
v 0.187500 0.937500 0.250000
v 0.187500 0.937500 0.500000
v 0.062500 0.937500 0.500000
v 0.125000 0.812500 0.500000
v 0.250000 0.875000 0.250000
v 0.062500 0.812500 0.500000
v 0.375000 0.250000 0.375000
v 0.250000 0.375000 0.750000
v 0.125000 0.250000 0.500000
v 0.250000 0.375000 0.250000
v 0.937500 0.937500 0.781250
v 0.218750 0.812500 0.937500
v 0.781250 0.937500 0.937500
v 0.781250 0.812500 0.937500
v 0.750000 0.250000 0.875000
v 0.875000 0.250000 0.750000
v 0.750000 0.812500 0.875000
v 0.250000 0.812500 0.875000
v 0.500000 0.375000 0.750000
v 0.750000 0.125000 0.750000
v 0.500000 0.875000 0.750000
v 0.750000 0.937500 0.812500
v 0.250000 0.937500 0.812500
v 0.500000 0.937500 0.812500
v 0.500000 0.937500 0.937500
v 0.500000 0.812500 0.875000
v 0.250000 0.875000 0.750000
v 0.500000 0.812500 0.937500
v 0.375000 0.250000 0.625000
v 0.750000 0.375000 0.750000
v 0.500000 0.250000 0.875000
v 0.500000 0.125000 0.750000
v 0.781250 0.937500 0.062500
v 0.937500 0.812500 0.781250
v 0.937500 0.937500 0.218750
v 0.781250 0.812500 0.062500
v 0.937500 0.812500 0.218750
v 0.875000 0.250000 0.250000
v 0.750000 0.250000 0.125000
v 0.750000 0.812500 0.125000
v 0.875000 0.812500 0.250000
v 0.875000 0.812500 0.750000
v 0.750000 0.375000 0.500000
v 0.750000 0.875000 0.500000
v 0.812500 0.937500 0.250000
v 0.812500 0.937500 0.750000
v 0.750000 0.937500 0.187500
v 0.812500 0.937500 0.500000
v 0.937500 0.937500 0.500000
v 0.875000 0.812500 0.500000
v 0.750000 0.875000 0.250000
v 0.750000 0.875000 0.750000
v 0.937500 0.812500 0.500000
v 0.625000 0.250000 0.375000
v 0.625000 0.250000 0.625000
v 0.750000 0.375000 0.250000
v 0.875000 0.250000 0.500000
v 0.750000 0.125000 0.500000
v 0.625000 0.000000 0.000000
v 0.375000 0.000000 0.000000
v 0.625000 0.062500 0.000000
v 0.375000 0.062500 0.000000
v 0.625000 0.062500 0.062500
v 0.625000 0.000000 0.125000
v 0.375000 0.000000 0.125000
v 0.375000 0.062500 0.062500
v 0.375000 0.062500 0.187500
v 0.625000 0.062500 0.187500
v 0.625000 0.125000 0.125000
v 0.375000 0.125000 0.125000
v 0.625000 0.125000 0.187500
v 0.375000 0.125000 0.187500
v 0.375000 0.062500 0.312500
v 0.625000 0.062500 0.312500
v 0.375000 0.125000 0.375000
v 0.625000 0.125000 0.375000
v 0.375000 0.062500 0.250000
v 0.625000 0.062500 0.250000
v 0.375000 0.125000 0.250000
v 0.625000 0.125000 0.250000
v 0.625000 0.187500 0.187500
v 0.375000 0.187500 0.187500
v 0.000000 0.000000 0.375000
v 0.000000 0.000000 0.625000
v 0.000000 0.062500 0.375000
v 0.000000 0.062500 0.625000
v 0.062500 0.062500 0.375000
v 0.125000 0.000000 0.375000
v 0.125000 0.000000 0.625000
v 0.062500 0.062500 0.625000
v 0.187500 0.062500 0.625000
v 0.187500 0.062500 0.375000
v 0.125000 0.125000 0.375000
v 0.125000 0.125000 0.625000
v 0.187500 0.125000 0.375000
v 0.187500 0.125000 0.625000
v 0.312500 0.062500 0.625000
v 0.312500 0.062500 0.375000
v 0.375000 0.125000 0.625000
v 0.375000 0.125000 0.375000
v 0.250000 0.062500 0.625000
v 0.250000 0.062500 0.375000
v 0.250000 0.125000 0.625000
v 0.250000 0.125000 0.375000
v 0.187500 0.187500 0.375000
v 0.187500 0.187500 0.625000
v 0.375000 0.000000 1.000000
v 0.625000 0.000000 1.000000
v 0.375000 0.062500 1.000000
v 0.625000 0.062500 1.000000
v 0.375000 0.062500 0.937500
v 0.375000 0.000000 0.875000
v 0.625000 0.000000 0.875000
v 0.625000 0.062500 0.937500
v 0.625000 0.062500 0.812500
v 0.375000 0.062500 0.812500
v 0.375000 0.125000 0.875000
v 0.625000 0.125000 0.875000
v 0.375000 0.125000 0.812500
v 0.625000 0.125000 0.812500
v 0.625000 0.062500 0.687500
v 0.375000 0.062500 0.687500
v 0.625000 0.125000 0.625000
v 0.375000 0.125000 0.625000
v 0.625000 0.062500 0.750000
v 0.375000 0.062500 0.750000
v 0.625000 0.125000 0.750000
v 0.375000 0.125000 0.750000
v 0.375000 0.187500 0.812500
v 0.625000 0.187500 0.812500
v 1.000000 0.000000 0.625000
v 1.000000 0.000000 0.375000
v 1.000000 0.062500 0.625000
v 1.000000 0.062500 0.375000
v 0.937500 0.062500 0.625000
v 0.875000 0.000000 0.625000
v 0.875000 0.000000 0.375000
v 0.937500 0.062500 0.375000
v 0.812500 0.062500 0.375000
v 0.812500 0.062500 0.625000
v 0.875000 0.125000 0.625000
v 0.875000 0.125000 0.375000
v 0.812500 0.125000 0.625000
v 0.812500 0.125000 0.375000
v 0.687500 0.062500 0.375000
v 0.687500 0.062500 0.625000
v 0.625000 0.125000 0.375000
v 0.625000 0.125000 0.625000
v 0.750000 0.062500 0.375000
v 0.750000 0.062500 0.625000
v 0.750000 0.125000 0.375000
v 0.750000 0.125000 0.625000
v 0.812500 0.187500 0.625000
v 0.812500 0.187500 0.375000
vt 0.125000 0.000000
vt 0.375000 0.000000
vt 0.250000 0.125000
vt 0.000000 1.000000
vt 0.000000 0.750000
vt 0.250000 0.750000
vt 0.250000 1.000000
vt 0.000000 0.125000
vt 0.687500 1.000000
vt 0.632004 0.875000
vt 0.555496 0.875000
vt 0.500000 1.000000
vt 0.250000 0.312500
vt 0.312500 0.343750
vt 0.312500 0.593750
vt 0.250000 0.593750
vt 0.500000 0.875000
vt 0.519058 0.812500
vt 0.668442 0.812500
vt 0.687500 0.875000
vt 0.312500 0.343750
vt 0.250000 0.312500
vt 1.000000 0.812500
vt 0.812500 0.812500
vt 0.812500 0.687500
vt 1.000000 0.687500
vt 0.531250 0.812500
vt 0.812500 0.812500
vt 0.812500 0.687500
vt 0.531250 0.687500
vt 0.625000 0.687500
vt 0.875000 0.687500
vt 0.875000 0.125000
vt 0.625000 0.125000
vt 1.000000 0.687500
vt 0.875000 0.687500
vt 0.875000 0.125000
vt 1.000000 0.125000
vt 1.000000 1.000000
vt 0.718750 1.000000
vt 0.718750 0.875000
vt 0.968750 0.875000
vt 1.000000 1.000000
vt 0.968750 0.875000
vt 0.062500 0.062500
vt 0.000000 0.062500
vt 0.000000 0.000000
vt 0.062500 0.000000
vt 0.062500 0.062500
vt 0.062500 0.000000
vt 0.937500 0.000000
vt 0.875000 0.000000
vt 0.625000 0.000000
vt 0.875000 0.000000
vt 0.968750 0.812500
vt 0.718750 0.812500
vt 0.062500 0.625000
vt 0.000000 0.625000
vt 0.000000 0.687500
vt 0.000000 0.625000
vt 0.250000 0.625000
vt 0.000000 0.125000
vt 0.968750 0.812500
vt 0.125000 0.000000
vt 0.000000 0.000000
vt 0.062500 0.000000
vt 0.062500 0.000000
vt 0.125000 0.000000
vt 0.375000 0.000000
vt 0.250000 0.125000
vt 0.000000 0.125000
vt 0.687500 1.000000
vt 0.632004 0.875000
vt 0.555496 0.875000
vt 0.500000 1.000000
vt 0.250000 0.312500
vt 0.312500 0.343750
vt 0.312500 0.593750
vt 0.250000 0.593750
vt 0.500000 0.875000
vt 0.519058 0.812500
vt 0.668442 0.812500
vt 0.687500 0.875000
vt 0.312500 0.343750
vt 0.250000 0.312500
vt 1.000000 0.812500
vt 0.812500 0.812500
vt 0.812500 0.687500
vt 1.000000 0.687500
vt 0.531250 0.812500
vt 0.812500 0.812500
vt 0.812500 0.687500
vt 0.531250 0.687500
vt 0.625000 0.687500
vt 0.875000 0.687500
vt 0.875000 0.125000
vt 0.625000 0.125000
vt 1.000000 0.687500
vt 0.875000 0.687500
vt 0.875000 0.125000
vt 1.000000 0.125000
vt 1.000000 1.000000
vt 0.718750 1.000000
vt 0.718750 0.875000
vt 0.968750 0.875000
vt 1.000000 1.000000
vt 0.968750 0.875000
vt 0.937500 0.000000
vt 0.625000 0.000000
vt 0.875000 0.000000
vt 0.968750 0.812500
vt 0.718750 0.812500
vt 0.062500 0.625000
vt 0.000000 0.625000
vt 0.000000 0.687500
vt 0.250000 0.625000
vt 0.125000 0.000000
vt 0.375000 0.000000
vt 0.250000 0.125000
vt 0.000000 0.125000
vt 0.687500 1.000000
vt 0.632004 0.875000
vt 0.555496 0.875000
vt 0.500000 1.000000
vt 0.250000 0.312500
vt 0.312500 0.343750
vt 0.312500 0.593750
vt 0.250000 0.593750
vt 0.500000 0.875000
vt 0.519058 0.812500
vt 0.668442 0.812500
vt 0.687500 0.875000
vt 0.312500 0.343750
vt 0.250000 0.312500
vt 1.000000 0.812500
vt 0.812500 0.812500
vt 0.812500 0.687500
vt 1.000000 0.687500
vt 0.531250 0.812500
vt 0.812500 0.812500
vt 0.812500 0.687500
vt 0.531250 0.687500
vt 0.625000 0.687500
vt 0.875000 0.687500
vt 0.875000 0.125000
vt 0.625000 0.125000
vt 1.000000 0.687500
vt 0.875000 0.687500
vt 0.875000 0.125000
vt 1.000000 0.125000
vt 1.000000 1.000000
vt 0.718750 1.000000
vt 0.718750 0.875000
vt 0.968750 0.875000
vt 1.000000 1.000000
vt 0.968750 0.875000
vt 0.937500 0.000000
vt 0.625000 0.000000
vt 0.875000 0.000000
vt 0.968750 0.812500
vt 0.718750 0.812500
vt 0.062500 0.625000
vt 0.000000 0.625000
vt 0.000000 0.687500
vt 0.250000 0.625000
vt 0.375000 0.000000
vt 0.250000 0.125000
vt 0.687500 1.000000
vt 0.632004 0.875000
vt 0.555496 0.875000
vt 0.500000 1.000000
vt 0.250000 0.312500
vt 0.312500 0.343750
vt 0.312500 0.593750
vt 0.250000 0.593750
vt 0.500000 0.875000
vt 0.519058 0.812500
vt 0.668442 0.812500
vt 0.687500 0.875000
vt 0.312500 0.343750
vt 0.250000 0.312500
vt 1.000000 0.812500
vt 0.812500 0.812500
vt 0.812500 0.687500
vt 1.000000 0.687500
vt 0.531250 0.812500
vt 0.812500 0.812500
vt 0.812500 0.687500
vt 0.531250 0.687500
vt 0.625000 0.687500
vt 0.875000 0.687500
vt 0.875000 0.125000
vt 0.625000 0.125000
vt 1.000000 0.687500
vt 0.875000 0.687500
vt 0.875000 0.125000
vt 1.000000 0.125000
vt 1.000000 1.000000
vt 0.718750 1.000000
vt 0.718750 0.875000
vt 0.968750 0.875000
vt 1.000000 1.000000
vt 0.968750 0.875000
vt 0.937500 0.000000
vt 0.625000 0.000000
vt 0.718750 0.812500
vt 0.062500 0.625000
vt 0.000000 0.687500
vt 0.250000 0.625000
vt 0.375000 0.375000
vt 0.625000 0.375000
vt 0.625000 0.437500
vt 0.375000 0.437500
vt 0.187500 0.750000
vt 0.250000 0.750000
vt 0.187500 0.687500
vt 0.625000 0.000000
vt 0.625000 0.125000
vt 0.375000 0.125000
vt 0.375000 0.000000
vt 0.375000 0.625000
vt 0.250000 0.625000
vt 0.312500 0.687500
vt 0.375000 0.687500
vt 0.375000 0.687500
vt 0.312500 0.687500
vt 0.250000 0.625000
vt 0.375000 0.625000
vt 0.625000 0.500000
vt 0.375000 0.500000
vt 0.625000 0.562500
vt 0.375000 0.562500
vt 0.625000 0.250000
vt 0.625000 0.312500
vt 0.375000 0.312500
vt 0.375000 0.250000
vt 0.625000 0.187500
vt 0.375000 0.187500
vt 0.250000 0.750000
vt 0.187500 0.687500
vt 0.187500 0.750000
vt 0.375000 0.375000
vt 0.625000 0.375000
vt 0.125000 0.687500
vt 0.062500 0.687500
vt 0.000000 0.750000
vt 0.125000 0.750000
vt 0.125000 0.750000
vt 0.000000 0.750000
vt 0.062500 0.687500
vt 0.125000 0.687500
vt 0.625000 0.625000
vt 0.375000 0.625000
vt 0.625000 0.687500
vt 0.375000 0.687500
vt 0.187500 0.625000
vt 0.125000 0.625000
vt 0.187500 0.687500
vt 0.125000 0.625000
vt 0.187500 0.625000
vt 0.187500 0.687500
vt 0.375000 0.375000
vt 0.625000 0.375000
vt 0.625000 0.437500
vt 0.375000 0.437500
vt 0.187500 0.750000
vt 0.250000 0.750000
vt 0.187500 0.687500
vt 0.625000 0.000000
vt 0.625000 0.125000
vt 0.375000 0.125000
vt 0.375000 0.000000
vt 0.375000 0.625000
vt 0.250000 0.625000
vt 0.312500 0.687500
vt 0.375000 0.687500
vt 0.375000 0.687500
vt 0.312500 0.687500
vt 0.250000 0.625000
vt 0.375000 0.625000
vt 0.625000 0.500000
vt 0.375000 0.500000
vt 0.625000 0.562500
vt 0.375000 0.562500
vt 0.625000 0.250000
vt 0.625000 0.312500
vt 0.375000 0.312500
vt 0.375000 0.250000
vt 0.625000 0.187500
vt 0.375000 0.187500
vt 0.250000 0.750000
vt 0.187500 0.687500
vt 0.187500 0.750000
vt 0.375000 0.375000
vt 0.625000 0.375000
vt 0.125000 0.687500
vt 0.062500 0.687500
vt 0.000000 0.750000
vt 0.125000 0.750000
vt 0.125000 0.750000
vt 0.000000 0.750000
vt 0.062500 0.687500
vt 0.125000 0.687500
vt 0.625000 0.625000
vt 0.375000 0.625000
vt 0.625000 0.687500
vt 0.375000 0.687500
vt 0.187500 0.625000
vt 0.125000 0.625000
vt 0.187500 0.687500
vt 0.125000 0.625000
vt 0.187500 0.625000
vt 0.187500 0.687500
vt 0.375000 0.375000
vt 0.625000 0.375000
vt 0.625000 0.437500
vt 0.375000 0.437500
vt 0.187500 0.750000
vt 0.250000 0.750000
vt 0.187500 0.687500
vt 0.625000 0.000000
vt 0.625000 0.125000
vt 0.375000 0.125000
vt 0.375000 0.000000
vt 0.375000 0.625000
vt 0.250000 0.625000
vt 0.312500 0.687500
vt 0.375000 0.687500
vt 0.375000 0.687500
vt 0.312500 0.687500
vt 0.250000 0.625000
vt 0.375000 0.625000
vt 0.625000 0.500000
vt 0.375000 0.500000
vt 0.625000 0.562500
vt 0.375000 0.562500
vt 0.625000 0.250000
vt 0.625000 0.312500
vt 0.375000 0.312500
vt 0.375000 0.250000
vt 0.625000 0.187500
vt 0.375000 0.187500
vt 0.250000 0.750000
vt 0.187500 0.687500
vt 0.187500 0.750000
vt 0.375000 0.375000
vt 0.625000 0.375000
vt 0.125000 0.687500
vt 0.062500 0.687500
vt 0.000000 0.750000
vt 0.125000 0.750000
vt 0.125000 0.750000
vt 0.000000 0.750000
vt 0.062500 0.687500
vt 0.125000 0.687500
vt 0.625000 0.625000
vt 0.375000 0.625000
vt 0.625000 0.687500
vt 0.375000 0.687500
vt 0.187500 0.625000
vt 0.125000 0.625000
vt 0.187500 0.687500
vt 0.125000 0.625000
vt 0.187500 0.625000
vt 0.187500 0.687500
vt 0.375000 0.375000
vt 0.625000 0.375000
vt 0.625000 0.437500
vt 0.375000 0.437500
vt 0.187500 0.750000
vt 0.250000 0.750000
vt 0.187500 0.687500
vt 0.625000 0.000000
vt 0.625000 0.125000
vt 0.375000 0.125000
vt 0.375000 0.000000
vt 0.375000 0.625000
vt 0.250000 0.625000
vt 0.312500 0.687500
vt 0.375000 0.687500
vt 0.375000 0.687500
vt 0.312500 0.687500
vt 0.250000 0.625000
vt 0.375000 0.625000
vt 0.625000 0.500000
vt 0.375000 0.500000
vt 0.625000 0.562500
vt 0.375000 0.562500
vt 0.625000 0.250000
vt 0.625000 0.312500
vt 0.375000 0.312500
vt 0.375000 0.250000
vt 0.625000 0.187500
vt 0.375000 0.187500
vt 0.250000 0.750000
vt 0.187500 0.687500
vt 0.187500 0.750000
vt 0.375000 0.375000
vt 0.625000 0.375000
vt 0.125000 0.687500
vt 0.062500 0.687500
vt 0.000000 0.750000
vt 0.125000 0.750000
vt 0.125000 0.750000
vt 0.000000 0.750000
vt 0.062500 0.687500
vt 0.125000 0.687500
vt 0.625000 0.625000
vt 0.375000 0.625000
vt 0.625000 0.687500
vt 0.375000 0.687500
vt 0.187500 0.625000
vt 0.125000 0.625000
vt 0.187500 0.687500
vt 0.125000 0.625000
vt 0.187500 0.625000
vt 0.187500 0.687500
vn 0.0000 0.7071 0.7071
vn 0.0000 1.0000 0.0000
vn -0.0000 -1.0000 0.0000
vn -0.7071 0.0000 -0.7071
vn -0.0000 0.0000 -1.0000
vn -0.5774 -0.5774 -0.5774
vn -0.0000 -0.7071 -0.7071
vn 0.5773 0.5773 0.5774
vn -0.0000 0.0000 1.0000
vn 0.7071 0.7071 0.0000
vn -0.7071 -0.0000 0.7071
vn -1.0000 0.0000 0.0000
vn -0.5774 -0.5774 0.5774
vn -0.7071 -0.7071 0.0000
vn 0.5774 0.5774 -0.5774
vn 1.0000 0.0000 0.0000
vn 0.0000 0.7071 -0.7071
vn 0.7071 0.0000 0.7071
vn 0.5774 -0.5774 0.5774
vn -0.0000 -0.7071 0.7071
vn -0.5773 0.5773 -0.5774
vn -0.7071 0.7071 0.0000
vn 0.7071 0.0000 -0.7071
vn 0.5774 -0.5774 -0.5774
vn 0.7071 -0.7071 0.0000
vn -0.5773 0.5774 0.5774
usemtl COLORING_CAULDRON
s off
f 38/1/1 85/2/1 5/3/1
f 38/4/2 60/5/2 86/6/2 85/7/2
f 41/8/1 38/1/1 5/3/1
f 18/9/2 32/10/2 9/11/2 1/12/2
f 67/13/3 71/14/3 12/15/3 13/16/3
f 2/17/3 4/18/3 27/19/3 20/20/3
f 13/16/3 12/15/3 4/21/3 2/22/3
f 18/23/4 1/24/4 2/25/4 20/26/4
f 11/27/5 64/28/5 67/29/5 13/30/5
f 12/31/5 71/32/5 70/33/5 14/34/5
f 27/35/4 4/36/4 3/37/4 25/38/4
f 1/24/5 11/27/5 13/30/5 2/25/5
f 4/36/5 12/31/5 14/34/5 3/37/5
f 64/39/2 11/40/2 10/41/2 78/42/2
f 11/40/2 1/43/2 9/44/2 10/41/2
f 89/45/3 17/46/3 15/47/3 6/48/3
f 17/46/3 16/49/3 7/50/3 15/47/3
f 25/38/6 3/37/6 7/51/6
f 14/34/7 70/33/7 6/52/7 15/53/7
f 3/37/7 14/34/7 15/53/7 7/54/7
f 9/44/1 36/55/1 8/56/1 10/41/1
f 32/57/8 36/58/8 9/59/8
f 82/60/9 8/61/9 5/3/9 87/62/9
f 10/41/1 8/56/1 82/63/1 78/42/1
f 8/61/9 36/58/9 41/8/9 5/3/9
f 85/64/1 87/62/1 5/3/1
f 63/65/3 29/66/3 16/49/3 17/46/3
f 51/67/3 63/65/3 17/46/3 89/45/3
f 60/68/10 38/69/10 28/70/10
f 39/71/10 60/68/10 28/70/10
f 19/72/2 54/73/2 31/74/2 21/75/2
f 20/76/3 27/77/3 35/78/3 37/79/3
f 22/80/3 26/81/3 49/82/3 43/83/3
f 37/79/3 35/78/3 26/84/3 22/85/3
f 19/86/11 21/87/11 22/88/11 43/89/11
f 34/90/12 18/91/12 20/92/12 37/93/12
f 35/94/12 27/95/12 25/96/12 40/97/12
f 49/98/11 26/99/11 23/100/11 24/101/11
f 21/87/12 34/90/12 37/93/12 22/88/12
f 26/99/12 35/94/12 40/97/12 23/100/12
f 18/102/2 34/103/2 33/104/2 32/105/2
f 34/103/2 21/106/2 31/107/2 33/104/2
f 24/101/13 23/100/13 29/108/13
f 40/97/14 25/96/14 7/54/14 16/109/14
f 23/100/14 40/97/14 16/109/14 29/110/14
f 31/107/10 58/111/10 30/112/10 33/104/10
f 54/113/15 58/114/15 31/115/15
f 36/58/16 30/116/16 28/70/16 41/8/16
f 33/104/10 30/112/10 36/55/10 32/105/10
f 30/116/16 58/114/16 39/71/16 28/70/16
f 38/1/10 41/8/10 28/70/10
f 86/117/17 60/118/17 50/119/17
f 61/120/17 86/117/17 50/119/17
f 42/121/2 77/122/2 53/123/2 44/124/2
f 43/125/3 49/126/3 57/127/3 59/128/3
f 45/129/3 48/130/3 73/131/3 65/132/3
f 59/128/3 57/127/3 48/133/3 45/134/3
f 42/135/18 44/136/18 45/137/18 65/138/18
f 56/139/9 19/140/9 43/141/9 59/142/9
f 57/143/9 49/144/9 24/145/9 62/146/9
f 73/147/18 48/148/18 46/149/18 47/150/18
f 44/136/9 56/139/9 59/142/9 45/137/9
f 48/148/9 57/143/9 62/146/9 46/149/9
f 19/151/2 56/152/2 55/153/2 54/154/2
f 56/152/2 44/155/2 53/156/2 55/153/2
f 47/150/19 46/149/19 51/157/19
f 62/146/20 24/145/20 29/110/20 63/158/20
f 46/149/20 62/146/20 63/158/20 51/159/20
f 53/156/17 83/160/17 52/161/17 55/153/17
f 77/162/21 83/163/21 53/164/21
f 58/114/5 52/165/5 50/119/5 39/71/5
f 55/153/17 52/161/17 58/111/17 54/154/17
f 52/165/5 83/163/5 61/120/5 50/119/5
f 60/68/17 39/71/17 50/119/17
f 85/64/22 86/166/22 74/167/22
f 87/62/22 85/64/22 74/167/22
f 64/168/2 78/169/2 76/170/2 66/171/2
f 65/172/3 73/173/3 81/174/3 84/175/3
f 68/176/3 72/177/3 71/178/3 67/179/3
f 84/175/3 81/174/3 72/180/3 68/181/3
f 64/182/23 66/183/23 68/184/23 67/185/23
f 80/186/16 42/187/16 65/188/16 84/189/16
f 81/190/16 73/191/16 47/192/16 88/193/16
f 71/194/23 72/195/23 69/196/23 70/197/23
f 66/183/16 80/186/16 84/189/16 68/184/16
f 72/195/16 81/190/16 88/193/16 69/196/16
f 42/198/2 80/199/2 79/200/2 77/201/2
f 80/199/2 66/202/2 76/203/2 79/200/2
f 70/197/24 69/196/24 6/204/24
f 88/193/25 47/192/25 51/159/25 89/205/25
f 69/196/25 88/193/25 89/205/25 6/52/25
f 76/203/22 82/63/22 75/206/22 79/200/22
f 78/207/26 82/60/26 76/208/26
f 83/163/12 75/209/12 74/167/12 61/120/12
f 79/200/22 75/206/22 83/160/22 77/201/22
f 75/209/12 82/60/12 87/62/12 74/167/12
f 86/117/22 61/120/22 74/167/22
f 90/210/5 91/211/5 93/212/5 92/213/5
f 103/214/12 101/215/12 98/216/12
f 90/217/3 95/218/3 96/219/3 91/220/3
f 91/221/12 96/222/12 97/223/12 93/224/12
f 92/225/16 94/226/16 95/227/16 90/228/16
f 93/212/2 97/229/2 94/230/2 92/213/2
f 97/229/17 101/231/17 100/232/17 94/230/17
f 109/233/3 105/234/3 104/235/3 108/236/3
f 96/222/12 98/216/12 101/215/12 97/223/12
f 95/218/20 99/237/20 98/238/20 96/219/20
f 95/227/16 94/226/16 100/239/16 99/240/16
f 102/241/16 99/240/16 100/239/16
f 106/242/20 104/235/20 105/234/20 107/243/20
f 108/244/12 104/245/12 106/246/12 110/247/12
f 111/248/16 107/249/16 105/250/16 109/251/16
f 102/241/16 111/248/16 109/251/16 99/240/16
f 98/216/12 108/244/12 110/247/12 103/214/12
f 99/237/3 109/233/3 108/236/3 98/238/3
f 100/232/2 101/231/2 103/252/2 102/253/2
f 103/252/5 113/254/5 112/255/5 102/253/5
f 103/256/12 110/257/12 113/258/12
f 111/259/16 102/260/16 112/261/16
f 114/262/12 115/263/12 117/264/12 116/265/12
f 127/266/9 125/267/9 122/268/9
f 114/269/3 119/270/3 120/271/3 115/272/3
f 115/273/9 120/274/9 121/275/9 117/276/9
f 116/277/5 118/278/5 119/279/5 114/280/5
f 117/264/2 121/281/2 118/282/2 116/265/2
f 121/281/22 125/283/22 124/284/22 118/282/22
f 133/285/3 129/286/3 128/287/3 132/288/3
f 120/274/9 122/268/9 125/267/9 121/275/9
f 119/270/25 123/289/25 122/290/25 120/271/25
f 119/279/5 118/278/5 124/291/5 123/292/5
f 126/293/5 123/292/5 124/291/5
f 130/294/25 128/287/25 129/286/25 131/295/25
f 132/296/9 128/297/9 130/298/9 134/299/9
f 135/300/5 131/301/5 129/302/5 133/303/5
f 126/293/5 135/300/5 133/303/5 123/292/5
f 122/268/9 132/296/9 134/299/9 127/266/9
f 123/289/3 133/285/3 132/288/3 122/290/3
f 124/284/2 125/283/2 127/304/2 126/305/2
f 127/304/12 137/306/12 136/307/12 126/305/12
f 127/308/9 134/309/9 137/310/9
f 135/311/5 126/312/5 136/313/5
f 138/314/9 139/315/9 141/316/9 140/317/9
f 151/318/16 149/319/16 146/320/16
f 138/321/3 143/322/3 144/323/3 139/324/3
f 139/325/16 144/326/16 145/327/16 141/328/16
f 140/329/12 142/330/12 143/331/12 138/332/12
f 141/316/2 145/333/2 142/334/2 140/317/2
f 145/333/1 149/335/1 148/336/1 142/334/1
f 157/337/3 153/338/3 152/339/3 156/340/3
f 144/326/16 146/320/16 149/319/16 145/327/16
f 143/322/7 147/341/7 146/342/7 144/323/7
f 143/331/12 142/330/12 148/343/12 147/344/12
f 150/345/12 147/344/12 148/343/12
f 154/346/7 152/339/7 153/338/7 155/347/7
f 156/348/16 152/349/16 154/350/16 158/351/16
f 159/352/12 155/353/12 153/354/12 157/355/12
f 150/345/12 159/352/12 157/355/12 147/344/12
f 146/320/16 156/348/16 158/351/16 151/318/16
f 147/341/3 157/337/3 156/340/3 146/342/3
f 148/336/2 149/335/2 151/356/2 150/357/2
f 151/356/9 161/358/9 160/359/9 150/357/9
f 151/360/16 158/361/16 161/362/16
f 159/363/12 150/364/12 160/365/12
f 162/366/16 163/367/16 165/368/16 164/369/16
f 175/370/5 173/371/5 170/372/5
f 162/373/3 167/374/3 168/375/3 163/376/3
f 163/377/5 168/378/5 169/379/5 165/380/5
f 164/381/9 166/382/9 167/383/9 162/384/9
f 165/368/2 169/385/2 166/386/2 164/369/2
f 169/385/10 173/387/10 172/388/10 166/386/10
f 181/389/3 177/390/3 176/391/3 180/392/3
f 168/378/5 170/372/5 173/371/5 169/379/5
f 167/374/14 171/393/14 170/394/14 168/375/14
f 167/383/9 166/382/9 172/395/9 171/396/9
f 174/397/9 171/396/9 172/395/9
f 178/398/14 176/391/14 177/390/14 179/399/14
f 180/400/5 176/401/5 178/402/5 182/403/5
f 183/404/9 179/405/9 177/406/9 181/407/9
f 174/397/9 183/404/9 181/407/9 171/396/9
f 170/372/5 180/400/5 182/403/5 175/370/5
f 171/393/3 181/389/3 180/392/3 170/394/3
f 172/388/2 173/387/2 175/408/2 174/409/2
f 175/408/16 185/410/16 184/411/16 174/409/16
f 175/412/5 182/413/5 185/414/5
f 183/415/9 174/416/9 184/417/9
