# Blender v2.80 (sub 75) OBJ File: 'chem devices.blend'
# www.blender.org
mtllib covetous_coffer_inventory.mtl
o COVETOUS_COFFER_BODY_Cube.186
v 0.875000 0.000000 0.125000
v 0.812500 0.375000 0.187500
v 0.875000 0.000000 0.875000
v 0.812500 0.375000 0.812500
v 0.125000 0.000000 0.125000
v 0.187500 0.375000 0.187500
v 0.125000 0.000000 0.875000
v 0.187500 0.375000 0.812500
v 0.875000 0.375000 0.125000
v 0.875000 0.375000 0.875000
v 0.125000 0.375000 0.875000
v 0.125000 0.375000 0.125000
v 0.812500 0.250000 0.187500
v 0.812500 0.250000 0.812500
v 0.187500 0.250000 0.812500
v 0.187500 0.250000 0.187500
v 0.937500 0.125000 0.062500
v 0.937500 0.125000 0.937500
v 0.062500 0.125000 0.937500
v 0.062500 0.125000 0.062500
v 0.500000 0.250000 0.500000
v 0.468750 0.250000 0.218750
v 0.468750 0.250000 0.468750
v 0.218750 0.250000 0.468750
v 0.218750 0.250000 0.218750
v 0.375000 0.312500 0.375000
v 0.312500 0.312500 0.375000
v 0.312500 0.312500 0.312500
v 0.375000 0.312500 0.312500
v 0.468750 0.312500 0.468750
v 0.218750 0.312500 0.468750
v 0.218750 0.312500 0.218750
v 0.468750 0.312500 0.218750
v 0.406250 0.375000 0.406250
v 0.281250 0.375000 0.406250
v 0.281250 0.375000 0.281250
v 0.406250 0.375000 0.281250
v 0.937500 0.000000 0.937500
v 0.937500 0.000000 0.062500
v 0.062500 0.000000 0.937500
v 0.062500 0.000000 0.062500
v 0.781250 0.250000 0.218750
v 0.781250 0.250000 0.468750
v 0.531250 0.250000 0.468750
v 0.531250 0.250000 0.218750
v 0.687500 0.312500 0.375000
v 0.625000 0.312500 0.375000
v 0.625000 0.312500 0.312500
v 0.687500 0.312500 0.312500
v 0.781250 0.312500 0.468750
v 0.531250 0.312500 0.468750
v 0.531250 0.312500 0.218750
v 0.781250 0.312500 0.218750
v 0.718750 0.375000 0.406250
v 0.593750 0.375000 0.406250
v 0.593750 0.375000 0.281250
v 0.718750 0.375000 0.281250
v 0.468750 0.250000 0.531250
v 0.468750 0.250000 0.781250
v 0.218750 0.250000 0.781250
v 0.218750 0.250000 0.531250
v 0.375000 0.312500 0.687500
v 0.312500 0.312500 0.687500
v 0.312500 0.312500 0.625000
v 0.375000 0.312500 0.625000
v 0.468750 0.312500 0.781250
v 0.218750 0.312500 0.781250
v 0.218750 0.312500 0.531250
v 0.468750 0.312500 0.531250
v 0.406250 0.375000 0.718750
v 0.281250 0.375000 0.718750
v 0.281250 0.375000 0.593750
v 0.406250 0.375000 0.593750
v 0.781250 0.250000 0.531250
v 0.781250 0.250000 0.781250
v 0.531250 0.250000 0.781250
v 0.531250 0.250000 0.531250
v 0.687500 0.312500 0.687500
v 0.625000 0.312500 0.687500
v 0.625000 0.312500 0.625000
v 0.687500 0.312500 0.625000
v 0.781250 0.312500 0.781250
v 0.531250 0.312500 0.781250
v 0.531250 0.312500 0.531250
v 0.781250 0.312500 0.531250
v 0.718750 0.375000 0.718750
v 0.593750 0.375000 0.718750
v 0.593750 0.375000 0.593750
v 0.718750 0.375000 0.593750
vt 0.437500 0.250000
vt 0.406250 0.375000
vt 0.031250 0.375000
vt 0.000000 0.250000
vt 0.437500 0.437500
vt 0.406250 0.562500
vt 0.031250 0.562500
vt -0.000000 0.437500
vt 0.000000 0.250000
vt 0.031250 0.375000
vt 0.406250 0.375000
vt 0.437500 0.250000
vt 0.437500 0.062500
vt 0.406250 0.187500
vt 0.031250 0.187500
vt 0.000000 0.062500
vt 0.531250 0.062500
vt 0.562500 0.062500
vt 0.562500 0.093750
vt 0.531250 0.093750
vt 0.656250 0.093750
vt 0.968750 0.093750
vt 0.968750 0.031250
vt 0.656250 0.031250
vt 0.968750 0.093750
vt 0.656250 0.093750
vt 0.625000 0.125000
vt 1.000000 0.125000
vt 0.656250 0.187500
vt 0.968750 0.187500
vt 1.000000 0.218750
vt 0.625000 0.218750
vt 0.625000 0.125000
vt 1.000000 0.125000
vt 0.968750 0.031250
vt 0.656250 0.031250
vt 0.656250 0.125000
vt 0.968750 0.125000
vt 0.437500 0.000000
vt 0.000000 0.000000
vt 0.000000 0.187500
vt 0.437500 0.187500
vt 0.437500 0.375000
vt 0.000000 0.375000
vt 0.437500 0.187500
vt 0.000000 0.187500
vt 0.656250 0.218750
vt 0.968750 0.218750
vt 0.812500 0.375000
vt 0.656250 0.218750
vt 0.968750 0.218750
vt 0.562500 0.093750
vt 0.437500 0.093750
vt 0.437500 0.125000
vt 0.562500 0.125000
vt 0.437500 0.062500
vt 0.468750 0.062500
vt 0.468750 0.093750
vt 0.437500 0.093750
vt 0.562500 0.093750
vt 0.562500 0.125000
vt 0.562500 0.000000
vt 0.437500 0.000000
vt 0.437500 0.031250
vt 0.562500 0.031250
vt 0.437500 0.000000
vt 0.437500 0.031250
vt 0.531250 0.062500
vt 0.468750 0.062500
vt 0.531250 0.156250
vt 0.468750 0.156250
vt 0.468750 0.062500
vt 0.531250 0.156250
vt 0.515625 0.093750
vt 0.484375 0.093750
vt 0.515625 0.187500
vt 0.484375 0.187500
vt 0.484375 0.093750
vt 0.515625 0.187500
vt 0.593750 0.000000
vt 0.968750 -0.000000
vt 1.000000 0.031250
vt 0.562500 0.031250
vt 0.968750 0.000000
vt 1.000000 0.031250
vt 0.593750 -0.000000
vt 0.562500 0.031250
vt 0.562500 0.093750
vt 0.437500 0.093750
vt 0.437500 0.125000
vt 0.562500 0.125000
vt 0.437500 0.062500
vt 0.468750 0.062500
vt 0.468750 0.093750
vt 0.437500 0.093750
vt 0.562500 0.093750
vt 0.562500 0.125000
vt 0.562500 0.000000
vt 0.437500 0.000000
vt 0.437500 0.031250
vt 0.562500 0.031250
vt 0.437500 0.000000
vt 0.437500 0.031250
vt 0.531250 0.062500
vt 0.468750 0.062500
vt 0.531250 0.156250
vt 0.468750 0.156250
vt 0.468750 0.062500
vt 0.531250 0.156250
vt 0.515625 0.093750
vt 0.484375 0.093750
vt 0.515625 0.187500
vt 0.484375 0.187500
vt 0.484375 0.093750
vt 0.515625 0.187500
vt 0.562500 0.093750
vt 0.437500 0.093750
vt 0.437500 0.125000
vt 0.562500 0.125000
vt 0.437500 0.062500
vt 0.468750 0.062500
vt 0.468750 0.093750
vt 0.437500 0.093750
vt 0.562500 0.093750
vt 0.562500 0.125000
vt 0.562500 0.000000
vt 0.437500 0.000000
vt 0.437500 0.031250
vt 0.562500 0.031250
vt 0.437500 0.000000
vt 0.437500 0.031250
vt 0.531250 0.062500
vt 0.468750 0.062500
vt 0.531250 0.156250
vt 0.468750 0.156250
vt 0.468750 0.062500
vt 0.531250 0.156250
vt 0.515625 0.093750
vt 0.484375 0.093750
vt 0.515625 0.187500
vt 0.484375 0.187500
vt 0.484375 0.093750
vt 0.515625 0.187500
vt 0.562500 0.093750
vt 0.437500 0.093750
vt 0.437500 0.125000
vt 0.562500 0.125000
vt 0.437500 0.062500
vt 0.468750 0.062500
vt 0.468750 0.093750
vt 0.437500 0.093750
vt 0.562500 0.093750
vt 0.562500 0.125000
vt 0.562500 0.000000
vt 0.437500 0.000000
vt 0.437500 0.031250
vt 0.562500 0.031250
vt 0.437500 0.000000
vt 0.437500 0.031250
vt 0.531250 0.062500
vt 0.468750 0.062500
vt 0.531250 0.156250
vt 0.468750 0.156250
vt 0.468750 0.062500
vt 0.531250 0.156250
vt 0.515625 0.093750
vt 0.484375 0.093750
vt 0.515625 0.187500
vt 0.484375 0.187500
vt 0.484375 0.093750
vt 0.515625 0.187500
vn 0.9701 0.2425 0.0000
vn 0.0000 0.2425 0.9701
vn -0.9701 0.2425 0.0000
vn 0.0000 0.2425 -0.9701
vn 0.0000 -1.0000 0.0000
vn 1.0000 0.0000 0.0000
vn 0.0000 1.0000 0.0000
vn -1.0000 0.0000 0.0000
vn 0.0000 0.0000 1.0000
vn 0.0000 0.0000 -1.0000
vn 0.0000 0.7071 0.7071
vn -0.7071 0.7071 0.0000
vn 0.7071 0.7071 -0.0000
vn 0.0000 0.7071 -0.7071
vn 0.0000 0.4472 -0.8944
vn 0.8944 0.4472 0.0000
vn -0.8944 0.4472 0.0000
vn 0.0000 0.4472 0.8944
usemtl COVETOUS_COFFER
s off
f 17/1/1 9/2/1 10/3/1 18/4/1
f 18/5/2 10/6/2 11/7/2 19/8/2
f 19/9/3 11/10/3 12/11/3 20/12/3
f 20/13/4 12/14/4 9/15/4 17/16/4
f 3/17/5 7/18/5 5/19/5 1/20/5
f 6/21/6 8/22/6 15/23/6 16/24/6
f 2/25/7 4/26/7 10/27/7 9/28/7
f 4/29/7 8/30/7 11/31/7 10/32/7
f 8/22/7 6/21/7 12/33/7 11/34/7
f 6/21/7 2/25/7 9/28/7 12/33/7
f 4/26/8 2/25/8 13/35/8 14/36/8
f 2/25/9 6/21/9 16/24/9 13/35/9
f 8/30/10 4/29/10 14/37/10 15/38/10
f 41/39/10 20/13/10 17/16/10 39/40/10
f 40/41/8 19/9/8 20/12/8 41/42/8
f 38/43/9 18/5/9 19/8/9 40/44/9
f 39/45/6 17/1/6 18/4/6 38/46/6
f 15/47/7 14/48/7 21/49/7
f 14/48/7 13/50/7 21/49/7
f 13/50/7 16/51/7 21/49/7
f 16/51/7 15/47/7 21/49/7
f 22/52/10 25/53/10 32/54/10 33/55/10
f 27/56/7 26/57/7 29/58/7 28/59/7
f 25/53/8 24/60/8 31/61/8 32/54/8
f 23/62/6 22/63/6 33/64/6 30/65/6
f 24/66/9 23/62/9 30/65/9 31/67/9
f 34/68/11 35/69/11 31/67/11 30/65/11
f 35/70/12 36/71/12 32/54/12 31/61/12
f 37/72/13 34/68/13 30/65/13 33/64/13
f 36/71/14 37/73/14 33/55/14 32/54/14
f 26/74/15 27/75/15 35/69/15 34/68/15
f 27/76/16 28/77/16 36/71/16 35/70/16
f 29/78/17 26/74/17 34/68/17 37/72/17
f 28/77/18 29/79/18 37/73/18 36/71/18
f 3/80/5 1/81/5 39/82/5 38/83/5
f 7/84/5 3/80/5 38/83/5 40/85/5
f 5/86/5 7/84/5 40/85/5 41/87/5
f 1/81/5 5/86/5 41/87/5 39/82/5
f 42/88/10 45/89/10 52/90/10 53/91/10
f 47/92/7 46/93/7 49/94/7 48/95/7
f 45/89/8 44/96/8 51/97/8 52/90/8
f 43/98/6 42/99/6 53/100/6 50/101/6
f 44/102/9 43/98/9 50/101/9 51/103/9
f 54/104/11 55/105/11 51/103/11 50/101/11
f 55/106/12 56/107/12 52/90/12 51/97/12
f 57/108/13 54/104/13 50/101/13 53/100/13
f 56/107/14 57/109/14 53/91/14 52/90/14
f 46/110/15 47/111/15 55/105/15 54/104/15
f 47/112/16 48/113/16 56/107/16 55/106/16
f 49/114/17 46/110/17 54/104/17 57/108/17
f 48/113/18 49/115/18 57/109/18 56/107/18
f 58/116/10 61/117/10 68/118/10 69/119/10
f 63/120/7 62/121/7 65/122/7 64/123/7
f 61/117/8 60/124/8 67/125/8 68/118/8
f 59/126/6 58/127/6 69/128/6 66/129/6
f 60/130/9 59/126/9 66/129/9 67/131/9
f 70/132/11 71/133/11 67/131/11 66/129/11
f 71/134/12 72/135/12 68/118/12 67/125/12
f 73/136/13 70/132/13 66/129/13 69/128/13
f 72/135/14 73/137/14 69/119/14 68/118/14
f 62/138/15 63/139/15 71/133/15 70/132/15
f 63/140/16 64/141/16 72/135/16 71/134/16
f 65/142/17 62/138/17 70/132/17 73/136/17
f 64/141/18 65/143/18 73/137/18 72/135/18
f 74/144/10 77/145/10 84/146/10 85/147/10
f 79/148/7 78/149/7 81/150/7 80/151/7
f 77/145/8 76/152/8 83/153/8 84/146/8
f 75/154/6 74/155/6 85/156/6 82/157/6
f 76/158/9 75/154/9 82/157/9 83/159/9
f 86/160/11 87/161/11 83/159/11 82/157/11
f 87/162/12 88/163/12 84/146/12 83/153/12
f 89/164/13 86/160/13 82/157/13 85/156/13
f 88/163/14 89/165/14 85/147/14 84/146/14
f 78/166/15 79/167/15 87/161/15 86/160/15
f 79/168/16 80/169/16 88/163/16 87/162/16
f 81/170/17 78/166/17 86/160/17 89/164/17
f 80/169/18 81/171/18 89/165/18 88/163/18
o COVETOUS_COFFER_LID_Cube.187
v 0.125000 0.500000 0.125000
v 0.187500 0.375000 0.187500
v 0.125000 0.500000 0.875000
v 0.187500 0.375000 0.812500
v 0.875000 0.500000 0.125000
v 0.812500 0.375000 0.187500
v 0.875000 0.500000 0.875000
v 0.812500 0.375000 0.812500
v 0.125000 0.375000 0.125000
v 0.125000 0.375000 0.875000
v 0.875000 0.375000 0.875000
v 0.875000 0.375000 0.125000
v 0.187500 0.437500 0.187500
v 0.187500 0.437500 0.812500
v 0.812500 0.437500 0.812500
v 0.812500 0.437500 0.187500
v 0.562500 0.312500 0.875000
v 0.562500 0.437500 0.875000
v 0.531250 0.312500 0.937500
v 0.531250 0.437500 0.937500
v 0.437500 0.312500 0.875000
v 0.437500 0.437500 0.875000
v 0.468750 0.312500 0.937500
v 0.468750 0.437500 0.937500
vt 0.375000 0.937500
vt 0.375000 0.875000
vt 0.750000 0.875000
vt 0.750000 0.937500
vt 0.375000 1.000000
vt 0.375000 0.937500
vt 0.750000 0.937500
vt 0.750000 1.000000
vt 0.750000 0.937500
vt 0.750000 0.875000
vt 0.375000 0.875000
vt 0.375000 0.937500
vt 0.750000 0.875000
vt 0.750000 0.812500
vt 0.375000 0.812500
vt 0.375000 0.875000
vt 0.000000 0.625000
vt 0.375000 0.625000
vt 0.375000 1.000000
vt 0.000000 1.000000
vt 0.031250 0.593750
vt 0.343750 0.593750
vt 0.343750 0.625000
vt 0.031250 0.625000
vt 0.343750 0.593750
vt 0.031250 0.593750
vt 0.000000 0.562500
vt 0.375000 0.562500
vt 0.343750 0.593750
vt 0.031250 0.593750
vt 0.000000 0.562500
vt 0.375000 0.562500
vt 0.000000 0.562500
vt 0.375000 0.562500
vt 0.343750 0.593750
vt 0.031250 0.593750
vt 0.000000 0.562500
vt 0.375000 0.562500
vt 0.750000 0.812500
vt 0.437500 0.812500
vt 0.437500 0.500000
vt 0.750000 0.500000
vt 0.343750 0.625000
vt 0.031250 0.625000
vt 0.343750 0.625000
vt 0.031250 0.625000
vt 0.343750 0.625000
vt 0.031250 0.625000
vt 0.375000 0.718750
vt 0.437500 0.718750
vt 0.437500 0.750000
vt 0.375000 0.750000
vt 0.437500 0.781250
vt 0.375000 0.781250
vt 0.437500 0.812500
vt 0.375000 0.812500
vt 0.375000 0.656250
vt 0.437500 0.656250
vt 0.421875 0.625000
vt 0.390625 0.625000
vt 0.375000 0.593750
vt 0.437500 0.593750
vt 0.421875 0.656250
vt 0.390625 0.656250
vt 0.375000 0.625000
vt 0.437500 0.625000
vn -1.0000 0.0000 0.0000
vn 0.0000 0.0000 1.0000
vn 1.0000 0.0000 -0.0000
vn -0.0000 0.0000 -1.0000
vn -0.0000 1.0000 0.0000
vn 0.0000 -1.0000 0.0000
vn 0.8944 0.0000 0.4472
vn -0.8944 0.0000 0.4472
usemtl COVETOUS_COFFER
s off
f 90/172/19 98/173/19 99/174/19 92/175/19
f 92/176/20 99/177/20 100/178/20 96/179/20
f 96/180/21 100/181/21 101/182/21 94/183/21
f 94/184/22 101/185/22 98/186/22 90/187/22
f 92/188/23 96/189/23 94/190/23 90/191/23
f 95/192/19 97/193/19 104/194/19 105/195/19
f 91/196/24 93/197/24 99/198/24 98/199/24
f 93/200/24 97/201/24 100/202/24 99/203/24
f 97/193/24 95/192/24 101/204/24 100/205/24
f 95/206/24 91/207/24 98/208/24 101/209/24
f 104/210/24 103/211/24 102/212/24 105/213/24
f 93/197/21 91/196/21 102/214/21 103/215/21
f 91/207/20 95/206/20 105/216/20 102/217/20
f 97/201/22 93/200/22 103/218/22 104/219/22
f 106/220/25 107/221/25 109/222/25 108/223/25
f 108/223/20 109/222/20 113/224/20 112/225/20
f 112/225/26 113/224/26 111/226/26 110/227/26
f 110/228/22 111/229/22 107/221/22 106/220/22
f 108/230/24 112/231/24 110/232/24 106/233/24
f 113/234/23 109/235/23 107/236/23 111/237/23
