# Blender v2.80 (sub 75) OBJ File: 'chem devices.blend'
# www.blender.org
mtllib covetous_coffer_lid.mtl
o COVETOUS_COFFER_LID_Cube.187
v -0.375000 0.125000 0.000000
v -0.312500 0.000000 0.062500
v -0.375000 0.125000 0.750000
v -0.312500 0.000000 0.687500
v 0.375000 0.125000 -0.000000
v 0.312500 0.000000 0.062500
v 0.375000 0.125000 0.750000
v 0.312500 0.000000 0.687500
v -0.375000 0.000000 0.000000
v -0.375000 0.000000 0.750000
v 0.375000 0.000000 0.750000
v 0.375000 0.000000 -0.000000
v -0.312500 0.062500 0.062500
v -0.312500 0.062500 0.687500
v 0.312500 0.062500 0.687500
v 0.312500 0.062500 0.062500
v 0.062500 -0.062500 0.750000
v 0.062500 0.062500 0.750000
v 0.031250 -0.062500 0.812500
v 0.031250 0.062500 0.812500
v -0.062500 -0.062500 0.750000
v -0.062500 0.062500 0.750000
v -0.031250 -0.062500 0.812500
v -0.031250 0.062500 0.812500
vt 0.375000 0.937500
vt 0.375000 0.875000
vt 0.750000 0.875000
vt 0.750000 0.937500
vt 0.375000 1.000000
vt 0.375000 0.937500
vt 0.750000 0.937500
vt 0.750000 1.000000
vt 0.750000 0.937500
vt 0.750000 0.875000
vt 0.375000 0.875000
vt 0.375000 0.937500
vt 0.750000 0.875000
vt 0.750000 0.812500
vt 0.375000 0.812500
vt 0.375000 0.875000
vt 0.000000 0.625000
vt 0.375000 0.625000
vt 0.375000 1.000000
vt 0.000000 1.000000
vt 0.031250 0.593750
vt 0.343750 0.593750
vt 0.343750 0.625000
vt 0.031250 0.625000
vt 0.343750 0.593750
vt 0.031250 0.593750
vt 0.000000 0.562500
vt 0.375000 0.562500
vt 0.343750 0.593750
vt 0.031250 0.593750
vt 0.000000 0.562500
vt 0.375000 0.562500
vt 0.000000 0.562500
vt 0.375000 0.562500
vt 0.343750 0.593750
vt 0.031250 0.593750
vt 0.000000 0.562500
vt 0.375000 0.562500
vt 0.750000 0.812500
vt 0.437500 0.812500
vt 0.437500 0.500000
vt 0.750000 0.500000
vt 0.343750 0.625000
vt 0.031250 0.625000
vt 0.343750 0.625000
vt 0.031250 0.625000
vt 0.343750 0.625000
vt 0.031250 0.625000
vt 0.375000 0.718750
vt 0.437500 0.718750
vt 0.437500 0.750000
vt 0.375000 0.750000
vt 0.437500 0.781250
vt 0.375000 0.781250
vt 0.437500 0.812500
vt 0.375000 0.812500
vt 0.375000 0.656250
vt 0.437500 0.656250
vt 0.421875 0.625000
vt 0.390625 0.625000
vt 0.375000 0.593750
vt 0.437500 0.593750
vt 0.421875 0.656250
vt 0.390625 0.656250
vt 0.375000 0.625000
vt 0.437500 0.625000
vn -1.0000 0.0000 0.0000
vn 0.0000 0.0000 1.0000
vn 1.0000 0.0000 -0.0000
vn -0.0000 0.0000 -1.0000
vn -0.0000 1.0000 0.0000
vn 0.0000 -1.0000 0.0000
vn 0.8944 0.0000 0.4472
vn -0.8944 0.0000 0.4472
usemtl COVETOUS_COFFER
s off
f 1/1/1 9/2/1 10/3/1 3/4/1
f 3/5/2 10/6/2 11/7/2 7/8/2
f 7/9/3 11/10/3 12/11/3 5/12/3
f 5/13/4 12/14/4 9/15/4 1/16/4
f 3/17/5 7/18/5 5/19/5 1/20/5
f 6/21/1 8/22/1 15/23/1 16/24/1
f 2/25/6 4/26/6 10/27/6 9/28/6
f 4/29/6 8/30/6 11/31/6 10/32/6
f 8/22/6 6/21/6 12/33/6 11/34/6
f 6/35/6 2/36/6 9/37/6 12/38/6
f 15/39/6 14/40/6 13/41/6 16/42/6
f 4/26/3 2/25/3 13/43/3 14/44/3
f 2/36/2 6/35/2 16/45/2 13/46/2
f 8/30/4 4/29/4 14/47/4 15/48/4
f 17/49/7 18/50/7 20/51/7 19/52/7
f 19/52/2 20/51/2 24/53/2 23/54/2
f 23/54/8 24/53/8 22/55/8 21/56/8
f 21/57/4 22/58/4 18/50/4 17/49/4
f 19/59/6 23/60/6 21/61/6 17/62/6
f 24/63/5 20/64/5 18/65/5 22/66/5
