# Blender v2.80 (sub 75) OBJ File: 'equipment.blend'
# www.blender.org
mtllib crown_of_glory.mtl
o CROWN_OF_GLORY_Cube.003
v 0.250000 0.375900 0.312500
v 0.250000 0.438400 0.312500
v 0.187500 0.375900 0.187500
v 0.187500 0.438400 0.187500
v 0.312500 0.375900 0.250000
v 0.312500 0.438400 0.250000
v 0.125000 0.375900 0.187500
v 0.125000 0.375900 0.312500
v 0.125000 0.438400 0.312500
v 0.125000 0.438400 0.187500
v 0.062500 0.375900 0.250000
v 0.062500 0.438400 0.250000
v 0.187500 0.438400 -0.187500
v 0.187500 0.375900 -0.187500
v 0.312500 0.375900 -0.250000
v 0.312500 0.438400 -0.250000
v 0.250000 0.438400 -0.312500
v 0.250000 0.375900 -0.312500
v -0.187500 0.438400 -0.187500
v -0.187500 0.375900 -0.187500
v -0.250000 0.438400 -0.312500
v -0.250000 0.375900 -0.312500
v -0.312500 0.438400 -0.250000
v -0.312500 0.375900 -0.250000
v -0.187500 0.438400 0.187500
v -0.187500 0.375900 0.187500
v -0.312500 0.438400 0.250000
v -0.312500 0.375900 0.250000
v -0.250000 0.438400 0.312500
v -0.250000 0.375900 0.312500
v -0.125000 0.438400 0.187500
v -0.125000 0.375900 0.187500
v -0.125000 0.438400 0.312500
v -0.125000 0.375900 0.312500
v -0.062500 0.438400 0.250000
v -0.062500 0.375900 0.250000
v 0.000000 0.407150 0.369638
v 0.000000 0.469650 0.369638
v -0.088388 0.407150 0.281250
v -0.088388 0.469650 0.281250
v 0.088388 0.407150 0.281250
v 0.088388 0.469650 0.281250
v 0.000000 0.407150 0.192862
v 0.000000 0.469650 0.192862
v 0.000000 0.469650 0.356694
v 0.000000 0.594650 0.356694
v -0.044194 0.469650 0.312500
v -0.044194 0.594650 0.312500
v 0.044194 0.469650 0.312500
v 0.044194 0.594650 0.312500
v 0.000000 0.469650 0.268306
v 0.000000 0.594650 0.268306
v 0.000000 0.657150 0.312500
v 0.000000 0.344650 0.312500
v 0.000000 0.407150 0.356694
v -0.044194 0.407150 0.312500
v 0.044194 0.407150 0.312500
v 0.000000 0.407150 0.268306
v 0.156250 0.469650 0.281250
v 0.156250 0.469650 0.218750
v 0.281250 0.438400 0.250000
v 0.281250 0.469650 0.250000
v 0.218750 0.469650 0.218750
v 0.218750 0.438400 0.218750
v 0.250000 0.438400 0.281250
v 0.250000 0.469650 0.281250
v 0.125000 0.438400 0.281250
v 0.125000 0.438400 0.218750
v 0.218750 0.438400 -0.218750
v 0.218750 0.469650 -0.218750
v 0.281250 0.469650 -0.250000
v 0.281250 0.438400 -0.250000
v 0.250000 0.438400 -0.281250
v 0.250000 0.469650 -0.281250
v -0.218745 0.438400 -0.218750
v -0.218745 0.469650 -0.218750
v -0.250000 0.438400 -0.281250
v -0.250000 0.469650 -0.281250
v -0.281250 0.438400 -0.250000
v -0.281250 0.469650 -0.250000
v -0.218745 0.438400 0.218750
v -0.218745 0.469650 0.218750
v -0.281250 0.438400 0.250000
v -0.281250 0.469650 0.250000
v -0.250000 0.438400 0.281250
v -0.250000 0.469650 0.281250
v -0.125000 0.438400 0.218750
v -0.156250 0.469650 0.218750
v -0.125000 0.438400 0.281250
v -0.156250 0.469650 0.281250
v -0.039062 0.469650 0.325444
v -0.039062 0.532150 0.325444
v 0.005132 0.469650 0.281250
v 0.005132 0.532150 0.281250
v -0.083257 0.469650 0.281250
v -0.083257 0.532150 0.281250
v -0.039062 0.469650 0.237056
v -0.039062 0.532150 0.237056
v -0.039062 0.563400 0.281250
v 0.197941 0.566449 -0.452368
v 0.255758 0.542726 -0.453229
v 0.218593 0.532084 -0.387161
v 0.272634 0.582209 -0.407813
v 0.214817 0.605931 -0.406953
v 0.339231 0.753950 -0.667876
v 0.281414 0.777672 -0.667015
v 0.298290 0.817155 -0.621599
v 0.356106 0.793432 -0.622460
v 0.335455 0.827797 -0.687667
v 0.295658 0.518330 -0.446846
v 0.341002 0.478976 -0.429483
v 0.287204 0.490133 -0.376186
v 0.357878 0.518459 -0.384067
v 0.312534 0.557812 -0.401430
v 0.499261 0.592021 -0.586566
v 0.453917 0.631374 -0.603929
v 0.470793 0.670857 -0.558513
v 0.516137 0.631503 -0.541150
v 0.524592 0.659700 -0.611810
v 0.367968 0.445341 -0.410262
v 0.392343 0.397731 -0.377929
v 0.333573 0.432295 -0.343134
v 0.409219 0.437214 -0.332513
v 0.384844 0.484824 -0.364846
v 0.557406 0.424676 -0.462690
v 0.533031 0.472286 -0.495022
v 0.549907 0.511769 -0.449607
v 0.574282 0.464159 -0.417274
v 0.608678 0.477205 -0.484402
v 0.401322 0.361159 -0.349471
v 0.400160 0.314214 -0.308227
v 0.349011 0.369408 -0.294199
v 0.417036 0.353697 -0.262811
v 0.418198 0.400642 -0.304055
v 0.520495 0.290253 -0.332111
v 0.521656 0.337198 -0.373355
v 0.538532 0.376681 -0.327939
v 0.537371 0.329736 -0.286695
v 0.589681 0.321486 -0.341967
v 0.389469 0.281559 -0.275865
v 0.362988 0.244075 -0.233439
v 0.330627 0.313256 -0.238551
v 0.379864 0.283558 -0.188023
v 0.406344 0.321041 -0.230450
v 0.417027 0.213377 -0.226831
v 0.443508 0.250861 -0.269258
v 0.460384 0.290343 -0.223842
v 0.433903 0.252860 -0.181416
v 0.492744 0.221163 -0.218729
v -0.197941 0.566449 -0.452368
v -0.255758 0.542726 -0.453229
v -0.218593 0.532084 -0.387161
v -0.272634 0.582209 -0.407813
v -0.214817 0.605931 -0.406953
v -0.339231 0.753950 -0.667876
v -0.281414 0.777672 -0.667015
v -0.298290 0.817155 -0.621599
v -0.356106 0.793432 -0.622460
v -0.335455 0.827797 -0.687667
v -0.295658 0.518330 -0.446846
v -0.341002 0.478976 -0.429483
v -0.287204 0.490133 -0.376186
v -0.357878 0.518459 -0.384067
v -0.312534 0.557812 -0.401430
v -0.499261 0.592021 -0.586566
v -0.453917 0.631374 -0.603929
v -0.470793 0.670857 -0.558513
v -0.516137 0.631503 -0.541150
v -0.524592 0.659700 -0.611810
v -0.367968 0.445341 -0.410262
v -0.392343 0.397731 -0.377929
v -0.333573 0.432295 -0.343134
v -0.409219 0.437214 -0.332513
v -0.384844 0.484824 -0.364846
v -0.557406 0.424676 -0.462690
v -0.533031 0.472286 -0.495022
v -0.549907 0.511769 -0.449607
v -0.574282 0.464159 -0.417274
v -0.608678 0.477205 -0.484402
v -0.401322 0.361159 -0.349471
v -0.400160 0.314214 -0.308227
v -0.349011 0.369408 -0.294199
v -0.417036 0.353697 -0.262811
v -0.418198 0.400642 -0.304055
v -0.520495 0.290253 -0.332111
v -0.521656 0.337198 -0.373355
v -0.538532 0.376681 -0.327939
v -0.537371 0.329736 -0.286695
v -0.589681 0.321486 -0.341967
v -0.389469 0.281559 -0.275865
v -0.362988 0.244075 -0.233439
v -0.330627 0.313256 -0.238551
v -0.379864 0.283558 -0.188023
v -0.406344 0.321041 -0.230450
v -0.417027 0.213377 -0.226831
v -0.443508 0.250861 -0.269258
v -0.460384 0.290343 -0.223842
v -0.433903 0.252860 -0.181416
v -0.492744 0.221163 -0.218729
v 0.039062 0.469650 0.325444
v 0.039062 0.532150 0.325444
v -0.005132 0.469650 0.281250
v -0.005132 0.532150 0.281250
v 0.083257 0.469650 0.281250
v 0.083257 0.532150 0.281250
v 0.039062 0.469650 0.237056
v 0.039062 0.532150 0.237056
v 0.039062 0.563400 0.281250
v 0.156250 0.344650 0.281250
v 0.156250 0.344650 0.218750
v 0.281250 0.375900 0.250000
v 0.281250 0.344650 0.250000
v 0.218750 0.344650 0.218750
v 0.218750 0.375900 0.218750
v 0.250000 0.375900 0.281250
v 0.250000 0.344650 0.281250
v 0.125000 0.375900 0.281250
v 0.125000 0.375900 0.218750
v 0.218750 0.375900 -0.218750
v 0.218750 0.344650 -0.218750
v 0.281250 0.344650 -0.250000
v 0.281250 0.375900 -0.250000
v 0.250000 0.375900 -0.281250
v 0.250000 0.344650 -0.281250
v -0.218745 0.375900 -0.218750
v -0.218745 0.344650 -0.218750
v -0.250000 0.375900 -0.281250
v -0.250000 0.344650 -0.281250
v -0.281250 0.375900 -0.250000
v -0.281250 0.344650 -0.250000
v -0.218745 0.375900 0.218750
v -0.218745 0.344650 0.218750
v -0.281250 0.375900 0.250000
v -0.281250 0.344650 0.250000
v -0.250000 0.375900 0.281250
v -0.250000 0.344650 0.281250
v -0.125000 0.375900 0.218750
v -0.156250 0.344650 0.218750
v -0.125000 0.375900 0.281250
v -0.156250 0.344650 0.281250
vt 0.875000 0.437500
vt 0.937500 0.500000
vt 0.937500 0.562500
vt 0.875000 0.562500
vt 0.812500 0.937500
vt 0.750000 0.875000
vt 0.750000 0.500000
vt 0.812500 0.437500
vt 0.812500 0.375000
vt 0.875000 0.375000
vt 0.812500 0.437500
vt 0.750000 0.437500
vt 0.937500 0.437500
vt 0.875000 0.562500
vt 0.812500 0.562500
vt 0.812500 0.625000
vt 0.875000 0.625000
vt 0.750000 0.500000
vt 0.812500 0.562500
vt 0.750000 0.562500
vt 0.937500 0.312500
vt 1.000000 0.312500
vt 1.000000 0.375000
vt 0.937500 0.375000
vt 0.906250 0.593750
vt 0.937500 0.562500
vt 0.875000 0.562500
vt 0.906250 0.593750
vt 0.937500 0.875000
vt 0.875000 0.937500
vt 0.875000 0.437500
vt 0.937500 0.500000
vt 0.937500 0.687500
vt 1.000000 0.687500
vt 1.000000 0.312500
vt 0.937500 0.312500
vt 0.812500 0.375000
vt 0.875000 0.375000
vt 0.750000 0.437500
vt 0.937500 0.437500
vt 0.812500 0.937500
vt 0.750000 0.875000
vt 0.750000 0.500000
vt 0.812500 0.437500
vt 0.750000 0.437500
vt 0.812500 0.375000
vt 0.875000 0.937500
vt 0.875000 0.437500
vt 0.937500 0.875000
vt 0.937500 0.500000
vt 0.937500 0.687500
vt 1.000000 0.687500
vt 1.000000 0.312500
vt 0.937500 0.312500
vt 0.875000 0.375000
vt 0.937500 0.687500
vt 1.000000 0.687500
vt 1.000000 0.312500
vt 0.937500 0.312500
vt 0.937500 0.437500
vt 0.812500 0.437500
vt 0.750000 0.437500
vt 0.812500 0.375000
vt 0.937500 0.875000
vt 0.875000 0.937500
vt 0.875000 0.437500
vt 0.937500 0.500000
vt 0.812500 0.937500
vt 0.750000 0.875000
vt 0.750000 0.500000
vt 0.875000 0.937500
vt 0.812500 0.937500
vt 0.812500 0.812500
vt 0.875000 0.812500
vt 0.937500 0.437500
vt 0.875000 0.375000
vt 0.937500 0.812500
vt 0.906250 0.781250
vt 1.000000 0.687500
vt 0.937500 0.687500
vt 0.937500 0.625000
vt 1.000000 0.625000
vt 0.937500 0.875000
vt 0.750000 0.875000
vt 0.750000 0.812500
vt 0.812500 0.750000
vt 0.875000 0.750000
vt 0.875000 0.812500
vt 0.937500 0.812500
vt 0.906250 0.781250
vt 0.812500 0.812500
vt 0.875000 0.812500
vt 0.875000 0.062500
vt 0.937500 0.062500
vt 0.937500 0.187500
vt 0.875000 0.187500
vt 0.937500 0.187500
vt 0.875000 0.187500
vt 0.875000 0.312500
vt 0.937500 0.312500
vt 0.875000 0.187500
vt 0.937500 0.187500
vt 0.875000 0.187500
vt 0.937500 0.187500
vt 0.750000 0.312500
vt 0.875000 0.312500
vt 0.750000 0.187500
vt 0.875000 0.187500
vt 0.750000 0.187500
vt 0.750000 0.062500
vt 0.875000 0.062500
vt 0.625000 0.156250
vt 0.656250 0.156250
vt 0.656250 0.187500
vt 0.625000 0.187500
vt 0.687500 1.000000
vt 0.625000 0.937500
vt 0.687500 0.937500
vt 0.625000 0.875000
vt 0.687500 0.875000
vt 0.562500 0.968750
vt 0.562500 0.875000
vt 0.625000 0.906250
vt 0.625000 0.968750
vt 0.625000 0.000000
vt 0.625000 0.093750
vt 0.562500 0.125000
vt 0.562500 0.000000
vt 0.656250 0.031250
vt 0.656250 0.093750
vt 0.625000 0.875000
vt 0.687500 0.875000
vt 0.687500 0.937500
vt 0.625000 0.937500
vt 0.625000 0.531250
vt 0.625000 0.968750
vt 0.562500 0.968750
vt 0.562500 0.531250
vt 0.562500 0.500000
vt 0.562500 0.000000
vt 0.625000 0.000000
vt 0.625000 0.500000
vt 0.656250 0.031250
vt 0.656250 0.468750
vt 0.687500 1.000000
vt 0.625000 0.500000
vt 0.625000 0.000000
vt 0.656250 0.031250
vt 0.656250 0.468750
vt 0.625000 0.937500
vt 0.687500 0.937500
vt 0.687500 1.000000
vt 0.562500 0.500000
vt 0.562500 0.000000
vt 0.625000 0.531250
vt 0.625000 0.968750
vt 0.562500 0.968750
vt 0.562500 0.531250
vt 0.625000 0.875000
vt 0.687500 0.875000
vt 0.562500 0.531250
vt 0.562500 0.968750
vt 0.625000 0.968750
vt 0.625000 0.531250
vt 0.625000 0.937500
vt 0.687500 0.937500
vt 0.687500 1.000000
vt 0.625000 0.500000
vt 0.625000 -0.000000
vt 0.656250 0.031250
vt 0.656250 0.468750
vt 0.562500 0.500000
vt 0.562500 -0.000000
vt 0.625000 0.875000
vt 0.687500 0.875000
vt 0.562500 0.500000
vt 0.562500 0.375000
vt 0.625000 0.406250
vt 0.625000 0.500000
vt 0.656250 0.312500
vt 0.625000 0.312500
vt 0.625000 0.343750
vt 0.656250 0.343750
vt 0.625000 0.531250
vt 0.625000 0.593750
vt 0.562500 0.625000
vt 0.562500 0.531250
vt 0.656250 0.406250
vt 0.656250 0.468750
vt 0.625000 0.156250
vt 0.625000 0.187500
vt 0.656250 0.187500
vt 0.656250 0.156250
vt 0.687500 1.000000
vt 0.687500 0.937500
vt 0.625000 0.937500
vt 0.687500 0.875000
vt 0.625000 0.875000
vt 0.562500 0.968750
vt 0.625000 0.968750
vt 0.625000 0.906250
vt 0.562500 0.875000
vt 0.625000 0.000000
vt 0.562500 0.000000
vt 0.562500 0.125000
vt 0.625000 0.093750
vt 0.656250 0.031250
vt 0.656250 0.093750
vt 0.625000 0.875000
vt 0.625000 0.937500
vt 0.687500 0.937500
vt 0.687500 0.875000
vt 0.625000 0.531250
vt 0.562500 0.531250
vt 0.562500 0.968750
vt 0.625000 0.968750
vt 0.562500 0.500000
vt 0.625000 0.500000
vt 0.625000 0.000000
vt 0.562500 0.000000
vt 0.656250 0.468750
vt 0.656250 0.031250
vt 0.687500 1.000000
vt 0.625000 0.500000
vt 0.656250 0.468750
vt 0.656250 0.031250
vt 0.625000 0.000000
vt 0.625000 0.937500
vt 0.687500 1.000000
vt 0.687500 0.937500
vt 0.562500 0.500000
vt 0.562500 0.000000
vt 0.625000 0.531250
vt 0.562500 0.531250
vt 0.562500 0.968750
vt 0.625000 0.968750
vt 0.687500 0.875000
vt 0.625000 0.875000
vt 0.562500 0.531250
vt 0.625000 0.531250
vt 0.625000 0.968750
vt 0.562500 0.968750
vt 0.625000 0.937500
vt 0.687500 1.000000
vt 0.687500 0.937500
vt 0.625000 0.500000
vt 0.656250 0.468750
vt 0.656250 0.031250
vt 0.625000 -0.000000
vt 0.562500 0.500000
vt 0.562500 -0.000000
vt 0.687500 0.875000
vt 0.625000 0.875000
vt 0.562500 0.500000
vt 0.625000 0.500000
vt 0.625000 0.406250
vt 0.562500 0.375000
vt 0.656250 0.312500
vt 0.656250 0.343750
vt 0.625000 0.343750
vt 0.625000 0.312500
vt 0.625000 0.531250
vt 0.562500 0.531250
vt 0.562500 0.625000
vt 0.625000 0.593750
vt 0.656250 0.468750
vt 0.656250 0.406250
vt 0.250000 0.375000
vt 0.375000 0.375000
vt 0.375000 0.312500
vt 0.250000 0.312500
vt 0.312500 0.312500
vt 0.437500 0.312500
vt 0.437500 0.375000
vt 0.312500 0.375000
vt 0.250000 0.375000
vt 0.375000 0.375000
vt 0.375000 0.312500
vt 0.250000 0.312500
vt 0.312500 0.312500
vt 0.437500 0.312500
vt 0.437500 0.375000
vt 0.312500 0.375000
vt 0.437500 0.375000
vt 0.187500 0.312500
vt 0.250000 0.375000
vt 0.187500 0.375000
vt 0.500000 0.375000
vt 0.187500 0.375000
vt 0.125000 0.375000
vt 0.125000 0.375000
vt 0.250000 0.375000
vt 0.250000 0.375000
vt 0.250000 0.312500
vt 0.312500 0.312500
vt 0.312500 0.375000
vt 0.250000 0.375000
vt 0.312500 0.375000
vt 0.312500 0.375000
vt 0.312500 0.312500
vt 0.375000 0.312500
vt 0.375000 0.375000
vt 0.187500 0.312500
vt 0.187500 0.375000
vt 0.250000 0.375000
vt 0.250000 0.312500
vt 0.375000 0.375000
vt 0.312500 0.375000
vt 0.437500 0.375000
vt 0.125000 0.312500
vt 0.187500 0.312500
vt 0.187500 0.375000
vt 0.187500 0.312500
vt 0.187500 0.375000
vt 0.187500 0.312500
vt 0.187500 0.375000
vt 0.187500 0.312500
vt 0.187500 0.375000
vt 0.500000 0.312500
vt 0.500000 0.375000
vt 0.437500 0.375000
vt 0.500000 0.375000
vt 0.437500 0.437500
vt 0.500000 0.312500
vt 0.500000 0.375000
vt 0.500000 0.312500
vt 0.500000 0.375000
vt 0.500000 0.312500
vt 0.500000 0.375000
vt 0.437500 0.375000
vt 0.437500 0.437500
vt 0.437500 0.375000
vt 0.437500 0.437500
vt 0.437500 0.375000
vt 0.437500 0.437500
vt 0.125000 0.312500
vt 0.187500 0.312500
vt 0.187500 0.375000
vt 0.187500 0.312500
vt 0.187500 0.375000
vt 0.187500 0.312500
vt 0.187500 0.375000
vt 0.187500 0.312500
vt 0.187500 0.375000
vt 0.437500 0.312500
vt 0.437500 0.375000
vt 0.437500 0.312500
vt 0.500000 0.312500
vt 0.437500 0.375000
vt 0.437500 0.312500
vt 0.437500 0.375000
vt 0.437500 0.312500
vt 0.437500 0.375000
vt 0.125000 0.312500
vt 0.187500 0.312500
vt 0.187500 0.375000
vt 0.187500 0.312500
vt 0.187500 0.375000
vt 0.187500 0.312500
vt 0.187500 0.375000
vt 0.187500 0.312500
vt 0.187500 0.375000
vt 0.375000 0.312500
vt 0.375000 0.375000
vt 0.375000 0.312500
vt 0.437500 0.312500
vt 0.375000 0.375000
vt 0.375000 0.312500
vt 0.375000 0.375000
vt 0.375000 0.312500
vt 0.375000 0.375000
vt 0.125000 0.375000
vt 0.187500 0.312500
vt 0.187500 0.375000
vt 0.187500 0.312500
vt 0.187500 0.375000
vt 0.187500 0.312500
vt 0.187500 0.375000
vt 0.187500 0.312500
vt 0.187500 0.375000
vt 0.312500 0.312500
vt 0.312500 0.375000
vt 0.312500 0.312500
vt 0.375000 0.375000
vt 0.312500 0.375000
vt 0.312500 0.312500
vt 0.312500 0.375000
vt 0.312500 0.312500
vt 0.312500 0.375000
vt 0.125000 0.312500
vt 0.187500 0.312500
vt 0.187500 0.375000
vt 0.187500 0.312500
vt 0.187500 0.375000
vt 0.187500 0.312500
vt 0.187500 0.375000
vt 0.187500 0.312500
vt 0.187500 0.375000
vt 0.250000 0.312500
vt 0.250000 0.375000
vt 0.250000 0.312500
vt 0.312500 0.312500
vt 0.250000 0.375000
vt 0.250000 0.312500
vt 0.250000 0.375000
vt 0.250000 0.312500
vt 0.250000 0.375000
vt 0.125000 0.312500
vt 0.187500 0.375000
vt 0.187500 0.312500
vt 0.187500 0.375000
vt 0.187500 0.312500
vt 0.187500 0.375000
vt 0.187500 0.312500
vt 0.187500 0.375000
vt 0.187500 0.312500
vt 0.500000 0.375000
vt 0.500000 0.312500
vt 0.437500 0.375000
vt 0.437500 0.437500
vt 0.500000 0.375000
vt 0.500000 0.375000
vt 0.500000 0.312500
vt 0.500000 0.375000
vt 0.500000 0.312500
vt 0.500000 0.375000
vt 0.500000 0.312500
vt 0.437500 0.375000
vt 0.437500 0.437500
vt 0.437500 0.375000
vt 0.437500 0.437500
vt 0.437500 0.375000
vt 0.437500 0.437500
vt 0.125000 0.312500
vt 0.187500 0.375000
vt 0.187500 0.312500
vt 0.187500 0.375000
vt 0.187500 0.312500
vt 0.187500 0.375000
vt 0.187500 0.312500
vt 0.187500 0.375000
vt 0.187500 0.312500
vt 0.437500 0.375000
vt 0.437500 0.312500
vt 0.437500 0.312500
vt 0.437500 0.375000
vt 0.500000 0.312500
vt 0.437500 0.375000
vt 0.437500 0.312500
vt 0.437500 0.375000
vt 0.437500 0.312500
vt 0.125000 0.312500
vt 0.187500 0.375000
vt 0.187500 0.312500
vt 0.187500 0.375000
vt 0.187500 0.312500
vt 0.187500 0.375000
vt 0.187500 0.312500
vt 0.187500 0.375000
vt 0.187500 0.312500
vt 0.375000 0.375000
vt 0.375000 0.312500
vt 0.375000 0.312500
vt 0.375000 0.375000
vt 0.437500 0.312500
vt 0.375000 0.375000
vt 0.375000 0.312500
vt 0.375000 0.375000
vt 0.375000 0.312500
vt 0.125000 0.375000
vt 0.187500 0.375000
vt 0.187500 0.312500
vt 0.187500 0.375000
vt 0.187500 0.312500
vt 0.187500 0.375000
vt 0.187500 0.312500
vt 0.187500 0.375000
vt 0.187500 0.312500
vt 0.312500 0.375000
vt 0.312500 0.312500
vt 0.312500 0.312500
vt 0.312500 0.375000
vt 0.375000 0.375000
vt 0.312500 0.375000
vt 0.312500 0.312500
vt 0.312500 0.375000
vt 0.312500 0.312500
vt 0.125000 0.312500
vt 0.187500 0.375000
vt 0.187500 0.312500
vt 0.187500 0.375000
vt 0.187500 0.312500
vt 0.187500 0.375000
vt 0.187500 0.312500
vt 0.187500 0.375000
vt 0.187500 0.312500
vt 0.250000 0.375000
vt 0.250000 0.312500
vt 0.250000 0.312500
vt 0.250000 0.375000
vt 0.312500 0.312500
vt 0.250000 0.375000
vt 0.250000 0.312500
vt 0.250000 0.375000
vt 0.250000 0.312500
vt 0.250000 0.375000
vt 0.312500 0.375000
vt 0.312500 0.312500
vt 0.250000 0.312500
vt 0.312500 0.375000
vt 0.250000 0.375000
vt 0.312500 0.375000
vt 0.375000 0.375000
vt 0.375000 0.312500
vt 0.312500 0.312500
vt 0.187500 0.312500
vt 0.250000 0.312500
vt 0.250000 0.375000
vt 0.187500 0.375000
vt 0.375000 0.375000
vt 0.312500 0.375000
vt 0.437500 0.375000
vn 0.0000 1.0000 0.0000
vn 0.0000 -1.0000 0.0000
vn 0.7071 0.0000 0.7071
vn -0.7071 0.0000 -0.7071
vn 0.0000 0.0000 -1.0000
vn 0.0000 0.0000 1.0000
vn -0.7071 0.0000 0.7071
vn -1.0000 0.0000 0.0000
vn 1.0000 0.0000 0.0000
vn 0.7071 0.0000 -0.7071
vn -0.7071 0.7071 0.0000
vn 0.7071 0.7071 0.0000
vn -0.7071 -0.7071 0.0000
vn 0.7071 -0.7071 0.0000
vn -0.6325 0.4472 0.6325
vn -0.6325 -0.4472 -0.6325
vn 0.6325 0.4472 0.6325
vn -0.6325 0.4472 -0.6325
vn 0.6325 0.4472 -0.6325
vn -0.6325 -0.4472 0.6325
vn 0.6325 -0.4472 -0.6325
vn 0.6325 -0.4472 0.6325
vn 0.5000 0.7071 0.5000
vn -0.5000 0.7071 0.5000
vn 0.5000 0.7071 -0.5000
vn -0.5000 0.7071 -0.5000
vn -0.9469 0.0372 0.3195
vn -0.3610 -0.8673 -0.3428
vn 0.1221 0.2628 0.9571
vn 0.7079 -0.6418 0.2949
vn -0.2700 -0.6317 -0.7267
vn 0.9469 -0.0372 -0.3195
vn 0.9251 -0.3796 -0.0138
vn -0.9251 0.3796 0.0138
vn 0.2700 0.6317 0.7267
vn -0.7079 0.6418 -0.2949
vn 0.3610 0.8673 0.3428
vn -0.1221 -0.2627 -0.9571
vn -0.9320 0.3610 0.0325
vn -0.5246 -0.7672 -0.3689
vn -0.0416 0.3628 0.9309
vn 0.3658 -0.7654 0.5295
vn 0.9320 -0.3610 -0.0325
vn 0.7255 -0.6297 0.2778
vn -0.7255 0.6297 -0.2778
vn -0.3658 0.7654 -0.5295
vn 0.5246 0.7672 0.3689
vn 0.0416 -0.3628 -0.9309
vn -0.7425 0.6171 -0.2605
vn -0.6352 -0.6293 -0.4478
vn -0.1522 0.5008 0.8521
vn -0.0449 -0.7456 0.6649
vn 0.7425 -0.6171 0.2605
vn 0.3900 -0.7618 0.5173
vn -0.3900 0.7618 -0.5173
vn 0.0449 0.7456 -0.6649
vn 0.6352 0.6293 0.4478
vn 0.1522 -0.5008 -0.8521
vn -0.4139 0.7576 -0.5048
vn -0.6720 -0.4793 -0.5645
vn -0.1890 0.6508 0.7354
vn -0.4471 -0.5861 0.6757
vn 0.4139 -0.7576 0.5048
vn -0.0186 -0.7511 0.6599
vn 0.0186 0.7511 -0.6599
vn 0.4471 0.5861 -0.6757
vn 0.6720 0.4793 0.5645
vn 0.1890 -0.6508 -0.7354
vn -0.0077 0.7561 -0.6544
vn -0.6282 -0.3454 -0.6972
vn -0.1452 0.7847 0.6027
vn -0.7656 -0.3168 0.5599
vn 0.0077 -0.7561 0.6544
vn -0.4237 -0.5997 0.6788
vn 0.4237 0.5997 -0.6788
vn 0.7656 0.3168 -0.5599
vn 0.6282 0.3454 0.6972
vn 0.1452 -0.7847 -0.6027
vn 0.9469 0.0372 0.3195
vn 0.3610 -0.8673 -0.3428
vn -0.1221 0.2628 0.9571
vn -0.7079 -0.6418 0.2949
vn 0.2700 -0.6317 -0.7267
vn -0.9469 -0.0372 -0.3195
vn -0.9251 -0.3796 -0.0138
vn 0.9251 0.3796 0.0138
vn -0.2700 0.6317 0.7267
vn 0.7079 0.6418 -0.2949
vn -0.3610 0.8673 0.3428
vn 0.1221 -0.2627 -0.9571
vn 0.9320 0.3610 0.0325
vn 0.5246 -0.7672 -0.3689
vn 0.0416 0.3628 0.9309
vn -0.3658 -0.7654 0.5295
vn -0.9320 -0.3610 -0.0325
vn -0.7255 -0.6297 0.2778
vn 0.7255 0.6297 -0.2778
vn 0.3658 0.7654 -0.5295
vn -0.5246 0.7672 0.3689
vn -0.0416 -0.3628 -0.9309
vn 0.7425 0.6171 -0.2605
vn 0.6352 -0.6293 -0.4478
vn 0.1522 0.5008 0.8521
vn 0.0449 -0.7456 0.6649
vn -0.7425 -0.6171 0.2605
vn -0.3900 -0.7618 0.5173
vn 0.3900 0.7618 -0.5173
vn -0.0449 0.7456 -0.6649
vn -0.6352 0.6293 0.4478
vn -0.1522 -0.5008 -0.8521
vn 0.4139 0.7576 -0.5048
vn 0.6720 -0.4793 -0.5645
vn 0.1890 0.6508 0.7354
vn 0.4471 -0.5861 0.6757
vn -0.4139 -0.7576 0.5048
vn 0.0186 -0.7511 0.6599
vn -0.0186 0.7511 -0.6599
vn -0.4471 0.5861 -0.6757
vn -0.6720 0.4793 0.5645
vn -0.1890 -0.6508 -0.7354
vn 0.0077 0.7561 -0.6544
vn 0.6282 -0.3454 -0.6972
vn 0.1452 0.7847 0.6027
vn 0.7656 -0.3168 0.5599
vn -0.0077 -0.7561 0.6544
vn 0.4237 -0.5997 0.6788
vn -0.4237 0.5997 -0.6788
vn -0.7656 0.3168 -0.5599
vn -0.6282 0.3454 0.6972
vn -0.1452 -0.7847 -0.6027
usemtl SENTINELS_PLACKART
s off
f 2/1/1 4/2/1 10/3/1 9/4/1
f 5/5/2 3/6/2 14/7/2 15/8/2
f 5/9/3 6/10/3 2/1/3 1/11/3
f 3/12/2 5/9/2 1/11/2
f 6/10/1 4/13/1 2/1/1
f 10/14/4 7/15/4 11/16/4 12/17/4
f 3/18/2 1/11/2 8/19/2 7/20/2
f 4/21/5 3/22/5 7/23/5 10/24/5
f 1/11/6 2/1/6 9/4/6 8/19/6
f 8/19/7 9/4/7 12/17/7 11/16/7
f 9/4/1 10/3/1 12/25/1
f 7/26/2 8/27/2 11/28/2
f 4/29/1 6/30/1 16/31/1 13/32/1
f 3/33/8 4/34/8 13/35/8 14/36/8
f 6/30/9 5/5/9 15/8/9 16/31/9
f 18/37/10 17/38/10 16/31/10 15/8/10
f 15/8/2 14/39/2 18/37/2
f 13/40/1 16/31/1 17/38/1
f 18/41/2 14/42/2 20/43/2 22/44/2
f 22/44/2 20/45/2 24/46/2
f 17/47/5 18/41/5 22/44/5 21/48/5
f 13/49/1 17/47/1 21/48/1 19/50/1
f 14/51/6 13/52/6 19/53/6 20/54/6
f 24/46/4 23/55/4 21/48/4 22/44/4
f 20/56/9 19/57/9 25/58/9 26/59/9
f 19/60/1 21/48/1 23/55/1
f 28/61/2 26/62/2 30/63/2
f 19/64/1 23/65/1 27/66/1 25/67/1
f 24/68/2 20/69/2 26/70/2 28/61/2
f 23/65/8 24/68/8 28/61/8 27/66/8
f 29/71/6 30/72/6 34/73/6 33/74/6
f 25/75/1 27/66/1 29/76/1
f 27/66/7 28/61/7 30/63/7 29/76/7
f 31/77/1 33/74/1 35/78/1
f 26/79/5 25/80/5 31/81/5 32/82/5
f 25/83/1 29/71/1 33/74/1 31/77/1
f 30/72/2 26/84/2 32/85/2 34/73/2
f 33/74/3 34/73/3 36/86/3 35/87/3
f 34/88/2 32/89/2 36/90/2
f 32/91/10 31/92/10 35/87/10 36/86/10
f 37/93/7 38/94/7 40/95/7 39/96/7
f 39/97/4 40/98/4 44/99/4 43/100/4
f 43/100/10 44/99/10 42/101/10 41/102/10
f 41/103/3 42/104/3 38/94/3 37/93/3
f 39/105/2 43/106/2 41/103/2 37/107/2
f 44/108/1 40/109/1 38/110/1 42/111/1
f 59/112/11 60/113/11 68/114/11 67/115/11
f 63/116/1 66/117/1 62/118/1
f 62/118/3 66/117/3 65/119/3 61/120/3
f 64/121/5 68/122/5 60/123/5 63/124/5
f 66/125/6 59/126/6 67/127/6 65/128/6
f 63/129/1 60/130/1 59/126/1 66/125/1
f 72/131/10 73/132/10 74/133/10 71/134/10
f 63/135/8 70/136/8 69/137/8 64/138/8
f 61/139/9 72/140/9 71/141/9 62/142/9
f 62/142/1 71/141/1 70/143/1 63/144/1
f 71/134/1 74/133/1 70/145/1
f 74/146/1 78/147/1 76/148/1 70/149/1
f 78/150/1 80/151/1 76/152/1
f 73/153/5 77/154/5 78/147/5 74/146/5
f 70/155/6 76/156/6 75/157/6 69/158/6
f 80/151/4 78/150/4 77/159/4 79/160/4
f 76/161/9 82/162/9 81/163/9 75/164/9
f 84/165/1 86/166/1 82/167/1
f 80/168/1 84/169/1 82/170/1 76/171/1
f 79/172/8 83/173/8 84/169/8 80/168/8
f 86/166/7 84/165/7 83/174/7 85/175/7
f 85/176/6 89/177/6 90/178/6 86/179/6
f 88/180/12 90/181/12 89/182/12 87/183/12
f 82/184/5 88/185/5 87/186/5 81/187/5
f 86/179/1 90/178/1 88/188/1 82/189/1
f 209/190/13 217/191/13 218/192/13 210/193/13
f 213/194/2 212/195/2 216/196/2
f 212/195/3 211/197/3 215/198/3 216/196/3
f 214/199/5 213/200/5 210/201/5 218/202/5
f 216/203/6 215/204/6 217/205/6 209/206/6
f 213/207/2 216/203/2 209/206/2 210/208/2
f 222/209/10 221/210/10 224/211/10 223/212/10
f 213/213/8 214/214/8 219/215/8 220/216/8
f 211/217/9 212/218/9 221/219/9 222/220/9
f 212/218/2 213/221/2 220/222/2 221/219/2
f 221/210/2 220/223/2 224/211/2
f 224/224/2 220/225/2 226/226/2 228/227/2
f 228/228/2 226/229/2 230/230/2
f 223/231/5 224/224/5 228/227/5 227/232/5
f 220/233/6 219/234/6 225/235/6 226/236/6
f 230/230/4 229/237/4 227/238/4 228/228/4
f 226/239/9 225/240/9 231/241/9 232/242/9
f 234/243/2 232/244/2 236/245/2
f 230/246/2 226/247/2 232/248/2 234/249/2
f 229/250/8 230/246/8 234/249/8 233/251/8
f 236/245/7 235/252/7 233/253/7 234/243/7
f 235/254/6 236/255/6 240/256/6 239/257/6
f 238/258/14 237/259/14 239/260/14 240/261/14
f 232/262/5 231/263/5 237/264/5 238/265/5
f 236/255/2 232/266/2 238/267/2 240/256/2
usemtl AURORAL_SILK
f 45/268/7 46/269/7 48/270/7 47/271/7
f 47/272/4 48/273/4 52/274/4 51/275/4
f 51/276/10 52/277/10 50/278/10 49/279/10
f 49/280/3 50/281/3 46/282/3 45/283/3
f 48/270/15 46/269/15 53/284/15
f 54/285/16 56/286/16 58/287/16
f 46/282/17 50/281/17 53/288/17
f 52/274/18 48/273/18 53/288/18
f 50/278/19 52/277/19 53/284/19
f 54/285/20 55/289/20 56/290/20
f 54/285/21 58/287/21 57/291/21
f 54/285/22 57/292/22 55/289/22
f 91/293/3 93/294/3 94/295/3 92/296/3
f 93/294/10 97/297/10 98/298/10 94/295/10
f 97/299/4 95/300/4 96/301/4 98/302/4
f 95/303/7 91/304/7 92/305/7 96/306/7
f 94/295/23 99/307/23 92/296/23
f 92/305/24 99/308/24 96/306/24
f 98/298/25 99/307/25 94/295/25
f 96/301/26 99/309/26 98/302/26
f 102/310/27 104/311/27 100/312/27
f 102/310/28 100/313/28 101/314/28
f 102/310/29 103/315/29 104/316/29
f 102/310/30 101/317/30 103/318/30
f 100/313/31 106/319/31 105/320/31 101/314/31
f 105/321/32 109/322/32 108/323/32
f 101/317/33 105/324/33 108/325/33 103/318/33
f 104/311/34 107/326/34 106/327/34 100/312/34
f 103/315/35 108/328/35 107/329/35 104/316/35
f 107/330/36 109/322/36 106/331/36
f 108/332/37 109/322/37 107/333/37
f 106/334/38 109/322/38 105/335/38
f 112/336/39 114/337/39 110/338/39
f 112/336/40 110/339/40 111/340/40
f 112/336/41 113/341/41 114/342/41
f 112/336/42 111/343/42 113/344/42
f 110/339/31 116/345/31 115/346/31 111/340/31
f 115/347/43 119/348/43 118/349/43
f 111/343/44 115/347/44 118/349/44 113/344/44
f 114/337/45 117/350/45 116/351/45 110/338/45
f 113/341/35 118/352/35 117/353/35 114/342/35
f 117/350/46 119/348/46 116/351/46
f 118/352/47 119/348/47 117/353/47
f 116/345/48 119/348/48 115/346/48
f 122/354/49 124/355/49 120/356/49
f 122/354/50 120/357/50 121/358/50
f 122/354/51 123/359/51 124/360/51
f 122/354/52 121/361/52 123/362/52
f 120/357/31 126/363/31 125/364/31 121/358/31
f 125/365/53 129/366/53 128/367/53
f 121/361/54 125/365/54 128/367/54 123/362/54
f 124/355/55 127/368/55 126/369/55 120/356/55
f 123/359/35 128/370/35 127/371/35 124/360/35
f 127/368/56 129/366/56 126/369/56
f 128/370/57 129/366/57 127/371/57
f 126/363/58 129/366/58 125/364/58
f 132/372/59 134/373/59 130/374/59
f 132/372/60 130/375/60 131/376/60
f 132/372/61 133/377/61 134/378/61
f 132/372/62 131/379/62 133/380/62
f 130/375/31 136/381/31 135/382/31 131/376/31
f 135/383/63 139/384/63 138/385/63
f 131/379/64 135/383/64 138/385/64 133/380/64
f 134/373/65 137/386/65 136/387/65 130/374/65
f 133/377/35 138/388/35 137/389/35 134/378/35
f 137/386/66 139/384/66 136/387/66
f 138/388/67 139/384/67 137/389/67
f 136/381/68 139/384/68 135/382/68
f 142/390/69 144/391/69 140/392/69
f 142/390/70 140/393/70 141/394/70
f 142/390/71 143/395/71 144/396/71
f 142/390/72 141/397/72 143/398/72
f 140/393/31 146/399/31 145/400/31 141/394/31
f 145/401/73 149/402/73 148/403/73
f 141/397/74 145/401/74 148/403/74 143/398/74
f 144/391/75 147/404/75 146/405/75 140/392/75
f 143/395/35 148/406/35 147/407/35 144/396/35
f 147/404/76 149/402/76 146/405/76
f 148/406/77 149/402/77 147/407/77
f 146/399/78 149/402/78 145/400/78
f 152/408/79 150/409/79 154/410/79
f 152/408/80 151/411/80 150/412/80
f 152/408/81 154/413/81 153/414/81
f 152/408/82 153/415/82 151/416/82
f 150/412/83 151/411/83 155/417/83 156/418/83
f 155/419/84 158/420/84 159/421/84
f 151/416/85 153/415/85 158/422/85 155/423/85
f 154/410/86 150/409/86 156/424/86 157/425/86
f 153/414/87 154/413/87 157/426/87 158/427/87
f 157/428/88 156/429/88 159/421/88
f 158/430/89 157/431/89 159/421/89
f 156/432/90 155/433/90 159/421/90
f 162/434/91 160/435/91 164/436/91
f 162/434/92 161/437/92 160/438/92
f 162/434/93 164/439/93 163/440/93
f 162/434/94 163/441/94 161/442/94
f 160/438/83 161/437/83 165/443/83 166/444/83
f 165/445/95 168/446/95 169/447/95
f 161/442/96 163/441/96 168/446/96 165/445/96
f 164/436/97 160/435/97 166/448/97 167/449/97
f 163/440/87 164/439/87 167/450/87 168/451/87
f 167/449/98 166/448/98 169/447/98
f 168/451/99 167/450/99 169/447/99
f 166/444/100 165/443/100 169/447/100
f 172/452/101 170/453/101 174/454/101
f 172/452/102 171/455/102 170/456/102
f 172/452/103 174/457/103 173/458/103
f 172/452/104 173/459/104 171/460/104
f 170/456/83 171/455/83 175/461/83 176/462/83
f 175/463/105 178/464/105 179/465/105
f 171/460/106 173/459/106 178/464/106 175/463/106
f 174/454/107 170/453/107 176/466/107 177/467/107
f 173/458/87 174/457/87 177/468/87 178/469/87
f 177/467/108 176/466/108 179/465/108
f 178/469/109 177/468/109 179/465/109
f 176/462/110 175/461/110 179/465/110
f 182/470/111 180/471/111 184/472/111
f 182/470/112 181/473/112 180/474/112
f 182/470/113 184/475/113 183/476/113
f 182/470/114 183/477/114 181/478/114
f 180/474/83 181/473/83 185/479/83 186/480/83
f 185/481/115 188/482/115 189/483/115
f 181/478/116 183/477/116 188/482/116 185/481/116
f 184/472/117 180/471/117 186/484/117 187/485/117
f 183/476/87 184/475/87 187/486/87 188/487/87
f 187/485/118 186/484/118 189/483/118
f 188/487/119 187/486/119 189/483/119
f 186/480/120 185/479/120 189/483/120
f 192/488/121 190/489/121 194/490/121
f 192/488/122 191/491/122 190/492/122
f 192/488/123 194/493/123 193/494/123
f 192/488/124 193/495/124 191/496/124
f 190/492/83 191/491/83 195/497/83 196/498/83
f 195/499/125 198/500/125 199/501/125
f 191/496/126 193/495/126 198/500/126 195/499/126
f 194/490/127 190/489/127 196/502/127 197/503/127
f 193/494/87 194/493/87 197/504/87 198/505/87
f 197/503/128 196/502/128 199/501/128
f 198/505/129 197/504/129 199/501/129
f 196/498/130 195/497/130 199/501/130
f 200/506/7 201/507/7 203/508/7 202/509/7
f 202/509/4 203/508/4 207/510/4 206/511/4
f 206/512/10 207/513/10 205/514/10 204/515/10
f 204/516/3 205/517/3 201/518/3 200/519/3
f 203/508/24 201/507/24 208/520/24
f 201/518/23 205/517/23 208/521/23
f 207/510/26 203/508/26 208/520/26
f 205/514/25 207/513/25 208/522/25
