# Blender v2.80 (sub 75) OBJ File: 'chem devices.blend'
# www.blender.org
mtllib disintegration_pyre_body.mtl
o DISINTEGRATION_PYRE_BODY_Cube.185
v 0.500000 0.000000 0.500000
v 0.125000 0.000000 1.000000
v 0.000000 0.125000 0.875000
v 0.000000 0.125000 0.125000
v 0.875000 0.000000 1.000000
v 1.000000 0.125000 0.875000
v 0.125000 0.000000 0.000000
v 0.875000 0.000000 0.000000
v 1.000000 0.125000 0.125000
v 0.875000 0.125000 0.000000
v 1.000000 0.000000 0.125000
v 1.000000 0.000000 0.875000
v 0.125000 0.125000 0.000000
v 0.000000 0.000000 0.125000
v 0.000000 0.000000 0.875000
v 0.875000 0.125000 1.000000
v 0.125000 0.125000 1.000000
v 0.875000 0.187500 0.125000
v 0.875000 0.187500 0.875000
v 0.125000 0.187500 0.875000
v 0.125000 0.187500 0.125000
v 0.062500 0.187000 0.875000
v 0.062500 0.187000 0.125000
v 0.937500 0.187000 0.875000
v 0.937500 0.187000 0.125000
v 0.875000 0.187000 0.062500
v 0.125000 0.187000 0.062500
v 0.875000 0.187000 0.937500
v 0.125000 0.187000 0.937500
v 0.187500 0.437500 0.812500
v 0.187500 0.437500 0.187500
v 0.813000 0.437500 0.812500
v 0.813000 0.437500 0.187500
v 0.625000 0.125000 0.625000
v 0.625000 0.125000 0.375000
v 0.375000 0.125000 0.625000
v 0.375000 0.125000 0.375000
v 0.813000 0.187500 0.187500
v 0.813000 0.187500 0.812500
v 0.187500 0.187500 0.812500
v 0.187500 0.187500 0.187500
v 0.875000 0.375000 0.125000
v 0.875000 0.375000 0.875000
v 0.125000 0.375000 0.875000
v 0.125000 0.375000 0.125000
vt 0.093750 0.281250
vt 0.125000 0.250000
vt 0.093750 0.250000
vt 0.562500 0.125000
vt 0.625000 0.062500
vt 0.625000 0.093750
vt 0.593750 0.125000
vt 0.187500 0.062500
vt 0.562500 0.062500
vt 0.562500 0.093750
vt 0.187500 0.093750
vt 0.562500 0.125000
vt 0.625000 0.062500
vt 0.625000 0.093750
vt 0.593750 0.125000
vt 0.187500 0.062500
vt 0.562500 0.062500
vt 0.562500 0.093750
vt 0.187500 0.093750
vt 0.093750 0.281250
vt 0.093750 0.250000
vt 0.562500 0.125000
vt 0.625000 0.062500
vt 0.625000 0.093750
vt 0.593750 0.125000
vt 0.187500 0.062500
vt 0.562500 0.062500
vt 0.562500 0.093750
vt 0.187500 0.093750
vt 0.562500 0.125000
vt 0.625000 0.062500
vt 0.625000 0.093750
vt 0.593750 0.125000
vt 0.093750 0.250000
vt 0.187500 0.062500
vt 0.562500 0.062500
vt 0.562500 0.093750
vt 0.187500 0.093750
vt 0.187500 0.000000
vt 0.562500 0.000000
vt 0.187500 0.000000
vt 0.562500 0.000000
vt 0.093750 0.281250
vt 0.625000 -0.000000
vt 0.093750 0.250000
vt 0.562500 0.000000
vt 0.625000 0.000000
vt 0.187500 0.000000
vt 0.562500 -0.000000
vt 0.187500 0.000000
vt 0.093750 0.281250
vt 0.625000 0.000000
vt 0.625000 -0.000000
vt 0.562500 0.125000
vt 0.187500 0.125000
vt 0.562500 0.125000
vt 0.187500 0.125000
vt 0.593750 0.062500
vt 0.593750 0.093750
vt 0.593750 0.062500
vt 0.593750 0.093750
vt 0.562500 0.125000
vt 0.187500 0.125000
vt 0.593750 0.062500
vt 0.593750 0.093750
vt 0.562500 0.125000
vt 0.187500 0.125000
vt 0.593750 0.062500
vt 0.593750 0.093750
vt 1.000000 0.062500
vt 1.000000 0.375000
vt 0.875000 0.375000
vt 0.875000 0.062500
vt 0.656250 0.125000
vt 0.656250 -0.000000
vt 0.781250 -0.000000
vt 0.781250 0.125000
vt 1.000000 0.062500
vt 1.000000 0.375000
vt 0.875000 0.375000
vt 0.875000 0.062500
vt 1.000000 0.062500
vt 1.000000 0.375000
vt 0.875000 0.375000
vt 0.875000 0.062500
vt 1.000000 0.062500
vt 1.000000 0.375000
vt 0.875000 0.375000
vt 0.875000 0.062500
vt 0.875000 0.218750
vt 0.562500 0.218750
vt 0.656250 0.125000
vt 0.562500 0.218750
vt 0.781250 0.125000
vt 0.875000 0.218750
vt 0.562500 0.218750
vt 0.187500 0.218750
vt 0.562500 0.218750
vt 0.187500 0.218750
vt 0.562500 0.218750
vt 0.187500 0.218750
vt 0.218750 0.250000
vt 0.531250 0.250000
vt 0.218750 0.250000
vt 0.187500 0.218750
vt 0.562500 0.218750
vt 0.531250 0.250000
vt 0.218750 0.250000
vt 0.531250 0.250000
vt 0.218750 0.250000
vt 0.531250 0.250000
vn 0.0000 -1.0000 0.0000
vn 0.5758 0.5804 0.5758
vn 0.7043 0.7099 0.0000
vn -0.5758 0.5804 -0.5758
vn 0.0000 0.7099 0.7043
vn -0.5758 0.5804 0.5758
vn 0.0000 0.7099 -0.7043
vn 0.5758 0.5804 -0.5758
vn -0.7043 0.7099 0.0000
vn 0.0000 0.0000 -1.0000
vn 0.0000 0.0000 1.0000
vn 0.7071 0.0000 0.7071
vn -0.7071 0.0000 0.7071
vn 1.0000 0.0000 0.0000
vn -1.0000 0.0000 0.0000
vn 0.7071 0.0000 -0.7071
vn -0.7071 0.0000 -0.7071
vn 0.0080 1.0000 0.0000
vn 0.0000 1.0000 0.0080
vn 0.0080 0.9999 0.0080
vn 0.0080 0.9999 -0.0080
vn 0.0000 1.0000 -0.0080
vn -0.0080 0.9999 -0.0080
vn -0.0080 1.0000 0.0000
vn -0.0080 0.9999 0.0080
vn 0.0000 1.0000 0.0000
vn -0.3155 0.9489 0.0000
vn 0.0000 0.9487 -0.3162
vn 0.0000 0.9487 0.3162
vn 0.3162 0.9487 0.0000
vn 0.0000 0.7071 0.7071
vn 0.7099 0.7043 0.0000
vn 0.0000 0.7071 -0.7071
vn -0.7071 0.7071 0.0000
usemtl PROTO_ACTUATOR
s off
f 7/1/1 1/2/1 14/3/1
f 16/4/2 6/5/2 24/6/2 28/7/2
f 6/8/3 9/9/3 25/10/3 24/11/3
f 13/12/4 4/13/4 23/14/4 27/15/4
f 17/16/5 16/17/5 28/18/5 29/19/5
f 1/2/1 5/20/1 2/21/1
f 3/22/6 17/23/6 29/24/6 22/25/6
f 10/26/7 13/27/7 27/28/7 26/29/7
f 9/30/8 10/31/8 26/32/8 25/33/8
f 1/2/1 7/1/1 8/34/1
f 4/35/9 3/36/9 22/37/9 23/38/9
f 8/39/10 7/40/10 13/27/10 10/26/10
f 2/41/11 5/42/11 16/17/11 17/16/11
f 1/2/1 8/34/1 11/43/1
f 5/42/12 12/44/12 6/5/12 16/17/12
f 1/2/1 11/43/1 12/45/1
f 5/20/1 1/2/1 12/45/1
f 15/46/13 2/47/13 17/23/13 3/36/13
f 12/48/14 11/49/14 9/9/14 6/8/14
f 14/50/15 15/46/15 3/36/15 4/35/15
f 1/2/1 15/51/1 14/3/1
f 11/49/16 8/52/16 10/31/16 9/9/16
f 7/40/17 14/53/17 4/13/17 13/27/17
f 1/2/1 2/21/1 15/51/1
f 18/54/18 19/55/18 24/11/18 25/10/18
f 19/56/19 20/57/19 29/19/19 28/18/19
f 24/58/20 19/59/20 28/18/20
f 25/10/21 26/60/21 18/61/21
f 21/62/22 18/63/22 26/29/22 27/28/22
f 27/28/23 23/64/23 21/65/23
f 20/66/24 21/67/24 23/38/24 22/37/24
f 29/68/25 20/69/25 22/37/25
f 32/70/15 33/71/15 38/72/15 39/73/15
f 35/74/26 37/75/26 36/76/26 34/77/26
f 31/78/14 30/79/14 40/80/14 41/81/14
f 30/82/10 32/83/10 39/84/10 40/85/10
f 33/86/11 31/87/11 41/88/11 38/89/11
f 35/74/27 34/77/27 39/90/27 38/91/27
f 34/77/28 36/92/28 40/93/28 39/90/28
f 37/94/29 35/74/29 38/91/29 41/95/29
f 36/92/30 37/94/30 41/95/30 40/93/30
f 20/66/15 44/96/15 45/97/15 21/67/15
f 19/56/11 43/98/11 44/99/11 20/57/11
f 21/62/10 45/100/10 42/101/10 18/63/10
f 30/102/31 44/99/31 43/98/31 32/103/31
f 32/104/32 43/105/32 42/106/32 33/107/32
f 33/108/33 42/101/33 45/100/33 31/109/33
f 31/110/34 45/97/34 44/96/34 30/111/34
f 18/54/14 42/106/14 43/105/14 19/55/14
