# Blender v2.80 (sub 75) OBJ File: 'chem devices.blend'
# www.blender.org
mtllib disintegration_pyre_flame_large.mtl
o DISINTEGRATION_PYRE_FLAME_FULL_Plane.011
v 0.146447 0.375000 0.853553
v 0.853553 0.375000 0.146447
v 0.146447 1.375000 0.853553
v 0.853553 1.375000 0.146447
v 0.853553 0.375000 0.853553
v 0.146447 0.375000 0.146447
v 0.853553 1.375000 0.853553
v 0.146447 1.375000 0.146447
v 0.146447 0.125000 0.853553
v 0.853553 0.125000 0.146447
v 0.853553 0.125000 0.853553
v 0.146447 0.125000 0.146447
v 0.146447 0.375000 0.853553
v 0.853553 0.375000 0.146447
v 0.146447 1.375000 0.853553
v 0.853553 1.375000 0.146447
v 0.853553 0.375000 0.853553
v 0.146447 0.375000 0.146447
v 0.853553 1.375000 0.853553
v 0.146447 1.375000 0.146447
v 0.146447 0.125000 0.853553
v 0.853553 0.125000 0.146447
v 0.853553 0.125000 0.853553
v 0.146447 0.125000 0.146447
v 0.813000 0.250000 0.812500
v 0.813000 0.250000 0.187500
v 0.188000 0.375000 0.812500
v 0.188000 0.375000 0.187500
v 0.187000 0.250000 0.187500
v 0.187000 0.250000 0.812500
v 0.812000 0.375000 0.187500
v 0.812000 0.375000 0.812500
v 0.812500 0.250000 0.187000
v 0.187500 0.250000 0.187000
v 0.812500 0.375000 0.812000
v 0.187500 0.375000 0.812000
v 0.187500 0.250000 0.813000
v 0.812500 0.250000 0.813000
v 0.187500 0.375000 0.188000
v 0.812500 0.375000 0.188000
vt 0.000000 0.000000
vt 1.000000 0.000000
vt 1.000000 1.000000
vt 0.000000 1.000000
vt 0.000000 0.000000
vt 1.000000 0.000000
vt 1.000000 1.000000
vt 0.000000 1.000000
vt 1.000000 0.062500
vt 0.000000 0.062500
vt 0.000000 0.000000
vt 1.000000 0.000000
vt 1.000000 0.062500
vt 0.000000 0.062500
vt 0.000000 0.000000
vt 1.000000 0.000000
vt 0.000000 0.000000
vt 0.000000 1.000000
vt 1.000000 1.000000
vt 1.000000 0.000000
vt 0.000000 0.000000
vt 0.000000 1.000000
vt 1.000000 1.000000
vt 1.000000 0.000000
vt 1.000000 0.062500
vt 1.000000 0.000000
vt 0.000000 0.000000
vt 0.000000 0.062500
vt 1.000000 0.062500
vt 1.000000 0.000000
vt 0.000000 0.000000
vt 0.000000 0.062500
vt 0.187500 -0.000000
vt 0.812500 -0.000000
vt 0.812500 0.687500
vt 0.187500 0.687500
vt 0.187500 -0.000000
vt 0.812500 -0.000000
vt 0.812500 0.687500
vt 0.187500 0.687500
vt 0.812500 0.000000
vt 0.187500 0.000000
vt 0.187500 0.687500
vt 0.812500 0.687500
vt 0.812500 0.000000
vt 0.187500 0.000000
vt 0.187500 0.687500
vt 0.812500 0.687500
vn 0.7071 0.0000 0.7071
vn 0.7071 0.0000 -0.7071
vn -0.7071 0.0000 -0.7071
vn -0.7071 0.0000 0.7071
vn 0.1961 0.9806 0.0000
vn -0.1961 0.9806 0.0000
vn 0.0000 0.9806 -0.1961
vn 0.0000 0.9806 0.1961
usemtl SOUL_CAMPFIRE_FIRE
s off
f 1/1/1 2/2/1 4/3/1 3/4/1
f 5/5/2 6/6/2 8/7/2 7/8/2
f 6/9/2 5/10/2 11/11/2 12/12/2
f 2/13/1 1/14/1 9/15/1 10/16/1
f 13/17/3 15/18/3 16/19/3 14/20/3
f 17/21/4 19/22/4 20/23/4 18/24/4
f 18/25/4 24/26/4 23/27/4 17/28/4
f 14/29/3 22/30/3 21/31/3 13/32/3
f 25/33/5 26/34/5 28/35/5 27/36/5
f 29/37/6 30/38/6 32/39/6 31/40/6
f 33/41/7 34/42/7 36/43/7 35/44/7
f 37/45/8 38/46/8 40/47/8 39/48/8
