# Blender v2.80 (sub 75) OBJ File: 'chem devices.blend'
# www.blender.org
mtllib disintegration_pyre_flame_small.mtl
o DISINTEGRATION_PYRE_FLAME_SHORT_Plane.025
v 0.146447 0.625000 0.853553
v 0.853553 0.625000 0.146447
v 0.853553 0.625000 0.853553
v 0.146447 0.625000 0.146447
v 0.146447 0.625000 0.853553
v 0.853553 0.625000 0.146447
v 0.853553 0.625000 0.853553
v 0.146447 0.625000 0.146447
v 0.146447 0.125000 0.853553
v 0.853553 0.125000 0.146447
v 0.853553 0.125000 0.853553
v 0.146447 0.125000 0.146447
v 0.146447 0.125000 0.853553
v 0.853553 0.125000 0.146447
v 0.853553 0.125000 0.853553
v 0.146447 0.125000 0.146447
vt 0.000000 0.500000
vt 1.000000 0.500000
vt 1.000000 1.000000
vt 0.000000 1.000000
vt 0.000000 0.500000
vt 1.000000 0.500000
vt 1.000000 1.000000
vt 0.000000 1.000000
vt 0.000000 0.500000
vt 0.000000 1.000000
vt 1.000000 1.000000
vt 1.000000 0.500000
vt 0.000000 0.500000
vt 0.000000 1.000000
vt 1.000000 1.000000
vt 1.000000 0.500000
vn 0.7071 0.0000 0.7071
vn 0.7071 0.0000 -0.7071
vn -0.7071 0.0000 -0.7071
vn -0.7071 0.0000 0.7071
usemtl SOUL_CAMPFIRE_FIRE.001
s off
f 13/1/1 14/2/1 2/3/1 1/4/1
f 15/5/2 16/6/2 4/7/2 3/8/2
f 9/9/3 5/10/3 6/11/3 10/12/3
f 11/13/4 7/14/4 8/15/4 12/16/4
