# Blender v2.80 (sub 75) OBJ File: 'chem devices.blend'
# www.blender.org
mtllib eldrin_orrery_inventory.mtl
o ELDRIN_ORRERY_GLOBE_Cube.166
v 0.193814 1.641746 0.500000
v 0.346907 1.858253 0.765165
v 0.346907 1.858253 0.234835
v 0.499999 2.074759 0.500000
v 0.500001 1.425241 0.500000
v 0.653093 1.641747 0.765165
v 0.653093 1.641747 0.234835
v 0.806186 1.858254 0.500000
vt 0.375000 0.437500
vt 0.687500 0.437500
vt 0.687500 0.750000
vt 0.375000 0.750000
vt 0.687500 0.437500
vt 0.375000 0.750000
vt 0.375000 0.437500
vt 0.687500 0.437500
vt 0.375000 0.437500
vt 0.375000 0.750000
vt 0.687500 0.750000
vt 0.687500 0.437500
vt 0.375000 0.437500
vt 0.375000 0.750000
vt 0.375000 0.437500
vt 0.375000 0.750000
vt 0.687500 0.437500
vt 0.687500 0.437500
vt 0.375000 0.750000
vt 0.375000 0.437500
vn -0.8165 0.5773 0.0000
vn 0.4082 0.5774 -0.7071
vn 0.8165 -0.5773 0.0000
vn -0.4082 -0.5774 0.7071
vn -0.4082 -0.5774 -0.7071
vn 0.4082 0.5774 0.7071
usemtl ELDRIN_ORRERY
s off
f 1/1/1 2/2/1 4/3/1 3/4/1
f 3/5/2 4/3/2 8/6/2 7/7/2
f 7/8/3 8/9/3 6/10/3 5/11/3
f 5/11/4 6/12/4 2/13/4 1/14/4
f 3/15/5 7/16/5 5/11/5 1/17/5
f 8/18/6 4/3/6 2/19/6 6/20/6
o ELDRIN_ORRERY_RING_SUNMOON_Plane.021
v 0.808958 1.486902 0.608503
v 0.808958 1.486902 0.391497
v 0.859522 1.450165 0.625250
v 0.896258 1.500729 0.625250
v 0.241948 1.898859 0.796140
v 0.278684 1.949422 0.796140
v 0.430725 1.838958 0.904643
v 0.393989 1.788395 0.904643
v 0.241670 1.976315 0.841894
v 0.845732 1.537438 0.608333
v 0.758230 1.523758 0.842018
v 0.794966 1.574322 0.842018
v 0.721315 1.550578 0.796141
v 0.758052 1.601141 0.796141
v 0.606011 1.711606 0.904644
v 0.569274 1.661042 0.904644
v 0.417039 1.848902 0.967098
v 0.619698 1.701661 0.967098
v 0.582961 1.651098 0.967098
v 0.380303 1.798338 0.967098
v 0.278786 1.949349 0.203734
v 0.154268 1.962562 0.391667
v 0.205034 1.925678 0.157982
v 0.103705 1.999298 0.374921
v 0.140441 2.049862 0.374921
v 0.191042 2.013098 0.391497
v 0.103742 1.999271 0.625250
v 0.140478 2.049835 0.625250
v 0.205034 1.925678 0.842019
v 0.191005 2.013125 0.608332
v 0.154268 1.962562 0.608332
v 0.417177 1.848802 0.032856
v 0.241669 1.976315 0.158107
v 0.241948 1.898859 0.203859
v 0.430726 1.838958 0.095356
v 0.569413 1.660942 0.095402
v 0.606149 1.711505 0.095402
v 0.393851 1.788495 0.095402
v 0.380302 1.798338 0.032902
v 0.619697 1.701662 0.032902
v 0.582823 1.651199 0.032856
v 0.758330 1.523685 0.158106
v 0.896295 1.500702 0.374921
v 0.794966 1.574322 0.157981
v 0.859559 1.450138 0.374921
v 0.721214 1.550651 0.203735
v 0.757951 1.601215 0.203735
v 0.845732 1.537438 0.391668
vt 0.375000 0.812500
vt 0.500000 0.812500
vt 0.500000 0.843750
vt 0.375000 0.843750
vt 0.383239 0.875000
vt 0.491761 0.875000
vt 0.500000 0.843750
vt 0.375000 0.843750
vt 0.491761 0.875000
vt 0.383239 0.875000
vt 0.383239 0.906250
vt 0.491761 0.906250
vt 0.250000 0.812500
vt 0.125000 0.812500
vt 0.125000 0.843750
vt 0.250000 0.843750
vt 0.241761 0.875000
vt 0.133239 0.875000
vt 0.125000 0.843750
vt 0.250000 0.843750
vt 0.133239 0.875000
vt 0.241761 0.875000
vt 0.241761 0.906250
vt 0.133239 0.906250
vt 0.250000 0.812500
vt 0.250000 0.843750
vt 0.258239 0.875000
vt 0.366761 0.875000
vt 0.250000 0.843750
vt 0.366761 0.875000
vt 0.258239 0.875000
vt 0.258239 0.906250
vt 0.366761 0.906250
vt 0.133239 0.875000
vt 0.133239 0.906250
vt 0.241761 0.906250
vt 0.241761 0.875000
vt 0.241761 0.875000
vt 0.133239 0.875000
vt 0.125000 0.843750
vt 0.125000 0.843750
vt 0.125000 0.812500
vt 0.008239 0.875000
vt 0.008239 0.906250
vt 0.116761 0.906250
vt 0.116761 0.875000
vt 0.116761 0.875000
vt 0.008239 0.875000
vt -0.000000 0.843750
vt -0.000000 0.843750
vt -0.000000 0.812500
vt 0.250000 0.812500
vt 0.375000 0.812500
vt 0.375000 0.843750
vt 0.250000 0.843750
vt 0.258239 0.875000
vt 0.366761 0.875000
vt 0.375000 0.843750
vt 0.250000 0.843750
vt 0.366761 0.875000
vt 0.258239 0.875000
vt 0.258239 0.906250
vt 0.366761 0.906250
vt 0.500000 0.812500
vt 0.500000 0.843750
vt 0.383239 0.875000
vt 0.491761 0.875000
vt 0.500000 0.843750
vt 0.491761 0.875000
vt 0.383239 0.875000
vt 0.383239 0.906250
vt 0.491761 0.906250
vt 0.366761 0.875000
vt 0.366761 0.906250
vt 0.258239 0.906250
vt 0.258239 0.875000
vt 0.258239 0.875000
vt 0.366761 0.875000
vt 0.375000 0.843750
vt 0.375000 0.843750
vt 0.375000 0.812500
vt 0.133239 0.875000
vt 0.133239 0.906250
vt 0.241761 0.906250
vt 0.241761 0.875000
vt 0.241761 0.875000
vt 0.133239 0.875000
vt 0.125000 0.843750
vt 0.125000 0.843750
vt 0.125000 0.812500
vt -0.000000 0.812500
vt -0.000000 0.843750
vt 0.008239 0.875000
vt 0.116761 0.875000
vt -0.000000 0.843750
vt 0.116761 0.875000
vt 0.008239 0.875000
vt 0.008239 0.906250
vt 0.116761 0.906250
vt 0.241761 0.875000
vt 0.241761 0.906250
vt 0.133239 0.906250
vt 0.133239 0.875000
vt 0.133239 0.875000
vt 0.241761 0.875000
vt 0.250000 0.843750
vt 0.125000 0.843750
vt 0.125000 0.843750
vt 0.250000 0.843750
vt 0.250000 0.812500
vt 0.125000 0.812500
vt 0.366761 0.875000
vt 0.366761 0.906250
vt 0.258239 0.906250
vt 0.258239 0.875000
vt 0.258239 0.875000
vt 0.366761 0.875000
vt 0.375000 0.843750
vt 0.375000 0.843750
vt 0.375000 0.812500
vn 0.8090 -0.5878 0.0002
vn -0.5878 -0.8090 -0.0000
vn 0.5878 0.8090 -0.0000
vn -0.8086 0.5884 -0.0000
vn -0.4044 0.2942 0.8660
vn 0.4045 -0.2939 -0.8660
vn 0.7006 -0.5090 0.5002
vn -0.7009 0.5088 -0.4999
vn -0.4045 0.2939 -0.8660
vn 0.4045 -0.2939 0.8660
vn 0.0000 -0.0000 -1.0000
vn -0.0000 0.0000 1.0000
vn 0.7006 -0.5090 0.5000
vn -0.8090 0.5878 0.0002
vn 0.8088 -0.5881 0.0001
vn 0.7007 -0.5091 -0.4998
vn -0.7008 0.5087 0.5001
vn -0.4041 0.2945 -0.8660
vn 0.0001 0.0004 1.0000
vn -0.4045 0.2939 0.8660
vn 0.4041 -0.2945 -0.8660
vn 0.7009 -0.5088 -0.4999
usemtl ELDRIN_ORRERY
s off
f 11/21/7 53/22/7 51/23/7 12/24/7
f 9/25/8 10/26/8 53/27/8 11/28/8
f 56/29/9 18/30/9 12/24/9 51/23/9
f 9/25/10 18/31/10 56/32/10 10/26/10
f 37/33/11 28/34/11 25/35/11 17/36/11
f 13/37/8 16/38/8 28/39/8 37/40/8
f 15/41/9 14/42/9 17/36/9 25/35/9
f 13/37/12 14/43/12 15/44/12 16/38/12
f 19/45/13 11/21/13 12/24/13 20/46/13
f 21/47/8 9/48/8 11/28/8 19/49/8
f 18/50/9 22/51/9 20/46/9 12/24/9
f 21/47/14 22/52/14 18/53/14 9/48/14
f 24/54/15 23/55/15 22/56/15 21/57/15
f 22/58/9 23/59/9 26/60/9 20/46/9
f 24/54/8 21/57/8 19/49/8 27/61/8
f 27/62/16 19/45/16 20/46/16 26/60/16
f 16/63/17 15/64/17 23/65/17 24/66/17
f 23/67/9 15/68/9 25/69/9 26/60/9
f 16/63/8 24/66/8 27/61/8 28/70/8
f 28/71/18 27/62/18 26/60/18 25/69/18
f 31/72/14 32/73/14 33/74/14 41/75/14
f 42/76/8 30/77/8 32/78/8 31/79/8
f 34/80/9 29/81/9 41/75/9 33/74/9
f 42/76/19 29/82/19 34/83/19 30/77/19
f 32/73/20 35/84/20 36/85/20 33/74/20
f 30/86/8 39/87/8 35/88/8 32/78/8
f 38/89/9 34/90/9 33/74/9 36/85/9
f 30/86/21 34/91/21 38/92/21 39/87/21
f 39/93/22 38/94/22 14/95/22 13/96/22
f 14/97/9 38/98/9 36/99/9 17/36/9
f 39/93/8 13/96/8 37/40/8 35/100/8
f 35/101/23 37/33/23 17/36/23 36/99/23
f 46/102/16 43/103/16 29/104/16 42/105/16
f 29/106/9 43/107/9 40/108/9 41/75/9
f 46/102/8 42/105/8 31/79/8 47/109/8
f 47/110/24 31/72/24 41/75/24 40/108/24
f 49/111/17 47/110/17 40/108/17 48/112/17
f 44/113/8 46/114/8 47/109/8 49/115/8
f 43/116/9 45/117/9 48/112/9 40/108/9
f 44/113/25 45/118/25 43/119/25 46/114/25
f 54/120/26 55/121/26 45/122/26 44/123/26
f 45/124/9 55/125/9 52/126/9 48/127/9
f 54/120/8 44/123/8 49/128/8 50/129/8
f 50/130/27 49/131/27 48/127/27 52/126/27
f 10/132/23 56/133/23 55/134/23 54/135/23
f 55/136/9 56/137/9 51/138/9 52/126/9
f 10/132/8 54/135/8 50/129/8 53/139/8
f 53/140/28 50/130/28 52/126/28 51/138/28
o ELDRIN_ORRERY_RING_STARS_Plane.031
v 0.656713 1.825231 1.138191
v 0.619976 1.875795 1.138191
v 0.380024 1.624205 1.138191
v 0.343288 1.674769 1.138191
v 0.896332 1.999325 0.967189
v 0.859595 2.049888 0.967189
v 0.670261 1.835075 1.200691
v 0.896610 2.076781 1.012942
v 0.633525 1.885638 1.200691
v 1.034676 2.099838 0.671003
v 0.933347 2.026218 1.012941
v 1.085240 2.136574 0.687750
v 1.048503 2.187138 0.687750
v 0.997939 2.150401 0.671003
v 1.085240 2.136574 0.312250
v 1.048503 2.187138 0.312250
v 1.034676 2.099838 0.328997
v 0.997939 2.150401 0.328997
v 0.619976 1.875795 -0.138191
v 0.896332 1.999325 0.032811
v 0.859595 2.049888 0.032811
v 0.933347 2.026217 -0.012942
v 0.670261 1.835075 -0.200691
v 0.896610 2.076781 -0.012942
v 0.656712 1.825231 -0.138192
v 0.366476 1.614362 -0.200691
v 0.633524 1.885638 -0.200691
v 0.380024 1.624205 -0.138191
v 0.343287 1.674768 -0.138191
v 0.329739 1.664925 -0.200691
v -0.034676 1.400162 0.328997
v 0.140405 1.450111 0.032812
v 0.103668 1.500675 0.032812
v 0.103390 1.423218 -0.012941
v 0.066653 1.473782 -0.012941
v -0.034676 1.400162 0.671003
v 0.002061 1.349598 0.328998
v -0.048503 1.312862 0.312251
v -0.085239 1.363425 0.312251
v 0.140405 1.450111 0.967189
v 0.103668 1.500675 0.967189
v 0.002061 1.349599 0.671003
v -0.048503 1.312862 0.687750
v 0.103390 1.423218 1.012942
v 0.066653 1.473782 1.012942
v -0.085239 1.363426 0.687750
v 0.366476 1.614362 1.200691
v 0.329739 1.664925 1.200691
vt 0.000000 0.906250
vt 0.187500 0.906250
vt 0.187500 0.937500
vt 0.000000 0.937500
vt 0.008360 0.968750
vt 0.179140 0.968750
vt 0.187500 0.937500
vt 0.000000 0.937500
vt 0.179140 0.968750
vt 0.008360 0.968750
vt 0.008360 1.000000
vt 0.179140 1.000000
vt 0.375000 0.906250
vt 0.375000 0.937500
vt 0.195860 0.968750
vt 0.366640 0.968750
vt 0.375000 0.937500
vt 0.366640 0.968750
vt 0.195860 0.968750
vt 0.195860 1.000000
vt 0.366640 1.000000
vt 0.562500 0.906250
vt 0.562500 0.937500
vt 0.383360 0.968750
vt 0.554140 0.968750
vt 0.562500 0.937500
vt 0.554140 0.968750
vt 0.383360 0.968750
vt 0.383360 1.000000
vt 0.554140 1.000000
vt 0.750000 0.906250
vt 0.750000 0.937500
vt 0.570860 0.968750
vt 0.741640 0.968750
vt 0.750000 0.937500
vt 0.741640 0.968750
vt 0.570860 0.968750
vt 0.570860 1.000000
vt 0.741640 1.000000
vt 0.562500 0.906250
vt 0.375000 0.906250
vt 0.375000 0.937500
vt 0.562500 0.937500
vt 0.554140 0.968750
vt 0.383360 0.968750
vt 0.375000 0.937500
vt 0.562500 0.937500
vt 0.383360 0.968750
vt 0.554140 0.968750
vt 0.554140 1.000000
vt 0.383360 1.000000
vt 0.187500 0.906250
vt 0.187500 0.937500
vt 0.366640 0.968750
vt 0.195860 0.968750
vt 0.187500 0.937500
vt 0.195860 0.968750
vt 0.366640 0.968750
vt 0.366640 1.000000
vt 0.195860 1.000000
vt 0.000000 0.906250
vt 0.187500 0.906250
vt 0.187500 0.937500
vt 0.000000 0.937500
vt 0.008360 0.968750
vt 0.179140 0.968750
vt 0.187500 0.937500
vt 0.000000 0.937500
vt 0.179140 0.968750
vt 0.008360 0.968750
vt 0.008360 1.000000
vt 0.179140 1.000000
vt 0.375000 0.906250
vt 0.375000 0.937500
vt 0.195860 0.968750
vt 0.366640 0.968750
vt 0.375000 0.937500
vt 0.366640 0.968750
vt 0.195860 0.968750
vt 0.195860 1.000000
vt 0.366640 1.000000
vt 0.562500 0.906250
vt 0.562500 0.937500
vt 0.383360 0.968750
vt 0.554140 0.968750
vt 0.562500 0.937500
vt 0.554140 0.968750
vt 0.383360 0.968750
vt 0.383360 1.000000
vt 0.554140 1.000000
vt 0.750000 0.906250
vt 0.750000 0.937500
vt 0.570860 0.968750
vt 0.741640 0.968750
vt 0.750000 0.937500
vt 0.741640 0.968750
vt 0.570860 0.968750
vt 0.570860 1.000000
vt 0.741640 1.000000
vt 0.562500 0.906250
vt 0.375000 0.906250
vt 0.375000 0.937500
vt 0.562500 0.937500
vt 0.554140 0.968750
vt 0.383360 0.968750
vt 0.375000 0.937500
vt 0.562500 0.937500
vt 0.383360 0.968750
vt 0.554140 0.968750
vt 0.554140 1.000000
vt 0.383360 1.000000
vt 0.187500 0.906250
vt 0.187500 0.937500
vt 0.366640 0.968750
vt 0.195860 0.968750
vt 0.187500 0.937500
vt 0.195860 0.968750
vt 0.366640 0.968750
vt 0.366640 1.000000
vt 0.195860 1.000000
vn 0.0000 0.0000 1.0000
vn 0.5878 -0.8090 0.0000
vn -0.5878 0.8090 0.0000
vn 0.0000 0.0000 -1.0000
vn 0.4045 0.2939 0.8660
vn -0.4045 -0.2939 -0.8660
vn 0.7006 0.5090 0.5000
vn -0.7006 -0.5090 -0.5000
vn 0.8090 0.5878 0.0000
vn -0.8090 -0.5878 0.0000
vn 0.7006 0.5090 -0.5000
vn -0.7006 -0.5090 0.5000
vn 0.4045 0.2939 -0.8660
vn -0.4045 -0.2939 0.8660
usemtl ELDRIN_ORRERY
s off
f 103/141/29 63/142/29 65/143/29 104/144/29
f 59/145/30 57/146/30 63/147/30 103/148/30
f 58/149/31 60/150/31 104/144/31 65/143/31
f 59/145/32 60/151/32 58/152/32 57/146/32
f 63/142/33 67/153/33 64/154/33 65/143/33
f 57/155/30 61/156/30 67/157/30 63/147/30
f 62/158/31 58/159/31 65/143/31 64/154/31
f 57/155/34 58/160/34 62/161/34 61/156/34
f 67/153/35 68/162/35 69/163/35 64/154/35
f 61/164/30 66/165/30 68/166/30 67/157/30
f 70/167/31 62/168/31 64/154/31 69/163/31
f 61/164/36 62/169/36 70/170/36 66/165/36
f 68/162/37 71/171/37 72/172/37 69/163/37
f 66/173/30 73/174/30 71/175/30 68/166/30
f 74/176/31 70/177/31 69/163/31 72/172/31
f 66/173/38 70/178/38 74/179/38 73/174/38
f 71/180/39 78/181/39 80/182/39 72/183/39
f 73/184/30 76/185/30 78/186/30 71/187/30
f 77/188/31 74/189/31 72/183/31 80/182/31
f 73/184/40 74/190/40 77/191/40 76/185/40
f 78/181/41 79/192/41 83/193/41 80/182/41
f 76/194/30 81/195/30 79/196/30 78/186/30
f 75/197/31 77/198/31 80/182/31 83/193/31
f 76/194/42 77/199/42 75/200/42 81/195/42
f 79/201/32 82/202/32 86/203/32 83/204/32
f 81/205/30 84/206/30 82/207/30 79/208/30
f 85/209/31 75/210/31 83/204/31 86/203/31
f 81/205/29 75/211/29 85/212/29 84/206/29
f 82/202/34 90/213/34 91/214/34 86/203/34
f 84/215/30 88/216/30 90/217/30 82/207/30
f 89/218/31 85/219/31 86/203/31 91/214/31
f 84/215/33 85/220/33 89/221/33 88/216/33
f 90/213/36 94/222/36 95/223/36 91/214/36
f 88/224/30 93/225/30 94/226/30 90/217/30
f 87/227/31 89/228/31 91/214/31 95/223/31
f 88/224/35 89/229/35 87/230/35 93/225/35
f 94/222/38 99/231/38 102/232/38 95/223/38
f 93/233/30 98/234/30 99/235/30 94/226/30
f 92/236/31 87/237/31 95/223/31 102/232/31
f 93/233/37 87/238/37 92/239/37 98/234/37
f 99/240/40 100/241/40 101/242/40 102/243/40
f 98/244/30 96/245/30 100/246/30 99/247/30
f 97/248/31 92/249/31 102/243/31 101/242/31
f 98/244/39 92/250/39 97/251/39 96/245/39
f 100/241/42 103/252/42 104/253/42 101/242/42
f 96/254/30 59/255/30 103/256/30 100/246/30
f 60/257/31 97/258/31 101/242/31 104/253/31
f 96/254/41 97/259/41 60/260/41 59/255/41
o ELDRIN_ORRERY_BODY_Plane.042
v -0.687500 0.000000 0.187500
v -0.687500 0.000000 0.812500
v -0.937500 0.000000 0.437500
v -0.937500 0.000000 0.562500
v -0.364383 0.000000 1.372155
v 0.176883 0.000000 1.684655
v -0.272877 0.000000 1.713661
v -0.164623 0.000000 1.776162
v 0.823117 0.000000 1.684655
v 1.364383 0.000000 1.372155
v 1.164623 0.000000 1.776162
v 1.272877 0.000000 1.713662
v 1.687500 0.000000 0.812500
v 1.687500 0.000000 0.187500
v 1.937500 0.000000 0.562500
v 1.937500 0.000000 0.437500
v 1.364383 0.000000 -0.372155
v 0.823117 0.000000 -0.684655
v 1.272877 0.000000 -0.713662
v 1.164623 0.000000 -0.776162
v 0.176883 0.000000 -0.684655
v -0.364383 0.000000 -0.372155
v -0.164623 0.000000 -0.776162
v -0.272877 0.000000 -0.713661
v 1.608253 0.000000 0.187500
v 1.608253 0.000000 0.812500
v 1.324759 0.000000 -0.303526
v 0.783494 0.000000 -0.616026
v 0.216506 0.000000 -0.616025
v -0.324760 0.000000 -0.303525
v -0.608253 0.000000 0.187500
v -0.608253 0.000000 0.812500
v -0.324759 0.000000 1.303525
v 0.216506 0.000000 1.616025
v 0.783494 0.000000 1.616025
v 1.324760 0.000000 1.303525
v 0.500000 0.000000 0.500000
v 0.875000 0.187500 -0.553526
v 0.875000 0.437500 -0.553526
v 0.875000 0.125000 -0.616026
v 0.125000 0.125000 -0.616025
v 0.875000 0.000000 -0.616026
v 0.125000 0.000000 -0.616025
v 0.125000 0.187500 -0.553526
v 0.125000 0.437500 -0.553526
v 0.125000 0.500000 -0.491026
v 0.875000 0.500000 -0.491026
v 0.125000 0.500000 -0.303526
v 0.875000 0.500000 -0.303526
v -0.224880 0.187500 -0.351523
v -0.224880 0.437500 -0.351523
v -0.279006 0.125000 -0.382773
v -0.654006 0.125000 0.266747
v -0.279006 0.000000 -0.382773
v -0.654006 0.000000 0.266747
v -0.599880 0.187500 0.297997
v -0.599880 0.437500 0.297997
v -0.545753 0.500000 0.329247
v -0.170753 0.500000 -0.320272
v -0.383373 0.500000 0.422997
v -0.008373 0.500000 -0.226523
v -0.599880 0.187500 0.702003
v -0.599880 0.437500 0.702003
v -0.654007 0.125000 0.733253
v -0.279007 0.125000 1.382772
v -0.654007 0.000000 0.733253
v -0.279007 0.000000 1.382772
v -0.224880 0.187500 1.351522
v -0.224880 0.437500 1.351522
v -0.170753 0.500000 1.320272
v -0.545753 0.500000 0.670753
v -0.008374 0.500000 1.226522
v -0.383374 0.500000 0.577003
v 0.125000 0.187500 1.553526
v 0.125000 0.437500 1.553526
v 0.125000 0.125000 1.616026
v 0.875000 0.125000 1.616026
v 0.125000 0.000000 1.616026
v 0.875000 0.000000 1.616026
v 0.875000 0.187500 1.553526
v 0.875000 0.437500 1.553526
v 0.875000 0.500000 1.491026
v 0.125000 0.500000 1.491026
v 0.875000 0.500000 1.303525
v 0.125000 0.500000 1.303526
v 1.224880 0.187500 1.351523
v 1.224880 0.437500 1.351523
v 1.279006 0.125000 1.382773
v 1.654006 0.125000 0.733253
v 1.279006 0.000000 1.382773
v 1.654006 0.000000 0.733253
v 1.599880 0.187500 0.702003
v 1.599880 0.437500 0.702003
v 1.545753 0.500000 0.670753
v 1.170753 0.500000 1.320273
v 1.383374 0.500000 0.577003
v 1.008373 0.500000 1.226523
v 1.599880 0.187500 0.297997
v 1.599880 0.437500 0.297997
v 1.654007 0.125000 0.266747
v 1.279006 0.125000 -0.382772
v 1.654007 0.000000 0.266747
v 1.279006 0.000000 -0.382772
v 1.224880 0.187500 -0.351523
v 1.224880 0.437500 -0.351523
v 1.170753 0.500000 -0.320272
v 1.545753 0.500000 0.329247
v 1.008373 0.500000 -0.226522
v 1.383374 0.500000 0.422997
v 1.562500 0.750000 0.625000
v 1.687500 0.750000 0.687500
v 1.250000 0.750000 0.687500
v 1.687500 0.750000 0.312500
v 1.250000 0.750000 0.312500
v 1.812500 0.750000 0.562500
v 1.812500 0.750000 0.437500
v 1.687500 0.687500 0.750000
v 1.250000 0.687500 0.750000
v 1.687500 0.687500 0.250000
v 1.250000 0.687500 0.250000
v 1.875000 0.687500 0.562500
v 1.875000 0.687500 0.437500
v 1.687500 0.187500 0.750000
v 1.250000 0.187500 0.750000
v 1.687500 0.187500 0.250000
v 1.250000 0.187500 0.250000
v 1.875000 0.187500 0.562500
v 1.875000 0.187500 0.437500
v 1.687500 0.125000 0.812500
v 1.250000 0.125000 0.812500
v 1.687500 0.125000 0.187500
v 1.250000 0.125000 0.187500
v 1.937500 0.125000 0.562500
v 1.937500 0.125000 0.437500
v 1.687500 0.000000 0.812500
v 1.250000 0.000000 0.812500
v 1.687500 0.000000 0.187500
v 1.250000 0.000000 0.187500
v 1.937500 0.000000 0.562500
v 1.937500 0.000000 0.437500
v 0.977124 0.781250 1.451402
v 1.147877 0.781250 1.497155
v 1.039624 0.781250 1.559655
v 1.272877 0.000000 1.713661
v 1.164624 0.000000 1.776161
v 1.145633 0.000000 0.993269
v 1.364383 0.000000 1.372155
v 0.604367 0.000000 1.305769
v 0.823117 0.000000 1.684655
v 1.272877 0.125000 1.713661
v 1.164624 0.125000 1.776161
v 1.145633 0.125000 0.993269
v 1.364383 0.125000 1.372155
v 0.604367 0.125000 1.305769
v 0.823117 0.125000 1.684655
v 1.241627 0.187500 1.659535
v 1.133374 0.187500 1.722035
v 1.091507 0.187500 1.024519
v 1.310257 0.187500 1.403405
v 0.658494 0.187500 1.274519
v 0.877244 0.187500 1.653405
v 1.241627 0.687500 1.659535
v 1.133374 0.687500 1.722035
v 1.091507 0.687500 1.024519
v 1.310257 0.687500 1.403405
v 0.658494 0.687500 1.274519
v 0.877244 0.687500 1.653405
v 1.210377 0.750000 1.605408
v 1.102124 0.750000 1.667908
v 1.037380 0.750000 1.055769
v 1.256130 0.750000 1.434655
v 0.712621 0.750000 1.243269
v 0.931371 0.750000 1.622155
v 0.922997 0.750000 1.482652
v -0.039624 0.781250 -0.559655
v -0.147877 0.781250 -0.497155
v 0.022876 0.781250 -0.451402
v -0.085377 0.781250 -0.388902
v -0.062500 0.750000 -0.474278
v 0.014503 0.750000 -0.590905
v -0.139503 0.750000 -0.357652
v -0.202003 0.750000 -0.465905
v -0.070874 0.750000 -0.613782
v -0.179127 0.750000 -0.551282
v 0.054126 0.750000 -0.397275
v -0.054127 0.750000 -0.334775
v 0.945873 0.750000 -0.397276
v 1.054126 0.750000 -0.334776
v 1.070873 0.750000 -0.613782
v 1.179127 0.750000 -0.551282
v 0.985497 0.750000 -0.590905
v 0.922997 0.750000 -0.482652
v 1.202003 0.750000 -0.465905
v 1.062500 0.750000 -0.474279
v 0.977123 0.781250 -0.451402
v 1.085377 0.781250 -0.388902
v 1.039623 0.781250 -0.559655
v 1.147876 0.781250 -0.497155
v -0.139503 0.750000 1.357652
v -0.256130 0.750000 1.434655
v -0.037380 0.750000 1.055769
v 0.068630 0.750000 1.622155
v 0.287380 0.750000 1.243269
v -0.210376 0.750000 1.605409
v -0.102123 0.750000 1.667909
v -0.310256 0.687500 1.403405
v -0.091506 0.687500 1.024519
v 0.122757 0.687500 1.653405
v 0.341507 0.687500 1.274519
v -0.241626 0.687500 1.659535
v -0.133373 0.687500 1.722035
v -0.310256 0.187500 1.403405
v -0.091506 0.187500 1.024519
v 0.122757 0.187500 1.653405
v 0.341507 0.187500 1.274519
v -0.241626 0.187500 1.659535
v -0.133373 0.187500 1.722035
v -0.364383 0.125000 1.372155
v -0.145633 0.125000 0.993269
v 0.176883 0.125000 1.684655
v 0.395633 0.125000 1.305769
v -0.272876 0.125000 1.713662
v -0.164623 0.125000 1.776161
v -0.364383 0.000000 1.372155
v -0.145633 0.000000 0.993269
v 0.176883 0.000000 1.684655
v 0.395633 0.000000 1.305769
v -0.272876 0.000000 1.713662
v -0.164623 0.000000 1.776161
v -0.147876 0.781250 1.497155
v -0.039623 0.781250 1.559655
v -0.085376 0.781250 1.388902
v 0.022877 0.781250 1.451402
v -0.062500 0.750000 1.474279
v -0.202003 0.750000 1.465905
v 0.077003 0.750000 1.482652
v 0.014504 0.750000 1.590905
v -0.179126 0.750000 1.551282
v -0.070873 0.750000 1.613782
v -0.054126 0.750000 1.334776
v 0.054127 0.750000 1.397276
v 1.164623 0.000000 -0.776161
v 1.272877 0.000000 -0.713662
v 0.604367 0.000000 -0.305769
v 0.823117 0.000000 -0.684655
v 1.145633 0.000000 0.006731
v 1.364383 0.000000 -0.372155
v 1.164623 0.125000 -0.776161
v 1.272877 0.125000 -0.713662
v 0.604367 0.125000 -0.305769
v 0.823117 0.125000 -0.684655
v 1.145633 0.125000 0.006731
v 1.364383 0.125000 -0.372155
v 1.133373 0.187500 -0.722035
v 1.241626 0.187500 -0.659535
v 0.658494 0.187500 -0.274519
v 0.877243 0.187500 -0.653405
v 1.091506 0.187500 -0.024519
v 1.310256 0.187500 -0.403405
v 1.133373 0.687500 -0.722035
v 1.241626 0.687500 -0.659535
v 0.658494 0.687500 -0.274519
v 0.877243 0.687500 -0.653405
v 1.091506 0.687500 -0.024519
v 1.310256 0.687500 -0.403405
v 1.102123 0.750000 -0.667909
v 1.210376 0.750000 -0.605409
v 0.712620 0.750000 -0.243269
v 0.931370 0.750000 -0.622155
v 1.037380 0.750000 -0.055769
v 1.256130 0.750000 -0.434655
v 1.139503 0.750000 -0.357652
v -0.500000 0.750000 0.562500
v -0.500000 0.750000 0.437500
v -0.750000 0.750000 0.562500
v -0.750000 0.750000 0.437500
v -0.687500 0.750000 0.625000
v -0.562500 0.750000 0.625000
v -0.687500 0.750000 0.375000
v -0.625000 0.750000 0.500000
v -0.562500 0.781250 0.562500
v -0.562500 0.781250 0.437500
v -0.687500 0.781250 0.562500
v -0.687500 0.781250 0.437500
v -0.937500 0.000000 0.562500
v -0.937500 0.000000 0.437500
v -0.250000 0.000000 0.812500
v -0.687500 0.000000 0.812500
v -0.250000 0.000000 0.187500
v -0.687500 0.000000 0.187500
v -0.937500 0.125000 0.562500
v -0.937500 0.125000 0.437500
v -0.250000 0.125000 0.812500
v -0.687500 0.125000 0.812500
v -0.250000 0.125000 0.187500
v -0.687500 0.125000 0.187500
v -0.875000 0.187500 0.562500
v -0.875000 0.187500 0.437500
v -0.250000 0.187500 0.750000
v -0.687500 0.187500 0.750000
v -0.250000 0.187500 0.250000
v -0.687500 0.187500 0.250000
v -0.875000 0.687500 0.562500
v -0.875000 0.687500 0.437500
v -0.250000 0.687500 0.750000
v -0.687500 0.687500 0.750000
v -0.250000 0.687500 0.250000
v -0.687500 0.687500 0.250000
v -0.812500 0.750000 0.562500
v -0.812500 0.750000 0.437500
v -0.250000 0.750000 0.687500
v -0.687500 0.750000 0.687500
v -0.250000 0.750000 0.312500
v -0.687500 0.750000 0.312500
v -0.562500 0.750000 0.375000
v 0.750249 1.000000 1.433944
v 0.750249 0.500000 1.433944
v 0.700009 1.062500 1.246444
v 0.616275 1.000000 0.933944
v 0.383725 1.000000 0.933944
v 0.566034 1.062500 0.746444
v 0.549287 1.125000 0.683944
v 1.183694 0.500000 1.183694
v 1.137941 1.062500 1.137941
v 0.733503 1.062500 1.371444
v 1.046435 1.062500 1.046435
v 1.000682 1.000000 1.000682
v 0.683263 1.000000 1.183944
v 0.771916 1.062500 0.771916
v 0.599528 1.062500 0.871444
v 0.680409 1.062500 0.680410
v 0.634656 1.125000 0.634656
v 0.500000 1.125000 0.500000
v 1.433944 1.000000 0.750250
v 1.183695 1.000000 1.183694
v 1.433944 0.500000 0.750250
v 1.371444 1.062500 0.733503
v 1.183944 1.000000 0.683262
v 0.933944 1.000000 0.616275
v 0.817669 1.000000 0.817669
v 0.871444 1.062500 0.599528
v 0.746444 1.062500 0.566035
v 0.683944 1.125000 0.549288
v 1.371444 1.062500 0.266497
v 1.246444 1.062500 0.700009
v 1.183694 1.000000 -0.183694
v 1.433944 1.000000 0.249750
v 1.433944 0.500000 0.249750
v 1.137941 1.062500 -0.137941
v 1.246444 1.062500 0.299991
v 1.000682 1.000000 -0.000682
v 1.183944 1.000000 0.316737
v 0.933944 1.000000 0.383725
v 0.771916 1.062500 0.228084
v 0.871444 1.062500 0.400472
v 0.680410 1.062500 0.319591
v 0.746444 1.062500 0.433965
v 0.634656 1.125000 0.365344
v 0.683944 1.125000 0.450712
v 1.183694 0.500000 -0.183695
v 0.733503 1.062500 -0.371444
v 1.046435 1.062500 -0.046435
v 0.683262 1.000000 -0.183944
v 0.616275 1.000000 0.066056
v 0.817669 1.000000 0.182331
v 0.750249 1.000000 -0.433944
v 0.750249 0.500000 -0.433944
v 0.266497 1.062500 -0.371444
v 0.700009 1.062500 -0.246444
v 0.316738 1.000000 -0.183944
v 0.383725 1.000000 0.066056
v 0.400472 1.062500 0.128556
v 0.599528 1.062500 0.128556
v 0.566034 1.062500 0.253556
v 0.549288 1.125000 0.316056
v 0.249750 1.000000 -0.433944
v 0.249750 0.500000 -0.433944
v 0.299991 1.062500 -0.246444
v 0.433965 1.062500 0.253556
v 0.450712 1.125000 0.316056
v -0.183695 1.000000 -0.183694
v -0.183695 0.500000 -0.183694
v -0.137942 1.062500 -0.137941
v -0.046435 1.062500 -0.046435
v -0.000682 1.000000 -0.000681
v 0.182331 1.000000 0.182331
v 0.128556 1.062500 0.400472
v 0.228084 1.062500 0.228084
v 0.319590 1.062500 0.319591
v 0.316056 1.125000 0.450712
v 0.365344 1.125000 0.365344
v -0.433944 1.000000 0.249751
v -0.433944 0.500000 0.750250
v -0.433944 0.500000 0.249751
v -0.371444 1.062500 0.733503
v -0.371444 1.062500 0.266498
v -0.246444 1.062500 0.700009
v -0.246444 1.062500 0.299991
v -0.183944 1.000000 0.316738
v 0.066056 1.000000 0.616275
v 0.066056 1.000000 0.383725
v 0.253556 1.062500 0.433966
v 0.316056 1.125000 0.549287
v -0.183694 1.000000 1.183695
v -0.433944 1.000000 0.750250
v -0.183694 0.500000 1.183695
v -0.137941 1.062500 1.137941
v -0.183944 1.000000 0.683263
v 0.182331 1.000000 0.817669
v 0.128556 1.062500 0.599528
v 0.253556 1.062500 0.566035
v 0.365344 1.125000 0.634656
v 0.249750 1.000000 1.433944
v 0.249750 0.500000 1.433944
v 0.266497 1.062500 1.371444
v 0.299991 1.062500 1.246444
v -0.046434 1.062500 1.046435
v 0.316738 1.000000 1.183944
v -0.000681 1.000000 1.000682
v 0.400472 1.062500 0.871444
v 0.228084 1.062500 0.771916
v 0.433965 1.062500 0.746444
v 0.319591 1.062500 0.680410
v 0.450712 1.125000 0.683944
v 1.687500 0.781250 0.562500
v 1.687500 0.781250 0.437500
v 1.562500 0.781250 0.562500
v 1.562500 0.781250 0.437500
v 1.625000 0.750000 0.500000
v 1.687500 0.750000 0.625000
v 1.562500 0.750000 0.375000
v 1.687500 0.750000 0.375000
v 1.750000 0.750000 0.562500
v 1.750000 0.750000 0.437500
v 1.500000 0.750000 0.562500
v 1.500000 0.750000 0.437500
v 1.085377 0.781250 1.388902
v 1.062500 0.750000 1.474278
v 0.985497 0.750000 1.590905
v 1.139503 0.750000 1.357652
v 1.202003 0.750000 1.465905
v 1.070874 0.750000 1.613781
v 1.179127 0.750000 1.551282
v 0.945874 0.750000 1.397275
v 1.054127 0.750000 1.334775
v -0.272877 0.000000 -0.713661
v -0.164624 0.000000 -0.776161
v -0.145633 0.000000 0.006731
v -0.364383 0.000000 -0.372155
v 0.395633 0.000000 -0.305769
v 0.176883 0.000000 -0.684655
v -0.272877 0.125000 -0.713661
v -0.164624 0.125000 -0.776161
v -0.145633 0.125000 0.006731
v -0.364383 0.125000 -0.372155
v 0.395633 0.125000 -0.305769
v 0.176883 0.125000 -0.684655
v -0.241627 0.187500 -0.659535
v -0.133374 0.187500 -0.722035
v -0.091507 0.187500 -0.024519
v -0.310257 0.187500 -0.403405
v 0.341506 0.187500 -0.274519
v 0.122756 0.187500 -0.653405
v -0.241627 0.687500 -0.659535
v -0.133374 0.687500 -0.722035
v -0.091507 0.687500 -0.024519
v -0.310257 0.687500 -0.403405
v 0.341506 0.687500 -0.274519
v 0.122756 0.687500 -0.653405
v -0.210377 0.750000 -0.605408
v -0.102124 0.750000 -0.667908
v -0.037380 0.750000 -0.055769
v -0.256130 0.750000 -0.434655
v 0.287380 0.750000 -0.243269
v 0.068629 0.750000 -0.622155
v 0.077003 0.750000 -0.482652
vt 0.687500 0.062500
vt 0.656250 0.062500
vt 0.656250 0.093750
vt 0.687500 0.093750
vt 0.656250 0.062500
vt 0.687500 0.062500
vt 0.687500 0.062500
vt 0.656250 0.062500
vt 0.656250 0.093750
vt 0.687500 0.093750
vt 0.656250 0.062500
vt 0.687500 0.062500
vt 0.687500 0.062500
vt 0.656250 0.062500
vt 0.656250 0.093750
vt 0.687500 0.093750
vt 0.687500 0.062500
vt 0.656250 0.062500
vt 0.687500 0.062500
vt 0.656250 0.062500
vt 0.656250 0.093750
vt 0.687500 0.093750
vt 0.687500 0.062500
vt 0.656250 0.062500
vt 0.687500 0.062500
vt 0.656250 0.062500
vt 0.656250 0.093750
vt 0.687500 0.093750
vt 0.687500 0.062500
vt 0.656250 0.062500
vt 0.687500 0.062500
vt 0.656250 0.062500
vt 0.656250 0.093750
vt 0.687500 0.093750
vt 0.687500 0.062500
vt 0.656250 0.062500
vt 0.687500 0.093750
vt -0.000000 0.093750
vt 0.375000 0.093750
vt 0.375000 0.218750
vt -0.000000 0.218750
vt -0.000000 0.062500
vt 0.375000 0.062500
vt -0.000000 0.000000
vt 0.375000 -0.000000
vt 0.375000 0.250000
vt -0.000000 0.250000
vt 0.375000 0.343750
vt 0.000000 0.343750
vt -0.000000 0.093750
vt 0.375000 0.093750
vt 0.375000 0.218750
vt -0.000000 0.218750
vt -0.000000 0.062500
vt 0.375000 0.062500
vt -0.000000 0.000000
vt 0.375000 -0.000000
vt 0.375000 0.250000
vt -0.000000 0.250000
vt 0.375000 0.343750
vt 0.000000 0.343750
vt -0.000000 0.093750
vt 0.375000 0.093750
vt 0.375000 0.218750
vt -0.000000 0.218750
vt -0.000000 0.062500
vt 0.375000 0.062500
vt -0.000000 0.000000
vt 0.375000 -0.000000
vt 0.375000 0.250000
vt -0.000000 0.250000
vt 0.375000 0.343750
vt 0.000000 0.343750
vt -0.000000 0.093750
vt 0.375000 0.093750
vt 0.375000 0.218750
vt -0.000000 0.218750
vt -0.000000 0.062500
vt 0.375000 0.062500
vt -0.000000 0.000000
vt 0.375000 -0.000000
vt 0.375000 0.250000
vt -0.000000 0.250000
vt 0.375000 0.343750
vt 0.000000 0.343750
vt -0.000000 0.093750
vt 0.375000 0.093750
vt 0.375000 0.218750
vt -0.000000 0.218750
vt -0.000000 0.062500
vt 0.375000 0.062500
vt -0.000000 0.000000
vt 0.375000 -0.000000
vt 0.375000 0.250000
vt -0.000000 0.250000
vt 0.375000 0.343750
vt 0.000000 0.343750
vt -0.000000 0.093750
vt 0.375000 0.093750
vt 0.375000 0.218750
vt -0.000000 0.218750
vt -0.000000 0.062500
vt 0.375000 0.062500
vt -0.000000 0.000000
vt 0.375000 -0.000000
vt 0.375000 0.250000
vt -0.000000 0.250000
vt 0.375000 0.343750
vt 0.000000 0.343750
vt 0.718750 0.718750
vt 0.781250 0.718750
vt 0.781250 0.750000
vt 0.718750 0.750000
vt 0.781250 0.656250
vt 0.718750 0.656250
vt 0.718750 0.625000
vt 0.781250 0.625000
vt 0.687500 0.718750
vt 0.687500 0.656250
vt 0.812500 0.656250
vt 0.812500 0.718750
vt 0.593750 0.000000
vt 0.593750 0.187500
vt 0.375000 0.187500
vt 0.375000 0.000000
vt 0.750000 0.156250
vt 0.687500 0.093750
vt 0.656250 0.093750
vt 0.750000 0.187500
vt 0.375000 0.718750
vt 0.312500 0.718750
vt 0.312500 0.687500
vt 0.375000 0.687500
vt 0.093750 0.718750
vt 0.312500 0.718750
vt 0.312500 0.687500
vt 0.093750 0.687500
vt 0.687500 0.093750
vt 0.750000 0.156250
vt 0.750000 0.187500
vt 0.656250 0.093750
vt 0.312500 0.718750
vt 0.093750 0.718750
vt 0.093750 0.687500
vt 0.312500 0.687500
vt 0.000000 0.687500
vt 0.093750 0.437500
vt -0.000000 0.437500
vt 0.093750 0.437500
vt 0.312500 0.437500
vt 0.000000 0.687500
vt -0.000000 0.437500
vt 0.312500 0.437500
vt 0.375000 0.437500
vt 0.312500 0.437500
vt 0.656250 0.000000
vt 0.750000 0.093750
vt 0.750000 0.125000
vt 0.625000 0.000000
vt 0.093750 0.406250
vt 0.312500 0.406250
vt 0.750000 0.093750
vt 0.656250 0.000000
vt 0.625000 0.000000
vt 0.750000 0.125000
vt 0.312500 0.406250
vt 0.375000 0.406250
vt 0.312500 0.406250
vt 0.093750 0.406250
vt 0.093750 0.343750
vt 0.312500 0.343750
vt 0.500000 0.437500
vt 0.375000 0.437500
vt 0.375000 0.375000
vt 0.500000 0.375000
vt 0.312500 0.343750
vt 0.375000 0.343750
vt 0.312500 0.343750
vt 0.093750 0.343750
vt 0.375000 0.437500
vt 0.500000 0.437500
vt 0.500000 0.375000
vt 0.375000 0.375000
vt 0.312500 0.406250
vt 0.093750 0.406250
vt 0.093750 0.343750
vt 0.312500 0.343750
vt 0.500000 0.437500
vt 0.375000 0.437500
vt 0.375000 0.375000
vt 0.500000 0.375000
vt 0.375000 0.406250
vt 0.312500 0.406250
vt 0.312500 0.343750
vt 0.375000 0.343750
vt 0.093750 0.406250
vt 0.312500 0.406250
vt 0.312500 0.343750
vt 0.093750 0.343750
vt 0.375000 0.437500
vt 0.500000 0.437500
vt 0.500000 0.375000
vt 0.375000 0.375000
vt 0.718750 0.718750
vt 0.718750 0.750000
vt 0.687500 0.718750
vt 0.781250 0.718750
vt 0.812500 0.718750
vt 0.781250 0.750000
vt 0.781250 0.656250
vt 0.781250 0.625000
vt 0.812500 0.656250
vt 0.718750 0.656250
vt 0.687500 0.656250
vt 0.718750 0.625000
vt 0.656250 0.062500
vt 0.656250 0.125000
vt 0.593750 0.187500
vt 0.593750 0.000000
vt 0.750000 0.687500
vt 0.375000 0.437500
vt 0.500000 0.437500
vt 0.500000 0.375000
vt 0.375000 0.375000
vt 0.093750 0.406250
vt 0.312500 0.406250
vt 0.312500 0.343750
vt 0.093750 0.343750
vt 0.375000 0.406250
vt 0.312500 0.406250
vt 0.312500 0.343750
vt 0.375000 0.343750
vt 0.500000 0.437500
vt 0.375000 0.437500
vt 0.375000 0.375000
vt 0.500000 0.375000
vt 0.312500 0.406250
vt 0.093750 0.406250
vt 0.093750 0.343750
vt 0.312500 0.343750
vt 0.093750 0.437500
vt 0.312500 0.437500
vt 0.375000 0.437500
vt 0.312500 0.437500
vt 0.750000 0.093750
vt 0.656250 0.000000
vt 0.625000 0.000000
vt 0.750000 0.125000
vt 0.312500 0.437500
vt 0.093750 0.437500
vt 0.656250 0.000000
vt 0.750000 0.093750
vt 0.750000 0.125000
vt 0.625000 0.000000
vt 0.093750 0.687500
vt 0.312500 0.687500
vt 0.375000 0.687500
vt 0.312500 0.687500
vt 0.093750 0.687500
vt 0.000000 0.687500
vt -0.000000 0.437500
vt 0.312500 0.687500
vt 0.000000 0.687500
vt -0.000000 0.437500
vt 0.312500 0.718750
vt 0.093750 0.718750
vt 0.687500 0.093750
vt 0.750000 0.156250
vt 0.750000 0.187500
vt 0.656250 0.093750
vt 0.093750 0.718750
vt 0.312500 0.718750
vt 0.375000 0.718750
vt 0.312500 0.718750
vt 0.750000 0.156250
vt 0.687500 0.093750
vt 0.656250 0.093750
vt 0.750000 0.187500
vt 0.375000 0.187500
vt 0.375000 0.000000
vt 0.718750 0.656250
vt 0.781250 0.656250
vt 0.750000 0.687500
vt 0.781250 0.718750
vt 0.718750 0.718750
vt 0.656250 0.062500
vt 0.656250 0.125000
vt 0.593750 0.187500
vt 0.593750 0.000000
vt 0.687500 0.656250
vt 0.718750 0.625000
vt 0.781250 0.625000
vt 0.812500 0.656250
vt 0.812500 0.718750
vt 0.781250 0.750000
vt 0.718750 0.750000
vt 0.687500 0.718750
vt 0.718750 0.718750
vt 0.718750 0.750000
vt 0.687500 0.718750
vt 0.781250 0.718750
vt 0.812500 0.718750
vt 0.781250 0.750000
vt 0.781250 0.656250
vt 0.781250 0.625000
vt 0.812500 0.656250
vt 0.718750 0.656250
vt 0.687500 0.656250
vt 0.718750 0.625000
vt 0.656250 0.062500
vt 0.656250 0.125000
vt 0.593750 0.187500
vt 0.593750 0.000000
vt 0.750000 0.687500
vt 0.718750 0.718750
vt 0.781250 0.718750
vt 0.781250 0.750000
vt 0.718750 0.750000
vt 0.781250 0.656250
vt 0.718750 0.656250
vt 0.718750 0.625000
vt 0.781250 0.625000
vt 0.687500 0.718750
vt 0.687500 0.656250
vt 0.812500 0.656250
vt 0.812500 0.718750
vt 0.593750 0.000000
vt 0.593750 0.187500
vt 0.375000 0.187500
vt 0.375000 0.000000
vt 0.750000 0.156250
vt 0.687500 0.093750
vt 0.656250 0.093750
vt 0.750000 0.187500
vt 0.375000 0.718750
vt 0.312500 0.718750
vt 0.312500 0.687500
vt 0.375000 0.687500
vt 0.093750 0.718750
vt 0.312500 0.718750
vt 0.312500 0.687500
vt 0.093750 0.687500
vt 0.687500 0.093750
vt 0.750000 0.156250
vt 0.750000 0.187500
vt 0.656250 0.093750
vt 0.312500 0.718750
vt 0.093750 0.718750
vt 0.093750 0.687500
vt 0.312500 0.687500
vt 0.000000 0.687500
vt 0.093750 0.437500
vt -0.000000 0.437500
vt 0.093750 0.437500
vt 0.312500 0.437500
vt 0.000000 0.687500
vt -0.000000 0.437500
vt 0.312500 0.437500
vt 0.375000 0.437500
vt 0.312500 0.437500
vt 0.656250 0.000000
vt 0.750000 0.093750
vt 0.750000 0.125000
vt 0.625000 0.000000
vt 0.093750 0.406250
vt 0.312500 0.406250
vt 0.750000 0.093750
vt 0.656250 0.000000
vt 0.625000 0.000000
vt 0.750000 0.125000
vt 0.312500 0.406250
vt 0.375000 0.406250
vt 0.312500 0.406250
vt 0.093750 0.406250
vt 0.093750 0.343750
vt 0.312500 0.343750
vt 0.500000 0.437500
vt 0.375000 0.437500
vt 0.375000 0.375000
vt 0.500000 0.375000
vt 0.312500 0.343750
vt 0.375000 0.343750
vt 0.312500 0.343750
vt 0.093750 0.343750
vt 0.375000 0.437500
vt 0.500000 0.437500
vt 0.500000 0.375000
vt 0.375000 0.375000
vt 0.750000 0.687500
vt 0.656250 0.062500
vt 0.656250 0.125000
vt 0.375000 0.437500
vt 0.500000 0.437500
vt 0.500000 0.375000
vt 0.375000 0.375000
vt 0.093750 0.406250
vt 0.312500 0.406250
vt 0.312500 0.343750
vt 0.093750 0.343750
vt 0.375000 0.406250
vt 0.312500 0.406250
vt 0.312500 0.343750
vt 0.375000 0.343750
vt 0.500000 0.437500
vt 0.375000 0.437500
vt 0.375000 0.375000
vt 0.500000 0.375000
vt 0.312500 0.406250
vt 0.093750 0.406250
vt 0.093750 0.343750
vt 0.312500 0.343750
vt 0.093750 0.437500
vt 0.312500 0.437500
vt 0.375000 0.437500
vt 0.312500 0.437500
vt 0.750000 0.093750
vt 0.656250 0.000000
vt 0.625000 0.000000
vt 0.750000 0.125000
vt 0.312500 0.437500
vt 0.093750 0.437500
vt 0.656250 0.000000
vt 0.750000 0.093750
vt 0.750000 0.125000
vt 0.625000 0.000000
vt 0.093750 0.687500
vt 0.312500 0.687500
vt 0.375000 0.687500
vt 0.312500 0.687500
vt 0.093750 0.687500
vt 0.000000 0.687500
vt -0.000000 0.437500
vt 0.312500 0.687500
vt 0.000000 0.687500
vt -0.000000 0.437500
vt 0.312500 0.718750
vt 0.093750 0.718750
vt 0.687500 0.093750
vt 0.750000 0.156250
vt 0.750000 0.187500
vt 0.656250 0.093750
vt 0.093750 0.718750
vt 0.312500 0.718750
vt 0.375000 0.718750
vt 0.312500 0.718750
vt 0.750000 0.156250
vt 0.687500 0.093750
vt 0.656250 0.093750
vt 0.750000 0.187500
vt 0.375000 0.187500
vt 0.375000 0.000000
vt 0.718750 0.718750
vt 0.718750 0.750000
vt 0.687500 0.718750
vt 0.781250 0.718750
vt 0.812500 0.718750
vt 0.781250 0.750000
vt 0.781250 0.656250
vt 0.781250 0.625000
vt 0.812500 0.656250
vt 0.718750 0.656250
vt 0.687500 0.656250
vt 0.718750 0.625000
vt 0.656250 0.062500
vt 0.656250 0.125000
vt 0.593750 0.187500
vt 0.593750 0.000000
vt 0.750000 0.687500
vt 0.375000 0.437500
vt 0.500000 0.437500
vt 0.500000 0.375000
vt 0.375000 0.375000
vt 0.093750 0.406250
vt 0.312500 0.406250
vt 0.312500 0.343750
vt 0.093750 0.343750
vt 0.375000 0.406250
vt 0.312500 0.406250
vt 0.312500 0.343750
vt 0.375000 0.343750
vt 0.500000 0.437500
vt 0.375000 0.437500
vt 0.375000 0.375000
vt 0.500000 0.375000
vt 0.312500 0.406250
vt 0.093750 0.406250
vt 0.093750 0.343750
vt 0.312500 0.343750
vt 0.093750 0.437500
vt 0.312500 0.437500
vt 0.375000 0.437500
vt 0.312500 0.437500
vt 0.750000 0.093750
vt 0.656250 0.000000
vt 0.625000 0.000000
vt 0.750000 0.125000
vt 0.312500 0.437500
vt 0.093750 0.437500
vt 0.656250 0.000000
vt 0.750000 0.093750
vt 0.750000 0.125000
vt 0.625000 0.000000
vt 0.093750 0.687500
vt 0.312500 0.687500
vt 0.375000 0.687500
vt 0.312500 0.687500
vt 0.093750 0.687500
vt 0.000000 0.687500
vt -0.000000 0.437500
vt 0.312500 0.687500
vt 0.000000 0.687500
vt -0.000000 0.437500
vt 0.312500 0.718750
vt 0.093750 0.718750
vt 0.687500 0.093750
vt 0.750000 0.156250
vt 0.750000 0.187500
vt 0.656250 0.093750
vt 0.093750 0.718750
vt 0.312500 0.718750
vt 0.375000 0.718750
vt 0.312500 0.718750
vt 0.750000 0.156250
vt 0.687500 0.093750
vt 0.656250 0.093750
vt 0.750000 0.187500
vt 0.375000 0.187500
vt 0.375000 0.000000
vt 0.991634 0.281250
vt 0.758366 0.281250
vt 0.750000 0.250000
vt 1.000000 0.250000
vt 0.750000 -0.000000
vt 1.000000 -0.000000
vt 0.974875 0.375000
vt 0.775125 0.375000
vt 0.758366 0.312500
vt 0.991634 0.312500
vt 0.966513 0.406250
vt 0.783487 0.406250
vt 0.783487 0.437500
vt 0.966513 0.437500
vt 0.933062 0.562500
vt 0.816938 0.562500
vt 0.924700 0.593750
vt 0.825300 0.593750
vt 0.907975 0.687500
vt 0.842025 0.687500
vt 0.825300 0.625000
vt 0.924700 0.625000
vt 0.774612 0.593750
vt 0.725388 0.593750
vt 0.717025 0.625000
vt 0.782975 0.625000
vt 0.750000 0.500000
vt 0.758366 0.312500
vt 1.000000 0.281250
vt 0.750000 0.281250
vt 0.750000 1.000000
vt 1.000000 1.000000
vt 1.000000 0.750000
vt 0.750000 0.750000
vt 0.775125 0.375000
vt 0.783487 0.437500
vt 0.974875 0.406250
vt 0.775125 0.406250
vt 0.816938 0.562500
vt 0.825300 0.625000
vt 0.933062 0.593750
vt 0.816938 0.593750
vt 0.842025 0.687500
vt 0.725388 0.593750
vt 0.717025 0.625000
vt 0.991634 0.281250
vt 0.758366 0.281250
vt 0.750000 0.250000
vt 1.000000 0.250000
vt 0.750000 -0.000000
vt 1.000000 -0.000000
vt 0.974875 0.375000
vt 0.991634 0.312500
vt 0.966513 0.406250
vt 0.783487 0.406250
vt 0.966513 0.437500
vt 0.933062 0.562500
vt 0.924700 0.593750
vt 0.825300 0.593750
vt 0.907975 0.687500
vt 0.924700 0.625000
vt 0.774612 0.593750
vt 0.782975 0.625000
vt 0.758366 0.312500
vt 1.000000 0.281250
vt 0.750000 0.281250
vt 0.750000 1.000000
vt 1.000000 1.000000
vt 1.000000 0.750000
vt 0.750000 0.750000
vt 0.775125 0.375000
vt 0.783487 0.437500
vt 0.974875 0.406250
vt 0.775125 0.406250
vt 0.816938 0.562500
vt 0.825300 0.625000
vt 0.933062 0.593750
vt 0.816938 0.593750
vt 0.842025 0.687500
vt 0.725388 0.593750
vt 0.717025 0.625000
vt 0.991634 0.281250
vt 0.758366 0.281250
vt 0.750000 0.250000
vt 1.000000 0.250000
vt 0.750000 -0.000000
vt 1.000000 -0.000000
vt 0.974875 0.375000
vt 0.991634 0.312500
vt 0.966513 0.406250
vt 0.783487 0.406250
vt 0.966513 0.437500
vt 0.933062 0.562500
vt 0.924700 0.593750
vt 0.825300 0.593750
vt 0.907975 0.687500
vt 0.924700 0.625000
vt 0.774612 0.593750
vt 0.782975 0.625000
vt 0.758366 0.312500
vt 1.000000 0.281250
vt 0.750000 0.281250
vt 0.750000 1.000000
vt 1.000000 1.000000
vt 1.000000 0.750000
vt 0.750000 0.750000
vt 0.775125 0.375000
vt 0.783487 0.437500
vt 0.974875 0.406250
vt 0.775125 0.406250
vt 0.816938 0.562500
vt 0.825300 0.625000
vt 0.933062 0.593750
vt 0.816938 0.593750
vt 0.842025 0.687500
vt 0.725388 0.593750
vt 0.717025 0.625000
vt 0.991634 0.281250
vt 0.758366 0.281250
vt 0.750000 0.250000
vt 1.000000 0.250000
vt 0.750000 -0.000000
vt 1.000000 -0.000000
vt 0.974875 0.375000
vt 0.991634 0.312500
vt 0.966513 0.406250
vt 0.783487 0.406250
vt 0.966513 0.437500
vt 0.933062 0.562500
vt 0.924700 0.593750
vt 0.825300 0.593750
vt 0.907975 0.687500
vt 0.924700 0.625000
vt 0.774612 0.593750
vt 0.782975 0.625000
vt 0.758366 0.312500
vt 1.000000 0.281250
vt 0.750000 0.281250
vt 0.750000 1.000000
vt 1.000000 1.000000
vt 1.000000 0.750000
vt 0.750000 0.750000
vt 0.775125 0.375000
vt 0.783487 0.437500
vt 0.974875 0.406250
vt 0.775125 0.406250
vt 0.816938 0.562500
vt 0.825300 0.625000
vt 0.933062 0.593750
vt 0.816938 0.593750
vt 0.842025 0.687500
vt 0.725388 0.593750
vt 0.717025 0.625000
vt 0.991634 0.281250
vt 0.758366 0.281250
vt 0.750000 0.250000
vt 1.000000 0.250000
vt 0.750000 -0.000000
vt 1.000000 -0.000000
vt 0.974875 0.375000
vt 0.991634 0.312500
vt 0.966513 0.406250
vt 0.783487 0.406250
vt 0.966513 0.437500
vt 0.933062 0.562500
vt 0.924700 0.593750
vt 0.825300 0.593750
vt 0.907975 0.687500
vt 0.924700 0.625000
vt 0.774612 0.593750
vt 0.782975 0.625000
vt 0.758366 0.312500
vt 1.000000 0.281250
vt 0.750000 0.281250
vt 0.750000 1.000000
vt 1.000000 1.000000
vt 1.000000 0.750000
vt 0.750000 0.750000
vt 0.775125 0.375000
vt 0.783487 0.437500
vt 0.974875 0.406250
vt 0.775125 0.406250
vt 0.816938 0.562500
vt 0.825300 0.625000
vt 0.933062 0.593750
vt 0.816938 0.593750
vt 0.842025 0.687500
vt 0.725388 0.593750
vt 0.717025 0.625000
vt 0.991634 0.281250
vt 0.758366 0.281250
vt 0.750000 0.250000
vt 1.000000 0.250000
vt 0.750000 -0.000000
vt 1.000000 -0.000000
vt 0.974875 0.375000
vt 0.991634 0.312500
vt 0.966513 0.406250
vt 0.783487 0.406250
vt 0.966513 0.437500
vt 0.933062 0.562500
vt 0.924700 0.593750
vt 0.825300 0.593750
vt 0.907975 0.687500
vt 0.924700 0.625000
vt 0.774612 0.593750
vt 0.782975 0.625000
vt 1.000000 0.281250
vt 0.750000 0.281250
vt 0.750000 1.000000
vt 1.000000 1.000000
vt 1.000000 0.750000
vt 0.750000 0.750000
vt 0.974875 0.406250
vt 0.775125 0.406250
vt 0.933062 0.593750
vt 0.816938 0.593750
vt 0.750000 0.687500
vt 0.656250 0.062500
vt 0.656250 0.125000
vt 0.093750 0.437500
vt 0.312500 0.437500
vt 0.375000 0.437500
vt 0.312500 0.437500
vt 0.750000 0.093750
vt 0.656250 0.000000
vt 0.625000 0.000000
vt 0.750000 0.125000
vt 0.312500 0.437500
vt 0.093750 0.437500
vt 0.656250 0.000000
vt 0.750000 0.093750
vt 0.750000 0.125000
vt 0.625000 0.000000
vt 0.093750 0.687500
vt 0.312500 0.687500
vt 0.375000 0.687500
vt 0.312500 0.687500
vt 0.093750 0.687500
vt 0.000000 0.687500
vt -0.000000 0.437500
vt 0.312500 0.687500
vt 0.000000 0.687500
vt -0.000000 0.437500
vt 0.312500 0.718750
vt 0.093750 0.718750
vt 0.687500 0.093750
vt 0.750000 0.156250
vt 0.750000 0.187500
vt 0.656250 0.093750
vt 0.093750 0.718750
vt 0.312500 0.718750
vt 0.375000 0.718750
vt 0.312500 0.718750
vt 0.750000 0.156250
vt 0.687500 0.093750
vt 0.656250 0.093750
vt 0.750000 0.187500
vt 0.375000 0.187500
vt 0.375000 0.000000
vn 0.0000 -1.0000 0.0000
vn 0.0000 0.0000 -1.0000
vn -0.0000 0.7071 -0.7071
vn 0.0000 1.0000 0.0000
vn -0.8660 0.0000 -0.5000
vn -0.6124 0.7071 -0.3536
vn -0.8660 0.0000 0.5000
vn -0.6124 0.7071 0.3536
vn 0.0000 0.0000 1.0000
vn 0.0000 0.7071 0.7071
vn 0.8660 0.0000 0.5000
vn 0.6124 0.7071 0.3536
vn 0.8660 0.0000 -0.5000
vn 0.6124 0.7071 -0.3536
vn -0.4472 0.8944 0.0000
vn 0.4472 0.8944 0.0000
vn -0.0000 0.8944 0.4472
vn 0.0000 0.8944 -0.4472
vn 0.5774 0.5774 -0.5774
vn 0.7071 0.7071 0.0000
vn 0.5774 0.5774 0.5774
vn 0.7071 0.0000 0.7071
vn 0.7071 0.0000 -0.7071
vn 1.0000 0.0000 0.0000
vn 0.5774 0.5773 -0.5774
vn -0.9659 0.0000 -0.2588
vn -0.5000 0.0000 -0.8660
vn 0.2588 0.0000 -0.9659
vn -0.5577 0.8165 -0.1494
vn 0.1494 0.8165 -0.5577
vn 0.5577 0.8165 0.1494
vn -0.1494 0.8165 0.5577
vn 0.3873 0.8944 -0.2236
vn 0.2236 0.8944 0.3873
vn -0.3873 0.8944 0.2236
vn -0.2236 0.8944 -0.3873
vn -0.2588 0.0000 0.9659
vn 0.5000 0.0000 0.8660
vn 0.9659 0.0000 0.2588
vn 0.3536 0.7071 0.6124
vn 0.7887 0.5773 0.2113
vn -0.2113 0.5774 0.7887
vn -0.2113 0.5773 0.7887
vn 0.7887 0.5774 0.2113
vn 0.1494 0.8165 0.5577
vn -0.5577 0.8165 0.1494
vn -0.1494 0.8165 -0.5577
vn 0.5577 0.8165 -0.1494
vn -0.3873 0.8944 -0.2236
vn 0.2236 0.8944 -0.3873
vn 0.3873 0.8944 0.2236
vn -0.2236 0.8944 0.3873
vn 0.2113 0.5773 0.7887
vn -0.3536 0.7071 0.6124
vn -0.7887 0.5773 0.2113
vn -0.9659 0.0000 0.2588
vn 0.2588 0.0000 0.9659
vn -0.5000 0.0000 0.8660
vn -0.7887 0.5774 0.2113
vn 0.9659 0.0000 -0.2588
vn 0.5000 0.0000 -0.8660
vn -0.2588 0.0000 -0.9659
vn 0.3536 0.7071 -0.6124
vn -0.2113 0.5773 -0.7887
vn 0.7887 0.5774 -0.2113
vn 0.4082 0.8165 -0.4082
vn 0.4082 0.8165 0.4082
vn -0.4082 0.8165 0.4082
vn -0.4082 0.8165 -0.4082
vn -0.7071 0.0000 -0.7071
vn -1.0000 0.0000 0.0000
vn -0.7071 0.0000 0.7071
vn -0.7071 0.7071 0.0000
vn -0.5774 0.5773 0.5774
vn -0.5773 0.5774 -0.5773
vn -0.5774 0.5773 -0.5774
vn -0.3536 0.7071 -0.6124
vn -0.7887 0.5773 -0.2113
vn 0.2113 0.5773 -0.7887
vn 0.2113 0.5774 -0.7887
usemtl ELDRIN_ORRERY
s off
f 120/261/43 119/262/43 117/263/43 118/264/43
f 130/265/43 129/266/43 118/264/43 117/263/43
f 124/267/43 123/268/43 121/269/43 122/270/43
f 122/270/43 121/269/43 131/271/43 132/272/43
f 128/273/43 127/274/43 125/275/43 126/276/43
f 134/277/43 126/276/43 125/275/43 133/278/43
f 108/279/43 107/280/43 105/281/43 106/282/43
f 136/283/43 106/282/43 105/281/43 135/284/43
f 112/285/43 111/286/43 109/287/43 110/288/43
f 138/289/43 110/288/43 109/287/43 137/290/43
f 116/291/43 115/292/43 113/293/43 114/294/43
f 140/295/43 114/294/43 113/293/43 139/296/43
f 136/283/43 135/284/43 141/297/43
f 135/284/43 134/277/43 141/297/43
f 134/277/43 133/278/43 141/297/43
f 133/278/43 132/272/43 141/297/43
f 132/272/43 131/271/43 141/297/43
f 131/271/43 129/266/43 141/297/43
f 129/266/43 130/265/43 141/297/43
f 130/265/43 140/295/43 141/297/43
f 140/295/43 139/296/43 141/297/43
f 139/296/43 138/289/43 141/297/43
f 138/289/43 137/290/43 141/297/43
f 137/290/43 136/283/43 141/297/43
f 142/298/44 148/299/44 149/300/44 143/301/44
f 148/299/45 142/298/45 144/302/45 145/303/45
f 145/303/44 144/302/44 146/304/44 147/305/44
f 143/301/45 149/300/45 150/306/45 151/307/45
f 151/307/46 150/306/46 152/308/46 153/309/46
f 154/310/47 160/311/47 161/312/47 155/313/47
f 160/311/48 154/310/48 156/314/48 157/315/48
f 157/315/47 156/314/47 158/316/47 159/317/47
f 155/313/48 161/312/48 162/318/48 163/319/48
f 163/319/46 162/318/46 164/320/46 165/321/46
f 166/322/49 172/323/49 173/324/49 167/325/49
f 172/323/50 166/322/50 168/326/50 169/327/50
f 169/327/49 168/326/49 170/328/49 171/329/49
f 167/325/50 173/324/50 174/330/50 175/331/50
f 175/331/46 174/330/46 176/332/46 177/333/46
f 178/334/51 184/335/51 185/336/51 179/337/51
f 184/335/52 178/334/52 180/338/52 181/339/52
f 181/339/51 180/338/51 182/340/51 183/341/51
f 179/337/52 185/336/52 186/342/52 187/343/52
f 187/343/46 186/342/46 188/344/46 189/345/46
f 190/346/53 196/347/53 197/348/53 191/349/53
f 196/347/54 190/346/54 192/350/54 193/351/54
f 193/351/53 192/350/53 194/352/53 195/353/53
f 191/349/54 197/348/54 198/354/54 199/355/54
f 199/355/46 198/354/46 200/356/46 201/357/46
f 202/358/55 208/359/55 209/360/55 203/361/55
f 208/359/56 202/358/56 204/362/56 205/363/56
f 205/363/55 204/362/55 206/364/55 207/365/55
f 203/361/56 209/360/56 210/366/56 211/367/56
f 211/367/46 210/366/46 212/368/46 213/369/46
f 531/370/57 532/371/57 540/372/57 539/373/57
f 530/374/58 529/375/58 537/376/58 538/377/58
f 529/375/59 531/370/59 214/378/59 534/379/59
f 532/371/60 530/374/60 536/380/60 535/381/60
f 215/382/46 217/383/46 218/384/46 216/385/46
f 217/386/61 220/387/61 226/388/61 223/389/61
f 220/390/62 219/391/62 225/392/62 226/393/62
f 215/394/52 216/395/52 222/396/52 221/397/52
f 219/398/63 215/399/63 221/400/63 225/401/63
f 218/402/45 217/403/45 223/404/45 224/405/45
f 225/406/64 221/397/64 227/407/64 231/408/64
f 224/405/44 223/404/44 229/409/44 230/410/44
f 223/404/65 226/411/65 232/412/65 229/409/65
f 226/393/66 225/392/66 231/413/66 232/414/66
f 221/397/51 222/396/51 228/415/51 227/407/51
f 231/416/63 227/417/63 233/418/63 237/419/63
f 230/410/45 229/409/45 235/420/45 236/421/45
f 229/422/67 232/423/67 238/424/67 235/425/67
f 232/414/62 231/413/62 237/426/62 238/427/62
f 227/407/52 228/415/52 234/428/52 233/429/52
f 236/421/44 235/420/44 241/430/44 242/431/44
f 235/432/65 238/433/65 244/434/65 241/435/65
f 238/427/66 237/426/66 243/436/66 244/437/66
f 233/429/51 234/428/51 240/438/51 239/439/51
f 237/440/64 233/441/64 239/442/64 243/443/64
f 558/444/49 559/445/49 553/446/49 552/447/49
f 559/448/68 556/449/68 550/450/68 553/451/68
f 556/452/69 557/453/69 551/454/69 550/455/69
f 561/456/55 560/457/55 554/458/55 555/459/55
f 557/460/70 561/461/70 555/462/70 551/463/70
f 245/464/71 548/465/71 278/466/71
f 541/467/72 544/468/72 549/469/72
f 246/470/73 547/471/73 545/472/73
f 247/473/74 543/474/74 546/475/74
f 273/476/46 272/477/46 275/478/46 277/479/46
f 245/464/75 247/473/75 542/480/75
f 541/467/76 245/464/76 542/480/76
f 246/470/77 541/467/77 542/480/77
f 247/473/78 246/470/78 542/480/78
f 255/481/79 259/482/79 253/483/79 249/484/79
f 259/485/49 258/486/49 252/487/49 253/488/49
f 254/489/80 255/490/80 249/491/80 248/492/80
f 257/493/81 254/494/81 248/495/81 251/496/81
f 256/497/55 257/498/55 251/499/55 250/500/55
f 265/501/50 264/502/50 258/486/50 259/485/50
f 260/503/82 261/504/82 255/490/82 254/489/82
f 263/505/83 260/506/83 254/507/83 257/508/83
f 262/509/56 263/510/56 257/498/56 256/497/56
f 261/511/84 265/512/84 259/513/84 255/514/84
f 271/515/49 270/516/49 264/502/49 265/501/49
f 266/517/80 267/518/80 261/504/80 260/503/80
f 269/519/81 266/520/81 260/521/81 263/510/81
f 268/522/55 269/519/55 263/510/55 262/509/55
f 267/523/79 271/515/79 265/501/79 261/524/79
f 274/525/56 275/526/56 269/519/56 268/522/56
f 273/527/85 277/528/85 271/529/85 267/530/85
f 277/531/50 276/532/50 270/516/50 271/515/50
f 272/533/82 273/534/82 267/518/82 266/517/82
f 275/535/86 272/536/86 266/537/86 269/538/86
f 277/479/46 275/478/46 274/539/46 276/540/46
f 541/467/75 246/470/75 545/472/75 544/468/75
f 247/473/77 245/464/77 278/466/77 543/474/77
f 246/470/76 247/473/76 546/475/76 547/471/76
f 245/464/78 541/467/78 549/469/78 548/465/78
f 279/541/76 280/542/76 283/543/76
f 280/542/75 282/544/75 283/543/75
f 282/544/78 281/545/78 283/543/78
f 281/545/77 279/541/77 283/543/77
f 575/546/46 574/547/46 577/548/46 579/549/46
f 279/541/72 284/550/72 287/551/72
f 280/542/71 288/552/71 286/553/71
f 282/544/74 285/554/74 290/555/74
f 281/545/73 289/556/73 580/557/73
f 300/558/87 292/559/87 376/560/87
f 299/561/88 296/562/88 291/563/88
f 301/564/89 293/565/89 295/566/89
f 302/567/90 297/568/90 294/569/90
f 371/570/46 370/571/46 373/572/46 375/573/46
f 300/558/91 302/567/91 298/574/91
f 299/561/92 300/558/92 298/574/92
f 301/564/93 299/561/93 298/574/93
f 302/567/94 301/564/94 298/574/94
f 336/575/92 337/576/92 345/577/92 344/578/92
f 335/579/94 334/580/94 342/581/94 343/582/94
f 334/580/91 336/575/91 303/583/91 339/584/91
f 337/576/93 335/579/93 341/585/93 340/586/93
f 304/587/46 306/588/46 307/589/46 305/590/46
f 306/591/95 309/592/95 315/593/95 312/594/95
f 309/595/96 308/596/96 314/597/96 315/598/96
f 304/599/48 305/600/48 311/601/48 310/602/48
f 308/603/97 304/604/97 310/605/97 314/606/97
f 307/607/54 306/608/54 312/609/54 313/610/54
f 314/611/98 310/602/98 316/612/98 320/613/98
f 313/610/53 312/609/53 318/614/53 319/615/53
f 312/609/99 315/616/99 321/617/99 318/614/99
f 315/598/100 314/597/100 320/618/100 321/619/100
f 310/602/47 311/601/47 317/620/47 316/612/47
f 320/621/101 316/622/101 322/623/101 326/624/101
f 319/615/54 318/614/54 324/625/54 325/626/54
f 318/627/95 321/628/95 327/629/95 324/630/95
f 321/619/96 320/618/96 326/631/96 327/632/96
f 316/612/48 317/620/48 323/633/48 322/634/48
f 325/626/53 324/625/53 330/635/53 331/636/53
f 324/637/99 327/638/99 333/639/99 330/640/99
f 327/632/100 326/631/100 332/641/100 333/642/100
f 322/634/47 323/633/47 329/643/47 328/644/47
f 326/645/98 322/646/98 328/647/98 332/648/98
f 334/580/92 335/579/92 338/649/92
f 335/579/91 337/576/91 338/649/91
f 337/576/94 336/575/94 338/649/94
f 336/575/93 334/580/93 338/649/93
f 308/650/46 309/651/46 306/588/46 304/587/46
f 334/580/88 339/584/88 342/581/88
f 335/579/87 343/582/87 341/585/87
f 337/576/90 340/586/90 345/577/90
f 336/575/89 344/578/89 303/583/89
f 353/652/102 357/653/102 351/654/102 347/655/102
f 357/656/53 356/657/53 350/658/53 351/659/53
f 352/660/103 353/661/103 347/662/103 346/663/103
f 355/664/104 352/665/104 346/666/104 349/667/104
f 354/668/47 355/669/47 349/670/47 348/671/47
f 363/672/54 362/673/54 356/657/54 357/656/54
f 358/674/105 359/675/105 353/661/105 352/660/105
f 361/676/106 358/677/106 352/678/106 355/679/106
f 360/680/48 361/681/48 355/669/48 354/668/48
f 359/682/107 363/683/107 357/684/107 353/685/107
f 369/686/53 368/687/53 362/673/53 363/672/53
f 364/688/103 365/689/103 359/675/103 358/674/103
f 367/690/104 364/691/104 358/692/104 361/681/104
f 366/693/47 367/690/47 361/681/47 360/680/47
f 365/694/102 369/686/102 363/672/102 359/695/102
f 372/696/48 373/697/48 367/690/48 366/693/48
f 371/698/107 375/699/107 369/700/107 365/701/107
f 375/702/54 374/703/54 368/687/54 369/686/54
f 370/704/105 371/705/105 365/689/105 364/688/105
f 373/706/106 370/707/106 364/708/106 367/709/106
f 375/573/46 373/572/46 372/710/46 374/711/46
f 299/561/91 301/564/91 295/566/91 296/562/91
f 302/567/93 300/558/93 376/560/93 297/568/93
f 301/564/92 302/567/92 294/569/92 293/565/92
f 300/558/94 299/561/94 291/563/94 292/559/94
f 386/712/108 378/713/108 419/714/108
f 385/715/109 382/716/109 377/717/109
f 387/718/110 379/719/110 381/720/110
f 388/721/111 383/722/111 380/723/111
f 414/724/46 413/725/46 416/726/46 418/727/46
f 386/712/59 388/721/59 384/728/59
f 385/715/57 386/712/57 384/728/57
f 387/718/60 385/715/60 384/728/60
f 388/721/58 387/718/58 384/728/58
f 396/729/112 400/730/112 394/731/112 390/732/112
f 400/733/44 399/734/44 393/735/44 394/736/44
f 395/737/113 396/738/113 390/739/113 389/740/113
f 398/741/114 395/742/114 389/743/114 392/744/114
f 397/745/51 398/746/51 392/747/51 391/748/51
f 406/749/45 405/750/45 399/734/45 400/733/45
f 401/751/115 402/752/115 396/738/115 395/737/115
f 404/753/116 401/754/116 395/755/116 398/756/116
f 403/757/52 404/758/52 398/746/52 397/745/52
f 402/759/117 406/760/117 400/761/117 396/762/117
f 412/763/44 411/764/44 405/750/44 406/749/44
f 407/765/113 408/766/113 402/752/113 401/751/113
f 410/767/114 407/768/114 401/769/114 404/758/114
f 409/770/51 410/767/51 404/758/51 403/757/51
f 408/771/112 412/763/112 406/749/112 402/772/112
f 415/773/52 416/774/52 410/767/52 409/770/52
f 414/775/118 418/776/118 412/777/118 408/778/118
f 418/779/45 417/780/45 411/764/45 412/763/45
f 413/781/115 414/782/115 408/766/115 407/765/115
f 416/783/116 413/784/116 407/785/116 410/786/116
f 418/727/46 416/726/46 415/787/46 417/788/46
f 385/715/59 387/718/59 381/720/59 382/716/59
f 388/721/60 386/712/60 419/714/60 383/722/60
f 387/718/57 388/721/57 380/723/57 379/719/57
f 386/712/58 385/715/58 377/717/58 378/713/58
f 429/789/52 519/790/52 517/791/52 420/792/52
f 420/792/51 517/791/51 518/793/51 421/794/51
f 422/795/46 520/796/46 519/797/46 429/798/46
f 432/799/45 522/800/45 520/796/45 422/795/45
f 522/801/46 432/802/46 423/803/46 424/804/46
f 434/805/52 524/806/52 424/804/52 423/803/52
f 425/807/46 526/808/46 524/809/46 434/810/46
f 426/811/52 528/812/52 526/813/52 425/814/52
f 528/812/46 426/811/46 437/815/46
f 428/816/82 429/798/82 420/817/82 439/818/82
f 439/819/80 420/820/80 421/821/80 427/822/80
f 430/823/46 422/795/46 429/798/46 428/816/46
f 431/824/119 432/802/119 422/825/119 430/826/119
f 432/802/46 431/824/46 444/827/46 423/803/46
f 433/828/82 434/810/82 423/829/82 444/830/82
f 435/831/46 425/807/46 434/810/46 433/828/46
f 436/832/82 426/811/82 425/814/82 435/833/82
f 426/811/46 436/832/46 437/815/46
f 441/834/54 428/835/54 439/836/54 438/837/54
f 438/837/53 439/836/53 427/838/53 440/839/53
f 449/840/46 430/823/46 428/816/46 441/841/46
f 442/842/48 431/843/48 430/823/48 449/840/48
f 431/824/46 442/844/46 443/845/46 444/827/46
f 445/846/54 433/847/54 444/827/54 443/845/54
f 446/848/46 435/831/46 433/828/46 445/849/46
f 447/850/54 436/832/54 435/833/54 446/851/54
f 436/832/46 447/850/46 437/815/46
f 448/852/62 441/841/62 438/853/62 451/854/62
f 451/855/66 438/856/66 440/857/66 452/858/66
f 454/859/46 449/840/46 441/841/46 448/852/46
f 456/860/115 442/844/115 449/861/115 454/862/115
f 442/844/46 456/860/46 457/863/46 443/845/46
f 459/864/62 445/849/62 443/865/62 457/866/62
f 461/867/46 446/848/46 445/849/46 459/864/46
f 463/868/62 447/850/62 446/851/62 461/869/62
f 447/850/46 463/868/46 437/815/46
f 453/870/56 448/871/56 451/872/56 450/873/56
f 450/873/55 451/872/55 452/874/55 464/875/55
f 466/876/46 454/859/46 448/852/46 453/877/46
f 455/878/50 456/879/50 454/859/50 466/876/50
f 456/860/46 455/880/46 469/881/46 457/863/46
f 458/882/56 459/883/56 457/863/56 469/881/56
f 460/884/46 461/867/46 459/864/46 458/885/46
f 462/886/56 463/868/56 461/869/56 460/887/56
f 463/868/46 462/886/46 437/815/46
f 465/888/105 453/877/105 450/889/105 470/890/105
f 470/891/103 450/892/103 464/893/103 471/894/103
f 473/895/46 466/876/46 453/877/46 465/888/46
f 467/896/96 455/880/96 466/897/96 473/898/96
f 455/880/46 467/896/46 468/899/46 469/881/46
f 477/900/105 458/885/105 469/901/105 468/902/105
f 478/903/46 460/884/46 458/885/46 477/900/46
f 479/904/105 462/886/105 460/887/105 478/905/105
f 462/886/46 479/904/46 437/815/46
f 472/906/45 465/907/45 470/908/45 480/909/45
f 480/909/44 470/908/44 471/910/44 481/911/44
f 482/912/46 473/895/46 465/888/46 472/913/46
f 474/914/52 467/915/52 473/895/52 482/912/52
f 467/896/46 474/916/46 475/917/46 468/899/46
f 476/918/45 477/919/45 468/899/45 475/917/45
f 483/920/46 478/903/46 477/900/46 476/921/46
f 484/922/45 479/904/45 478/905/45 483/923/45
f 479/904/46 484/922/46 437/815/46
f 487/924/119 472/913/119 480/925/119 485/926/119
f 485/927/69 480/928/69 481/929/69 486/930/69
f 488/931/46 482/912/46 472/913/46 487/924/46
f 489/932/82 474/916/82 482/933/82 488/934/82
f 474/916/46 489/932/46 490/935/46 475/917/46
f 492/936/119 476/921/119 475/937/119 490/938/119
f 493/939/46 483/920/46 476/921/46 492/936/46
f 495/940/119 484/922/119 483/923/119 493/941/119
f 484/922/46 495/940/46 437/815/46
f 500/942/48 487/943/48 485/944/48 496/945/48
f 496/945/47 485/944/47 486/946/47 498/947/47
f 502/948/46 488/931/46 487/924/46 500/949/46
f 503/950/54 489/951/54 488/931/54 502/948/54
f 489/932/46 503/952/46 505/953/46 490/935/46
f 491/954/48 492/955/48 490/935/48 505/953/48
f 506/956/46 493/939/46 492/936/46 491/957/46
f 494/958/48 495/940/48 493/941/48 506/959/48
f 495/940/46 494/958/46 437/815/46
f 499/960/115 500/949/115 496/961/115 509/962/115
f 509/963/113 496/964/113 498/965/113 497/966/113
f 501/967/46 502/948/46 500/949/46 499/960/46
f 512/968/62 503/952/62 502/969/62 501/970/62
f 503/952/46 512/968/46 504/971/46 505/953/46
f 514/972/115 491/957/115 505/973/115 504/974/115
f 515/975/46 506/956/46 491/957/46 514/972/46
f 507/976/115 494/958/115 506/959/115 515/977/115
f 494/958/46 507/976/46 437/815/46
f 511/978/50 499/979/50 509/980/50 508/981/50
f 508/981/49 509/980/49 497/982/49 510/983/49
f 521/984/46 501/967/46 499/960/46 511/985/46
f 523/986/56 512/987/56 501/967/56 521/984/56
f 512/968/46 523/988/46 513/989/46 504/971/46
f 525/990/50 514/991/50 504/971/50 513/989/50
f 527/992/46 515/975/46 514/972/46 525/993/46
f 516/994/50 507/976/50 515/977/50 527/995/50
f 507/976/46 516/994/46 437/815/46
f 519/797/96 511/985/96 508/996/96 517/997/96
f 517/998/100 508/999/100 510/1000/100 518/1001/100
f 520/796/46 521/984/46 511/985/46 519/797/46
f 522/801/105 523/988/105 521/1002/105 520/1003/105
f 523/988/46 522/801/46 424/804/46 513/989/46
f 524/809/96 525/993/96 513/1004/96 424/1005/96
f 526/808/46 527/992/46 525/993/46 524/809/46
f 528/812/96 516/994/96 527/995/96 526/813/96
f 516/994/46 528/812/46 437/815/46
f 529/375/57 530/374/57 533/1006/57
f 530/374/59 532/371/59 533/1006/59
f 532/371/58 531/370/58 533/1006/58
f 531/370/60 529/375/60 533/1006/60
f 219/1007/46 220/1008/46 217/383/46 215/382/46
f 529/375/109 534/379/109 537/376/109
f 530/374/108 538/377/108 536/380/108
f 532/371/111 535/381/111 540/372/111
f 531/370/110 539/373/110 214/378/110
f 567/1009/56 566/1010/56 560/457/56 561/456/56
f 562/1011/119 563/1012/119 557/453/119 556/452/119
f 565/1013/120 562/1014/120 556/1015/120 559/1016/120
f 564/1017/50 565/1018/50 559/445/50 558/444/50
f 563/1019/121 567/1020/121 561/1021/121 557/1022/121
f 573/1023/55 572/1024/55 566/1010/55 567/1009/55
f 568/1025/69 569/1026/69 563/1012/69 562/1011/69
f 571/1027/68 568/1028/68 562/1029/68 565/1018/68
f 570/1030/49 571/1027/49 565/1018/49 564/1017/49
f 569/1031/70 573/1023/70 567/1009/70 563/1032/70
f 576/1033/50 577/1034/50 571/1027/50 570/1030/50
f 575/1035/122 579/1036/122 573/1037/122 569/1038/122
f 579/1039/56 578/1040/56 572/1024/56 573/1023/56
f 574/1041/119 575/1042/119 569/1026/119 568/1025/119
f 577/1043/120 574/1044/120 568/1045/120 571/1046/120
f 579/549/46 577/548/46 576/1047/46 578/1048/46
f 282/544/77 280/542/77 286/553/77 285/554/77
f 279/541/75 281/545/75 580/557/75 284/550/75
f 280/542/78 279/541/78 287/551/78 288/552/78
f 281/545/76 282/544/76 290/555/76 289/556/76
o ELDRIN_ORRERY_MOON_Plane.044
v 0.983586 1.514536 0.406250
v 0.983586 1.514536 0.593750
v 0.873376 1.362845 0.406250
v 0.873376 1.362845 0.593750
v 0.831895 1.624745 0.406250
v 0.831895 1.624745 0.593750
v 0.721686 1.473055 0.406250
v 0.721686 1.473055 0.593750
vt 0.562500 0.187500
vt 0.750000 0.187500
vt 0.750000 0.375000
vt 0.562500 0.375000
vt 0.562500 0.187500
vt 0.750000 0.187500
vt 0.750000 0.375000
vt 0.562500 0.375000
vt 0.562500 0.187500
vt 0.750000 0.187500
vt 0.750000 0.375000
vt 0.562500 0.375000
vt 0.562500 0.187500
vt 0.750000 0.187500
vt 0.750000 0.375000
vt 0.562500 0.375000
vt 0.750000 0.187500
vt 0.750000 0.375000
vt 0.562500 0.187500
vt 0.562500 0.375000
vn 0.8090 -0.5878 0.0000
vn -0.5878 -0.8090 0.0000
vn -0.8090 0.5878 0.0000
vn 0.5878 0.8090 0.0000
vn 0.0000 0.0000 -1.0000
vn 0.0000 0.0000 1.0000
usemtl ELDRIN_ORRERY
s off
f 581/1049/123 582/1050/123 584/1051/123 583/1052/123
f 583/1053/124 584/1054/124 588/1055/124 587/1056/124
f 587/1057/125 588/1058/125 586/1059/125 585/1060/125
f 585/1061/126 586/1062/126 582/1063/126 581/1064/126
f 583/1053/127 587/1065/127 585/1066/127 581/1064/127
f 588/1067/128 584/1054/128 582/1063/128 586/1068/128
o ELDRIN_ORRERY_SUN_Plane.046
v 0.278314 2.026946 0.406250
v 0.278314 2.026946 0.593750
v 0.168105 1.875255 0.406250
v 0.168105 1.875255 0.593750
v 0.126624 2.137155 0.406250
v 0.126624 2.137155 0.593750
v 0.016414 1.985465 0.406250
v 0.016414 1.985465 0.593750
vt 0.375000 0.187500
vt 0.562500 0.187500
vt 0.562500 0.375000
vt 0.375000 0.375000
vt 0.375000 0.187500
vt 0.562500 0.187500
vt 0.562500 0.375000
vt 0.375000 0.375000
vt 0.375000 0.187500
vt 0.562500 0.187500
vt 0.562500 0.375000
vt 0.375000 0.375000
vt 0.375000 0.187500
vt 0.562500 0.187500
vt 0.562500 0.375000
vt 0.375000 0.375000
vt 0.562500 0.187500
vt 0.562500 0.375000
vt 0.375000 0.187500
vt 0.375000 0.375000
vn 0.8090 -0.5878 0.0000
vn -0.5878 -0.8090 0.0000
vn -0.8090 0.5878 0.0000
vn 0.5878 0.8090 0.0000
vn 0.0000 0.0000 -1.0000
vn 0.0000 0.0000 1.0000
usemtl ELDRIN_ORRERY
s off
f 589/1069/129 590/1070/129 592/1071/129 591/1072/129
f 591/1073/130 592/1074/130 596/1075/130 595/1076/130
f 595/1077/131 596/1078/131 594/1079/131 593/1080/131
f 593/1081/132 594/1082/132 590/1083/132 589/1084/132
f 591/1073/133 595/1085/133 593/1086/133 589/1084/133
f 596/1087/134 592/1074/134 590/1083/134 594/1088/134
