# Blender v2.80 (sub 75) OBJ File: 'chem devices.blend'
# www.blender.org
mtllib eldrin_orrery_ring_small.mtl
o ELDRIN_ORRERY_RING_SUNMOON_Plane.021
v 0.404598 -0.031250 0.108503
v 0.404598 -0.031250 -0.108503
v 0.467098 -0.031250 0.125250
v 0.467098 0.031250 0.125250
v -0.296266 -0.031250 0.296140
v -0.296266 0.031250 0.296140
v -0.108333 0.031250 0.404643
v -0.108333 -0.031250 0.404643
v -0.342018 0.031250 0.341894
v 0.404643 0.031250 0.108333
v 0.341894 -0.031250 0.342018
v 0.341894 0.031250 0.342018
v 0.296265 -0.031250 0.296141
v 0.296265 0.031250 0.296141
v 0.108332 0.031250 0.404644
v 0.108332 -0.031250 0.404644
v -0.125250 0.031250 0.467098
v 0.125250 0.031250 0.467098
v 0.125250 -0.031250 0.467098
v -0.125250 -0.031250 0.467098
v -0.296140 0.031250 -0.296266
v -0.404643 -0.031250 -0.108333
v -0.341894 -0.031250 -0.342018
v -0.467144 -0.031250 -0.125079
v -0.467144 0.031250 -0.125079
v -0.404598 0.031250 -0.108503
v -0.467098 -0.031250 0.125250
v -0.467098 0.031250 0.125250
v -0.341893 -0.031250 0.342019
v -0.404644 0.031250 0.108332
v -0.404644 -0.031250 0.108332
v -0.125079 0.031250 -0.467144
v -0.342019 0.031250 -0.341893
v -0.296265 -0.031250 -0.296141
v -0.108332 0.031250 -0.404644
v 0.108503 -0.031250 -0.404598
v 0.108503 0.031250 -0.404598
v -0.108503 -0.031250 -0.404598
v -0.125250 -0.031250 -0.467098
v 0.125250 0.031250 -0.467098
v 0.125079 -0.031250 -0.467144
v 0.342018 -0.031250 -0.341894
v 0.467143 0.031250 -0.125079
v 0.341893 0.031250 -0.342019
v 0.467143 -0.031250 -0.125079
v 0.296141 -0.031250 -0.296265
v 0.296141 0.031250 -0.296265
v 0.404644 0.031250 -0.108332
vt 0.375000 0.812500
vt 0.500000 0.812500
vt 0.500000 0.843750
vt 0.375000 0.843750
vt 0.383239 0.875000
vt 0.491761 0.875000
vt 0.500000 0.843750
vt 0.375000 0.843750
vt 0.491761 0.875000
vt 0.383239 0.875000
vt 0.383239 0.906250
vt 0.491761 0.906250
vt 0.250000 0.812500
vt 0.125000 0.812500
vt 0.125000 0.843750
vt 0.250000 0.843750
vt 0.241761 0.875000
vt 0.133239 0.875000
vt 0.125000 0.843750
vt 0.250000 0.843750
vt 0.133239 0.875000
vt 0.241761 0.875000
vt 0.241761 0.906250
vt 0.133239 0.906250
vt 0.250000 0.812500
vt 0.250000 0.843750
vt 0.258239 0.875000
vt 0.366761 0.875000
vt 0.250000 0.843750
vt 0.366761 0.875000
vt 0.258239 0.875000
vt 0.258239 0.906250
vt 0.366761 0.906250
vt 0.133239 0.875000
vt 0.133239 0.906250
vt 0.241761 0.906250
vt 0.241761 0.875000
vt 0.241761 0.875000
vt 0.133239 0.875000
vt 0.125000 0.843750
vt 0.125000 0.843750
vt 0.125000 0.812500
vt 0.008239 0.875000
vt 0.008239 0.906250
vt 0.116761 0.906250
vt 0.116761 0.875000
vt 0.116761 0.875000
vt 0.008239 0.875000
vt -0.000000 0.843750
vt -0.000000 0.843750
vt -0.000000 0.812500
vt 0.250000 0.812500
vt 0.375000 0.812500
vt 0.375000 0.843750
vt 0.250000 0.843750
vt 0.258239 0.875000
vt 0.366761 0.875000
vt 0.375000 0.843750
vt 0.250000 0.843750
vt 0.366761 0.875000
vt 0.258239 0.875000
vt 0.258239 0.906250
vt 0.366761 0.906250
vt 0.500000 0.812500
vt 0.500000 0.843750
vt 0.383239 0.875000
vt 0.491761 0.875000
vt 0.500000 0.843750
vt 0.491761 0.875000
vt 0.383239 0.875000
vt 0.383239 0.906250
vt 0.491761 0.906250
vt 0.366761 0.875000
vt 0.366761 0.906250
vt 0.258239 0.906250
vt 0.258239 0.875000
vt 0.258239 0.875000
vt 0.366761 0.875000
vt 0.375000 0.843750
vt 0.375000 0.843750
vt 0.375000 0.812500
vt 0.133239 0.875000
vt 0.133239 0.906250
vt 0.241761 0.906250
vt 0.241761 0.875000
vt 0.241761 0.875000
vt 0.133239 0.875000
vt 0.125000 0.843750
vt 0.125000 0.843750
vt 0.125000 0.812500
vt -0.000000 0.812500
vt -0.000000 0.843750
vt 0.008239 0.875000
vt 0.116761 0.875000
vt -0.000000 0.843750
vt 0.116761 0.875000
vt 0.008239 0.875000
vt 0.008239 0.906250
vt 0.116761 0.906250
vt 0.241761 0.875000
vt 0.241761 0.906250
vt 0.133239 0.906250
vt 0.133239 0.875000
vt 0.133239 0.875000
vt 0.241761 0.875000
vt 0.250000 0.843750
vt 0.125000 0.843750
vt 0.125000 0.843750
vt 0.250000 0.843750
vt 0.250000 0.812500
vt 0.125000 0.812500
vt 0.366761 0.875000
vt 0.366761 0.906250
vt 0.258239 0.906250
vt 0.258239 0.875000
vt 0.258239 0.875000
vt 0.366761 0.875000
vt 0.375000 0.843750
vt 0.375000 0.843750
vt 0.375000 0.812500
vn 1.0000 0.0000 0.0002
vn 0.0000 -1.0000 0.0000
vn -0.0000 1.0000 0.0000
vn -1.0000 0.0007 -0.0000
vn -0.5001 0.0004 0.8660
vn 0.5000 0.0000 -0.8660
vn 0.8659 0.0000 0.5002
vn -0.8661 -0.0004 -0.4999
vn -0.5000 0.0000 -0.8660
vn 0.5000 0.0000 0.8660
vn 0.0000 0.0000 -1.0000
vn 0.0000 0.0000 1.0000
vn 0.8660 0.0000 0.5000
vn -1.0000 0.0000 0.0002
vn 1.0000 -0.0004 0.0001
vn 0.8661 0.0000 -0.4998
vn -0.8660 -0.0004 0.5001
vn -0.5000 0.0007 -0.8660
vn -0.0001 0.0004 1.0000
vn -0.5000 0.0000 0.8660
vn 0.5000 -0.0007 -0.8660
vn 0.8661 0.0004 -0.4999
usemtl ELDRIN_ORRERY
s off
f 3/1/1 45/2/1 43/3/1 4/4/1
f 1/5/2 2/6/2 45/7/2 3/8/2
f 48/9/3 10/10/3 4/4/3 43/3/3
f 1/5/4 10/11/4 48/12/4 2/6/4
f 29/13/5 20/14/5 17/15/5 9/16/5
f 5/17/2 8/18/2 20/19/2 29/20/2
f 7/21/3 6/22/3 9/16/3 17/15/3
f 5/17/6 6/23/6 7/24/6 8/18/6
f 11/25/7 3/1/7 4/4/7 12/26/7
f 13/27/2 1/28/2 3/8/2 11/29/2
f 10/30/3 14/31/3 12/26/3 4/4/3
f 13/27/8 14/32/8 10/33/8 1/28/8
f 16/34/9 15/35/9 14/36/9 13/37/9
f 14/38/3 15/39/3 18/40/3 12/26/3
f 16/34/2 13/37/2 11/29/2 19/41/2
f 19/42/10 11/25/10 12/26/10 18/40/10
f 8/43/11 7/44/11 15/45/11 16/46/11
f 15/47/3 7/48/3 17/49/3 18/40/3
f 8/43/2 16/46/2 19/41/2 20/50/2
f 20/51/12 19/42/12 18/40/12 17/49/12
f 23/52/8 24/53/8 25/54/8 33/55/8
f 34/56/2 22/57/2 24/58/2 23/59/2
f 26/60/3 21/61/3 33/55/3 25/54/3
f 34/56/13 21/62/13 26/63/13 22/57/13
f 24/53/14 27/64/14 28/65/14 25/54/14
f 22/66/2 31/67/2 27/68/2 24/58/2
f 30/69/3 26/70/3 25/54/3 28/65/3
f 22/66/15 26/71/15 30/72/15 31/67/15
f 31/73/16 30/74/16 6/75/16 5/76/16
f 6/77/3 30/78/3 28/79/3 9/16/3
f 31/73/2 5/76/2 29/20/2 27/80/2
f 27/81/17 29/13/17 9/16/17 28/79/17
f 38/82/10 35/83/10 21/84/10 34/85/10
f 21/86/3 35/87/3 32/88/3 33/55/3
f 38/82/2 34/85/2 23/59/2 39/89/2
f 39/90/18 23/52/18 33/55/18 32/88/18
f 41/91/11 39/90/11 32/88/11 40/92/11
f 36/93/2 38/94/2 39/89/2 41/95/2
f 35/96/3 37/97/3 40/92/3 32/88/3
f 36/93/19 37/98/19 35/99/19 38/94/19
f 46/100/20 47/101/20 37/102/20 36/103/20
f 37/104/3 47/105/3 44/106/3 40/107/3
f 46/100/2 36/103/2 41/108/2 42/109/2
f 42/110/21 41/111/21 40/107/21 44/106/21
f 2/112/17 48/113/17 47/114/17 46/115/17
f 47/116/3 48/117/3 43/118/3 44/106/3
f 2/112/2 46/115/2 42/109/2 45/119/2
f 45/120/22 42/110/22 44/106/22 43/118/22
