# Blender v2.80 (sub 75) OBJ File: 'chem devices.blend'
# www.blender.org
mtllib eldrin_orrery_ring_large.mtl
o ELDRIN_ORRERY_RING_STARS_Plane.031
v 0.171003 -0.031250 0.638191
v 0.171003 0.031250 0.638191
v -0.171002 -0.031250 0.638192
v -0.171002 0.031250 0.638192
v 0.467189 -0.031250 0.467189
v 0.467189 0.031250 0.467189
v 0.187750 -0.031250 0.700691
v 0.512942 0.031250 0.512942
v 0.187750 0.031250 0.700691
v 0.638191 -0.031250 0.171003
v 0.512942 -0.031250 0.512941
v 0.700691 -0.031250 0.187750
v 0.700691 0.031250 0.187750
v 0.638192 0.031250 0.171002
v 0.700691 -0.031250 -0.187750
v 0.700691 0.031250 -0.187750
v 0.638191 -0.031250 -0.171003
v 0.638191 0.031250 -0.171003
v 0.171003 0.031250 -0.638191
v 0.467188 -0.031250 -0.467189
v 0.467188 0.031250 -0.467189
v 0.512941 -0.031250 -0.512942
v 0.187750 -0.031250 -0.700691
v 0.512941 0.031250 -0.512942
v 0.171002 -0.031250 -0.638192
v -0.187750 -0.031250 -0.700691
v 0.187749 0.031250 -0.700691
v -0.171003 -0.031250 -0.638191
v -0.171003 0.031250 -0.638191
v -0.187750 0.031250 -0.700691
v -0.638191 0.031250 -0.171003
v -0.467189 -0.031250 -0.467188
v -0.467189 0.031250 -0.467188
v -0.512942 -0.031250 -0.512941
v -0.512942 0.031250 -0.512941
v -0.638191 0.031250 0.171003
v -0.638192 -0.031250 -0.171002
v -0.700691 -0.031250 -0.187749
v -0.700691 0.031250 -0.187749
v -0.467189 -0.031250 0.467189
v -0.467189 0.031250 0.467189
v -0.638191 -0.031250 0.171003
v -0.700691 -0.031250 0.187750
v -0.512942 -0.031250 0.512942
v -0.512942 0.031250 0.512942
v -0.700691 0.031250 0.187750
v -0.187750 -0.031250 0.700691
v -0.187750 0.031250 0.700691
vt 0.000000 0.906250
vt 0.187500 0.906250
vt 0.187500 0.937500
vt 0.000000 0.937500
vt 0.008360 0.968750
vt 0.179140 0.968750
vt 0.187500 0.937500
vt 0.000000 0.937500
vt 0.179140 0.968750
vt 0.008360 0.968750
vt 0.008360 1.000000
vt 0.179140 1.000000
vt 0.375000 0.906250
vt 0.375000 0.937500
vt 0.195860 0.968750
vt 0.366640 0.968750
vt 0.375000 0.937500
vt 0.366640 0.968750
vt 0.195860 0.968750
vt 0.195860 1.000000
vt 0.366640 1.000000
vt 0.562500 0.906250
vt 0.562500 0.937500
vt 0.383360 0.968750
vt 0.554140 0.968750
vt 0.562500 0.937500
vt 0.554140 0.968750
vt 0.383360 0.968750
vt 0.383360 1.000000
vt 0.554140 1.000000
vt 0.750000 0.906250
vt 0.750000 0.937500
vt 0.570860 0.968750
vt 0.741640 0.968750
vt 0.750000 0.937500
vt 0.741640 0.968750
vt 0.570860 0.968750
vt 0.570860 1.000000
vt 0.741640 1.000000
vt 0.562500 0.906250
vt 0.375000 0.906250
vt 0.375000 0.937500
vt 0.562500 0.937500
vt 0.554140 0.968750
vt 0.383360 0.968750
vt 0.375000 0.937500
vt 0.562500 0.937500
vt 0.383360 0.968750
vt 0.554140 0.968750
vt 0.554140 1.000000
vt 0.383360 1.000000
vt 0.187500 0.906250
vt 0.187500 0.937500
vt 0.366640 0.968750
vt 0.195860 0.968750
vt 0.187500 0.937500
vt 0.195860 0.968750
vt 0.366640 0.968750
vt 0.366640 1.000000
vt 0.195860 1.000000
vt 0.000000 0.906250
vt 0.187500 0.906250
vt 0.187500 0.937500
vt 0.000000 0.937500
vt 0.008360 0.968750
vt 0.179140 0.968750
vt 0.187500 0.937500
vt 0.000000 0.937500
vt 0.179140 0.968750
vt 0.008360 0.968750
vt 0.008360 1.000000
vt 0.179140 1.000000
vt 0.375000 0.906250
vt 0.375000 0.937500
vt 0.195860 0.968750
vt 0.366640 0.968750
vt 0.375000 0.937500
vt 0.366640 0.968750
vt 0.195860 0.968750
vt 0.195860 1.000000
vt 0.366640 1.000000
vt 0.562500 0.906250
vt 0.562500 0.937500
vt 0.383360 0.968750
vt 0.554140 0.968750
vt 0.562500 0.937500
vt 0.554140 0.968750
vt 0.383360 0.968750
vt 0.383360 1.000000
vt 0.554140 1.000000
vt 0.750000 0.906250
vt 0.750000 0.937500
vt 0.570860 0.968750
vt 0.741640 0.968750
vt 0.750000 0.937500
vt 0.741640 0.968750
vt 0.570860 0.968750
vt 0.570860 1.000000
vt 0.741640 1.000000
vt 0.562500 0.906250
vt 0.375000 0.906250
vt 0.375000 0.937500
vt 0.562500 0.937500
vt 0.554140 0.968750
vt 0.383360 0.968750
vt 0.375000 0.937500
vt 0.562500 0.937500
vt 0.383360 0.968750
vt 0.554140 0.968750
vt 0.554140 1.000000
vt 0.383360 1.000000
vt 0.187500 0.906250
vt 0.187500 0.937500
vt 0.366640 0.968750
vt 0.195860 0.968750
vt 0.187500 0.937500
vt 0.195860 0.968750
vt 0.366640 0.968750
vt 0.366640 1.000000
vt 0.195860 1.000000
vn 0.0000 0.0000 1.0000
vn 0.0000 -1.0000 -0.0000
vn -0.0000 1.0000 0.0000
vn -0.0000 0.0000 -1.0000
vn 0.5000 -0.0000 0.8660
vn -0.5000 0.0000 -0.8660
vn 0.8660 0.0000 0.5000
vn -0.8660 -0.0000 -0.5000
vn 1.0000 0.0000 -0.0000
vn -1.0000 0.0000 0.0000
vn 0.8660 0.0000 -0.5000
vn -0.8660 0.0000 0.5000
vn 0.5000 0.0000 -0.8660
vn -0.5000 0.0000 0.8660
usemtl ELDRIN_ORRERY
s off
f 47/1/1 7/2/1 9/3/1 48/4/1
f 3/5/2 1/6/2 7/7/2 47/8/2
f 2/9/3 4/10/3 48/4/3 9/3/3
f 3/5/4 4/11/4 2/12/4 1/6/4
f 7/2/5 11/13/5 8/14/5 9/3/5
f 1/15/2 5/16/2 11/17/2 7/7/2
f 6/18/3 2/19/3 9/3/3 8/14/3
f 1/15/6 2/20/6 6/21/6 5/16/6
f 11/13/7 12/22/7 13/23/7 8/14/7
f 5/24/2 10/25/2 12/26/2 11/17/2
f 14/27/3 6/28/3 8/14/3 13/23/3
f 5/24/8 6/29/8 14/30/8 10/25/8
f 12/22/9 15/31/9 16/32/9 13/23/9
f 10/33/2 17/34/2 15/35/2 12/26/2
f 18/36/3 14/37/3 13/23/3 16/32/3
f 10/33/10 14/38/10 18/39/10 17/34/10
f 15/40/11 22/41/11 24/42/11 16/43/11
f 17/44/2 20/45/2 22/46/2 15/47/2
f 21/48/3 18/49/3 16/43/3 24/42/3
f 17/44/12 18/50/12 21/51/12 20/45/12
f 22/41/13 23/52/13 27/53/13 24/42/13
f 20/54/2 25/55/2 23/56/2 22/46/2
f 19/57/3 21/58/3 24/42/3 27/53/3
f 20/54/14 21/59/14 19/60/14 25/55/14
f 23/61/4 26/62/4 30/63/4 27/64/4
f 25/65/2 28/66/2 26/67/2 23/68/2
f 29/69/3 19/70/3 27/64/3 30/63/3
f 25/65/1 19/71/1 29/72/1 28/66/1
f 26/62/6 34/73/6 35/74/6 30/63/6
f 28/75/2 32/76/2 34/77/2 26/67/2
f 33/78/3 29/79/3 30/63/3 35/74/3
f 28/75/5 29/80/5 33/81/5 32/76/5
f 34/73/8 38/82/8 39/83/8 35/74/8
f 32/84/2 37/85/2 38/86/2 34/77/2
f 31/87/3 33/88/3 35/74/3 39/83/3
f 32/84/7 33/89/7 31/90/7 37/85/7
f 38/82/10 43/91/10 46/92/10 39/83/10
f 37/93/2 42/94/2 43/95/2 38/86/2
f 36/96/3 31/97/3 39/83/3 46/92/3
f 37/93/9 31/98/9 36/99/9 42/94/9
f 43/100/12 44/101/12 45/102/12 46/103/12
f 42/104/2 40/105/2 44/106/2 43/107/2
f 41/108/3 36/109/3 46/103/3 45/102/3
f 42/104/11 36/110/11 41/111/11 40/105/11
f 44/101/14 47/112/14 48/113/14 45/102/14
f 40/114/2 3/115/2 47/116/2 44/106/2
f 4/117/3 41/118/3 45/102/3 48/113/3
f 40/114/13 41/119/13 4/120/13 3/115/13
