# Blender v2.80 (sub 75) OBJ File: 'chem devices.blend'
# www.blender.org
mtllib eldrin_orrery_body.mtl
o ELDRIN_ORRERY_BODY_Plane.042
v -0.687500 0.000000 0.187500
v -0.687500 0.000000 0.812500
v -0.937500 0.000000 0.437500
v -0.937500 0.000000 0.562500
v -0.364383 0.000000 1.372155
v 0.176883 0.000000 1.684655
v -0.272877 0.000000 1.713661
v -0.164623 0.000000 1.776162
v 0.823117 0.000000 1.684655
v 1.364383 0.000000 1.372155
v 1.164623 0.000000 1.776162
v 1.272877 0.000000 1.713662
v 1.687500 0.000000 0.812500
v 1.687500 0.000000 0.187500
v 1.937500 0.000000 0.562500
v 1.937500 0.000000 0.437500
v 1.364383 0.000000 -0.372155
v 0.823117 0.000000 -0.684655
v 1.272877 0.000000 -0.713662
v 1.164623 0.000000 -0.776162
v 0.176883 0.000000 -0.684655
v -0.364383 0.000000 -0.372155
v -0.164623 0.000000 -0.776162
v -0.272877 0.000000 -0.713661
v 1.608253 0.000000 0.187500
v 1.608253 0.000000 0.812500
v 1.324759 0.000000 -0.303526
v 0.783494 0.000000 -0.616026
v 0.216506 0.000000 -0.616025
v -0.324760 0.000000 -0.303525
v -0.608253 0.000000 0.187500
v -0.608253 0.000000 0.812500
v -0.324759 0.000000 1.303525
v 0.216506 0.000000 1.616025
v 0.783494 0.000000 1.616025
v 1.324760 0.000000 1.303525
v 0.500000 0.000000 0.500000
v 0.875000 0.187500 -0.553526
v 0.875000 0.437500 -0.553526
v 0.875000 0.125000 -0.616026
v 0.125000 0.125000 -0.616025
v 0.875000 0.000000 -0.616026
v 0.125000 0.000000 -0.616025
v 0.125000 0.187500 -0.553526
v 0.125000 0.437500 -0.553526
v 0.125000 0.500000 -0.491026
v 0.875000 0.500000 -0.491026
v 0.125000 0.500000 -0.303526
v 0.875000 0.500000 -0.303526
v -0.224880 0.187500 -0.351523
v -0.224880 0.437500 -0.351523
v -0.279006 0.125000 -0.382773
v -0.654006 0.125000 0.266747
v -0.279006 0.000000 -0.382773
v -0.654006 0.000000 0.266747
v -0.599880 0.187500 0.297997
v -0.599880 0.437500 0.297997
v -0.545753 0.500000 0.329247
v -0.170753 0.500000 -0.320272
v -0.383373 0.500000 0.422997
v -0.008373 0.500000 -0.226523
v -0.599880 0.187500 0.702003
v -0.599880 0.437500 0.702003
v -0.654007 0.125000 0.733253
v -0.279007 0.125000 1.382772
v -0.654007 0.000000 0.733253
v -0.279007 0.000000 1.382772
v -0.224880 0.187500 1.351522
v -0.224880 0.437500 1.351522
v -0.170753 0.500000 1.320272
v -0.545753 0.500000 0.670753
v -0.008374 0.500000 1.226522
v -0.383374 0.500000 0.577003
v 0.125000 0.187500 1.553526
v 0.125000 0.437500 1.553526
v 0.125000 0.125000 1.616026
v 0.875000 0.125000 1.616026
v 0.125000 0.000000 1.616026
v 0.875000 0.000000 1.616026
v 0.875000 0.187500 1.553526
v 0.875000 0.437500 1.553526
v 0.875000 0.500000 1.491026
v 0.125000 0.500000 1.491026
v 0.875000 0.500000 1.303525
v 0.125000 0.500000 1.303526
v 1.224880 0.187500 1.351523
v 1.224880 0.437500 1.351523
v 1.279006 0.125000 1.382773
v 1.654006 0.125000 0.733253
v 1.279006 0.000000 1.382773
v 1.654006 0.000000 0.733253
v 1.599880 0.187500 0.702003
v 1.599880 0.437500 0.702003
v 1.545753 0.500000 0.670753
v 1.170753 0.500000 1.320273
v 1.383374 0.500000 0.577003
v 1.008373 0.500000 1.226523
v 1.599880 0.187500 0.297997
v 1.599880 0.437500 0.297997
v 1.654007 0.125000 0.266747
v 1.279006 0.125000 -0.382772
v 1.654007 0.000000 0.266747
v 1.279006 0.000000 -0.382772
v 1.224880 0.187500 -0.351523
v 1.224880 0.437500 -0.351523
v 1.170753 0.500000 -0.320272
v 1.545753 0.500000 0.329247
v 1.008373 0.500000 -0.226522
v 1.383374 0.500000 0.422997
v 1.562500 0.750000 0.625000
v 1.687500 0.750000 0.687500
v 1.250000 0.750000 0.687500
v 1.687500 0.750000 0.312500
v 1.250000 0.750000 0.312500
v 1.812500 0.750000 0.562500
v 1.812500 0.750000 0.437500
v 1.687500 0.687500 0.750000
v 1.250000 0.687500 0.750000
v 1.687500 0.687500 0.250000
v 1.250000 0.687500 0.250000
v 1.875000 0.687500 0.562500
v 1.875000 0.687500 0.437500
v 1.687500 0.187500 0.750000
v 1.250000 0.187500 0.750000
v 1.687500 0.187500 0.250000
v 1.250000 0.187500 0.250000
v 1.875000 0.187500 0.562500
v 1.875000 0.187500 0.437500
v 1.687500 0.125000 0.812500
v 1.250000 0.125000 0.812500
v 1.687500 0.125000 0.187500
v 1.250000 0.125000 0.187500
v 1.937500 0.125000 0.562500
v 1.937500 0.125000 0.437500
v 1.687500 0.000000 0.812500
v 1.250000 0.000000 0.812500
v 1.687500 0.000000 0.187500
v 1.250000 0.000000 0.187500
v 1.937500 0.000000 0.562500
v 1.937500 0.000000 0.437500
v 0.977124 0.781250 1.451402
v 1.147877 0.781250 1.497155
v 1.039624 0.781250 1.559655
v 1.272877 0.000000 1.713661
v 1.164624 0.000000 1.776161
v 1.145633 0.000000 0.993269
v 1.364383 0.000000 1.372155
v 0.604367 0.000000 1.305769
v 0.823117 0.000000 1.684655
v 1.272877 0.125000 1.713661
v 1.164624 0.125000 1.776161
v 1.145633 0.125000 0.993269
v 1.364383 0.125000 1.372155
v 0.604367 0.125000 1.305769
v 0.823117 0.125000 1.684655
v 1.241627 0.187500 1.659535
v 1.133374 0.187500 1.722035
v 1.091507 0.187500 1.024519
v 1.310257 0.187500 1.403405
v 0.658494 0.187500 1.274519
v 0.877244 0.187500 1.653405
v 1.241627 0.687500 1.659535
v 1.133374 0.687500 1.722035
v 1.091507 0.687500 1.024519
v 1.310257 0.687500 1.403405
v 0.658494 0.687500 1.274519
v 0.877244 0.687500 1.653405
v 1.210377 0.750000 1.605408
v 1.102124 0.750000 1.667908
v 1.037380 0.750000 1.055769
v 1.256130 0.750000 1.434655
v 0.712621 0.750000 1.243269
v 0.931371 0.750000 1.622155
v 0.922997 0.750000 1.482652
v -0.039624 0.781250 -0.559655
v -0.147877 0.781250 -0.497155
v 0.022876 0.781250 -0.451402
v -0.085377 0.781250 -0.388902
v -0.062500 0.750000 -0.474278
v 0.014503 0.750000 -0.590905
v -0.139503 0.750000 -0.357652
v -0.202003 0.750000 -0.465905
v -0.070874 0.750000 -0.613782
v -0.179127 0.750000 -0.551282
v 0.054126 0.750000 -0.397275
v -0.054127 0.750000 -0.334775
v 0.945873 0.750000 -0.397276
v 1.054126 0.750000 -0.334776
v 1.070873 0.750000 -0.613782
v 1.179127 0.750000 -0.551282
v 0.985497 0.750000 -0.590905
v 0.922997 0.750000 -0.482652
v 1.202003 0.750000 -0.465905
v 1.062500 0.750000 -0.474279
v 0.977123 0.781250 -0.451402
v 1.085377 0.781250 -0.388902
v 1.039623 0.781250 -0.559655
v 1.147876 0.781250 -0.497155
v -0.139503 0.750000 1.357652
v -0.256130 0.750000 1.434655
v -0.037380 0.750000 1.055769
v 0.068630 0.750000 1.622155
v 0.287380 0.750000 1.243269
v -0.210376 0.750000 1.605409
v -0.102123 0.750000 1.667909
v -0.310256 0.687500 1.403405
v -0.091506 0.687500 1.024519
v 0.122757 0.687500 1.653405
v 0.341507 0.687500 1.274519
v -0.241626 0.687500 1.659535
v -0.133373 0.687500 1.722035
v -0.310256 0.187500 1.403405
v -0.091506 0.187500 1.024519
v 0.122757 0.187500 1.653405
v 0.341507 0.187500 1.274519
v -0.241626 0.187500 1.659535
v -0.133373 0.187500 1.722035
v -0.364383 0.125000 1.372155
v -0.145633 0.125000 0.993269
v 0.176883 0.125000 1.684655
v 0.395633 0.125000 1.305769
v -0.272876 0.125000 1.713662
v -0.164623 0.125000 1.776161
v -0.364383 0.000000 1.372155
v -0.145633 0.000000 0.993269
v 0.176883 0.000000 1.684655
v 0.395633 0.000000 1.305769
v -0.272876 0.000000 1.713662
v -0.164623 0.000000 1.776161
v -0.147876 0.781250 1.497155
v -0.039623 0.781250 1.559655
v -0.085376 0.781250 1.388902
v 0.022877 0.781250 1.451402
v -0.062500 0.750000 1.474279
v -0.202003 0.750000 1.465905
v 0.077003 0.750000 1.482652
v 0.014504 0.750000 1.590905
v -0.179126 0.750000 1.551282
v -0.070873 0.750000 1.613782
v -0.054126 0.750000 1.334776
v 0.054127 0.750000 1.397276
v 1.164623 0.000000 -0.776161
v 1.272877 0.000000 -0.713662
v 0.604367 0.000000 -0.305769
v 0.823117 0.000000 -0.684655
v 1.145633 0.000000 0.006731
v 1.364383 0.000000 -0.372155
v 1.164623 0.125000 -0.776161
v 1.272877 0.125000 -0.713662
v 0.604367 0.125000 -0.305769
v 0.823117 0.125000 -0.684655
v 1.145633 0.125000 0.006731
v 1.364383 0.125000 -0.372155
v 1.133373 0.187500 -0.722035
v 1.241626 0.187500 -0.659535
v 0.658494 0.187500 -0.274519
v 0.877243 0.187500 -0.653405
v 1.091506 0.187500 -0.024519
v 1.310256 0.187500 -0.403405
v 1.133373 0.687500 -0.722035
v 1.241626 0.687500 -0.659535
v 0.658494 0.687500 -0.274519
v 0.877243 0.687500 -0.653405
v 1.091506 0.687500 -0.024519
v 1.310256 0.687500 -0.403405
v 1.102123 0.750000 -0.667909
v 1.210376 0.750000 -0.605409
v 0.712620 0.750000 -0.243269
v 0.931370 0.750000 -0.622155
v 1.037380 0.750000 -0.055769
v 1.256130 0.750000 -0.434655
v 1.139503 0.750000 -0.357652
v -0.500000 0.750000 0.562500
v -0.500000 0.750000 0.437500
v -0.750000 0.750000 0.562500
v -0.750000 0.750000 0.437500
v -0.687500 0.750000 0.625000
v -0.562500 0.750000 0.625000
v -0.687500 0.750000 0.375000
v -0.625000 0.750000 0.500000
v -0.562500 0.781250 0.562500
v -0.562500 0.781250 0.437500
v -0.687500 0.781250 0.562500
v -0.687500 0.781250 0.437500
v -0.937500 0.000000 0.562500
v -0.937500 0.000000 0.437500
v -0.250000 0.000000 0.812500
v -0.687500 0.000000 0.812500
v -0.250000 0.000000 0.187500
v -0.687500 0.000000 0.187500
v -0.937500 0.125000 0.562500
v -0.937500 0.125000 0.437500
v -0.250000 0.125000 0.812500
v -0.687500 0.125000 0.812500
v -0.250000 0.125000 0.187500
v -0.687500 0.125000 0.187500
v -0.875000 0.187500 0.562500
v -0.875000 0.187500 0.437500
v -0.250000 0.187500 0.750000
v -0.687500 0.187500 0.750000
v -0.250000 0.187500 0.250000
v -0.687500 0.187500 0.250000
v -0.875000 0.687500 0.562500
v -0.875000 0.687500 0.437500
v -0.250000 0.687500 0.750000
v -0.687500 0.687500 0.750000
v -0.250000 0.687500 0.250000
v -0.687500 0.687500 0.250000
v -0.812500 0.750000 0.562500
v -0.812500 0.750000 0.437500
v -0.250000 0.750000 0.687500
v -0.687500 0.750000 0.687500
v -0.250000 0.750000 0.312500
v -0.687500 0.750000 0.312500
v -0.562500 0.750000 0.375000
v 0.750249 1.000000 1.433944
v 0.750249 0.500000 1.433944
v 0.700009 1.062500 1.246444
v 0.616275 1.000000 0.933944
v 0.383725 1.000000 0.933944
v 0.566034 1.062500 0.746444
v 0.549287 1.125000 0.683944
v 1.183694 0.500000 1.183694
v 1.137941 1.062500 1.137941
v 0.733503 1.062500 1.371444
v 1.046435 1.062500 1.046435
v 1.000682 1.000000 1.000682
v 0.683263 1.000000 1.183944
v 0.771916 1.062500 0.771916
v 0.599528 1.062500 0.871444
v 0.680409 1.062500 0.680410
v 0.634656 1.125000 0.634656
v 0.500000 1.125000 0.500000
v 1.433944 1.000000 0.750250
v 1.183695 1.000000 1.183694
v 1.433944 0.500000 0.750250
v 1.371444 1.062500 0.733503
v 1.183944 1.000000 0.683262
v 0.933944 1.000000 0.616275
v 0.817669 1.000000 0.817669
v 0.871444 1.062500 0.599528
v 0.746444 1.062500 0.566035
v 0.683944 1.125000 0.549288
v 1.371444 1.062500 0.266497
v 1.246444 1.062500 0.700009
v 1.183694 1.000000 -0.183694
v 1.433944 1.000000 0.249750
v 1.433944 0.500000 0.249750
v 1.137941 1.062500 -0.137941
v 1.246444 1.062500 0.299991
v 1.000682 1.000000 -0.000682
v 1.183944 1.000000 0.316737
v 0.933944 1.000000 0.383725
v 0.771916 1.062500 0.228084
v 0.871444 1.062500 0.400472
v 0.680410 1.062500 0.319591
v 0.746444 1.062500 0.433965
v 0.634656 1.125000 0.365344
v 0.683944 1.125000 0.450712
v 1.183694 0.500000 -0.183695
v 0.733503 1.062500 -0.371444
v 1.046435 1.062500 -0.046435
v 0.683262 1.000000 -0.183944
v 0.616275 1.000000 0.066056
v 0.817669 1.000000 0.182331
v 0.750249 1.000000 -0.433944
v 0.750249 0.500000 -0.433944
v 0.266497 1.062500 -0.371444
v 0.700009 1.062500 -0.246444
v 0.316738 1.000000 -0.183944
v 0.383725 1.000000 0.066056
v 0.400472 1.062500 0.128556
v 0.599528 1.062500 0.128556
v 0.566034 1.062500 0.253556
v 0.549288 1.125000 0.316056
v 0.249750 1.000000 -0.433944
v 0.249750 0.500000 -0.433944
v 0.299991 1.062500 -0.246444
v 0.433965 1.062500 0.253556
v 0.450712 1.125000 0.316056
v -0.183695 1.000000 -0.183694
v -0.183695 0.500000 -0.183694
v -0.137942 1.062500 -0.137941
v -0.046435 1.062500 -0.046435
v -0.000682 1.000000 -0.000681
v 0.182331 1.000000 0.182331
v 0.128556 1.062500 0.400472
v 0.228084 1.062500 0.228084
v 0.319590 1.062500 0.319591
v 0.316056 1.125000 0.450712
v 0.365344 1.125000 0.365344
v -0.433944 1.000000 0.249751
v -0.433944 0.500000 0.750250
v -0.433944 0.500000 0.249751
v -0.371444 1.062500 0.733503
v -0.371444 1.062500 0.266498
v -0.246444 1.062500 0.700009
v -0.246444 1.062500 0.299991
v -0.183944 1.000000 0.316738
v 0.066056 1.000000 0.616275
v 0.066056 1.000000 0.383725
v 0.253556 1.062500 0.433966
v 0.316056 1.125000 0.549287
v -0.183694 1.000000 1.183695
v -0.433944 1.000000 0.750250
v -0.183694 0.500000 1.183695
v -0.137941 1.062500 1.137941
v -0.183944 1.000000 0.683263
v 0.182331 1.000000 0.817669
v 0.128556 1.062500 0.599528
v 0.253556 1.062500 0.566035
v 0.365344 1.125000 0.634656
v 0.249750 1.000000 1.433944
v 0.249750 0.500000 1.433944
v 0.266497 1.062500 1.371444
v 0.299991 1.062500 1.246444
v -0.046434 1.062500 1.046435
v 0.316738 1.000000 1.183944
v -0.000681 1.000000 1.000682
v 0.400472 1.062500 0.871444
v 0.228084 1.062500 0.771916
v 0.433965 1.062500 0.746444
v 0.319591 1.062500 0.680410
v 0.450712 1.125000 0.683944
v 1.687500 0.781250 0.562500
v 1.687500 0.781250 0.437500
v 1.562500 0.781250 0.562500
v 1.562500 0.781250 0.437500
v 1.625000 0.750000 0.500000
v 1.687500 0.750000 0.625000
v 1.562500 0.750000 0.375000
v 1.687500 0.750000 0.375000
v 1.750000 0.750000 0.562500
v 1.750000 0.750000 0.437500
v 1.500000 0.750000 0.562500
v 1.500000 0.750000 0.437500
v 1.085377 0.781250 1.388902
v 1.062500 0.750000 1.474278
v 0.985497 0.750000 1.590905
v 1.139503 0.750000 1.357652
v 1.202003 0.750000 1.465905
v 1.070874 0.750000 1.613781
v 1.179127 0.750000 1.551282
v 0.945874 0.750000 1.397275
v 1.054127 0.750000 1.334775
v -0.272877 0.000000 -0.713661
v -0.164624 0.000000 -0.776161
v -0.145633 0.000000 0.006731
v -0.364383 0.000000 -0.372155
v 0.395633 0.000000 -0.305769
v 0.176883 0.000000 -0.684655
v -0.272877 0.125000 -0.713661
v -0.164624 0.125000 -0.776161
v -0.145633 0.125000 0.006731
v -0.364383 0.125000 -0.372155
v 0.395633 0.125000 -0.305769
v 0.176883 0.125000 -0.684655
v -0.241627 0.187500 -0.659535
v -0.133374 0.187500 -0.722035
v -0.091507 0.187500 -0.024519
v -0.310257 0.187500 -0.403405
v 0.341506 0.187500 -0.274519
v 0.122756 0.187500 -0.653405
v -0.241627 0.687500 -0.659535
v -0.133374 0.687500 -0.722035
v -0.091507 0.687500 -0.024519
v -0.310257 0.687500 -0.403405
v 0.341506 0.687500 -0.274519
v 0.122756 0.687500 -0.653405
v -0.210377 0.750000 -0.605408
v -0.102124 0.750000 -0.667908
v -0.037380 0.750000 -0.055769
v -0.256130 0.750000 -0.434655
v 0.287380 0.750000 -0.243269
v 0.068629 0.750000 -0.622155
v 0.077003 0.750000 -0.482652
vt 0.687500 0.062500
vt 0.656250 0.062500
vt 0.656250 0.093750
vt 0.687500 0.093750
vt 0.656250 0.062500
vt 0.687500 0.062500
vt 0.687500 0.062500
vt 0.656250 0.062500
vt 0.656250 0.093750
vt 0.687500 0.093750
vt 0.656250 0.062500
vt 0.687500 0.062500
vt 0.687500 0.062500
vt 0.656250 0.062500
vt 0.656250 0.093750
vt 0.687500 0.093750
vt 0.687500 0.062500
vt 0.656250 0.062500
vt 0.687500 0.062500
vt 0.656250 0.062500
vt 0.656250 0.093750
vt 0.687500 0.093750
vt 0.687500 0.062500
vt 0.656250 0.062500
vt 0.687500 0.062500
vt 0.656250 0.062500
vt 0.656250 0.093750
vt 0.687500 0.093750
vt 0.687500 0.062500
vt 0.656250 0.062500
vt 0.687500 0.062500
vt 0.656250 0.062500
vt 0.656250 0.093750
vt 0.687500 0.093750
vt 0.687500 0.062500
vt 0.656250 0.062500
vt 0.687500 0.093750
vt -0.000000 0.093750
vt 0.375000 0.093750
vt 0.375000 0.218750
vt -0.000000 0.218750
vt -0.000000 0.062500
vt 0.375000 0.062500
vt -0.000000 0.000000
vt 0.375000 -0.000000
vt 0.375000 0.250000
vt -0.000000 0.250000
vt 0.375000 0.343750
vt 0.000000 0.343750
vt -0.000000 0.093750
vt 0.375000 0.093750
vt 0.375000 0.218750
vt -0.000000 0.218750
vt -0.000000 0.062500
vt 0.375000 0.062500
vt -0.000000 0.000000
vt 0.375000 -0.000000
vt 0.375000 0.250000
vt -0.000000 0.250000
vt 0.375000 0.343750
vt 0.000000 0.343750
vt -0.000000 0.093750
vt 0.375000 0.093750
vt 0.375000 0.218750
vt -0.000000 0.218750
vt -0.000000 0.062500
vt 0.375000 0.062500
vt -0.000000 0.000000
vt 0.375000 -0.000000
vt 0.375000 0.250000
vt -0.000000 0.250000
vt 0.375000 0.343750
vt 0.000000 0.343750
vt -0.000000 0.093750
vt 0.375000 0.093750
vt 0.375000 0.218750
vt -0.000000 0.218750
vt -0.000000 0.062500
vt 0.375000 0.062500
vt -0.000000 0.000000
vt 0.375000 -0.000000
vt 0.375000 0.250000
vt -0.000000 0.250000
vt 0.375000 0.343750
vt 0.000000 0.343750
vt -0.000000 0.093750
vt 0.375000 0.093750
vt 0.375000 0.218750
vt -0.000000 0.218750
vt -0.000000 0.062500
vt 0.375000 0.062500
vt -0.000000 0.000000
vt 0.375000 -0.000000
vt 0.375000 0.250000
vt -0.000000 0.250000
vt 0.375000 0.343750
vt 0.000000 0.343750
vt -0.000000 0.093750
vt 0.375000 0.093750
vt 0.375000 0.218750
vt -0.000000 0.218750
vt -0.000000 0.062500
vt 0.375000 0.062500
vt -0.000000 0.000000
vt 0.375000 -0.000000
vt 0.375000 0.250000
vt -0.000000 0.250000
vt 0.375000 0.343750
vt 0.000000 0.343750
vt 0.718750 0.718750
vt 0.781250 0.718750
vt 0.781250 0.750000
vt 0.718750 0.750000
vt 0.781250 0.656250
vt 0.718750 0.656250
vt 0.718750 0.625000
vt 0.781250 0.625000
vt 0.687500 0.718750
vt 0.687500 0.656250
vt 0.812500 0.656250
vt 0.812500 0.718750
vt 0.593750 0.000000
vt 0.593750 0.187500
vt 0.375000 0.187500
vt 0.375000 0.000000
vt 0.750000 0.156250
vt 0.687500 0.093750
vt 0.656250 0.093750
vt 0.750000 0.187500
vt 0.375000 0.718750
vt 0.312500 0.718750
vt 0.312500 0.687500
vt 0.375000 0.687500
vt 0.093750 0.718750
vt 0.312500 0.718750
vt 0.312500 0.687500
vt 0.093750 0.687500
vt 0.687500 0.093750
vt 0.750000 0.156250
vt 0.750000 0.187500
vt 0.656250 0.093750
vt 0.312500 0.718750
vt 0.093750 0.718750
vt 0.093750 0.687500
vt 0.312500 0.687500
vt 0.000000 0.687500
vt 0.093750 0.437500
vt -0.000000 0.437500
vt 0.093750 0.437500
vt 0.312500 0.437500
vt 0.000000 0.687500
vt -0.000000 0.437500
vt 0.312500 0.437500
vt 0.375000 0.437500
vt 0.312500 0.437500
vt 0.656250 0.000000
vt 0.750000 0.093750
vt 0.750000 0.125000
vt 0.625000 0.000000
vt 0.093750 0.406250
vt 0.312500 0.406250
vt 0.750000 0.093750
vt 0.656250 0.000000
vt 0.625000 0.000000
vt 0.750000 0.125000
vt 0.312500 0.406250
vt 0.375000 0.406250
vt 0.312500 0.406250
vt 0.093750 0.406250
vt 0.093750 0.343750
vt 0.312500 0.343750
vt 0.500000 0.437500
vt 0.375000 0.437500
vt 0.375000 0.375000
vt 0.500000 0.375000
vt 0.312500 0.343750
vt 0.375000 0.343750
vt 0.312500 0.343750
vt 0.093750 0.343750
vt 0.375000 0.437500
vt 0.500000 0.437500
vt 0.500000 0.375000
vt 0.375000 0.375000
vt 0.312500 0.406250
vt 0.093750 0.406250
vt 0.093750 0.343750
vt 0.312500 0.343750
vt 0.500000 0.437500
vt 0.375000 0.437500
vt 0.375000 0.375000
vt 0.500000 0.375000
vt 0.375000 0.406250
vt 0.312500 0.406250
vt 0.312500 0.343750
vt 0.375000 0.343750
vt 0.093750 0.406250
vt 0.312500 0.406250
vt 0.312500 0.343750
vt 0.093750 0.343750
vt 0.375000 0.437500
vt 0.500000 0.437500
vt 0.500000 0.375000
vt 0.375000 0.375000
vt 0.718750 0.718750
vt 0.718750 0.750000
vt 0.687500 0.718750
vt 0.781250 0.718750
vt 0.812500 0.718750
vt 0.781250 0.750000
vt 0.781250 0.656250
vt 0.781250 0.625000
vt 0.812500 0.656250
vt 0.718750 0.656250
vt 0.687500 0.656250
vt 0.718750 0.625000
vt 0.656250 0.062500
vt 0.656250 0.125000
vt 0.593750 0.187500
vt 0.593750 0.000000
vt 0.750000 0.687500
vt 0.375000 0.437500
vt 0.500000 0.437500
vt 0.500000 0.375000
vt 0.375000 0.375000
vt 0.093750 0.406250
vt 0.312500 0.406250
vt 0.312500 0.343750
vt 0.093750 0.343750
vt 0.375000 0.406250
vt 0.312500 0.406250
vt 0.312500 0.343750
vt 0.375000 0.343750
vt 0.500000 0.437500
vt 0.375000 0.437500
vt 0.375000 0.375000
vt 0.500000 0.375000
vt 0.312500 0.406250
vt 0.093750 0.406250
vt 0.093750 0.343750
vt 0.312500 0.343750
vt 0.093750 0.437500
vt 0.312500 0.437500
vt 0.375000 0.437500
vt 0.312500 0.437500
vt 0.750000 0.093750
vt 0.656250 0.000000
vt 0.625000 0.000000
vt 0.750000 0.125000
vt 0.312500 0.437500
vt 0.093750 0.437500
vt 0.656250 0.000000
vt 0.750000 0.093750
vt 0.750000 0.125000
vt 0.625000 0.000000
vt 0.093750 0.687500
vt 0.312500 0.687500
vt 0.375000 0.687500
vt 0.312500 0.687500
vt 0.093750 0.687500
vt 0.000000 0.687500
vt -0.000000 0.437500
vt 0.312500 0.687500
vt 0.000000 0.687500
vt -0.000000 0.437500
vt 0.312500 0.718750
vt 0.093750 0.718750
vt 0.687500 0.093750
vt 0.750000 0.156250
vt 0.750000 0.187500
vt 0.656250 0.093750
vt 0.093750 0.718750
vt 0.312500 0.718750
vt 0.375000 0.718750
vt 0.312500 0.718750
vt 0.750000 0.156250
vt 0.687500 0.093750
vt 0.656250 0.093750
vt 0.750000 0.187500
vt 0.375000 0.187500
vt 0.375000 0.000000
vt 0.718750 0.656250
vt 0.781250 0.656250
vt 0.750000 0.687500
vt 0.781250 0.718750
vt 0.718750 0.718750
vt 0.656250 0.062500
vt 0.656250 0.125000
vt 0.593750 0.187500
vt 0.593750 0.000000
vt 0.687500 0.656250
vt 0.718750 0.625000
vt 0.781250 0.625000
vt 0.812500 0.656250
vt 0.812500 0.718750
vt 0.781250 0.750000
vt 0.718750 0.750000
vt 0.687500 0.718750
vt 0.718750 0.718750
vt 0.718750 0.750000
vt 0.687500 0.718750
vt 0.781250 0.718750
vt 0.812500 0.718750
vt 0.781250 0.750000
vt 0.781250 0.656250
vt 0.781250 0.625000
vt 0.812500 0.656250
vt 0.718750 0.656250
vt 0.687500 0.656250
vt 0.718750 0.625000
vt 0.656250 0.062500
vt 0.656250 0.125000
vt 0.593750 0.187500
vt 0.593750 0.000000
vt 0.750000 0.687500
vt 0.718750 0.718750
vt 0.781250 0.718750
vt 0.781250 0.750000
vt 0.718750 0.750000
vt 0.781250 0.656250
vt 0.718750 0.656250
vt 0.718750 0.625000
vt 0.781250 0.625000
vt 0.687500 0.718750
vt 0.687500 0.656250
vt 0.812500 0.656250
vt 0.812500 0.718750
vt 0.593750 0.000000
vt 0.593750 0.187500
vt 0.375000 0.187500
vt 0.375000 0.000000
vt 0.750000 0.156250
vt 0.687500 0.093750
vt 0.656250 0.093750
vt 0.750000 0.187500
vt 0.375000 0.718750
vt 0.312500 0.718750
vt 0.312500 0.687500
vt 0.375000 0.687500
vt 0.093750 0.718750
vt 0.312500 0.718750
vt 0.312500 0.687500
vt 0.093750 0.687500
vt 0.687500 0.093750
vt 0.750000 0.156250
vt 0.750000 0.187500
vt 0.656250 0.093750
vt 0.312500 0.718750
vt 0.093750 0.718750
vt 0.093750 0.687500
vt 0.312500 0.687500
vt 0.000000 0.687500
vt 0.093750 0.437500
vt -0.000000 0.437500
vt 0.093750 0.437500
vt 0.312500 0.437500
vt 0.000000 0.687500
vt -0.000000 0.437500
vt 0.312500 0.437500
vt 0.375000 0.437500
vt 0.312500 0.437500
vt 0.656250 0.000000
vt 0.750000 0.093750
vt 0.750000 0.125000
vt 0.625000 0.000000
vt 0.093750 0.406250
vt 0.312500 0.406250
vt 0.750000 0.093750
vt 0.656250 0.000000
vt 0.625000 0.000000
vt 0.750000 0.125000
vt 0.312500 0.406250
vt 0.375000 0.406250
vt 0.312500 0.406250
vt 0.093750 0.406250
vt 0.093750 0.343750
vt 0.312500 0.343750
vt 0.500000 0.437500
vt 0.375000 0.437500
vt 0.375000 0.375000
vt 0.500000 0.375000
vt 0.312500 0.343750
vt 0.375000 0.343750
vt 0.312500 0.343750
vt 0.093750 0.343750
vt 0.375000 0.437500
vt 0.500000 0.437500
vt 0.500000 0.375000
vt 0.375000 0.375000
vt 0.750000 0.687500
vt 0.656250 0.062500
vt 0.656250 0.125000
vt 0.375000 0.437500
vt 0.500000 0.437500
vt 0.500000 0.375000
vt 0.375000 0.375000
vt 0.093750 0.406250
vt 0.312500 0.406250
vt 0.312500 0.343750
vt 0.093750 0.343750
vt 0.375000 0.406250
vt 0.312500 0.406250
vt 0.312500 0.343750
vt 0.375000 0.343750
vt 0.500000 0.437500
vt 0.375000 0.437500
vt 0.375000 0.375000
vt 0.500000 0.375000
vt 0.312500 0.406250
vt 0.093750 0.406250
vt 0.093750 0.343750
vt 0.312500 0.343750
vt 0.093750 0.437500
vt 0.312500 0.437500
vt 0.375000 0.437500
vt 0.312500 0.437500
vt 0.750000 0.093750
vt 0.656250 0.000000
vt 0.625000 0.000000
vt 0.750000 0.125000
vt 0.312500 0.437500
vt 0.093750 0.437500
vt 0.656250 0.000000
vt 0.750000 0.093750
vt 0.750000 0.125000
vt 0.625000 0.000000
vt 0.093750 0.687500
vt 0.312500 0.687500
vt 0.375000 0.687500
vt 0.312500 0.687500
vt 0.093750 0.687500
vt 0.000000 0.687500
vt -0.000000 0.437500
vt 0.312500 0.687500
vt 0.000000 0.687500
vt -0.000000 0.437500
vt 0.312500 0.718750
vt 0.093750 0.718750
vt 0.687500 0.093750
vt 0.750000 0.156250
vt 0.750000 0.187500
vt 0.656250 0.093750
vt 0.093750 0.718750
vt 0.312500 0.718750
vt 0.375000 0.718750
vt 0.312500 0.718750
vt 0.750000 0.156250
vt 0.687500 0.093750
vt 0.656250 0.093750
vt 0.750000 0.187500
vt 0.375000 0.187500
vt 0.375000 0.000000
vt 0.718750 0.718750
vt 0.718750 0.750000
vt 0.687500 0.718750
vt 0.781250 0.718750
vt 0.812500 0.718750
vt 0.781250 0.750000
vt 0.781250 0.656250
vt 0.781250 0.625000
vt 0.812500 0.656250
vt 0.718750 0.656250
vt 0.687500 0.656250
vt 0.718750 0.625000
vt 0.656250 0.062500
vt 0.656250 0.125000
vt 0.593750 0.187500
vt 0.593750 0.000000
vt 0.750000 0.687500
vt 0.375000 0.437500
vt 0.500000 0.437500
vt 0.500000 0.375000
vt 0.375000 0.375000
vt 0.093750 0.406250
vt 0.312500 0.406250
vt 0.312500 0.343750
vt 0.093750 0.343750
vt 0.375000 0.406250
vt 0.312500 0.406250
vt 0.312500 0.343750
vt 0.375000 0.343750
vt 0.500000 0.437500
vt 0.375000 0.437500
vt 0.375000 0.375000
vt 0.500000 0.375000
vt 0.312500 0.406250
vt 0.093750 0.406250
vt 0.093750 0.343750
vt 0.312500 0.343750
vt 0.093750 0.437500
vt 0.312500 0.437500
vt 0.375000 0.437500
vt 0.312500 0.437500
vt 0.750000 0.093750
vt 0.656250 0.000000
vt 0.625000 0.000000
vt 0.750000 0.125000
vt 0.312500 0.437500
vt 0.093750 0.437500
vt 0.656250 0.000000
vt 0.750000 0.093750
vt 0.750000 0.125000
vt 0.625000 0.000000
vt 0.093750 0.687500
vt 0.312500 0.687500
vt 0.375000 0.687500
vt 0.312500 0.687500
vt 0.093750 0.687500
vt 0.000000 0.687500
vt -0.000000 0.437500
vt 0.312500 0.687500
vt 0.000000 0.687500
vt -0.000000 0.437500
vt 0.312500 0.718750
vt 0.093750 0.718750
vt 0.687500 0.093750
vt 0.750000 0.156250
vt 0.750000 0.187500
vt 0.656250 0.093750
vt 0.093750 0.718750
vt 0.312500 0.718750
vt 0.375000 0.718750
vt 0.312500 0.718750
vt 0.750000 0.156250
vt 0.687500 0.093750
vt 0.656250 0.093750
vt 0.750000 0.187500
vt 0.375000 0.187500
vt 0.375000 0.000000
vt 0.991634 0.281250
vt 0.758366 0.281250
vt 0.750000 0.250000
vt 1.000000 0.250000
vt 0.750000 -0.000000
vt 1.000000 -0.000000
vt 0.974875 0.375000
vt 0.775125 0.375000
vt 0.758366 0.312500
vt 0.991634 0.312500
vt 0.966513 0.406250
vt 0.783487 0.406250
vt 0.783487 0.437500
vt 0.966513 0.437500
vt 0.933062 0.562500
vt 0.816938 0.562500
vt 0.924700 0.593750
vt 0.825300 0.593750
vt 0.907975 0.687500
vt 0.842025 0.687500
vt 0.825300 0.625000
vt 0.924700 0.625000
vt 0.774612 0.593750
vt 0.725388 0.593750
vt 0.717025 0.625000
vt 0.782975 0.625000
vt 0.750000 0.500000
vt 0.758366 0.312500
vt 1.000000 0.281250
vt 0.750000 0.281250
vt 0.750000 1.000000
vt 1.000000 1.000000
vt 1.000000 0.750000
vt 0.750000 0.750000
vt 0.775125 0.375000
vt 0.783487 0.437500
vt 0.974875 0.406250
vt 0.775125 0.406250
vt 0.816938 0.562500
vt 0.825300 0.625000
vt 0.933062 0.593750
vt 0.816938 0.593750
vt 0.842025 0.687500
vt 0.725388 0.593750
vt 0.717025 0.625000
vt 0.991634 0.281250
vt 0.758366 0.281250
vt 0.750000 0.250000
vt 1.000000 0.250000
vt 0.750000 -0.000000
vt 1.000000 -0.000000
vt 0.974875 0.375000
vt 0.991634 0.312500
vt 0.966513 0.406250
vt 0.783487 0.406250
vt 0.966513 0.437500
vt 0.933062 0.562500
vt 0.924700 0.593750
vt 0.825300 0.593750
vt 0.907975 0.687500
vt 0.924700 0.625000
vt 0.774612 0.593750
vt 0.782975 0.625000
vt 0.758366 0.312500
vt 1.000000 0.281250
vt 0.750000 0.281250
vt 0.750000 1.000000
vt 1.000000 1.000000
vt 1.000000 0.750000
vt 0.750000 0.750000
vt 0.775125 0.375000
vt 0.783487 0.437500
vt 0.974875 0.406250
vt 0.775125 0.406250
vt 0.816938 0.562500
vt 0.825300 0.625000
vt 0.933062 0.593750
vt 0.816938 0.593750
vt 0.842025 0.687500
vt 0.725388 0.593750
vt 0.717025 0.625000
vt 0.991634 0.281250
vt 0.758366 0.281250
vt 0.750000 0.250000
vt 1.000000 0.250000
vt 0.750000 -0.000000
vt 1.000000 -0.000000
vt 0.974875 0.375000
vt 0.991634 0.312500
vt 0.966513 0.406250
vt 0.783487 0.406250
vt 0.966513 0.437500
vt 0.933062 0.562500
vt 0.924700 0.593750
vt 0.825300 0.593750
vt 0.907975 0.687500
vt 0.924700 0.625000
vt 0.774612 0.593750
vt 0.782975 0.625000
vt 0.758366 0.312500
vt 1.000000 0.281250
vt 0.750000 0.281250
vt 0.750000 1.000000
vt 1.000000 1.000000
vt 1.000000 0.750000
vt 0.750000 0.750000
vt 0.775125 0.375000
vt 0.783487 0.437500
vt 0.974875 0.406250
vt 0.775125 0.406250
vt 0.816938 0.562500
vt 0.825300 0.625000
vt 0.933062 0.593750
vt 0.816938 0.593750
vt 0.842025 0.687500
vt 0.725388 0.593750
vt 0.717025 0.625000
vt 0.991634 0.281250
vt 0.758366 0.281250
vt 0.750000 0.250000
vt 1.000000 0.250000
vt 0.750000 -0.000000
vt 1.000000 -0.000000
vt 0.974875 0.375000
vt 0.991634 0.312500
vt 0.966513 0.406250
vt 0.783487 0.406250
vt 0.966513 0.437500
vt 0.933062 0.562500
vt 0.924700 0.593750
vt 0.825300 0.593750
vt 0.907975 0.687500
vt 0.924700 0.625000
vt 0.774612 0.593750
vt 0.782975 0.625000
vt 0.758366 0.312500
vt 1.000000 0.281250
vt 0.750000 0.281250
vt 0.750000 1.000000
vt 1.000000 1.000000
vt 1.000000 0.750000
vt 0.750000 0.750000
vt 0.775125 0.375000
vt 0.783487 0.437500
vt 0.974875 0.406250
vt 0.775125 0.406250
vt 0.816938 0.562500
vt 0.825300 0.625000
vt 0.933062 0.593750
vt 0.816938 0.593750
vt 0.842025 0.687500
vt 0.725388 0.593750
vt 0.717025 0.625000
vt 0.991634 0.281250
vt 0.758366 0.281250
vt 0.750000 0.250000
vt 1.000000 0.250000
vt 0.750000 -0.000000
vt 1.000000 -0.000000
vt 0.974875 0.375000
vt 0.991634 0.312500
vt 0.966513 0.406250
vt 0.783487 0.406250
vt 0.966513 0.437500
vt 0.933062 0.562500
vt 0.924700 0.593750
vt 0.825300 0.593750
vt 0.907975 0.687500
vt 0.924700 0.625000
vt 0.774612 0.593750
vt 0.782975 0.625000
vt 0.758366 0.312500
vt 1.000000 0.281250
vt 0.750000 0.281250
vt 0.750000 1.000000
vt 1.000000 1.000000
vt 1.000000 0.750000
vt 0.750000 0.750000
vt 0.775125 0.375000
vt 0.783487 0.437500
vt 0.974875 0.406250
vt 0.775125 0.406250
vt 0.816938 0.562500
vt 0.825300 0.625000
vt 0.933062 0.593750
vt 0.816938 0.593750
vt 0.842025 0.687500
vt 0.725388 0.593750
vt 0.717025 0.625000
vt 0.991634 0.281250
vt 0.758366 0.281250
vt 0.750000 0.250000
vt 1.000000 0.250000
vt 0.750000 -0.000000
vt 1.000000 -0.000000
vt 0.974875 0.375000
vt 0.991634 0.312500
vt 0.966513 0.406250
vt 0.783487 0.406250
vt 0.966513 0.437500
vt 0.933062 0.562500
vt 0.924700 0.593750
vt 0.825300 0.593750
vt 0.907975 0.687500
vt 0.924700 0.625000
vt 0.774612 0.593750
vt 0.782975 0.625000
vt 1.000000 0.281250
vt 0.750000 0.281250
vt 0.750000 1.000000
vt 1.000000 1.000000
vt 1.000000 0.750000
vt 0.750000 0.750000
vt 0.974875 0.406250
vt 0.775125 0.406250
vt 0.933062 0.593750
vt 0.816938 0.593750
vt 0.750000 0.687500
vt 0.656250 0.062500
vt 0.656250 0.125000
vt 0.093750 0.437500
vt 0.312500 0.437500
vt 0.375000 0.437500
vt 0.312500 0.437500
vt 0.750000 0.093750
vt 0.656250 0.000000
vt 0.625000 0.000000
vt 0.750000 0.125000
vt 0.312500 0.437500
vt 0.093750 0.437500
vt 0.656250 0.000000
vt 0.750000 0.093750
vt 0.750000 0.125000
vt 0.625000 0.000000
vt 0.093750 0.687500
vt 0.312500 0.687500
vt 0.375000 0.687500
vt 0.312500 0.687500
vt 0.093750 0.687500
vt 0.000000 0.687500
vt -0.000000 0.437500
vt 0.312500 0.687500
vt 0.000000 0.687500
vt -0.000000 0.437500
vt 0.312500 0.718750
vt 0.093750 0.718750
vt 0.687500 0.093750
vt 0.750000 0.156250
vt 0.750000 0.187500
vt 0.656250 0.093750
vt 0.093750 0.718750
vt 0.312500 0.718750
vt 0.375000 0.718750
vt 0.312500 0.718750
vt 0.750000 0.156250
vt 0.687500 0.093750
vt 0.656250 0.093750
vt 0.750000 0.187500
vt 0.375000 0.187500
vt 0.375000 0.000000
vn 0.0000 -1.0000 0.0000
vn 0.0000 0.0000 -1.0000
vn -0.0000 0.7071 -0.7071
vn 0.0000 1.0000 0.0000
vn -0.8660 0.0000 -0.5000
vn -0.6124 0.7071 -0.3536
vn -0.8660 0.0000 0.5000
vn -0.6124 0.7071 0.3536
vn 0.0000 0.0000 1.0000
vn 0.0000 0.7071 0.7071
vn 0.8660 0.0000 0.5000
vn 0.6124 0.7071 0.3536
vn 0.8660 0.0000 -0.5000
vn 0.6124 0.7071 -0.3536
vn -0.4472 0.8944 0.0000
vn 0.4472 0.8944 0.0000
vn -0.0000 0.8944 0.4472
vn 0.0000 0.8944 -0.4472
vn 0.5774 0.5774 -0.5774
vn 0.7071 0.7071 0.0000
vn 0.5774 0.5774 0.5774
vn 0.7071 0.0000 0.7071
vn 0.7071 0.0000 -0.7071
vn 1.0000 0.0000 0.0000
vn 0.5774 0.5773 -0.5774
vn -0.9659 0.0000 -0.2588
vn -0.5000 0.0000 -0.8660
vn 0.2588 0.0000 -0.9659
vn -0.5577 0.8165 -0.1494
vn 0.1494 0.8165 -0.5577
vn 0.5577 0.8165 0.1494
vn -0.1494 0.8165 0.5577
vn 0.3873 0.8944 -0.2236
vn 0.2236 0.8944 0.3873
vn -0.3873 0.8944 0.2236
vn -0.2236 0.8944 -0.3873
vn -0.2588 0.0000 0.9659
vn 0.5000 0.0000 0.8660
vn 0.9659 0.0000 0.2588
vn 0.3536 0.7071 0.6124
vn 0.7887 0.5773 0.2113
vn -0.2113 0.5774 0.7887
vn -0.2113 0.5773 0.7887
vn 0.7887 0.5774 0.2113
vn 0.1494 0.8165 0.5577
vn -0.5577 0.8165 0.1494
vn -0.1494 0.8165 -0.5577
vn 0.5577 0.8165 -0.1494
vn -0.3873 0.8944 -0.2236
vn 0.2236 0.8944 -0.3873
vn 0.3873 0.8944 0.2236
vn -0.2236 0.8944 0.3873
vn 0.2113 0.5773 0.7887
vn -0.3536 0.7071 0.6124
vn -0.7887 0.5773 0.2113
vn -0.9659 0.0000 0.2588
vn 0.2588 0.0000 0.9659
vn -0.5000 0.0000 0.8660
vn -0.7887 0.5774 0.2113
vn 0.9659 0.0000 -0.2588
vn 0.5000 0.0000 -0.8660
vn -0.2588 0.0000 -0.9659
vn 0.3536 0.7071 -0.6124
vn -0.2113 0.5773 -0.7887
vn 0.7887 0.5774 -0.2113
vn 0.4082 0.8165 -0.4082
vn 0.4082 0.8165 0.4082
vn -0.4082 0.8165 0.4082
vn -0.4082 0.8165 -0.4082
vn -0.7071 0.0000 -0.7071
vn -1.0000 0.0000 0.0000
vn -0.7071 0.0000 0.7071
vn -0.7071 0.7071 0.0000
vn -0.5774 0.5773 0.5774
vn -0.5773 0.5774 -0.5773
vn -0.5774 0.5773 -0.5774
vn -0.3536 0.7071 -0.6124
vn -0.7887 0.5773 -0.2113
vn 0.2113 0.5773 -0.7887
vn 0.2113 0.5774 -0.7887
usemtl ELDRIN_ORRERY
s off
f 16/1/1 15/2/1 13/3/1 14/4/1
f 26/5/1 25/6/1 14/4/1 13/3/1
f 20/7/1 19/8/1 17/9/1 18/10/1
f 18/10/1 17/9/1 27/11/1 28/12/1
f 24/13/1 23/14/1 21/15/1 22/16/1
f 30/17/1 22/16/1 21/15/1 29/18/1
f 4/19/1 3/20/1 1/21/1 2/22/1
f 32/23/1 2/22/1 1/21/1 31/24/1
f 8/25/1 7/26/1 5/27/1 6/28/1
f 34/29/1 6/28/1 5/27/1 33/30/1
f 12/31/1 11/32/1 9/33/1 10/34/1
f 36/35/1 10/34/1 9/33/1 35/36/1
f 32/23/1 31/24/1 37/37/1
f 31/24/1 30/17/1 37/37/1
f 30/17/1 29/18/1 37/37/1
f 29/18/1 28/12/1 37/37/1
f 28/12/1 27/11/1 37/37/1
f 27/11/1 25/6/1 37/37/1
f 25/6/1 26/5/1 37/37/1
f 26/5/1 36/35/1 37/37/1
f 36/35/1 35/36/1 37/37/1
f 35/36/1 34/29/1 37/37/1
f 34/29/1 33/30/1 37/37/1
f 33/30/1 32/23/1 37/37/1
f 38/38/2 44/39/2 45/40/2 39/41/2
f 44/39/3 38/38/3 40/42/3 41/43/3
f 41/43/2 40/42/2 42/44/2 43/45/2
f 39/41/3 45/40/3 46/46/3 47/47/3
f 47/47/4 46/46/4 48/48/4 49/49/4
f 50/50/5 56/51/5 57/52/5 51/53/5
f 56/51/6 50/50/6 52/54/6 53/55/6
f 53/55/5 52/54/5 54/56/5 55/57/5
f 51/53/6 57/52/6 58/58/6 59/59/6
f 59/59/4 58/58/4 60/60/4 61/61/4
f 62/62/7 68/63/7 69/64/7 63/65/7
f 68/63/8 62/62/8 64/66/8 65/67/8
f 65/67/7 64/66/7 66/68/7 67/69/7
f 63/65/8 69/64/8 70/70/8 71/71/8
f 71/71/4 70/70/4 72/72/4 73/73/4
f 74/74/9 80/75/9 81/76/9 75/77/9
f 80/75/10 74/74/10 76/78/10 77/79/10
f 77/79/9 76/78/9 78/80/9 79/81/9
f 75/77/10 81/76/10 82/82/10 83/83/10
f 83/83/4 82/82/4 84/84/4 85/85/4
f 86/86/11 92/87/11 93/88/11 87/89/11
f 92/87/12 86/86/12 88/90/12 89/91/12
f 89/91/11 88/90/11 90/92/11 91/93/11
f 87/89/12 93/88/12 94/94/12 95/95/12
f 95/95/4 94/94/4 96/96/4 97/97/4
f 98/98/13 104/99/13 105/100/13 99/101/13
f 104/99/14 98/98/14 100/102/14 101/103/14
f 101/103/13 100/102/13 102/104/13 103/105/13
f 99/101/14 105/100/14 106/106/14 107/107/14
f 107/107/4 106/106/4 108/108/4 109/109/4
f 427/110/15 428/111/15 436/112/15 435/113/15
f 426/114/16 425/115/16 433/116/16 434/117/16
f 425/115/17 427/110/17 110/118/17 430/119/17
f 428/111/18 426/114/18 432/120/18 431/121/18
f 111/122/4 113/123/4 114/124/4 112/125/4
f 113/126/19 116/127/19 122/128/19 119/129/19
f 116/130/20 115/131/20 121/132/20 122/133/20
f 111/134/10 112/135/10 118/136/10 117/137/10
f 115/138/21 111/139/21 117/140/21 121/141/21
f 114/142/3 113/143/3 119/144/3 120/145/3
f 121/146/22 117/137/22 123/147/22 127/148/22
f 120/145/2 119/144/2 125/149/2 126/150/2
f 119/144/23 122/151/23 128/152/23 125/149/23
f 122/133/24 121/132/24 127/153/24 128/154/24
f 117/137/9 118/136/9 124/155/9 123/147/9
f 127/156/21 123/157/21 129/158/21 133/159/21
f 126/150/3 125/149/3 131/160/3 132/161/3
f 125/162/25 128/163/25 134/164/25 131/165/25
f 128/154/20 127/153/20 133/166/20 134/167/20
f 123/147/10 124/155/10 130/168/10 129/169/10
f 132/161/2 131/160/2 137/170/2 138/171/2
f 131/172/23 134/173/23 140/174/23 137/175/23
f 134/167/24 133/166/24 139/176/24 140/177/24
f 129/169/9 130/168/9 136/178/9 135/179/9
f 133/180/22 129/181/22 135/182/22 139/183/22
f 454/184/7 455/185/7 449/186/7 448/187/7
f 455/188/26 452/189/26 446/190/26 449/191/26
f 452/192/27 453/193/27 447/194/27 446/195/27
f 457/196/13 456/197/13 450/198/13 451/199/13
f 453/200/28 457/201/28 451/202/28 447/203/28
f 141/204/29 444/205/29 174/206/29
f 437/207/30 440/208/30 445/209/30
f 142/210/31 443/211/31 441/212/31
f 143/213/32 439/214/32 442/215/32
f 169/216/4 168/217/4 171/218/4 173/219/4
f 141/204/33 143/213/33 438/220/33
f 437/207/34 141/204/34 438/220/34
f 142/210/35 437/207/35 438/220/35
f 143/213/36 142/210/36 438/220/36
f 151/221/37 155/222/37 149/223/37 145/224/37
f 155/225/7 154/226/7 148/227/7 149/228/7
f 150/229/38 151/230/38 145/231/38 144/232/38
f 153/233/39 150/234/39 144/235/39 147/236/39
f 152/237/13 153/238/13 147/239/13 146/240/13
f 161/241/8 160/242/8 154/226/8 155/225/8
f 156/243/40 157/244/40 151/230/40 150/229/40
f 159/245/41 156/246/41 150/247/41 153/248/41
f 158/249/14 159/250/14 153/238/14 152/237/14
f 157/251/42 161/252/42 155/253/42 151/254/42
f 167/255/7 166/256/7 160/242/7 161/241/7
f 162/257/38 163/258/38 157/244/38 156/243/38
f 165/259/39 162/260/39 156/261/39 159/250/39
f 164/262/13 165/259/13 159/250/13 158/249/13
f 163/263/37 167/255/37 161/241/37 157/264/37
f 170/265/14 171/266/14 165/259/14 164/262/14
f 169/267/43 173/268/43 167/269/43 163/270/43
f 173/271/8 172/272/8 166/256/8 167/255/8
f 168/273/40 169/274/40 163/258/40 162/257/40
f 171/275/44 168/276/44 162/277/44 165/278/44
f 173/219/4 171/218/4 170/279/4 172/280/4
f 437/207/33 142/210/33 441/212/33 440/208/33
f 143/213/35 141/204/35 174/206/35 439/214/35
f 142/210/34 143/213/34 442/215/34 443/211/34
f 141/204/36 437/207/36 445/209/36 444/205/36
f 175/281/34 176/282/34 179/283/34
f 176/282/33 178/284/33 179/283/33
f 178/284/36 177/285/36 179/283/36
f 177/285/35 175/281/35 179/283/35
f 471/286/4 470/287/4 473/288/4 475/289/4
f 175/281/30 180/290/30 183/291/30
f 176/282/29 184/292/29 182/293/29
f 178/284/32 181/294/32 186/295/32
f 177/285/31 185/296/31 476/297/31
f 196/298/45 188/299/45 272/300/45
f 195/301/46 192/302/46 187/303/46
f 197/304/47 189/305/47 191/306/47
f 198/307/48 193/308/48 190/309/48
f 267/310/4 266/311/4 269/312/4 271/313/4
f 196/298/49 198/307/49 194/314/49
f 195/301/50 196/298/50 194/314/50
f 197/304/51 195/301/51 194/314/51
f 198/307/52 197/304/52 194/314/52
f 232/315/50 233/316/50 241/317/50 240/318/50
f 231/319/52 230/320/52 238/321/52 239/322/52
f 230/320/49 232/315/49 199/323/49 235/324/49
f 233/316/51 231/319/51 237/325/51 236/326/51
f 200/327/4 202/328/4 203/329/4 201/330/4
f 202/331/53 205/332/53 211/333/53 208/334/53
f 205/335/54 204/336/54 210/337/54 211/338/54
f 200/339/6 201/340/6 207/341/6 206/342/6
f 204/343/55 200/344/55 206/345/55 210/346/55
f 203/347/12 202/348/12 208/349/12 209/350/12
f 210/351/56 206/342/56 212/352/56 216/353/56
f 209/350/11 208/349/11 214/354/11 215/355/11
f 208/349/57 211/356/57 217/357/57 214/354/57
f 211/338/58 210/337/58 216/358/58 217/359/58
f 206/342/5 207/341/5 213/360/5 212/352/5
f 216/361/59 212/362/59 218/363/59 222/364/59
f 215/355/12 214/354/12 220/365/12 221/366/12
f 214/367/53 217/368/53 223/369/53 220/370/53
f 217/359/54 216/358/54 222/371/54 223/372/54
f 212/352/6 213/360/6 219/373/6 218/374/6
f 221/366/11 220/365/11 226/375/11 227/376/11
f 220/377/57 223/378/57 229/379/57 226/380/57
f 223/372/58 222/371/58 228/381/58 229/382/58
f 218/374/5 219/373/5 225/383/5 224/384/5
f 222/385/56 218/386/56 224/387/56 228/388/56
f 230/320/50 231/319/50 234/389/50
f 231/319/49 233/316/49 234/389/49
f 233/316/52 232/315/52 234/389/52
f 232/315/51 230/320/51 234/389/51
f 204/390/4 205/391/4 202/328/4 200/327/4
f 230/320/46 235/324/46 238/321/46
f 231/319/45 239/322/45 237/325/45
f 233/316/48 236/326/48 241/317/48
f 232/315/47 240/318/47 199/323/47
f 249/392/60 253/393/60 247/394/60 243/395/60
f 253/396/11 252/397/11 246/398/11 247/399/11
f 248/400/61 249/401/61 243/402/61 242/403/61
f 251/404/62 248/405/62 242/406/62 245/407/62
f 250/408/5 251/409/5 245/410/5 244/411/5
f 259/412/12 258/413/12 252/397/12 253/396/12
f 254/414/63 255/415/63 249/401/63 248/400/63
f 257/416/64 254/417/64 248/418/64 251/419/64
f 256/420/6 257/421/6 251/409/6 250/408/6
f 255/422/65 259/423/65 253/424/65 249/425/65
f 265/426/11 264/427/11 258/413/11 259/412/11
f 260/428/61 261/429/61 255/415/61 254/414/61
f 263/430/62 260/431/62 254/432/62 257/421/62
f 262/433/5 263/430/5 257/421/5 256/420/5
f 261/434/60 265/426/60 259/412/60 255/435/60
f 268/436/6 269/437/6 263/430/6 262/433/6
f 267/438/65 271/439/65 265/440/65 261/441/65
f 271/442/12 270/443/12 264/427/12 265/426/12
f 266/444/63 267/445/63 261/429/63 260/428/63
f 269/446/64 266/447/64 260/448/64 263/449/64
f 271/313/4 269/312/4 268/450/4 270/451/4
f 195/301/49 197/304/49 191/306/49 192/302/49
f 198/307/51 196/298/51 272/300/51 193/308/51
f 197/304/50 198/307/50 190/309/50 189/305/50
f 196/298/52 195/301/52 187/303/52 188/299/52
f 282/452/66 274/453/66 315/454/66
f 281/455/67 278/456/67 273/457/67
f 283/458/68 275/459/68 277/460/68
f 284/461/69 279/462/69 276/463/69
f 310/464/4 309/465/4 312/466/4 314/467/4
f 282/452/17 284/461/17 280/468/17
f 281/455/15 282/452/15 280/468/15
f 283/458/18 281/455/18 280/468/18
f 284/461/16 283/458/16 280/468/16
f 292/469/70 296/470/70 290/471/70 286/472/70
f 296/473/2 295/474/2 289/475/2 290/476/2
f 291/477/71 292/478/71 286/479/71 285/480/71
f 294/481/72 291/482/72 285/483/72 288/484/72
f 293/485/9 294/486/9 288/487/9 287/488/9
f 302/489/3 301/490/3 295/474/3 296/473/3
f 297/491/73 298/492/73 292/478/73 291/477/73
f 300/493/74 297/494/74 291/495/74 294/496/74
f 299/497/10 300/498/10 294/486/10 293/485/10
f 298/499/75 302/500/75 296/501/75 292/502/75
f 308/503/2 307/504/2 301/490/2 302/489/2
f 303/505/71 304/506/71 298/492/71 297/491/71
f 306/507/72 303/508/72 297/509/72 300/498/72
f 305/510/9 306/507/9 300/498/9 299/497/9
f 304/511/70 308/503/70 302/489/70 298/512/70
f 311/513/10 312/514/10 306/507/10 305/510/10
f 310/515/76 314/516/76 308/517/76 304/518/76
f 314/519/3 313/520/3 307/504/3 308/503/3
f 309/521/73 310/522/73 304/506/73 303/505/73
f 312/523/74 309/524/74 303/525/74 306/526/74
f 314/467/4 312/466/4 311/527/4 313/528/4
f 281/455/17 283/458/17 277/460/17 278/456/17
f 284/461/18 282/452/18 315/454/18 279/462/18
f 283/458/15 284/461/15 276/463/15 275/459/15
f 282/452/16 281/455/16 273/457/16 274/453/16
f 325/529/10 415/530/10 413/531/10 316/532/10
f 316/532/9 413/531/9 414/533/9 317/534/9
f 318/535/4 416/536/4 415/537/4 325/538/4
f 328/539/3 418/540/3 416/536/3 318/535/3
f 418/541/4 328/542/4 319/543/4 320/544/4
f 330/545/10 420/546/10 320/544/10 319/543/10
f 321/547/4 422/548/4 420/549/4 330/550/4
f 322/551/10 424/552/10 422/553/10 321/554/10
f 424/552/4 322/551/4 333/555/4
f 324/556/40 325/538/40 316/557/40 335/558/40
f 335/559/38 316/560/38 317/561/38 323/562/38
f 326/563/4 318/535/4 325/538/4 324/556/4
f 327/564/77 328/542/77 318/565/77 326/566/77
f 328/542/4 327/564/4 340/567/4 319/543/4
f 329/568/40 330/550/40 319/569/40 340/570/40
f 331/571/4 321/547/4 330/550/4 329/568/4
f 332/572/40 322/551/40 321/554/40 331/573/40
f 322/551/4 332/572/4 333/555/4
f 337/574/12 324/575/12 335/576/12 334/577/12
f 334/577/11 335/576/11 323/578/11 336/579/11
f 345/580/4 326/563/4 324/556/4 337/581/4
f 338/582/6 327/583/6 326/563/6 345/580/6
f 327/564/4 338/584/4 339/585/4 340/567/4
f 341/586/12 329/587/12 340/567/12 339/585/12
f 342/588/4 331/571/4 329/568/4 341/589/4
f 343/590/12 332/572/12 331/573/12 342/591/12
f 332/572/4 343/590/4 333/555/4
f 344/592/20 337/581/20 334/593/20 347/594/20
f 347/595/24 334/596/24 336/597/24 348/598/24
f 350/599/4 345/580/4 337/581/4 344/592/4
f 352/600/73 338/584/73 345/601/73 350/602/73
f 338/584/4 352/600/4 353/603/4 339/585/4
f 355/604/20 341/589/20 339/605/20 353/606/20
f 357/607/4 342/588/4 341/589/4 355/604/4
f 359/608/20 343/590/20 342/591/20 357/609/20
f 343/590/4 359/608/4 333/555/4
f 349/610/14 344/611/14 347/612/14 346/613/14
f 346/613/13 347/612/13 348/614/13 360/615/13
f 362/616/4 350/599/4 344/592/4 349/617/4
f 351/618/8 352/619/8 350/599/8 362/616/8
f 352/600/4 351/620/4 365/621/4 353/603/4
f 354/622/14 355/623/14 353/603/14 365/621/14
f 356/624/4 357/607/4 355/604/4 354/625/4
f 358/626/14 359/608/14 357/609/14 356/627/14
f 359/608/4 358/626/4 333/555/4
f 361/628/63 349/617/63 346/629/63 366/630/63
f 366/631/61 346/632/61 360/633/61 367/634/61
f 369/635/4 362/616/4 349/617/4 361/628/4
f 363/636/54 351/620/54 362/637/54 369/638/54
f 351/620/4 363/636/4 364/639/4 365/621/4
f 373/640/63 354/625/63 365/641/63 364/642/63
f 374/643/4 356/624/4 354/625/4 373/640/4
f 375/644/63 358/626/63 356/627/63 374/645/63
f 358/626/4 375/644/4 333/555/4
f 368/646/3 361/647/3 366/648/3 376/649/3
f 376/649/2 366/648/2 367/650/2 377/651/2
f 378/652/4 369/635/4 361/628/4 368/653/4
f 370/654/10 363/655/10 369/635/10 378/652/10
f 363/636/4 370/656/4 371/657/4 364/639/4
f 372/658/3 373/659/3 364/639/3 371/657/3
f 379/660/4 374/643/4 373/640/4 372/661/4
f 380/662/3 375/644/3 374/645/3 379/663/3
f 375/644/4 380/662/4 333/555/4
f 383/664/77 368/653/77 376/665/77 381/666/77
f 381/667/27 376/668/27 377/669/27 382/670/27
f 384/671/4 378/652/4 368/653/4 383/664/4
f 385/672/40 370/656/40 378/673/40 384/674/40
f 370/656/4 385/672/4 386/675/4 371/657/4
f 388/676/77 372/661/77 371/677/77 386/678/77
f 389/679/4 379/660/4 372/661/4 388/676/4
f 391/680/77 380/662/77 379/663/77 389/681/77
f 380/662/4 391/680/4 333/555/4
f 396/682/6 383/683/6 381/684/6 392/685/6
f 392/685/5 381/684/5 382/686/5 394/687/5
f 398/688/4 384/671/4 383/664/4 396/689/4
f 399/690/12 385/691/12 384/671/12 398/688/12
f 385/672/4 399/692/4 401/693/4 386/675/4
f 387/694/6 388/695/6 386/675/6 401/693/6
f 402/696/4 389/679/4 388/676/4 387/697/4
f 390/698/6 391/680/6 389/681/6 402/699/6
f 391/680/4 390/698/4 333/555/4
f 395/700/73 396/689/73 392/701/73 405/702/73
f 405/703/71 392/704/71 394/705/71 393/706/71
f 397/707/4 398/688/4 396/689/4 395/700/4
f 408/708/20 399/692/20 398/709/20 397/710/20
f 399/692/4 408/708/4 400/711/4 401/693/4
f 410/712/73 387/697/73 401/713/73 400/714/73
f 411/715/4 402/696/4 387/697/4 410/712/4
f 403/716/73 390/698/73 402/699/73 411/717/73
f 390/698/4 403/716/4 333/555/4
f 407/718/8 395/719/8 405/720/8 404/721/8
f 404/721/7 405/720/7 393/722/7 406/723/7
f 417/724/4 397/707/4 395/700/4 407/725/4
f 419/726/14 408/727/14 397/707/14 417/724/14
f 408/708/4 419/728/4 409/729/4 400/711/4
f 421/730/8 410/731/8 400/711/8 409/729/8
f 423/732/4 411/715/4 410/712/4 421/733/4
f 412/734/8 403/716/8 411/717/8 423/735/8
f 403/716/4 412/734/4 333/555/4
f 415/537/54 407/725/54 404/736/54 413/737/54
f 413/738/58 404/739/58 406/740/58 414/741/58
f 416/536/4 417/724/4 407/725/4 415/537/4
f 418/541/63 419/728/63 417/742/63 416/743/63
f 419/728/4 418/541/4 320/544/4 409/729/4
f 420/549/54 421/733/54 409/744/54 320/745/54
f 422/548/4 423/732/4 421/733/4 420/549/4
f 424/552/54 412/734/54 423/735/54 422/553/54
f 412/734/4 424/552/4 333/555/4
f 425/115/15 426/114/15 429/746/15
f 426/114/17 428/111/17 429/746/17
f 428/111/16 427/110/16 429/746/16
f 427/110/18 425/115/18 429/746/18
f 115/747/4 116/748/4 113/123/4 111/122/4
f 425/115/67 430/119/67 433/116/67
f 426/114/66 434/117/66 432/120/66
f 428/111/69 431/121/69 436/112/69
f 427/110/68 435/113/68 110/118/68
f 463/749/14 462/750/14 456/197/14 457/196/14
f 458/751/77 459/752/77 453/193/77 452/192/77
f 461/753/78 458/754/78 452/755/78 455/756/78
f 460/757/8 461/758/8 455/185/8 454/184/8
f 459/759/79 463/760/79 457/761/79 453/762/79
f 469/763/13 468/764/13 462/750/13 463/749/13
f 464/765/27 465/766/27 459/752/27 458/751/27
f 467/767/26 464/768/26 458/769/26 461/758/26
f 466/770/7 467/767/7 461/758/7 460/757/7
f 465/771/28 469/763/28 463/749/28 459/772/28
f 472/773/8 473/774/8 467/767/8 466/770/8
f 471/775/80 475/776/80 469/777/80 465/778/80
f 475/779/14 474/780/14 468/764/14 469/763/14
f 470/781/77 471/782/77 465/766/77 464/765/77
f 473/783/78 470/784/78 464/785/78 467/786/78
f 475/289/4 473/288/4 472/787/4 474/788/4
f 178/284/35 176/282/35 182/293/35 181/294/35
f 175/281/33 177/285/33 476/297/33 180/290/33
f 176/282/36 175/281/36 183/291/36 184/292/36
f 177/285/34 178/284/34 186/295/34 185/296/34
