# Blender v2.80 (sub 75) OBJ File: 'chem devices.blend'
# www.blender.org
mtllib eldrin_orrery_orb_planet.mtl
o ELDRIN_ORRERY_GLOBE_Cube.166
v -0.306186 -0.108254 0.000000
v -0.153093 0.108253 0.265165
v -0.153093 0.108253 -0.265165
v -0.000001 0.324760 0.000000
v 0.000001 -0.324760 0.000000
v 0.153093 -0.108253 0.265165
v 0.153093 -0.108253 -0.265165
v 0.306186 0.108254 0.000000
vt 0.375000 0.437500
vt 0.687500 0.437500
vt 0.687500 0.750000
vt 0.375000 0.750000
vt 0.687500 0.437500
vt 0.375000 0.750000
vt 0.375000 0.437500
vt 0.687500 0.437500
vt 0.375000 0.437500
vt 0.375000 0.750000
vt 0.687500 0.750000
vt 0.687500 0.437500
vt 0.375000 0.437500
vt 0.375000 0.750000
vt 0.375000 0.437500
vt 0.375000 0.750000
vt 0.687500 0.437500
vt 0.687500 0.437500
vt 0.375000 0.750000
vt 0.375000 0.437500
vn -0.8165 0.5773 0.0000
vn 0.4082 0.5774 -0.7071
vn 0.8165 -0.5773 0.0000
vn -0.4082 -0.5774 0.7071
vn -0.4082 -0.5774 -0.7071
vn 0.4082 0.5774 0.7071
usemtl ELDRIN_ORRERY
s off
f 1/1/1 2/2/1 4/3/1 3/4/1
f 3/5/2 4/3/2 8/6/2 7/7/2
f 7/8/3 8/9/3 6/10/3 5/11/3
f 5/11/4 6/12/4 2/13/4 1/14/4
f 3/15/5 7/16/5 5/11/5 1/17/5
f 8/18/6 4/3/6 2/19/6 6/20/6
