# Blender v2.80 (sub 75) OBJ File: 'urns.blend'
# www.blender.org
mtllib experience_exchanger_body.mtl
o Plane
v 0.437500 0.000000 0.562500
v 0.562500 0.000000 0.562500
v 0.437500 0.000000 0.437500
v 0.562500 0.000000 0.437500
v 0.500000 0.218750 0.500000
v 0.562500 0.187500 0.437500
v 0.437500 0.187500 0.437500
v 0.562500 0.187500 0.562500
v 0.437500 0.187500 0.562500
v 0.437500 0.000000 0.468750
v 0.437500 0.000000 0.531250
v 0.437500 0.125000 0.468750
v 0.437500 0.125000 0.531250
v 0.375500 0.000000 0.468750
v 0.375500 0.000000 0.531250
v 0.375500 0.093750 0.468750
v 0.375500 0.093750 0.531250
v 0.313000 0.000000 0.468750
v 0.313000 0.000000 0.531250
v 0.313000 0.062500 0.468750
v 0.313000 0.062500 0.531250
v 0.375500 -0.062500 0.468750
v 0.375500 -0.062500 0.531250
v 0.500000 -0.187500 0.500000
v 0.468750 -0.125000 0.531250
v 0.531250 -0.125000 0.531250
v 0.468750 -0.125000 0.468750
v 0.531250 -0.125000 0.468750
v 0.531250 0.000000 0.468750
v 0.468750 0.000000 0.468750
v 0.531250 0.000000 0.531250
v 0.468750 0.000000 0.531250
v 0.468750 0.000000 0.562500
v 0.531250 0.000000 0.562500
v 0.468750 0.125000 0.562500
v 0.531250 0.125000 0.562500
v 0.468750 0.000000 0.624500
v 0.531250 0.000000 0.624500
v 0.468750 0.093750 0.624500
v 0.531250 0.093750 0.624500
v 0.468750 0.000000 0.687000
v 0.531250 0.000000 0.687000
v 0.468750 0.062500 0.687000
v 0.531250 0.062500 0.687000
v 0.468750 -0.062500 0.624500
v 0.531250 -0.062500 0.624500
v 0.562500 0.000000 0.531250
v 0.562500 0.000000 0.468750
v 0.562500 0.125000 0.531250
v 0.562500 0.125000 0.468750
v 0.624500 0.000000 0.531250
v 0.624500 0.000000 0.468750
v 0.624500 0.093750 0.531250
v 0.624500 0.093750 0.468750
v 0.687000 0.000000 0.531250
v 0.687000 0.000000 0.468750
v 0.687000 0.062500 0.531250
v 0.687000 0.062500 0.468750
v 0.624500 -0.062500 0.531250
v 0.624500 -0.062500 0.468750
v 0.531250 0.000000 0.437500
v 0.468750 0.000000 0.437500
v 0.531250 0.125000 0.437500
v 0.468750 0.125000 0.437500
v 0.531250 0.000000 0.375500
v 0.468750 0.000000 0.375500
v 0.531250 0.093750 0.375500
v 0.468750 0.093750 0.375500
v 0.531250 0.000000 0.313000
v 0.468750 0.000000 0.313000
v 0.531250 0.062500 0.313000
v 0.468750 0.062500 0.313000
v 0.531250 -0.062500 0.375500
v 0.468750 -0.062500 0.375500
vt 0.000000 0.562500
vt 0.000000 0.687500
vt 0.125000 0.687500
vt 0.125000 0.562500
vt 0.000000 0.687500
vt 0.125000 0.687500
vt 0.125000 0.875000
vt 0.000000 0.875000
vt 0.125000 0.687500
vt 0.125000 0.875000
vt 0.000000 0.875000
vt 0.000000 0.687500
vt 0.125000 0.875000
vt 0.000000 0.875000
vt 0.000000 0.687500
vt 0.125000 0.687500
vt 0.125000 0.875000
vt 0.000000 0.875000
vt 0.062500 0.937500
vt 0.000100 0.999900
vt 0.125000 1.000000
vt 0.062500 0.375000
vt 0.062500 0.468750
vt 0.000000 0.437500
vt 0.000000 0.375000
vt 0.000000 0.562500
vt 0.000000 0.500000
vt 0.062500 0.500000
vt 0.062500 0.562500
vt 0.125000 0.375000
vt 0.125000 0.500000
vt 0.000000 0.250000
vt 0.000000 0.187500
vt 0.062500 0.187500
vt 0.062500 0.250000
vt 0.125000 0.500000
vt 0.125000 0.375000
vt 0.062500 0.375000
vt 0.062500 0.468750
vt 0.000000 0.250000
vt 0.062500 0.250000
vt 0.062500 0.312500
vt 0.000000 0.312500
vt 0.125000 0.312500
vt 0.062500 0.312500
vt 0.062500 0.250000
vt 0.125000 0.250000
vt 0.000000 0.375000
vt 0.000000 0.437500
vt 0.125000 0.500000
vt 0.125000 0.562500
vt 0.062500 0.312500
vt 0.125000 0.250000
vt 0.062500 0.250000
vt 0.062500 0.187500
vt 0.125000 0.187500
vt 0.062500 0.312500
vt 0.125000 0.062500
vt 0.062500 0.062500
vt 0.062500 0.000000
vt 0.125000 0.062500
vt 0.062500 0.062500
vt 0.000000 0.062500
vt 0.000000 0.000000
vt 0.062500 0.187500
vt 0.000000 0.187500
vt 0.000000 0.062500
vt 0.062500 0.187500
vt 0.000000 0.187500
vt 0.125000 0.187500
vt 0.125000 0.187500
vt 0.062500 0.375000
vt 0.062500 0.468750
vt 0.000000 0.437500
vt 0.000000 0.375000
vt 0.000000 0.562500
vt 0.000000 0.500000
vt 0.062500 0.500000
vt 0.062500 0.562500
vt 0.125000 0.375000
vt 0.125000 0.500000
vt 0.000000 0.250000
vt 0.000000 0.187500
vt 0.062500 0.187500
vt 0.062500 0.250000
vt 0.125000 0.500000
vt 0.125000 0.375000
vt 0.062500 0.375000
vt 0.062500 0.468750
vt 0.000000 0.250000
vt 0.062500 0.250000
vt 0.062500 0.312500
vt 0.000000 0.312500
vt 0.125000 0.312500
vt 0.062500 0.312500
vt 0.062500 0.250000
vt 0.125000 0.250000
vt 0.000000 0.375000
vt 0.000000 0.437500
vt 0.125000 0.500000
vt 0.125000 0.562500
vt 0.062500 0.312500
vt 0.125000 0.250000
vt 0.062500 0.250000
vt 0.062500 0.187500
vt 0.125000 0.187500
vt 0.062500 0.312500
vt 0.062500 0.375000
vt 0.062500 0.468750
vt 0.000000 0.437500
vt 0.000000 0.375000
vt 0.000000 0.562500
vt 0.000000 0.500000
vt 0.062500 0.500000
vt 0.062500 0.562500
vt 0.125000 0.375000
vt 0.125000 0.500000
vt 0.000000 0.250000
vt 0.000000 0.187500
vt 0.062500 0.187500
vt 0.062500 0.250000
vt 0.125000 0.500000
vt 0.125000 0.375000
vt 0.062500 0.375000
vt 0.062500 0.468750
vt 0.000000 0.250000
vt 0.062500 0.250000
vt 0.062500 0.312500
vt 0.000000 0.312500
vt 0.125000 0.312500
vt 0.062500 0.312500
vt 0.062500 0.250000
vt 0.125000 0.250000
vt 0.000000 0.375000
vt 0.000000 0.437500
vt 0.125000 0.500000
vt 0.125000 0.562500
vt 0.062500 0.312500
vt 0.125000 0.250000
vt 0.062500 0.250000
vt 0.062500 0.187500
vt 0.125000 0.187500
vt 0.062500 0.312500
vt 0.062500 0.375000
vt 0.062500 0.468750
vt 0.000000 0.437500
vt 0.000000 0.375000
vt 0.000000 0.562500
vt 0.000000 0.500000
vt 0.062500 0.500000
vt 0.062500 0.562500
vt 0.125000 0.375000
vt 0.125000 0.500000
vt 0.000000 0.250000
vt 0.000000 0.187500
vt 0.062500 0.187500
vt 0.062500 0.250000
vt 0.125000 0.500000
vt 0.125000 0.375000
vt 0.062500 0.375000
vt 0.062500 0.468750
vt 0.000000 0.250000
vt 0.062500 0.250000
vt 0.062500 0.312500
vt 0.000000 0.312500
vt 0.125000 0.312500
vt 0.062500 0.312500
vt 0.062500 0.250000
vt 0.125000 0.250000
vt 0.000000 0.375000
vt 0.000000 0.437500
vt 0.125000 0.500000
vt 0.125000 0.562500
vt 0.062500 0.312500
vt 0.125000 0.250000
vt 0.062500 0.250000
vt 0.062500 0.187500
vt 0.125000 0.187500
vt 0.062500 0.312500
vn 0.0000 -1.0000 0.0000
vn 0.0000 0.0000 -1.0000
vn 0.0000 0.0000 1.0000
vn 1.0000 0.0000 0.0000
vn -1.0000 0.0000 0.0000
vn 0.0000 0.8944 -0.4472
vn 0.4472 0.8944 0.0000
vn 0.0000 0.8944 0.4472
vn -0.4472 0.8944 0.0000
vn -0.4501 0.8930 0.0000
vn -0.7071 -0.7071 0.0000
vn -0.8944 -0.4472 0.0000
vn 0.8944 -0.4472 0.0000
vn 0.0000 -0.4472 0.8944
vn 0.0000 -0.4472 -0.8944
vn 0.0000 0.8930 0.4501
vn 0.0000 -0.7071 0.7071
vn 0.4501 0.8930 -0.0000
vn 0.7071 -0.7071 -0.0000
vn 0.0000 0.8930 -0.4501
vn -0.0000 -0.7071 -0.7071
usemtl EXPERIENCE_EXCHANGER
s off
f 1/1/1 3/2/1 4/3/1 2/4/1
f 4/5/2 3/6/2 7/7/2 6/8/2
f 2/9/3 8/10/3 9/11/3 1/12/3
f 4/3/4 6/13/4 8/14/4 2/15/4
f 1/16/5 9/17/5 7/18/5 3/2/5
f 5/19/6 6/8/6 7/7/6
f 5/19/7 8/20/7 6/8/7
f 5/19/8 9/21/8 8/20/8
f 5/19/9 7/7/9 9/21/9
f 15/22/3 17/23/3 21/24/3 19/25/3
f 13/26/10 12/27/10 16/28/10 17/29/10
f 11/30/3 13/31/3 17/23/3 15/22/3
f 10/32/1 11/33/1 15/34/1 14/35/1
f 12/36/2 10/37/2 14/38/2 16/39/2
f 18/40/5 19/41/5 21/42/5 20/43/5
f 19/44/11 18/45/11 22/46/11 23/47/11
f 16/39/2 14/38/2 18/48/2 20/49/2
f 17/29/9 16/28/9 20/50/9 21/51/9
f 15/22/3 19/25/3 23/52/3
f 14/53/4 15/54/4 23/55/4 22/56/4
f 18/48/2 14/38/2 22/57/2
f 25/58/12 27/59/12 24/60/12
f 28/61/13 26/62/13 24/60/13
f 26/62/14 25/63/14 24/64/14
f 30/65/2 29/66/2 28/67/2 27/59/2
f 31/68/3 32/69/3 25/63/3 26/62/3
f 29/70/4 31/68/4 26/62/4 28/61/4
f 32/71/5 30/65/5 27/59/5 25/58/5
f 27/59/15 28/67/15 24/64/15
f 38/72/4 40/73/4 44/74/4 42/75/4
f 36/76/16 35/77/16 39/78/16 40/79/16
f 34/80/4 36/81/4 40/73/4 38/72/4
f 33/82/1 34/83/1 38/84/1 37/85/1
f 35/86/5 33/87/5 37/88/5 39/89/5
f 41/90/3 42/91/3 44/92/3 43/93/3
f 42/94/17 41/95/17 45/96/17 46/97/17
f 39/89/5 37/88/5 41/98/5 43/99/5
f 40/79/8 39/78/8 43/100/8 44/101/8
f 38/72/4 42/75/4 46/102/4
f 37/103/2 38/104/2 46/105/2 45/106/2
f 41/98/5 37/88/5 45/107/5
f 52/108/2 54/109/2 58/110/2 56/111/2
f 50/112/18 49/113/18 53/114/18 54/115/18
f 48/116/2 50/117/2 54/109/2 52/108/2
f 47/118/1 48/119/1 52/120/1 51/121/1
f 49/122/3 47/123/3 51/124/3 53/125/3
f 55/126/4 56/127/4 58/128/4 57/129/4
f 56/130/19 55/131/19 59/132/19 60/133/19
f 53/125/3 51/124/3 55/134/3 57/135/3
f 54/115/7 53/114/7 57/136/7 58/137/7
f 52/108/2 56/111/2 60/138/2
f 51/139/5 52/140/5 60/141/5 59/142/5
f 55/134/3 51/124/3 59/143/3
f 66/144/5 68/145/5 72/146/5 70/147/5
f 64/148/20 63/149/20 67/150/20 68/151/20
f 62/152/5 64/153/5 68/145/5 66/144/5
f 61/154/1 62/155/1 66/156/1 65/157/1
f 63/158/4 61/159/4 65/160/4 67/161/4
f 69/162/2 70/163/2 72/164/2 71/165/2
f 70/166/21 69/167/21 73/168/21 74/169/21
f 67/161/4 65/160/4 69/170/4 71/171/4
f 68/151/6 67/150/6 71/172/6 72/173/6
f 66/144/5 70/147/5 74/174/5
f 65/175/3 66/176/3 74/177/3 73/178/3
f 69/170/4 65/160/4 73/179/4
