# Blender v2.80 (sub 75) OBJ File: 'puzzle_box.blend'
# www.blender.org
mtllib fractalline_puzzle_box.mtl
o FRACTALLINE_PUZZLE_BOX_Cube
v 0.250000 0.250000 0.750000
v 0.250000 0.750000 0.750000
v 0.250000 0.250000 0.250000
v 0.250000 0.750000 0.250000
v 0.750000 0.250000 0.750000
v 0.750000 0.750000 0.750000
v 0.750000 0.250000 0.250000
v 0.750000 0.750000 0.250000
v 0.718750 0.656250 0.718750
v 0.781250 0.656250 0.718750
v 0.593750 0.718750 0.718750
v 0.718750 0.656250 0.781250
v 0.718750 0.718750 0.593750
v 0.781250 0.593750 0.718750
v 0.718750 0.593750 0.718750
v 0.781250 0.593750 0.781250
v 0.718750 0.593750 0.781250
v 0.781250 0.718750 0.593750
v 0.656250 0.718750 0.718750
v 0.718750 0.593750 0.718750
v 0.718750 0.656250 0.718750
v 0.781250 0.781250 0.781250
v 0.656250 0.781250 0.781250
v 0.593750 0.718750 0.718750
v 0.593750 0.781250 0.718750
v 0.593750 0.781250 0.781250
v 0.593750 0.718750 0.781250
v 0.718750 0.781250 0.593750
v 0.781250 0.781250 0.593750
v 0.718750 0.593750 0.718750
v 0.718750 0.718750 0.593750
v 0.718750 0.718750 0.656250
v 0.718750 0.718750 0.656250
v 0.656250 0.718750 0.718750
v 0.593750 0.718750 0.718750
v 0.718750 0.718750 0.593750
v 0.781250 0.656250 0.781250
v 0.781250 0.781250 0.656250
v 0.781250 0.718750 0.656250
v 0.718750 0.781250 0.656250
v 0.656250 0.781250 0.718750
v 0.656250 0.718750 0.781250
v 0.588388 0.781250 0.536612
v 0.650888 0.750000 0.437500
v 0.650888 0.781250 0.437500
v 0.588388 0.781250 0.463388
v 0.562500 0.781250 0.349112
v 0.536612 0.781250 0.411612
v 0.562500 0.750000 0.349112
v 0.437500 0.750000 0.349112
v 0.437500 0.781250 0.349112
v 0.463388 0.781250 0.411612
v 0.349112 0.750000 0.437500
v 0.349112 0.781250 0.437500
v 0.411612 0.781250 0.463388
v 0.536612 0.750000 0.588388
v 0.463388 0.750000 0.588388
v 0.411612 0.750000 0.536612
v 0.411612 0.750000 0.463388
v 0.411612 0.781250 0.536612
v 0.349112 0.750000 0.562500
v 0.349112 0.781250 0.562500
v 0.463388 0.750000 0.411612
v 0.437500 0.781250 0.650888
v 0.463388 0.781250 0.588388
v 0.437500 0.750000 0.650888
v 0.536612 0.750000 0.411612
v 0.588388 0.750000 0.463388
v 0.588388 0.750000 0.536612
v 0.536612 0.781250 0.588388
v 0.562500 0.750000 0.650888
v 0.562500 0.781250 0.650888
v 0.650888 0.750000 0.562500
v 0.650888 0.781250 0.562500
v 0.218750 0.343750 0.656250
v 0.218750 0.406250 0.656250
v 0.218750 0.343750 0.593750
v 0.218750 0.406250 0.593750
v 0.250000 0.343750 0.656250
v 0.250000 0.406250 0.656250
v 0.250000 0.343750 0.593750
v 0.250000 0.406250 0.593750
v 0.218750 0.406250 0.343750
v 0.218750 0.343750 0.343750
v 0.250000 0.343750 0.343750
v 0.250000 0.406250 0.343750
v 0.218750 0.656250 0.656250
v 0.218750 0.656250 0.593750
v 0.250000 0.656250 0.593750
v 0.250000 0.656250 0.656250
v 0.218750 0.593750 0.406250
v 0.218750 0.656250 0.406250
v 0.218750 0.593750 0.343750
v 0.218750 0.656250 0.343750
v 0.250000 0.593750 0.406250
v 0.250000 0.656250 0.406250
v 0.250000 0.593750 0.343750
v 0.250000 0.656250 0.343750
v 0.218750 0.468750 0.531250
v 0.218750 0.531250 0.531250
v 0.218750 0.468750 0.468750
v 0.218750 0.531250 0.468750
v 0.250000 0.468750 0.531250
v 0.250000 0.531250 0.531250
v 0.250000 0.468750 0.468750
v 0.250000 0.531250 0.468750
v 0.218750 0.531250 0.343750
v 0.218750 0.468750 0.343750
v 0.250000 0.468750 0.343750
v 0.250000 0.531250 0.343750
v 0.218750 0.656250 0.531250
v 0.218750 0.656250 0.468750
v 0.250000 0.656250 0.468750
v 0.250000 0.656250 0.531250
v 0.656250 0.468750 0.781250
v 0.656250 0.531250 0.781250
v 0.468750 0.468750 0.781250
v 0.468750 0.531250 0.781250
v 0.656250 0.468750 0.750000
v 0.656250 0.531250 0.750000
v 0.468750 0.468750 0.750000
v 0.468750 0.531250 0.750000
v 0.406250 0.343750 0.781250
v 0.406250 0.656250 0.781250
v 0.343750 0.343750 0.781250
v 0.343750 0.656250 0.781250
v 0.406250 0.343750 0.750000
v 0.406250 0.656250 0.750000
v 0.343750 0.343750 0.750000
v 0.343750 0.656250 0.750000
v 0.656250 0.593750 0.781250
v 0.656250 0.656250 0.781250
v 0.468750 0.593750 0.781250
v 0.468750 0.656250 0.781250
v 0.656250 0.593750 0.750000
v 0.656250 0.656250 0.750000
v 0.468750 0.593750 0.750000
v 0.468750 0.656250 0.750000
v 0.656250 0.343750 0.781250
v 0.656250 0.406250 0.781250
v 0.468750 0.343750 0.781250
v 0.468750 0.406250 0.781250
v 0.656250 0.343750 0.750000
v 0.656250 0.406250 0.750000
v 0.468750 0.343750 0.750000
v 0.468750 0.406250 0.750000
v 0.781250 0.343750 0.593750
v 0.781250 0.343750 0.656250
v 0.750000 0.343750 0.593750
v 0.750000 0.343750 0.656250
v 0.781250 0.593750 0.593750
v 0.781250 0.593750 0.656250
v 0.750000 0.593750 0.656250
v 0.750000 0.593750 0.593750
v 0.781250 0.656250 0.593750
v 0.781250 0.656250 0.656250
v 0.750000 0.656250 0.656250
v 0.750000 0.656250 0.593750
v 0.781250 0.406250 0.468750
v 0.781250 0.406250 0.531250
v 0.781250 0.343750 0.468750
v 0.781250 0.343750 0.531250
v 0.750000 0.406250 0.468750
v 0.750000 0.406250 0.531250
v 0.750000 0.343750 0.468750
v 0.750000 0.343750 0.531250
v 0.781250 0.593750 0.468750
v 0.781250 0.593750 0.531250
v 0.750000 0.593750 0.531250
v 0.750000 0.593750 0.468750
v 0.781250 0.656250 0.468750
v 0.781250 0.656250 0.531250
v 0.750000 0.656250 0.531250
v 0.750000 0.656250 0.468750
v 0.781250 0.406250 0.343750
v 0.781250 0.406250 0.406250
v 0.781250 0.343750 0.343750
v 0.781250 0.343750 0.406250
v 0.750000 0.406250 0.343750
v 0.750000 0.406250 0.406250
v 0.750000 0.343750 0.343750
v 0.750000 0.343750 0.406250
v 0.781250 0.656250 0.343750
v 0.781250 0.656250 0.406250
v 0.750000 0.656250 0.406250
v 0.750000 0.656250 0.343750
v 0.468750 0.468750 0.218750
v 0.468750 0.531250 0.218750
v 0.531250 0.468750 0.218750
v 0.531250 0.531250 0.218750
v 0.468750 0.468750 0.250000
v 0.468750 0.531250 0.250000
v 0.531250 0.468750 0.250000
v 0.531250 0.531250 0.250000
v 0.593750 0.593750 0.218750
v 0.593750 0.656250 0.218750
v 0.656250 0.593750 0.218750
v 0.656250 0.656250 0.218750
v 0.593750 0.593750 0.250000
v 0.593750 0.656250 0.250000
v 0.656250 0.593750 0.250000
v 0.656250 0.656250 0.250000
v 0.656250 0.343750 0.218750
v 0.593750 0.343750 0.218750
v 0.656250 0.343750 0.250000
v 0.593750 0.343750 0.250000
v 0.343750 0.593750 0.218750
v 0.343750 0.656250 0.218750
v 0.343750 0.656250 0.250000
v 0.343750 0.593750 0.250000
v 0.343750 0.468750 0.218750
v 0.343750 0.531250 0.218750
v 0.406250 0.468750 0.218750
v 0.406250 0.531250 0.218750
v 0.343750 0.468750 0.250000
v 0.343750 0.531250 0.250000
v 0.406250 0.468750 0.250000
v 0.406250 0.531250 0.250000
v 0.468750 0.343750 0.218750
v 0.468750 0.406250 0.218750
v 0.531250 0.343750 0.218750
v 0.531250 0.406250 0.218750
v 0.468750 0.343750 0.250000
v 0.468750 0.406250 0.250000
v 0.531250 0.343750 0.250000
v 0.531250 0.406250 0.250000
v 0.343750 0.343750 0.218750
v 0.343750 0.406250 0.218750
v 0.406250 0.343750 0.218750
v 0.406250 0.406250 0.218750
v 0.343750 0.343750 0.250000
v 0.343750 0.406250 0.250000
v 0.406250 0.343750 0.250000
v 0.406250 0.406250 0.250000
v 0.349112 0.218750 0.562500
v 0.349112 0.250000 0.562500
v 0.437500 0.218750 0.650888
v 0.437500 0.250000 0.650888
v 0.463388 0.218750 0.588388
v 0.411612 0.250000 0.536612
v 0.411612 0.250000 0.463388
v 0.463388 0.250000 0.411612
v 0.562500 0.250000 0.650888
v 0.536612 0.218750 0.588388
v 0.562500 0.218750 0.650888
v 0.536612 0.250000 0.411612
v 0.650888 0.218750 0.562500
v 0.650888 0.250000 0.562500
v 0.588388 0.218750 0.536612
v 0.588388 0.250000 0.463388
v 0.588388 0.250000 0.536612
v 0.536612 0.250000 0.588388
v 0.463388 0.250000 0.588388
v 0.588388 0.218750 0.463388
v 0.650888 0.218750 0.437500
v 0.650888 0.250000 0.437500
v 0.536612 0.218750 0.411612
v 0.562500 0.218750 0.349112
v 0.562500 0.250000 0.349112
v 0.437500 0.250000 0.349112
v 0.463388 0.218750 0.411612
v 0.437500 0.218750 0.349112
v 0.411612 0.218750 0.463388
v 0.349112 0.218750 0.437500
v 0.349112 0.250000 0.437500
v 0.411612 0.218750 0.536612
v 0.281250 0.656250 0.281250
v 0.218750 0.656250 0.281250
v 0.406250 0.718750 0.281250
v 0.281250 0.656250 0.218750
v 0.281250 0.718750 0.406250
v 0.218750 0.593750 0.281250
v 0.281250 0.593750 0.281250
v 0.218750 0.593750 0.218750
v 0.281250 0.593750 0.218750
v 0.218750 0.718750 0.406250
v 0.343750 0.718750 0.281250
v 0.281250 0.593750 0.281250
v 0.281250 0.656250 0.281250
v 0.218750 0.781250 0.218750
v 0.343750 0.781250 0.218750
v 0.406250 0.718750 0.281250
v 0.406250 0.781250 0.281250
v 0.406250 0.781250 0.218750
v 0.406250 0.718750 0.218750
v 0.281250 0.781250 0.406250
v 0.218750 0.781250 0.406250
v 0.281250 0.593750 0.281250
v 0.281250 0.718750 0.406250
v 0.281250 0.718750 0.343750
v 0.281250 0.718750 0.343750
v 0.343750 0.718750 0.281250
v 0.406250 0.718750 0.281250
v 0.281250 0.718750 0.406250
v 0.218750 0.656250 0.218750
v 0.218750 0.781250 0.343750
v 0.218750 0.718750 0.343750
v 0.281250 0.781250 0.343750
v 0.343750 0.781250 0.281250
v 0.343750 0.718750 0.218750
v 0.718750 0.656250 0.281250
v 0.718750 0.656250 0.218750
v 0.718750 0.718750 0.406250
v 0.781250 0.656250 0.281250
v 0.593750 0.718750 0.281250
v 0.718750 0.593750 0.218750
v 0.718750 0.593750 0.281250
v 0.781250 0.593750 0.218750
v 0.781250 0.593750 0.281250
v 0.593750 0.718750 0.218750
v 0.718750 0.718750 0.343750
v 0.718750 0.593750 0.281250
v 0.718750 0.656250 0.281250
v 0.781250 0.781250 0.218750
v 0.781250 0.781250 0.343750
v 0.718750 0.718750 0.406250
v 0.718750 0.781250 0.406250
v 0.781250 0.781250 0.406250
v 0.781250 0.718750 0.406250
v 0.593750 0.781250 0.281250
v 0.593750 0.781250 0.218750
v 0.718750 0.593750 0.281250
v 0.593750 0.718750 0.281250
v 0.656250 0.718750 0.281250
v 0.656250 0.718750 0.281250
v 0.718750 0.718750 0.343750
v 0.718750 0.718750 0.406250
v 0.593750 0.718750 0.281250
v 0.781250 0.656250 0.218750
v 0.656250 0.781250 0.218750
v 0.656250 0.718750 0.218750
v 0.656250 0.781250 0.281250
v 0.718750 0.781250 0.343750
v 0.781250 0.718750 0.343750
v 0.281250 0.656250 0.718750
v 0.281250 0.656250 0.781250
v 0.281250 0.718750 0.593750
v 0.218750 0.656250 0.718750
v 0.406250 0.718750 0.718750
v 0.281250 0.593750 0.781250
v 0.281250 0.593750 0.718750
v 0.218750 0.593750 0.781250
v 0.218750 0.593750 0.718750
v 0.406250 0.718750 0.781250
v 0.281250 0.718750 0.656250
v 0.281250 0.593750 0.718750
v 0.281250 0.656250 0.718750
v 0.218750 0.781250 0.781250
v 0.218750 0.781250 0.656250
v 0.281250 0.718750 0.593750
v 0.281250 0.781250 0.593750
v 0.218750 0.781250 0.593750
v 0.218750 0.718750 0.593750
v 0.406250 0.781250 0.718750
v 0.406250 0.781250 0.781250
v 0.281250 0.593750 0.718750
v 0.406250 0.718750 0.718750
v 0.343750 0.718750 0.718750
v 0.343750 0.718750 0.718750
v 0.281250 0.718750 0.656250
v 0.281250 0.718750 0.593750
v 0.406250 0.718750 0.718750
v 0.218750 0.656250 0.781250
v 0.343750 0.781250 0.781250
v 0.343750 0.718750 0.781250
v 0.343750 0.781250 0.718750
v 0.281250 0.781250 0.656250
v 0.218750 0.718750 0.656250
v 0.718750 0.343750 0.281250
v 0.781250 0.343750 0.281250
v 0.593750 0.281250 0.281250
v 0.718750 0.343750 0.218750
v 0.718750 0.281250 0.406250
v 0.781250 0.406250 0.281250
v 0.718750 0.406250 0.281250
v 0.781250 0.406250 0.218750
v 0.718750 0.406250 0.218750
v 0.781250 0.281250 0.406250
v 0.656250 0.281250 0.281250
v 0.718750 0.406250 0.281250
v 0.718750 0.343750 0.281250
v 0.781250 0.218750 0.218750
v 0.656250 0.218750 0.218750
v 0.593750 0.281250 0.281250
v 0.593750 0.218750 0.281250
v 0.593750 0.218750 0.218750
v 0.593750 0.281250 0.218750
v 0.718750 0.218750 0.406250
v 0.781250 0.218750 0.406250
v 0.718750 0.406250 0.281250
v 0.718750 0.281250 0.406250
v 0.718750 0.281250 0.343750
v 0.718750 0.281250 0.343750
v 0.656250 0.281250 0.281250
v 0.593750 0.281250 0.281250
v 0.718750 0.281250 0.406250
v 0.781250 0.343750 0.218750
v 0.781250 0.218750 0.343750
v 0.781250 0.281250 0.343750
v 0.718750 0.218750 0.343750
v 0.656250 0.218750 0.281250
v 0.656250 0.281250 0.218750
v 0.281250 0.343750 0.718750
v 0.218750 0.343750 0.718750
v 0.406250 0.281250 0.718750
v 0.281250 0.343750 0.781250
v 0.281250 0.281250 0.593750
v 0.218750 0.406250 0.718750
v 0.281250 0.406250 0.718750
v 0.218750 0.406250 0.781250
v 0.281250 0.406250 0.781250
v 0.218750 0.281250 0.593750
v 0.343750 0.281250 0.718750
v 0.281250 0.406250 0.718750
v 0.281250 0.343750 0.718750
v 0.218750 0.218750 0.781250
v 0.343750 0.218750 0.781250
v 0.406250 0.281250 0.718750
v 0.406250 0.218750 0.718750
v 0.406250 0.218750 0.781250
v 0.406250 0.281250 0.781250
v 0.281250 0.218750 0.593750
v 0.218750 0.218750 0.593750
v 0.281250 0.406250 0.718750
v 0.281250 0.281250 0.593750
v 0.281250 0.281250 0.656250
v 0.281250 0.281250 0.656250
v 0.343750 0.281250 0.718750
v 0.406250 0.281250 0.718750
v 0.281250 0.281250 0.593750
v 0.218750 0.343750 0.781250
v 0.218750 0.218750 0.656250
v 0.218750 0.281250 0.656250
v 0.281250 0.218750 0.656250
v 0.343750 0.218750 0.718750
v 0.343750 0.281250 0.781250
v 0.718750 0.343750 0.718750
v 0.718750 0.343750 0.781250
v 0.718750 0.281250 0.593750
v 0.781250 0.343750 0.718750
v 0.593750 0.281250 0.718750
v 0.718750 0.406250 0.781250
v 0.718750 0.406250 0.718750
v 0.781250 0.406250 0.781250
v 0.781250 0.406250 0.718750
v 0.593750 0.281250 0.781250
v 0.718750 0.281250 0.656250
v 0.718750 0.406250 0.718750
v 0.718750 0.343750 0.718750
v 0.781250 0.218750 0.781250
v 0.781250 0.218750 0.656250
v 0.718750 0.281250 0.593750
v 0.718750 0.218750 0.593750
v 0.781250 0.218750 0.593750
v 0.781250 0.281250 0.593750
v 0.593750 0.218750 0.718750
v 0.593750 0.218750 0.781250
v 0.718750 0.406250 0.718750
v 0.593750 0.281250 0.718750
v 0.656250 0.281250 0.718750
v 0.656250 0.281250 0.718750
v 0.718750 0.281250 0.656250
v 0.718750 0.281250 0.593750
v 0.593750 0.281250 0.718750
v 0.781250 0.343750 0.781250
v 0.656250 0.218750 0.781250
v 0.656250 0.281250 0.781250
v 0.656250 0.218750 0.718750
v 0.718750 0.218750 0.656250
v 0.781250 0.281250 0.656250
v 0.281250 0.343750 0.281250
v 0.281250 0.343750 0.218750
v 0.281250 0.281250 0.406250
v 0.218750 0.343750 0.281250
v 0.406250 0.281250 0.281250
v 0.281250 0.406250 0.218750
v 0.281250 0.406250 0.281250
v 0.218750 0.406250 0.218750
v 0.218750 0.406250 0.281250
v 0.406250 0.281250 0.218750
v 0.281250 0.281250 0.343750
v 0.281250 0.406250 0.281250
v 0.281250 0.343750 0.281250
v 0.218750 0.218750 0.218750
v 0.218750 0.218750 0.343750
v 0.281250 0.281250 0.406250
v 0.281250 0.218750 0.406250
v 0.218750 0.218750 0.406250
v 0.218750 0.281250 0.406250
v 0.406250 0.218750 0.281250
v 0.406250 0.218750 0.218750
v 0.281250 0.406250 0.281250
v 0.406250 0.281250 0.281250
v 0.343750 0.281250 0.281250
v 0.343750 0.281250 0.281250
v 0.281250 0.281250 0.343750
v 0.281250 0.281250 0.406250
v 0.406250 0.281250 0.281250
v 0.218750 0.343750 0.218750
v 0.343750 0.218750 0.218750
v 0.343750 0.281250 0.218750
v 0.343750 0.218750 0.281250
v 0.281250 0.218750 0.343750
v 0.218750 0.281250 0.343750
vt 0.500000 0.500000
vt 0.500000 1.000000
vt -0.000000 1.000000
vt 0.000000 0.500000
vt 0.500000 0.500000
vt 0.500000 1.000000
vt -0.000000 1.000000
vt 0.000000 0.500000
vt 0.500000 0.500000
vt 0.500000 1.000000
vt -0.000000 1.000000
vt 0.000000 0.500000
vt 0.500000 0.500000
vt 0.500000 1.000000
vt -0.000000 1.000000
vt 0.000000 0.500000
vt 0.500000 1.000000
vt 0.000000 1.000000
vt 0.000000 0.500000
vt 0.500000 0.500000
vt 0.562500 0.875000
vt 0.500000 0.875000
vt 0.500000 0.812500
vt 0.562500 0.812500
vt 0.500000 0.750000
vt 0.562500 0.750000
vt 0.562500 0.812500
vt 0.500000 0.812500
vt 0.500000 0.875000
vt 0.500000 0.812500
vt 0.562500 0.875000
vt 0.562500 0.875000
vt 0.500000 0.812500
vt 0.562500 0.812500
vt 0.500000 0.812500
vt 0.562500 0.812500
vt 0.562500 0.875000
vt 0.500000 0.750000
vt 0.562500 0.750000
vt 0.562500 0.812500
vt 0.500000 0.812500
vt 0.500000 1.000000
vt 0.562500 0.875000
vt 0.625000 0.937500
vt 0.500000 0.875000
vt 0.500000 0.812500
vt 0.562500 0.812500
vt 0.562500 0.875000
vt 0.500000 0.750000
vt 0.562500 0.750000
vt 0.500000 0.812500
vt 0.500000 0.812500
vt 0.562500 0.812500
vt 0.625000 0.937500
vt 0.625000 1.000000
vt 0.625000 0.812500
vt 0.625000 0.875000
vt 0.562500 0.875000
vt 0.562500 0.812500
vt 0.625000 0.750000
vt 0.562500 0.750000
vt 0.625000 0.812500
vt 0.625000 0.875000
vt 0.562500 0.875000
vt 0.562500 0.812500
vt 0.625000 0.750000
vt 0.625000 0.812500
vt 0.562500 0.812500
vt 0.562500 0.750000
vt 0.625000 0.812500
vt 0.625000 0.875000
vt 0.562500 0.875000
vt 0.562500 0.812500
vt 0.625000 0.875000
vt 0.562500 0.875000
vt 0.625000 0.812500
vt 0.625000 0.875000
vt 0.562500 0.875000
vt 0.562500 0.812500
vt 0.625000 0.750000
vt 0.625000 0.812500
vt 0.562500 0.812500
vt 0.562500 0.750000
vt 0.625000 0.875000
vt 0.562500 0.875000
vt 0.625000 1.000000
vt 0.625000 0.937500
vt 0.625000 1.000000
vt 0.775957 0.875000
vt 0.849043 0.875000
vt 0.849043 0.812500
vt 0.775957 0.812500
vt 0.875000 1.000000
vt 0.875000 0.937500
vt 1.000000 0.937500
vt 1.000000 1.000000
vt 0.900957 0.875000
vt 0.974043 0.875000
vt 0.775957 0.875000
vt 0.849043 0.875000
vt 0.849043 0.812500
vt 0.775957 0.812500
vt 0.750000 1.000000
vt 0.750000 0.937500
vt 0.775957 0.875000
vt 0.849043 0.875000
vt 0.724043 0.875000
vt 0.650957 0.875000
vt 0.650957 0.812500
vt 0.724043 0.812500
vt 0.625000 1.000000
vt 0.625000 0.937500
vt 0.900957 0.812500
vt 0.974043 0.812500
vt 0.875000 1.000000
vt 0.875000 0.937500
vt 0.750000 0.937500
vt 0.750000 1.000000
vt 0.974043 0.875000
vt 0.900957 0.875000
vt 0.900957 0.812500
vt 0.974043 0.812500
vt 0.875000 1.000000
vt 0.875000 0.937500
vt 1.000000 0.937500
vt 1.000000 1.000000
vt 0.775957 0.812500
vt 0.849043 0.812500
vt 0.750000 1.000000
vt 0.750000 0.937500
vt 0.775957 0.875000
vt 0.849043 0.875000
vt 0.724043 0.875000
vt 0.650957 0.875000
vt 0.650957 0.812500
vt 0.724043 0.812500
vt 0.625000 1.000000
vt 0.625000 0.937500
vt 0.775957 0.812500
vt 0.849043 0.812500
vt 0.875000 1.000000
vt 0.875000 0.937500
vt 0.750000 0.937500
vt 0.750000 1.000000
vt 0.312500 0.000000
vt 0.312500 0.062500
vt 0.250000 0.062500
vt 0.250000 0.000000
vt 0.562500 0.000000
vt 0.562500 0.062500
vt 0.312500 0.062500
vt 0.312500 0.000000
vt 0.625000 0.000000
vt 0.625000 0.062500
vt 0.562500 0.062500
vt 0.562500 0.000000
vt 0.562500 0.062500
vt 0.562500 0.000000
vt 0.625000 0.062500
vt 0.625000 0.062500
vt 0.625000 0.312500
vt 0.562500 0.312500
vt 0.375000 0.000000
vt 0.375000 0.062500
vt 0.312500 0.000000
vt 0.000000 0.062500
vt 0.000000 0.000000
vt 0.312500 0.062500
vt 0.562500 0.250000
vt 0.625000 0.250000
vt 0.625000 0.312500
vt 0.312500 0.312500
vt 0.250000 0.312500
vt 0.562500 0.312500
vt 0.062500 0.250000
vt 0.062500 0.312500
vt 0.000000 0.312500
vt 0.000000 0.250000
vt 0.375000 0.250000
vt 0.375000 0.312500
vt 0.312500 0.312500
vt 0.312500 0.250000
vt 0.375000 0.250000
vt 0.375000 0.312500
vt 0.312500 0.312500
vt 0.312500 0.250000
vt 0.312500 0.312500
vt 0.375000 0.312500
vt 0.312500 0.250000
vt 0.375000 0.250000
vt 0.187500 0.125000
vt 0.187500 0.187500
vt 0.125000 0.187500
vt 0.125000 0.125000
vt 0.437500 0.125000
vt 0.437500 0.187500
vt 0.312500 0.187500
vt 0.312500 0.125000
vt 0.500000 0.125000
vt 0.500000 0.187500
vt 0.437500 0.187500
vt 0.437500 0.125000
vt 0.437500 0.187500
vt 0.437500 0.125000
vt 0.500000 0.187500
vt 0.500000 0.187500
vt 0.500000 0.312500
vt 0.437500 0.312500
vt 0.375000 0.125000
vt 0.375000 0.187500
vt 0.312500 0.125000
vt 0.000000 0.187500
vt 0.000000 0.125000
vt 0.312500 0.187500
vt 0.437500 0.250000
vt 0.500000 0.250000
vt 0.500000 0.312500
vt 0.187500 0.312500
vt 0.125000 0.312500
vt 0.437500 0.312500
vt 0.312500 0.125000
vt 0.312500 0.187500
vt 0.125000 0.187500
vt 0.125000 0.125000
vt 0.500000 0.125000
vt 0.500000 0.187500
vt 0.437500 0.187500
vt 0.437500 0.125000
vt 0.625000 0.125000
vt 0.625000 0.187500
vt 0.562500 0.187500
vt 0.562500 0.125000
vt 0.437500 0.187500
vt 0.625000 0.187500
vt 0.437500 0.125000
vt 0.625000 0.125000
vt 0.062500 0.000000
vt 0.062500 0.312500
vt 0.000000 0.312500
vt 0.000000 0.000000
vt 0.375000 -0.000000
vt 0.375000 0.312500
vt 0.312500 0.312500
vt 0.312500 -0.000000
vt 0.312500 -0.000000
vt 0.312500 0.312500
vt 0.375000 0.312500
vt 0.375000 -0.000000
vt 0.312500 0.062500
vt 0.375000 0.000000
vt 0.375000 0.062500
vt 0.312500 0.250000
vt 0.375000 0.250000
vt 0.375000 0.312500
vt 0.312500 0.250000
vt 0.312500 0.312500
vt 0.125000 0.312500
vt 0.125000 0.250000
vt 0.500000 0.250000
vt 0.500000 0.312500
vt 0.437500 0.312500
vt 0.437500 0.250000
vt 0.625000 0.250000
vt 0.625000 0.312500
vt 0.562500 0.312500
vt 0.562500 0.250000
vt 0.437500 0.250000
vt 0.437500 0.312500
vt 0.625000 0.312500
vt 0.625000 0.250000
vt 0.437500 0.250000
vt 0.625000 0.250000
vt 0.312500 0.000000
vt 0.312500 0.062500
vt 0.125000 0.062500
vt 0.125000 0.000000
vt 0.500000 -0.000000
vt 0.500000 0.062500
vt 0.437500 0.062500
vt 0.437500 -0.000000
vt 0.625000 -0.000000
vt 0.625000 0.062500
vt 0.562500 0.062500
vt 0.562500 -0.000000
vt 0.437500 0.062500
vt 0.625000 0.062500
vt 0.437500 0.000000
vt 0.625000 0.000000
vt 0.375000 0.062500
vt 0.312500 0.062500
vt 0.312500 0.000000
vt 0.375000 0.000000
vt 0.375000 0.250000
vt 0.312500 0.250000
vt 0.312500 0.000000
vt 0.312500 0.062500
vt 0.312500 0.312500
vt 0.250000 0.312500
vt 0.250000 0.062500
vt 0.375000 0.000000
vt 0.375000 0.250000
vt 0.312500 0.250000
vt 0.375000 0.312500
vt 0.312500 0.312500
vt 0.375000 0.312500
vt 0.312500 0.250000
vt 0.375000 0.250000
vt 0.000000 0.250000
vt 0.062500 0.250000
vt 0.062500 0.312500
vt 0.000000 0.312500
vt 0.187500 0.062500
vt 0.125000 0.062500
vt 0.125000 0.000000
vt 0.187500 0.000000
vt 0.500000 0.062500
vt 0.437500 0.062500
vt 0.437500 0.000000
vt 0.500000 0.000000
vt 0.437500 0.062500
vt 0.500000 0.062500
vt 0.500000 0.250000
vt 0.437500 0.250000
vt 0.500000 -0.000000
vt 0.187500 0.250000
vt 0.125000 0.250000
vt 0.500000 0.062500
vt 0.437500 0.062500
vt 0.437500 0.250000
vt 0.500000 0.250000
vt 0.500000 0.312500
vt 0.437500 0.312500
vt 0.437500 0.250000
vt 0.500000 0.250000
vt 0.437500 0.312500
vt 0.500000 0.312500
vt 0.187500 0.312500
vt 0.125000 0.312500
vt 0.250000 0.000000
vt 0.312500 0.000000
vt 0.625000 0.062500
vt 0.562500 0.062500
vt 0.562500 0.000000
vt 0.625000 0.000000
vt 0.625000 -0.000000
vt 0.562500 -0.000000
vt 0.562500 0.062500
vt 0.625000 0.062500
vt 0.562500 0.312500
vt 0.625000 0.312500
vt 0.625000 0.062500
vt 0.625000 0.312500
vt 0.562500 0.312500
vt 0.562500 0.062500
vt 0.625000 0.312500
vt 0.562500 0.250000
vt 0.625000 0.250000
vt 0.437500 0.312500
vt 0.375000 0.312500
vt 0.437500 0.000000
vt 0.500000 0.000000
vt 0.500000 0.062500
vt 0.062500 0.000000
vt 0.000000 0.000000
vt 0.187500 0.125000
vt 0.187500 0.187500
vt 0.125000 0.187500
vt 0.125000 0.125000
vt 0.500000 0.125000
vt 0.500000 0.187500
vt 0.437500 0.187500
vt 0.437500 0.125000
vt 0.500000 0.125000
vt 0.500000 0.187500
vt 0.437500 0.187500
vt 0.437500 0.125000
vt 0.437500 0.187500
vt 0.500000 0.187500
vt 0.437500 0.125000
vt 0.500000 0.125000
vt 0.062500 0.250000
vt 0.062500 0.312500
vt 0.000000 0.312500
vt 0.000000 0.250000
vt 0.375000 0.250000
vt 0.375000 0.312500
vt 0.312500 0.312500
vt 0.312500 0.250000
vt 0.375000 0.312500
vt 0.375000 0.250000
vt 0.625000 0.250000
vt 0.625000 0.312500
vt 0.312500 0.000000
vt 0.375000 0.000000
vt 0.312500 0.250000
vt 0.312500 0.062500
vt 0.375000 -0.000000
vt 0.375000 0.062500
vt 0.000000 0.000000
vt 0.062500 0.000000
vt 0.375000 0.250000
vt 0.312500 0.250000
vt 0.312500 0.000000
vt 0.625000 0.250000
vt 0.562500 0.312500
vt 0.562500 0.250000
vt 0.312500 0.250000
vt 0.312500 0.312500
vt 0.375000 0.312500
vt 0.625000 0.312500
vt 0.312500 0.125000
vt 0.312500 0.187500
vt 0.250000 0.187500
vt 0.250000 0.125000
vt 0.625000 0.125000
vt 0.625000 0.187500
vt 0.562500 0.187500
vt 0.562500 0.125000
vt 0.625000 0.125000
vt 0.625000 0.187500
vt 0.562500 0.187500
vt 0.562500 0.125000
vt 0.562500 0.187500
vt 0.625000 0.187500
vt 0.562500 0.125000
vt 0.625000 0.125000
vt 0.187500 0.000000
vt 0.187500 0.062500
vt 0.125000 0.062500
vt 0.125000 0.000000
vt 0.500000 0.000000
vt 0.500000 0.062500
vt 0.437500 0.062500
vt 0.437500 0.000000
vt 0.500000 0.000000
vt 0.500000 0.062500
vt 0.437500 0.062500
vt 0.437500 0.000000
vt 0.437500 0.062500
vt 0.500000 0.062500
vt 0.437500 -0.000000
vt 0.500000 -0.000000
vt 0.312500 0.000000
vt 0.312500 0.062500
vt 0.250000 0.062500
vt 0.250000 0.000000
vt 0.625000 0.000000
vt 0.625000 0.062500
vt 0.562500 0.062500
vt 0.562500 0.000000
vt 0.625000 0.000000
vt 0.625000 0.062500
vt 0.562500 0.062500
vt 0.562500 0.000000
vt 0.562500 0.062500
vt 0.625000 0.062500
vt 0.562500 -0.000000
vt 0.625000 -0.000000
vt 0.775957 0.875000
vt 0.849043 0.875000
vt 0.875000 0.937500
vt 0.750000 0.937500
vt 0.750000 1.000000
vt 0.875000 1.000000
vt 0.849043 0.875000
vt 0.775957 0.875000
vt 0.775957 0.812500
vt 0.849043 0.812500
vt 0.650957 0.875000
vt 0.724043 0.875000
vt 0.750000 0.937500
vt 0.625000 0.937500
vt 0.625000 1.000000
vt 0.750000 1.000000
vt 0.650957 0.812500
vt 0.724043 0.812500
vt 0.875000 0.937500
vt 0.875000 1.000000
vt 0.849043 0.875000
vt 0.775957 0.875000
vt 0.775957 0.812500
vt 0.849043 0.812500
vt 0.900957 0.875000
vt 0.974043 0.875000
vt 1.000000 0.937500
vt 1.000000 1.000000
vt 0.900957 0.812500
vt 0.974043 0.812500
vt 0.775957 0.875000
vt 0.849043 0.875000
vt 0.875000 0.937500
vt 0.750000 0.937500
vt 0.750000 1.000000
vt 0.875000 1.000000
vt 0.974043 0.875000
vt 0.900957 0.875000
vt 0.900957 0.812500
vt 0.974043 0.812500
vt 0.650957 0.875000
vt 0.724043 0.875000
vt 0.750000 0.937500
vt 0.625000 0.937500
vt 0.625000 1.000000
vt 0.750000 1.000000
vt 0.650957 0.812500
vt 0.724043 0.812500
vt 0.875000 0.937500
vt 0.875000 1.000000
vt 0.775957 0.812500
vt 0.849043 0.812500
vt 1.000000 0.937500
vt 1.000000 1.000000
vt 0.775957 0.812500
vt 0.849043 0.812500
vt 0.562500 0.875000
vt 0.500000 0.875000
vt 0.500000 0.812500
vt 0.562500 0.812500
vt 0.500000 0.750000
vt 0.562500 0.750000
vt 0.562500 0.812500
vt 0.500000 0.812500
vt 0.500000 0.875000
vt 0.500000 0.812500
vt 0.562500 0.875000
vt 0.562500 0.875000
vt 0.500000 0.812500
vt 0.562500 0.812500
vt 0.500000 0.812500
vt 0.562500 0.812500
vt 0.562500 0.875000
vt 0.500000 0.750000
vt 0.562500 0.750000
vt 0.562500 0.812500
vt 0.500000 0.812500
vt 0.500000 1.000000
vt 0.562500 0.875000
vt 0.625000 0.937500
vt 0.500000 0.875000
vt 0.500000 0.812500
vt 0.562500 0.812500
vt 0.562500 0.875000
vt 0.500000 0.750000
vt 0.562500 0.750000
vt 0.500000 0.812500
vt 0.500000 0.812500
vt 0.562500 0.812500
vt 0.625000 0.937500
vt 0.625000 1.000000
vt 0.625000 0.812500
vt 0.625000 0.875000
vt 0.562500 0.875000
vt 0.562500 0.812500
vt 0.625000 0.750000
vt 0.562500 0.750000
vt 0.625000 0.812500
vt 0.625000 0.875000
vt 0.562500 0.875000
vt 0.562500 0.812500
vt 0.625000 0.750000
vt 0.625000 0.812500
vt 0.562500 0.812500
vt 0.562500 0.750000
vt 0.625000 0.812500
vt 0.625000 0.875000
vt 0.562500 0.875000
vt 0.562500 0.812500
vt 0.625000 0.875000
vt 0.562500 0.875000
vt 0.625000 0.812500
vt 0.625000 0.875000
vt 0.562500 0.875000
vt 0.562500 0.812500
vt 0.625000 0.750000
vt 0.625000 0.812500
vt 0.562500 0.812500
vt 0.562500 0.750000
vt 0.625000 0.875000
vt 0.562500 0.875000
vt 0.625000 1.000000
vt 0.625000 0.937500
vt 0.625000 1.000000
vt 0.562500 0.875000
vt 0.500000 0.875000
vt 0.500000 0.812500
vt 0.562500 0.812500
vt 0.500000 0.750000
vt 0.562500 0.750000
vt 0.562500 0.812500
vt 0.500000 0.812500
vt 0.500000 0.875000
vt 0.500000 0.812500
vt 0.562500 0.875000
vt 0.562500 0.875000
vt 0.500000 0.812500
vt 0.562500 0.812500
vt 0.500000 0.812500
vt 0.562500 0.812500
vt 0.562500 0.875000
vt 0.500000 0.750000
vt 0.562500 0.750000
vt 0.562500 0.812500
vt 0.500000 0.812500
vt 0.500000 1.000000
vt 0.562500 0.875000
vt 0.625000 0.937500
vt 0.500000 0.875000
vt 0.500000 0.812500
vt 0.562500 0.812500
vt 0.562500 0.875000
vt 0.500000 0.750000
vt 0.562500 0.750000
vt 0.500000 0.812500
vt 0.500000 0.812500
vt 0.562500 0.812500
vt 0.625000 0.937500
vt 0.625000 1.000000
vt 0.625000 0.812500
vt 0.625000 0.875000
vt 0.562500 0.875000
vt 0.562500 0.812500
vt 0.625000 0.750000
vt 0.562500 0.750000
vt 0.625000 0.812500
vt 0.625000 0.875000
vt 0.562500 0.875000
vt 0.562500 0.812500
vt 0.625000 0.750000
vt 0.625000 0.812500
vt 0.562500 0.812500
vt 0.562500 0.750000
vt 0.625000 0.812500
vt 0.625000 0.875000
vt 0.562500 0.875000
vt 0.562500 0.812500
vt 0.625000 0.875000
vt 0.562500 0.875000
vt 0.625000 0.812500
vt 0.625000 0.875000
vt 0.562500 0.875000
vt 0.562500 0.812500
vt 0.625000 0.750000
vt 0.625000 0.812500
vt 0.562500 0.812500
vt 0.562500 0.750000
vt 0.625000 0.875000
vt 0.562500 0.875000
vt 0.625000 1.000000
vt 0.625000 0.937500
vt 0.625000 1.000000
vt 0.562500 0.875000
vt 0.500000 0.875000
vt 0.500000 0.812500
vt 0.562500 0.812500
vt 0.500000 0.750000
vt 0.562500 0.750000
vt 0.562500 0.812500
vt 0.500000 0.812500
vt 0.500000 0.875000
vt 0.500000 0.812500
vt 0.562500 0.875000
vt 0.562500 0.875000
vt 0.500000 0.812500
vt 0.562500 0.812500
vt 0.500000 0.812500
vt 0.562500 0.812500
vt 0.562500 0.875000
vt 0.500000 0.750000
vt 0.562500 0.750000
vt 0.562500 0.812500
vt 0.500000 0.812500
vt 0.500000 1.000000
vt 0.562500 0.875000
vt 0.625000 0.937500
vt 0.500000 0.875000
vt 0.500000 0.812500
vt 0.562500 0.812500
vt 0.562500 0.875000
vt 0.500000 0.750000
vt 0.562500 0.750000
vt 0.500000 0.812500
vt 0.500000 0.812500
vt 0.562500 0.812500
vt 0.625000 0.937500
vt 0.625000 1.000000
vt 0.625000 0.812500
vt 0.625000 0.875000
vt 0.562500 0.875000
vt 0.562500 0.812500
vt 0.625000 0.750000
vt 0.562500 0.750000
vt 0.625000 0.812500
vt 0.625000 0.875000
vt 0.562500 0.875000
vt 0.562500 0.812500
vt 0.625000 0.750000
vt 0.625000 0.812500
vt 0.562500 0.812500
vt 0.562500 0.750000
vt 0.625000 0.812500
vt 0.625000 0.875000
vt 0.562500 0.875000
vt 0.562500 0.812500
vt 0.625000 0.875000
vt 0.562500 0.875000
vt 0.625000 0.812500
vt 0.625000 0.875000
vt 0.562500 0.875000
vt 0.562500 0.812500
vt 0.625000 0.750000
vt 0.625000 0.812500
vt 0.562500 0.812500
vt 0.562500 0.750000
vt 0.625000 0.875000
vt 0.562500 0.875000
vt 0.625000 1.000000
vt 0.625000 0.937500
vt 0.625000 1.000000
vt 0.562500 0.875000
vt 0.500000 0.875000
vt 0.500000 0.812500
vt 0.562500 0.812500
vt 0.500000 0.750000
vt 0.562500 0.750000
vt 0.562500 0.812500
vt 0.500000 0.812500
vt 0.500000 0.875000
vt 0.500000 0.812500
vt 0.562500 0.875000
vt 0.562500 0.875000
vt 0.500000 0.812500
vt 0.562500 0.812500
vt 0.500000 0.812500
vt 0.562500 0.812500
vt 0.562500 0.875000
vt 0.500000 0.750000
vt 0.562500 0.750000
vt 0.562500 0.812500
vt 0.500000 0.812500
vt 0.500000 1.000000
vt 0.562500 0.875000
vt 0.625000 0.937500
vt 0.500000 0.875000
vt 0.500000 0.812500
vt 0.562500 0.812500
vt 0.562500 0.875000
vt 0.500000 0.750000
vt 0.562500 0.750000
vt 0.500000 0.812500
vt 0.500000 0.812500
vt 0.562500 0.812500
vt 0.625000 0.937500
vt 0.625000 1.000000
vt 0.625000 0.812500
vt 0.625000 0.875000
vt 0.562500 0.875000
vt 0.562500 0.812500
vt 0.625000 0.750000
vt 0.562500 0.750000
vt 0.625000 0.812500
vt 0.625000 0.875000
vt 0.562500 0.875000
vt 0.562500 0.812500
vt 0.625000 0.750000
vt 0.625000 0.812500
vt 0.562500 0.812500
vt 0.562500 0.750000
vt 0.625000 0.812500
vt 0.625000 0.875000
vt 0.562500 0.875000
vt 0.562500 0.812500
vt 0.625000 0.875000
vt 0.562500 0.875000
vt 0.625000 0.812500
vt 0.625000 0.875000
vt 0.562500 0.875000
vt 0.562500 0.812500
vt 0.625000 0.750000
vt 0.625000 0.812500
vt 0.562500 0.812500
vt 0.562500 0.750000
vt 0.625000 0.875000
vt 0.562500 0.875000
vt 0.625000 1.000000
vt 0.625000 0.937500
vt 0.625000 1.000000
vt 0.562500 0.875000
vt 0.500000 0.875000
vt 0.500000 0.812500
vt 0.562500 0.812500
vt 0.500000 0.750000
vt 0.562500 0.750000
vt 0.562500 0.812500
vt 0.500000 0.812500
vt 0.500000 0.875000
vt 0.500000 0.812500
vt 0.562500 0.875000
vt 0.562500 0.875000
vt 0.500000 0.812500
vt 0.562500 0.812500
vt 0.500000 0.812500
vt 0.562500 0.812500
vt 0.562500 0.875000
vt 0.500000 0.750000
vt 0.562500 0.750000
vt 0.562500 0.812500
vt 0.500000 0.812500
vt 0.500000 1.000000
vt 0.562500 0.875000
vt 0.625000 0.937500
vt 0.500000 0.875000
vt 0.500000 0.812500
vt 0.562500 0.812500
vt 0.562500 0.875000
vt 0.500000 0.750000
vt 0.562500 0.750000
vt 0.500000 0.812500
vt 0.500000 0.812500
vt 0.562500 0.812500
vt 0.625000 0.937500
vt 0.625000 1.000000
vt 0.625000 0.812500
vt 0.625000 0.875000
vt 0.562500 0.875000
vt 0.562500 0.812500
vt 0.625000 0.750000
vt 0.562500 0.750000
vt 0.625000 0.812500
vt 0.625000 0.875000
vt 0.562500 0.875000
vt 0.562500 0.812500
vt 0.625000 0.750000
vt 0.625000 0.812500
vt 0.562500 0.812500
vt 0.562500 0.750000
vt 0.625000 0.812500
vt 0.625000 0.875000
vt 0.562500 0.875000
vt 0.562500 0.812500
vt 0.625000 0.875000
vt 0.562500 0.875000
vt 0.625000 0.812500
vt 0.625000 0.875000
vt 0.562500 0.875000
vt 0.562500 0.812500
vt 0.625000 0.750000
vt 0.625000 0.812500
vt 0.562500 0.812500
vt 0.562500 0.750000
vt 0.625000 0.875000
vt 0.562500 0.875000
vt 0.625000 1.000000
vt 0.625000 0.937500
vt 0.625000 1.000000
vt 0.562500 0.875000
vt 0.500000 0.875000
vt 0.500000 0.812500
vt 0.562500 0.812500
vt 0.500000 0.750000
vt 0.562500 0.750000
vt 0.562500 0.812500
vt 0.500000 0.812500
vt 0.500000 0.875000
vt 0.500000 0.812500
vt 0.562500 0.875000
vt 0.562500 0.875000
vt 0.500000 0.812500
vt 0.562500 0.812500
vt 0.500000 0.812500
vt 0.562500 0.812500
vt 0.562500 0.875000
vt 0.500000 0.750000
vt 0.562500 0.750000
vt 0.562500 0.812500
vt 0.500000 0.812500
vt 0.500000 1.000000
vt 0.562500 0.875000
vt 0.625000 0.937500
vt 0.500000 0.875000
vt 0.500000 0.812500
vt 0.562500 0.812500
vt 0.562500 0.875000
vt 0.500000 0.750000
vt 0.562500 0.750000
vt 0.500000 0.812500
vt 0.500000 0.812500
vt 0.562500 0.812500
vt 0.625000 0.937500
vt 0.625000 1.000000
vt 0.625000 0.812500
vt 0.625000 0.875000
vt 0.562500 0.875000
vt 0.562500 0.812500
vt 0.625000 0.750000
vt 0.562500 0.750000
vt 0.625000 0.812500
vt 0.625000 0.875000
vt 0.562500 0.875000
vt 0.562500 0.812500
vt 0.625000 0.750000
vt 0.625000 0.812500
vt 0.562500 0.812500
vt 0.562500 0.750000
vt 0.625000 0.812500
vt 0.625000 0.875000
vt 0.562500 0.875000
vt 0.562500 0.812500
vt 0.625000 0.875000
vt 0.562500 0.875000
vt 0.625000 0.812500
vt 0.625000 0.875000
vt 0.562500 0.875000
vt 0.562500 0.812500
vt 0.625000 0.750000
vt 0.625000 0.812500
vt 0.562500 0.812500
vt 0.562500 0.750000
vt 0.625000 0.875000
vt 0.562500 0.875000
vt 0.625000 1.000000
vt 0.625000 0.937500
vt 0.625000 1.000000
vt 0.562500 0.875000
vt 0.500000 0.875000
vt 0.500000 0.812500
vt 0.562500 0.812500
vt 0.500000 0.750000
vt 0.562500 0.750000
vt 0.562500 0.812500
vt 0.500000 0.812500
vt 0.500000 0.875000
vt 0.500000 0.812500
vt 0.562500 0.875000
vt 0.562500 0.875000
vt 0.500000 0.812500
vt 0.562500 0.812500
vt 0.500000 0.812500
vt 0.562500 0.812500
vt 0.562500 0.875000
vt 0.500000 0.750000
vt 0.562500 0.750000
vt 0.562500 0.812500
vt 0.500000 0.812500
vt 0.500000 1.000000
vt 0.562500 0.875000
vt 0.625000 0.937500
vt 0.500000 0.875000
vt 0.500000 0.812500
vt 0.562500 0.812500
vt 0.562500 0.875000
vt 0.500000 0.750000
vt 0.562500 0.750000
vt 0.500000 0.812500
vt 0.500000 0.812500
vt 0.562500 0.812500
vt 0.625000 0.937500
vt 0.625000 1.000000
vt 0.625000 0.812500
vt 0.625000 0.875000
vt 0.562500 0.875000
vt 0.562500 0.812500
vt 0.625000 0.750000
vt 0.562500 0.750000
vt 0.625000 0.812500
vt 0.625000 0.875000
vt 0.562500 0.875000
vt 0.562500 0.812500
vt 0.625000 0.750000
vt 0.625000 0.812500
vt 0.562500 0.812500
vt 0.562500 0.750000
vt 0.625000 0.812500
vt 0.625000 0.875000
vt 0.562500 0.875000
vt 0.562500 0.812500
vt 0.625000 0.875000
vt 0.562500 0.875000
vt 0.625000 0.812500
vt 0.625000 0.875000
vt 0.562500 0.875000
vt 0.562500 0.812500
vt 0.625000 0.750000
vt 0.625000 0.812500
vt 0.562500 0.812500
vt 0.562500 0.750000
vt 0.625000 0.875000
vt 0.562500 0.875000
vt 0.625000 1.000000
vt 0.625000 0.937500
vt 0.625000 1.000000
vn -1.0000 0.0000 0.0000
vn 0.0000 0.0000 -1.0000
vn 1.0000 0.0000 0.0000
vn 0.0000 0.0000 1.0000
vn 0.0000 -1.0000 0.0000
vn 0.0000 1.0000 0.0000
vn -0.7071 -0.7071 0.0000
vn -0.0000 -0.7071 -0.7071
vn -0.7071 0.0000 -0.7071
vn 0.7071 0.0000 0.7071
vn 0.7071 0.0000 -0.7071
vn -0.7071 0.0000 0.7071
vn 0.7071 -0.7071 -0.0000
vn 0.0000 -0.7071 0.7071
vn -0.7071 0.7071 -0.0000
vn 0.0000 0.7071 0.7071
vn 0.7071 0.7071 0.0000
vn 0.0000 0.7071 -0.7071
usemtl PUZZLE_BOX
s off
f 1/1/1 2/2/1 4/3/1 3/4/1
f 3/5/2 4/6/2 8/7/2 7/8/2
f 7/9/3 8/10/3 6/11/3 5/12/3
f 5/13/4 6/14/4 2/15/4 1/16/4
f 3/17/5 7/18/5 5/12/5 1/1/5
f 8/10/6 4/3/6 2/19/6 6/20/6
f 40/21/6 38/22/6 29/23/6 28/24/6
f 14/25/5 16/26/5 17/27/5 15/28/5
f 37/29/4 12/30/4 17/27/4 16/31/4
f 10/32/3 37/29/3 16/33/3 14/34/3
f 38/22/3 39/35/3 18/36/3 29/37/3
f 13/38/2 28/39/2 29/40/2 18/41/2
f 22/42/6 38/22/6 40/21/6
f 22/42/4 42/43/4 12/44/4
f 23/45/6 41/46/6 25/47/6 26/48/6
f 27/49/1 26/50/1 25/47/1 24/51/1
f 42/43/4 23/45/4 26/52/4 27/53/4
f 22/42/4 23/45/4 42/43/4
f 41/54/6 23/55/6 22/42/6
f 22/42/6 40/21/6 41/54/6
f 42/56/5 27/57/5 11/58/5 19/59/5
f 12/60/7 42/56/7 19/59/7 21/61/7
f 17/62/1 12/63/1 21/64/1 20/65/1
f 39/66/8 10/67/8 9/68/8 32/69/8
f 18/70/5 39/71/5 32/72/5 31/73/5
f 10/67/2 14/74/2 30/75/2 9/68/2
f 25/76/2 41/77/2 34/78/2 35/79/2
f 41/80/9 40/81/9 33/82/9 34/83/9
f 40/81/1 28/84/1 36/85/1 33/82/1
f 22/42/4 12/44/4 37/86/4
f 22/42/3 39/87/3 38/88/3
f 10/32/3 39/87/3 22/42/3
f 22/42/3 37/29/3 10/32/3
f 52/89/10 55/90/10 59/91/10 63/92/10
f 44/93/3 45/94/3 74/95/3 73/96/3
f 46/97/6 43/98/6 74/95/6 45/94/6
f 70/99/9 43/100/9 69/101/9 56/102/9
f 49/103/11 47/104/11 45/94/11 44/93/11
f 48/105/6 46/106/6 45/94/6 47/104/6
f 48/107/4 52/108/4 63/109/4 67/110/4
f 50/111/2 51/112/2 47/104/2 49/103/2
f 52/108/6 48/107/6 47/104/6 51/112/6
f 43/98/1 46/97/1 68/113/1 69/114/1
f 53/115/9 54/116/9 51/117/9 50/118/9
f 55/90/6 52/89/6 51/117/6 54/116/6
f 55/119/3 60/120/3 58/121/3 59/122/3
f 61/123/1 62/124/1 54/125/1 53/126/1
f 60/120/6 55/119/6 54/125/6 62/124/6
f 46/106/12 48/105/12 67/127/12 68/128/12
f 66/129/12 64/130/12 62/124/12 61/123/12
f 65/131/6 60/132/6 62/124/6 64/130/6
f 65/133/2 70/134/2 56/135/2 57/136/2
f 71/137/4 72/138/4 64/130/4 66/129/4
f 70/134/6 65/133/6 64/130/6 72/138/6
f 60/132/11 65/131/11 57/139/11 58/140/11
f 73/141/10 74/142/10 72/143/10 71/144/10
f 43/100/6 70/99/6 72/143/6 74/142/6
f 75/145/1 76/146/1 78/147/1 77/148/1
f 78/149/6 82/150/6 86/151/6 83/152/6
f 79/153/4 80/154/4 76/155/4 75/156/4
f 77/157/5 81/158/5 79/153/5 75/159/5
f 82/150/2 78/160/2 88/161/2 89/162/2
f 84/163/2 83/164/2 86/151/2 85/165/2
f 77/148/1 78/147/1 83/166/1 84/167/1
f 81/158/5 77/157/5 84/168/5 85/165/5
f 89/162/6 88/169/6 87/170/6 90/171/6
f 78/147/1 76/146/1 87/172/1 88/173/1
f 76/155/4 80/154/4 90/171/4 87/174/4
f 91/175/1 92/176/1 94/177/1 93/178/1
f 93/179/2 94/180/2 98/181/2 97/182/2
f 95/183/4 96/184/4 92/185/4 91/186/4
f 93/187/5 97/182/5 95/183/5 91/188/5
f 98/181/6 94/189/6 92/190/6 96/184/6
f 99/191/1 100/192/1 102/193/1 101/194/1
f 102/195/6 106/196/6 110/197/6 107/198/6
f 103/199/4 104/200/4 100/201/4 99/202/4
f 101/203/5 105/204/5 103/199/5 99/205/5
f 106/196/2 102/206/2 112/207/2 113/208/2
f 108/209/2 107/210/2 110/197/2 109/211/2
f 101/194/1 102/193/1 107/212/1 108/213/1
f 105/204/5 101/203/5 108/214/5 109/211/5
f 113/208/6 112/215/6 111/216/6 114/217/6
f 102/193/1 100/192/1 111/218/1 112/219/1
f 100/201/4 104/200/4 114/217/4 111/220/4
f 115/221/4 116/222/4 118/223/4 117/224/4
f 117/225/1 118/226/1 122/227/1 121/228/1
f 119/229/3 120/230/3 116/231/3 115/232/3
f 117/233/5 121/228/5 119/229/5 115/234/5
f 122/227/6 118/235/6 116/236/6 120/230/6
f 123/237/4 124/238/4 126/239/4 125/240/4
f 125/241/1 126/242/1 130/243/1 129/244/1
f 127/245/3 128/246/3 124/247/3 123/248/3
f 125/249/5 129/244/5 127/250/5 123/251/5
f 130/243/6 126/252/6 124/253/6 128/254/6
f 131/255/4 132/256/4 134/257/4 133/258/4
f 133/259/1 134/260/1 138/261/1 137/262/1
f 135/263/3 136/264/3 132/265/3 131/266/3
f 133/267/5 137/268/5 135/269/5 131/270/5
f 138/261/6 134/271/6 132/272/6 136/264/6
f 139/273/4 140/274/4 142/275/4 141/276/4
f 141/277/1 142/278/1 146/279/1 145/280/1
f 143/281/3 144/282/3 140/283/3 139/284/3
f 141/285/5 145/280/5 143/281/5 139/286/5
f 146/279/6 142/287/6 140/288/6 144/282/6
f 147/289/5 148/290/5 150/291/5 149/292/5
f 149/292/2 154/293/2 151/294/2 147/295/2
f 175/296/3 183/297/3 184/298/3 176/299/3
f 150/291/4 148/300/4 152/301/4 153/302/4
f 153/302/4 152/301/4 156/303/4 157/304/4
f 158/305/6 157/304/6 156/306/6 155/307/6
f 152/308/3 151/309/3 155/310/3 156/311/3
f 159/312/3 160/313/3 162/314/3 161/315/3
f 161/316/5 162/317/5 166/318/5 165/319/5
f 164/320/4 160/321/4 168/322/4 169/323/4
f 166/318/4 162/324/4 160/321/4 164/320/4
f 160/313/3 159/312/3 167/325/3 168/326/3
f 159/327/2 163/328/2 170/329/2 167/330/2
f 174/331/6 173/332/6 172/333/6 171/334/6
f 167/330/2 170/329/2 174/335/2 171/336/2
f 168/326/3 167/325/3 171/337/3 172/338/3
f 175/296/3 176/299/3 178/339/3 177/340/3
f 177/341/5 178/342/5 182/343/5 181/344/5
f 177/345/2 181/346/2 179/347/2 175/348/2
f 179/347/2 186/349/2 183/350/2 175/348/2
f 176/351/4 184/352/4 185/353/4 180/354/4
f 186/355/6 185/353/6 184/356/6 183/357/6
f 151/309/3 168/326/3 172/338/3 155/310/3
f 155/307/6 172/333/6 173/332/6 158/305/6
f 154/293/5 169/323/5 168/358/5 151/359/5
f 159/360/6 176/361/6 180/362/6 163/328/6
f 165/319/5 182/343/5 178/342/5 161/316/5
f 161/315/3 178/339/3 176/299/3 159/312/3
f 147/363/3 151/309/3 152/308/3 148/364/3
f 187/365/2 188/366/2 190/367/2 189/368/2
f 189/369/3 190/370/3 194/371/3 193/372/3
f 191/373/1 192/374/1 188/375/1 187/376/1
f 189/377/5 193/372/5 191/373/5 187/378/5
f 194/371/6 190/379/6 188/380/6 192/374/6
f 195/381/2 196/382/2 198/383/2 197/384/2
f 197/385/3 198/386/3 202/387/3 201/388/3
f 200/389/6 196/390/6 208/391/6 209/392/6
f 197/385/3 201/388/3 205/393/3 203/394/3
f 202/387/6 198/395/6 196/390/6 200/389/6
f 203/396/5 205/393/5 206/397/5 204/398/5
f 195/381/2 197/384/2 203/399/2 204/400/2
f 199/401/1 195/402/1 204/403/1 206/397/1
f 210/404/1 209/392/1 208/405/1 207/406/1
f 196/382/2 195/381/2 207/407/2 208/408/2
f 195/409/5 199/401/5 210/404/5 207/410/5
f 211/411/2 212/412/2 214/413/2 213/414/2
f 213/415/3 214/416/3 218/417/3 217/418/3
f 215/419/1 216/420/1 212/421/1 211/422/1
f 213/423/5 217/418/5 215/419/5 211/424/5
f 218/417/6 214/425/6 212/426/6 216/420/6
f 219/427/2 220/428/2 222/429/2 221/430/2
f 221/431/3 222/432/3 226/433/3 225/434/3
f 223/435/1 224/436/1 220/437/1 219/438/1
f 221/439/5 225/434/5 223/435/5 219/440/5
f 226/433/6 222/441/6 220/442/6 224/436/6
f 227/443/2 228/444/2 230/445/2 229/446/2
f 229/447/3 230/448/3 234/449/3 233/450/3
f 231/451/1 232/452/1 228/453/1 227/454/1
f 229/455/5 233/450/5 231/451/5 227/456/5
f 234/449/6 230/457/6 228/458/6 232/452/6
f 266/459/5 239/460/5 237/461/5 235/462/5
f 236/463/12 235/462/12 237/461/12 238/464/12
f 249/465/9 244/466/9 252/467/9 251/468/9
f 239/469/5 244/470/5 245/471/5 237/472/5
f 238/473/4 237/472/4 245/471/4 243/474/4
f 244/470/2 239/469/2 253/475/2 252/476/2
f 244/466/5 249/465/5 247/477/5 245/471/5
f 243/474/10 245/471/10 247/477/10 248/478/10
f 263/479/10 261/480/10 242/481/10 241/482/10
f 249/483/5 254/484/5 255/485/5 247/477/5
f 248/478/3 247/477/3 255/485/3 256/486/3
f 254/484/1 249/483/1 251/487/1 250/488/1
f 254/489/5 257/490/5 258/491/5 255/492/5
f 256/493/11 255/492/11 258/491/11 259/494/11
f 266/495/3 263/496/3 241/497/3 240/498/3
f 257/499/5 261/500/5 262/501/5 258/502/5
f 259/503/2 258/502/2 262/501/2 260/504/2
f 261/500/4 257/499/4 246/505/4 242/506/4
f 261/480/5 263/479/5 264/507/5 262/501/5
f 260/504/9 262/501/9 264/507/9 265/508/9
f 239/460/11 266/459/11 240/509/11 253/510/11
f 263/496/5 266/495/5 235/511/5 264/507/5
f 265/508/1 264/507/1 235/511/1 236/512/1
f 257/490/12 254/489/12 250/513/12 246/514/12
f 298/515/6 296/516/6 287/517/6 286/518/6
f 272/519/5 274/520/5 275/521/5 273/522/5
f 295/523/2 270/524/2 275/521/2 274/525/2
f 268/526/1 295/523/1 274/527/1 272/528/1
f 296/516/1 297/529/1 276/530/1 287/531/1
f 271/532/4 286/533/4 287/534/4 276/535/4
f 280/536/6 296/516/6 298/515/6
f 280/536/2 300/537/2 270/538/2
f 281/539/6 299/540/6 283/541/6 284/542/6
f 285/543/3 284/544/3 283/541/3 282/545/3
f 300/537/2 281/539/2 284/546/2 285/547/2
f 280/536/2 281/539/2 300/537/2
f 299/548/6 281/549/6 280/536/6
f 280/536/6 298/515/6 299/548/6
f 300/550/5 285/551/5 269/552/5 277/553/5
f 270/554/13 300/550/13 277/553/13 279/555/13
f 275/556/3 270/557/3 279/558/3 278/559/3
f 297/560/14 268/561/14 267/562/14 290/563/14
f 276/564/5 297/565/5 290/566/5 289/567/5
f 268/561/4 272/568/4 288/569/4 267/562/4
f 283/570/4 299/571/4 292/572/4 293/573/4
f 299/574/10 298/575/10 291/576/10 292/577/10
f 298/575/3 286/578/3 294/579/3 291/576/3
f 280/536/2 270/538/2 295/580/2
f 280/536/1 297/581/1 296/582/1
f 268/526/1 297/581/1 280/536/1
f 280/536/1 295/523/1 268/526/1
f 332/583/6 330/584/6 321/585/6 320/586/6
f 306/587/5 308/588/5 309/589/5 307/590/5
f 329/591/3 304/592/3 309/589/3 308/593/3
f 302/594/2 329/591/2 308/595/2 306/596/2
f 330/584/2 331/597/2 310/598/2 321/599/2
f 305/600/1 320/601/1 321/602/1 310/603/1
f 314/604/6 330/584/6 332/583/6
f 314/604/3 334/605/3 304/606/3
f 315/607/6 333/608/6 317/609/6 318/610/6
f 319/611/4 318/612/4 317/609/4 316/613/4
f 334/605/3 315/607/3 318/614/3 319/615/3
f 314/604/3 315/607/3 334/605/3
f 333/616/6 315/617/6 314/604/6
f 314/604/6 332/583/6 333/616/6
f 334/618/5 319/619/5 303/620/5 311/621/5
f 304/622/14 334/618/14 311/621/14 313/623/14
f 309/624/4 304/625/4 313/626/4 312/627/4
f 331/628/7 302/629/7 301/630/7 324/631/7
f 310/632/5 331/633/5 324/634/5 323/635/5
f 302/629/1 306/636/1 322/637/1 301/630/1
f 317/638/1 333/639/1 326/640/1 327/641/1
f 333/642/12 332/643/12 325/644/12 326/645/12
f 332/643/4 320/646/4 328/647/4 325/644/4
f 314/604/3 304/606/3 329/648/3
f 314/604/2 331/649/2 330/650/2
f 302/594/2 331/649/2 314/604/2
f 314/604/2 329/591/2 302/594/2
f 366/651/6 364/652/6 355/653/6 354/654/6
f 340/655/5 342/656/5 343/657/5 341/658/5
f 363/659/1 338/660/1 343/657/1 342/661/1
f 336/662/4 363/659/4 342/663/4 340/664/4
f 364/652/4 365/665/4 344/666/4 355/667/4
f 339/668/3 354/669/3 355/670/3 344/671/3
f 348/672/6 364/652/6 366/651/6
f 348/672/1 368/673/1 338/674/1
f 349/675/6 367/676/6 351/677/6 352/678/6
f 353/679/2 352/680/2 351/677/2 350/681/2
f 368/673/1 349/675/1 352/682/1 353/683/1
f 348/672/1 349/675/1 368/673/1
f 367/684/6 349/685/6 348/672/6
f 348/672/6 366/651/6 367/684/6
f 368/686/5 353/687/5 337/688/5 345/689/5
f 338/690/8 368/686/8 345/689/8 347/691/8
f 343/692/2 338/693/2 347/694/2 346/695/2
f 365/696/13 336/697/13 335/698/13 358/699/13
f 344/700/5 365/701/5 358/702/5 357/703/5
f 336/697/3 340/704/3 356/705/3 335/698/3
f 351/706/3 367/707/3 360/708/3 361/709/3
f 367/710/11 366/711/11 359/712/11 360/713/11
f 366/711/2 354/714/2 362/715/2 359/712/2
f 348/672/1 338/674/1 363/716/1
f 348/672/4 365/717/4 364/718/4
f 336/662/4 365/717/4 348/672/4
f 348/672/4 363/659/4 336/662/4
f 400/719/5 398/720/5 389/721/5 388/722/5
f 374/723/6 376/724/6 377/725/6 375/726/6
f 397/727/2 372/728/2 377/725/2 376/729/2
f 370/730/3 397/727/3 376/731/3 374/732/3
f 398/720/3 399/733/3 378/734/3 389/735/3
f 373/736/4 388/737/4 389/738/4 378/739/4
f 382/740/5 398/720/5 400/719/5
f 382/740/2 402/741/2 372/742/2
f 383/743/5 401/744/5 385/745/5 386/746/5
f 387/747/1 386/748/1 385/745/1 384/749/1
f 402/741/2 383/743/2 386/750/2 387/751/2
f 382/740/2 383/743/2 402/741/2
f 401/752/5 383/753/5 382/740/5
f 382/740/5 400/719/5 401/752/5
f 402/754/6 387/755/6 371/756/6 379/757/6
f 372/758/15 402/754/15 379/757/15 381/759/15
f 377/760/1 372/761/1 381/762/1 380/763/1
f 399/764/16 370/765/16 369/766/16 392/767/16
f 378/768/6 399/769/6 392/770/6 391/771/6
f 370/765/4 374/772/4 390/773/4 369/766/4
f 385/774/4 401/775/4 394/776/4 395/777/4
f 401/778/12 400/779/12 393/780/12 394/781/12
f 400/779/1 388/782/1 396/783/1 393/780/1
f 382/740/2 372/742/2 397/784/2
f 382/740/3 399/785/3 398/786/3
f 370/730/3 399/785/3 382/740/3
f 382/740/3 397/727/3 370/730/3
f 434/787/5 432/788/5 423/789/5 422/790/5
f 408/791/6 410/792/6 411/793/6 409/794/6
f 431/795/4 406/796/4 411/793/4 410/797/4
f 404/798/1 431/795/1 410/799/1 408/800/1
f 432/788/1 433/801/1 412/802/1 423/803/1
f 407/804/2 422/805/2 423/806/2 412/807/2
f 416/808/5 432/788/5 434/787/5
f 416/808/4 436/809/4 406/810/4
f 417/811/5 435/812/5 419/813/5 420/814/5
f 421/815/3 420/816/3 419/813/3 418/817/3
f 436/809/4 417/811/4 420/818/4 421/819/4
f 416/808/4 417/811/4 436/809/4
f 435/820/5 417/821/5 416/808/5
f 416/808/5 434/787/5 435/820/5
f 436/822/6 421/823/6 405/824/6 413/825/6
f 406/826/17 436/822/17 413/825/17 415/827/17
f 411/828/3 406/829/3 415/830/3 414/831/3
f 433/832/18 404/833/18 403/834/18 426/835/18
f 412/836/6 433/837/6 426/838/6 425/839/6
f 404/833/2 408/840/2 424/841/2 403/834/2
f 419/842/2 435/843/2 428/844/2 429/845/2
f 435/846/11 434/847/11 427/848/11 428/849/11
f 434/847/3 422/850/3 430/851/3 427/848/3
f 416/808/4 406/810/4 431/852/4
f 416/808/1 433/853/1 432/854/1
f 404/798/1 433/853/1 416/808/1
f 416/808/1 431/795/1 404/798/1
f 468/855/5 466/856/5 457/857/5 456/858/5
f 442/859/6 444/860/6 445/861/6 443/862/6
f 465/863/3 440/864/3 445/861/3 444/865/3
f 438/866/4 465/863/4 444/867/4 442/868/4
f 466/856/4 467/869/4 446/870/4 457/871/4
f 441/872/1 456/873/1 457/874/1 446/875/1
f 450/876/5 466/856/5 468/855/5
f 450/876/3 470/877/3 440/878/3
f 451/879/5 469/880/5 453/881/5 454/882/5
f 455/883/2 454/884/2 453/881/2 452/885/2
f 470/877/3 451/879/3 454/886/3 455/887/3
f 450/876/3 451/879/3 470/877/3
f 469/888/5 451/889/5 450/876/5
f 450/876/5 468/855/5 469/888/5
f 470/890/6 455/891/6 439/892/6 447/893/6
f 440/894/18 470/890/18 447/893/18 449/895/18
f 445/896/2 440/897/2 449/898/2 448/899/2
f 467/900/15 438/901/15 437/902/15 460/903/15
f 446/904/6 467/905/6 460/906/6 459/907/6
f 438/901/1 442/908/1 458/909/1 437/902/1
f 453/910/1 469/911/1 462/912/1 463/913/1
f 469/914/9 468/915/9 461/916/9 462/917/9
f 468/915/2 456/918/2 464/919/2 461/916/2
f 450/876/3 440/878/3 465/920/3
f 450/876/4 467/921/4 466/922/4
f 438/866/4 467/921/4 450/876/4
f 450/876/4 465/863/4 438/866/4
f 502/923/5 500/924/5 491/925/5 490/926/5
f 476/927/6 478/928/6 479/929/6 477/930/6
f 499/931/1 474/932/1 479/929/1 478/933/1
f 472/934/2 499/931/2 478/935/2 476/936/2
f 500/924/2 501/937/2 480/938/2 491/939/2
f 475/940/3 490/941/3 491/942/3 480/943/3
f 484/944/5 500/924/5 502/923/5
f 484/944/1 504/945/1 474/946/1
f 485/947/5 503/948/5 487/949/5 488/950/5
f 489/951/4 488/952/4 487/949/4 486/953/4
f 504/945/1 485/947/1 488/954/1 489/955/1
f 484/944/1 485/947/1 504/945/1
f 503/956/5 485/957/5 484/944/5
f 484/944/5 502/923/5 503/956/5
f 504/958/6 489/959/6 473/960/6 481/961/6
f 474/962/16 504/958/16 481/961/16 483/963/16
f 479/964/4 474/965/4 483/966/4 482/967/4
f 501/968/17 472/969/17 471/970/17 494/971/17
f 480/972/6 501/973/6 494/974/6 493/975/6
f 472/969/3 476/976/3 492/977/3 471/970/3
f 487/978/3 503/979/3 496/980/3 497/981/3
f 503/982/10 502/983/10 495/984/10 496/985/10
f 502/983/4 490/986/4 498/987/4 495/984/4
f 484/944/1 474/946/1 499/988/1
f 484/944/2 501/989/2 500/990/2
f 472/934/2 501/989/2 484/944/2
f 484/944/2 499/931/2 472/934/2
