# Blender v2.80 (sub 75) OBJ File: 'chem devices.blend'
# www.blender.org
mtllib gnostic_orb_body.mtl
o GNOSTIC_ORB_BODY_Cube.060
v -0.176757 0.536211 -0.102051
v -0.176718 0.608348 0.000034
v 0.088447 0.608253 -0.153059
v 0.088485 0.680390 -0.050975
v 0.088291 0.319515 0.050975
v 0.088330 0.391652 0.153059
v 0.176718 0.391652 -0.000034
v 0.176757 0.463789 0.102051
v -0.176718 0.608301 0.153127
v -0.000019 0.463836 0.255144
v 0.176835 0.608110 0.153127
v 0.000136 0.752575 0.051110
v -0.088330 0.608253 0.153127
v 0.000019 0.536021 0.204135
v 0.088447 0.608158 0.153127
v 0.000097 0.680390 0.102118
v 0.176835 0.608158 0.000034
v 0.176796 0.536021 -0.102051
v -0.088447 0.391747 0.153059
v -0.000097 0.319610 -0.102118
v 0.220990 0.535926 0.127589
v 0.220913 0.391652 -0.076580
v 0.044136 0.391652 0.229606
v 0.044058 0.247378 0.025437
v 0.088330 0.391747 -0.153127
v -0.088330 0.608348 -0.153059
v -0.088291 0.680485 -0.050975
v 0.265223 0.608063 0.153127
v 0.220951 0.463836 -0.127589
v 0.044252 0.608301 -0.229606
v 0.044330 0.752575 -0.025437
v 0.221029 0.608110 0.076580
v -0.000019 0.463979 -0.204135
v -0.088447 0.391842 -0.153127
v -0.176796 0.463979 0.102051
v 0.000175 0.824759 0.000101
v -0.044136 0.608348 -0.229606
v -0.220990 0.464074 -0.127589
v -0.220913 0.608348 0.076580
v -0.044058 0.752622 -0.025437
v 0.000058 0.608348 -0.306153
v -0.176835 0.391842 -0.000034
v 0.265107 0.391652 -0.153127
v -0.088485 0.319610 0.050975
v 0.000019 0.536164 -0.255144
v -0.176835 0.391890 -0.153127
v 0.176718 0.391699 -0.153127
v -0.000136 0.247425 -0.051110
v -0.265223 0.391937 -0.153127
v -0.265107 0.608348 0.153127
v -0.000058 0.391652 0.306153
v -0.000175 0.175241 -0.000101
v -0.221029 0.391890 -0.076580
v -0.220951 0.536164 0.127589
v -0.044252 0.391699 0.229606
v -0.044330 0.247425 0.025437
vt 0.125000 0.375000
vt 0.250000 0.375000
vt 0.250000 0.500000
vt 0.125000 0.500000
vt 0.250000 0.500000
vt 0.125000 0.500000
vt 0.125000 0.375000
vt 0.250000 0.375000
vt 0.125000 0.375000
vt 0.250000 0.375000
vt 0.250000 0.500000
vt 0.125000 0.500000
vt 0.125000 0.875000
vt 0.250000 0.875000
vt 0.250000 0.750000
vt 0.125000 0.750000
vt 0.250000 0.875000
vt 0.125000 0.875000
vt 0.125000 0.750000
vt 0.250000 0.750000
vt 0.250000 0.875000
vt 0.125000 0.875000
vt 0.125000 0.750000
vt 0.250000 0.750000
vt 0.375000 1.000000
vt 0.000000 1.000000
vt 0.062500 0.937500
vt 0.312500 0.937500
vt 0.000000 0.625000
vt 0.062500 0.687500
vt 0.375000 0.625000
vt 0.312500 0.687500
vt 0.312500 0.312500
vt 0.062500 0.312500
vt 0.000000 0.250000
vt 0.375000 0.250000
vt 0.312500 0.562500
vt 0.375000 0.625000
vt 0.062500 0.562500
vt 0.000000 0.625000
vt 0.312500 0.937500
vt 0.062500 0.937500
vt 0.000000 1.000000
vt 0.375000 1.000000
vt 0.062500 0.687500
vt 0.312500 0.687500
vt 0.062500 0.937500
vt 0.312500 0.937500
vt 0.000000 1.000000
vt 0.062500 0.687500
vt 0.000000 0.625000
vt 0.312500 0.687500
vt 0.312500 0.312500
vt 0.062500 0.312500
vt 0.000000 0.250000
vt 0.375000 0.250000
vt 0.312500 0.562500
vt 0.375000 0.625000
vt 0.062500 0.562500
vt 0.312500 0.562500
vt 0.312500 0.312500
vt 0.375000 0.250000
vt 0.375000 0.625000
vt 0.062500 0.312500
vt 0.062500 0.562500
vt 0.000000 0.250000
vn 0.7068 -0.5779 0.4081
vn -0.7074 -0.5771 0.4081
vn -0.0003 -0.5771 -0.8167
vn 0.7074 0.5771 -0.4081
vn 0.0003 0.5771 0.8167
vn -0.7068 0.5779 -0.4081
usemtl GNOSTIC_ORB
s off
f 7/1/1 8/2/1 6/3/1 5/4/1
f 42/5/2 44/6/2 19/7/2 35/8/2
f 34/9/3 33/10/3 25/11/3 20/12/3
f 18/13/4 3/14/4 4/15/4 17/16/4
f 13/17/5 14/18/5 15/19/5 16/20/5
f 26/21/6 1/22/6 2/23/6 27/24/6
f 50/25/5 51/26/5 10/27/5 9/28/5
f 51/26/5 28/29/5 11/30/5 10/27/5
f 28/29/5 36/31/5 12/32/5 11/30/5
f 36/31/5 50/25/5 9/28/5 12/32/5
f 21/33/1 22/34/1 43/35/1 28/36/1
f 23/37/1 21/33/1 28/36/1 51/38/1
f 24/39/1 23/37/1 51/38/1 52/40/1
f 22/34/1 24/39/1 52/40/1 43/35/1
f 30/41/4 29/42/4 43/43/4 41/44/4
f 32/45/4 31/46/4 36/31/4 28/29/4
f 29/42/4 32/45/4 28/29/4 43/43/4
f 31/46/4 30/41/4 41/44/4 36/31/4
f 38/47/6 37/48/6 41/44/6 49/49/6
f 39/50/6 38/47/6 49/49/6 50/51/6
f 40/52/6 39/50/6 50/51/6 36/31/6
f 37/48/6 40/52/6 36/31/6 41/44/6
f 45/53/3 46/54/3 49/55/3 41/56/3
f 47/57/3 45/53/3 41/56/3 43/58/3
f 46/54/3 48/59/3 52/40/3 49/55/3
f 48/59/3 47/57/3 43/58/3 52/40/3
f 53/60/2 54/61/2 50/62/2 49/63/2
f 55/64/2 56/65/2 52/40/2 51/66/2
f 56/65/2 53/60/2 49/63/2 52/40/2
f 54/61/2 55/64/2 51/66/2 50/62/2
o GNOSTIC_ORB_INACTIVE_Cube.164
v -0.176757 0.536211 -0.102051
v -0.176718 0.608348 0.000034
v 0.088447 0.608253 -0.153059
v 0.088485 0.680390 -0.050975
v 0.088291 0.319515 0.050975
v 0.088330 0.391652 0.153059
v 0.176718 0.391652 -0.000034
v 0.176757 0.463789 0.102051
v -0.176718 0.608301 0.153127
v -0.000019 0.463836 0.255144
v 0.176835 0.608110 0.153127
v 0.000136 0.752575 0.051110
v -0.088330 0.608253 0.153127
v 0.000019 0.536021 0.204135
v 0.088447 0.608158 0.153127
v 0.000097 0.680390 0.102118
v 0.176835 0.608158 0.000034
v 0.176796 0.536021 -0.102051
v -0.088447 0.391747 0.153059
v -0.000097 0.319610 -0.102118
v 0.220990 0.535926 0.127589
v 0.220913 0.391652 -0.076580
v 0.044136 0.391652 0.229606
v 0.044058 0.247378 0.025437
v 0.088330 0.391747 -0.153127
v -0.088330 0.608348 -0.153059
v -0.088291 0.680485 -0.050975
v 0.220951 0.463836 -0.127589
v 0.044252 0.608301 -0.229606
v 0.044330 0.752575 -0.025437
v 0.221029 0.608110 0.076580
v -0.000019 0.463979 -0.204135
v -0.088447 0.391842 -0.153127
v -0.176796 0.463979 0.102051
v -0.044136 0.608348 -0.229606
v -0.220990 0.464074 -0.127589
v -0.220913 0.608348 0.076580
v -0.044058 0.752622 -0.025437
v -0.176835 0.391842 -0.000034
v -0.088485 0.319610 0.050975
v 0.000019 0.536164 -0.255144
v -0.176835 0.391890 -0.153127
v 0.176718 0.391699 -0.153127
v -0.000136 0.247425 -0.051110
v -0.221029 0.391890 -0.076580
v -0.220951 0.536164 0.127589
v -0.044252 0.391699 0.229606
v -0.044330 0.247425 0.025437
v -0.132534 0.590243 0.127606
v -0.000010 0.481894 0.204119
v 0.132631 0.590100 0.127606
v 0.000107 0.698448 0.051093
v 0.176786 0.517915 0.102068
v 0.176728 0.409710 -0.051059
v 0.044146 0.409710 0.178581
v 0.044087 0.301504 0.025454
v -0.176825 0.409900 -0.051059
v -0.176767 0.518106 0.102068
v -0.044243 0.409757 0.178581
v -0.044301 0.301552 0.025454
v -0.176786 0.482085 -0.102068
v -0.044146 0.590290 -0.178581
v -0.176728 0.590290 0.051059
v -0.044087 0.698496 -0.025454
v 0.000010 0.518106 -0.204119
v -0.132631 0.409900 -0.127606
v 0.132534 0.409757 -0.127606
v -0.000107 0.301552 -0.051093
v 0.044243 0.590243 -0.178581
v 0.176767 0.481894 -0.102068
v 0.176825 0.590100 0.051059
v 0.044301 0.698448 -0.025454
vt 0.281250 0.906250
vt 0.093750 0.906250
vt 0.125000 0.875000
vt 0.250000 0.875000
vt 0.093750 0.718750
vt 0.125000 0.750000
vt 0.281250 0.718750
vt 0.250000 0.750000
vt 0.281250 0.343750
vt 0.093750 0.343750
vt 0.062500 0.312500
vt 0.312500 0.312500
vt 0.281250 0.531250
vt 0.312500 0.562500
vt 0.093750 0.531250
vt 0.062500 0.562500
vt 0.281250 0.906250
vt 0.093750 0.906250
vt 0.062500 0.937500
vt 0.312500 0.937500
vt 0.093750 0.718750
vt 0.281250 0.718750
vt 0.312500 0.687500
vt 0.062500 0.687500
vt 0.093750 0.906250
vt 0.281250 0.906250
vt 0.312500 0.937500
vt 0.062500 0.937500
vt 0.093750 0.718750
vt 0.062500 0.687500
vt 0.281250 0.718750
vt 0.312500 0.687500
vt 0.281250 0.343750
vt 0.093750 0.343750
vt 0.062500 0.312500
vt 0.312500 0.312500
vt 0.281250 0.531250
vt 0.312500 0.562500
vt 0.093750 0.531250
vt 0.062500 0.562500
vt 0.281250 0.531250
vt 0.281250 0.343750
vt 0.312500 0.312500
vt 0.312500 0.562500
vt 0.093750 0.343750
vt 0.093750 0.531250
vt 0.062500 0.562500
vt 0.062500 0.312500
vt 0.312500 0.687500
vt 0.312500 0.937500
vt 0.062500 0.687500
vt 0.062500 0.937500
vt 0.125000 0.375000
vt 0.125000 0.500000
vt 0.250000 0.500000
vt 0.250000 0.375000
vt 0.250000 0.375000
vt 0.125000 0.375000
vt 0.125000 0.500000
vt 0.250000 0.500000
vt 0.250000 0.875000
vt 0.250000 0.750000
vt 0.125000 0.750000
vt 0.125000 0.875000
vt 0.125000 0.500000
vt 0.250000 0.500000
vt 0.125000 0.375000
vt 0.250000 0.375000
vt 0.250000 0.750000
vt 0.250000 0.875000
vt 0.125000 0.875000
vt 0.125000 0.750000
vn -0.5000 -0.0000 0.8660
vn 0.5000 -0.0005 0.8660
vn 0.5004 0.8161 0.2889
vn -0.4996 0.8167 0.2889
vn -0.0004 -0.8167 0.5771
vn 0.4996 -0.8167 -0.2889
vn 1.0000 -0.0005 0.0000
vn 0.5000 -0.0000 -0.8660
vn 0.0004 0.8167 -0.5771
vn -0.5000 0.0005 -0.8660
vn -1.0000 0.0005 -0.0000
vn -0.5004 -0.8161 -0.2889
usemtl GNOSTIC_ORB
s off
f 105/67/7 106/68/7 70/69/7 69/70/7
f 106/68/8 107/71/8 71/72/8 70/69/8
f 107/71/9 108/73/9 72/74/9 71/72/9
f 108/73/10 105/67/10 69/70/10 72/74/10
f 109/75/11 110/76/11 78/77/11 77/78/11
f 111/79/12 109/75/12 77/78/12 79/80/12
f 112/81/13 111/79/13 79/80/13 80/82/13
f 110/76/8 112/81/8 80/82/8 78/77/8
f 125/83/9 126/84/9 84/85/9 85/86/9
f 127/87/14 128/88/14 86/89/14 87/90/14
f 126/84/15 127/87/15 87/90/15 84/85/15
f 128/88/13 125/83/13 85/86/13 86/89/13
f 117/91/10 118/92/10 91/93/10 92/94/10
f 119/95/15 117/91/15 92/94/15 93/96/15
f 120/97/16 119/95/16 93/96/16 94/98/16
f 118/92/17 120/97/17 94/98/17 91/93/17
f 121/99/12 122/100/12 98/101/12 97/102/12
f 123/103/18 121/99/18 97/102/18 99/104/18
f 122/100/14 124/105/14 100/106/14 98/101/14
f 124/105/16 123/103/16 99/104/16 100/106/16
f 113/107/11 114/108/11 102/109/11 101/110/11
f 115/111/17 116/112/17 104/113/17 103/114/17
f 116/112/7 113/107/7 101/110/7 104/113/7
f 114/108/18 115/111/18 103/114/18 102/109/18
f 68/115/8 65/116/8 105/67/8 108/73/8
f 67/117/7 68/115/7 108/73/7 107/71/7
f 66/118/10 67/117/10 107/71/10 106/68/10
f 65/116/9 66/118/9 106/68/9 105/67/9
f 63/119/12 61/120/12 112/81/12 110/76/12
f 61/120/11 62/121/11 111/79/11 112/81/11
f 62/121/8 64/122/8 109/75/8 111/79/8
f 64/122/13 63/119/13 110/76/13 109/75/13
f 90/123/7 75/124/7 115/111/7 114/108/7
f 96/125/18 95/126/18 113/107/18 116/112/18
f 75/124/11 96/125/11 116/112/11 115/111/11
f 95/126/17 90/123/17 114/108/17 113/107/17
f 82/127/15 83/128/15 120/97/15 118/92/15
f 83/128/10 58/129/10 119/95/10 120/97/10
f 58/129/17 57/130/17 117/91/17 119/95/17
f 57/130/16 82/127/16 118/92/16 117/91/16
f 76/131/12 81/132/12 123/103/12 124/105/12
f 89/133/18 76/131/18 124/105/18 122/100/18
f 81/132/14 88/134/14 121/99/14 123/103/14
f 88/134/16 89/133/16 122/100/16 121/99/16
f 60/135/15 59/136/15 125/83/15 128/88/15
f 74/137/13 73/138/13 127/87/13 126/84/13
f 73/138/9 60/135/9 128/88/9 127/87/9
f 59/136/14 74/137/14 126/84/14 125/83/14
