# Blender v2.80 (sub 75) OBJ File: 'chem devices.blend'
# www.blender.org
mtllib gnostic_orb_inactive.mtl
o GNOSTIC_ORB_INACTIVE_Cube.164
v -0.176757 0.536211 -0.102051
v -0.176718 0.608348 0.000034
v 0.088447 0.608253 -0.153059
v 0.088485 0.680390 -0.050975
v 0.088291 0.319515 0.050975
v 0.088330 0.391652 0.153059
v 0.176718 0.391652 -0.000034
v 0.176757 0.463789 0.102051
v -0.176718 0.608301 0.153127
v -0.000019 0.463836 0.255144
v 0.176835 0.608110 0.153127
v 0.000136 0.752575 0.051110
v -0.088330 0.608253 0.153127
v 0.000019 0.536021 0.204135
v 0.088447 0.608158 0.153127
v 0.000097 0.680390 0.102118
v 0.176835 0.608158 0.000034
v 0.176796 0.536021 -0.102051
v -0.088447 0.391747 0.153059
v -0.000097 0.319610 -0.102118
v 0.220990 0.535926 0.127589
v 0.220913 0.391652 -0.076580
v 0.044136 0.391652 0.229606
v 0.044058 0.247378 0.025437
v 0.088330 0.391747 -0.153127
v -0.088330 0.608348 -0.153059
v -0.088291 0.680485 -0.050975
v 0.220951 0.463836 -0.127589
v 0.044252 0.608301 -0.229606
v 0.044330 0.752575 -0.025437
v 0.221029 0.608110 0.076580
v -0.000019 0.463979 -0.204135
v -0.088447 0.391842 -0.153127
v -0.176796 0.463979 0.102051
v -0.044136 0.608348 -0.229606
v -0.220990 0.464074 -0.127589
v -0.220913 0.608348 0.076580
v -0.044058 0.752622 -0.025437
v -0.176835 0.391842 -0.000034
v -0.088485 0.319610 0.050975
v 0.000019 0.536164 -0.255144
v -0.176835 0.391890 -0.153127
v 0.176718 0.391699 -0.153127
v -0.000136 0.247425 -0.051110
v -0.221029 0.391890 -0.076580
v -0.220951 0.536164 0.127589
v -0.044252 0.391699 0.229606
v -0.044330 0.247425 0.025437
v -0.132534 0.590243 0.127606
v -0.000010 0.481894 0.204119
v 0.132631 0.590100 0.127606
v 0.000107 0.698448 0.051093
v 0.176786 0.517915 0.102068
v 0.176728 0.409710 -0.051059
v 0.044146 0.409710 0.178581
v 0.044087 0.301504 0.025454
v -0.176825 0.409900 -0.051059
v -0.176767 0.518106 0.102068
v -0.044243 0.409757 0.178581
v -0.044301 0.301552 0.025454
v -0.176786 0.482085 -0.102068
v -0.044146 0.590290 -0.178581
v -0.176728 0.590290 0.051059
v -0.044087 0.698496 -0.025454
v 0.000010 0.518106 -0.204119
v -0.132631 0.409900 -0.127606
v 0.132534 0.409757 -0.127606
v -0.000107 0.301552 -0.051093
v 0.044243 0.590243 -0.178581
v 0.176767 0.481894 -0.102068
v 0.176825 0.590100 0.051059
v 0.044301 0.698448 -0.025454
vt 0.281250 0.906250
vt 0.093750 0.906250
vt 0.125000 0.875000
vt 0.250000 0.875000
vt 0.093750 0.718750
vt 0.125000 0.750000
vt 0.281250 0.718750
vt 0.250000 0.750000
vt 0.281250 0.343750
vt 0.093750 0.343750
vt 0.062500 0.312500
vt 0.312500 0.312500
vt 0.281250 0.531250
vt 0.312500 0.562500
vt 0.093750 0.531250
vt 0.062500 0.562500
vt 0.281250 0.906250
vt 0.093750 0.906250
vt 0.062500 0.937500
vt 0.312500 0.937500
vt 0.093750 0.718750
vt 0.281250 0.718750
vt 0.312500 0.687500
vt 0.062500 0.687500
vt 0.093750 0.906250
vt 0.281250 0.906250
vt 0.312500 0.937500
vt 0.062500 0.937500
vt 0.093750 0.718750
vt 0.062500 0.687500
vt 0.281250 0.718750
vt 0.312500 0.687500
vt 0.281250 0.343750
vt 0.093750 0.343750
vt 0.062500 0.312500
vt 0.312500 0.312500
vt 0.281250 0.531250
vt 0.312500 0.562500
vt 0.093750 0.531250
vt 0.062500 0.562500
vt 0.281250 0.531250
vt 0.281250 0.343750
vt 0.312500 0.312500
vt 0.312500 0.562500
vt 0.093750 0.343750
vt 0.093750 0.531250
vt 0.062500 0.562500
vt 0.062500 0.312500
vt 0.312500 0.687500
vt 0.312500 0.937500
vt 0.062500 0.687500
vt 0.062500 0.937500
vt 0.125000 0.375000
vt 0.125000 0.500000
vt 0.250000 0.500000
vt 0.250000 0.375000
vt 0.250000 0.375000
vt 0.125000 0.375000
vt 0.125000 0.500000
vt 0.250000 0.500000
vt 0.250000 0.875000
vt 0.250000 0.750000
vt 0.125000 0.750000
vt 0.125000 0.875000
vt 0.125000 0.500000
vt 0.250000 0.500000
vt 0.125000 0.375000
vt 0.250000 0.375000
vt 0.250000 0.750000
vt 0.250000 0.875000
vt 0.125000 0.875000
vt 0.125000 0.750000
vn -0.5000 -0.0000 0.8660
vn 0.5000 -0.0005 0.8660
vn 0.5004 0.8161 0.2889
vn -0.4996 0.8167 0.2889
vn -0.0004 -0.8167 0.5771
vn 0.4996 -0.8167 -0.2889
vn 1.0000 -0.0005 0.0000
vn 0.5000 -0.0000 -0.8660
vn 0.0004 0.8167 -0.5771
vn -0.5000 0.0005 -0.8660
vn -1.0000 0.0005 -0.0000
vn -0.5004 -0.8161 -0.2889
usemtl GNOSTIC_ORB
s off
f 49/1/1 50/2/1 14/3/1 13/4/1
f 50/2/2 51/5/2 15/6/2 14/3/2
f 51/5/3 52/7/3 16/8/3 15/6/3
f 52/7/4 49/1/4 13/4/4 16/8/4
f 53/9/5 54/10/5 22/11/5 21/12/5
f 55/13/6 53/9/6 21/12/6 23/14/6
f 56/15/7 55/13/7 23/14/7 24/16/7
f 54/10/2 56/15/2 24/16/2 22/11/2
f 69/17/3 70/18/3 28/19/3 29/20/3
f 71/21/8 72/22/8 30/23/8 31/24/8
f 70/18/9 71/21/9 31/24/9 28/19/9
f 72/22/7 69/17/7 29/20/7 30/23/7
f 61/25/4 62/26/4 35/27/4 36/28/4
f 63/29/9 61/25/9 36/28/9 37/30/9
f 64/31/10 63/29/10 37/30/10 38/32/10
f 62/26/11 64/31/11 38/32/11 35/27/11
f 65/33/6 66/34/6 42/35/6 41/36/6
f 67/37/12 65/33/12 41/36/12 43/38/12
f 66/34/8 68/39/8 44/40/8 42/35/8
f 68/39/10 67/37/10 43/38/10 44/40/10
f 57/41/5 58/42/5 46/43/5 45/44/5
f 59/45/11 60/46/11 48/47/11 47/48/11
f 60/46/1 57/41/1 45/44/1 48/47/1
f 58/42/12 59/45/12 47/48/12 46/43/12
f 12/49/2 9/50/2 49/1/2 52/7/2
f 11/51/1 12/49/1 52/7/1 51/5/1
f 10/52/4 11/51/4 51/5/4 50/2/4
f 9/50/3 10/52/3 50/2/3 49/1/3
f 7/53/6 5/54/6 56/15/6 54/10/6
f 5/54/5 6/55/5 55/13/5 56/15/5
f 6/55/2 8/56/2 53/9/2 55/13/2
f 8/56/7 7/53/7 54/10/7 53/9/7
f 34/57/1 19/58/1 59/45/1 58/42/1
f 40/59/12 39/60/12 57/41/12 60/46/12
f 19/58/5 40/59/5 60/46/5 59/45/5
f 39/60/11 34/57/11 58/42/11 57/41/11
f 26/61/9 27/62/9 64/31/9 62/26/9
f 27/62/4 2/63/4 63/29/4 64/31/4
f 2/63/11 1/64/11 61/25/11 63/29/11
f 1/64/10 26/61/10 62/26/10 61/25/10
f 20/65/6 25/66/6 67/37/6 68/39/6
f 33/67/12 20/65/12 68/39/12 66/34/12
f 25/66/8 32/68/8 65/33/8 67/37/8
f 32/68/10 33/67/10 66/34/10 65/33/10
f 4/69/9 3/70/9 69/17/9 72/22/9
f 18/71/7 17/72/7 71/21/7 70/18/7
f 17/72/3 4/69/3 72/22/3 71/21/3
f 3/70/8 18/71/8 70/18/8 69/17/8
