# Blender v2.80 (sub 75) OBJ File: 'chem devices.blend'
# www.blender.org
mtllib grand_distillery_plug_upgraded.mtl
o GRAND_DISTILLERY_PLUG_UPGRADE_Cube.037
v -1.000000 0.250000 0.250000
v -1.000000 0.750000 0.250000
v -0.750000 0.250000 0.250000
v -0.750000 0.750000 0.250000
v -1.000000 0.250000 0.750000
v -1.000000 0.750000 0.750000
v -0.750000 0.250000 0.750000
v -0.750000 0.750000 0.750000
v -0.750000 0.250000 0.062500
v -1.000000 0.250000 0.062500
v -1.000000 0.750000 0.062500
v -1.000000 0.937500 0.250000
v -0.750000 0.937500 0.250000
v -0.750000 0.937500 0.750000
v -1.000000 0.937500 0.750000
v -0.750000 0.000000 0.250000
v -1.000000 0.000000 0.250000
v -0.750000 0.750707 0.936793
v -1.000000 0.000000 0.750000
v -0.750000 0.250000 0.937500
v -1.000000 0.250000 0.937500
v -1.000000 0.750707 0.936793
v -0.750000 0.000000 0.750000
v -0.750000 0.000000 0.062500
v -1.000000 0.000000 0.062500
v -1.000000 0.000000 0.937500
v -0.750000 0.000000 0.937500
v -0.812500 0.312500 0.312500
v -0.812500 0.687500 0.312500
v -0.812500 0.687500 0.687500
v -0.812500 0.312500 0.687500
v -0.875000 0.250000 0.250000
v -0.875000 0.750000 0.250000
v -0.875000 0.750000 0.750000
v -0.875000 0.250000 0.750000
v -0.750000 0.500000 0.500000
v -0.750000 0.250000 0.812500
v -1.000000 0.750000 0.812500
v -0.750000 0.000000 0.812500
v -0.750000 0.750000 0.812500
v -1.000000 0.250000 0.812500
v -1.000000 0.000000 0.812500
v -1.000000 0.875000 0.812500
v -0.750000 0.875000 0.812500
v -1.000000 0.875000 0.187500
v -0.750000 0.875000 0.187500
v -0.750000 0.750000 0.062500
v -1.000000 0.750000 0.187500
v -1.000000 0.250000 0.187500
v -0.750000 0.750000 0.187500
v -0.750000 0.250000 0.187500
v -0.750000 0.000000 0.187500
v -1.000000 0.000000 0.187500
v -1.000000 0.875000 0.250000
v -1.000000 0.875000 0.750000
v -0.750000 0.875000 0.250000
v -0.750000 0.875000 0.750000
v -0.750000 0.500000 0.000000
v -0.750000 0.500000 1.000000
v -0.812500 0.500000 0.000000
v -0.812500 0.500000 1.000000
v -0.875000 0.437500 0.000000
v -0.875000 0.437500 1.000000
v -0.875000 0.000000 0.000000
v -0.875000 0.000000 1.000000
v -0.750000 0.000000 0.000000
v -0.750000 0.000000 1.000000
v -0.750000 0.500000 0.062500
v -0.750000 0.500000 0.937500
v -0.812500 0.500000 0.062500
v -0.812500 0.500000 0.937500
v -0.875000 0.437500 0.062500
v -0.875000 0.437500 0.937500
v -0.875000 0.000000 0.062500
v -0.875000 0.000000 0.937500
v -0.750000 0.000000 0.062500
v -0.750000 0.000000 0.937500
v 2.000000 0.250000 0.250000
v 2.000000 0.750000 0.250000
v 1.750000 0.250000 0.250000
v 1.750000 0.750000 0.250000
v 2.000000 0.250000 0.750000
v 2.000000 0.750000 0.750000
v 1.750000 0.250000 0.750000
v 1.750000 0.750000 0.750000
v 1.750000 0.250000 0.062500
v 2.000000 0.250000 0.062500
v 2.000000 0.750000 0.062500
v 2.000000 0.937500 0.250000
v 1.750000 0.937500 0.250000
v 1.750000 0.937500 0.750000
v 2.000000 0.937500 0.750000
v 1.750000 0.000000 0.250000
v 2.000000 0.000000 0.250000
v 1.750000 0.750707 0.936793
v 2.000000 0.000000 0.750000
v 1.750000 0.250000 0.937500
v 2.000000 0.250000 0.937500
v 2.000000 0.750707 0.936793
v 1.750000 0.000000 0.750000
v 1.750000 0.000000 0.062500
v 2.000000 0.000000 0.062500
v 2.000000 0.000000 0.937500
v 1.750000 0.000000 0.937500
v 1.812500 0.312500 0.312500
v 1.812500 0.687500 0.312500
v 1.812500 0.687500 0.687500
v 1.812500 0.312500 0.687500
v 1.875000 0.250000 0.250000
v 1.875000 0.750000 0.250000
v 1.875000 0.750000 0.750000
v 1.875000 0.250000 0.750000
v 1.750000 0.500000 0.500000
v 1.750000 0.250000 0.812500
v 2.000000 0.750000 0.812500
v 1.750000 0.000000 0.812500
v 1.750000 0.750000 0.812500
v 2.000000 0.250000 0.812500
v 2.000000 0.000000 0.812500
v 2.000000 0.875000 0.812500
v 1.750000 0.875000 0.812500
v 2.000000 0.875000 0.187500
v 1.750000 0.875000 0.187500
v 1.750000 0.750000 0.062500
v 2.000000 0.750000 0.187500
v 2.000000 0.250000 0.187500
v 1.750000 0.750000 0.187500
v 1.750000 0.250000 0.187500
v 1.750000 0.000000 0.187500
v 2.000000 0.000000 0.187500
v 2.000000 0.875000 0.250000
v 2.000000 0.875000 0.750000
v 1.750000 0.875000 0.250000
v 1.750000 0.875000 0.750000
v 1.750000 0.500000 0.000000
v 1.750000 0.500000 1.000000
v 1.812500 0.500000 0.000000
v 1.812500 0.500000 1.000000
v 1.875000 0.437500 0.000000
v 1.875000 0.437500 1.000000
v 1.875000 0.000000 0.000000
v 1.875000 0.000000 1.000000
v 1.750000 0.000000 0.000000
v 1.750000 0.000000 1.000000
v 1.750000 0.500000 0.062500
v 1.750000 0.500000 0.937500
v 1.812500 0.500000 0.062500
v 1.812500 0.500000 0.937500
v 1.875000 0.437500 0.062500
v 1.875000 0.437500 0.937500
v 1.875000 0.000000 0.062500
v 1.875000 0.000000 0.937500
v 1.750000 0.000000 0.062500
v 1.750000 0.000000 0.937500
v 1.624499 0.500000 0.750000
v 1.624499 0.687500 0.750000
v 1.624499 0.500000 0.250000
v 1.624499 0.687500 0.250000
v 1.686999 0.750000 0.250000
v 1.686999 0.750000 0.750000
v 1.749499 0.750000 0.250000
v 1.749499 0.750000 0.750000
v 1.749499 0.500000 0.250000
v 1.749499 0.500000 0.750000
v 1.686999 0.500000 0.750000
v 1.686999 0.500000 0.250000
v -0.687500 0.500000 0.750000
v -0.687500 0.500000 0.250000
v -0.750000 0.500000 0.250000
v -0.750000 0.500000 0.750000
v -0.750000 0.750000 0.250000
v -0.750000 0.750000 0.750000
v -0.687500 0.750000 0.250000
v -0.687500 0.750000 0.750000
v -0.625000 0.687500 0.750000
v -0.625000 0.500000 0.750000
v -0.625000 0.687500 0.250000
v -0.625000 0.500000 0.250000
v -0.625000 0.562500 0.656250
v -0.625000 0.500000 0.656250
v -0.625000 0.562500 0.593750
v -0.625000 0.500000 0.593750
v -0.562500 0.562500 0.656250
v -0.562500 0.500000 0.656250
v -0.562500 0.562500 0.593750
v -0.562500 0.500000 0.593750
v -0.500000 0.562500 0.593750
v -0.500000 0.500000 0.593750
v -0.562500 0.562500 0.156250
v -0.562500 0.500000 0.156250
v -0.500000 0.562500 0.156250
v -0.500000 0.500000 0.156250
v 1.500000 0.500000 0.156250
v 1.500000 0.562500 0.156250
v 1.562500 0.500000 0.156250
v 1.562500 0.562500 0.156250
v 1.500000 0.500000 0.593750
v 1.500000 0.562500 0.593750
v 1.562500 0.500000 0.593750
v 1.562500 0.562500 0.593750
v 1.562500 0.500000 0.656250
v 1.562500 0.562500 0.656250
v 1.625000 0.500000 0.593750
v 1.625000 0.562500 0.593750
v 1.625000 0.500000 0.656250
v 1.625000 0.562500 0.656250
vt 0.750000 0.250000
vt 0.750000 0.000000
vt 0.812500 0.000000
vt 0.812500 0.250000
vt 0.375000 0.125000
vt 0.125000 0.125000
vt 0.125000 0.000000
vt 0.375000 0.000000
vt 0.125000 0.468750
vt 0.375000 0.468750
vt 0.375000 0.500000
vt 0.125000 0.500000
vt 0.625000 0.093750
vt 0.625000 0.343750
vt 0.500000 0.343750
vt 0.500000 0.093750
vt 0.625000 0.125000
vt 0.500000 0.125000
vt 0.500000 -0.000000
vt 0.625000 -0.000000
vt 0.625000 0.250000
vt 0.625000 0.000000
vt 0.750000 0.000000
vt 0.750000 0.250000
vt 0.093750 0.437500
vt 0.093750 0.375000
vt 0.125000 0.375000
vt 0.125000 0.437500
vt 0.125000 0.468750
vt 0.375000 0.468750
vt 0.375000 0.500000
vt 0.125000 0.500000
vt 0.500000 0.406250
vt 0.468750 0.406250
vt 0.468750 0.437500
vt 0.500000 0.437500
vt 0.625000 0.093750
vt 0.625000 0.343750
vt 0.500000 0.343750
vt 0.500000 0.093750
vt 0.625000 0.125000
vt 0.500000 0.125000
vt 0.500000 0.000000
vt 0.625000 -0.000000
vt 0.500000 0.375000
vt 0.437500 0.437500
vt 0.437500 0.375000
vt 0.406250 0.125000
vt 0.375000 0.125000
vt 0.375000 0.000000
vt 0.406250 0.000000
vt 0.125000 0.125000
vt 0.125000 0.000000
vt 0.156250 0.156250
vt 0.343750 0.156250
vt 0.343750 0.343750
vt 0.156250 0.343750
vt 0.750000 0.250000
vt 0.750000 0.000000
vt 0.812500 0.000000
vt 0.812500 0.250000
vt 0.812500 0.000000
vt 0.812500 0.250000
vt 0.750000 0.250000
vt 0.750000 0.000000
vt 0.812500 0.000000
vt 0.812500 0.250000
vt 0.750000 0.250000
vt 0.750000 0.000000
vt 0.375000 0.375000
vt 0.125000 0.375000
vt 0.125000 0.125000
vt 0.375000 0.125000
vt 0.125000 0.375000
vt 0.375000 0.375000
vt 0.250000 0.500000
vt 0.125000 0.375000
vt 0.375000 0.375000
vt 0.476562 0.406250
vt 0.492188 0.406250
vt 0.492188 0.437500
vt 0.476562 0.437500
vt 0.437500 0.125000
vt 0.062500 0.375000
vt 0.000000 0.375000
vt 0.000000 0.125000
vt 0.062500 0.125000
vt 0.625000 0.437500
vt 0.500000 0.437500
vt 0.625000 0.375000
vt 0.406250 0.125000
vt 0.406250 0.000000
vt 0.093750 0.375000
vt 0.093750 0.125000
vt 0.375000 0.375000
vt 0.406250 0.375000
vt -0.000000 0.000000
vt 0.062500 0.000000
vt 0.093750 0.000000
vt 0.625000 0.500000
vt 0.500000 0.500000
vt 0.500000 0.468750
vt 0.625000 0.468750
vt 0.093750 0.468750
vt 0.375000 0.437500
vt 0.406250 0.437500
vt 0.437500 0.000000
vt 0.062500 0.437500
vt 0.625000 0.500000
vt 0.500000 0.500000
vt 0.500000 0.468750
vt 0.625000 0.468750
vt 0.062500 0.125000
vt 0.000000 0.125000
vt 0.000000 -0.000000
vt 0.062500 -0.000000
vt 0.093750 0.125000
vt 0.093750 0.000000
vt 0.437500 0.125000
vt 0.437500 0.000000
vt 0.492188 0.406250
vt 0.492188 0.437500
vt 0.476562 0.437500
vt 0.476562 0.406250
vt 0.437500 0.375000
vt 0.500000 0.375000
vt 0.406250 0.375000
vt 0.062500 0.375000
vt 0.000000 0.375000
vt 0.062500 0.437500
vt 0.437500 0.437500
vt 0.406250 0.468750
vt 0.500000 0.437500
vt 0.625000 0.375000
vt 0.625000 0.437500
vt 0.093750 0.468750
vt 0.406250 0.468750
vt 0.375000 0.437500
vt 0.125000 0.437500
vt 0.406250 0.437500
vt 0.093750 0.437500
vt 0.750000 0.250000
vt 0.812500 0.250000
vt 0.812500 0.000000
vt 0.750000 0.000000
vt 0.375000 0.125000
vt 0.375000 0.000000
vt 0.125000 0.000000
vt 0.125000 0.125000
vt 0.125000 0.468750
vt 0.125000 0.500000
vt 0.375000 0.500000
vt 0.375000 0.468750
vt 0.625000 0.093750
vt 0.500000 0.093750
vt 0.500000 0.343750
vt 0.625000 0.343750
vt 0.625000 0.125000
vt 0.625000 -0.000000
vt 0.500000 -0.000000
vt 0.500000 0.125000
vt 0.625000 0.250000
vt 0.750000 0.250000
vt 0.750000 0.000000
vt 0.625000 0.000000
vt 0.093750 0.437500
vt 0.125000 0.437500
vt 0.125000 0.375000
vt 0.093750 0.375000
vt 0.125000 0.468750
vt 0.125000 0.500000
vt 0.375000 0.500000
vt 0.375000 0.468750
vt 0.500000 0.406250
vt 0.500000 0.437500
vt 0.468750 0.437500
vt 0.468750 0.406250
vt 0.625000 0.093750
vt 0.500000 0.093750
vt 0.500000 0.343750
vt 0.625000 0.343750
vt 0.625000 0.125000
vt 0.625000 -0.000000
vt 0.500000 0.000000
vt 0.500000 0.125000
vt 0.500000 0.375000
vt 0.437500 0.375000
vt 0.437500 0.437500
vt 0.406250 0.125000
vt 0.406250 0.000000
vt 0.375000 0.000000
vt 0.375000 0.125000
vt 0.125000 0.000000
vt 0.125000 0.125000
vt 0.156250 0.156250
vt 0.156250 0.343750
vt 0.343750 0.343750
vt 0.343750 0.156250
vt 0.750000 0.250000
vt 0.812500 0.250000
vt 0.812500 0.000000
vt 0.750000 0.000000
vt 0.812500 0.000000
vt 0.750000 0.000000
vt 0.750000 0.250000
vt 0.812500 0.250000
vt 0.812500 0.000000
vt 0.750000 0.000000
vt 0.750000 0.250000
vt 0.812500 0.250000
vt 0.125000 0.375000
vt 0.375000 0.375000
vt 0.375000 0.125000
vt 0.125000 0.125000
vt 0.125000 0.375000
vt 0.250000 0.500000
vt 0.375000 0.375000
vt 0.125000 0.375000
vt 0.375000 0.375000
vt 0.476562 0.406250
vt 0.476562 0.437500
vt 0.492188 0.437500
vt 0.492188 0.406250
vt 0.437500 0.125000
vt 0.062500 0.375000
vt 0.062500 0.125000
vt 0.000000 0.125000
vt 0.000000 0.375000
vt 0.625000 0.437500
vt 0.625000 0.375000
vt 0.500000 0.437500
vt 0.406250 0.125000
vt 0.406250 0.000000
vt 0.093750 0.125000
vt 0.093750 0.375000
vt 0.375000 0.375000
vt 0.406250 0.375000
vt 0.062500 0.000000
vt -0.000000 0.000000
vt 0.093750 0.000000
vt 0.625000 0.500000
vt 0.625000 0.468750
vt 0.500000 0.468750
vt 0.500000 0.500000
vt 0.093750 0.468750
vt 0.375000 0.437500
vt 0.406250 0.437500
vt 0.437500 0.000000
vt 0.062500 0.437500
vt 0.625000 0.500000
vt 0.625000 0.468750
vt 0.500000 0.468750
vt 0.500000 0.500000
vt 0.062500 0.125000
vt 0.062500 -0.000000
vt 0.000000 -0.000000
vt 0.000000 0.125000
vt 0.093750 0.000000
vt 0.093750 0.125000
vt 0.437500 0.000000
vt 0.437500 0.125000
vt 0.492188 0.406250
vt 0.476562 0.406250
vt 0.476562 0.437500
vt 0.492188 0.437500
vt 0.437500 0.375000
vt 0.500000 0.375000
vt 0.406250 0.375000
vt 0.000000 0.375000
vt 0.062500 0.375000
vt 0.062500 0.437500
vt 0.437500 0.437500
vt 0.406250 0.468750
vt 0.500000 0.437500
vt 0.625000 0.437500
vt 0.625000 0.375000
vt 0.093750 0.468750
vt 0.406250 0.468750
vt 0.125000 0.437500
vt 0.375000 0.437500
vt 0.406250 0.437500
vt 0.093750 0.437500
vt 0.234375 0.281250
vt 0.218750 0.281250
vt 0.218750 0.265625
vt 0.234375 0.265625
vt 0.578125 0.140625
vt 0.562500 0.140625
vt 0.562500 0.125000
vt 0.578125 0.125000
vt 0.578125 0.109375
vt 0.562500 0.109375
vt 0.562500 -0.000000
vt 0.578125 -0.000000
vt 0.015625 1.000000
vt 0.000000 1.000000
vt 0.000000 0.984375
vt 0.015625 0.984375
vt 0.015625 1.000000
vt 0.000000 1.000000
vt 0.000000 0.984375
vt 0.015625 0.984375
vt 0.812500 0.109375
vt 0.796875 0.109375
vt 0.796875 -0.000000
vt 0.812500 -0.000000
vt 0.812500 0.140625
vt 0.796875 0.140625
vt 0.796875 0.125000
vt 0.812500 0.125000
vt 0.234375 0.046875
vt 0.218750 0.046875
vt 0.218750 0.031250
vt 0.234375 0.031250
vt 0.515625 0.281250
vt 0.515625 0.265625
vt 0.531250 0.265625
vt 0.531250 0.281250
vt 0.796875 0.125000
vt 0.796875 0.109375
vt 0.812500 0.109375
vt 0.812500 0.125000
vt 0.796875 -0.000000
vt 0.812500 -0.000000
vt -0.000000 1.000000
vt 0.000000 0.984375
vt 0.015625 0.984375
vt 0.015625 1.000000
vt -0.000000 1.000000
vt -0.000000 0.984375
vt 0.015625 0.984375
vt 0.015625 1.000000
vt 0.562500 0.109375
vt 0.562500 -0.000000
vt 0.578125 -0.000000
vt 0.578125 0.109375
vt 0.562500 0.125000
vt 0.578125 0.125000
vt 0.515625 0.046875
vt 0.515625 0.031250
vt 0.531250 0.031250
vt 0.531250 0.046875
vt 0.906250 0.390625
vt 0.781250 0.390625
vt 0.781250 0.375000
vt 0.906250 0.375000
vt 0.781250 0.218750
vt 0.843750 0.218750
vt 0.828125 0.234375
vt 0.781250 0.234375
vt 0.843750 0.218750
vt 0.781250 0.218750
vt 0.781250 0.203125
vt 0.828125 0.203125
vt 0.781250 0.328125
vt 0.906250 0.328125
vt 0.843750 0.234375
vt 0.781250 0.234375
vt 0.906250 0.406250
vt 0.781250 0.406250
vt 0.781250 0.203125
vt 0.843750 0.203125
vt 0.781250 0.203125
vt 0.843750 0.203125
vt 0.843750 0.218750
vt 0.781250 0.218750
vt 0.906250 0.406250
vt 0.781250 0.406250
vt 0.781250 0.390625
vt 0.906250 0.390625
vt 0.843750 0.234375
vt 0.781250 0.234375
vt 0.781250 0.218750
vt 0.843750 0.218750
vt 0.781250 0.328125
vt 0.906250 0.328125
vt 0.906250 0.375000
vt 0.781250 0.375000
vt 0.781250 0.203125
vt 0.828125 0.203125
vt 0.828125 0.234375
vt 0.781250 0.234375
vt 0.453125 0.468750
vt 0.453125 0.484375
vt 0.437500 0.484375
vt 0.437500 0.468750
vt 0.453125 0.468750
vt 0.468750 0.468750
vt 0.468750 0.484375
vt 0.453125 0.484375
vt 0.468750 0.484375
vt 0.468750 0.468750
vt 0.453125 0.500000
vt 0.468750 0.500000
vt 0.468750 0.609375
vt 0.453125 0.609375
vt 0.437500 0.500000
vt 0.437500 0.484375
vt 0.453125 0.500000
vt 0.468750 0.500000
vt 0.453125 0.609375
vt 0.437500 0.609375
vt 0.468750 0.609375
vt 0.453125 0.500000
vt 0.453125 0.609375
vt 0.468750 0.609375
vt 0.468750 0.500000
vt 0.437500 0.500000
vt 0.437500 0.609375
vt 0.453125 0.484375
vt 0.468750 0.484375
vt 0.437500 0.484375
vt 0.453125 0.500000
vt 0.453125 0.609375
vt 0.468750 0.609375
vt 0.468750 0.500000
vt 0.468750 0.468750
vt 0.453125 0.468750
vt 0.453125 0.468750
vt 0.453125 0.484375
vt 0.468750 0.484375
vt 0.468750 0.468750
vt 0.437500 0.468750
vt 0.437500 0.484375
vn 0.0000 0.0000 1.0000
vn -1.0000 0.0000 0.0000
vn 0.0000 0.0000 -1.0000
vn 0.0000 1.0000 0.0000
vn 1.0000 0.0000 0.0000
vn 0.0000 -1.0000 0.0000
vn 0.0000 0.0014 1.0000
vn -0.7071 0.0000 0.7071
vn -0.7071 0.0000 -0.7071
vn -0.7071 0.7071 0.0000
vn -0.7071 -0.7071 0.0000
vn 0.0000 0.7071 0.7071
vn 0.0000 0.7071 -0.7071
vn 0.7071 0.0000 0.7071
vn 0.7071 0.0000 -0.7071
vn 0.7071 0.7071 0.0000
vn 0.7071 -0.7071 0.0000
usemtl CENTRIFUGE
s off
f 2/1/1 1/2/1 32/3/1 33/4/1
f 5/5/2 1/6/2 17/7/2 19/8/2
f 54/9/2 55/10/2 15/11/2 12/12/2
f 10/13/3 11/14/3 47/15/3 9/16/3
f 10/17/3 9/18/3 24/19/3 25/20/3
f 14/21/4 13/22/4 12/23/4 15/24/4
f 45/25/2 48/26/2 2/27/2 54/28/2
f 57/29/5 56/30/5 13/31/5 14/32/5
f 16/33/6 23/34/6 19/35/6 17/36/6
f 20/37/7 18/38/7 22/39/7 21/40/7
f 20/41/1 21/42/1 26/43/1 27/44/1
f 22/45/2 43/46/2 38/47/2
f 51/48/5 3/49/5 16/50/5 52/51/5
f 3/49/5 7/52/5 23/53/5 16/50/5
f 31/54/2 30/55/2 29/56/2 28/57/2
f 1/58/4 5/59/4 35/60/4 32/61/4
f 6/62/6 2/63/6 33/64/6 34/65/6
f 5/66/3 6/67/3 34/68/3 35/69/3
f 28/57/8 29/56/8 33/70/8 32/71/8
f 30/55/9 31/54/9 35/72/9 34/73/9
f 31/54/10 28/57/10 32/71/10 35/72/10
f 29/56/11 30/55/11 34/73/11 33/70/11
f 3/74/5 4/75/5 36/76/5
f 4/75/5 8/77/5 36/76/5
f 8/77/5 7/78/5 36/76/5
f 7/78/5 3/74/5 36/76/5
f 39/79/6 27/80/6 26/81/6 42/82/6
f 41/83/2 21/42/2 22/45/2 38/47/2
f 40/84/5 18/85/5 20/86/5 37/87/5
f 44/88/12 43/89/12 22/45/12 18/90/12
f 41/91/2 5/5/2 19/8/2 42/92/2
f 7/52/5 8/77/5 40/93/5 37/94/5
f 6/95/2 5/5/2 41/91/2 38/96/2
f 19/35/6 23/34/6 39/79/6 42/82/6
f 37/87/5 20/86/5 27/97/5 39/98/5
f 7/52/5 37/94/5 39/99/5 23/53/5
f 14/100/12 15/101/12 43/102/12 44/103/12
f 57/29/5 14/32/5 44/104/5
f 55/105/2 6/95/2 38/96/2 43/106/2
f 21/42/2 41/83/2 42/107/2 26/43/2
f 44/108/5 18/85/5 40/84/5
f 12/109/13 13/110/13 46/111/13 45/112/13
f 49/113/2 10/114/2 25/115/2 53/116/2
f 1/6/2 49/117/2 53/118/2 17/7/2
f 9/18/5 51/119/5 52/120/5 24/19/5
f 52/121/6 53/122/6 25/123/6 24/124/6
f 16/33/6 17/36/6 53/122/6 52/121/6
f 50/125/5 51/119/5 9/18/5 47/126/5
f 4/75/5 3/49/5 51/48/5 50/127/5
f 49/113/2 48/128/2 11/129/2 10/114/2
f 1/6/2 2/27/2 48/26/2 49/117/2
f 11/129/2 48/128/2 45/130/2
f 50/125/5 47/126/5 46/131/5
f 56/30/5 46/132/5 13/31/5
f 46/133/13 47/126/13 11/134/13 45/135/13
f 2/27/2 6/95/2 55/105/2 54/28/2
f 12/12/2 45/136/2 54/9/2
f 15/11/2 55/10/2 43/137/2
f 8/77/5 4/75/5 56/138/5 57/139/5
f 4/75/5 50/127/5 46/140/5 56/138/5
f 8/77/5 57/139/5 44/141/5 40/93/5
f 79/142/1 110/143/1 109/144/1 78/145/1
f 82/146/5 96/147/5 94/148/5 78/149/5
f 131/150/5 89/151/5 92/152/5 132/153/5
f 87/154/3 86/155/3 124/156/3 88/157/3
f 87/158/3 102/159/3 101/160/3 86/161/3
f 91/162/4 92/163/4 89/164/4 90/165/4
f 122/166/5 131/167/5 79/168/5 125/169/5
f 134/170/2 91/171/2 90/172/2 133/173/2
f 93/174/6 94/175/6 96/176/6 100/177/6
f 97/178/7 98/179/7 99/180/7 95/181/7
f 97/182/1 104/183/1 103/184/1 98/185/1
f 99/186/5 115/187/5 120/188/5
f 128/189/2 129/190/2 93/191/2 80/192/2
f 80/192/2 93/191/2 100/193/2 84/194/2
f 108/195/5 105/196/5 106/197/5 107/198/5
f 78/199/4 109/200/4 112/201/4 82/202/4
f 83/203/6 111/204/6 110/205/6 79/206/6
f 82/207/3 112/208/3 111/209/3 83/210/3
f 105/196/14 109/211/14 110/212/14 106/197/14
f 107/198/15 111/213/15 112/214/15 108/195/15
f 108/195/16 112/214/16 109/211/16 105/196/16
f 106/197/17 110/212/17 111/213/17 107/198/17
f 80/215/2 113/216/2 81/217/2
f 81/217/2 113/216/2 85/218/2
f 85/218/2 113/216/2 84/219/2
f 84/219/2 113/216/2 80/215/2
f 116/220/6 119/221/6 103/222/6 104/223/6
f 118/224/5 115/187/5 99/186/5 98/185/5
f 117/225/2 114/226/2 97/227/2 95/228/2
f 121/229/12 95/230/12 99/186/12 120/231/12
f 118/232/5 119/233/5 96/147/5 82/146/5
f 84/194/2 114/234/2 117/235/2 85/218/2
f 83/236/5 115/237/5 118/232/5 82/146/5
f 96/176/6 119/221/6 116/220/6 100/177/6
f 114/226/2 116/238/2 104/239/2 97/227/2
f 84/194/2 100/193/2 116/240/2 114/234/2
f 91/241/12 121/242/12 120/243/12 92/244/12
f 134/170/2 121/245/2 91/171/2
f 132/246/5 120/247/5 115/237/5 83/236/5
f 98/185/5 103/184/5 119/248/5 118/224/5
f 121/249/2 117/225/2 95/228/2
f 89/250/13 122/251/13 123/252/13 90/253/13
f 126/254/5 130/255/5 102/256/5 87/257/5
f 78/149/5 94/148/5 130/258/5 126/259/5
f 86/161/2 101/160/2 129/260/2 128/261/2
f 129/262/6 101/263/6 102/264/6 130/265/6
f 93/174/6 129/262/6 130/265/6 94/175/6
f 127/266/2 124/267/2 86/161/2 128/261/2
f 81/217/2 127/268/2 128/189/2 80/192/2
f 126/254/5 87/257/5 88/269/5 125/270/5
f 78/149/5 126/259/5 125/169/5 79/168/5
f 88/269/5 122/271/5 125/270/5
f 127/266/2 123/272/2 124/267/2
f 133/173/2 90/172/2 123/273/2
f 123/274/13 122/275/13 88/276/13 124/267/13
f 79/168/5 131/167/5 132/246/5 83/236/5
f 89/151/5 131/150/5 122/277/5
f 92/152/5 120/278/5 132/153/5
f 85/218/2 134/279/2 133/280/2 81/217/2
f 81/217/2 133/280/2 123/281/2 127/268/2
f 85/218/2 117/235/2 121/282/2 134/279/2
usemtl GRAND_DISTILLERY
f 68/283/4 58/284/4 60/285/4 70/286/4
f 70/287/10 60/288/10 62/289/10 72/290/10
f 72/291/2 62/292/2 64/293/2 74/294/2
f 74/295/6 64/296/6 66/297/6 76/298/6
f 65/299/6 75/300/6 77/301/6 67/302/6
f 63/303/2 73/304/2 75/305/2 65/306/2
f 61/307/10 71/308/10 73/309/10 63/310/10
f 59/311/4 69/312/4 71/313/4 61/314/4
f 145/315/4 147/316/4 137/317/4 135/318/4
f 147/319/16 149/320/16 139/321/16 137/322/16
f 149/320/5 151/323/5 141/324/5 139/321/5
f 151/325/6 153/326/6 143/327/6 141/328/6
f 142/329/6 144/330/6 154/331/6 152/332/6
f 140/333/5 142/334/5 152/335/5 150/336/5
f 138/337/16 140/333/16 150/336/16 148/338/16
f 136/339/4 138/340/4 148/341/4 146/342/4
f 160/343/10 159/344/10 158/345/10 156/346/10
f 165/347/1 160/348/1 156/349/1 155/350/1
f 159/351/3 166/352/3 157/353/3 158/354/3
f 157/355/2 155/356/2 156/346/2 158/345/2
f 161/357/3 163/358/3 166/352/3 159/351/3
f 162/359/4 161/360/4 159/344/4 160/343/4
f 164/361/1 162/362/1 160/348/1 165/347/1
f 169/363/3 171/364/3 173/365/3 168/366/3
f 171/367/4 172/368/4 174/369/4 173/370/4
f 172/371/1 170/372/1 167/373/1 174/374/1
f 176/375/5 178/376/5 177/377/5 175/378/5
f 174/374/1 167/373/1 176/379/1 175/380/1
f 168/366/3 173/365/3 177/381/3 178/382/3
f 173/370/16 174/369/16 175/378/16 177/377/16
f 179/383/4 183/384/4 185/385/4 181/386/4
f 182/387/3 181/388/3 185/389/3 186/390/3
f 184/391/1 183/384/1 179/383/1 180/392/1
f 186/393/2 185/394/2 189/395/2 190/396/2
f 185/397/4 183/398/4 187/399/4
f 183/384/14 184/391/14 188/400/14 187/399/14
f 185/397/4 187/399/4 191/401/4 189/402/4
f 187/399/5 188/400/5 192/403/5 191/401/5
f 198/404/2 194/405/2 193/406/2 197/407/2
f 200/408/4 196/409/4 194/405/4 198/404/4
f 202/410/8 198/404/8 197/407/8 201/411/8
f 200/408/4 198/404/4 202/412/4
f 199/413/5 195/414/5 196/415/5 200/416/5
f 201/411/1 205/417/1 206/418/1 202/410/1
f 203/419/3 199/420/3 200/421/3 204/422/3
f 206/418/4 204/423/4 200/424/4 202/410/4
