# Blender v2.80 (sub 75) OBJ File: 'chem devices.blend'
# www.blender.org
mtllib grand_circle_fabrication_vessel.mtl
o FLOATING_MATERIA_VESSEL_Cube.092
v -0.062500 0.093750 0.125000
v -0.062500 0.281250 0.125000
v -0.125000 0.093750 -0.062500
v -0.125000 0.281250 -0.062500
v 0.125000 0.093750 0.062500
v 0.125000 0.281250 0.062500
v 0.062500 0.093750 -0.125000
v 0.062500 0.281250 -0.125000
v -0.156250 0.062500 -0.093750
v -0.156250 0.062500 0.093750
v -0.062500 0.093750 -0.125000
v -0.062500 0.281250 -0.125000
v 0.062500 0.093750 0.125000
v 0.062500 0.281250 0.125000
v -0.125000 0.093750 0.062500
v -0.125000 0.281250 0.062500
v 0.125000 0.093750 -0.062500
v 0.125000 0.281250 -0.062500
v -0.093750 0.062500 0.156250
v -0.093750 0.062500 -0.156250
v 0.093750 0.062500 0.156250
v 0.093750 0.062500 -0.156250
v 0.156250 0.062500 0.093750
v 0.156250 0.062500 -0.093750
v -0.093750 0.093750 -0.156250
v -0.156250 0.093750 -0.093750
v -0.156250 0.093750 0.093750
v -0.093750 0.093750 0.156250
v 0.093750 0.093750 0.156250
v 0.093750 0.093750 -0.156250
v 0.156250 0.093750 -0.093750
v 0.156250 0.093750 0.093750
v 0.093750 0.000000 0.093750
v -0.093750 0.000000 0.093750
v 0.093750 0.000000 -0.093750
v -0.093750 0.000000 -0.093750
v 0.000000 -0.062500 0.088388
v 0.088388 -0.062500 0.000000
v -0.088388 -0.062500 0.000000
v 0.000000 -0.062500 -0.088388
v -0.088388 0.000000 0.000000
v 0.000000 0.000000 0.088388
v 0.088388 0.000000 0.000000
v 0.000000 0.000000 -0.088388
v -0.031250 -0.187500 0.031250
v -0.031250 -0.062500 0.031250
v -0.031250 -0.187500 -0.031250
v -0.031250 -0.062500 -0.031250
v 0.031250 -0.187500 0.031250
v 0.031250 -0.062500 0.031250
v 0.031250 -0.187500 -0.031250
v 0.031250 -0.062500 -0.031250
v 0.000000 -0.250000 0.000000
v 0.062500 0.343750 0.062500
v -0.062500 0.343750 0.062500
v -0.062500 0.343750 -0.062500
v 0.062500 0.343750 -0.062500
v 0.031250 0.062500 0.031250
v -0.031250 0.062500 0.031250
v 0.031250 0.062500 -0.031250
v -0.031250 0.062500 -0.031250
v 0.093750 0.093750 0.093750
v -0.093750 0.093750 0.093750
v 0.093750 0.093750 -0.093750
v -0.093750 0.093750 -0.093750
v -0.031250 0.343750 -0.031250
v 0.031250 0.343750 -0.031250
v 0.031250 0.343750 0.031250
v -0.031250 0.343750 0.031250
v 0.031250 0.375000 -0.031250
v 0.031250 0.375000 0.031250
v -0.031250 0.375000 0.031250
v -0.031250 0.375000 -0.031250
v 0.062500 0.375000 -0.062500
v 0.062500 0.375000 0.062500
v -0.062500 0.375000 0.062500
v -0.062500 0.375000 -0.062500
v 0.062500 0.343750 -0.062500
v 0.062500 0.343750 0.062500
v -0.062500 0.343750 0.062500
v -0.062500 0.343750 -0.062500
v -0.062500 0.093750 0.125000
v -0.062500 0.281250 0.125000
v -0.125000 0.093750 -0.062500
v -0.125000 0.281250 -0.062500
v 0.125000 0.093750 0.062500
v 0.125000 0.281250 0.062500
v 0.062500 0.093750 -0.125000
v 0.062500 0.281250 -0.125000
v -0.062500 0.093750 -0.125000
v -0.062500 0.281250 -0.125000
v 0.062500 0.093750 0.125000
v 0.062500 0.281250 0.125000
v -0.125000 0.093750 0.062500
v -0.125000 0.281250 0.062500
v 0.125000 0.093750 -0.062500
v 0.125000 0.281250 -0.062500
v 0.062500 0.343750 0.062500
v -0.062500 0.343750 0.062500
v -0.062500 0.343750 -0.062500
v 0.062500 0.343750 -0.062500
vt 0.218750 0.125000
vt 0.218750 0.093750
vt 0.250000 0.093750
vt 0.843750 0.468750
vt 0.875000 0.437500
vt 0.875000 0.468750
vt 0.250000 0.000000
vt 0.250000 0.093750
vt 0.218750 0.093750
vt 0.218750 0.000000
vt 0.250000 0.000000
vt 0.250000 0.093750
vt 0.218750 0.093750
vt 0.218750 0.000000
vt 0.250000 0.000000
vt 0.218750 0.000000
vt 0.250000 0.000000
vt 0.250000 0.093750
vt 0.218750 0.093750
vt 0.218750 0.000000
vt 0.968750 0.468750
vt 0.968750 0.437500
vt 0.968750 0.562500
vt 1.000000 0.562500
vt 0.968750 0.593750
vt 0.875000 0.562500
vt 0.875000 0.593750
vt 0.843750 0.562500
vt 0.968750 0.562500
vt 0.968750 0.593750
vt 0.968750 0.468750
vt 0.968750 0.437500
vt 1.000000 0.468750
vt 0.843750 0.000000
vt 0.875000 0.000000
vt 0.875000 0.031250
vt 0.843750 0.031250
vt 0.968750 0.000000
vt 0.875000 0.000000
vt 0.875000 0.031250
vt 0.968750 0.031250
vt 0.843750 0.000000
vt 0.875000 0.000000
vt 0.875000 0.031250
vt 0.843750 0.031250
vt 0.843750 0.000000
vt 0.750000 0.000000
vt 0.750000 0.031250
vt 0.843750 0.031250
vt 0.968750 0.000000
vt 1.000000 0.000000
vt 1.000000 0.031250
vt 0.968750 0.031250
vt 0.750000 0.000000
vt 0.750000 0.031250
vt 0.718750 0.000000
vt 0.718750 0.031250
vt 0.875000 0.593750
vt 0.875000 0.562500
vt 1.000000 0.468750
vt 0.843750 0.562500
vt 0.875000 0.468750
vt 0.968750 0.468750
vt 0.968750 0.562500
vt 0.875000 0.562500
vt 0.218750 0.125000
vt 0.250000 0.187500
vt 0.218750 0.187500
vt 0.218750 0.125000
vt 0.250000 0.125000
vt 0.218750 0.125000
vt 0.250000 0.125000
vt 0.250000 0.187500
vt 0.218750 0.187500
vt 0.218750 0.125000
vt 0.250000 0.125000
vt 0.250000 0.187500
vt 0.218750 0.187500
vt 0.218750 0.125000
vt 0.218750 0.125000
vt 0.250000 0.125000
vt 0.250000 0.187500
vt 0.218750 0.187500
vt 0.218750 0.125000
vt 0.281250 0.937500
vt 0.343750 0.937500
vt 0.343750 1.000000
vt 0.281250 1.000000
vt 0.343750 0.906250
vt 0.281250 0.906250
vt 0.281250 0.937500
vt 0.343750 0.937500
vt 0.343750 0.906250
vt 0.281250 0.906250
vt 0.281250 0.937500
vt 0.343750 0.937500
vt 1.000000 0.562500
vt 0.875000 0.468750
vt 0.875000 0.437500
vt 0.937500 0.500000
vt 0.937500 0.531250
vt 0.906250 0.531250
vt 0.906250 0.500000
vt 0.843750 0.468750
vt 0.343750 0.281250
vt 0.281250 0.281250
vt 0.281250 0.312500
vt 0.343750 0.312500
vt 0.343750 0.281250
vt 0.343750 0.312500
vt 0.281250 0.281250
vt 0.281250 0.312500
vt 0.234375 0.296875
vt 0.234375 0.265625
vt 0.218750 0.250000
vt 0.218750 0.312500
vt 0.234375 0.296875
vt 0.218750 0.312500
vt 0.265625 0.296875
vt 0.281250 0.312500
vt 0.281250 0.343750
vt 0.281250 0.312500
vt 0.343750 0.312500
vt 0.343750 0.343750
vt 0.343750 0.343750
vt 0.343750 0.312500
vt 0.281250 0.343750
vt 0.281250 0.312500
vt 0.234375 0.328125
vt 0.203125 0.328125
vt 0.187500 0.343750
vt 0.250000 0.343750
vt 0.203125 0.328125
vt 0.187500 0.343750
vt 0.203125 0.296875
vt 0.187500 0.281250
vt 0.187500 0.125000
vt 0.218750 0.093750
vt 0.187500 0.093750
vt 0.218750 0.000000
vt 0.187500 0.000000
vt 0.187500 0.093750
vt 0.218750 0.093750
vt 0.218750 0.000000
vt 0.187500 0.000000
vt 0.187500 0.093750
vt 0.218750 0.093750
vt 0.218750 0.000000
vt 0.187500 0.000000
vt 0.218750 0.000000
vt 0.187500 0.000000
vt 0.187500 0.093750
vt 0.218750 0.093750
vt 0.187500 0.125000
vt 0.218750 0.187500
vt 0.218750 0.125000
vt 0.187500 0.125000
vt 0.187500 0.187500
vt 0.187500 0.125000
vt 0.187500 0.187500
vt 0.218750 0.187500
vt 0.218750 0.125000
vt 0.187500 0.125000
vt 0.218750 0.125000
vt 0.187500 0.125000
vt 0.187500 0.187500
vt 0.218750 0.187500
vt 0.187500 0.125000
vt 0.218750 0.125000
vt 0.187500 0.125000
vt 0.187500 0.187500
vt 0.218750 0.187500
vt 0.812500 0.625000
vt 0.812500 0.750000
vt 0.750000 0.750000
vt 0.750000 0.625000
vt 0.937500 0.625000
vt 0.937500 0.750000
vt 0.875000 0.750000
vt 0.875000 0.625000
vt 0.812500 0.625000
vt 0.812500 0.750000
vt 0.750000 0.750000
vt 0.750000 0.625000
vt 0.687500 0.625000
vt 0.687500 0.750000
vt 0.625000 0.750000
vt 0.625000 0.625000
vt 0.687500 0.562500
vt 0.937500 0.562500
vt 0.750000 0.562500
vn -0.5774 0.5774 0.5774
vn -0.5774 -0.5774 -0.5774
vn -0.7071 0.0000 -0.7071
vn 0.7071 0.0000 0.7071
vn -0.7071 0.0000 0.7071
vn 0.7071 0.0000 -0.7071
vn 0.0000 -0.7071 -0.7071
vn 0.5774 -0.5774 0.5774
vn 0.0000 1.0000 0.0000
vn 0.0000 0.0000 1.0000
vn 1.0000 0.0000 0.0000
vn 0.0000 0.0000 -1.0000
vn -1.0000 0.0000 0.0000
vn 0.0000 -0.7071 0.7071
vn 0.7071 -0.7071 0.0000
vn -0.5774 -0.5774 0.5774
vn 0.0000 -1.0000 0.0000
vn 0.5774 -0.5774 -0.5774
vn -0.7071 -0.7071 0.0000
vn 0.5774 0.5774 -0.5774
vn 0.7071 0.7071 0.0000
vn -0.7071 0.7071 -0.0000
vn -0.5774 0.5774 -0.5774
vn 0.0000 0.7071 0.7071
vn 0.5774 0.5774 0.5774
vn 0.0000 0.7071 -0.7071
vn -0.0000 0.8944 -0.4472
vn -0.4472 0.8944 0.0000
vn 0.4472 0.8944 -0.0000
vn 0.0000 0.8944 0.4472
vn 0.0000 -0.4472 0.8944
vn 0.0000 -0.4472 -0.8944
vn -0.8944 -0.4472 0.0000
vn 0.8944 -0.4472 0.0000
usemtl GRAND_CIRCLE_FABRICATION
s off
f 55/1/1 16/2/1 2/3/1
f 9/4/2 20/5/2 36/6/2
f 3/7/3 4/8/3 12/9/3 11/10/3
f 5/11/4 6/12/4 14/13/4 13/14/4
f 1/15/5 2/3/5 16/2/5 15/16/5
f 7/17/6 8/18/6 18/19/6 17/20/6
f 35/21/7 36/6/7 20/5/7 22/22/7
f 33/23/8 23/24/8 21/25/8
f 65/26/9 25/27/9 26/28/9
f 64/29/9 30/30/9 25/27/9 65/26/9
f 62/31/9 29/32/9 32/33/9
f 20/34/3 9/35/3 26/36/3 25/37/3
f 19/38/10 21/39/10 29/40/10 28/41/10
f 21/42/4 23/43/4 32/44/4 29/45/4
f 23/46/11 24/47/11 31/48/11 32/49/11
f 10/50/5 19/51/5 28/52/5 27/53/5
f 22/54/12 20/34/12 25/37/12 30/55/12
f 9/35/13 10/50/13 27/53/13 26/36/13
f 24/56/6 22/54/6 30/55/6 31/57/6
f 21/25/14 19/58/14 34/59/14 33/23/14
f 24/60/15 23/24/15 33/23/15 35/21/15
f 19/58/16 10/61/16 34/59/16
f 33/62/17 34/63/17 36/64/17 35/65/17
f 22/22/18 24/60/18 35/21/18
f 10/61/19 9/4/19 36/6/19 34/59/19
f 57/66/20 18/19/20 8/18/20
f 54/67/21 6/68/21 18/69/21 57/70/21
f 16/71/22 55/72/22 56/73/22 4/74/22
f 4/8/23 56/75/23 12/9/23
f 54/76/24 55/77/24 2/78/24 14/79/24
f 6/12/25 54/80/25 14/13/25
f 56/81/26 57/82/26 8/83/26 12/84/26
f 37/85/17 39/86/17 40/87/17 38/88/17
f 38/89/6 40/90/6 44/91/6 43/92/6
f 39/93/5 37/94/5 42/95/5 41/96/5
f 40/90/3 39/93/3 41/96/3 44/91/3
f 37/94/4 38/89/4 43/92/4 42/95/4
f 64/29/9 62/31/9 32/33/9 31/97/9
f 29/32/9 62/31/9 63/98/9 28/99/9
f 58/100/9 60/101/9 61/102/9 59/103/9
f 28/99/9 63/98/9 27/104/9
f 30/30/9 64/29/9 31/97/9
f 63/98/9 65/26/9 26/28/9 27/104/9
f 58/100/27 59/103/27 63/98/27 62/31/27
f 60/101/28 58/100/28 62/31/28 64/29/28
f 59/103/29 61/102/29 65/26/29 63/98/29
f 61/102/30 60/101/30 64/29/30 65/26/30
f 81/105/13 80/106/13 76/107/13 77/108/13
f 80/106/10 79/109/10 75/110/10 76/107/10
f 78/111/12 81/105/12 77/108/12 74/112/12
f 79/109/11 78/111/11 74/112/11 75/110/11
f 70/113/9 71/114/9 75/115/9 74/116/9
f 71/114/9 72/117/9 76/118/9 75/115/9
f 72/117/9 73/119/9 77/120/9 76/118/9
f 73/119/9 70/113/9 74/116/9 77/120/9
f 70/121/13 67/122/13 68/123/13 71/124/13
f 73/125/10 66/126/10 67/122/10 70/121/10
f 72/127/11 69/128/11 66/126/11 73/125/11
f 68/129/17 67/130/17 78/131/17 79/132/17
f 69/133/17 68/129/17 79/132/17 80/134/17
f 66/135/17 69/133/17 80/134/17 81/136/17
f 67/130/17 66/135/17 81/136/17 78/131/17
f 71/124/12 68/123/12 69/128/12 72/127/12
f 99/137/18 83/138/18 95/139/18
f 84/140/4 90/141/4 91/142/4 85/143/4
f 86/144/3 92/145/3 93/146/3 87/147/3
f 82/148/6 94/149/6 95/139/6 83/138/6
f 88/150/5 96/151/5 97/152/5 89/153/5
f 101/154/16 89/153/16 97/152/16
f 98/155/19 101/156/19 97/157/19 87/158/19
f 95/159/15 85/160/15 100/161/15 99/162/15
f 85/143/8 91/142/8 100/163/8
f 98/164/7 93/165/7 83/166/7 99/167/7
f 87/147/2 93/146/2 98/168/2
f 100/169/14 91/170/14 89/171/14 101/172/14
usemtl CHIMERITE
f 45/173/13 46/174/13 48/175/13 47/176/13
f 47/177/12 48/178/12 52/179/12 51/180/12
f 51/181/11 52/182/11 50/183/11 49/184/11
f 49/185/10 50/186/10 46/187/10 45/188/10
f 49/185/31 45/188/31 53/189/31
f 47/177/32 51/180/32 53/190/32
f 45/173/33 47/176/33 53/191/33
f 51/181/34 49/184/34 53/191/34
