# Blender v2.80 (sub 75) OBJ File: 'chem devices.blend'
# www.blender.org
mtllib grand_distillery_plug_base.mtl
o GRAND_DISTILLERY_PLUG_BASE_Plane.003
v 1.750000 0.500000 1.000000
v 1.750000 0.500000 0.000000
v 1.812500 0.500000 1.000000
v 1.812500 0.500000 0.000000
v 1.875000 0.437500 1.000000
v 1.875000 0.437500 0.000000
v 1.875000 0.000000 1.000000
v 1.875000 0.000000 0.000000
v 1.750000 0.000000 1.000000
v 1.750000 0.000000 0.000000
v -0.750000 0.500000 1.000000
v -0.750000 0.500000 0.000000
v -0.812500 0.500000 1.000000
v -0.812500 0.500000 0.000000
v -0.875000 0.437500 1.000000
v -0.875000 0.437500 0.000000
v -0.875000 0.000000 1.000000
v -0.875000 0.000000 0.000000
v -0.750000 0.000000 1.000000
v -0.750000 0.000000 0.000000
v -0.875000 0.312500 0.687500
v -0.875000 0.312500 0.312500
v -0.875000 0.125000 0.312500
v -0.875000 0.125000 0.687500
v -0.937500 0.140625 0.687500
v -0.937500 0.140625 0.312500
v 1.875000 0.312500 0.312500
v 1.875000 0.312500 0.687500
v 1.875000 0.125000 0.687500
v 1.875000 0.125000 0.312500
v 1.937500 0.140625 0.312500
v 1.937500 0.140625 0.687500
vt 0.234375 0.031250
vt 0.234375 0.281250
vt 0.218750 0.281250
vt 0.218750 0.031250
vt 0.812500 0.125000
vt 0.562500 0.125000
vt 0.562500 0.109375
vt 0.812500 0.109375
vt 0.562500 -0.000000
vt 0.812500 -0.000000
vt -0.000000 1.000000
vt 0.000000 0.984375
vt 0.015625 0.984375
vt 0.015625 1.000000
vt 0.515625 0.031250
vt 0.531250 0.031250
vt 0.531250 0.281250
vt 0.515625 0.281250
vt 0.562500 0.140625
vt 0.562500 0.125000
vt 0.812500 0.125000
vt 0.812500 0.140625
vt 0.562500 0.109375
vt 0.562500 -0.000000
vt 0.812500 -0.000000
vt 0.812500 0.109375
vt 0.015625 1.000000
vt 0.000000 1.000000
vt -0.000000 0.984375
vt 0.015625 0.984375
vt 0.812500 0.531250
vt 0.906250 0.500000
vt 0.906250 0.531250
vt 0.906250 0.375000
vt 0.906250 0.343750
vt 0.812500 0.343750
vt 0.437500 0.468750
vt 0.468750 0.468750
vt 0.468750 0.437500
vt 0.437500 0.437500
vt 0.906250 0.531250
vt 0.812500 0.531250
vt 0.906250 0.500000
vt 0.906250 0.531250
vt 0.906250 0.375000
vt 0.906250 0.343750
vt 0.812500 0.343750
vt 0.437500 0.468750
vt 0.468750 0.468750
vt 0.468750 0.437500
vt 0.437500 0.437500
vt 0.906250 0.531250
vn 0.0000 1.0000 0.0000
vn 0.7071 0.7071 0.0000
vn 1.0000 0.0000 0.0000
vn 0.0000 -1.0000 0.0000
vn -0.7071 0.7071 0.0000
vn -1.0000 0.0000 0.0000
vn -0.0000 0.0000 1.0000
vn 0.0000 0.0000 -1.0000
vn -0.2425 -0.9701 0.0000
vn -0.9398 0.3417 0.0000
vn 0.2425 -0.9701 0.0000
vn 0.9398 0.3417 0.0000
usemtl GRAND_DISTILLERY
s off
f 2/1/1 1/2/1 3/3/1 4/4/1
f 4/5/2 3/6/2 5/7/2 6/8/2
f 6/8/3 5/7/3 7/9/3 8/10/3
f 8/11/4 7/12/4 9/13/4 10/14/4
f 12/15/1 14/16/1 13/17/1 11/18/1
f 14/19/5 16/20/5 15/21/5 13/22/5
f 16/23/6 18/24/6 17/25/6 15/26/6
f 18/27/4 20/28/4 19/29/4 17/30/4
usemtl CENTRIFUGE
f 21/31/7 25/32/7 24/33/7
f 23/34/8 26/35/8 22/36/8
f 25/37/9 26/38/9 23/39/9 24/40/9
f 21/31/10 22/36/10 26/35/10 25/41/10
f 27/42/8 31/43/8 30/44/8
f 29/45/7 32/46/7 28/47/7
f 31/48/11 32/49/11 29/50/11 30/51/11
f 27/42/12 28/47/12 32/46/12 31/52/12
