# Blender v2.80 (sub 75) OBJ File: 'chem devices.blend'
# www.blender.org
mtllib hefty_hopper.mtl
o HEFTY_HOPPER_Cube.188
v 0.125000 0.875000 0.875000
v 0.125000 1.000000 0.875000
v 0.875000 0.875000 0.875000
v -0.000000 0.875000 1.000000
v 0.375000 0.250000 0.625000
v 0.625000 0.825000 0.500000
v 0.625000 0.250000 0.625000
v 0.875000 1.000000 0.125000
v 0.500000 0.825000 0.500222
v 0.500111 0.062500 0.562500
v 0.375000 0.125000 0.625000
v 0.500111 0.000000 0.562500
v 0.625000 0.125000 0.625000
v -0.000000 1.000000 1.000000
v 0.500332 0.000000 0.687500
v 0.500332 0.125000 0.687500
v 0.875000 0.875000 0.125000
v 0.875000 1.000000 0.875000
v 0.125000 0.937500 0.875000
v 0.500000 0.825000 0.625000
v 0.500665 0.937500 0.875000
v 0.312500 0.125000 0.687500
v 0.500665 1.000000 0.875000
v 0.687500 0.125000 0.687500
v 0.500222 0.125000 0.625000
v 0.437500 0.000000 0.562500
v 0.500222 0.250000 0.625000
v 0.500665 0.750000 0.875000
v 0.312500 0.000000 0.687500
v 0.500665 0.875000 0.875000
v 0.687500 0.000000 0.687500
v 0.500886 1.000000 1.000000
v 0.500886 0.875000 1.000000
v 1.000000 0.875000 1.000000
v 1.000000 0.875000 0.000000
v 0.499778 0.825000 0.375000
v 0.875000 0.750000 0.875000
v 0.875000 0.750000 0.125000
v 0.562500 0.062500 0.499889
v 0.562500 0.000000 0.499889
v 1.000000 1.000000 1.000000
v 0.687500 0.000000 0.499668
v 0.687500 0.125000 0.499668
v 1.000000 1.000000 0.000000
v 0.625000 0.825000 0.625000
v 0.625000 0.825000 0.375000
v 0.875000 0.937500 0.875000
v 0.875000 0.937500 0.125000
v 0.875000 0.937500 0.499335
v 0.875000 1.000000 0.499335
v 0.687500 0.125000 0.312500
v 0.625000 0.125000 0.499778
v 0.562500 0.000000 0.562500
v 0.625000 0.250000 0.499778
v 0.562500 0.000000 0.437500
v 0.875000 0.750000 0.499335
v 0.875000 0.875000 0.499335
v 0.687500 0.000000 0.312500
v 1.000000 1.000000 0.499114
v 0.562500 0.062500 0.562500
v 1.000000 0.875000 0.499114
v 0.562500 0.062500 0.437500
v 0.500000 0.125000 0.500000
v 0.125000 1.000000 0.125000
v -0.000000 0.875000 0.000000
v 0.625000 0.250000 0.375000
v 0.375000 0.825000 0.500222
v 0.499889 0.062500 0.437500
v 0.625000 0.125000 0.375000
v 0.499889 0.000000 0.437500
v 0.375000 0.125000 0.375000
v 0.499668 0.000000 0.312500
v 0.499668 0.125000 0.312500
v 0.125000 0.875000 0.125000
v 0.499335 0.937500 0.125000
v 0.499335 1.000000 0.125000
v 0.499778 0.125000 0.375000
v 0.499778 0.250000 0.375000
v 0.437500 0.000000 0.437500
v 0.499335 0.750000 0.125000
v 0.499335 0.875000 0.125000
v 0.499114 1.000000 0.000000
v 0.499114 0.875000 0.000000
v 0.437500 0.062500 0.437500
v 0.375000 0.250000 0.375000
v 0.125000 0.750000 0.125000
v 0.125000 0.750000 0.875000
v 0.437500 0.062500 0.500111
v 0.437500 0.000000 0.500111
v -0.000000 1.000000 0.000000
v 0.312500 0.000000 0.500332
v 0.312500 0.125000 0.500332
v 0.375000 0.825000 0.375000
v 0.375000 0.825000 0.625000
v 0.125000 0.937500 0.125000
v 0.125000 0.937500 0.500665
v 0.312500 0.125000 0.312500
v 0.125000 1.000000 0.500665
v 0.375000 0.125000 0.500222
v 0.375000 0.250000 0.500222
v 0.125000 0.750000 0.500665
v 0.312500 0.000000 0.312500
v 0.125000 0.875000 0.500665
v -0.000000 1.000000 0.500886
v -0.000000 0.875000 0.500886
v 0.437500 0.062500 0.562500
vt 0.812500 0.875000
vt 1.000000 0.875000
vt 1.000000 0.812500
vt 0.812500 0.812500
vt 1.000000 0.937500
vt 1.000000 1.000000
vt 0.750000 1.000000
vt 0.750000 0.937500
vt 0.812500 0.875000
vt 0.812500 0.812500
vt 0.750000 0.937500
vt 0.718750 0.906250
vt 0.781250 0.906250
vt 0.781250 0.843750
vt 0.718750 0.843750
vt 0.781250 0.906250
vt 0.781250 0.843750
vt 0.593750 0.687500
vt 0.531250 0.687500
vt 0.531250 0.937500
vt 0.718750 0.937500
vt 0.593750 0.687500
vt 0.718750 0.937500
vt 0.812500 0.750000
vt 1.000000 0.750000
vt 1.000000 0.687500
vt 0.750000 0.687500
vt 0.812500 0.812500
vt 0.750000 0.812500
vt 0.750000 0.750000
vt 0.812500 0.750000
vt 0.812500 0.750000
vt 0.750000 0.687500
vt 1.000000 0.875000
vt 1.000000 0.812500
vt 0.812500 0.781250
vt 1.000000 0.781250
vt 0.812500 0.781250
vt 0.718750 0.593750
vt 0.656250 0.593750
vt 0.656250 0.468750
vt 0.843750 0.468750
vt 0.718750 0.593750
vt 0.843750 0.468750
vt 0.812500 0.812500
vt 0.718750 0.812500
vt 0.812500 0.812500
vt 0.656250 0.812500
vt 0.750000 0.812500
vt 0.750000 0.750000
vt 0.656250 0.750000
vt 0.750000 0.812500
vt 0.750000 0.750000
vt 0.687500 0.687500
vt 0.656250 0.687500
vt 0.687500 0.687500
vt 0.718750 1.000000
vt 0.750000 1.000000
vt 0.750000 0.968750
vt 0.718750 0.968750
vt 0.750000 1.000000
vt 0.750000 0.968750
vt 1.000000 0.937500
vt 1.000000 1.000000
vt 0.750000 1.000000
vt 0.812500 0.875000
vt 0.812500 0.812500
vt 0.718750 0.906250
vt 0.750000 0.937500
vt 0.718750 0.906250
vt 0.718750 0.843750
vt 0.781250 0.906250
vt 0.781250 0.843750
vt 0.531250 0.687500
vt 0.531250 0.937500
vt 0.593750 0.687500
vt 0.718750 0.937500
vt 0.812500 0.750000
vt 1.000000 0.750000
vt 1.000000 0.687500
vt 0.750000 0.687500
vt 0.812500 0.812500
vt 0.750000 0.750000
vt 0.812500 0.750000
vt 0.812500 0.781250
vt 1.000000 0.781250
vt 0.718750 0.593750
vt 0.656250 0.593750
vt 0.656250 0.468750
vt 0.843750 0.468750
vt 0.718750 0.812500
vt 0.812500 0.812500
vt 0.656250 0.812500
vt 0.656250 0.750000
vt 0.750000 0.812500
vt 0.750000 0.750000
vt 0.656250 0.687500
vt 0.687500 0.687500
vt 0.718750 1.000000
vt 0.718750 0.968750
vt 0.750000 1.000000
vt 0.750000 0.968750
vt 0.750000 1.000000
vt 0.812500 0.875000
vt 1.000000 0.875000
vt 1.000000 0.812500
vt 0.812500 0.812500
vt 1.000000 0.937500
vt 1.000000 1.000000
vt 0.750000 0.937500
vt 0.718750 0.906250
vt 0.718750 0.843750
vt 0.781250 0.906250
vt 0.781250 0.843750
vt 0.531250 0.687500
vt 0.531250 0.937500
vt 0.593750 0.687500
vt 0.718750 0.937500
vt 0.812500 0.750000
vt 1.000000 0.750000
vt 1.000000 0.687500
vt 0.750000 0.687500
vt 0.812500 0.812500
vt 0.750000 0.750000
vt 0.812500 0.750000
vt 1.000000 0.875000
vt 1.000000 0.812500
vt 0.812500 0.781250
vt 1.000000 0.781250
vt 0.718750 0.593750
vt 0.656250 0.593750
vt 0.656250 0.468750
vt 0.843750 0.468750
vt 0.718750 0.812500
vt 0.812500 0.812500
vt 0.656250 0.812500
vt 0.656250 0.750000
vt 0.750000 0.812500
vt 0.750000 0.750000
vt 0.656250 0.687500
vt 0.687500 0.687500
vt 0.718750 1.000000
vt 0.718750 0.968750
vt 0.750000 1.000000
vt 0.750000 0.968750
vt 1.000000 0.937500
vt 1.000000 1.000000
vt 0.750000 1.000000
vt 0.718750 0.906250
vt 0.718750 0.843750
vt 0.531250 0.687500
vt 0.531250 0.937500
vt 1.000000 0.750000
vt 1.000000 0.687500
vt 0.812500 0.812500
vt 0.750000 0.750000
vt 0.812500 0.750000
vt 1.000000 0.781250
vt 0.656250 0.593750
vt 0.656250 0.468750
vt 0.718750 0.812500
vt 0.656250 0.812500
vt 0.656250 0.750000
vt 0.656250 0.687500
vt 0.718750 1.000000
vt 0.718750 0.968750
vn 0.0000 0.0000 1.0000
vn 0.0000 -1.0000 0.0000
vn -0.0000 -0.4472 0.8944
vn 0.0000 1.0000 0.0000
vn 1.0000 0.0000 0.0000
vn 0.0000 0.0000 -1.0000
vn 0.0000 0.9119 -0.4104
vn 0.0000 -0.7071 -0.7071
vn 0.8944 -0.4472 0.0000
vn -1.0000 0.0000 0.0000
vn -0.4104 0.9119 -0.0000
vn -0.7071 -0.7071 0.0000
vn -0.0000 -0.4472 -0.8944
vn -0.0000 0.9119 0.4104
vn 0.0000 -0.7071 0.7071
vn -0.8944 -0.4472 0.0000
vn 0.4104 0.9119 -0.0000
vn 0.7071 -0.7071 -0.0000
usemtl EXALTATION_CRUCIBLE
s off
f 3/1/1 30/2/1 28/3/1 37/4/1
f 33/5/1 32/6/1 14/7/1 4/8/1
f 30/2/1 1/9/1 87/10/1 28/3/1
f 1/9/2 30/2/2 33/5/2 4/8/2
f 30/2/2 3/1/2 34/11/2 33/5/2
f 27/12/1 5/13/1 11/14/1 25/15/1
f 7/16/1 27/12/1 25/15/1 13/17/1
f 5/18/3 27/19/3 28/20/3 87/21/3
f 27/19/3 7/22/3 37/23/3 28/20/3
f 18/24/4 23/25/4 32/26/4 41/27/4
f 6/28/4 9/29/4 20/30/4 45/31/4
f 23/25/4 2/32/4 14/33/4 32/26/4
f 57/34/5 3/1/5 37/4/5 56/35/5
f 23/25/6 18/24/6 47/36/6 21/37/6
f 2/32/6 23/25/6 21/37/6 19/38/6
f 45/39/7 20/40/7 21/41/7 47/42/7
f 20/40/7 94/43/7 19/44/7 21/41/7
f 25/15/4 11/14/4 22/45/4 16/46/4
f 13/17/4 25/15/4 16/46/4 24/47/4
f 16/48/1 22/49/1 29/50/1 15/51/1
f 24/52/1 16/48/1 15/51/1 31/53/1
f 26/54/2 12/55/2 15/51/2 29/50/2
f 12/55/2 53/56/2 31/53/2 15/51/2
f 12/57/6 26/58/6 106/59/6 10/60/6
f 53/61/6 12/57/6 10/60/6 60/62/6
f 61/63/5 59/64/5 41/65/5 34/11/5
f 17/66/5 57/34/5 56/35/5 38/67/5
f 10/60/8 106/59/8 63/68/8
f 34/11/1 41/65/1 32/6/1 33/5/1
f 60/62/8 10/60/8 63/68/8
f 3/1/2 57/34/2 61/63/2 34/11/2
f 57/34/2 17/66/2 35/69/2 61/63/2
f 54/70/5 7/16/5 13/17/5 52/71/5
f 66/72/5 54/70/5 52/71/5 69/73/5
f 7/22/9 54/74/9 56/75/9 37/23/9
f 54/74/9 66/76/9 38/77/9 56/75/9
f 8/78/4 50/79/4 59/80/4 44/81/4
f 36/82/4 9/29/4 6/83/4 46/84/4
f 50/79/4 18/24/4 41/27/4 59/80/4
f 50/79/10 8/78/10 48/85/10 49/86/10
f 18/24/10 50/79/10 49/86/10 47/36/10
f 46/87/11 6/88/11 49/89/11 48/90/11
f 6/88/11 45/39/11 47/42/11 49/89/11
f 52/71/4 13/17/4 24/47/4 43/91/4
f 69/73/4 52/71/4 43/91/4 51/92/4
f 43/93/5 24/52/5 31/53/5 42/94/5
f 51/95/5 43/93/5 42/94/5 58/96/5
f 53/56/2 40/97/2 42/94/2 31/53/2
f 40/97/2 55/98/2 58/96/2 42/94/2
f 40/99/10 53/61/10 60/62/10 39/100/10
f 55/101/10 40/99/10 39/100/10 62/102/10
f 39/100/12 60/62/12 63/68/12
f 35/69/5 44/103/5 59/64/5 61/63/5
f 62/102/12 39/100/12 63/68/12
f 74/104/6 81/105/6 80/106/6 86/107/6
f 83/108/6 82/109/6 44/103/6 35/69/6
f 81/105/6 17/66/6 38/67/6 80/106/6
f 17/66/2 81/105/2 83/108/2 35/69/2
f 81/105/2 74/104/2 65/110/2 83/108/2
f 78/111/6 66/72/6 69/73/6 77/112/6
f 85/113/6 78/111/6 77/112/6 71/114/6
f 66/76/13 78/115/13 80/116/13 38/77/13
f 78/115/13 85/117/13 86/118/13 80/116/13
f 64/119/4 76/120/4 82/121/4 90/122/4
f 67/123/4 9/29/4 36/124/4 93/125/4
f 76/120/4 8/78/4 44/81/4 82/121/4
f 103/126/10 74/104/10 86/107/10 101/127/10
f 76/120/1 64/119/1 95/128/1 75/129/1
f 8/78/1 76/120/1 75/129/1 48/85/1
f 93/130/14 36/131/14 75/132/14 95/133/14
f 36/131/14 46/87/14 48/90/14 75/132/14
f 77/112/4 69/73/4 51/92/4 73/134/4
f 71/114/4 77/112/4 73/134/4 97/135/4
f 73/136/6 51/95/6 58/96/6 72/137/6
f 97/138/6 73/136/6 72/137/6 102/139/6
f 55/98/2 70/140/2 72/137/2 58/96/2
f 70/140/2 79/141/2 102/139/2 72/137/2
f 70/142/1 55/101/1 62/102/1 68/143/1
f 79/144/1 70/142/1 68/143/1 84/145/1
f 105/146/10 104/147/10 90/148/10 65/110/10
f 1/9/10 103/126/10 101/127/10 87/10/10
f 68/143/15 62/102/15 63/68/15
f 65/110/6 90/148/6 82/109/6 83/108/6
f 84/145/15 68/143/15 63/68/15
f 74/104/2 103/126/2 105/146/2 65/110/2
f 103/126/2 1/9/2 4/8/2 105/146/2
f 100/149/10 85/113/10 71/114/10 99/150/10
f 5/13/10 100/149/10 99/150/10 11/14/10
f 85/117/16 100/151/16 101/152/16 86/118/16
f 100/151/16 5/18/16 87/21/16 101/152/16
f 2/32/4 98/153/4 104/154/4 14/33/4
f 20/155/4 9/29/4 67/156/4 94/157/4
f 98/153/4 64/119/4 90/122/4 104/154/4
f 98/153/5 2/32/5 19/38/5 96/158/5
f 64/119/5 98/153/5 96/158/5 95/128/5
f 94/43/17 67/159/17 96/160/17 19/44/17
f 67/159/17 93/130/17 95/133/17 96/160/17
f 99/150/4 71/114/4 97/135/4 92/161/4
f 11/14/4 99/150/4 92/161/4 22/45/4
f 92/162/10 97/138/10 102/139/10 91/163/10
f 22/49/10 92/162/10 91/163/10 29/50/10
f 79/141/2 89/164/2 91/163/2 102/139/2
f 89/164/2 26/54/2 29/50/2 91/163/2
f 89/165/5 79/144/5 84/145/5 88/166/5
f 26/58/5 89/165/5 88/166/5 106/59/5
f 88/166/18 84/145/18 63/68/18
f 4/8/10 14/7/10 104/147/10 105/146/10
f 106/59/18 88/166/18 63/68/18
