# Blender v2.80 (sub 75) OBJ File: 'chem devices.blend'
# www.blender.org
mtllib materia_jar_quad.mtl
o MATERIA_JAR_QUAD_Cube.101
v 0.625000 0.000000 0.875000
v 0.874970 0.000000 0.875000
v 0.625000 0.000000 0.625000
v 0.874970 0.000000 0.625000
v 0.687500 0.437500 0.687500
v 0.812470 0.437500 0.687500
v 0.812470 0.437500 0.812500
v 0.687500 0.437500 0.812500
v 0.937470 0.500000 0.937500
v 0.874970 0.500000 0.875000
v 0.874970 0.500000 0.625000
v 0.625000 0.500000 0.875000
v 0.625000 0.500000 0.625000
v 0.562500 0.062500 0.937500
v 0.937470 0.062500 0.937500
v 0.874970 0.593750 0.875000
v 0.874970 0.593750 0.625000
v 0.625000 0.593750 0.875000
v 0.625000 0.593750 0.625000
v 0.874970 0.531250 0.875000
v 0.874970 0.531250 0.625000
v 0.625000 0.531250 0.875000
v 0.625000 0.531250 0.625000
v 0.812470 0.406250 0.812500
v 0.812470 0.406250 0.687500
v 0.687500 0.406250 0.812500
v 0.687500 0.406250 0.687500
v 0.562500 0.000000 0.937500
v 0.937470 0.000000 0.937500
v 0.937470 0.000000 0.562500
v 0.749985 0.062500 0.937500
v 0.749985 0.437500 0.937500
v 0.749985 0.500000 0.562500
v 0.749985 0.500000 0.937500
v 0.749985 0.500000 0.625000
v 0.749985 0.500000 0.875000
v 0.749985 0.437500 0.687500
v 0.749985 0.437500 0.812500
v 0.749985 0.000000 0.937500
v 0.749985 0.000000 0.562500
v 0.749985 0.000000 0.875000
v 0.749985 0.000000 0.625000
v 0.874970 0.500000 0.750000
v 0.625000 0.500000 0.750000
v 0.812470 0.437500 0.750000
v 0.687500 0.437500 0.750000
v 0.562500 0.000000 0.750000
v 0.937470 0.000000 0.750000
v 0.625000 0.000000 0.750000
v 0.874970 0.000000 0.750000
v 0.562500 0.250000 0.937500
v 0.937470 0.250000 0.937500
v 0.749985 0.250000 0.937500
v 0.937500 0.437500 0.562530
v 0.937500 0.437500 0.937500
v 0.937500 0.500000 0.562530
v 0.937500 0.062500 0.562530
v 0.937500 0.062500 0.750015
v 0.937500 0.437500 0.750015
v 0.937500 0.500000 0.750015
v 0.937500 0.250000 0.562530
v 0.937500 0.250000 0.750015
v 0.750015 0.062500 0.562500
v 0.750015 0.437500 0.562500
v 0.750015 0.250000 0.562500
v 0.562500 0.437500 0.937470
v 0.562500 0.437500 0.562500
v 0.562500 0.500000 0.937470
v 0.562500 0.500000 0.562500
v 0.562500 0.062500 0.562500
v 0.562500 0.000000 0.562500
v 0.562500 0.062500 0.749985
v 0.562500 0.437500 0.749985
v 0.562500 0.500000 0.749985
v 0.562500 0.250000 0.562500
v 0.562500 0.250000 0.749985
v 0.687500 0.437500 0.687500
v 0.812470 0.437500 0.687500
v 0.812470 0.437500 0.812500
v 0.687500 0.437500 0.812500
v 0.937470 0.500000 0.937500
v 0.874970 0.500000 0.875000
v 0.874970 0.500000 0.625000
v 0.625000 0.500000 0.875000
v 0.625000 0.500000 0.625000
v 0.562500 0.062500 0.937500
v 0.937470 0.062500 0.937500
v 0.562500 0.000000 0.937500
v 0.937470 0.000000 0.937500
v 0.937470 0.000000 0.562500
v 0.749985 0.062500 0.937500
v 0.749985 0.437500 0.937500
v 0.749985 0.500000 0.562500
v 0.749985 0.500000 0.937500
v 0.749985 0.500000 0.625000
v 0.749985 0.500000 0.875000
v 0.749985 0.437500 0.687500
v 0.749985 0.437500 0.812500
v 0.749985 0.000000 0.937500
v 0.749985 0.000000 0.562500
v 0.874970 0.500000 0.750000
v 0.625000 0.500000 0.750000
v 0.812470 0.437500 0.750000
v 0.687500 0.437500 0.750000
v 0.562500 0.000000 0.750000
v 0.937470 0.000000 0.750000
v 0.562500 0.250000 0.937500
v 0.937470 0.250000 0.937500
v 0.749985 0.250000 0.937500
v 0.937500 0.437500 0.562530
v 0.937500 0.437500 0.937500
v 0.937500 0.500000 0.562530
v 0.937500 0.062500 0.562530
v 0.937500 0.062500 0.750015
v 0.937500 0.437500 0.750015
v 0.937500 0.500000 0.750015
v 0.937500 0.250000 0.562530
v 0.937500 0.250000 0.750015
v 0.750015 0.062500 0.562500
v 0.750015 0.437500 0.562500
v 0.750015 0.250000 0.562500
v 0.562500 0.437500 0.937470
v 0.562500 0.437500 0.562500
v 0.562500 0.500000 0.937470
v 0.562500 0.500000 0.562500
v 0.562500 0.062500 0.562500
v 0.562500 0.000000 0.562500
v 0.562500 0.062500 0.749985
v 0.562500 0.437500 0.749985
v 0.562500 0.500000 0.749985
v 0.562500 0.250000 0.562500
v 0.562500 0.250000 0.749985
v 0.125000 0.000000 0.875000
v 0.374970 0.000000 0.875000
v 0.125000 0.000000 0.625000
v 0.374970 0.000000 0.625000
v 0.187500 0.437500 0.687500
v 0.312470 0.437500 0.687500
v 0.312470 0.437500 0.812500
v 0.187500 0.437500 0.812500
v 0.437470 0.500000 0.937500
v 0.374970 0.500000 0.875000
v 0.374970 0.500000 0.625000
v 0.125000 0.500000 0.875000
v 0.125000 0.500000 0.625000
v 0.062500 0.062500 0.937500
v 0.437470 0.062500 0.937500
v 0.374970 0.593750 0.875000
v 0.374970 0.593750 0.625000
v 0.125000 0.593750 0.875000
v 0.125000 0.593750 0.625000
v 0.374970 0.531250 0.875000
v 0.374970 0.531250 0.625000
v 0.125000 0.531250 0.875000
v 0.125000 0.531250 0.625000
v 0.312470 0.406250 0.812500
v 0.312470 0.406250 0.687500
v 0.187500 0.406250 0.812500
v 0.187500 0.406250 0.687500
v 0.062500 0.000000 0.937500
v 0.437470 0.000000 0.937500
v 0.437470 0.000000 0.562500
v 0.249985 0.062500 0.937500
v 0.249985 0.437500 0.937500
v 0.249985 0.500000 0.562500
v 0.249985 0.500000 0.937500
v 0.249985 0.500000 0.625000
v 0.249985 0.500000 0.875000
v 0.249985 0.437500 0.687500
v 0.249985 0.437500 0.812500
v 0.249985 0.000000 0.937500
v 0.249985 0.000000 0.562500
v 0.249985 0.000000 0.875000
v 0.249985 0.000000 0.625000
v 0.374970 0.500000 0.750000
v 0.125000 0.500000 0.750000
v 0.312470 0.437500 0.750000
v 0.187500 0.437500 0.750000
v 0.062500 0.000000 0.750000
v 0.437470 0.000000 0.750000
v 0.125000 0.000000 0.750000
v 0.374970 0.000000 0.750000
v 0.062500 0.250000 0.937500
v 0.437470 0.250000 0.937500
v 0.249985 0.250000 0.937500
v 0.437500 0.437500 0.562530
v 0.437500 0.437500 0.937500
v 0.437500 0.500000 0.562530
v 0.437500 0.062500 0.562530
v 0.437500 0.062500 0.750015
v 0.437500 0.437500 0.750015
v 0.437500 0.500000 0.750015
v 0.437500 0.250000 0.562530
v 0.437500 0.250000 0.750015
v 0.250015 0.062500 0.562500
v 0.250015 0.437500 0.562500
v 0.250015 0.250000 0.562500
v 0.062500 0.437500 0.937470
v 0.062500 0.437500 0.562500
v 0.062500 0.500000 0.937470
v 0.062500 0.500000 0.562500
v 0.062500 0.062500 0.562500
v 0.062500 0.000000 0.562500
v 0.062500 0.062500 0.749985
v 0.062500 0.437500 0.749985
v 0.062500 0.500000 0.749985
v 0.062500 0.250000 0.562500
v 0.062500 0.250000 0.749985
v 0.187500 0.437500 0.687500
v 0.312470 0.437500 0.687500
v 0.312470 0.437500 0.812500
v 0.187500 0.437500 0.812500
v 0.437470 0.500000 0.937500
v 0.374970 0.500000 0.875000
v 0.374970 0.500000 0.625000
v 0.125000 0.500000 0.875000
v 0.125000 0.500000 0.625000
v 0.062500 0.062500 0.937500
v 0.437470 0.062500 0.937500
v 0.062500 0.000000 0.937500
v 0.437470 0.000000 0.937500
v 0.437470 0.000000 0.562500
v 0.249985 0.062500 0.937500
v 0.249985 0.437500 0.937500
v 0.249985 0.500000 0.562500
v 0.249985 0.500000 0.937500
v 0.249985 0.500000 0.625000
v 0.249985 0.500000 0.875000
v 0.249985 0.437500 0.687500
v 0.249985 0.437500 0.812500
v 0.249985 0.000000 0.937500
v 0.249985 0.000000 0.562500
v 0.374970 0.500000 0.750000
v 0.125000 0.500000 0.750000
v 0.312470 0.437500 0.750000
v 0.187500 0.437500 0.750000
v 0.062500 0.000000 0.750000
v 0.437470 0.000000 0.750000
v 0.062500 0.250000 0.937500
v 0.437470 0.250000 0.937500
v 0.249985 0.250000 0.937500
v 0.437500 0.437500 0.562530
v 0.437500 0.437500 0.937500
v 0.437500 0.500000 0.562530
v 0.437500 0.062500 0.562530
v 0.437500 0.062500 0.750015
v 0.437500 0.437500 0.750015
v 0.437500 0.500000 0.750015
v 0.437500 0.250000 0.562530
v 0.437500 0.250000 0.750015
v 0.250015 0.062500 0.562500
v 0.250015 0.437500 0.562500
v 0.250015 0.250000 0.562500
v 0.062500 0.437500 0.937470
v 0.062500 0.437500 0.562500
v 0.062500 0.500000 0.937470
v 0.062500 0.500000 0.562500
v 0.062500 0.062500 0.562500
v 0.062500 0.000000 0.562500
v 0.062500 0.062500 0.749985
v 0.062500 0.437500 0.749985
v 0.062500 0.500000 0.749985
v 0.062500 0.250000 0.562500
v 0.062500 0.250000 0.749985
v 0.625000 0.000000 0.375000
v 0.874970 0.000000 0.375000
v 0.625000 0.000000 0.125000
v 0.874970 0.000000 0.125000
v 0.687500 0.437500 0.187500
v 0.812470 0.437500 0.187500
v 0.812470 0.437500 0.312500
v 0.687500 0.437500 0.312500
v 0.937470 0.500000 0.437500
v 0.874970 0.500000 0.375000
v 0.874970 0.500000 0.125000
v 0.625000 0.500000 0.375000
v 0.625000 0.500000 0.125000
v 0.562500 0.062500 0.437500
v 0.937470 0.062500 0.437500
v 0.874970 0.593750 0.375000
v 0.874970 0.593750 0.125000
v 0.625000 0.593750 0.375000
v 0.625000 0.593750 0.125000
v 0.874970 0.531250 0.375000
v 0.874970 0.531250 0.125000
v 0.625000 0.531250 0.375000
v 0.625000 0.531250 0.125000
v 0.812470 0.406250 0.312500
v 0.812470 0.406250 0.187500
v 0.687500 0.406250 0.312500
v 0.687500 0.406250 0.187500
v 0.562500 0.000000 0.437500
v 0.937470 0.000000 0.437500
v 0.937470 0.000000 0.062500
v 0.749985 0.062500 0.437500
v 0.749985 0.437500 0.437500
v 0.749985 0.500000 0.062500
v 0.749985 0.500000 0.437500
v 0.749985 0.500000 0.125000
v 0.749985 0.500000 0.375000
v 0.749985 0.437500 0.187500
v 0.749985 0.437500 0.312500
v 0.749985 0.000000 0.437500
v 0.749985 0.000000 0.062500
v 0.749985 0.000000 0.375000
v 0.749985 0.000000 0.125000
v 0.874970 0.500000 0.250000
v 0.625000 0.500000 0.250000
v 0.812470 0.437500 0.250000
v 0.687500 0.437500 0.250000
v 0.562500 0.000000 0.250000
v 0.937470 0.000000 0.250000
v 0.625000 0.000000 0.250000
v 0.874970 0.000000 0.250000
v 0.562500 0.250000 0.437500
v 0.937470 0.250000 0.437500
v 0.749985 0.250000 0.437500
v 0.937500 0.437500 0.062530
v 0.937500 0.437500 0.437500
v 0.937500 0.500000 0.062530
v 0.937500 0.062500 0.062530
v 0.937500 0.062500 0.250015
v 0.937500 0.437500 0.250015
v 0.937500 0.500000 0.250015
v 0.937500 0.250000 0.062530
v 0.937500 0.250000 0.250015
v 0.750015 0.062500 0.062500
v 0.750015 0.437500 0.062500
v 0.750015 0.250000 0.062500
v 0.562500 0.437500 0.437470
v 0.562500 0.437500 0.062500
v 0.562500 0.500000 0.437470
v 0.562500 0.500000 0.062500
v 0.562500 0.062500 0.062500
v 0.562500 0.000000 0.062500
v 0.562500 0.062500 0.249985
v 0.562500 0.437500 0.249985
v 0.562500 0.500000 0.249985
v 0.562500 0.250000 0.062500
v 0.562500 0.250000 0.249985
v 0.687500 0.437500 0.187500
v 0.812470 0.437500 0.187500
v 0.812470 0.437500 0.312500
v 0.687500 0.437500 0.312500
v 0.937470 0.500000 0.437500
v 0.874970 0.500000 0.375000
v 0.874970 0.500000 0.125000
v 0.625000 0.500000 0.375000
v 0.625000 0.500000 0.125000
v 0.562500 0.062500 0.437500
v 0.937470 0.062500 0.437500
v 0.562500 0.000000 0.437500
v 0.937470 0.000000 0.437500
v 0.937470 0.000000 0.062500
v 0.749985 0.062500 0.437500
v 0.749985 0.437500 0.437500
v 0.749985 0.500000 0.062500
v 0.749985 0.500000 0.437500
v 0.749985 0.500000 0.125000
v 0.749985 0.500000 0.375000
v 0.749985 0.437500 0.187500
v 0.749985 0.437500 0.312500
v 0.749985 0.000000 0.437500
v 0.749985 0.000000 0.062500
v 0.874970 0.500000 0.250000
v 0.625000 0.500000 0.250000
v 0.812470 0.437500 0.250000
v 0.687500 0.437500 0.250000
v 0.562500 0.000000 0.250000
v 0.937470 0.000000 0.250000
v 0.562500 0.250000 0.437500
v 0.937470 0.250000 0.437500
v 0.749985 0.250000 0.437500
v 0.937500 0.437500 0.062530
v 0.937500 0.437500 0.437500
v 0.937500 0.500000 0.062530
v 0.937500 0.062500 0.062530
v 0.937500 0.062500 0.250015
v 0.937500 0.437500 0.250015
v 0.937500 0.500000 0.250015
v 0.937500 0.250000 0.062530
v 0.937500 0.250000 0.250015
v 0.750015 0.062500 0.062500
v 0.750015 0.437500 0.062500
v 0.750015 0.250000 0.062500
v 0.562500 0.437500 0.437470
v 0.562500 0.437500 0.062500
v 0.562500 0.500000 0.437470
v 0.562500 0.500000 0.062500
v 0.562500 0.062500 0.062500
v 0.562500 0.000000 0.062500
v 0.562500 0.062500 0.249985
v 0.562500 0.437500 0.249985
v 0.562500 0.500000 0.249985
v 0.562500 0.250000 0.062500
v 0.562500 0.250000 0.249985
v 0.125000 0.000000 0.375000
v 0.374970 0.000000 0.375000
v 0.125000 0.000000 0.125000
v 0.374970 0.000000 0.125000
v 0.187500 0.437500 0.187500
v 0.312470 0.437500 0.187500
v 0.312470 0.437500 0.312500
v 0.187500 0.437500 0.312500
v 0.437470 0.500000 0.437500
v 0.374970 0.500000 0.375000
v 0.374970 0.500000 0.125000
v 0.125000 0.500000 0.375000
v 0.125000 0.500000 0.125000
v 0.062500 0.062500 0.437500
v 0.437470 0.062500 0.437500
v 0.374970 0.593750 0.375000
v 0.374970 0.593750 0.125000
v 0.125000 0.593750 0.375000
v 0.125000 0.593750 0.125000
v 0.374970 0.531250 0.375000
v 0.374970 0.531250 0.125000
v 0.125000 0.531250 0.375000
v 0.125000 0.531250 0.125000
v 0.312470 0.406250 0.312500
v 0.312470 0.406250 0.187500
v 0.187500 0.406250 0.312500
v 0.187500 0.406250 0.187500
v 0.062500 0.000000 0.437500
v 0.437470 0.000000 0.437500
v 0.437470 0.000000 0.062500
v 0.249985 0.062500 0.437500
v 0.249985 0.437500 0.437500
v 0.249985 0.500000 0.062500
v 0.249985 0.500000 0.437500
v 0.249985 0.500000 0.125000
v 0.249985 0.500000 0.375000
v 0.249985 0.437500 0.187500
v 0.249985 0.437500 0.312500
v 0.249985 0.000000 0.437500
v 0.249985 0.000000 0.062500
v 0.249985 0.000000 0.375000
v 0.249985 0.000000 0.125000
v 0.374970 0.500000 0.250000
v 0.125000 0.500000 0.250000
v 0.312470 0.437500 0.250000
v 0.187500 0.437500 0.250000
v 0.062500 0.000000 0.250000
v 0.437470 0.000000 0.250000
v 0.125000 0.000000 0.250000
v 0.374970 0.000000 0.250000
v 0.062500 0.250000 0.437500
v 0.437470 0.250000 0.437500
v 0.249985 0.250000 0.437500
v 0.437500 0.437500 0.062530
v 0.437500 0.437500 0.437500
v 0.437500 0.500000 0.062530
v 0.437500 0.062500 0.062530
v 0.437500 0.062500 0.250015
v 0.437500 0.437500 0.250015
v 0.437500 0.500000 0.250015
v 0.437500 0.250000 0.062530
v 0.437500 0.250000 0.250015
v 0.250015 0.062500 0.062500
v 0.250015 0.437500 0.062500
v 0.250015 0.250000 0.062500
v 0.062500 0.437500 0.437470
v 0.062500 0.437500 0.062500
v 0.062500 0.500000 0.437470
v 0.062500 0.500000 0.062500
v 0.062500 0.062500 0.062500
v 0.062500 0.000000 0.062500
v 0.062500 0.062500 0.249985
v 0.062500 0.437500 0.249985
v 0.062500 0.500000 0.249985
v 0.062500 0.250000 0.062500
v 0.062500 0.250000 0.249985
v 0.187500 0.437500 0.187500
v 0.312470 0.437500 0.187500
v 0.312470 0.437500 0.312500
v 0.187500 0.437500 0.312500
v 0.437470 0.500000 0.437500
v 0.374970 0.500000 0.375000
v 0.374970 0.500000 0.125000
v 0.125000 0.500000 0.375000
v 0.125000 0.500000 0.125000
v 0.062500 0.062500 0.437500
v 0.437470 0.062500 0.437500
v 0.062500 0.000000 0.437500
v 0.437470 0.000000 0.437500
v 0.437470 0.000000 0.062500
v 0.249985 0.062500 0.437500
v 0.249985 0.437500 0.437500
v 0.249985 0.500000 0.062500
v 0.249985 0.500000 0.437500
v 0.249985 0.500000 0.125000
v 0.249985 0.500000 0.375000
v 0.249985 0.437500 0.187500
v 0.249985 0.437500 0.312500
v 0.249985 0.000000 0.437500
v 0.249985 0.000000 0.062500
v 0.374970 0.500000 0.250000
v 0.125000 0.500000 0.250000
v 0.312470 0.437500 0.250000
v 0.187500 0.437500 0.250000
v 0.062500 0.000000 0.250000
v 0.437470 0.000000 0.250000
v 0.062500 0.250000 0.437500
v 0.437470 0.250000 0.437500
v 0.249985 0.250000 0.437500
v 0.437500 0.437500 0.062530
v 0.437500 0.437500 0.437500
v 0.437500 0.500000 0.062530
v 0.437500 0.062500 0.062530
v 0.437500 0.062500 0.250015
v 0.437500 0.437500 0.250015
v 0.437500 0.500000 0.250015
v 0.437500 0.250000 0.062530
v 0.437500 0.250000 0.250015
v 0.250015 0.062500 0.062500
v 0.250015 0.437500 0.062500
v 0.250015 0.250000 0.062500
v 0.062500 0.437500 0.437470
v 0.062500 0.437500 0.062500
v 0.062500 0.500000 0.437470
v 0.062500 0.500000 0.062500
v 0.062500 0.062500 0.062500
v 0.062500 0.000000 0.062500
v 0.062500 0.062500 0.249985
v 0.062500 0.437500 0.249985
v 0.062500 0.500000 0.249985
v 0.062500 0.250000 0.062500
v 0.062500 0.250000 0.249985
vt 0.375000 0.750000
vt 0.187500 0.750000
vt 0.187500 0.687500
vt 0.375000 0.687500
vt 0.750000 0.937500
vt 0.625000 0.937500
vt 0.562500 1.000000
vt 0.750000 1.000000
vt 0.187500 0.937500
vt 0.062500 0.937500
vt -0.000000 1.000000
vt 0.187500 1.000000
vt 0.312500 0.937500
vt 0.437500 0.937500
vt 0.500000 1.000000
vt 0.312500 1.000000
vt 0.812500 0.937500
vt 0.937500 0.937500
vt 1.000000 1.000000
vt 0.812500 1.000000
vt 0.687500 0.750000
vt 0.687500 0.687500
vt 0.750000 0.625000
vt 0.750000 0.750000
vt 0.625000 0.750000
vt 0.625000 0.812500
vt 0.687500 0.875000
vt 0.687500 0.750000
vt 0.625000 0.750000
vt 0.625000 0.687500
vt 0.687500 0.625000
vt 0.687500 0.750000
vt 0.687500 0.750000
vt 0.687500 0.812500
vt 0.750000 0.875000
vt 0.750000 0.750000
vt 0.312500 0.000000
vt 0.500000 0.000000
vt 0.500000 0.062500
vt 0.312500 0.062500
vt 0.875000 0.125000
vt 0.625000 0.125000
vt 0.687500 0.000000
vt 0.812500 0.000000
vt 0.937500 0.500000
vt 0.687500 0.500000
vt 0.687500 0.250000
vt 0.937500 0.250000
vt 0.875000 0.187500
vt 0.625000 0.187500
vt 0.875000 0.187500
vt 0.625000 0.187500
vt 0.625000 0.125000
vt 0.875000 0.125000
vt 0.875000 0.187500
vt 0.625000 0.187500
vt 0.625000 0.125000
vt 0.875000 0.125000
vt 0.875000 0.187500
vt 0.625000 0.187500
vt 0.625000 0.125000
vt 0.875000 0.125000
vt 0.937500 0.687500
vt 0.937500 0.562500
vt 0.812500 0.562500
vt 0.812500 0.687500
vt 0.687500 0.000000
vt 0.812500 0.000000
vt 0.687500 0.000000
vt 0.812500 0.000000
vt 0.687500 0.000000
vt 0.812500 0.000000
vt 0.187500 0.250000
vt 0.187500 0.437500
vt -0.000000 0.437500
vt -0.000000 0.250000
vt 0.312500 0.875000
vt 0.437500 0.875000
vt 0.500000 0.937500
vt 0.312500 0.937500
vt 0.187500 0.875000
vt 0.062500 0.875000
vt 0.000000 0.937500
vt 0.187500 0.937500
vt 0.062500 0.875000
vt 0.187500 0.875000
vt 0.250000 0.937500
vt 0.062500 0.937500
vt 0.437500 0.875000
vt 0.312500 0.875000
vt 0.250000 0.937500
vt 0.437500 0.937500
vt 0.187500 0.875000
vt 0.062500 0.875000
vt 0.062500 0.937500
vt 0.312500 0.875000
vt 0.437500 0.875000
vt 0.437500 0.937500
vt 0.625000 0.500000
vt 0.625000 0.687500
vt 0.437500 0.687500
vt 0.437500 0.500000
vt 0.125000 -0.000000
vt 0.125000 0.062500
vt 0.750000 0.937500
vt 0.750000 1.000000
vt 0.187500 0.937500
vt 0.187500 1.000000
vt 0.500000 0.750000
vt 0.312500 0.750000
vt 0.312500 0.687500
vt 0.500000 0.687500
vt 0.312500 0.875000
vt 0.312500 0.937500
vt 0.187500 0.875000
vt 0.187500 0.937500
vt 0.625000 0.687500
vt 0.687500 0.625000
vt 0.687500 0.812500
vt 0.750000 0.875000
vt 0.437500 0.937500
vt 0.312500 0.937500
vt 0.312500 1.000000
vt 0.500000 1.000000
vt 0.937500 0.937500
vt 0.812500 0.937500
vt 0.812500 1.000000
vt 1.000000 1.000000
vt 0.625000 0.312500
vt 0.437500 0.312500
vt 0.187500 0.062500
vt -0.000000 0.062500
vt 0.375000 0.750000
vt 0.187500 0.750000
vt 0.187500 0.687500
vt 0.375000 0.687500
vt 0.312500 0.000000
vt 0.500000 0.000000
vt 0.500000 0.062500
vt 0.312500 0.062500
vt 0.187500 0.250000
vt 0.187500 0.437500
vt -0.000000 0.437500
vt -0.000000 0.250000
vt 0.625000 0.500000
vt 0.625000 0.687500
vt 0.437500 0.687500
vt 0.437500 0.500000
vt 0.125000 -0.000000
vt 0.125000 0.062500
vt 0.500000 0.750000
vt 0.312500 0.750000
vt 0.312500 0.687500
vt 0.500000 0.687500
vt 0.625000 0.312500
vt 0.437500 0.312500
vt 0.187500 0.062500
vt -0.000000 0.062500
vt 0.375000 0.750000
vt 0.187500 0.750000
vt 0.187500 0.687500
vt 0.375000 0.687500
vt 0.312500 0.000000
vt 0.500000 0.000000
vt 0.500000 0.062500
vt 0.312500 0.062500
vt 0.187500 0.250000
vt 0.187500 0.437500
vt -0.000000 0.437500
vt -0.000000 0.250000
vt 0.625000 0.500000
vt 0.625000 0.687500
vt 0.437500 0.687500
vt 0.437500 0.500000
vt 0.125000 -0.000000
vt 0.125000 0.062500
vt 0.500000 0.750000
vt 0.312500 0.750000
vt 0.312500 0.687500
vt 0.500000 0.687500
vt 0.625000 0.312500
vt 0.437500 0.312500
vt 0.187500 0.062500
vt -0.000000 0.062500
vt 0.375000 0.750000
vt 0.187500 0.750000
vt 0.187500 0.687500
vt 0.375000 0.687500
vt 0.312500 0.000000
vt 0.500000 0.000000
vt 0.500000 0.062500
vt 0.312500 0.062500
vt 0.187500 0.250000
vt 0.187500 0.437500
vt -0.000000 0.437500
vt -0.000000 0.250000
vt 0.625000 0.500000
vt 0.625000 0.687500
vt 0.437500 0.687500
vt 0.437500 0.500000
vt 0.125000 -0.000000
vt 0.125000 0.062500
vt 0.500000 0.750000
vt 0.312500 0.750000
vt 0.312500 0.687500
vt 0.500000 0.687500
vt 0.625000 0.312500
vt 0.437500 0.312500
vt 0.187500 0.062500
vt -0.000000 0.062500
vt 0.375000 0.750000
vt 0.375000 0.687500
vt 0.187500 0.687500
vt 0.187500 0.750000
vt 0.750000 0.937500
vt 0.750000 1.000000
vt 0.562500 1.000000
vt 0.625000 0.937500
vt 0.187500 0.937500
vt 0.187500 1.000000
vt -0.000000 1.000000
vt 0.062500 0.937500
vt 0.312500 0.937500
vt 0.312500 1.000000
vt 0.500000 1.000000
vt 0.437500 0.937500
vt 0.812500 0.937500
vt 0.812500 1.000000
vt 1.000000 1.000000
vt 0.937500 0.937500
vt 0.687500 0.750000
vt 0.750000 0.750000
vt 0.750000 0.625000
vt 0.687500 0.687500
vt 0.625000 0.750000
vt 0.687500 0.750000
vt 0.687500 0.875000
vt 0.625000 0.812500
vt 0.625000 0.750000
vt 0.687500 0.750000
vt 0.687500 0.625000
vt 0.625000 0.687500
vt 0.687500 0.750000
vt 0.750000 0.750000
vt 0.750000 0.875000
vt 0.687500 0.812500
vt 0.312500 0.000000
vt 0.312500 0.062500
vt 0.500000 0.062500
vt 0.500000 0.000000
vt 0.187500 0.250000
vt -0.000000 0.250000
vt -0.000000 0.437500
vt 0.187500 0.437500
vt 0.625000 0.500000
vt 0.437500 0.500000
vt 0.437500 0.687500
vt 0.625000 0.687500
vt 0.125000 -0.000000
vt 0.125000 0.062500
vt 0.750000 1.000000
vt 0.750000 0.937500
vt 0.187500 1.000000
vt 0.187500 0.937500
vt 0.500000 0.750000
vt 0.500000 0.687500
vt 0.312500 0.687500
vt 0.312500 0.750000
vt 0.625000 0.687500
vt 0.687500 0.625000
vt 0.687500 0.812500
vt 0.750000 0.875000
vt 0.437500 0.937500
vt 0.500000 1.000000
vt 0.312500 1.000000
vt 0.312500 0.937500
vt 0.937500 0.937500
vt 1.000000 1.000000
vt 0.812500 1.000000
vt 0.812500 0.937500
vt 0.625000 0.312500
vt 0.437500 0.312500
vt 0.187500 0.062500
vt -0.000000 0.062500
vt 0.375000 0.750000
vt 0.375000 0.687500
vt 0.187500 0.687500
vt 0.187500 0.750000
vt 0.312500 0.000000
vt 0.312500 0.062500
vt 0.500000 0.062500
vt 0.500000 0.000000
vt 0.187500 0.250000
vt -0.000000 0.250000
vt -0.000000 0.437500
vt 0.187500 0.437500
vt 0.625000 0.500000
vt 0.437500 0.500000
vt 0.437500 0.687500
vt 0.625000 0.687500
vt 0.125000 -0.000000
vt 0.125000 0.062500
vt 0.500000 0.750000
vt 0.500000 0.687500
vt 0.312500 0.687500
vt 0.312500 0.750000
vt 0.625000 0.312500
vt 0.437500 0.312500
vt 0.187500 0.062500
vt -0.000000 0.062500
vt 0.375000 0.750000
vt 0.375000 0.687500
vt 0.187500 0.687500
vt 0.187500 0.750000
vt 0.312500 0.000000
vt 0.312500 0.062500
vt 0.500000 0.062500
vt 0.500000 0.000000
vt 0.187500 0.250000
vt -0.000000 0.250000
vt -0.000000 0.437500
vt 0.187500 0.437500
vt 0.625000 0.500000
vt 0.437500 0.500000
vt 0.437500 0.687500
vt 0.625000 0.687500
vt 0.125000 -0.000000
vt 0.125000 0.062500
vt 0.500000 0.750000
vt 0.500000 0.687500
vt 0.312500 0.687500
vt 0.312500 0.750000
vt 0.625000 0.312500
vt 0.437500 0.312500
vt 0.187500 0.062500
vt -0.000000 0.062500
vt 0.375000 0.750000
vt 0.375000 0.687500
vt 0.187500 0.687500
vt 0.187500 0.750000
vt 0.312500 0.000000
vt 0.312500 0.062500
vt 0.500000 0.062500
vt 0.500000 0.000000
vt 0.187500 0.250000
vt -0.000000 0.250000
vt -0.000000 0.437500
vt 0.187500 0.437500
vt 0.625000 0.500000
vt 0.437500 0.500000
vt 0.437500 0.687500
vt 0.625000 0.687500
vt 0.125000 -0.000000
vt 0.125000 0.062500
vt 0.500000 0.750000
vt 0.500000 0.687500
vt 0.312500 0.687500
vt 0.312500 0.750000
vt 0.625000 0.312500
vt 0.437500 0.312500
vt 0.187500 0.062500
vt -0.000000 0.062500
vt 0.375000 0.750000
vt 0.187500 0.750000
vt 0.187500 0.687500
vt 0.375000 0.687500
vt 0.750000 0.937500
vt 0.625000 0.937500
vt 0.562500 1.000000
vt 0.750000 1.000000
vt 0.187500 0.937500
vt 0.062500 0.937500
vt -0.000000 1.000000
vt 0.187500 1.000000
vt 0.312500 0.937500
vt 0.437500 0.937500
vt 0.500000 1.000000
vt 0.312500 1.000000
vt 0.812500 0.937500
vt 0.937500 0.937500
vt 1.000000 1.000000
vt 0.812500 1.000000
vt 0.687500 0.750000
vt 0.687500 0.687500
vt 0.750000 0.625000
vt 0.750000 0.750000
vt 0.625000 0.750000
vt 0.625000 0.812500
vt 0.687500 0.875000
vt 0.687500 0.750000
vt 0.625000 0.750000
vt 0.625000 0.687500
vt 0.687500 0.625000
vt 0.687500 0.750000
vt 0.687500 0.750000
vt 0.687500 0.812500
vt 0.750000 0.875000
vt 0.750000 0.750000
vt 0.312500 0.000000
vt 0.500000 0.000000
vt 0.500000 0.062500
vt 0.312500 0.062500
vt 0.875000 0.125000
vt 0.625000 0.125000
vt 0.687500 0.000000
vt 0.812500 0.000000
vt 0.937500 0.500000
vt 0.687500 0.500000
vt 0.687500 0.250000
vt 0.937500 0.250000
vt 0.875000 0.187500
vt 0.625000 0.187500
vt 0.875000 0.187500
vt 0.625000 0.187500
vt 0.625000 0.125000
vt 0.875000 0.125000
vt 0.875000 0.187500
vt 0.625000 0.187500
vt 0.625000 0.125000
vt 0.875000 0.125000
vt 0.875000 0.187500
vt 0.625000 0.187500
vt 0.625000 0.125000
vt 0.875000 0.125000
vt 0.937500 0.687500
vt 0.937500 0.562500
vt 0.812500 0.562500
vt 0.812500 0.687500
vt 0.687500 0.000000
vt 0.812500 0.000000
vt 0.687500 0.000000
vt 0.812500 0.000000
vt 0.687500 0.000000
vt 0.812500 0.000000
vt 0.187500 0.250000
vt 0.187500 0.437500
vt -0.000000 0.437500
vt -0.000000 0.250000
vt 0.312500 0.875000
vt 0.437500 0.875000
vt 0.500000 0.937500
vt 0.312500 0.937500
vt 0.187500 0.875000
vt 0.062500 0.875000
vt 0.000000 0.937500
vt 0.187500 0.937500
vt 0.062500 0.875000
vt 0.187500 0.875000
vt 0.250000 0.937500
vt 0.062500 0.937500
vt 0.437500 0.875000
vt 0.312500 0.875000
vt 0.250000 0.937500
vt 0.437500 0.937500
vt 0.187500 0.875000
vt 0.062500 0.875000
vt 0.062500 0.937500
vt 0.312500 0.875000
vt 0.437500 0.875000
vt 0.437500 0.937500
vt 0.625000 0.500000
vt 0.625000 0.687500
vt 0.437500 0.687500
vt 0.437500 0.500000
vt 0.125000 -0.000000
vt 0.125000 0.062500
vt 0.750000 0.937500
vt 0.750000 1.000000
vt 0.187500 0.937500
vt 0.187500 1.000000
vt 0.500000 0.750000
vt 0.312500 0.750000
vt 0.312500 0.687500
vt 0.500000 0.687500
vt 0.312500 0.875000
vt 0.312500 0.937500
vt 0.187500 0.875000
vt 0.187500 0.937500
vt 0.625000 0.687500
vt 0.687500 0.625000
vt 0.687500 0.812500
vt 0.750000 0.875000
vt 0.437500 0.937500
vt 0.312500 0.937500
vt 0.312500 1.000000
vt 0.500000 1.000000
vt 0.937500 0.937500
vt 0.812500 0.937500
vt 0.812500 1.000000
vt 1.000000 1.000000
vt 0.625000 0.312500
vt 0.437500 0.312500
vt 0.187500 0.062500
vt -0.000000 0.062500
vt 0.375000 0.750000
vt 0.187500 0.750000
vt 0.187500 0.687500
vt 0.375000 0.687500
vt 0.312500 0.000000
vt 0.500000 0.000000
vt 0.500000 0.062500
vt 0.312500 0.062500
vt 0.187500 0.250000
vt 0.187500 0.437500
vt -0.000000 0.437500
vt -0.000000 0.250000
vt 0.625000 0.500000
vt 0.625000 0.687500
vt 0.437500 0.687500
vt 0.437500 0.500000
vt 0.125000 -0.000000
vt 0.125000 0.062500
vt 0.500000 0.750000
vt 0.312500 0.750000
vt 0.312500 0.687500
vt 0.500000 0.687500
vt 0.625000 0.312500
vt 0.437500 0.312500
vt 0.187500 0.062500
vt -0.000000 0.062500
vt 0.375000 0.750000
vt 0.187500 0.750000
vt 0.187500 0.687500
vt 0.375000 0.687500
vt 0.312500 0.000000
vt 0.500000 0.000000
vt 0.500000 0.062500
vt 0.312500 0.062500
vt 0.187500 0.250000
vt 0.187500 0.437500
vt -0.000000 0.437500
vt -0.000000 0.250000
vt 0.625000 0.500000
vt 0.625000 0.687500
vt 0.437500 0.687500
vt 0.437500 0.500000
vt 0.125000 -0.000000
vt 0.125000 0.062500
vt 0.500000 0.750000
vt 0.312500 0.750000
vt 0.312500 0.687500
vt 0.500000 0.687500
vt 0.625000 0.312500
vt 0.437500 0.312500
vt 0.187500 0.062500
vt -0.000000 0.062500
vt 0.375000 0.750000
vt 0.187500 0.750000
vt 0.187500 0.687500
vt 0.375000 0.687500
vt 0.312500 0.000000
vt 0.500000 0.000000
vt 0.500000 0.062500
vt 0.312500 0.062500
vt 0.187500 0.250000
vt 0.187500 0.437500
vt -0.000000 0.437500
vt -0.000000 0.250000
vt 0.625000 0.500000
vt 0.625000 0.687500
vt 0.437500 0.687500
vt 0.437500 0.500000
vt 0.125000 -0.000000
vt 0.125000 0.062500
vt 0.500000 0.750000
vt 0.312500 0.750000
vt 0.312500 0.687500
vt 0.500000 0.687500
vt 0.625000 0.312500
vt 0.437500 0.312500
vt 0.187500 0.062500
vt -0.000000 0.062500
vt 0.375000 0.750000
vt 0.375000 0.687500
vt 0.187500 0.687500
vt 0.187500 0.750000
vt 0.750000 0.937500
vt 0.750000 1.000000
vt 0.562500 1.000000
vt 0.625000 0.937500
vt 0.187500 0.937500
vt 0.187500 1.000000
vt -0.000000 1.000000
vt 0.062500 0.937500
vt 0.312500 0.937500
vt 0.312500 1.000000
vt 0.500000 1.000000
vt 0.437500 0.937500
vt 0.812500 0.937500
vt 0.812500 1.000000
vt 1.000000 1.000000
vt 0.937500 0.937500
vt 0.687500 0.750000
vt 0.750000 0.750000
vt 0.750000 0.625000
vt 0.687500 0.687500
vt 0.625000 0.750000
vt 0.687500 0.750000
vt 0.687500 0.875000
vt 0.625000 0.812500
vt 0.625000 0.750000
vt 0.687500 0.750000
vt 0.687500 0.625000
vt 0.625000 0.687500
vt 0.687500 0.750000
vt 0.750000 0.750000
vt 0.750000 0.875000
vt 0.687500 0.812500
vt 0.312500 0.000000
vt 0.312500 0.062500
vt 0.500000 0.062500
vt 0.500000 0.000000
vt 0.187500 0.250000
vt -0.000000 0.250000
vt -0.000000 0.437500
vt 0.187500 0.437500
vt 0.625000 0.500000
vt 0.437500 0.500000
vt 0.437500 0.687500
vt 0.625000 0.687500
vt 0.125000 -0.000000
vt 0.125000 0.062500
vt 0.750000 1.000000
vt 0.750000 0.937500
vt 0.187500 1.000000
vt 0.187500 0.937500
vt 0.500000 0.750000
vt 0.500000 0.687500
vt 0.312500 0.687500
vt 0.312500 0.750000
vt 0.625000 0.687500
vt 0.687500 0.625000
vt 0.687500 0.812500
vt 0.750000 0.875000
vt 0.437500 0.937500
vt 0.500000 1.000000
vt 0.312500 1.000000
vt 0.312500 0.937500
vt 0.937500 0.937500
vt 1.000000 1.000000
vt 0.812500 1.000000
vt 0.812500 0.937500
vt 0.625000 0.312500
vt 0.437500 0.312500
vt 0.187500 0.062500
vt -0.000000 0.062500
vt 0.375000 0.750000
vt 0.375000 0.687500
vt 0.187500 0.687500
vt 0.187500 0.750000
vt 0.312500 0.000000
vt 0.312500 0.062500
vt 0.500000 0.062500
vt 0.500000 0.000000
vt 0.187500 0.250000
vt -0.000000 0.250000
vt -0.000000 0.437500
vt 0.187500 0.437500
vt 0.625000 0.500000
vt 0.437500 0.500000
vt 0.437500 0.687500
vt 0.625000 0.687500
vt 0.125000 -0.000000
vt 0.125000 0.062500
vt 0.500000 0.750000
vt 0.500000 0.687500
vt 0.312500 0.687500
vt 0.312500 0.750000
vt 0.625000 0.312500
vt 0.437500 0.312500
vt 0.187500 0.062500
vt -0.000000 0.062500
vt 0.375000 0.750000
vt 0.375000 0.687500
vt 0.187500 0.687500
vt 0.187500 0.750000
vt 0.312500 0.000000
vt 0.312500 0.062500
vt 0.500000 0.062500
vt 0.500000 0.000000
vt 0.187500 0.250000
vt -0.000000 0.250000
vt -0.000000 0.437500
vt 0.187500 0.437500
vt 0.625000 0.500000
vt 0.437500 0.500000
vt 0.437500 0.687500
vt 0.625000 0.687500
vt 0.125000 -0.000000
vt 0.125000 0.062500
vt 0.500000 0.750000
vt 0.500000 0.687500
vt 0.312500 0.687500
vt 0.312500 0.750000
vt 0.625000 0.312500
vt 0.437500 0.312500
vt 0.187500 0.062500
vt -0.000000 0.062500
vt 0.375000 0.750000
vt 0.375000 0.687500
vt 0.187500 0.687500
vt 0.187500 0.750000
vt 0.312500 0.000000
vt 0.312500 0.062500
vt 0.500000 0.062500
vt 0.500000 0.000000
vt 0.187500 0.250000
vt -0.000000 0.250000
vt -0.000000 0.437500
vt 0.187500 0.437500
vt 0.625000 0.500000
vt 0.437500 0.500000
vt 0.437500 0.687500
vt 0.625000 0.687500
vt 0.125000 -0.000000
vt 0.125000 0.062500
vt 0.500000 0.750000
vt 0.500000 0.687500
vt 0.312500 0.687500
vt 0.312500 0.750000
vt 0.625000 0.312500
vt 0.437500 0.312500
vt 0.187500 0.062500
vt -0.000000 0.062500
vt 0.375000 0.750000
vt 0.187500 0.750000
vt 0.187500 0.687500
vt 0.375000 0.687500
vt 0.750000 0.937500
vt 0.625000 0.937500
vt 0.562500 1.000000
vt 0.750000 1.000000
vt 0.187500 0.937500
vt 0.062500 0.937500
vt -0.000000 1.000000
vt 0.187500 1.000000
vt 0.312500 0.937500
vt 0.437500 0.937500
vt 0.500000 1.000000
vt 0.312500 1.000000
vt 0.812500 0.937500
vt 0.937500 0.937500
vt 1.000000 1.000000
vt 0.812500 1.000000
vt 0.687500 0.750000
vt 0.687500 0.687500
vt 0.750000 0.625000
vt 0.750000 0.750000
vt 0.625000 0.750000
vt 0.625000 0.812500
vt 0.687500 0.875000
vt 0.687500 0.750000
vt 0.625000 0.750000
vt 0.625000 0.687500
vt 0.687500 0.625000
vt 0.687500 0.750000
vt 0.687500 0.750000
vt 0.687500 0.812500
vt 0.750000 0.875000
vt 0.750000 0.750000
vt 0.312500 0.000000
vt 0.500000 0.000000
vt 0.500000 0.062500
vt 0.312500 0.062500
vt 0.875000 0.125000
vt 0.625000 0.125000
vt 0.687500 0.000000
vt 0.812500 0.000000
vt 0.937500 0.500000
vt 0.687500 0.500000
vt 0.687500 0.250000
vt 0.937500 0.250000
vt 0.875000 0.187500
vt 0.625000 0.187500
vt 0.875000 0.187500
vt 0.625000 0.187500
vt 0.625000 0.125000
vt 0.875000 0.125000
vt 0.875000 0.187500
vt 0.625000 0.187500
vt 0.625000 0.125000
vt 0.875000 0.125000
vt 0.875000 0.187500
vt 0.625000 0.187500
vt 0.625000 0.125000
vt 0.875000 0.125000
vt 0.937500 0.687500
vt 0.937500 0.562500
vt 0.812500 0.562500
vt 0.812500 0.687500
vt 0.687500 0.000000
vt 0.812500 0.000000
vt 0.687500 0.000000
vt 0.812500 0.000000
vt 0.687500 0.000000
vt 0.812500 0.000000
vt 0.187500 0.250000
vt 0.187500 0.437500
vt -0.000000 0.437500
vt -0.000000 0.250000
vt 0.312500 0.875000
vt 0.437500 0.875000
vt 0.500000 0.937500
vt 0.312500 0.937500
vt 0.187500 0.875000
vt 0.062500 0.875000
vt 0.000000 0.937500
vt 0.187500 0.937500
vt 0.062500 0.875000
vt 0.187500 0.875000
vt 0.250000 0.937500
vt 0.062500 0.937500
vt 0.437500 0.875000
vt 0.312500 0.875000
vt 0.250000 0.937500
vt 0.437500 0.937500
vt 0.187500 0.875000
vt 0.062500 0.875000
vt 0.062500 0.937500
vt 0.312500 0.875000
vt 0.437500 0.875000
vt 0.437500 0.937500
vt 0.625000 0.500000
vt 0.625000 0.687500
vt 0.437500 0.687500
vt 0.437500 0.500000
vt 0.125000 -0.000000
vt 0.125000 0.062500
vt 0.750000 0.937500
vt 0.750000 1.000000
vt 0.187500 0.937500
vt 0.187500 1.000000
vt 0.500000 0.750000
vt 0.312500 0.750000
vt 0.312500 0.687500
vt 0.500000 0.687500
vt 0.312500 0.875000
vt 0.312500 0.937500
vt 0.187500 0.875000
vt 0.187500 0.937500
vt 0.625000 0.687500
vt 0.687500 0.625000
vt 0.687500 0.812500
vt 0.750000 0.875000
vt 0.437500 0.937500
vt 0.312500 0.937500
vt 0.312500 1.000000
vt 0.500000 1.000000
vt 0.937500 0.937500
vt 0.812500 0.937500
vt 0.812500 1.000000
vt 1.000000 1.000000
vt 0.625000 0.312500
vt 0.437500 0.312500
vt 0.187500 0.062500
vt -0.000000 0.062500
vt 0.375000 0.750000
vt 0.187500 0.750000
vt 0.187500 0.687500
vt 0.375000 0.687500
vt 0.312500 0.000000
vt 0.500000 0.000000
vt 0.500000 0.062500
vt 0.312500 0.062500
vt 0.187500 0.250000
vt 0.187500 0.437500
vt -0.000000 0.437500
vt -0.000000 0.250000
vt 0.625000 0.500000
vt 0.625000 0.687500
vt 0.437500 0.687500
vt 0.437500 0.500000
vt 0.125000 -0.000000
vt 0.125000 0.062500
vt 0.500000 0.750000
vt 0.312500 0.750000
vt 0.312500 0.687500
vt 0.500000 0.687500
vt 0.625000 0.312500
vt 0.437500 0.312500
vt 0.187500 0.062500
vt -0.000000 0.062500
vt 0.375000 0.750000
vt 0.187500 0.750000
vt 0.187500 0.687500
vt 0.375000 0.687500
vt 0.312500 0.000000
vt 0.500000 0.000000
vt 0.500000 0.062500
vt 0.312500 0.062500
vt 0.187500 0.250000
vt 0.187500 0.437500
vt -0.000000 0.437500
vt -0.000000 0.250000
vt 0.625000 0.500000
vt 0.625000 0.687500
vt 0.437500 0.687500
vt 0.437500 0.500000
vt 0.125000 -0.000000
vt 0.125000 0.062500
vt 0.500000 0.750000
vt 0.312500 0.750000
vt 0.312500 0.687500
vt 0.500000 0.687500
vt 0.625000 0.312500
vt 0.437500 0.312500
vt 0.187500 0.062500
vt -0.000000 0.062500
vt 0.375000 0.750000
vt 0.187500 0.750000
vt 0.187500 0.687500
vt 0.375000 0.687500
vt 0.312500 0.000000
vt 0.500000 0.000000
vt 0.500000 0.062500
vt 0.312500 0.062500
vt 0.187500 0.250000
vt 0.187500 0.437500
vt -0.000000 0.437500
vt -0.000000 0.250000
vt 0.625000 0.500000
vt 0.625000 0.687500
vt 0.437500 0.687500
vt 0.437500 0.500000
vt 0.125000 -0.000000
vt 0.125000 0.062500
vt 0.500000 0.750000
vt 0.312500 0.750000
vt 0.312500 0.687500
vt 0.500000 0.687500
vt 0.625000 0.312500
vt 0.437500 0.312500
vt 0.187500 0.062500
vt -0.000000 0.062500
vt 0.375000 0.750000
vt 0.375000 0.687500
vt 0.187500 0.687500
vt 0.187500 0.750000
vt 0.750000 0.937500
vt 0.750000 1.000000
vt 0.562500 1.000000
vt 0.625000 0.937500
vt 0.187500 0.937500
vt 0.187500 1.000000
vt -0.000000 1.000000
vt 0.062500 0.937500
vt 0.312500 0.937500
vt 0.312500 1.000000
vt 0.500000 1.000000
vt 0.437500 0.937500
vt 0.812500 0.937500
vt 0.812500 1.000000
vt 1.000000 1.000000
vt 0.937500 0.937500
vt 0.687500 0.750000
vt 0.750000 0.750000
vt 0.750000 0.625000
vt 0.687500 0.687500
vt 0.625000 0.750000
vt 0.687500 0.750000
vt 0.687500 0.875000
vt 0.625000 0.812500
vt 0.625000 0.750000
vt 0.687500 0.750000
vt 0.687500 0.625000
vt 0.625000 0.687500
vt 0.687500 0.750000
vt 0.750000 0.750000
vt 0.750000 0.875000
vt 0.687500 0.812500
vt 0.312500 0.000000
vt 0.312500 0.062500
vt 0.500000 0.062500
vt 0.500000 0.000000
vt 0.187500 0.250000
vt -0.000000 0.250000
vt -0.000000 0.437500
vt 0.187500 0.437500
vt 0.625000 0.500000
vt 0.437500 0.500000
vt 0.437500 0.687500
vt 0.625000 0.687500
vt 0.125000 -0.000000
vt 0.125000 0.062500
vt 0.750000 1.000000
vt 0.750000 0.937500
vt 0.187500 1.000000
vt 0.187500 0.937500
vt 0.500000 0.750000
vt 0.500000 0.687500
vt 0.312500 0.687500
vt 0.312500 0.750000
vt 0.625000 0.687500
vt 0.687500 0.625000
vt 0.687500 0.812500
vt 0.750000 0.875000
vt 0.437500 0.937500
vt 0.500000 1.000000
vt 0.312500 1.000000
vt 0.312500 0.937500
vt 0.937500 0.937500
vt 1.000000 1.000000
vt 0.812500 1.000000
vt 0.812500 0.937500
vt 0.625000 0.312500
vt 0.437500 0.312500
vt 0.187500 0.062500
vt -0.000000 0.062500
vt 0.375000 0.750000
vt 0.375000 0.687500
vt 0.187500 0.687500
vt 0.187500 0.750000
vt 0.312500 0.000000
vt 0.312500 0.062500
vt 0.500000 0.062500
vt 0.500000 0.000000
vt 0.187500 0.250000
vt -0.000000 0.250000
vt -0.000000 0.437500
vt 0.187500 0.437500
vt 0.625000 0.500000
vt 0.437500 0.500000
vt 0.437500 0.687500
vt 0.625000 0.687500
vt 0.125000 -0.000000
vt 0.125000 0.062500
vt 0.500000 0.750000
vt 0.500000 0.687500
vt 0.312500 0.687500
vt 0.312500 0.750000
vt 0.625000 0.312500
vt 0.437500 0.312500
vt 0.187500 0.062500
vt -0.000000 0.062500
vt 0.375000 0.750000
vt 0.375000 0.687500
vt 0.187500 0.687500
vt 0.187500 0.750000
vt 0.312500 0.000000
vt 0.312500 0.062500
vt 0.500000 0.062500
vt 0.500000 0.000000
vt 0.187500 0.250000
vt -0.000000 0.250000
vt -0.000000 0.437500
vt 0.187500 0.437500
vt 0.625000 0.500000
vt 0.437500 0.500000
vt 0.437500 0.687500
vt 0.625000 0.687500
vt 0.125000 -0.000000
vt 0.125000 0.062500
vt 0.500000 0.750000
vt 0.500000 0.687500
vt 0.312500 0.687500
vt 0.312500 0.750000
vt 0.625000 0.312500
vt 0.437500 0.312500
vt 0.187500 0.062500
vt -0.000000 0.062500
vt 0.375000 0.750000
vt 0.375000 0.687500
vt 0.187500 0.687500
vt 0.187500 0.750000
vt 0.312500 0.000000
vt 0.312500 0.062500
vt 0.500000 0.062500
vt 0.500000 0.000000
vt 0.187500 0.250000
vt -0.000000 0.250000
vt -0.000000 0.437500
vt 0.187500 0.437500
vt 0.625000 0.500000
vt 0.437500 0.500000
vt 0.437500 0.687500
vt 0.625000 0.687500
vt 0.125000 -0.000000
vt 0.125000 0.062500
vt 0.500000 0.750000
vt 0.500000 0.687500
vt 0.312500 0.687500
vt 0.312500 0.750000
vt 0.625000 0.312500
vt 0.437500 0.312500
vt 0.187500 0.062500
vt -0.000000 0.062500
vt 0.375000 0.750000
vt 0.187500 0.750000
vt 0.187500 0.687500
vt 0.375000 0.687500
vt 0.750000 0.937500
vt 0.625000 0.937500
vt 0.562500 1.000000
vt 0.750000 1.000000
vt 0.187500 0.937500
vt 0.062500 0.937500
vt -0.000000 1.000000
vt 0.187500 1.000000
vt 0.312500 0.937500
vt 0.437500 0.937500
vt 0.500000 1.000000
vt 0.312500 1.000000
vt 0.812500 0.937500
vt 0.937500 0.937500
vt 1.000000 1.000000
vt 0.812500 1.000000
vt 0.687500 0.750000
vt 0.687500 0.687500
vt 0.750000 0.625000
vt 0.750000 0.750000
vt 0.625000 0.750000
vt 0.625000 0.812500
vt 0.687500 0.875000
vt 0.687500 0.750000
vt 0.625000 0.750000
vt 0.625000 0.687500
vt 0.687500 0.625000
vt 0.687500 0.750000
vt 0.687500 0.750000
vt 0.687500 0.812500
vt 0.750000 0.875000
vt 0.750000 0.750000
vt 0.312500 0.000000
vt 0.500000 0.000000
vt 0.500000 0.062500
vt 0.312500 0.062500
vt 0.875000 0.125000
vt 0.625000 0.125000
vt 0.687500 0.000000
vt 0.812500 0.000000
vt 0.937500 0.500000
vt 0.687500 0.500000
vt 0.687500 0.250000
vt 0.937500 0.250000
vt 0.875000 0.187500
vt 0.625000 0.187500
vt 0.875000 0.187500
vt 0.625000 0.187500
vt 0.625000 0.125000
vt 0.875000 0.125000
vt 0.875000 0.187500
vt 0.625000 0.187500
vt 0.625000 0.125000
vt 0.875000 0.125000
vt 0.875000 0.187500
vt 0.625000 0.187500
vt 0.625000 0.125000
vt 0.875000 0.125000
vt 0.937500 0.687500
vt 0.937500 0.562500
vt 0.812500 0.562500
vt 0.812500 0.687500
vt 0.687500 0.000000
vt 0.812500 0.000000
vt 0.687500 0.000000
vt 0.812500 0.000000
vt 0.687500 0.000000
vt 0.812500 0.000000
vt 0.187500 0.250000
vt 0.187500 0.437500
vt -0.000000 0.437500
vt -0.000000 0.250000
vt 0.312500 0.875000
vt 0.437500 0.875000
vt 0.500000 0.937500
vt 0.312500 0.937500
vt 0.187500 0.875000
vt 0.062500 0.875000
vt 0.000000 0.937500
vt 0.187500 0.937500
vt 0.062500 0.875000
vt 0.187500 0.875000
vt 0.250000 0.937500
vt 0.062500 0.937500
vt 0.437500 0.875000
vt 0.312500 0.875000
vt 0.250000 0.937500
vt 0.437500 0.937500
vt 0.187500 0.875000
vt 0.062500 0.875000
vt 0.062500 0.937500
vt 0.312500 0.875000
vt 0.437500 0.875000
vt 0.437500 0.937500
vt 0.625000 0.500000
vt 0.625000 0.687500
vt 0.437500 0.687500
vt 0.437500 0.500000
vt 0.125000 -0.000000
vt 0.125000 0.062500
vt 0.750000 0.937500
vt 0.750000 1.000000
vt 0.187500 0.937500
vt 0.187500 1.000000
vt 0.500000 0.750000
vt 0.312500 0.750000
vt 0.312500 0.687500
vt 0.500000 0.687500
vt 0.312500 0.875000
vt 0.312500 0.937500
vt 0.187500 0.875000
vt 0.187500 0.937500
vt 0.625000 0.687500
vt 0.687500 0.625000
vt 0.687500 0.812500
vt 0.750000 0.875000
vt 0.437500 0.937500
vt 0.312500 0.937500
vt 0.312500 1.000000
vt 0.500000 1.000000
vt 0.937500 0.937500
vt 0.812500 0.937500
vt 0.812500 1.000000
vt 1.000000 1.000000
vt 0.625000 0.312500
vt 0.437500 0.312500
vt 0.187500 0.062500
vt -0.000000 0.062500
vt 0.375000 0.750000
vt 0.187500 0.750000
vt 0.187500 0.687500
vt 0.375000 0.687500
vt 0.312500 0.000000
vt 0.500000 0.000000
vt 0.500000 0.062500
vt 0.312500 0.062500
vt 0.187500 0.250000
vt 0.187500 0.437500
vt -0.000000 0.437500
vt -0.000000 0.250000
vt 0.625000 0.500000
vt 0.625000 0.687500
vt 0.437500 0.687500
vt 0.437500 0.500000
vt 0.125000 -0.000000
vt 0.125000 0.062500
vt 0.500000 0.750000
vt 0.312500 0.750000
vt 0.312500 0.687500
vt 0.500000 0.687500
vt 0.625000 0.312500
vt 0.437500 0.312500
vt 0.187500 0.062500
vt -0.000000 0.062500
vt 0.375000 0.750000
vt 0.187500 0.750000
vt 0.187500 0.687500
vt 0.375000 0.687500
vt 0.312500 0.000000
vt 0.500000 0.000000
vt 0.500000 0.062500
vt 0.312500 0.062500
vt 0.187500 0.250000
vt 0.187500 0.437500
vt -0.000000 0.437500
vt -0.000000 0.250000
vt 0.625000 0.500000
vt 0.625000 0.687500
vt 0.437500 0.687500
vt 0.437500 0.500000
vt 0.125000 -0.000000
vt 0.125000 0.062500
vt 0.500000 0.750000
vt 0.312500 0.750000
vt 0.312500 0.687500
vt 0.500000 0.687500
vt 0.625000 0.312500
vt 0.437500 0.312500
vt 0.187500 0.062500
vt -0.000000 0.062500
vt 0.375000 0.750000
vt 0.187500 0.750000
vt 0.187500 0.687500
vt 0.375000 0.687500
vt 0.312500 0.000000
vt 0.500000 0.000000
vt 0.500000 0.062500
vt 0.312500 0.062500
vt 0.187500 0.250000
vt 0.187500 0.437500
vt -0.000000 0.437500
vt -0.000000 0.250000
vt 0.625000 0.500000
vt 0.625000 0.687500
vt 0.437500 0.687500
vt 0.437500 0.500000
vt 0.125000 -0.000000
vt 0.125000 0.062500
vt 0.500000 0.750000
vt 0.312500 0.750000
vt 0.312500 0.687500
vt 0.500000 0.687500
vt 0.625000 0.312500
vt 0.437500 0.312500
vt 0.187500 0.062500
vt -0.000000 0.062500
vt 0.375000 0.750000
vt 0.375000 0.687500
vt 0.187500 0.687500
vt 0.187500 0.750000
vt 0.750000 0.937500
vt 0.750000 1.000000
vt 0.562500 1.000000
vt 0.625000 0.937500
vt 0.187500 0.937500
vt 0.187500 1.000000
vt -0.000000 1.000000
vt 0.062500 0.937500
vt 0.312500 0.937500
vt 0.312500 1.000000
vt 0.500000 1.000000
vt 0.437500 0.937500
vt 0.812500 0.937500
vt 0.812500 1.000000
vt 1.000000 1.000000
vt 0.937500 0.937500
vt 0.687500 0.750000
vt 0.750000 0.750000
vt 0.750000 0.625000
vt 0.687500 0.687500
vt 0.625000 0.750000
vt 0.687500 0.750000
vt 0.687500 0.875000
vt 0.625000 0.812500
vt 0.625000 0.750000
vt 0.687500 0.750000
vt 0.687500 0.625000
vt 0.625000 0.687500
vt 0.687500 0.750000
vt 0.750000 0.750000
vt 0.750000 0.875000
vt 0.687500 0.812500
vt 0.312500 0.000000
vt 0.312500 0.062500
vt 0.500000 0.062500
vt 0.500000 0.000000
vt 0.187500 0.250000
vt -0.000000 0.250000
vt -0.000000 0.437500
vt 0.187500 0.437500
vt 0.625000 0.500000
vt 0.437500 0.500000
vt 0.437500 0.687500
vt 0.625000 0.687500
vt 0.125000 -0.000000
vt 0.125000 0.062500
vt 0.750000 1.000000
vt 0.750000 0.937500
vt 0.187500 1.000000
vt 0.187500 0.937500
vt 0.500000 0.750000
vt 0.500000 0.687500
vt 0.312500 0.687500
vt 0.312500 0.750000
vt 0.625000 0.687500
vt 0.687500 0.625000
vt 0.687500 0.812500
vt 0.750000 0.875000
vt 0.437500 0.937500
vt 0.500000 1.000000
vt 0.312500 1.000000
vt 0.312500 0.937500
vt 0.937500 0.937500
vt 1.000000 1.000000
vt 0.812500 1.000000
vt 0.812500 0.937500
vt 0.625000 0.312500
vt 0.437500 0.312500
vt 0.187500 0.062500
vt -0.000000 0.062500
vt 0.375000 0.750000
vt 0.375000 0.687500
vt 0.187500 0.687500
vt 0.187500 0.750000
vt 0.312500 0.000000
vt 0.312500 0.062500
vt 0.500000 0.062500
vt 0.500000 0.000000
vt 0.187500 0.250000
vt -0.000000 0.250000
vt -0.000000 0.437500
vt 0.187500 0.437500
vt 0.625000 0.500000
vt 0.437500 0.500000
vt 0.437500 0.687500
vt 0.625000 0.687500
vt 0.125000 -0.000000
vt 0.125000 0.062500
vt 0.500000 0.750000
vt 0.500000 0.687500
vt 0.312500 0.687500
vt 0.312500 0.750000
vt 0.625000 0.312500
vt 0.437500 0.312500
vt 0.187500 0.062500
vt -0.000000 0.062500
vt 0.375000 0.750000
vt 0.375000 0.687500
vt 0.187500 0.687500
vt 0.187500 0.750000
vt 0.312500 0.000000
vt 0.312500 0.062500
vt 0.500000 0.062500
vt 0.500000 0.000000
vt 0.187500 0.250000
vt -0.000000 0.250000
vt -0.000000 0.437500
vt 0.187500 0.437500
vt 0.625000 0.500000
vt 0.437500 0.500000
vt 0.437500 0.687500
vt 0.625000 0.687500
vt 0.125000 -0.000000
vt 0.125000 0.062500
vt 0.500000 0.750000
vt 0.500000 0.687500
vt 0.312500 0.687500
vt 0.312500 0.750000
vt 0.625000 0.312500
vt 0.437500 0.312500
vt 0.187500 0.062500
vt -0.000000 0.062500
vt 0.375000 0.750000
vt 0.375000 0.687500
vt 0.187500 0.687500
vt 0.187500 0.750000
vt 0.312500 0.000000
vt 0.312500 0.062500
vt 0.500000 0.062500
vt 0.500000 0.000000
vt 0.187500 0.250000
vt -0.000000 0.250000
vt -0.000000 0.437500
vt 0.187500 0.437500
vt 0.625000 0.500000
vt 0.437500 0.500000
vt 0.437500 0.687500
vt 0.625000 0.687500
vt 0.125000 -0.000000
vt 0.125000 0.062500
vt 0.500000 0.750000
vt 0.500000 0.687500
vt 0.312500 0.687500
vt 0.312500 0.750000
vt 0.625000 0.312500
vt 0.437500 0.312500
vt 0.187500 0.062500
vt -0.000000 0.062500
vn -0.0002 0.0000 1.0000
vn 0.0000 1.0000 0.0000
vn -0.7071 0.7071 0.0000
vn 0.7071 0.7071 0.0000
vn 0.0000 0.7071 0.7071
vn 0.0000 0.7071 -0.7071
vn 0.0000 0.0000 1.0000
vn 0.0000 -0.4472 0.8944
vn -1.0000 0.0000 0.0000
vn 0.0000 0.0000 -1.0000
vn 1.0000 0.0000 0.0000
vn 0.0000 -1.0000 0.0000
vn -0.8944 -0.4472 0.0000
vn 0.0000 -0.4472 -0.8944
vn 0.8944 -0.4472 0.0000
vn -0.0001 0.0001 1.0000
vn 1.0000 0.0002 0.0001
vn 1.0000 -0.0005 0.0000
vn 1.0000 -0.0001 0.0001
vn 1.0000 -0.0002 0.0001
vn 1.0000 0.0000 0.0002
vn 0.0002 0.0000 -1.0000
vn 0.0001 0.0002 -1.0000
vn 0.7071 -0.7071 0.0000
vn -0.7071 -0.7071 0.0000
vn 0.0000 -0.7071 -0.7071
vn 0.0000 -0.7071 0.7071
vn 0.0001 -0.0001 -1.0000
vn -1.0000 -0.0002 -0.0001
vn -1.0000 0.0005 0.0000
vn -1.0000 0.0001 -0.0001
vn -1.0000 0.0002 -0.0001
vn -1.0000 0.0000 -0.0002
vn -0.0001 -0.0002 1.0000
usemtl MATERIA_VESSEL
s off
f 34/1/1 68/2/1 66/3/1 32/4/1
f 43/5/2 10/6/2 9/7/2 60/8/2
f 44/9/2 13/10/2 69/11/2 74/12/2
f 35/13/2 11/14/2 56/15/2 33/16/2
f 36/17/2 12/18/2 68/19/2 34/20/2
f 45/21/3 7/22/3 10/23/3 43/24/3
f 46/25/4 5/26/4 13/27/4 44/28/4
f 37/29/5 6/30/5 11/31/5 35/32/5
f 38/33/6 8/34/6 12/35/6 36/36/6
f 39/37/7 29/38/7 15/39/7 31/40/7
f 20/41/8 22/42/8 26/43/8 24/44/8
f 17/45/2 19/46/2 18/47/2 16/48/2
f 16/49/7 18/50/7 22/42/7 20/41/7
f 18/51/9 19/52/9 23/53/9 22/54/9
f 19/55/10 17/56/10 21/57/10 23/58/10
f 17/59/11 16/60/11 20/61/11 21/62/11
f 25/63/12 24/64/12 26/65/12 27/66/12
f 22/54/13 23/53/13 27/67/13 26/68/13
f 23/58/14 21/57/14 25/69/14 27/70/14
f 21/62/15 20/61/15 24/71/15 25/72/15
f 53/73/16 32/74/16 66/75/16 51/76/16
f 41/77/12 2/78/12 29/79/12 39/80/12
f 42/81/12 3/82/12 71/83/12 40/84/12
f 49/85/12 1/86/12 28/87/12 47/88/12
f 50/89/12 4/90/12 30/91/12 48/92/12
f 4/93/12 42/94/12 40/95/12 30/91/12
f 1/96/12 41/97/12 39/98/12 28/87/12
f 52/99/7 55/100/7 32/101/7 53/102/7
f 28/103/7 39/37/7 31/40/7 14/104/7
f 7/22/6 38/33/6 36/36/6 10/23/6
f 5/26/5 37/29/5 35/32/5 13/27/5
f 10/6/2 36/105/2 34/106/2 9/7/2
f 13/10/2 35/107/2 33/108/2 69/11/2
f 9/109/7 34/110/7 32/111/7 55/112/7
f 2/78/12 50/113/12 48/114/12 29/79/12
f 3/82/12 49/115/12 47/116/12 71/83/12
f 8/117/4 46/25/4 44/28/4 12/118/4
f 6/119/3 45/21/3 43/24/3 11/120/3
f 12/121/2 44/122/2 74/123/2 68/124/2
f 11/125/2 43/126/2 60/127/2 56/128/2
f 15/129/7 52/99/7 53/102/7 31/130/7
f 31/131/7 53/73/7 51/76/7 14/132/7
f 60/133/17 9/134/17 55/135/17 59/136/17
f 48/137/18 30/138/18 57/139/18 58/140/18
f 62/141/19 59/142/19 55/143/19 52/144/19
f 61/145/11 54/146/11 59/147/11 62/148/11
f 29/149/20 48/137/20 58/140/20 15/150/20
f 56/151/11 60/152/11 59/153/11 54/154/11
f 57/155/11 61/145/11 62/148/11 58/156/11
f 58/157/21 62/141/21 52/144/21 15/158/21
f 33/159/22 56/160/22 54/161/22 64/162/22
f 40/163/10 71/164/10 70/165/10 63/166/10
f 65/167/22 64/168/22 54/169/22 61/170/22
f 75/171/10 67/172/10 64/173/10 65/174/10
f 30/175/23 40/163/23 63/166/23 57/176/23
f 69/177/10 33/178/10 64/179/10 67/180/10
f 70/181/10 75/171/10 65/174/10 63/182/10
f 63/183/22 65/167/22 61/170/22 57/184/22
f 74/185/9 69/186/9 67/187/9 73/188/9
f 47/189/9 28/190/9 14/191/9 72/192/9
f 76/193/9 73/194/9 67/195/9 75/196/9
f 51/197/9 66/198/9 73/199/9 76/200/9
f 71/201/9 47/189/9 72/192/9 70/202/9
f 68/203/9 74/204/9 73/205/9 66/206/9
f 14/207/9 51/197/9 76/200/9 72/208/9
f 72/209/9 76/193/9 75/196/9 70/210/9
f 94/211/22 92/212/22 122/213/22 124/214/22
f 101/215/12 116/216/12 81/217/12 82/218/12
f 102/219/12 130/220/12 125/221/12 85/222/12
f 95/223/12 93/224/12 112/225/12 83/226/12
f 96/227/12 94/228/12 124/229/12 84/230/12
f 103/231/24 101/232/24 82/233/24 79/234/24
f 104/235/25 102/236/25 85/237/25 77/238/25
f 97/239/26 95/240/26 83/241/26 78/242/26
f 98/243/27 96/244/27 84/245/27 80/246/27
f 99/247/10 91/248/10 87/249/10 89/250/10
f 109/251/28 107/252/28 122/253/28 92/254/28
f 108/255/10 109/256/10 92/257/10 111/258/10
f 88/259/10 86/260/10 91/248/10 99/247/10
f 79/234/27 82/233/27 96/244/27 98/243/27
f 77/238/26 85/237/26 95/240/26 97/239/26
f 82/218/12 81/217/12 94/261/12 96/262/12
f 85/222/12 125/221/12 93/263/12 95/264/12
f 81/265/10 111/266/10 92/267/10 94/268/10
f 80/269/25 84/270/25 102/236/25 104/235/25
f 78/271/24 83/272/24 101/232/24 103/231/24
f 84/273/12 124/274/12 130/275/12 102/276/12
f 83/277/12 112/278/12 116/279/12 101/280/12
f 87/281/10 91/282/10 109/256/10 108/255/10
f 91/283/10 86/284/10 107/252/10 109/251/10
f 116/285/29 115/286/29 111/287/29 81/288/29
f 106/289/30 114/290/30 113/291/30 90/292/30
f 118/293/31 108/294/31 111/295/31 115/296/31
f 117/297/9 118/298/9 115/299/9 110/300/9
f 89/301/32 87/302/32 114/290/32 106/289/32
f 112/303/9 110/304/9 115/305/9 116/306/9
f 113/307/9 114/308/9 118/298/9 117/297/9
f 114/309/33 87/310/33 108/294/33 118/293/33
f 93/311/1 120/312/1 110/313/1 112/314/1
f 100/315/7 119/316/7 126/317/7 127/318/7
f 121/319/1 117/320/1 110/321/1 120/322/1
f 131/323/7 121/324/7 120/325/7 123/326/7
f 90/327/34 113/328/34 119/316/34 100/315/34
f 125/329/7 123/330/7 120/331/7 93/332/7
f 126/333/7 119/334/7 121/324/7 131/323/7
f 119/335/1 113/336/1 117/320/1 121/319/1
f 130/337/11 129/338/11 123/339/11 125/340/11
f 105/341/11 128/342/11 86/343/11 88/344/11
f 132/345/11 131/346/11 123/347/11 129/348/11
f 107/349/11 132/350/11 129/351/11 122/352/11
f 127/353/11 126/354/11 128/342/11 105/341/11
f 124/355/11 122/356/11 129/357/11 130/358/11
f 86/359/11 128/360/11 132/350/11 107/349/11
f 128/361/11 126/362/11 131/346/11 132/345/11
f 166/363/1 200/364/1 198/365/1 164/366/1
f 175/367/2 142/368/2 141/369/2 192/370/2
f 176/371/2 145/372/2 201/373/2 206/374/2
f 167/375/2 143/376/2 188/377/2 165/378/2
f 168/379/2 144/380/2 200/381/2 166/382/2
f 177/383/3 139/384/3 142/385/3 175/386/3
f 178/387/4 137/388/4 145/389/4 176/390/4
f 169/391/5 138/392/5 143/393/5 167/394/5
f 170/395/6 140/396/6 144/397/6 168/398/6
f 171/399/7 161/400/7 147/401/7 163/402/7
f 152/403/8 154/404/8 158/405/8 156/406/8
f 149/407/2 151/408/2 150/409/2 148/410/2
f 148/411/7 150/412/7 154/404/7 152/403/7
f 150/413/9 151/414/9 155/415/9 154/416/9
f 151/417/10 149/418/10 153/419/10 155/420/10
f 149/421/11 148/422/11 152/423/11 153/424/11
f 157/425/12 156/426/12 158/427/12 159/428/12
f 154/416/13 155/415/13 159/429/13 158/430/13
f 155/420/14 153/419/14 157/431/14 159/432/14
f 153/424/15 152/423/15 156/433/15 157/434/15
f 185/435/16 164/436/16 198/437/16 183/438/16
f 173/439/12 134/440/12 161/441/12 171/442/12
f 174/443/12 135/444/12 203/445/12 172/446/12
f 181/447/12 133/448/12 160/449/12 179/450/12
f 182/451/12 136/452/12 162/453/12 180/454/12
f 136/455/12 174/456/12 172/457/12 162/453/12
f 133/458/12 173/459/12 171/460/12 160/449/12
f 184/461/7 187/462/7 164/463/7 185/464/7
f 160/465/7 171/399/7 163/402/7 146/466/7
f 139/384/6 170/395/6 168/398/6 142/385/6
f 137/388/5 169/391/5 167/394/5 145/389/5
f 142/368/2 168/467/2 166/468/2 141/369/2
f 145/372/2 167/469/2 165/470/2 201/373/2
f 141/471/7 166/472/7 164/473/7 187/474/7
f 134/440/12 182/475/12 180/476/12 161/441/12
f 135/444/12 181/477/12 179/478/12 203/445/12
f 140/479/4 178/387/4 176/390/4 144/480/4
f 138/481/3 177/383/3 175/386/3 143/482/3
f 144/483/2 176/484/2 206/485/2 200/486/2
f 143/487/2 175/488/2 192/489/2 188/490/2
f 147/491/7 184/461/7 185/464/7 163/492/7
f 163/493/7 185/435/7 183/438/7 146/494/7
f 192/495/17 141/496/17 187/497/17 191/498/17
f 180/499/18 162/500/18 189/501/18 190/502/18
f 194/503/19 191/504/19 187/505/19 184/506/19
f 193/507/11 186/508/11 191/509/11 194/510/11
f 161/511/20 180/499/20 190/502/20 147/512/20
f 188/513/11 192/514/11 191/515/11 186/516/11
f 189/517/11 193/507/11 194/510/11 190/518/11
f 190/519/21 194/503/21 184/506/21 147/520/21
f 165/521/22 188/522/22 186/523/22 196/524/22
f 172/525/10 203/526/10 202/527/10 195/528/10
f 197/529/22 196/530/22 186/531/22 193/532/22
f 207/533/10 199/534/10 196/535/10 197/536/10
f 162/537/23 172/525/23 195/528/23 189/538/23
f 201/539/10 165/540/10 196/541/10 199/542/10
f 202/543/10 207/533/10 197/536/10 195/544/10
f 195/545/22 197/529/22 193/532/22 189/546/22
f 206/547/9 201/548/9 199/549/9 205/550/9
f 179/551/9 160/552/9 146/553/9 204/554/9
f 208/555/9 205/556/9 199/557/9 207/558/9
f 183/559/9 198/560/9 205/561/9 208/562/9
f 203/563/9 179/551/9 204/554/9 202/564/9
f 200/565/9 206/566/9 205/567/9 198/568/9
f 146/569/9 183/559/9 208/562/9 204/570/9
f 204/571/9 208/555/9 207/558/9 202/572/9
f 226/573/22 224/574/22 254/575/22 256/576/22
f 233/577/12 248/578/12 213/579/12 214/580/12
f 234/581/12 262/582/12 257/583/12 217/584/12
f 227/585/12 225/586/12 244/587/12 215/588/12
f 228/589/12 226/590/12 256/591/12 216/592/12
f 235/593/24 233/594/24 214/595/24 211/596/24
f 236/597/25 234/598/25 217/599/25 209/600/25
f 229/601/26 227/602/26 215/603/26 210/604/26
f 230/605/27 228/606/27 216/607/27 212/608/27
f 231/609/10 223/610/10 219/611/10 221/612/10
f 241/613/28 239/614/28 254/615/28 224/616/28
f 240/617/10 241/618/10 224/619/10 243/620/10
f 220/621/10 218/622/10 223/610/10 231/609/10
f 211/596/27 214/595/27 228/606/27 230/605/27
f 209/600/26 217/599/26 227/602/26 229/601/26
f 214/580/12 213/579/12 226/623/12 228/624/12
f 217/584/12 257/583/12 225/625/12 227/626/12
f 213/627/10 243/628/10 224/629/10 226/630/10
f 212/631/25 216/632/25 234/598/25 236/597/25
f 210/633/24 215/634/24 233/594/24 235/593/24
f 216/635/12 256/636/12 262/637/12 234/638/12
f 215/639/12 244/640/12 248/641/12 233/642/12
f 219/643/10 223/644/10 241/618/10 240/617/10
f 223/645/10 218/646/10 239/614/10 241/613/10
f 248/647/29 247/648/29 243/649/29 213/650/29
f 238/651/30 246/652/30 245/653/30 222/654/30
f 250/655/31 240/656/31 243/657/31 247/658/31
f 249/659/9 250/660/9 247/661/9 242/662/9
f 221/663/32 219/664/32 246/652/32 238/651/32
f 244/665/9 242/666/9 247/667/9 248/668/9
f 245/669/9 246/670/9 250/660/9 249/659/9
f 246/671/33 219/672/33 240/656/33 250/655/33
f 225/673/1 252/674/1 242/675/1 244/676/1
f 232/677/7 251/678/7 258/679/7 259/680/7
f 253/681/1 249/682/1 242/683/1 252/684/1
f 263/685/7 253/686/7 252/687/7 255/688/7
f 222/689/34 245/690/34 251/678/34 232/677/34
f 257/691/7 255/692/7 252/693/7 225/694/7
f 258/695/7 251/696/7 253/686/7 263/685/7
f 251/697/1 245/698/1 249/682/1 253/681/1
f 262/699/11 261/700/11 255/701/11 257/702/11
f 237/703/11 260/704/11 218/705/11 220/706/11
f 264/707/11 263/708/11 255/709/11 261/710/11
f 239/711/11 264/712/11 261/713/11 254/714/11
f 259/715/11 258/716/11 260/704/11 237/703/11
f 256/717/11 254/718/11 261/719/11 262/720/11
f 218/721/11 260/722/11 264/712/11 239/711/11
f 260/723/11 258/724/11 263/708/11 264/707/11
f 298/725/1 332/726/1 330/727/1 296/728/1
f 307/729/2 274/730/2 273/731/2 324/732/2
f 308/733/2 277/734/2 333/735/2 338/736/2
f 299/737/2 275/738/2 320/739/2 297/740/2
f 300/741/2 276/742/2 332/743/2 298/744/2
f 309/745/3 271/746/3 274/747/3 307/748/3
f 310/749/4 269/750/4 277/751/4 308/752/4
f 301/753/5 270/754/5 275/755/5 299/756/5
f 302/757/6 272/758/6 276/759/6 300/760/6
f 303/761/7 293/762/7 279/763/7 295/764/7
f 284/765/8 286/766/8 290/767/8 288/768/8
f 281/769/2 283/770/2 282/771/2 280/772/2
f 280/773/7 282/774/7 286/766/7 284/765/7
f 282/775/9 283/776/9 287/777/9 286/778/9
f 283/779/10 281/780/10 285/781/10 287/782/10
f 281/783/11 280/784/11 284/785/11 285/786/11
f 289/787/12 288/788/12 290/789/12 291/790/12
f 286/778/13 287/777/13 291/791/13 290/792/13
f 287/782/14 285/781/14 289/793/14 291/794/14
f 285/786/15 284/785/15 288/795/15 289/796/15
f 317/797/16 296/798/16 330/799/16 315/800/16
f 305/801/12 266/802/12 293/803/12 303/804/12
f 306/805/12 267/806/12 335/807/12 304/808/12
f 313/809/12 265/810/12 292/811/12 311/812/12
f 314/813/12 268/814/12 294/815/12 312/816/12
f 268/817/12 306/818/12 304/819/12 294/815/12
f 265/820/12 305/821/12 303/822/12 292/811/12
f 316/823/7 319/824/7 296/825/7 317/826/7
f 292/827/7 303/761/7 295/764/7 278/828/7
f 271/746/6 302/757/6 300/760/6 274/747/6
f 269/750/5 301/753/5 299/756/5 277/751/5
f 274/730/2 300/829/2 298/830/2 273/731/2
f 277/734/2 299/831/2 297/832/2 333/735/2
f 273/833/7 298/834/7 296/835/7 319/836/7
f 266/802/12 314/837/12 312/838/12 293/803/12
f 267/806/12 313/839/12 311/840/12 335/807/12
f 272/841/4 310/749/4 308/752/4 276/842/4
f 270/843/3 309/745/3 307/748/3 275/844/3
f 276/845/2 308/846/2 338/847/2 332/848/2
f 275/849/2 307/850/2 324/851/2 320/852/2
f 279/853/7 316/823/7 317/826/7 295/854/7
f 295/855/7 317/797/7 315/800/7 278/856/7
f 324/857/17 273/858/17 319/859/17 323/860/17
f 312/861/18 294/862/18 321/863/18 322/864/18
f 326/865/19 323/866/19 319/867/19 316/868/19
f 325/869/11 318/870/11 323/871/11 326/872/11
f 293/873/20 312/861/20 322/864/20 279/874/20
f 320/875/11 324/876/11 323/877/11 318/878/11
f 321/879/11 325/869/11 326/872/11 322/880/11
f 322/881/21 326/865/21 316/868/21 279/882/21
f 297/883/22 320/884/22 318/885/22 328/886/22
f 304/887/10 335/888/10 334/889/10 327/890/10
f 329/891/22 328/892/22 318/893/22 325/894/22
f 339/895/10 331/896/10 328/897/10 329/898/10
f 294/899/23 304/887/23 327/890/23 321/900/23
f 333/901/10 297/902/10 328/903/10 331/904/10
f 334/905/10 339/895/10 329/898/10 327/906/10
f 327/907/22 329/891/22 325/894/22 321/908/22
f 338/909/9 333/910/9 331/911/9 337/912/9
f 311/913/9 292/914/9 278/915/9 336/916/9
f 340/917/9 337/918/9 331/919/9 339/920/9
f 315/921/9 330/922/9 337/923/9 340/924/9
f 335/925/9 311/913/9 336/916/9 334/926/9
f 332/927/9 338/928/9 337/929/9 330/930/9
f 278/931/9 315/921/9 340/924/9 336/932/9
f 336/933/9 340/917/9 339/920/9 334/934/9
f 358/935/22 356/936/22 386/937/22 388/938/22
f 365/939/12 380/940/12 345/941/12 346/942/12
f 366/943/12 394/944/12 389/945/12 349/946/12
f 359/947/12 357/948/12 376/949/12 347/950/12
f 360/951/12 358/952/12 388/953/12 348/954/12
f 367/955/24 365/956/24 346/957/24 343/958/24
f 368/959/25 366/960/25 349/961/25 341/962/25
f 361/963/26 359/964/26 347/965/26 342/966/26
f 362/967/27 360/968/27 348/969/27 344/970/27
f 363/971/10 355/972/10 351/973/10 353/974/10
f 373/975/28 371/976/28 386/977/28 356/978/28
f 372/979/10 373/980/10 356/981/10 375/982/10
f 352/983/10 350/984/10 355/972/10 363/971/10
f 343/958/27 346/957/27 360/968/27 362/967/27
f 341/962/26 349/961/26 359/964/26 361/963/26
f 346/942/12 345/941/12 358/985/12 360/986/12
f 349/946/12 389/945/12 357/987/12 359/988/12
f 345/989/10 375/990/10 356/991/10 358/992/10
f 344/993/25 348/994/25 366/960/25 368/959/25
f 342/995/24 347/996/24 365/956/24 367/955/24
f 348/997/12 388/998/12 394/999/12 366/1000/12
f 347/1001/12 376/1002/12 380/1003/12 365/1004/12
f 351/1005/10 355/1006/10 373/980/10 372/979/10
f 355/1007/10 350/1008/10 371/976/10 373/975/10
f 380/1009/29 379/1010/29 375/1011/29 345/1012/29
f 370/1013/30 378/1014/30 377/1015/30 354/1016/30
f 382/1017/31 372/1018/31 375/1019/31 379/1020/31
f 381/1021/9 382/1022/9 379/1023/9 374/1024/9
f 353/1025/32 351/1026/32 378/1014/32 370/1013/32
f 376/1027/9 374/1028/9 379/1029/9 380/1030/9
f 377/1031/9 378/1032/9 382/1022/9 381/1021/9
f 378/1033/33 351/1034/33 372/1018/33 382/1017/33
f 357/1035/1 384/1036/1 374/1037/1 376/1038/1
f 364/1039/7 383/1040/7 390/1041/7 391/1042/7
f 385/1043/1 381/1044/1 374/1045/1 384/1046/1
f 395/1047/7 385/1048/7 384/1049/7 387/1050/7
f 354/1051/34 377/1052/34 383/1040/34 364/1039/34
f 389/1053/7 387/1054/7 384/1055/7 357/1056/7
f 390/1057/7 383/1058/7 385/1048/7 395/1047/7
f 383/1059/1 377/1060/1 381/1044/1 385/1043/1
f 394/1061/11 393/1062/11 387/1063/11 389/1064/11
f 369/1065/11 392/1066/11 350/1067/11 352/1068/11
f 396/1069/11 395/1070/11 387/1071/11 393/1072/11
f 371/1073/11 396/1074/11 393/1075/11 386/1076/11
f 391/1077/11 390/1078/11 392/1066/11 369/1065/11
f 388/1079/11 386/1080/11 393/1081/11 394/1082/11
f 350/1083/11 392/1084/11 396/1074/11 371/1073/11
f 392/1085/11 390/1086/11 395/1070/11 396/1069/11
f 430/1087/1 464/1088/1 462/1089/1 428/1090/1
f 439/1091/2 406/1092/2 405/1093/2 456/1094/2
f 440/1095/2 409/1096/2 465/1097/2 470/1098/2
f 431/1099/2 407/1100/2 452/1101/2 429/1102/2
f 432/1103/2 408/1104/2 464/1105/2 430/1106/2
f 441/1107/3 403/1108/3 406/1109/3 439/1110/3
f 442/1111/4 401/1112/4 409/1113/4 440/1114/4
f 433/1115/5 402/1116/5 407/1117/5 431/1118/5
f 434/1119/6 404/1120/6 408/1121/6 432/1122/6
f 435/1123/7 425/1124/7 411/1125/7 427/1126/7
f 416/1127/8 418/1128/8 422/1129/8 420/1130/8
f 413/1131/2 415/1132/2 414/1133/2 412/1134/2
f 412/1135/7 414/1136/7 418/1128/7 416/1127/7
f 414/1137/9 415/1138/9 419/1139/9 418/1140/9
f 415/1141/10 413/1142/10 417/1143/10 419/1144/10
f 413/1145/11 412/1146/11 416/1147/11 417/1148/11
f 421/1149/12 420/1150/12 422/1151/12 423/1152/12
f 418/1140/13 419/1139/13 423/1153/13 422/1154/13
f 419/1144/14 417/1143/14 421/1155/14 423/1156/14
f 417/1148/15 416/1147/15 420/1157/15 421/1158/15
f 449/1159/16 428/1160/16 462/1161/16 447/1162/16
f 437/1163/12 398/1164/12 425/1165/12 435/1166/12
f 438/1167/12 399/1168/12 467/1169/12 436/1170/12
f 445/1171/12 397/1172/12 424/1173/12 443/1174/12
f 446/1175/12 400/1176/12 426/1177/12 444/1178/12
f 400/1179/12 438/1180/12 436/1181/12 426/1177/12
f 397/1182/12 437/1183/12 435/1184/12 424/1173/12
f 448/1185/7 451/1186/7 428/1187/7 449/1188/7
f 424/1189/7 435/1123/7 427/1126/7 410/1190/7
f 403/1108/6 434/1119/6 432/1122/6 406/1109/6
f 401/1112/5 433/1115/5 431/1118/5 409/1113/5
f 406/1092/2 432/1191/2 430/1192/2 405/1093/2
f 409/1096/2 431/1193/2 429/1194/2 465/1097/2
f 405/1195/7 430/1196/7 428/1197/7 451/1198/7
f 398/1164/12 446/1199/12 444/1200/12 425/1165/12
f 399/1168/12 445/1201/12 443/1202/12 467/1169/12
f 404/1203/4 442/1111/4 440/1114/4 408/1204/4
f 402/1205/3 441/1107/3 439/1110/3 407/1206/3
f 408/1207/2 440/1208/2 470/1209/2 464/1210/2
f 407/1211/2 439/1212/2 456/1213/2 452/1214/2
f 411/1215/7 448/1185/7 449/1188/7 427/1216/7
f 427/1217/7 449/1159/7 447/1162/7 410/1218/7
f 456/1219/17 405/1220/17 451/1221/17 455/1222/17
f 444/1223/18 426/1224/18 453/1225/18 454/1226/18
f 458/1227/19 455/1228/19 451/1229/19 448/1230/19
f 457/1231/11 450/1232/11 455/1233/11 458/1234/11
f 425/1235/20 444/1223/20 454/1226/20 411/1236/20
f 452/1237/11 456/1238/11 455/1239/11 450/1240/11
f 453/1241/11 457/1231/11 458/1234/11 454/1242/11
f 454/1243/21 458/1227/21 448/1230/21 411/1244/21
f 429/1245/22 452/1246/22 450/1247/22 460/1248/22
f 436/1249/10 467/1250/10 466/1251/10 459/1252/10
f 461/1253/22 460/1254/22 450/1255/22 457/1256/22
f 471/1257/10 463/1258/10 460/1259/10 461/1260/10
f 426/1261/23 436/1249/23 459/1252/23 453/1262/23
f 465/1263/10 429/1264/10 460/1265/10 463/1266/10
f 466/1267/10 471/1257/10 461/1260/10 459/1268/10
f 459/1269/22 461/1253/22 457/1256/22 453/1270/22
f 470/1271/9 465/1272/9 463/1273/9 469/1274/9
f 443/1275/9 424/1276/9 410/1277/9 468/1278/9
f 472/1279/9 469/1280/9 463/1281/9 471/1282/9
f 447/1283/9 462/1284/9 469/1285/9 472/1286/9
f 467/1287/9 443/1275/9 468/1278/9 466/1288/9
f 464/1289/9 470/1290/9 469/1291/9 462/1292/9
f 410/1293/9 447/1283/9 472/1286/9 468/1294/9
f 468/1295/9 472/1279/9 471/1282/9 466/1296/9
f 490/1297/22 488/1298/22 518/1299/22 520/1300/22
f 497/1301/12 512/1302/12 477/1303/12 478/1304/12
f 498/1305/12 526/1306/12 521/1307/12 481/1308/12
f 491/1309/12 489/1310/12 508/1311/12 479/1312/12
f 492/1313/12 490/1314/12 520/1315/12 480/1316/12
f 499/1317/24 497/1318/24 478/1319/24 475/1320/24
f 500/1321/25 498/1322/25 481/1323/25 473/1324/25
f 493/1325/26 491/1326/26 479/1327/26 474/1328/26
f 494/1329/27 492/1330/27 480/1331/27 476/1332/27
f 495/1333/10 487/1334/10 483/1335/10 485/1336/10
f 505/1337/28 503/1338/28 518/1339/28 488/1340/28
f 504/1341/10 505/1342/10 488/1343/10 507/1344/10
f 484/1345/10 482/1346/10 487/1334/10 495/1333/10
f 475/1320/27 478/1319/27 492/1330/27 494/1329/27
f 473/1324/26 481/1323/26 491/1326/26 493/1325/26
f 478/1304/12 477/1303/12 490/1347/12 492/1348/12
f 481/1308/12 521/1307/12 489/1349/12 491/1350/12
f 477/1351/10 507/1352/10 488/1353/10 490/1354/10
f 476/1355/25 480/1356/25 498/1322/25 500/1321/25
f 474/1357/24 479/1358/24 497/1318/24 499/1317/24
f 480/1359/12 520/1360/12 526/1361/12 498/1362/12
f 479/1363/12 508/1364/12 512/1365/12 497/1366/12
f 483/1367/10 487/1368/10 505/1342/10 504/1341/10
f 487/1369/10 482/1370/10 503/1338/10 505/1337/10
f 512/1371/29 511/1372/29 507/1373/29 477/1374/29
f 502/1375/30 510/1376/30 509/1377/30 486/1378/30
f 514/1379/31 504/1380/31 507/1381/31 511/1382/31
f 513/1383/9 514/1384/9 511/1385/9 506/1386/9
f 485/1387/32 483/1388/32 510/1376/32 502/1375/32
f 508/1389/9 506/1390/9 511/1391/9 512/1392/9
f 509/1393/9 510/1394/9 514/1384/9 513/1383/9
f 510/1395/33 483/1396/33 504/1380/33 514/1379/33
f 489/1397/1 516/1398/1 506/1399/1 508/1400/1
f 496/1401/7 515/1402/7 522/1403/7 523/1404/7
f 517/1405/1 513/1406/1 506/1407/1 516/1408/1
f 527/1409/7 517/1410/7 516/1411/7 519/1412/7
f 486/1413/34 509/1414/34 515/1402/34 496/1401/34
f 521/1415/7 519/1416/7 516/1417/7 489/1418/7
f 522/1419/7 515/1420/7 517/1410/7 527/1409/7
f 515/1421/1 509/1422/1 513/1406/1 517/1405/1
f 526/1423/11 525/1424/11 519/1425/11 521/1426/11
f 501/1427/11 524/1428/11 482/1429/11 484/1430/11
f 528/1431/11 527/1432/11 519/1433/11 525/1434/11
f 503/1435/11 528/1436/11 525/1437/11 518/1438/11
f 523/1439/11 522/1440/11 524/1428/11 501/1427/11
f 520/1441/11 518/1442/11 525/1443/11 526/1444/11
f 482/1445/11 524/1446/11 528/1436/11 503/1435/11
f 524/1447/11 522/1448/11 527/1432/11 528/1431/11
