# Blender v2.80 (sub 75) OBJ File: 'chem devices.blend'
# www.blender.org
mtllib materia_reflector_eye.mtl
o REFLECTOR_EYE_SHELL_Plane.009
v -0.125000 0.132583 -0.031250
v 0.125000 0.132583 -0.031250
v 0.257583 0.000000 -0.031250
v -0.125000 -0.132583 0.031250
v 0.169194 -0.000000 0.000000
v -0.099112 -0.070083 -0.000000
v -0.099112 0.070083 0.000000
v 0.099112 0.070083 -0.000000
v 0.099112 -0.070083 0.000000
v -0.169194 0.000000 0.000000
v 0.125000 0.132583 0.031250
v -0.125000 0.132583 0.031250
v -0.257583 0.000000 0.031250
v -0.112056 0.101333 -0.031250
v 0.112056 0.101333 -0.031250
v -0.257583 0.000000 -0.031250
v -0.213388 0.000000 -0.031250
v 0.112056 0.101333 0.031250
v -0.112056 0.101333 0.031250
v -0.213388 -0.000000 0.031250
v -0.125000 -0.132583 -0.031250
v 0.125000 -0.132583 -0.031250
v -0.000000 -0.257583 0.000000
v 0.031250 -0.195083 -0.015625
v 0.031250 -0.195083 0.015625
v -0.031250 -0.195083 -0.015625
v -0.031250 -0.195083 0.015625
v -0.031250 -0.132583 0.015625
v -0.031250 -0.132583 -0.015625
v 0.031250 -0.132583 0.015625
v 0.031250 -0.132583 -0.015625
v -0.279680 0.154680 0.000000
v -0.257583 0.088388 0.015625
v -0.213388 0.132583 0.015625
v -0.213388 0.044194 0.015625
v -0.169194 0.088389 0.015625
v -0.213388 0.132583 -0.015625
v -0.257583 0.088388 -0.015625
v -0.213388 0.044194 -0.015625
v -0.169194 0.088389 -0.015625
v 0.169194 0.088389 0.015625
v 0.213388 0.044194 0.015625
v 0.257583 0.088388 0.015625
v 0.213388 0.132583 0.015625
v 0.169194 0.088389 -0.015625
v 0.213388 0.044194 -0.015625
v 0.213388 0.132583 -0.015625
v 0.257583 0.088388 -0.015625
v 0.279680 0.154680 -0.000000
v 0.125000 -0.132583 0.031250
v 0.257583 -0.000000 0.031250
v 0.112056 -0.101333 -0.031250
v -0.112056 -0.101333 -0.031250
v 0.213388 -0.000000 -0.031250
v -0.112056 -0.101333 0.031250
v 0.112056 -0.101333 0.031250
v 0.213388 -0.000000 0.031250
vt 0.687500 1.000000
vt 0.562500 1.000000
vt 0.562500 0.968750
vt 0.687500 0.968750
vt 0.468750 1.000000
vt 0.468750 0.968750
vt 0.562500 0.968750
vt 0.687500 0.968750
vt 0.681059 0.937500
vt 0.568941 0.937500
vt 0.562500 0.968750
vt 0.468750 0.968750
vt 0.484211 0.937500
vt 0.555626 0.937500
vt 0.562500 1.000000
vt 0.562500 0.968750
vt 0.468750 0.968750
vt 0.468750 1.000000
vt 0.468750 0.968750
vt 0.555626 0.937500
vt 0.484211 0.937500
vt 0.681059 0.937500
vt 0.568941 0.937500
vt 0.575434 0.906250
vt 0.674566 0.906250
vt 0.555626 0.937500
vt 0.484211 0.937500
vt 0.499774 0.906250
vt 0.549510 0.906250
vt 0.687500 0.968750
vt 0.562500 0.968750
vt 0.568941 0.937500
vt 0.681059 0.937500
vt 0.484211 0.937500
vt 0.555626 0.937500
vt 0.562500 0.968750
vt 0.555626 0.937500
vt 0.555626 0.937500
vt 0.549510 0.906250
vt 0.499774 0.906250
vt 0.568941 0.937500
vt 0.681059 0.937500
vt 0.555626 0.937500
vt 0.549510 0.906250
vt 0.549510 0.906250
vt 0.674566 0.906250
vt 0.575434 0.906250
vt 0.555626 0.937500
vt 0.562500 0.968750
vt 0.562500 1.000000
vt 0.562500 1.000000
vt 0.687500 1.000000
vt 0.562500 0.968750
vt 0.687500 0.968750
vt 0.375000 0.906250
vt 0.343750 0.906250
vt 0.375000 0.937500
vt 0.312500 0.906250
vt 0.343750 0.906250
vt 0.343750 0.937500
vt 0.375000 0.906250
vt 0.343750 0.875000
vt 0.312500 0.875000
vt 0.312500 0.906250
vt 0.343750 0.906250
vt 0.375000 0.875000
vt 0.343750 0.875000
vt 0.343750 0.875000
vt 0.375000 0.875000
vt 0.312500 0.875000
vt 0.281250 0.906250
vt 0.250000 0.906250
vt 0.281250 0.937500
vt 0.218750 0.906250
vt 0.250000 0.906250
vt 0.250000 0.937500
vt 0.281250 0.906250
vt 0.312500 0.875000
vt 0.281250 0.875000
vt 0.312500 0.906250
vt 0.250000 0.875000
vt 0.281250 0.875000
vt 0.250000 0.875000
vt 0.218750 0.875000
vt 0.312500 0.937500
vt 0.281250 0.906250
vt 0.312500 0.906250
vt 0.312500 0.937500
vt 0.218750 0.875000
vt 0.250000 0.875000
vt 0.250000 0.906250
vt 0.218750 0.906250
vt 0.250000 0.875000
vt 0.281250 0.875000
vt 0.281250 0.906250
vt 0.250000 0.906250
vt 0.281250 0.875000
vt 0.250000 0.875000
vt 0.250000 0.906250
vt 0.281250 0.906250
vt 0.281250 0.875000
vt 0.312500 0.875000
vt 0.281250 0.937500
vt 0.250000 0.937500
vn 0.0000 1.0000 0.0000
vn 0.7071 0.7071 0.0000
vn -0.0000 0.0000 1.0000
vn -0.7071 0.7071 0.0000
vn -0.0000 -0.7071 -0.7071
vn -0.5000 -0.5000 -0.7071
vn 0.0000 0.0000 -1.0000
vn 0.5000 -0.5000 -0.7071
vn 0.0000 -0.7071 0.7071
vn 0.5000 -0.5000 0.7071
vn 0.5000 0.5000 0.7071
vn -0.5000 0.5000 0.7071
vn -0.0000 0.7071 0.7071
vn -0.5000 -0.5000 0.7071
vn -0.5000 0.5000 -0.7071
vn 0.5000 0.5000 -0.7071
vn 0.0000 0.7071 -0.7071
vn 0.7071 -0.7071 -0.0000
vn -0.7071 -0.7071 -0.0000
vn -0.0000 -1.0000 0.0000
vn -0.8944 -0.4472 0.0000
vn -0.0000 -0.2425 -0.9701
vn 0.8944 -0.4472 0.0000
vn -1.0000 0.0000 0.0000
vn 1.0000 -0.0000 0.0000
vn -0.0000 -0.2425 0.9701
vn -0.1715 0.1715 0.9701
vn 0.3162 0.9487 0.0000
vn -0.1715 0.1715 -0.9701
vn -0.9487 -0.3162 0.0000
vn 0.9487 -0.3162 0.0000
vn 0.1715 0.1715 0.9701
vn -0.3162 0.9487 0.0000
vn 0.1715 0.1715 -0.9701
usemtl MIRROR_LABYRINTH
s off
f 12/1/1 11/2/1 2/3/1 1/4/1
f 2/3/2 11/2/2 51/5/2 3/6/2
f 4/7/3 50/8/3 56/9/3 55/10/3
f 50/11/3 51/12/3 57/13/3 56/14/3
f 12/15/4 1/16/4 16/17/4 13/18/4
f 13/19/3 4/7/3 55/20/3 20/21/3
f 14/22/5 15/23/5 8/24/5 7/25/5
f 15/26/6 54/27/6 5/28/6 8/29/6
f 22/30/7 21/31/7 53/32/7 52/33/7
f 21/31/7 16/17/7 17/34/7 53/35/7
f 3/6/7 22/36/7 52/37/7 54/27/7
f 17/34/8 14/38/8 7/39/8 10/40/8
f 18/41/9 19/42/9 7/25/9 8/24/9
f 19/43/10 20/21/10 10/40/10 7/39/10
f 20/21/11 55/20/11 6/44/11 10/40/11
f 56/14/12 57/13/12 5/28/12 9/45/12
f 55/10/13 56/9/13 9/46/13 6/47/13
f 57/13/14 18/48/14 8/29/14 5/28/14
f 16/17/7 1/16/7 14/38/7 17/34/7
f 54/27/15 52/37/15 9/45/15 5/28/15
f 53/35/16 17/34/16 10/40/16 6/44/16
f 52/33/17 53/32/17 6/47/17 9/46/17
f 2/3/7 3/6/7 54/27/7 15/26/7
f 1/4/7 2/3/7 15/23/7 14/22/7
f 51/12/3 11/49/3 18/48/3 57/13/3
f 50/50/18 22/36/18 3/6/18 51/5/18
f 21/31/19 4/51/19 13/18/19 16/17/19
f 50/52/20 4/51/20 21/31/20 22/30/20
f 12/53/3 13/19/3 20/21/3 19/43/3
f 11/49/3 12/54/3 19/42/3 18/41/3
f 27/55/21 26/56/21 23/57/21
f 26/58/22 24/59/22 23/60/22
f 24/59/23 25/61/23 23/57/23
f 30/62/3 28/63/3 27/64/3 25/65/3
f 28/66/24 29/67/24 26/56/24 27/55/24
f 31/68/25 30/69/25 25/61/25 24/59/25
f 29/70/7 31/68/7 24/59/7 26/58/7
f 25/65/26 27/64/26 23/60/26
f 33/71/27 34/72/27 32/73/27
f 34/74/28 37/75/28 32/76/28
f 37/75/29 38/77/29 32/73/29
f 39/78/19 35/79/19 33/71/19 38/80/19
f 40/81/7 39/82/7 38/77/7 37/75/7
f 35/79/3 36/83/3 34/72/3 33/71/3
f 36/84/2 40/81/2 37/75/2 34/74/2
f 38/80/30 33/71/30 32/85/30
f 43/86/31 48/87/31 49/88/31
f 45/89/4 41/90/4 44/91/4 47/92/4
f 46/93/7 45/94/7 47/95/7 48/96/7
f 41/97/3 42/98/3 43/99/3 44/100/3
f 42/101/18 46/102/18 48/87/18 43/86/18
f 44/100/32 43/99/32 49/103/32
f 47/92/33 44/91/33 49/104/33
f 48/96/34 47/95/34 49/103/34
