# Blender v2.80 (sub 75) OBJ File: 'chem devices.blend'
# www.blender.org
mtllib materia_vessel.mtl
o MATERIA_VESSEL_Cube.010
v 0.312500 0.125000 0.687500
v 0.687500 0.125000 0.687500
v 0.312500 0.125000 0.312500
v 0.687500 0.125000 0.312500
v 0.375000 0.812500 0.375000
v 0.625000 0.812500 0.375000
v 0.625000 0.812500 0.625000
v 0.375000 0.812500 0.625000
v 0.812500 0.812500 0.812500
v 0.812500 0.812500 0.187500
v 0.187500 0.812500 0.812500
v 0.187500 0.812500 0.187500
v 0.750000 0.875000 0.750000
v 0.750000 0.875000 0.250000
v 0.250000 0.875000 0.750000
v 0.250000 0.875000 0.250000
v 0.687500 0.875000 0.687500
v 0.687500 0.875000 0.312500
v 0.312500 0.875000 0.687500
v 0.312500 0.875000 0.312500
v 0.187500 0.187500 0.812500
v 0.812500 0.187500 0.812500
v 0.812500 0.187500 0.187500
v 0.187500 0.187500 0.187500
v 0.687500 0.968750 0.687500
v 0.687500 0.968750 0.312500
v 0.312500 0.968750 0.687500
v 0.312500 0.968750 0.312500
v 0.687500 0.906250 0.687500
v 0.687500 0.906250 0.312500
v 0.312500 0.906250 0.687500
v 0.312500 0.906250 0.312500
v 0.625000 0.781250 0.625000
v 0.625000 0.781250 0.375000
v 0.375000 0.781250 0.625000
v 0.375000 0.781250 0.375000
v 0.250000 0.125000 0.750000
v 0.750000 0.125000 0.750000
v 0.750000 0.125000 0.250000
v 0.250000 0.125000 0.250000
v 0.312500 0.125000 0.687500
v 0.687500 0.125000 0.687500
v 0.312500 0.125000 0.312500
v 0.687500 0.125000 0.312500
v 0.187500 0.812500 0.187500
v 0.187500 0.812500 0.812500
v 0.812500 0.812500 0.187500
v 0.812500 0.812500 0.812500
v 0.812500 0.812500 0.812500
v 0.812500 0.812500 0.187500
v 0.187500 0.812500 0.812500
v 0.187500 0.812500 0.187500
v 0.750000 0.875000 0.750000
v 0.750000 0.875000 0.250000
v 0.250000 0.875000 0.750000
v 0.250000 0.875000 0.250000
v 0.687500 0.875000 0.687500
v 0.687500 0.875000 0.312500
v 0.312500 0.875000 0.687500
v 0.312500 0.875000 0.312500
v 0.187500 0.187500 0.812500
v 0.812500 0.187500 0.812500
v 0.812500 0.187500 0.187500
v 0.187500 0.187500 0.187500
v 0.250000 0.125000 0.750000
v 0.750000 0.125000 0.750000
v 0.750000 0.125000 0.250000
v 0.250000 0.125000 0.250000
v 0.187500 0.187500 0.812500
v 0.812500 0.187500 0.812500
v 0.812500 0.187500 0.187500
v 0.187500 0.187500 0.187500
v 0.250000 0.812500 0.812500
v 0.750000 0.812500 0.812500
v 0.250000 0.187500 0.812500
v 0.750000 0.187500 0.812500
v 0.812500 0.812500 0.750000
v 0.812500 0.812500 0.250000
v 0.812500 0.187500 0.750000
v 0.812500 0.187500 0.250000
v 0.750000 0.812500 0.187500
v 0.250000 0.812500 0.187500
v 0.750000 0.187500 0.187500
v 0.250000 0.187500 0.187500
v 0.187500 0.812500 0.750000
v 0.187500 0.812500 0.250000
v 0.187500 0.187500 0.750000
v 0.187500 0.187500 0.250000
v 0.687500 0.125000 0.687500
v 0.687500 0.125000 0.312500
v 0.312500 0.125000 0.687500
v 0.312500 0.125000 0.312500
v 0.687500 0.062500 0.687500
v 0.687500 0.062500 0.312500
v 0.312500 0.062500 0.687500
v 0.312500 0.062500 0.312500
v 0.750000 0.000000 0.625000
v 0.750000 0.125000 0.625000
v 0.625000 0.000000 0.750000
v 0.625000 0.125000 0.750000
v 0.625000 0.000000 0.625000
v 0.625000 0.125000 0.625000
v 0.375000 0.125000 0.625000
v 0.375000 0.000000 0.625000
v 0.250000 0.125000 0.625000
v 0.250000 0.000000 0.625000
v 0.375000 0.125000 0.750000
v 0.375000 0.000000 0.750000
v 0.250000 0.125000 0.750000
v 0.250000 0.000000 0.750000
v 0.750000 0.125000 0.750000
v 0.750000 0.000000 0.750000
v 0.250000 0.000000 0.375000
v 0.250000 0.125000 0.375000
v 0.375000 0.000000 0.250000
v 0.375000 0.125000 0.250000
v 0.375000 0.000000 0.375000
v 0.375000 0.125000 0.375000
v 0.625000 0.125000 0.375000
v 0.625000 0.000000 0.375000
v 0.750000 0.125000 0.375000
v 0.750000 0.000000 0.375000
v 0.625000 0.125000 0.250000
v 0.625000 0.000000 0.250000
v 0.750000 0.125000 0.250000
v 0.750000 0.000000 0.250000
v 0.250000 0.125000 0.250000
v 0.250000 0.000000 0.250000
v 0.312500 0.062500 0.687500
v 0.687500 0.062500 0.687500
v 0.312500 0.062500 0.312500
v 0.687500 0.062500 0.312500
v 0.500000 0.062500 0.687500
v 0.500000 0.062500 0.312500
vt 0.562500 0.750000
vt 0.062500 0.750000
vt 0.000000 0.687500
vt 0.625000 0.687500
vt 0.562500 0.750000
vt 0.062500 0.750000
vt 0.000000 0.687500
vt 0.625000 0.687500
vt 0.562500 0.750000
vt 0.062500 0.750000
vt 0.000000 0.687500
vt 0.625000 0.687500
vt 0.562500 0.750000
vt 0.062500 0.750000
vt 0.000000 0.687500
vt 0.625000 0.687500
vt 0.937500 0.937500
vt 0.562500 0.937500
vt 0.500000 1.000000
vt 1.000000 1.000000
vt 0.437500 0.937500
vt 0.062500 0.937500
vt -0.000000 1.000000
vt 0.500000 1.000000
vt 0.437500 0.937500
vt 0.500000 1.000000
vt 0.937500 0.937500
vt 1.000000 1.000000
vt 0.687500 0.875000
vt 0.687500 0.625000
vt 0.750000 0.562500
vt 0.750000 0.937500
vt 0.625000 0.625000
vt 0.625000 0.875000
vt 0.687500 0.937500
vt 0.687500 0.562500
vt 0.625000 0.625000
vt 0.687500 0.562500
vt 0.687500 0.875000
vt 0.750000 0.937500
vt 0.062500 0.000000
vt 0.562500 0.000000
vt 0.625000 0.062500
vt 0.000000 0.062500
vt 0.062500 0.000000
vt 0.562500 0.000000
vt 0.625000 0.062500
vt 0.000000 0.062500
vt 0.062500 0.000000
vt 0.562500 0.000000
vt 0.625000 0.062500
vt 0.000000 0.062500
vt 0.062500 0.000000
vt 0.562500 0.000000
vt 0.625000 0.062500
vt 0.000000 0.062500
vt 1.000000 0.125000
vt 0.625000 0.125000
vt 0.687500 -0.000000
vt 0.937500 -0.000000
vt 1.000000 0.562500
vt 0.625000 0.562500
vt 0.625000 0.187500
vt 1.000000 0.187500
vt 1.000000 0.187500
vt 0.625000 0.187500
vt 0.625000 0.125000
vt 1.000000 0.125000
vt 1.000000 0.187500
vt 0.625000 0.187500
vt 0.625000 0.125000
vt 1.000000 0.125000
vt 1.000000 0.187500
vt 0.625000 0.187500
vt 0.625000 0.125000
vt 1.000000 0.125000
vt 1.000000 0.812500
vt 1.000000 0.562500
vt 0.750000 0.562500
vt 0.750000 0.812500
vt 0.687500 -0.000000
vt 0.937500 -0.000000
vt 0.687500 -0.000000
vt 0.937500 -0.000000
vt 0.687500 -0.000000
vt 0.937500 -0.000000
vt 0.945312 0.882812
vt 0.992188 0.882812
vt 0.992188 0.929688
vt 0.945312 0.929688
vt 0.281250 0.875000
vt 0.468750 0.875000
vt 0.500000 0.937500
vt 0.250000 0.937500
vt 0.218750 0.875000
vt 0.031250 0.875000
vt 0.000000 0.937500
vt 0.250000 0.937500
vt 0.218750 0.875000
vt 0.281250 0.875000
vt 0.562500 0.750000
vt 0.625000 0.687500
vt -0.000000 0.687500
vt 0.062500 0.750000
vt 0.562500 0.750000
vt 0.625000 0.687500
vt -0.000000 0.687500
vt 0.062500 0.750000
vt 0.562500 0.750000
vt 0.625000 0.687500
vt -0.000000 0.687500
vt 0.062500 0.750000
vt 0.562500 0.750000
vt 0.625000 0.687500
vt -0.000000 0.687500
vt 0.062500 0.750000
vt 0.937500 0.937500
vt 1.000000 1.000000
vt 0.500000 1.000000
vt 0.562500 0.937500
vt 0.437500 0.937500
vt 0.500000 1.000000
vt -0.000000 1.000000
vt 0.062500 0.937500
vt 0.500000 1.000000
vt 0.437500 0.937500
vt 1.000000 1.000000
vt 0.937500 0.937500
vt 0.062500 0.062500
vt 0.000000 0.062500
vt 0.000000 0.687500
vt 0.062500 0.687500
vt 0.062500 0.687500
vt 0.062500 0.062500
vt 0.000000 0.062500
vt 0.000000 0.687500
vt 0.062500 0.687500
vt 0.062500 0.062500
vt 0.000000 0.062500
vt 0.000000 0.687500
vt 0.062500 0.687500
vt 0.062500 0.062500
vt 0.000000 0.062500
vt 0.000000 0.687500
vt 0.062500 0.000000
vt 0.000000 0.062500
vt 0.625000 0.062500
vt 0.562500 0.000000
vt 0.062500 0.000000
vt 0.000000 0.062500
vt 0.625000 0.062500
vt 0.562500 0.000000
vt 0.062500 0.000000
vt 0.000000 0.062500
vt 0.625000 0.062500
vt 0.562500 0.000000
vt 0.062500 0.000000
vt 0.000000 0.062500
vt 0.625000 0.062500
vt 0.562500 0.000000
vt 0.281250 0.875000
vt 0.250000 0.937500
vt 0.500000 0.937500
vt 0.468750 0.875000
vt 0.218750 0.875000
vt 0.250000 0.937500
vt 0.000000 0.937500
vt 0.031250 0.875000
vt 0.218750 0.875000
vt 0.281250 0.875000
vt 0.625000 0.062500
vt 0.562500 0.062500
vt 0.562500 0.687500
vt 0.625000 0.687500
vt 0.625000 0.687500
vt 0.625000 0.062500
vt 0.562500 0.062500
vt 0.562500 0.687500
vt 0.625000 0.687500
vt 0.625000 0.062500
vt 0.562500 0.062500
vt 0.562500 0.687500
vt 0.625000 0.687500
vt 0.625000 0.062500
vt 0.562500 0.062500
vt 0.562500 0.687500
vt 1.000000 0.562500
vt 0.625000 0.562500
vt 0.625000 0.187500
vt 1.000000 0.187500
vt 1.000000 0.062500
vt 0.625000 0.062500
vt 0.625000 -0.000000
vt 1.000000 -0.000000
vt 1.000000 0.062500
vt 0.625000 0.062500
vt 0.625000 0.000000
vt 1.000000 0.000000
vt 1.000000 0.062500
vt 0.625000 0.062500
vt 0.625000 0.000000
vt 1.000000 0.000000
vt 1.000000 0.062500
vt 0.625000 0.062500
vt 0.625000 0.000000
vt 1.000000 0.000000
vt 0.750000 0.312500
vt 0.750000 0.187500
vt 0.875000 0.187500
vt 0.875000 0.312500
vt 0.875000 0.312500
vt 0.875000 0.187500
vt 1.000000 0.187500
vt 1.000000 0.312500
vt 0.812500 0.062500
vt 0.875000 0.062500
vt 0.875000 0.000000
vt 0.812500 0.000000
vt 0.812500 0.062500
vt 0.875000 0.062500
vt 0.875000 0.000000
vt 0.812500 0.000000
vt 0.875000 0.312500
vt 0.875000 0.187500
vt 1.000000 0.187500
vt 1.000000 0.312500
vt 0.750000 0.312500
vt 0.750000 0.187500
vt 0.875000 0.187500
vt 0.875000 0.312500
vt 1.000000 0.187500
vt 1.000000 0.312500
vt 0.875000 0.312500
vt 0.875000 0.187500
vt 0.750000 0.312500
vt 0.750000 0.437500
vt 0.625000 0.437500
vt 0.625000 0.312500
vt 1.000000 0.187500
vt 1.000000 0.312500
vt 0.875000 0.312500
vt 0.875000 0.187500
vt 0.750000 0.312500
vt 0.750000 0.437500
vt 0.625000 0.437500
vt 0.625000 0.312500
vt 0.750000 0.312500
vt 0.750000 0.187500
vt 0.875000 0.187500
vt 0.875000 0.312500
vt 0.875000 0.312500
vt 0.875000 0.187500
vt 1.000000 0.187500
vt 1.000000 0.312500
vt 0.812500 0.062500
vt 0.875000 0.062500
vt 0.875000 0.000000
vt 0.812500 0.000000
vt 0.812500 0.062500
vt 0.875000 0.062500
vt 0.875000 0.000000
vt 0.812500 0.000000
vt 0.875000 0.312500
vt 0.875000 0.187500
vt 1.000000 0.187500
vt 1.000000 0.312500
vt 0.750000 0.312500
vt 0.750000 0.187500
vt 0.875000 0.187500
vt 0.875000 0.312500
vt 1.000000 0.187500
vt 1.000000 0.312500
vt 0.875000 0.312500
vt 0.875000 0.187500
vt 0.750000 0.312500
vt 0.750000 0.437500
vt 0.625000 0.437500
vt 0.625000 0.312500
vt 1.000000 0.187500
vt 1.000000 0.312500
vt 0.875000 0.312500
vt 0.875000 0.187500
vt 0.750000 0.312500
vt 0.750000 0.437500
vt 0.625000 0.437500
vt 0.625000 0.312500
vt 1.000000 0.375000
vt 0.625000 0.375000
vt 0.625000 0.187500
vt 1.000000 0.187500
vt 1.000000 0.375000
vt 0.625000 0.375000
vn 0.7071 0.7071 0.0000
vn -0.7071 0.7071 0.0000
vn 0.0000 0.7071 -0.7071
vn 0.0000 0.7071 0.7071
vn 0.0000 1.0000 0.0000
vn 0.0000 -0.7071 0.7071
vn 0.0000 -0.7071 -0.7071
vn -0.7071 -0.7071 0.0000
vn 0.7071 -0.7071 0.0000
vn 0.0000 -0.4472 0.8944
vn 0.0000 0.0000 1.0000
vn -1.0000 0.0000 0.0000
vn 0.0000 0.0000 -1.0000
vn 1.0000 0.0000 0.0000
vn 0.0000 -1.0000 0.0000
vn -0.8944 -0.4472 0.0000
vn 0.0000 -0.4472 -0.8944
vn 0.8944 -0.4472 0.0000
usemtl MATERIA_VESSEL
s off
f 14/1/1 13/2/1 9/3/1 10/4/1
f 15/5/2 16/6/2 12/7/2 11/8/2
f 16/9/3 14/10/3 10/11/3 12/12/3
f 13/13/4 15/14/4 11/15/4 9/16/4
f 18/17/5 17/18/5 13/19/5 14/20/5
f 19/21/5 20/22/5 16/23/5 15/24/5
f 20/22/5 18/25/5 14/26/5 16/23/5
f 17/18/5 19/27/5 15/28/5 13/19/5
f 6/29/2 7/30/2 17/31/2 18/32/2
f 8/33/1 5/34/1 20/35/1 19/36/1
f 5/34/4 6/37/4 18/38/4 20/35/4
f 7/30/3 8/39/3 19/40/3 17/31/3
f 37/41/6 38/42/6 22/43/6 21/44/6
f 39/45/7 40/46/7 24/47/7 23/48/7
f 40/49/8 37/50/8 21/51/8 24/52/8
f 38/53/9 39/54/9 23/55/9 22/56/9
f 29/57/10 31/58/10 35/59/10 33/60/10
f 26/61/5 28/62/5 27/63/5 25/64/5
f 25/64/11 27/63/11 31/58/11 29/57/11
f 27/65/12 28/66/12 32/67/12 31/68/12
f 28/69/13 26/70/13 30/71/13 32/72/13
f 26/73/14 25/74/14 29/75/14 30/76/14
f 34/77/15 33/78/15 35/79/15 36/80/15
f 31/68/16 32/67/16 36/81/16 35/82/16
f 32/72/17 30/71/17 34/83/17 36/84/17
f 30/76/18 29/75/18 33/85/18 34/86/18
f 10/4/14 9/3/14 22/56/14 23/55/14
f 12/12/13 10/11/13 23/48/13 24/47/13
f 11/8/12 12/7/12 24/52/12 21/51/12
f 22/43/11 9/16/11 11/15/11 21/44/11
f 4/87/15 2/88/15 1/89/15 3/90/15
f 1/91/15 2/92/15 38/93/15 37/94/15
f 4/95/15 3/96/15 40/97/15 39/98/15
f 3/96/15 1/99/15 37/94/15 40/97/15
f 2/92/15 4/100/15 39/98/15 38/93/15
f 54/101/8 50/102/8 49/103/8 53/104/8
f 55/105/9 51/106/9 52/107/9 56/108/9
f 56/109/6 52/110/6 50/111/6 54/112/6
f 53/113/7 49/114/7 51/115/7 55/116/7
f 58/117/15 54/118/15 53/119/15 57/120/15
f 59/121/15 55/122/15 56/123/15 60/124/15
f 60/124/15 56/123/15 54/125/15 58/126/15
f 57/120/15 53/119/15 55/127/15 59/128/15
f 75/129/13 69/130/13 46/131/13 73/132/13
f 86/133/14 88/134/14 72/135/14 45/136/14
f 81/137/11 83/138/11 71/139/11 47/140/11
f 77/141/12 79/142/12 70/143/12 48/144/12
f 65/145/3 61/146/3 62/147/3 66/148/3
f 67/149/4 63/150/4 64/151/4 68/152/4
f 68/153/1 64/154/1 61/155/1 65/156/1
f 66/157/2 62/158/2 63/159/2 67/160/2
f 41/161/5 65/162/5 66/163/5 42/164/5
f 44/165/5 67/166/5 68/167/5 43/168/5
f 43/168/5 68/167/5 65/162/5 41/169/5
f 42/164/5 66/163/5 67/166/5 44/170/5
f 70/171/13 76/172/13 74/173/13 48/174/13
f 47/175/12 71/176/12 80/177/12 78/178/12
f 45/179/11 72/180/11 84/181/11 82/182/11
f 46/183/14 69/184/14 87/185/14 85/186/14
f 90/187/5 92/188/5 91/189/5 89/190/5
f 89/191/11 91/192/11 95/193/11 93/194/11
f 91/195/12 92/196/12 96/197/12 95/198/12
f 92/199/13 90/200/13 94/201/13 96/202/13
f 90/203/14 89/204/14 93/205/14 94/206/14
f 100/207/11 99/208/11 112/209/11 111/210/11
f 102/211/12 101/212/12 99/213/12 100/214/12
f 99/215/15 101/216/15 97/217/15 112/218/15
f 106/219/15 104/220/15 108/221/15 110/222/15
f 103/223/13 104/224/13 106/225/13 105/226/13
f 105/227/12 106/228/12 110/229/12 109/230/12
f 104/231/14 103/232/14 107/233/14 108/234/14
f 108/235/11 107/236/11 109/237/11 110/238/11
f 101/239/13 102/240/13 98/241/13 97/242/13
f 97/243/14 98/244/14 111/245/14 112/246/14
f 116/247/13 115/248/13 128/249/13 127/250/13
f 118/251/14 117/252/14 115/253/14 116/254/14
f 115/255/15 117/256/15 113/257/15 128/258/15
f 122/259/15 120/260/15 124/261/15 126/262/15
f 119/263/11 120/264/11 122/265/11 121/266/11
f 121/267/14 122/268/14 126/269/14 125/270/14
f 120/271/12 119/272/12 123/273/12 124/274/12
f 124/275/13 123/276/13 125/277/13 126/278/13
f 117/279/11 118/280/11 114/281/11 113/282/11
f 113/283/12 114/284/12 127/285/12 128/286/12
f 129/287/15 131/288/15 134/289/15 133/290/15
f 130/291/15 133/290/15 134/289/15 132/292/15
