# Blender v2.80 (sub 75) OBJ File: 'chem devices.blend'
# www.blender.org
mtllib materia_reflector_iris.mtl
o REFLECTOR_EYE_IRIS_Plane.016
v 0.000000 -0.088388 0.000000
v -0.088388 0.000000 0.000000
v 0.044194 -0.000000 -0.031250
v 0.000000 -0.044194 -0.031250
v -0.044194 -0.000000 -0.031250
v 0.000000 0.044194 -0.031250
v 0.088388 0.000000 0.000000
v -0.000000 0.088388 0.000000
v 0.044194 -0.000000 0.031250
v -0.000000 0.044194 0.031250
v -0.044194 0.000000 0.031250
v -0.000000 -0.044194 0.031250
vt 0.125000 0.906250
vt 0.125000 0.875000
vt 0.156250 0.875000
vt 0.156250 0.906250
vt 0.218750 0.875000
vt 0.218750 0.906250
vt 0.187500 0.906250
vt 0.187500 0.875000
vt 0.156250 0.875000
vt 0.187500 0.875000
vt 0.187500 0.906250
vt 0.156250 0.906250
vt 0.218750 0.875000
vt 0.218750 0.906250
vt 0.187500 0.906250
vt 0.187500 0.875000
vt 0.156250 0.875000
vt 0.187500 0.875000
vt 0.187500 0.906250
vt 0.125000 0.906250
vt 0.156250 0.906250
vt 0.156250 0.875000
vt 0.125000 0.875000
vt 0.187500 0.906250
vt 0.187500 0.875000
vt 0.187500 0.906250
vt 0.156250 0.906250
vt 0.187500 0.906250
vt 0.187500 0.875000
vt 0.187500 0.906250
vn -0.0000 -0.0000 -1.0000
vn 0.5000 -0.5000 -0.7071
vn -0.5000 -0.5000 -0.7071
vn -0.5000 0.5000 -0.7071
vn 0.5000 0.5000 -0.7071
vn 0.0000 -0.0000 1.0000
vn 0.5000 0.5000 0.7071
vn -0.5000 0.5000 0.7071
vn -0.5000 -0.5000 0.7071
vn 0.5000 -0.5000 0.7071
usemtl MIRROR_LABYRINTH
s off
f 3/1/1 4/2/1 5/3/1 6/4/1
f 7/5/2 1/6/2 4/7/2 3/8/2
f 1/9/3 2/10/3 5/11/3 4/12/3
f 2/13/4 8/14/4 6/15/4 5/16/4
f 8/17/5 7/18/5 3/19/5 6/4/5
f 9/20/6 10/21/6 11/22/6 12/23/6
f 7/18/7 8/17/7 10/21/7 9/24/7
f 8/14/8 2/13/8 11/25/8 10/26/8
f 2/10/9 1/9/9 12/27/9 11/28/9
f 1/6/10 7/5/10 9/29/10 12/30/10
