# Blender v2.80 (sub 75) OBJ File: 'chem devices.blend'
# www.blender.org
mtllib materia_reflector_body.mtl
o REFLECTOR_BODY_Cube.054
v 0.125000 0.125000 0.875000
v 0.125000 0.875000 0.875000
v 0.125000 0.125000 0.125000
v 0.125000 0.875000 0.125000
v 0.875000 0.125000 0.875000
v 0.875000 0.875000 0.875000
v 0.875000 0.125000 0.125000
v 0.875000 0.875000 0.125000
v 0.125000 0.187500 0.812500
v 0.125000 0.812500 0.812500
v 0.125000 0.812500 0.187500
v 0.125000 0.187500 0.187500
v 0.187500 0.187500 0.125000
v 0.187500 0.812500 0.125000
v 0.812500 0.812500 0.125000
v 0.812500 0.187500 0.125000
v 0.875000 0.187500 0.187500
v 0.875000 0.812500 0.187500
v 0.875000 0.812500 0.812500
v 0.875000 0.187500 0.812500
v 0.812500 0.187500 0.875000
v 0.812500 0.812500 0.875000
v 0.187500 0.812500 0.875000
v 0.187500 0.187500 0.875000
v 0.187500 0.125000 0.187500
v 0.812500 0.125000 0.187500
v 0.812500 0.125000 0.812500
v 0.187500 0.125000 0.812500
v 0.812500 0.875000 0.187500
v 0.187500 0.875000 0.187500
v 0.187500 0.875000 0.812500
v 0.812500 0.875000 0.812500
v 0.187500 0.187500 0.812500
v 0.187500 0.812500 0.812500
v 0.187500 0.812500 0.187500
v 0.187500 0.187500 0.187500
v 0.187500 0.187500 0.187500
v 0.187500 0.812500 0.187500
v 0.812500 0.812500 0.187500
v 0.812500 0.187500 0.187500
v 0.812500 0.187500 0.187500
v 0.812500 0.812500 0.187500
v 0.812500 0.812500 0.812500
v 0.812500 0.187500 0.812500
v 0.812500 0.187500 0.812500
v 0.812500 0.812500 0.812500
v 0.187500 0.812500 0.812500
v 0.187500 0.187500 0.812500
v 0.187500 0.187500 0.187500
v 0.812500 0.187500 0.187500
v 0.812500 0.187500 0.812500
v 0.187500 0.187500 0.812500
v 0.812500 0.812500 0.187500
v 0.187500 0.812500 0.187500
v 0.187500 0.812500 0.812500
v 0.812500 0.812500 0.812500
vt 0.687500 0.468750
vt 0.687500 0.093750
vt 0.656250 0.125000
vt 0.656250 0.437500
vt 0.687500 0.468750
vt 0.656250 0.437500
vt 0.687500 0.093750
vt 0.656250 0.125000
vt 0.687500 0.468750
vt 0.687500 0.093750
vt 0.656250 0.125000
vt 0.656250 0.437500
vt 0.687500 0.468750
vt 0.656250 0.437500
vt 0.687500 0.093750
vt 0.656250 0.125000
vt 0.687500 0.468750
vt 0.687500 0.093750
vt 0.656250 0.125000
vt 0.656250 0.437500
vt 0.687500 0.468750
vt 0.656250 0.437500
vt 0.687500 0.093750
vt 0.656250 0.125000
vt 0.687500 0.468750
vt 0.687500 0.093750
vt 0.656250 0.125000
vt 0.656250 0.437500
vt 0.687500 0.468750
vt 0.656250 0.437500
vt 0.687500 0.093750
vt 0.656250 0.125000
vt 0.656250 0.125000
vt 0.656250 0.437500
vt 0.656250 0.437500
vt 0.656250 0.125000
vt 0.656250 0.125000
vt 0.656250 0.437500
vt 0.656250 0.437500
vt 0.656250 0.125000
vt 0.687500 0.125000
vt 0.687500 0.437500
vt 0.687500 0.437500
vt 0.656250 0.437500
vt 0.656250 0.125000
vt 0.687500 0.125000
vt 0.687500 0.125000
vt 0.687500 0.437500
vt 0.687500 0.437500
vt 0.656250 0.437500
vt 0.656250 0.125000
vt 0.687500 0.125000
vt 0.687500 0.125000
vt 0.687500 0.437500
vt 0.687500 0.437500
vt 0.687500 0.125000
vt 0.687500 0.437500
vt 0.656250 0.437500
vt 0.656250 0.125000
vt 0.687500 0.125000
vt 0.687500 0.125000
vt 0.687500 0.437500
vt 0.687500 0.437500
vt 0.687500 0.125000
vt 0.687500 0.125000
vt 0.687500 0.437500
vt 0.687500 0.437500
vt 0.656250 0.437500
vt 0.656250 0.125000
vt 0.687500 0.125000
vt 0.687500 0.125000
vt 0.687500 0.437500
vt 0.687500 0.125000
vt 0.687500 0.437500
vt 0.687500 0.437500
vt 0.656250 0.437500
vt 0.656250 0.125000
vt 0.687500 0.125000
vt 0.687500 0.125000
vt 0.656250 0.125000
vt 0.687500 0.125000
vt 0.687500 0.125000
vt 0.656250 0.125000
vt 0.656250 0.437500
vt 0.687500 0.437500
vt 0.687500 0.437500
vt 0.656250 0.437500
vt 0.687500 0.125000
vt 0.687500 0.437500
vt 0.687500 0.437500
vt 0.687500 0.312500
vt 0.687500 0.937500
vt 0.062500 0.937500
vt 0.062500 0.312500
vt 0.687500 0.312500
vt 0.687500 0.937500
vt 0.062500 0.937500
vt 0.062500 0.312500
vt 0.687500 0.312500
vt 0.687500 0.937500
vt 0.062500 0.937500
vt 0.062500 0.312500
vt 0.687500 0.312500
vt 0.687500 0.937500
vt 0.062500 0.937500
vt 0.062500 0.312500
vt 0.062500 0.312500
vt 0.687500 0.312500
vt 0.687500 0.937500
vt 0.062500 0.937500
vt 0.062500 0.312500
vt 0.687500 0.312500
vt 0.687500 0.937500
vt 0.062500 0.937500
vn -1.0000 0.0000 0.0000
vn 0.0000 0.0000 -1.0000
vn 1.0000 0.0000 0.0000
vn 0.0000 0.0000 1.0000
vn 0.0000 -1.0000 0.0000
vn 0.0000 1.0000 0.0000
usemtl MIRROR_LABYRINTH
s off
f 1/1/1 2/2/1 10/3/1 9/4/1
f 2/2/1 4/5/1 11/6/1 10/3/1
f 4/5/1 3/7/1 12/8/1 11/6/1
f 3/7/1 1/1/1 9/4/1 12/8/1
f 3/9/2 4/10/2 14/11/2 13/12/2
f 4/10/2 8/13/2 15/14/2 14/11/2
f 8/13/2 7/15/2 16/16/2 15/14/2
f 7/15/2 3/9/2 13/12/2 16/16/2
f 7/17/3 8/18/3 18/19/3 17/20/3
f 8/18/3 6/21/3 19/22/3 18/19/3
f 6/21/3 5/23/3 20/24/3 19/22/3
f 5/23/3 7/17/3 17/20/3 20/24/3
f 5/25/4 6/26/4 22/27/4 21/28/4
f 6/26/4 2/29/4 23/30/4 22/27/4
f 2/29/4 1/31/4 24/32/4 23/30/4
f 1/31/4 5/25/4 21/28/4 24/32/4
f 3/9/5 7/15/5 26/33/5 25/34/5
f 7/15/5 5/25/5 27/35/5 26/33/5
f 5/25/5 1/31/5 28/36/5 27/35/5
f 1/31/5 3/9/5 25/34/5 28/36/5
f 8/13/6 4/10/6 30/37/6 29/38/6
f 4/10/6 2/29/6 31/39/6 30/37/6
f 2/29/6 6/26/6 32/40/6 31/39/6
f 6/26/6 8/13/6 29/38/6 32/40/6
f 10/3/2 34/41/2 33/42/2 9/4/2
f 11/43/5 35/44/5 34/45/5 10/46/5
f 12/8/4 36/47/4 35/48/4 11/6/4
f 9/49/6 33/50/6 36/51/6 12/52/6
f 14/11/3 38/53/3 37/54/3 13/12/3
f 15/14/5 39/55/5 38/53/5 14/11/5
f 16/16/1 40/56/1 39/55/1 15/14/1
f 13/57/6 37/58/6 40/59/6 16/60/6
f 18/19/4 42/61/4 41/62/4 17/20/4
f 19/22/5 43/63/5 42/61/5 18/19/5
f 20/24/2 44/64/2 43/63/2 19/22/2
f 17/20/6 41/62/6 44/64/6 20/24/6
f 22/27/1 46/65/1 45/66/1 21/28/1
f 23/67/5 47/68/5 46/69/5 22/70/5
f 24/32/3 48/71/3 47/72/3 23/30/3
f 21/28/6 45/66/6 48/71/6 24/32/6
f 26/33/4 50/73/4 49/74/4 25/34/4
f 27/75/1 51/76/1 50/77/1 26/78/1
f 28/79/2 52/80/2 51/76/2 27/75/2
f 25/34/3 49/74/3 52/81/3 28/36/3
f 30/82/4 54/83/4 53/84/4 29/85/4
f 31/86/3 55/87/3 54/83/3 30/82/3
f 32/40/2 56/88/2 55/89/2 31/39/2
f 29/38/1 53/90/1 56/88/1 32/40/1
usemtl MAGIC_MIRROR
f 33/91/1 34/92/1 35/93/1 36/94/1
f 37/95/2 38/96/2 39/97/2 40/98/2
f 41/99/3 42/100/3 43/101/3 44/102/3
f 45/103/4 46/104/4 47/105/4 48/106/4
f 49/107/5 50/108/5 51/109/5 52/110/5
f 53/111/6 54/112/6 55/113/6 56/114/6
