# Blender v2.80 (sub 75) OBJ File: 'chem devices.blend'
# www.blender.org
mtllib mirror_short.mtl
o MIRROR_SHORT_BODY_Cube.063
v 0.360497 0.172997 0.062500
v 0.391747 0.227123 0.062500
v 0.360497 0.172997 0.000000
v 0.391747 0.227123 0.000000
v 0.468750 0.110497 0.062500
v 0.500000 0.164623 0.062500
v 0.468750 0.110497 0.000000
v 0.500000 0.164623 0.000000
v 0.329247 0.118870 0.000000
v 0.329247 0.118870 0.062500
v 0.437500 0.056370 0.000000
v 0.437500 0.056370 0.062500
v 0.198117 0.266747 0.000000
v 0.198117 0.266747 0.062500
v 0.229367 0.320873 0.062500
v 0.229367 0.320873 0.000000
v 0.143990 0.297997 0.000000
v 0.143990 0.297997 0.062500
v 0.175240 0.352123 0.062500
v 0.175240 0.352123 0.000000
v 0.260617 0.375000 0.062500
v 0.260617 0.375000 0.000000
v 0.268990 0.406250 0.062500
v 0.268990 0.406250 0.000000
v 0.206490 0.406250 0.062500
v 0.206490 0.406250 0.000000
v 0.268991 0.593750 0.062500
v 0.268991 0.593750 0.000000
v 0.206490 0.593750 0.062500
v 0.206490 0.593750 0.000000
v 0.588388 0.889503 0.093750
v 0.500000 0.801115 0.093750
v 0.588388 0.889503 -0.031250
v 0.500000 0.801115 -0.031250
v 0.500000 0.977891 0.093750
v 0.411612 0.889503 0.093750
v 0.500000 0.977891 -0.031250
v 0.411612 0.889503 -0.031250
v 0.500000 0.889503 0.125000
v 0.544194 0.889503 0.093750
v 0.500000 0.845309 0.093750
v 0.500000 0.933697 0.093750
v 0.455806 0.889503 0.093750
v 0.360497 0.827003 0.000000
v 0.391747 0.772877 0.000000
v 0.360497 0.827003 0.062500
v 0.391747 0.772877 0.062500
v 0.468750 0.889503 0.000000
v 0.500000 0.835377 0.000000
v 0.468750 0.889503 0.062500
v 0.500000 0.835377 0.062500
v 0.329247 0.881130 0.062500
v 0.329247 0.881130 0.000000
v 0.437500 0.943630 0.062500
v 0.437500 0.943630 0.000000
v 0.198117 0.733253 0.062500
v 0.198117 0.733253 0.000000
v 0.229367 0.679127 0.000000
v 0.229367 0.679127 0.062500
v 0.143990 0.702003 0.062500
v 0.143990 0.702003 0.000000
v 0.175241 0.647877 0.000000
v 0.175241 0.647877 0.062500
v 0.260617 0.625000 0.000000
v 0.260617 0.625000 0.062500
v 0.588388 0.110497 0.093750
v 0.500000 0.022109 0.093750
v 0.588388 0.110497 -0.031250
v 0.500000 0.022109 -0.031250
v 0.500000 0.198885 0.093750
v 0.411612 0.110497 0.093750
v 0.500000 0.198885 -0.031250
v 0.411612 0.110497 -0.031250
v 0.500000 0.110497 0.125000
v 0.455806 0.110497 0.093750
v 0.500000 0.154691 0.093750
v 0.500000 0.066303 0.093750
v 0.544194 0.110497 0.093750
v 0.639503 0.172997 0.062500
v 0.608253 0.227123 0.062500
v 0.639503 0.172997 0.000000
v 0.608253 0.227123 0.000000
v 0.531250 0.110497 0.062500
v 0.500000 0.164623 0.062500
v 0.531250 0.110497 0.000000
v 0.500000 0.164623 0.000000
v 0.670753 0.118870 0.000000
v 0.670753 0.118870 0.062500
v 0.562500 0.056370 0.000000
v 0.562500 0.056370 0.062500
v 0.801883 0.266747 0.000000
v 0.801883 0.266747 0.062500
v 0.770633 0.320873 0.062500
v 0.770633 0.320873 0.000000
v 0.856009 0.297997 0.000000
v 0.856009 0.297997 0.062500
v 0.824759 0.352123 0.062500
v 0.824759 0.352123 0.000000
v 0.739383 0.375000 0.062500
v 0.739383 0.375000 0.000000
v 0.731009 0.406250 0.062500
v 0.731009 0.406250 0.000000
v 0.793509 0.406250 0.062500
v 0.793509 0.406250 0.000000
v 0.731009 0.593750 0.062500
v 0.731009 0.593750 0.000000
v 0.793509 0.593750 0.062500
v 0.793509 0.593750 0.000000
v 0.639503 0.827003 0.000000
v 0.608253 0.772877 0.000000
v 0.639503 0.827003 0.062500
v 0.608253 0.772877 0.062500
v 0.531250 0.889503 0.000000
v 0.500000 0.835377 0.000000
v 0.531250 0.889503 0.062500
v 0.500000 0.835377 0.062500
v 0.670753 0.881130 0.062500
v 0.670753 0.881130 0.000000
v 0.562500 0.943630 0.062500
v 0.562500 0.943630 0.000000
v 0.801883 0.733253 0.062500
v 0.801883 0.733253 0.000000
v 0.770633 0.679127 0.000000
v 0.770633 0.679127 0.062500
v 0.856009 0.702003 0.062500
v 0.856009 0.702003 0.000000
v 0.824759 0.647877 0.000000
v 0.824759 0.647877 0.062500
v 0.739383 0.625000 0.000000
v 0.739383 0.625000 0.062500
v 0.610485 0.889503 0.031250
v 0.500000 0.999989 0.031250
v 0.500000 0.779018 0.031250
v 0.389515 0.889503 0.031250
v 0.610485 0.110497 0.031250
v 0.500000 0.220982 0.031250
v 0.500000 0.000012 0.031250
v 0.389514 0.110497 0.031250
vt 0.250000 0.687500
vt 0.312500 0.687500
vt 0.312500 0.875000
vt 0.250000 0.875000
vt 0.187500 0.875000
vt 0.250000 0.875000
vt 0.250000 1.000000
vt 0.187500 1.000000
vt 0.312500 0.562500
vt 0.312500 0.625000
vt 0.250000 0.625000
vt 0.250000 0.562500
vt 0.187500 1.000000
vt 0.250000 1.000000
vt 0.250000 0.875000
vt 0.187500 0.875000
vt 0.312500 0.687500
vt 0.250000 0.687500
vt 0.250000 0.625000
vt 0.312500 0.625000
vt 0.312500 0.750000
vt 0.250000 0.750000
vt 0.250000 0.500000
vt 0.312500 0.500000
vt 0.250000 0.500000
vt 0.312500 0.500000
vt 0.125000 0.875000
vt 0.125000 1.000000
vt 0.125000 1.000000
vt 0.125000 0.875000
vt 0.312500 0.312500
vt 0.375000 0.312500
vt 0.375000 0.375000
vt 0.312500 0.375000
vt 0.312500 0.875000
vt 0.250000 0.875000
vt 0.187500 0.687500
vt 0.250000 0.687500
vt 0.250000 0.687500
vt 0.187500 0.687500
vt 0.312500 0.375000
vt 0.312500 0.437500
vt 0.375000 0.437500
vt 0.375000 0.375000
vt 0.312500 0.937500
vt 0.250000 0.937500
vt 0.187500 0.625000
vt 0.250000 0.625000
vt 0.250000 0.625000
vt 0.187500 0.625000
vt 0.187500 0.375000
vt 0.250000 0.375000
vt 0.250000 0.437500
vt 0.187500 0.437500
vt 0.250000 0.375000
vt 0.187500 0.375000
vt 0.187500 0.437500
vt 0.250000 0.437500
vt 0.312500 0.500000
vt 0.375000 0.500000
vt 0.250000 0.500000
vt 0.125000 0.312500
vt 0.125000 0.375000
vt 0.312500 0.375000
vt 0.312500 0.312500
vt 0.125000 0.250000
vt 0.312500 0.250000
vt 0.125000 0.375000
vt 0.125000 0.312500
vt 0.312500 0.312500
vt 0.312500 0.375000
vt 0.125000 0.312500
vt 0.125000 0.250000
vt 0.312500 0.250000
vt 0.312500 0.312500
vt 0.375000 0.437500
vt 0.375000 0.500000
vt 0.312500 0.500000
vt 0.312500 0.437500
vt 0.250000 0.500000
vt 0.250000 0.137346
vt 0.250000 0.237654
vt 0.312500 0.250000
vt 0.312500 0.125000
vt 0.250000 0.250000
vt 0.250000 0.125000
vt 0.125000 0.125000
vt 0.125000 0.250000
vt 0.125000 0.250000
vt 0.125000 0.125000
vt 0.250000 0.125000
vt 0.250000 0.250000
vt 0.312500 0.237654
vt 0.312500 0.137346
vt 0.375000 0.125000
vt 0.375000 0.250000
vt 0.375000 0.750000
vt 0.312500 0.750000
vt 0.312500 0.562500
vt 0.375000 0.562500
vt 0.187500 0.625000
vt 0.125000 0.625000
vt 0.125000 0.500000
vt 0.187500 0.500000
vt 0.312500 0.875000
vt 0.312500 0.812500
vt 0.375000 0.812500
vt 0.375000 0.875000
vt 0.187500 0.500000
vt 0.125000 0.500000
vt 0.125000 0.625000
vt 0.187500 0.625000
vt 0.312500 0.750000
vt 0.375000 0.750000
vt 0.375000 0.812500
vt 0.312500 0.812500
vt 0.312500 0.687500
vt 0.375000 0.687500
vt 0.375000 0.937500
vt 0.312500 0.937500
vt 0.375000 0.937500
vt 0.312500 0.937500
vt 0.250000 0.625000
vt 0.250000 0.500000
vt 0.250000 0.500000
vt 0.250000 0.625000
vt 0.312500 0.437500
vt 0.250000 0.437500
vt 0.250000 0.375000
vt 0.312500 0.375000
vt 0.312500 0.562500
vt 0.375000 0.562500
vt 0.187500 0.812500
vt 0.125000 0.812500
vt 0.125000 0.812500
vt 0.187500 0.812500
vt 0.312500 0.500000
vt 0.312500 0.437500
vt 0.250000 0.437500
vt 0.250000 0.500000
vt 0.375000 0.500000
vt 0.187500 0.875000
vt 0.125000 0.875000
vt 0.125000 0.875000
vt 0.187500 0.875000
vt 0.125000 0.500000
vt 0.187500 0.500000
vt 0.187500 0.437500
vt 0.125000 0.437500
vt 0.187500 0.500000
vt 0.125000 0.500000
vt 0.125000 0.437500
vt 0.187500 0.437500
vt 0.250000 0.375000
vt 0.187500 0.375000
vt 0.250000 0.437500
vt 0.250000 0.375000
vt 0.312500 0.375000
vt 0.312500 0.437500
vt 0.187500 0.375000
vt 0.250000 0.125000
vt 0.250000 0.000000
vt 0.125000 0.000000
vt 0.125000 0.125000
vt 0.125000 0.125000
vt 0.125000 0.000000
vt 0.250000 0.000000
vt 0.250000 0.125000
vt 0.312500 0.112654
vt 0.312500 0.012346
vt 0.375000 0.000000
vt 0.375000 0.125000
vt 0.250000 0.687500
vt 0.250000 0.875000
vt 0.312500 0.875000
vt 0.312500 0.687500
vt 0.187500 0.875000
vt 0.187500 1.000000
vt 0.250000 1.000000
vt 0.250000 0.875000
vt 0.312500 0.562500
vt 0.250000 0.562500
vt 0.250000 0.625000
vt 0.312500 0.625000
vt 0.187500 1.000000
vt 0.187500 0.875000
vt 0.250000 0.875000
vt 0.250000 1.000000
vt 0.312500 0.687500
vt 0.312500 0.625000
vt 0.250000 0.625000
vt 0.250000 0.687500
vt 0.250000 0.750000
vt 0.312500 0.750000
vt 0.312500 0.500000
vt 0.250000 0.500000
vt 0.312500 0.500000
vt 0.250000 0.500000
vt 0.125000 1.000000
vt 0.125000 0.875000
vt 0.125000 0.875000
vt 0.125000 1.000000
vt 0.312500 0.312500
vt 0.312500 0.375000
vt 0.375000 0.375000
vt 0.375000 0.312500
vt 0.250000 0.875000
vt 0.312500 0.875000
vt 0.250000 0.687500
vt 0.187500 0.687500
vt 0.187500 0.687500
vt 0.250000 0.687500
vt 0.312500 0.375000
vt 0.375000 0.375000
vt 0.375000 0.437500
vt 0.312500 0.437500
vt 0.250000 0.937500
vt 0.312500 0.937500
vt 0.250000 0.625000
vt 0.187500 0.625000
vt 0.187500 0.625000
vt 0.250000 0.625000
vt 0.187500 0.375000
vt 0.187500 0.437500
vt 0.250000 0.437500
vt 0.250000 0.375000
vt 0.250000 0.375000
vt 0.250000 0.437500
vt 0.187500 0.437500
vt 0.187500 0.375000
vt 0.375000 0.500000
vt 0.312500 0.500000
vt 0.250000 0.500000
vt 0.125000 0.312500
vt 0.312500 0.312500
vt 0.312500 0.375000
vt 0.125000 0.375000
vt 0.125000 0.250000
vt 0.312500 0.250000
vt 0.125000 0.375000
vt 0.312500 0.375000
vt 0.312500 0.312500
vt 0.125000 0.312500
vt 0.125000 0.312500
vt 0.312500 0.312500
vt 0.312500 0.250000
vt 0.125000 0.250000
vt 0.375000 0.437500
vt 0.312500 0.437500
vt 0.312500 0.500000
vt 0.375000 0.500000
vt 0.250000 0.500000
vt 0.375000 0.750000
vt 0.375000 0.562500
vt 0.312500 0.562500
vt 0.312500 0.750000
vt 0.187500 0.625000
vt 0.187500 0.500000
vt 0.125000 0.500000
vt 0.125000 0.625000
vt 0.312500 0.875000
vt 0.375000 0.875000
vt 0.375000 0.812500
vt 0.312500 0.812500
vt 0.187500 0.500000
vt 0.187500 0.625000
vt 0.125000 0.625000
vt 0.125000 0.500000
vt 0.312500 0.750000
vt 0.312500 0.812500
vt 0.375000 0.812500
vt 0.375000 0.750000
vt 0.375000 0.687500
vt 0.312500 0.687500
vt 0.312500 0.937500
vt 0.375000 0.937500
vt 0.312500 0.937500
vt 0.375000 0.937500
vt 0.250000 0.500000
vt 0.250000 0.625000
vt 0.250000 0.625000
vt 0.250000 0.500000
vt 0.312500 0.437500
vt 0.312500 0.375000
vt 0.250000 0.375000
vt 0.250000 0.437500
vt 0.375000 0.562500
vt 0.312500 0.562500
vt 0.125000 0.812500
vt 0.187500 0.812500
vt 0.187500 0.812500
vt 0.125000 0.812500
vt 0.312500 0.500000
vt 0.250000 0.500000
vt 0.250000 0.437500
vt 0.312500 0.437500
vt 0.375000 0.500000
vt 0.125000 0.875000
vt 0.187500 0.875000
vt 0.187500 0.875000
vt 0.125000 0.875000
vt 0.125000 0.500000
vt 0.125000 0.437500
vt 0.187500 0.437500
vt 0.187500 0.500000
vt 0.187500 0.500000
vt 0.187500 0.437500
vt 0.125000 0.437500
vt 0.125000 0.500000
vt 0.250000 0.375000
vt 0.187500 0.375000
vt 0.250000 0.437500
vt 0.312500 0.437500
vt 0.312500 0.375000
vt 0.250000 0.375000
vt 0.187500 0.375000
vt 0.312500 0.237654
vt 0.375000 0.250000
vt 0.375000 0.137346
vt 0.375000 0.237654
vt 0.312500 0.250000
vt 0.312500 0.125000
vt 0.312500 0.137346
vt 0.250000 0.250000
vt 0.250000 0.125000
vt 0.250000 0.237654
vt 0.375000 0.237654
vt 0.250000 0.250000
vt 0.375000 0.012346
vt 0.375000 0.112654
vt 0.312500 0.125000
vt 0.312500 0.000000
vt 0.312500 0.112654
vt 0.375000 0.125000
vt 0.375000 0.112654
vt 0.312500 0.125000
vt 0.250000 0.012346
vt 0.250000 0.112654
vt 0.312500 0.000000
vt 0.312500 0.012346
vt 0.312500 0.112654
vt 0.250000 0.125000
vt 0.250000 0.000000
vt 0.250000 0.112654
vt 0.312500 0.112654
vt 0.250000 0.125000
vt 0.812500 0.187500
vt 0.812500 0.250000
vt 0.750000 0.250000
vt 0.187500 0.187500
vt 0.250000 0.187500
vt 0.187500 0.250000
vt 0.187500 0.687500
vt 0.250000 0.687500
vt 0.187500 0.750000
vt 0.750000 0.687500
vt 0.812500 0.687500
vt 0.750000 0.750000
vt 0.812500 0.187500
vt 0.812500 0.250000
vt 0.750000 0.250000
vt 0.187500 0.187500
vt 0.250000 0.187500
vt 0.187500 0.250000
vt 0.187500 0.687500
vt 0.250000 0.687500
vt 0.187500 0.750000
vt 0.750000 0.687500
vt 0.812500 0.687500
vt 0.750000 0.750000
vn 0.5000 0.8660 0.0000
vn 0.0000 0.0000 -1.0000
vn 0.8660 -0.5000 0.0000
vn 0.0000 0.0000 1.0000
vn -0.8660 0.5000 0.0000
vn -0.5000 -0.8660 0.0000
vn 1.0000 -0.0000 0.0000
vn -1.0000 0.0000 0.0000
vn 0.9659 -0.2588 0.0000
vn -0.6860 -0.6860 0.2425
vn 0.6860 0.6860 -0.2425
vn 0.5000 -0.8660 0.0000
vn 0.8660 0.5000 -0.0000
vn -0.8660 -0.5000 0.0000
vn -0.5000 0.8660 0.0000
vn 0.9659 0.2588 0.0000
vn -0.9659 -0.2588 0.0000
vn -0.9659 0.2588 0.0000
vn -0.6860 0.6860 -0.2425
vn 0.6860 0.6860 0.2425
vn 0.6860 -0.6860 -0.2425
vn 0.6860 -0.6860 0.2425
vn -0.6860 0.6860 0.2425
vn -0.6860 -0.6860 -0.2425
vn 0.5000 -0.5000 0.7071
vn -0.5000 0.5000 0.7071
vn 0.5000 0.5000 0.7071
vn -0.5000 -0.5000 0.7071
usemtl MAGIC_MIRROR_FRAME
s off
f 2/1/1 4/2/1 16/3/1 15/4/1
f 3/5/2 4/6/2 8/7/2 7/8/2
f 7/9/3 8/10/3 6/11/3 5/12/3
f 5/13/4 6/14/4 2/15/4 1/16/4
f 1/17/5 3/18/5 9/19/5 10/20/5
f 8/10/1 4/21/1 2/22/1 6/11/1
f 9/19/6 11/23/6 12/24/6 10/20/6
f 7/9/3 5/12/3 12/25/3 11/26/3
f 5/13/4 1/16/4 10/27/4 12/28/4
f 3/5/2 7/8/2 11/29/2 9/30/2
f 15/31/3 16/32/3 22/33/3 21/34/3
f 3/18/6 1/17/6 14/35/6 13/36/6
f 4/6/2 3/5/2 13/37/2 16/38/2
f 1/16/4 2/15/4 15/39/4 14/40/4
f 18/41/5 19/42/5 20/43/5 17/44/5
f 13/36/6 14/35/6 18/45/6 17/46/6
f 16/38/2 13/37/2 17/47/2 20/48/2
f 14/40/4 15/39/4 19/49/4 18/50/4
f 19/51/4 15/52/4 21/53/4 25/54/4
f 16/55/2 20/56/2 26/57/2 22/58/2
f 20/43/5 19/42/5 25/59/5 26/60/5
f 23/61/4 25/54/4 21/53/4
f 24/62/2 26/63/2 30/64/2 28/65/2
f 23/66/7 24/62/7 28/65/7 27/67/7
f 25/68/4 23/69/4 27/70/4 29/71/4
f 26/72/8 25/73/8 29/74/8 30/75/8
f 22/76/9 24/77/9 23/78/9 21/79/9
f 24/80/2 22/58/2 26/57/2
f 32/81/10 36/82/10 134/83/10 133/84/10
f 33/85/2 34/86/2 38/87/2 37/88/2
f 35/89/4 36/90/4 32/91/4 31/92/4
f 33/93/11 37/94/11 132/95/11 131/96/11
f 45/97/12 47/98/12 59/99/12 58/100/12
f 46/101/4 47/102/4 51/103/4 50/104/4
f 50/105/13 51/106/13 49/107/13 48/108/13
f 48/109/2 49/110/2 45/111/2 44/112/2
f 44/113/14 46/114/14 52/115/14 53/116/14
f 51/106/12 47/117/12 45/118/12 49/107/12
f 52/115/15 54/119/15 55/120/15 53/116/15
f 50/105/13 48/108/13 55/121/13 54/122/13
f 48/109/2 44/112/2 53/123/2 55/124/2
f 46/101/4 50/104/4 54/125/4 52/126/4
f 58/127/13 59/128/13 65/129/13 64/130/13
f 46/114/15 44/113/15 57/131/15 56/132/15
f 47/102/4 46/101/4 56/133/4 59/134/4
f 44/112/2 45/111/2 58/135/2 57/136/2
f 61/137/14 62/138/14 63/139/14 60/140/14
f 56/132/15 57/131/15 61/137/15 60/141/15
f 59/134/4 56/133/4 60/142/4 63/143/4
f 57/136/2 58/135/2 62/144/2 61/145/2
f 62/146/2 58/147/2 64/148/2 30/149/2
f 59/150/4 63/151/4 29/152/4 65/153/4
f 63/139/14 62/138/14 30/64/14 29/154/14
f 28/155/2 30/149/2 64/148/2
f 65/156/16 27/157/16 28/158/16 64/159/16
f 27/160/4 65/153/4 29/152/4
f 68/161/2 69/162/2 73/163/2 72/164/2
f 70/165/4 71/166/4 67/167/4 66/168/4
f 68/169/11 72/170/11 136/171/11 135/172/11
f 80/173/15 93/174/15 94/175/15 82/176/15
f 81/177/2 85/178/2 86/179/2 82/180/2
f 85/181/14 83/182/14 84/183/14 86/184/14
f 83/185/4 79/186/4 80/187/4 84/188/4
f 79/189/13 88/190/13 87/191/13 81/192/13
f 86/184/15 84/183/15 80/193/15 82/194/15
f 87/191/12 88/190/12 90/195/12 89/196/12
f 85/181/14 89/197/14 90/198/14 83/182/14
f 83/185/4 90/199/4 88/200/4 79/186/4
f 81/177/2 87/201/2 89/202/2 85/178/2
f 93/203/14 99/204/14 100/205/14 94/206/14
f 81/192/12 91/207/12 92/208/12 79/189/12
f 82/180/2 94/209/2 91/210/2 81/177/2
f 79/186/4 92/211/4 93/212/4 80/187/4
f 96/213/13 95/214/13 98/215/13 97/216/13
f 91/207/12 95/217/12 96/218/12 92/208/12
f 94/209/2 98/219/2 95/220/2 91/210/2
f 92/211/4 96/221/4 97/222/4 93/212/4
f 97/223/4 103/224/4 99/225/4 93/226/4
f 94/227/2 100/228/2 104/229/2 98/230/2
f 98/215/13 104/231/13 103/232/13 97/216/13
f 101/233/4 99/225/4 103/224/4
f 102/234/2 106/235/2 108/236/2 104/237/2
f 101/238/8 105/239/8 106/235/8 102/234/8
f 103/240/4 107/241/4 105/242/4 101/243/4
f 104/244/7 108/245/7 107/246/7 103/247/7
f 100/248/17 99/249/17 101/250/17 102/251/17
f 102/252/2 104/229/2 100/228/2
f 110/253/6 123/254/6 124/255/6 112/256/6
f 111/257/4 115/258/4 116/259/4 112/260/4
f 115/261/5 113/262/5 114/263/5 116/264/5
f 113/265/2 109/266/2 110/267/2 114/268/2
f 109/269/3 118/270/3 117/271/3 111/272/3
f 116/264/6 114/263/6 110/273/6 112/274/6
f 117/271/1 118/270/1 120/275/1 119/276/1
f 115/261/5 119/277/5 120/278/5 113/262/5
f 113/265/2 120/279/2 118/280/2 109/266/2
f 111/257/4 117/281/4 119/282/4 115/258/4
f 123/283/5 129/284/5 130/285/5 124/286/5
f 111/272/1 121/287/1 122/288/1 109/269/1
f 112/260/4 124/289/4 121/290/4 111/257/4
f 109/266/2 122/291/2 123/292/2 110/267/2
f 126/293/3 125/294/3 128/295/3 127/296/3
f 121/287/1 125/297/1 126/293/1 122/288/1
f 124/289/4 128/298/4 125/299/4 121/290/4
f 122/291/2 126/300/2 127/301/2 123/292/2
f 127/302/2 108/303/2 129/304/2 123/305/2
f 124/306/4 130/307/4 107/308/4 128/309/4
f 128/295/3 107/310/3 108/236/3 127/296/3
f 106/311/2 129/304/2 108/303/2
f 130/312/18 129/313/18 106/314/18 105/315/18
f 105/316/4 107/308/4 130/307/4
f 37/94/19 38/317/19 134/318/19 132/95/19
f 35/319/20 31/320/20 131/321/20 132/322/20
f 34/323/21 33/93/21 131/324/21 133/325/21
f 31/326/22 32/81/22 133/84/22 131/321/22
f 36/327/23 35/319/23 132/322/23 134/83/23
f 38/317/24 34/323/24 133/325/24 134/328/24
f 70/329/20 66/330/20 135/331/20 136/332/20
f 72/170/19 73/333/19 138/334/19 136/171/19
f 71/335/23 70/329/23 136/332/23 138/336/23
f 69/337/21 68/338/21 135/331/21 137/339/21
f 67/340/10 71/341/10 138/342/10 137/343/10
f 73/344/24 69/337/24 137/339/24 138/336/24
f 66/345/22 67/340/22 137/343/22 135/346/22
usemtl CHIMERITE
f 39/347/25 41/348/25 40/349/25
f 42/350/26 43/351/26 39/352/26
f 40/353/27 42/354/27 39/355/27
f 43/356/28 41/357/28 39/358/28
f 74/359/26 76/360/26 75/361/26
f 77/362/25 78/363/25 74/364/25
f 75/365/28 77/366/28 74/367/28
f 78/368/27 76/369/27 74/370/27
o MIRROR_SHORT_MIRROR_Plane.007
v 0.250000 0.375000 0.031250
v 0.250000 0.625000 0.031250
v 0.187500 0.687500 0.031250
v 0.187500 0.312500 0.031250
v 0.500000 0.875000 0.031250
v 0.750000 0.375000 0.031250
v 0.500000 0.125000 0.031250
v 0.750000 0.625000 0.031250
v 0.812500 0.687500 0.031250
v 0.812500 0.312500 0.031250
vt 0.750000 0.750000
vt 0.812500 0.812500
vt 0.187500 0.812500
vt 0.250000 0.750000
vt 0.187500 0.437500
vt 0.812500 0.437500
vt 0.750000 0.500000
vt 0.250000 0.500000
vt 0.500000 0.250000
vt 0.500000 1.000000
vn 0.0000 0.0000 1.0000
usemtl MAGIC_MIRROR
s off
f 146/371/29 147/372/29 141/373/29 140/374/29
f 142/375/29 148/376/29 144/377/29 139/378/29
f 145/379/29 148/376/29 142/375/29
f 147/372/29 143/380/29 141/373/29
f 144/377/29 146/371/29 140/374/29 139/378/29
o MIRROR_SHORT_BACKBOARD_Plane.010
v 0.750000 0.375000 0.015625
v 0.750000 0.625000 0.015625
v 0.812500 0.687500 0.015625
v 0.812500 0.312500 0.015625
v 0.500000 0.875000 0.015625
v 0.250000 0.375000 0.015625
v 0.500000 0.125000 0.015625
v 0.250000 0.625000 0.015625
v 0.187500 0.687500 0.015625
v 0.187500 0.312500 0.015625
vt 0.937500 0.500000
vt 1.000000 0.562500
vt 0.375000 0.562500
vt 0.437500 0.500000
vt 0.375000 0.187500
vt 1.000000 0.187500
vt 0.937500 0.250000
vt 0.437500 0.250000
vt 0.687500 0.000000
vt 0.687500 0.750000
vn -0.0000 0.0000 -1.0000
usemtl MAGIC_MIRROR_FRAME
s off
f 156/381/30 157/382/30 151/383/30 150/384/30
f 152/385/30 158/386/30 154/387/30 149/388/30
f 155/389/30 158/386/30 152/385/30
f 157/382/30 153/390/30 151/383/30
f 154/387/30 156/381/30 150/384/30 149/388/30
