# Blender v2.80 (sub 75) OBJ File: 'chem devices.blend'
# www.blender.org
mtllib mirror_labyrinth_matrix.mtl
o MIRROR_LABYRINTH_MATRIX_Cube.157
v 0.000000 0.000000 0.000000
v -0.616696 0.506824 0.358385
v 0.002022 0.506824 -0.713267
v -0.614674 1.013649 -0.354882
v 0.620731 0.501879 0.358379
v 0.004034 1.008704 0.716764
v 0.622753 1.008704 -0.354888
v 0.006056 1.515528 0.003497
v -0.043905 0.072403 -0.025349
v -0.572502 0.506824 0.281838
v -0.570769 0.941245 -0.329534
v -0.042172 0.506824 -0.636720
v 0.002310 0.578875 -0.662070
v -0.526287 1.013296 -0.354883
v 0.005768 1.443478 -0.047701
v 0.534365 1.009057 -0.354888
v 0.578559 1.008704 -0.278341
v 0.049962 1.443125 0.028845
v 0.048229 1.008704 0.640217
v 0.576825 0.574283 0.333030
v 0.532343 0.502233 0.358379
v 0.003746 0.936654 0.665566
v -0.528309 0.506471 0.358384
v 0.000288 0.072050 0.051197
v 0.046216 0.506471 -0.636721
v 0.578270 0.936654 -0.329539
v 0.576537 0.502233 0.281833
v 0.044482 0.072050 -0.025349
v -0.038426 1.443478 0.028846
v -0.570481 1.013296 -0.278336
v -0.572214 0.578875 0.333036
v -0.040159 1.009057 0.640218
v 0.003891 0.972855 0.614619
v 0.532487 0.538434 0.307432
v 0.000433 0.108252 0.000250
v -0.528164 0.542673 0.307437
v -0.526431 0.977094 -0.303935
v 0.005624 1.407276 0.003247
v 0.003891 0.972855 0.614619
v -0.528164 0.542673 0.307437
v 0.005624 1.407276 0.003247
v 0.534221 0.972855 -0.303940
v 0.532487 0.538434 0.307432
v 0.003891 0.972855 0.614619
v -0.526431 0.977094 -0.303935
v 0.002166 0.542673 -0.611122
v 0.534221 0.972855 -0.303940
v 0.005624 1.407276 0.003247
v 0.000433 0.108252 0.000250
v -0.528164 0.542673 0.307437
v 0.002166 0.542673 -0.611122
v -0.526431 0.977094 -0.303935
v 0.534221 0.972855 -0.303940
v 0.002166 0.542673 -0.611122
v 0.000433 0.108252 0.000250
v 0.532487 0.538434 0.307432
v -0.000145 -0.036555 0.204040
v 0.176054 -0.181362 0.101645
v -0.177497 -0.179949 0.101646
v -0.001298 -0.324756 -0.000749
v 0.000433 0.108252 0.000250
v 0.176632 -0.036555 -0.102146
v -0.176919 -0.035142 -0.102144
v -0.000720 -0.179949 -0.204540
v -0.143468 -0.056630 0.010400
v -0.225749 0.024379 0.058278
v -0.073121 0.038567 -0.029775
v -0.155403 0.119575 0.018103
v -0.080969 -0.057129 0.118652
v -0.163250 0.023880 0.166531
v -0.010622 0.038067 0.078478
v -0.092904 0.119076 0.126356
v -0.108295 -0.009031 -0.009688
v -0.190576 0.071977 0.038191
v -0.045796 -0.009531 0.098565
v -0.128077 0.071478 0.146443
v -0.421796 0.314878 0.208890
v -0.386622 0.362477 0.188802
v -0.355373 0.362227 0.242929
v -0.390546 0.314629 0.263016
v 0.080511 -0.057774 0.118652
v 0.163437 0.022574 0.166529
v 0.010927 0.037981 0.078477
v 0.093854 0.118330 0.126355
v 0.143011 -0.057774 0.010398
v 0.225937 0.022574 0.058276
v 0.073427 0.037981 -0.029776
v 0.156354 0.118330 0.018102
v 0.045719 -0.009897 0.098565
v 0.128646 0.070452 0.146442
v 0.108219 -0.009897 -0.009689
v 0.191146 0.070452 0.038189
v 0.393051 0.311497 0.263012
v 0.358259 0.359375 0.242925
v 0.389509 0.359375 0.188799
v 0.424301 0.311497 0.208886
v 0.062272 -0.057129 -0.129447
v 0.062595 0.023880 -0.224644
v 0.062652 0.038067 -0.048438
v 0.062976 0.119076 -0.143635
v -0.062727 -0.056630 -0.129447
v -0.062404 0.024379 -0.224644
v -0.062347 0.038567 -0.048437
v -0.062023 0.119575 -0.143634
v 0.062462 -0.009531 -0.088943
v 0.062785 0.071478 -0.184140
v -0.062537 -0.009031 -0.088942
v -0.062214 0.071977 -0.184139
v 0.032505 0.314629 -0.469731
v 0.032696 0.362227 -0.429226
v -0.029804 0.362477 -0.429226
v -0.029994 0.314878 -0.469731
v 0.138638 1.514822 0.080042
v 0.006488 1.623427 0.156839
v 0.139071 1.623427 -0.072801
v 0.006922 1.732032 0.003996
v 0.005624 1.407276 0.003247
v -0.126525 1.515882 0.080044
v 0.006057 1.515881 -0.149596
v -0.126092 1.624487 -0.072799
v 0.087025 1.572657 -0.115155
v 0.169307 1.491649 -0.163034
v 0.016679 1.477461 -0.074981
v 0.098960 1.396452 -0.122859
v 0.149524 1.572158 -0.006903
v 0.231806 1.491149 -0.054781
v 0.079178 1.476962 0.033272
v 0.161459 1.395953 -0.014607
v 0.051852 1.525059 -0.095068
v 0.134133 1.444051 -0.142947
v 0.114351 1.524560 0.013184
v 0.196632 1.443551 -0.034694
v 0.396603 1.200900 -0.259519
v 0.361429 1.153302 -0.239432
v 0.392679 1.153052 -0.185305
v 0.427852 1.200650 -0.205393
v 0.068784 1.572158 0.132943
v 0.068461 1.491149 0.228141
v 0.068403 1.476962 0.051934
v 0.068080 1.395953 0.147131
v -0.056215 1.572657 0.132944
v -0.056538 1.491649 0.228141
v -0.056596 1.477461 0.051935
v -0.056919 1.396452 0.147132
v 0.068594 1.524560 0.092439
v 0.068270 1.443551 0.187636
v -0.056406 1.525059 0.092439
v -0.056729 1.444050 0.187636
v 0.036050 1.200650 0.473227
v 0.035860 1.153052 0.432723
v -0.026639 1.153301 0.432723
v -0.026449 1.200900 0.473228
v -0.136954 1.573303 -0.006902
v -0.219881 1.492954 -0.054779
v -0.067370 1.477547 0.033273
v -0.150297 1.397199 -0.014605
v -0.074454 1.573303 -0.115155
v -0.157381 1.492954 -0.163033
v -0.004870 1.477547 -0.074980
v -0.087797 1.397199 -0.122858
v -0.102162 1.525425 0.013186
v -0.185089 1.445076 -0.034692
v -0.039662 1.525425 -0.095068
v -0.122589 1.445076 -0.142945
v -0.418244 1.204031 -0.205389
v -0.383452 1.156153 -0.185302
v -0.352202 1.156153 -0.239428
v -0.386994 1.204031 -0.259515
v -0.000578 -0.144807 0.203791
v 0.175621 -0.289614 0.101395
v -0.177929 -0.288201 0.101397
v -0.001730 -0.433008 -0.000999
v 0.000000 0.000000 -0.000000
v 0.176199 -0.144807 -0.102396
v -0.177352 -0.143394 -0.102394
v -0.001153 -0.288201 -0.204790
v 0.139070 1.623074 0.080292
v 0.006921 1.731679 0.157089
v 0.139503 1.731679 -0.072551
v 0.007354 1.840284 0.004246
v 0.006056 1.515528 0.003497
v -0.126093 1.624133 0.080293
v 0.006490 1.624133 -0.149346
v -0.125660 1.732738 -0.072549
vt 0.125000 0.125000
vt 0.875000 0.125000
vt 0.875000 0.875000
vt 0.125000 0.875000
vt 0.125000 0.875000
vt 0.125000 0.125000
vt 0.875000 0.125000
vt 0.875000 0.875000
vt 0.875000 0.875000
vt 0.125000 0.875000
vt 0.125000 0.125000
vt 0.875000 0.125000
vt 0.875000 0.125000
vt 0.875000 0.875000
vt 0.125000 0.875000
vt 0.125000 0.125000
vt 0.125000 0.875000
vt 0.125000 0.125000
vt 0.875000 0.125000
vt 0.875000 0.875000
vt 0.125000 0.125000
vt 0.875000 0.125000
vt 0.875000 0.875000
vt 0.125000 0.875000
vt 0.031250 0.093750
vt 0.031250 0.468750
vt -0.000000 0.468750
vt -0.000000 0.093750
vt -0.000000 0.468750
vt -0.000000 0.093750
vt 0.031250 0.093750
vt 0.031250 0.468750
vt 0.031250 0.468750
vt 0.031250 0.093750
vt -0.000000 0.093750
vt -0.000000 0.468750
vt -0.000000 0.468750
vt -0.000000 0.093750
vt 0.031250 0.093750
vt 0.031250 0.468750
vt 0.031250 0.093750
vt 0.031250 0.468750
vt -0.000000 0.468750
vt -0.000000 0.093750
vt -0.000000 0.093750
vt -0.000000 0.468750
vt 0.031250 0.468750
vt 0.031250 0.093750
vt 0.375000 0.875000
vt 0.812500 0.875000
vt 0.781250 0.906250
vt 0.406250 0.906250
vt 0.375000 0.875000
vt 0.812500 0.875000
vt 0.781250 0.843750
vt 0.406250 0.843750
vt 0.375000 0.875000
vt 0.406250 0.843750
vt 0.812500 0.875000
vt 0.781250 0.906250
vt 0.375000 0.843750
vt 0.812500 0.843750
vt 0.781250 0.875000
vt 0.406250 0.875000
vt 0.812500 0.906250
vt 0.375000 0.906250
vt 0.406250 0.875000
vt 0.812500 0.906250
vt 0.781250 0.875000
vt 0.812500 0.843750
vt 0.406250 0.875000
vt 0.781250 0.875000
vt 0.812500 0.906250
vt 0.781250 0.875000
vt 0.812500 0.875000
vt 0.375000 0.875000
vt 0.406250 0.843750
vt 0.781250 0.843750
vt 0.375000 0.843750
vt 0.406250 0.875000
vt 0.812500 0.843750
vt 0.781250 0.875000
vt 0.406250 0.875000
vt 0.406250 0.843750
vt 0.781250 0.843750
vt 0.812500 0.906250
vt 0.375000 0.906250
vt 0.406250 0.875000
vt 0.781250 0.875000
vt 0.812500 0.875000
vt 0.781250 0.906250
vt 0.406250 0.906250
vt 0.781250 0.875000
vt 0.406250 0.875000
vt 0.812500 0.875000
vt 0.406250 0.843750
vt 0.781250 0.843750
vt 0.812500 0.906250
vt 0.406250 0.875000
vt 0.781250 0.875000
vt 0.781250 0.906250
vt 0.406250 0.906250
vt 0.375000 0.875000
vt 0.781250 0.906250
vt 0.406250 0.906250
vt 0.406250 0.843750
vt 0.781250 0.843750
vt 0.781250 0.843750
vt 0.781250 0.906250
vt 0.031250 0.093750
vt 0.031250 0.468750
vt -0.000000 0.468750
vt -0.000000 0.093750
vt -0.000000 0.093750
vt 0.031250 0.093750
vt 0.031250 0.093750
vt -0.000000 0.093750
vt -0.000000 0.468750
vt 0.031250 0.468750
vt -0.000000 0.093750
vt 0.031250 0.093750
vt -0.000000 0.468750
vt -0.000000 0.093750
vt 0.031250 0.093750
vt 0.031250 0.468750
vt 0.031250 0.093750
vt -0.000000 0.093750
vt 0.031250 0.468750
vt -0.000000 0.468750
vt -0.000000 0.468750
vt 0.031250 0.468750
vt 0.031250 0.093750
vt 0.031250 0.468750
vt -0.000000 0.468750
vt -0.000000 0.093750
vt 0.031250 0.468750
vt -0.000000 0.468750
vt -0.000000 0.093750
vt -0.000000 0.468750
vt 0.031250 0.468750
vt 0.031250 0.093750
vt -0.000000 0.093750
vt 0.031250 0.093750
vt 0.031250 0.093750
vt -0.000000 0.093750
vt -0.000000 0.093750
vt -0.000000 0.468750
vt 0.031250 0.468750
vt 0.031250 0.093750
vt 0.031250 0.093750
vt -0.000000 0.093750
vt -0.000000 0.093750
vt 0.031250 0.093750
vt 0.875000 0.750000
vt 1.000000 0.750000
vt 1.000000 0.875000
vt 0.875000 0.875000
vt 0.875000 1.000000
vt 0.875000 0.875000
vt 1.000000 0.875000
vt 1.000000 1.000000
vt 1.000000 1.000000
vt 0.875000 1.000000
vt 0.875000 0.875000
vt 1.000000 1.000000
vt 0.875000 1.000000
vt 0.875000 0.750000
vt 1.000000 0.875000
vt 0.875000 0.750000
vt 1.000000 0.875000
vt 0.218750 0.968750
vt 0.281250 0.968750
vt 0.281250 0.937500
vt 0.218750 0.937500
vt 0.125000 0.812500
vt 0.187500 0.812500
vt 0.187500 0.875000
vt 0.125000 0.875000
vt 0.218750 0.968750
vt 0.281250 0.968750
vt 0.281250 1.000000
vt 0.218750 1.000000
vt 0.125000 0.750000
vt 0.187500 0.750000
vt 0.187500 0.812500
vt 0.125000 0.812500
vt 0.062500 0.781250
vt 0.125000 0.781250
vt 0.125000 0.812500
vt 0.062500 0.812500
vt 0.343750 1.000000
vt 0.281250 1.000000
vt 0.281250 0.968750
vt 0.343750 0.968750
vt 0.375000 0.828125
vt 0.375000 0.859375
vt 0.062500 0.750000
vt 0.125000 0.750000
vt 0.218750 0.937500
vt 0.281250 0.937500
vt 0.218750 1.000000
vt 0.281250 1.000000
vt 0.406250 1.000000
vt 0.343750 1.000000
vt 0.343750 0.968750
vt 0.406250 0.968750
vt 0.187500 0.812500
vt 0.187500 0.750000
vt 0.375000 0.765625
vt 0.375000 0.796875
vt 0.468750 0.937500
vt 0.468750 0.968750
vt 0.468750 0.968750
vt 0.468750 0.937500
vt 0.218750 0.968750
vt 0.281250 0.968750
vt 0.281250 0.937500
vt 0.218750 0.937500
vt 0.125000 0.812500
vt 0.187500 0.812500
vt 0.187500 0.875000
vt 0.125000 0.875000
vt 0.218750 0.968750
vt 0.281250 0.968750
vt 0.281250 1.000000
vt 0.218750 1.000000
vt 0.125000 0.750000
vt 0.187500 0.750000
vt 0.187500 0.812500
vt 0.125000 0.812500
vt 0.062500 0.781250
vt 0.125000 0.781250
vt 0.125000 0.812500
vt 0.062500 0.812500
vt 0.343750 1.000000
vt 0.281250 1.000000
vt 0.281250 0.968750
vt 0.343750 0.968750
vt 0.375000 0.828125
vt 0.375000 0.859375
vt 0.062500 0.750000
vt 0.125000 0.750000
vt 0.218750 0.937500
vt 0.281250 0.937500
vt 0.218750 1.000000
vt 0.281250 1.000000
vt 0.406250 1.000000
vt 0.343750 1.000000
vt 0.343750 0.968750
vt 0.406250 0.968750
vt 0.187500 0.812500
vt 0.187500 0.750000
vt 0.375000 0.765625
vt 0.375000 0.796875
vt 0.468750 0.937500
vt 0.468750 0.968750
vt 0.468750 0.968750
vt 0.468750 0.937500
vt 0.218750 0.968750
vt 0.281250 0.968750
vt 0.281250 0.937500
vt 0.218750 0.937500
vt 0.125000 0.812500
vt 0.187500 0.812500
vt 0.187500 0.875000
vt 0.125000 0.875000
vt 0.218750 0.968750
vt 0.281250 0.968750
vt 0.281250 1.000000
vt 0.218750 1.000000
vt 0.125000 0.750000
vt 0.187500 0.750000
vt 0.187500 0.812500
vt 0.125000 0.812500
vt 0.062500 0.781250
vt 0.125000 0.781250
vt 0.125000 0.812500
vt 0.062500 0.812500
vt 0.343750 1.000000
vt 0.281250 1.000000
vt 0.281250 0.968750
vt 0.343750 0.968750
vt 0.375000 0.828125
vt 0.375000 0.859375
vt 0.062500 0.750000
vt 0.125000 0.750000
vt 0.218750 0.937500
vt 0.281250 0.937500
vt 0.218750 1.000000
vt 0.281250 1.000000
vt 0.406250 1.000000
vt 0.343750 1.000000
vt 0.343750 0.968750
vt 0.406250 0.968750
vt 0.187500 0.812500
vt 0.187500 0.750000
vt 0.375000 0.765625
vt 0.375000 0.796875
vt 0.468750 0.937500
vt 0.468750 0.968750
vt 0.468750 0.968750
vt 0.468750 0.937500
vt 0.781250 0.906250
vt 0.875000 0.906250
vt 0.875000 1.000000
vt 0.781250 1.000000
vt 0.687500 1.000000
vt 0.687500 0.906250
vt 0.781250 0.906250
vt 0.781250 1.000000
vt 0.687500 1.000000
vt 0.687500 0.906250
vt 0.781250 1.000000
vt 0.687500 1.000000
vt 0.687500 0.906250
vt 0.781250 0.906250
vt 0.875000 1.000000
vt 0.781250 0.906250
vt 0.875000 1.000000
vt 0.218750 0.968750
vt 0.281250 0.968750
vt 0.281250 0.937500
vt 0.218750 0.937500
vt 0.125000 0.812500
vt 0.187500 0.812500
vt 0.187500 0.875000
vt 0.125000 0.875000
vt 0.218750 0.968750
vt 0.281250 0.968750
vt 0.281250 1.000000
vt 0.218750 1.000000
vt 0.125000 0.750000
vt 0.187500 0.750000
vt 0.187500 0.812500
vt 0.125000 0.812500
vt 0.062500 0.781250
vt 0.125000 0.781250
vt 0.125000 0.812500
vt 0.062500 0.812500
vt 0.343750 1.000000
vt 0.281250 1.000000
vt 0.281250 0.968750
vt 0.343750 0.968750
vt 0.375000 0.828125
vt 0.375000 0.859375
vt 0.062500 0.750000
vt 0.125000 0.750000
vt 0.218750 0.937500
vt 0.281250 0.937500
vt 0.218750 1.000000
vt 0.281250 1.000000
vt 0.406250 1.000000
vt 0.343750 1.000000
vt 0.343750 0.968750
vt 0.406250 0.968750
vt 0.187500 0.812500
vt 0.187500 0.750000
vt 0.375000 0.765625
vt 0.375000 0.796875
vt 0.468750 0.937500
vt 0.468750 0.968750
vt 0.468750 0.968750
vt 0.468750 0.937500
vt 0.218750 0.968750
vt 0.281250 0.968750
vt 0.281250 0.937500
vt 0.218750 0.937500
vt 0.125000 0.812500
vt 0.187500 0.812500
vt 0.187500 0.875000
vt 0.125000 0.875000
vt 0.218750 0.968750
vt 0.281250 0.968750
vt 0.281250 1.000000
vt 0.218750 1.000000
vt 0.125000 0.750000
vt 0.187500 0.750000
vt 0.187500 0.812500
vt 0.125000 0.812500
vt 0.062500 0.781250
vt 0.125000 0.781250
vt 0.125000 0.812500
vt 0.062500 0.812500
vt 0.343750 1.000000
vt 0.281250 1.000000
vt 0.281250 0.968750
vt 0.343750 0.968750
vt 0.375000 0.828125
vt 0.375000 0.859375
vt 0.062500 0.750000
vt 0.125000 0.750000
vt 0.218750 0.937500
vt 0.281250 0.937500
vt 0.218750 1.000000
vt 0.281250 1.000000
vt 0.406250 1.000000
vt 0.343750 1.000000
vt 0.343750 0.968750
vt 0.406250 0.968750
vt 0.187500 0.812500
vt 0.187500 0.750000
vt 0.375000 0.765625
vt 0.375000 0.796875
vt 0.468750 0.937500
vt 0.468750 0.968750
vt 0.468750 0.968750
vt 0.468750 0.937500
vt 0.218750 0.968750
vt 0.281250 0.968750
vt 0.281250 0.937500
vt 0.218750 0.937500
vt 0.125000 0.812500
vt 0.187500 0.812500
vt 0.187500 0.875000
vt 0.125000 0.875000
vt 0.218750 0.968750
vt 0.281250 0.968750
vt 0.281250 1.000000
vt 0.218750 1.000000
vt 0.125000 0.750000
vt 0.187500 0.750000
vt 0.187500 0.812500
vt 0.125000 0.812500
vt 0.062500 0.781250
vt 0.125000 0.781250
vt 0.125000 0.812500
vt 0.062500 0.812500
vt 0.343750 1.000000
vt 0.281250 1.000000
vt 0.281250 0.968750
vt 0.343750 0.968750
vt 0.375000 0.828125
vt 0.375000 0.859375
vt 0.062500 0.750000
vt 0.125000 0.750000
vt 0.218750 0.937500
vt 0.281250 0.937500
vt 0.218750 1.000000
vt 0.281250 1.000000
vt 0.406250 1.000000
vt 0.343750 1.000000
vt 0.343750 0.968750
vt 0.406250 0.968750
vt 0.187500 0.812500
vt 0.187500 0.750000
vt 0.375000 0.765625
vt 0.375000 0.796875
vt 0.468750 0.937500
vt 0.468750 0.968750
vt 0.468750 0.968750
vt 0.468750 0.937500
vt 0.625000 0.062500
vt 0.875000 0.062500
vt 0.875000 0.312500
vt 0.625000 0.312500
vt 0.625000 0.562500
vt 0.625000 0.312500
vt 0.875000 0.312500
vt 0.875000 0.562500
vt 0.875000 0.562500
vt 0.625000 0.562500
vt 0.625000 0.312500
vt 0.875000 0.562500
vt 0.625000 0.562500
vt 0.625000 0.062500
vt 0.875000 0.312500
vt 0.625000 0.062500
vt 0.875000 0.312500
vt 0.250000 0.062500
vt 0.437500 0.062500
vt 0.437500 0.250000
vt 0.250000 0.250000
vt 0.062500 0.250000
vt 0.062500 0.062500
vt 0.250000 0.062500
vt 0.250000 0.250000
vt 0.062500 0.250000
vt 0.062500 0.062500
vt 0.250000 0.250000
vt 0.062500 0.250000
vt 0.062500 0.062500
vt 0.250000 0.062500
vt 0.437500 0.250000
vt 0.250000 0.062500
vt 0.437500 0.250000
vn -0.0023 -0.5792 0.8152
vn -0.7048 0.5792 0.4096
vn 0.7094 0.5736 0.4096
vn 0.0023 0.5792 -0.8152
vn -0.7094 -0.5736 -0.4096
vn 0.7048 -0.5792 -0.4096
vn -0.5000 0.0040 -0.8660
vn 0.5628 0.7616 -0.3214
vn 0.5000 -0.0040 0.8660
vn -0.5628 -0.7616 0.3214
vn 0.6583 -0.6481 -0.3830
vn -0.6583 0.6481 0.3830
vn 0.4436 0.0498 0.8948
vn -0.5529 0.0578 -0.8312
vn -0.5000 -0.0000 0.8660
vn -0.5567 0.7660 -0.3214
vn 0.5000 0.0000 -0.8660
vn 0.5567 -0.7660 0.3214
vn -0.6634 -0.6428 -0.3830
vn 0.6634 0.6428 0.3830
vn 0.5534 0.0534 -0.8312
vn -0.4432 0.0534 0.8948
vn 1.0000 -0.0040 -0.0000
vn 0.0030 0.7616 0.6481
vn -1.0000 0.0040 0.0000
vn -0.0030 -0.7616 -0.6481
vn -0.0026 -0.6481 0.7616
vn 0.0026 0.6481 -0.7616
vn -0.9963 0.0578 -0.0632
vn 0.9968 0.0498 -0.0633
vn 0.5529 -0.0578 0.8312
vn -0.4436 -0.0498 -0.8948
vn -0.9968 -0.0498 0.0633
vn 0.9963 -0.0578 0.0632
vn 0.4432 -0.0534 -0.8948
vn -0.5534 -0.0534 0.8312
usemtl MAGIC_MIRROR
s off
f 34/1/1 33/2/1 36/3/1 35/4/1
f 38/5/2 37/6/2 40/7/2 39/8/2
f 42/9/3 41/10/3 44/11/3 43/12/3
f 46/13/4 45/14/4 48/15/4 47/16/4
f 49/17/5 50/18/5 52/19/5 51/20/5
f 54/21/6 53/22/6 56/23/6 55/24/6
usemtl MIRROR_LABYRINTH
f 9/25/4 10/26/4 50/27/4 49/28/4
f 15/29/5 16/30/5 47/31/5 48/32/5
f 18/33/6 19/34/6 44/35/6 41/36/6
f 23/37/3 24/38/3 35/39/3 36/40/3
f 28/41/3 25/42/3 54/43/3 55/44/3
f 30/45/3 31/46/3 40/47/3 37/48/3
f 1/49/5 2/50/5 10/51/5 9/52/5
f 2/53/5 4/54/5 11/55/5 10/56/5
f 4/54/5 3/57/5 12/58/5 11/55/5
f 3/59/5 1/49/5 9/52/5 12/60/5
f 3/61/4 4/62/4 14/63/4 13/64/4
f 4/65/4 8/66/4 15/67/4 14/63/4
f 8/66/4 7/68/4 16/69/4 15/67/4
f 7/70/4 3/61/4 13/64/4 16/69/4
f 7/68/3 8/66/3 18/71/3 17/72/3
f 8/66/3 6/73/3 19/74/3 18/71/3
f 6/75/3 5/76/3 20/77/3 19/78/3
f 5/79/3 7/70/3 17/72/3 20/80/3
f 5/79/1 6/81/1 22/82/1 21/83/1
f 6/75/1 2/53/1 23/84/1 22/85/1
f 2/86/1 1/87/1 24/88/1 23/89/1
f 1/49/1 5/90/1 21/91/1 24/92/1
f 3/61/6 7/70/6 26/93/6 25/94/6
f 7/95/6 5/76/6 27/96/6 26/97/6
f 5/98/6 1/87/6 28/99/6 27/100/6
f 1/49/6 3/59/6 25/101/6 28/102/6
f 8/103/2 4/54/2 30/104/2 29/105/2
f 4/54/2 2/53/2 31/106/2 30/107/2
f 2/53/2 6/75/2 32/108/2 31/106/2
f 6/75/2 8/103/2 29/105/2 32/109/2
f 24/110/2 21/111/2 34/112/2 35/113/2
f 22/114/6 23/37/6 36/40/6 33/115/6
f 21/111/5 22/116/5 33/117/5 34/112/5
f 29/118/1 30/45/1 37/48/1 38/119/1
f 31/46/4 32/120/4 39/121/4 40/47/4
f 32/122/5 29/123/5 38/124/5 39/125/5
f 17/126/1 18/33/1 41/36/1 42/127/1
f 19/34/4 20/128/4 43/129/4 44/35/4
f 20/128/2 17/126/2 42/127/2 43/129/2
f 16/30/2 13/130/2 46/131/2 47/31/2
f 14/132/6 15/133/6 48/134/6 45/135/6
f 13/136/3 14/132/3 45/135/3 46/137/3
f 11/138/1 12/139/1 51/140/1 52/141/1
f 12/139/2 9/142/2 49/143/2 51/140/2
f 10/26/6 11/144/6 52/145/6 50/27/6
f 26/146/5 27/147/5 56/148/5 53/149/5
f 25/42/1 26/150/1 53/151/1 54/43/1
f 27/147/4 28/152/4 55/153/4 56/148/4
f 57/154/2 61/155/2 63/156/2 59/157/2
f 62/158/6 58/159/6 60/160/6 64/161/6
f 60/160/5 59/162/5 63/163/5 64/164/5
f 58/165/1 57/166/1 59/157/1 60/160/1
f 62/167/3 61/155/3 57/168/3 58/159/3
f 64/164/4 63/169/4 61/155/4 62/170/4
f 73/171/7 74/172/7 68/173/7 67/174/7
f 67/175/8 68/176/8 72/177/8 71/178/8
f 75/179/9 76/180/9 70/181/9 69/182/9
f 69/183/10 70/184/10 66/185/10 65/186/10
f 73/187/11 75/188/11 69/189/11 65/190/11
f 76/191/12 74/192/12 66/193/12 70/194/12
f 72/177/8 68/176/8 78/195/8 79/196/8
f 67/197/11 71/198/11 75/188/11 73/187/11
f 71/199/9 72/200/9 76/180/9 75/179/9
f 65/201/7 66/202/7 74/172/7 73/171/7
f 79/203/12 78/204/12 77/205/12 80/206/12
f 74/207/10 76/208/10 80/209/10 77/210/10
f 76/180/13 72/200/13 79/211/13 80/212/13
f 68/173/14 74/172/14 77/213/14 78/214/14
f 89/215/15 90/216/15 84/217/15 83/218/15
f 83/219/16 84/220/16 88/221/16 87/222/16
f 91/223/17 92/224/17 86/225/17 85/226/17
f 85/227/18 86/228/18 82/229/18 81/230/18
f 89/231/19 91/232/19 85/233/19 81/234/19
f 92/235/20 90/236/20 82/237/20 86/238/20
f 88/221/16 84/220/16 94/239/16 95/240/16
f 83/241/19 87/242/19 91/232/19 89/231/19
f 87/243/17 88/244/17 92/224/17 91/223/17
f 81/245/15 82/246/15 90/216/15 89/215/15
f 95/247/20 94/248/20 93/249/20 96/250/20
f 90/251/18 92/252/18 96/253/18 93/254/18
f 92/224/21 88/244/21 95/255/21 96/256/21
f 84/217/22 90/216/22 93/257/22 94/258/22
f 105/259/23 106/260/23 100/261/23 99/262/23
f 99/263/24 100/264/24 104/265/24 103/266/24
f 107/267/25 108/268/25 102/269/25 101/270/25
f 101/271/26 102/272/26 98/273/26 97/274/26
f 105/275/27 107/276/27 101/277/27 97/278/27
f 108/279/28 106/280/28 98/281/28 102/282/28
f 104/265/24 100/264/24 110/283/24 111/284/24
f 99/285/27 103/286/27 107/276/27 105/275/27
f 103/287/25 104/288/25 108/268/25 107/267/25
f 97/289/23 98/290/23 106/260/23 105/259/23
f 111/291/28 110/292/28 109/293/28 112/294/28
f 106/295/26 108/296/26 112/297/26 109/298/26
f 108/268/29 104/288/29 111/299/29 112/300/29
f 100/261/30 106/260/30 109/301/30 110/302/30
f 113/303/6 117/304/6 119/305/6 115/306/6
f 118/307/2 114/308/2 116/309/2 120/310/2
f 116/309/4 115/306/4 119/311/4 120/312/4
f 114/313/3 113/314/3 115/315/3 116/309/3
f 118/316/1 117/304/1 113/317/1 114/313/1
f 120/310/5 119/318/5 117/304/5 118/319/5
f 129/320/7 130/321/7 124/322/7 123/323/7
f 123/324/10 124/325/10 128/326/10 127/327/10
f 131/328/9 132/329/9 126/330/9 125/331/9
f 125/332/8 126/333/8 122/334/8 121/335/8
f 129/336/12 131/337/12 125/338/12 121/339/12
f 132/340/11 130/341/11 122/342/11 126/343/11
f 128/326/10 124/325/10 134/344/10 135/345/10
f 123/346/12 127/347/12 131/337/12 129/336/12
f 127/348/9 128/349/9 132/329/9 131/328/9
f 121/350/7 122/351/7 130/321/7 129/320/7
f 135/352/11 134/353/11 133/354/11 136/355/11
f 130/356/8 132/357/8 136/358/8 133/359/8
f 132/329/31 128/349/31 135/360/31 136/361/31
f 124/322/32 130/321/32 133/362/32 134/363/32
f 145/364/23 146/365/23 140/366/23 139/367/23
f 139/368/26 140/369/26 144/370/26 143/371/26
f 147/372/25 148/373/25 142/374/25 141/375/25
f 141/376/24 142/377/24 138/378/24 137/379/24
f 145/380/28 147/381/28 141/382/28 137/383/28
f 148/384/27 146/385/27 138/386/27 142/387/27
f 144/370/26 140/369/26 150/388/26 151/389/26
f 139/390/28 143/391/28 147/381/28 145/380/28
f 143/392/25 144/393/25 148/373/25 147/372/25
f 137/394/23 138/395/23 146/365/23 145/364/23
f 151/396/27 150/397/27 149/398/27 152/399/27
f 146/400/24 148/401/24 152/402/24 149/403/24
f 148/373/33 144/393/33 151/404/33 152/405/33
f 140/366/34 146/365/34 149/406/34 150/407/34
f 161/408/15 162/409/15 156/410/15 155/411/15
f 155/412/18 156/413/18 160/414/18 159/415/18
f 163/416/17 164/417/17 158/418/17 157/419/17
f 157/420/16 158/421/16 154/422/16 153/423/16
f 161/424/20 163/425/20 157/426/20 153/427/20
f 164/428/19 162/429/19 154/430/19 158/431/19
f 160/414/18 156/413/18 166/432/18 167/433/18
f 155/434/20 159/435/20 163/425/20 161/424/20
f 159/436/17 160/437/17 164/417/17 163/416/17
f 153/438/15 154/439/15 162/409/15 161/408/15
f 167/440/19 166/441/19 165/442/19 168/443/19
f 162/444/16 164/445/16 168/446/16 165/447/16
f 164/417/35 160/437/35 167/448/35 168/449/35
f 156/410/36 162/409/36 165/450/36 166/451/36
usemtl CHIMERITE
f 169/452/2 173/453/2 175/454/2 171/455/2
f 174/456/6 170/457/6 172/458/6 176/459/6
f 172/458/5 171/460/5 175/461/5 176/462/5
f 170/463/1 169/464/1 171/455/1 172/458/1
f 174/465/3 173/453/3 169/466/3 170/457/3
f 176/462/4 175/467/4 173/453/4 174/468/4
f 177/469/6 181/470/6 183/471/6 179/472/6
f 182/473/2 178/474/2 180/475/2 184/476/2
f 180/475/4 179/472/4 183/477/4 184/478/4
f 178/479/3 177/480/3 179/481/3 180/475/3
f 182/482/1 181/470/1 177/483/1 178/479/1
f 184/476/5 183/484/5 181/470/5 182/485/5
