# Blender v2.80 (sub 75) OBJ File: 'chem devices.blend'
# www.blender.org
mtllib nourishing_censer.mtl
o NOURISHING_CENSER_Cube.189
v 0.375000 0.000000 0.375000
v 0.437500 0.062500 0.437500
v 0.312500 0.000000 0.375000
v 0.250000 0.062500 0.437500
v 0.375000 0.000000 0.312500
v 0.437500 0.062500 0.250000
v 0.312500 0.000000 0.312500
v 0.375000 0.000000 0.625000
v 0.437500 0.062500 0.562500
v 0.375000 0.000000 0.687500
v 0.437500 0.062500 0.750000
v 0.312500 0.000000 0.625000
v 0.250000 0.062500 0.562500
v 0.312500 0.000000 0.687500
v 0.625000 0.000000 0.625000
v 0.562500 0.062500 0.562500
v 0.687500 0.000000 0.625000
v 0.750000 0.062500 0.562500
v 0.625000 0.000000 0.687500
v 0.562500 0.062500 0.750000
v 0.687500 0.000000 0.687500
v 0.625000 0.000000 0.375000
v 0.562500 0.062500 0.437500
v 0.625000 0.000000 0.312500
v 0.562500 0.062500 0.250000
v 0.687500 0.000000 0.375000
v 0.750000 0.062500 0.437500
v 0.687500 0.000000 0.312500
v 0.750000 0.062500 0.750000
v 0.437500 0.750000 0.437500
v 0.437500 0.687500 0.437500
v 0.812500 0.062500 0.750000
v 0.812500 0.062500 0.250000
v 0.750000 0.062500 0.187500
v 0.562500 0.750000 0.437500
v 0.312500 0.750000 0.312500
v 0.937500 0.187500 0.750000
v 0.937500 0.187500 0.250000
v 0.625000 0.812500 0.375000
v 0.937500 0.437500 0.250000
v 0.375000 0.812500 0.375000
v 0.812500 0.562500 0.250000
v 0.750000 0.687500 0.250000
v 0.187500 0.625000 0.250000
v 0.250000 0.625000 0.187500
v 0.812500 0.625000 0.250000
v 0.750000 0.625000 0.187500
v 0.250000 0.562500 0.187500
v 0.750000 0.562500 0.187500
v 0.250000 0.437500 0.062500
v 0.750000 0.437500 0.062500
v 0.687500 0.687500 0.687500
v 0.687500 0.687500 0.312500
v 0.562500 0.687500 0.437500
v 0.250000 0.187500 0.062500
v 0.750000 0.187500 0.062500
v 0.687500 0.750000 0.687500
v 0.687500 0.750000 0.312500
v 0.250000 0.062500 0.187500
v 0.750000 0.062500 0.250000
v 0.437500 0.687500 0.562500
v 0.500000 0.625000 0.500000
v 0.312500 0.687500 0.312500
v 0.250000 0.687500 0.250000
v 0.187500 0.625000 0.750000
v 0.250000 0.562500 0.812500
v 0.187500 0.562500 0.750000
v 0.187500 0.562500 0.250000
v 0.250000 0.437500 0.937500
v 0.062500 0.437500 0.750000
v 0.062500 0.437500 0.250000
v 0.250000 0.187500 0.937500
v 0.062500 0.187500 0.750000
v 0.062500 0.187500 0.250000
v 0.250000 0.062500 0.812500
v 0.187500 0.062500 0.750000
v 0.187500 0.062500 0.250000
v 0.250000 0.062500 0.750000
v 0.250000 0.062500 0.250000
v 0.437500 0.750000 0.562500
v 0.562500 0.750000 0.562500
v 0.312500 0.750000 0.687500
v 0.375000 0.812500 0.625000
v 0.625000 0.812500 0.625000
v 0.562500 0.687500 0.562500
v 0.312500 0.687500 0.687500
v 0.750000 0.687500 0.750000
v 0.250000 0.687500 0.750000
v 0.812500 0.625000 0.750000
v 0.750000 0.625000 0.812500
v 0.250000 0.625000 0.812500
v 0.812500 0.562500 0.750000
v 0.750000 0.562500 0.812500
v 0.937500 0.437500 0.750000
v 0.750000 0.437500 0.937500
v 0.750000 0.187500 0.937500
v 0.750000 0.062500 0.812500
v 0.179507 0.494555 0.820493
v 0.141234 0.525805 0.858766
v 0.148257 0.418009 0.851743
v 0.109984 0.449259 0.890016
v 0.288882 0.532828 0.898618
v 0.250609 0.564078 0.936891
v 0.101382 0.532828 0.711118
v 0.063109 0.564078 0.749391
v 0.188109 0.564078 0.874391
v 0.226382 0.532828 0.836118
v 0.163882 0.532828 0.773618
v 0.125609 0.564078 0.811891
v 0.210757 0.571102 0.789243
v 0.172484 0.602352 0.827516
v 0.242007 0.647648 0.757993
v 0.203734 0.678898 0.796266
v 0.820493 0.494555 0.820493
v 0.858766 0.525805 0.858766
v 0.851743 0.418009 0.851743
v 0.890016 0.449259 0.890016
v 0.898618 0.532828 0.711118
v 0.936891 0.564078 0.749391
v 0.711118 0.532828 0.898618
v 0.749391 0.564078 0.936891
v 0.874391 0.564078 0.811891
v 0.836118 0.532828 0.773618
v 0.773618 0.532828 0.836118
v 0.811891 0.564078 0.874391
v 0.789243 0.571102 0.789243
v 0.827516 0.602352 0.827516
v 0.757993 0.647648 0.757993
v 0.796266 0.678898 0.796266
v 0.820493 0.494555 0.179507
v 0.858766 0.525805 0.141234
v 0.851743 0.418009 0.148257
v 0.890016 0.449259 0.109984
v 0.711118 0.532828 0.101382
v 0.749391 0.564078 0.063109
v 0.898618 0.532828 0.288882
v 0.936891 0.564078 0.250609
v 0.811891 0.564078 0.125609
v 0.773618 0.532828 0.163882
v 0.836118 0.532828 0.226382
v 0.874391 0.564078 0.188109
v 0.789243 0.571102 0.210757
v 0.827516 0.602352 0.172484
v 0.757993 0.647648 0.242007
v 0.796266 0.678898 0.203734
v 0.179507 0.494555 0.179507
v 0.141234 0.525805 0.141234
v 0.148257 0.418008 0.148257
v 0.109984 0.449258 0.109984
v 0.101382 0.532828 0.288882
v 0.063109 0.564078 0.250609
v 0.288882 0.532828 0.101382
v 0.250609 0.564078 0.063109
v 0.125609 0.564078 0.188109
v 0.163882 0.532828 0.226382
v 0.226382 0.532828 0.163882
v 0.188109 0.564078 0.125609
v 0.210757 0.571102 0.210757
v 0.172484 0.602352 0.172484
v 0.242007 0.647648 0.242007
v 0.203734 0.678898 0.203734
vt 0.500000 0.875000
vt 0.562500 0.812500
vt 0.562500 1.000000
vt 0.500000 0.937500
vt 0.375000 1.000000
vt 0.437500 0.937500
vt 0.375000 0.812500
vt 0.437500 0.875000
vt 0.500000 0.875000
vt 0.562500 0.812500
vt 0.562500 1.000000
vt 0.500000 0.937500
vt 0.375000 1.000000
vt 0.437500 0.937500
vt 0.375000 0.812500
vt 0.437500 0.875000
vt 0.500000 0.875000
vt 0.562500 0.812500
vt 0.562500 1.000000
vt 0.500000 0.937500
vt 0.375000 1.000000
vt 0.437500 0.937500
vt 0.375000 0.812500
vt 0.437500 0.875000
vt 0.500000 0.875000
vt 0.562500 0.812500
vt 0.562500 1.000000
vt 0.500000 0.937500
vt 0.375000 1.000000
vt 0.437500 0.937500
vt 0.375000 0.812500
vt 0.437500 0.875000
vt 0.937500 0.437500
vt 0.937500 0.375000
vt 1.000000 0.375000
vt 1.000000 0.437500
vt 0.500000 0.500000
vt 0.500000 0.562500
vt 0.000000 0.562500
vt 0.000000 0.500000
vt 1.000000 0.937500
vt 0.937500 0.937500
vt 0.937500 0.437500
vt 0.562500 0.500000
vt 0.562500 0.562500
vt 0.187500 0.937500
vt 0.250000 1.000000
vt 0.312500 0.937500
vt 0.687500 0.375000
vt 0.625000 0.500000
vt 0.562500 0.500000
vt 0.500000 0.375000
vt 0.437500 0.687500
vt 0.437500 0.750000
vt 0.062500 0.750000
vt 0.062500 0.687500
vt 0.125000 0.812500
vt 0.375000 0.812500
vt 1.000000 1.000000
vt 0.625000 -0.000000
vt 0.687500 0.125000
vt 0.500000 0.125000
vt 0.562500 -0.000000
vt 0.187500 0.875000
vt 0.312500 0.875000
vt -0.000000 0.375000
vt 0.187500 0.875000
vt 0.312500 0.875000
vt 0.187500 0.937500
vt 0.187500 0.875000
vt 0.500000 0.000000
vt -0.000000 0.125000
vt -0.000000 0.000000
vt 0.500000 0.125000
vt -0.000000 0.125000
vt 0.687500 0.125000
vt 0.125000 0.812500
vt 0.375000 0.812500
vt 0.500000 0.000000
vt -0.000000 0.000000
vt 0.625000 -0.000000
vt 0.562500 -0.000000
vt 1.000000 0.937500
vt 1.000000 1.000000
vt 0.937500 0.937500
vt 0.687500 0.375000
vt 0.500000 0.375000
vt 0.062500 0.750000
vt 0.437500 0.750000
vt 0.437500 0.687500
vt 0.062500 0.687500
vt -0.000000 0.375000
vt 0.000000 0.625000
vt 0.500000 0.625000
vt 0.500000 0.500000
vt 0.000000 0.500000
vt 0.562500 0.562500
vt 0.500000 0.562500
vt 0.937500 0.437500
vt 1.000000 0.437500
vt 0.312500 0.875000
vt 0.312500 0.937500
vt 0.125000 0.812500
vt 0.375000 0.812500
vt 0.625000 0.500000
vt 0.562500 0.500000
vt 0.062500 0.750000
vt 0.437500 0.750000
vt 0.562500 0.500000
vt 0.562500 0.562500
vt 0.500000 0.562500
vt 0.000000 0.562500
vt 0.500000 0.500000
vt 0.000000 0.500000
vt 0.000000 0.562500
vt 0.562500 0.500000
vt 0.437500 0.687500
vt 0.062500 0.687500
vt 1.000000 0.937500
vt 0.937500 0.937500
vt 0.937500 0.437500
vt 1.000000 0.437500
vt 1.000000 1.000000
vt 0.687500 0.375000
vt 0.625000 0.500000
vt 0.562500 0.500000
vt 0.500000 0.375000
vt 0.500000 0.625000
vt 0.000000 0.625000
vt 0.625000 -0.000000
vt 0.687500 0.125000
vt 0.500000 0.125000
vt 0.562500 -0.000000
vt -0.000000 0.375000
vt 0.500000 0.125000
vt -0.000000 0.125000
vt 0.687500 0.125000
vt 0.500000 0.000000
vt -0.000000 0.000000
vt 0.500000 0.000000
vt -0.000000 0.125000
vt -0.000000 0.000000
vt 0.062500 0.687500
vt 0.437500 0.687500
vt 0.687500 0.375000
vt 0.500000 0.375000
vt 0.000000 0.625000
vt 0.500000 0.625000
vt 0.625000 -0.000000
vt 0.562500 -0.000000
vt 0.437500 0.750000
vt 0.062500 0.750000
vt -0.000000 0.375000
vt 0.500000 0.500000
vt 0.000000 0.500000
vt 0.625000 0.500000
vt 0.562500 0.500000
vt 0.125000 0.812500
vt 0.375000 0.812500
vt 0.562500 0.500000
vt 0.562500 0.562500
vt 0.500000 0.562500
vt 1.000000 0.937500
vt 1.000000 1.000000
vt 0.937500 0.937500
vt 0.000000 0.562500
vt 0.187500 0.875000
vt 0.312500 0.875000
vt 0.500000 0.625000
vt 0.000000 0.625000
vt 0.937500 0.437500
vt 1.000000 0.437500
vt 0.875000 0.937500
vt 0.875000 1.000000
vt 0.812500 1.000000
vt 0.812500 0.937500
vt 0.625000 0.937500
vt 0.687500 0.875000
vt 0.750000 0.875000
vt 0.812500 0.937500
vt 0.812500 0.687500
vt 0.875000 0.687500
vt 0.875000 0.750000
vt 0.812500 0.750000
vt 0.625000 0.750000
vt 0.625000 0.687500
vt 0.812500 0.687500
vt 0.812500 0.750000
vt 0.562500 0.500000
vt 0.625000 0.562500
vt 0.687500 0.562500
vt 0.750000 0.500000
vt 0.687500 0.812500
vt 0.750000 0.812500
vt 0.562500 0.687500
vt 0.625000 0.687500
vt 0.625000 0.750000
vt 0.562500 0.750000
vt 0.562500 0.750000
vt 0.562500 0.937500
vt 0.562500 0.687500
vt 0.625000 0.625000
vt 0.875000 0.750000
vt 0.875000 0.937500
vt 0.687500 0.625000
vt 0.750000 0.687500
vt 0.625000 1.000000
vt 0.812500 1.000000
vt 0.562500 1.000000
vt 0.562500 0.937500
vt 0.625000 0.937500
vt 0.625000 1.000000
vt 0.875000 0.937500
vt 0.875000 1.000000
vt 0.812500 1.000000
vt 0.812500 0.937500
vt 0.625000 0.937500
vt 0.687500 0.875000
vt 0.750000 0.875000
vt 0.812500 0.937500
vt 0.812500 0.687500
vt 0.875000 0.687500
vt 0.875000 0.750000
vt 0.812500 0.750000
vt 0.625000 0.750000
vt 0.625000 0.687500
vt 0.812500 0.687500
vt 0.812500 0.750000
vt 0.562500 0.500000
vt 0.625000 0.562500
vt 0.687500 0.562500
vt 0.750000 0.500000
vt 0.687500 0.812500
vt 0.750000 0.812500
vt 0.562500 0.687500
vt 0.625000 0.687500
vt 0.625000 0.750000
vt 0.562500 0.750000
vt 0.562500 0.750000
vt 0.562500 0.937500
vt 0.562500 0.687500
vt 0.625000 0.625000
vt 0.875000 0.750000
vt 0.875000 0.937500
vt 0.687500 0.625000
vt 0.750000 0.687500
vt 0.625000 1.000000
vt 0.812500 1.000000
vt 0.562500 1.000000
vt 0.562500 0.937500
vt 0.625000 0.937500
vt 0.625000 1.000000
vt 0.875000 0.937500
vt 0.875000 1.000000
vt 0.812500 1.000000
vt 0.812500 0.937500
vt 0.625000 0.937500
vt 0.687500 0.875000
vt 0.750000 0.875000
vt 0.812500 0.937500
vt 0.812500 0.687500
vt 0.875000 0.687500
vt 0.875000 0.750000
vt 0.812500 0.750000
vt 0.625000 0.750000
vt 0.625000 0.687500
vt 0.812500 0.687500
vt 0.812500 0.750000
vt 0.562500 0.500000
vt 0.625000 0.562500
vt 0.687500 0.562500
vt 0.750000 0.500000
vt 0.687500 0.812500
vt 0.750000 0.812500
vt 0.562500 0.687500
vt 0.625000 0.687500
vt 0.625000 0.750000
vt 0.562500 0.750000
vt 0.562500 0.750000
vt 0.562500 0.937500
vt 0.562500 0.687500
vt 0.625000 0.625000
vt 0.875000 0.750000
vt 0.875000 0.937500
vt 0.687500 0.625000
vt 0.750000 0.687500
vt 0.625000 1.000000
vt 0.812500 1.000000
vt 0.562500 1.000000
vt 0.562500 0.937500
vt 0.625000 0.937500
vt 0.625000 1.000000
vt 0.875000 0.937500
vt 0.875000 1.000000
vt 0.812500 1.000000
vt 0.812500 0.937500
vt 0.625000 0.937500
vt 0.687500 0.875000
vt 0.750000 0.875000
vt 0.812500 0.937500
vt 0.812500 0.687500
vt 0.875000 0.687500
vt 0.875000 0.750000
vt 0.812500 0.750000
vt 0.625000 0.750000
vt 0.625000 0.687500
vt 0.812500 0.687500
vt 0.812500 0.750000
vt 0.562500 0.500000
vt 0.625000 0.562500
vt 0.687500 0.562500
vt 0.750000 0.500000
vt 0.687500 0.812500
vt 0.750000 0.812500
vt 0.562500 0.687500
vt 0.625000 0.687500
vt 0.625000 0.750000
vt 0.562500 0.750000
vt 0.562500 0.750000
vt 0.562500 0.937500
vt 0.562500 0.687500
vt 0.625000 0.625000
vt 0.875000 0.750000
vt 0.875000 0.937500
vt 0.687500 0.625000
vt 0.750000 0.687500
vt 0.625000 1.000000
vt 0.812500 1.000000
vt 0.562500 1.000000
vt 0.562500 0.937500
vt 0.625000 0.937500
vt 0.625000 1.000000
vn 0.0000 -0.7071 0.7071
vn -0.7071 -0.7071 0.0000
vn 0.0000 -0.7071 -0.7071
vn 0.7071 -0.7071 -0.0000
vn 0.0000 -1.0000 0.0000
vn 0.0000 0.0000 1.0000
vn 0.7071 0.0000 0.7071
vn 0.7071 0.7071 0.0000
vn 0.5774 0.5774 0.5773
vn -1.0000 0.0000 0.0000
vn -0.7071 0.7071 0.0000
vn 0.5774 -0.5774 -0.5774
vn 0.0000 0.7071 0.7071
vn 1.0000 0.0000 -0.0000
vn 0.5774 -0.5774 0.5773
vn 0.7071 0.0000 -0.7071
vn -0.0000 0.7071 -0.7071
vn -0.0000 0.0000 -1.0000
vn -0.0000 1.0000 -0.0000
vn -0.5774 0.5774 -0.5773
vn 0.5774 0.5774 -0.5774
vn -0.7071 0.0000 -0.7071
vn -0.5774 0.5774 -0.5774
vn 0.5773 0.5774 -0.5774
vn -0.5773 -0.5774 0.5774
vn -0.7071 0.0000 0.7071
vn 0.5774 0.5774 0.5774
vn -0.5774 -0.5774 -0.5774
vn -0.5773 0.5774 0.5774
vn -0.7500 -0.6124 -0.2500
vn -0.6124 0.5000 0.6124
vn -0.2500 0.6124 -0.7500
vn 0.2500 -0.6124 0.7500
vn 0.6124 -0.5000 -0.6124
vn 0.7500 0.6124 0.2500
vn -0.2500 -0.6124 0.7500
vn 0.6124 0.5000 0.6124
vn -0.7500 0.6124 0.2500
vn 0.7500 -0.6124 -0.2500
vn -0.6124 -0.5000 -0.6124
vn 0.2500 0.6124 -0.7500
vn 0.7500 -0.6124 0.2500
vn 0.6124 0.5000 -0.6124
vn 0.2500 0.6124 0.7500
vn -0.2500 -0.6124 -0.7500
vn -0.6124 -0.5000 0.6124
vn -0.7500 0.6124 -0.2500
vn 0.2500 -0.6124 -0.7500
vn -0.6124 0.5000 -0.6124
vn 0.7500 0.6124 -0.2500
vn -0.7500 -0.6124 0.2500
vn 0.6124 -0.5000 0.6124
vn -0.2500 0.6124 0.7500
usemtl NOURISHING_CENSER
s off
f 1/1/1 2/2/1 4/3/1 3/4/1
f 3/4/2 4/3/2 79/5/2 7/6/2
f 7/6/3 79/5/3 6/7/3 5/8/3
f 5/8/4 6/7/4 2/2/4 1/1/4
f 3/4/5 7/6/5 5/8/5 1/1/5
f 8/9/4 9/10/4 11/11/4 10/12/4
f 10/12/1 11/11/1 78/13/1 14/14/1
f 14/14/2 78/13/2 13/15/2 12/16/2
f 12/16/3 13/15/3 9/10/3 8/9/3
f 10/12/5 14/14/5 12/16/5 8/9/5
f 15/17/3 16/18/3 18/19/3 17/20/3
f 17/20/4 18/19/4 29/21/4 21/22/4
f 21/22/1 29/21/1 20/23/1 19/24/1
f 19/24/2 20/23/2 16/18/2 15/17/2
f 17/20/5 21/22/5 19/24/5 15/17/5
f 22/25/2 23/26/2 25/27/2 24/28/2
f 24/28/3 25/27/3 60/29/3 28/30/3
f 28/30/4 60/29/4 27/31/4 26/32/4
f 26/32/1 27/31/1 23/26/1 22/25/1
f 24/28/5 28/30/5 26/32/5 22/25/5
f 78/33/5 79/34/5 60/35/5 29/36/5
f 93/37/6 90/38/6 91/39/6 66/40/6
f 60/41/5 33/42/5 32/43/5 29/36/5
f 92/44/7 89/45/7 90/38/7 93/37/7
f 61/46/8 62/47/8 31/48/8
f 94/49/9 92/50/9 93/51/9 95/52/9
f 86/53/10 82/54/10 36/55/10 63/56/10
f 41/57/11 36/55/11 82/54/11 83/58/11
f 60/41/5 34/59/5 33/42/5
f 34/60/12 56/61/12 38/62/12 33/63/12
f 30/64/8 41/57/8 83/58/8 80/65/8
f 95/52/13 93/37/13 66/40/13 69/66/13
f 80/67/14 61/46/14 31/48/14 30/68/14
f 30/68/6 31/48/6 54/69/6 35/70/6
f 33/71/4 38/62/4 37/72/4 32/73/4
f 96/74/6 95/52/6 69/66/6 72/75/6
f 37/76/7 94/49/7 95/52/7 96/74/7
f 35/70/13 39/77/13 41/78/13 30/68/13
f 97/79/1 96/74/1 72/75/1 75/80/1
f 32/81/15 37/76/15 96/74/15 97/82/15
f 29/83/5 32/84/5 97/85/5
f 56/61/16 51/86/16 40/87/16 38/62/16
f 39/77/17 58/88/17 36/89/17 41/78/17
f 63/90/18 36/89/18 58/88/18 53/91/18
f 38/62/14 40/87/14 94/92/14 37/72/14
f 31/48/13 62/47/13 54/69/13
f 53/91/19 43/93/19 64/94/19 63/90/19
f 40/87/8 42/95/8 92/96/8 94/92/8
f 44/97/20 64/94/20 45/98/20
f 29/83/5 97/85/5 75/99/5 78/100/5
f 81/101/18 85/102/18 61/46/18 80/67/18
f 80/67/17 83/103/17 84/104/17 81/101/17
f 51/86/21 49/105/21 42/106/21 40/87/21
f 83/103/13 82/107/13 57/108/13 84/104/13
f 49/109/16 47/110/16 46/111/16 42/95/16
f 45/98/17 64/94/17 43/93/17 47/112/17
f 48/113/18 45/98/18 47/112/18 49/114/18
f 42/95/14 46/111/14 89/115/14 92/96/14
f 68/116/22 44/97/22 45/98/22 48/113/22
f 52/117/6 57/108/6 82/107/6 86/118/6
f 85/102/17 62/47/17 61/46/17
f 78/119/5 76/120/5 77/121/5 79/122/5
f 78/119/5 75/123/5 76/120/5
f 71/124/23 68/125/23 48/126/23 50/127/23
f 46/111/8 43/128/8 87/129/8 89/115/8
f 47/110/24 43/128/24 46/111/24
f 75/130/25 72/131/25 73/132/25 76/133/25
f 50/127/17 48/113/17 49/114/17 51/134/17
f 55/135/18 50/127/18 51/134/18 56/136/18
f 74/137/22 71/124/22 50/127/22 55/135/22
f 59/138/3 55/135/3 56/136/3 34/139/3
f 76/140/2 73/132/2 74/141/2 77/142/2
f 52/143/19 87/129/19 43/128/19 53/144/19
f 72/131/26 69/145/26 70/146/26 73/132/26
f 86/118/19 88/147/19 87/148/19 52/117/19
f 89/45/27 87/148/27 90/38/27
f 54/69/11 62/47/11 85/102/11
f 90/38/13 87/148/13 88/147/13 91/39/13
f 77/149/28 74/137/28 55/135/28 59/150/28
f 53/144/14 58/151/14 57/152/14 52/143/14
f 73/132/10 70/146/10 71/153/10 74/141/10
f 70/146/11 67/154/11 68/155/11 71/153/11
f 69/145/29 66/156/29 67/157/29 70/146/29
f 84/158/8 57/152/8 58/151/8 39/159/8
f 66/160/26 91/161/26 65/162/26 67/154/26
f 79/163/5 77/164/5 59/165/5
f 67/154/10 65/162/10 44/166/10 68/155/10
f 81/167/11 84/158/11 39/159/11 35/168/11
f 65/162/11 88/169/11 64/170/11 44/166/11
f 91/161/29 88/169/29 65/162/29
f 63/56/19 64/170/19 88/169/19 86/53/19
f 79/163/5 59/165/5 34/171/5 60/172/5
f 35/70/10 54/69/10 85/102/10 81/101/10
f 107/173/30 106/174/30 111/175/30 110/176/30
f 105/177/31 109/178/31 111/179/31 113/180/31
f 98/181/32 99/182/32 106/183/32 107/184/32
f 101/185/33 100/186/33 102/187/33 103/188/33
f 100/189/34 98/190/34 107/191/34 102/192/34
f 99/193/31 101/185/31 103/188/31 106/194/31
f 99/195/35 98/196/35 108/197/35 109/198/35
f 100/199/30 101/185/30 105/177/30 104/200/30
f 101/185/31 99/193/31 109/178/31 105/177/31
f 98/190/34 100/189/34 104/201/34 108/202/34
f 103/188/35 102/203/35 112/204/35 113/180/35
f 102/192/34 107/191/34 110/205/34 112/206/34
f 106/194/31 103/188/31 113/180/31 111/179/31
f 108/202/34 104/201/34 112/206/34 110/205/34
f 104/207/32 105/177/32 113/180/32 112/208/32
f 109/209/33 108/210/33 110/211/33 111/212/33
f 123/213/36 122/214/36 127/215/36 126/216/36
f 121/217/37 125/218/37 127/219/37 129/220/37
f 114/221/38 115/222/38 122/223/38 123/224/38
f 117/225/39 116/226/39 118/227/39 119/228/39
f 116/229/40 114/230/40 123/231/40 118/232/40
f 115/233/37 117/225/37 119/228/37 122/234/37
f 115/235/41 114/236/41 124/237/41 125/238/41
f 116/239/36 117/225/36 121/217/36 120/240/36
f 117/225/37 115/233/37 125/218/37 121/217/37
f 114/230/40 116/229/40 120/241/40 124/242/40
f 119/228/41 118/243/41 128/244/41 129/220/41
f 118/232/40 123/231/40 126/245/40 128/246/40
f 122/234/37 119/228/37 129/220/37 127/219/37
f 124/242/40 120/241/40 128/246/40 126/245/40
f 120/247/38 121/217/38 129/220/38 128/248/38
f 125/249/39 124/250/39 126/251/39 127/252/39
f 139/253/42 138/254/42 143/255/42 142/256/42
f 137/257/43 141/258/43 143/259/43 145/260/43
f 130/261/44 131/262/44 138/263/44 139/264/44
f 133/265/45 132/266/45 134/267/45 135/268/45
f 132/269/46 130/270/46 139/271/46 134/272/46
f 131/273/43 133/265/43 135/268/43 138/274/43
f 131/275/47 130/276/47 140/277/47 141/278/47
f 132/279/42 133/265/42 137/257/42 136/280/42
f 133/265/43 131/273/43 141/258/43 137/257/43
f 130/270/46 132/269/46 136/281/46 140/282/46
f 135/268/47 134/283/47 144/284/47 145/260/47
f 134/272/46 139/271/46 142/285/46 144/286/46
f 138/274/43 135/268/43 145/260/43 143/259/43
f 140/282/46 136/281/46 144/286/46 142/285/46
f 136/287/44 137/257/44 145/260/44 144/288/44
f 141/289/45 140/290/45 142/291/45 143/292/45
f 155/293/48 154/294/48 159/295/48 158/296/48
f 153/297/49 157/298/49 159/299/49 161/300/49
f 146/301/50 147/302/50 154/303/50 155/304/50
f 149/305/51 148/306/51 150/307/51 151/308/51
f 148/309/52 146/310/52 155/311/52 150/312/52
f 147/313/49 149/305/49 151/308/49 154/314/49
f 147/315/53 146/316/53 156/317/53 157/318/53
f 148/319/48 149/305/48 153/297/48 152/320/48
f 149/305/49 147/313/49 157/298/49 153/297/49
f 146/310/52 148/309/52 152/321/52 156/322/52
f 151/308/53 150/323/53 160/324/53 161/300/53
f 150/312/52 155/311/52 158/325/52 160/326/52
f 154/314/49 151/308/49 161/300/49 159/299/49
f 156/322/52 152/321/52 160/326/52 158/325/52
f 152/327/50 153/297/50 161/300/50 160/328/50
f 157/329/51 156/330/51 158/331/51 159/332/51
