# Blender v2.80 (sub 75) OBJ File: 'chem devices.blend'
# www.blender.org
mtllib prime_aggregator.mtl
o PRIME_AGGREGATOR_Plane.022
v 1.125000 0.750000 0.860844
v 0.500000 0.937500 1.221688
v 1.125000 0.937500 0.860844
v 0.500000 1.000000 1.293857
v 1.187500 1.000000 0.896928
v 0.500001 1.000000 1.438194
v 1.312500 1.000000 0.969097
v 0.500001 0.937500 1.510363
v 1.375000 0.937500 1.005181
v 0.535738 1.000000 1.561899
v 1.401763 1.000000 1.061899
v 0.598238 1.000000 1.670152
v 1.464263 1.000000 1.170151
v 0.629488 0.937500 1.724279
v 1.495513 0.937500 1.224278
v 0.629488 0.500000 1.724279
v 1.495513 0.500000 1.224278
v -0.125000 0.750000 0.860844
v -0.125000 0.937500 0.860844
v -0.125000 0.937500 0.139156
v -0.187500 1.000000 0.896929
v -0.187500 1.000000 0.103072
v 0.464263 1.000000 1.561899
v -0.312500 1.000000 0.969097
v 0.401764 1.000000 1.670152
v -0.312500 1.000000 0.030903
v 0.370514 0.937500 1.724279
v -0.375000 0.937500 1.005182
v 0.370514 0.500000 1.724279
v -0.375000 0.937500 -0.005181
v -0.437500 1.000000 1.000001
v -0.437500 1.000000 0.000000
v -0.562500 1.000000 1.000000
v -0.562500 1.000000 0.000001
v -0.625000 0.937500 1.000000
v -0.625000 0.937500 0.000000
v -0.625000 0.500000 1.000000
v -0.625000 0.500000 0.000000
v -0.401763 1.000000 1.061899
v -0.464263 1.000000 1.170152
v -0.495513 0.937500 1.224279
v -0.495513 0.500000 1.224279
v 0.500000 0.750000 -0.221688
v 0.500000 0.937500 -0.221688
v 0.499999 1.000000 -0.293857
v 0.499999 1.000000 -0.438194
v 0.499999 0.937500 -0.510363
v 0.464262 1.000000 -0.561899
v -0.401763 1.000000 -0.061898
v 0.401762 1.000000 -0.670152
v -0.464263 1.000000 -0.170151
v 0.370512 0.937500 -0.724279
v -0.495513 0.937500 -0.224279
v 0.370512 0.500000 -0.724279
v -0.495513 0.500000 -0.224279
v -0.558013 0.500000 -0.332531
v 0.308012 0.500000 -0.832532
v 1.125000 0.937500 0.139156
v 0.500000 0.750000 1.221688
v 1.187500 1.000000 0.103071
v 0.500000 0.500000 0.933013
v 0.535737 1.000000 -0.561899
v 1.312500 1.000000 0.030902
v 0.598236 1.000000 -0.670152
v 0.875000 0.500000 0.716506
v 0.629486 0.937500 -0.724279
v 1.375000 0.937500 -0.005182
v 0.629486 0.500000 -0.724279
v 0.500000 0.500000 0.066987
v 1.437500 1.000000 -0.000000
v 1.437500 1.000000 0.999999
v 1.562500 1.000000 -0.000001
v 1.562501 1.000000 0.999999
v 1.625000 0.937500 -0.000001
v 1.625000 0.937500 1.000000
v 1.625000 0.500000 -0.000001
v 1.625000 0.500000 1.000000
v 1.401762 1.000000 -0.061900
v 1.464263 1.000000 -0.170152
v 1.495513 0.937500 -0.224279
v 1.495513 0.500000 -0.224279
v 0.125000 0.500000 0.283494
v 0.875000 0.500000 0.283494
v 1.558013 0.500000 -0.332532
v 0.125000 0.500000 0.716507
v -0.125000 0.750000 0.139156
v 1.558013 0.500000 1.332531
v 0.691988 0.500000 1.832532
v 1.125000 0.750000 0.139156
v 0.691986 0.500000 -0.832532
v -0.558013 0.500000 1.332532
v 0.308014 0.500000 1.832532
v 1.750000 0.500000 0.999999
v 1.750000 0.500000 -0.000001
v -0.750001 0.500000 0.000001
v -0.750000 0.500000 1.000001
v -0.589263 0.437500 -0.386658
v 0.276762 0.437500 -0.886659
v 1.589263 0.437500 -0.386659
v 1.589263 0.437500 1.386658
v 0.723238 0.437500 1.886658
v 0.723236 0.437500 -0.886659
v -0.589263 0.437500 1.386659
v 0.276764 0.437500 1.886659
v 1.812500 0.437500 0.999999
v 1.812500 0.437500 -0.000001
v -0.812500 0.437500 0.000001
v -0.812500 0.437500 1.000000
v -0.589263 0.187500 -0.386658
v 0.276762 0.187500 -0.886659
v 1.589263 0.187500 -0.386659
v 1.589263 0.187500 1.386658
v 0.723238 0.187500 1.886658
v 0.723236 0.187500 -0.886659
v -0.589263 0.187500 1.386659
v 0.276764 0.187500 1.886659
v 1.812500 0.187500 0.999999
v 1.812500 0.187500 -0.000001
v -0.812500 0.187500 0.000001
v -0.812500 0.187500 1.000000
v -0.620513 0.125000 -0.440785
v 0.245512 0.125000 -0.940785
v 1.620513 0.125000 -0.440786
v 1.620513 0.125000 1.440785
v 0.754488 0.125000 1.940785
v 0.754486 0.125000 -0.940785
v -0.620513 0.125000 1.440785
v 0.245514 0.125000 1.940785
v 1.875000 0.125000 0.999999
v 1.875000 0.125000 -0.000001
v -0.875000 0.125000 0.000001
v -0.875000 0.125000 1.000001
v -0.620513 0.000000 -0.440785
v 0.245512 0.000000 -0.940785
v 1.620513 -0.000000 -0.440786
v 1.620513 0.000000 1.440785
v 0.754488 0.000000 1.940785
v 0.754486 -0.000000 -0.940785
v -0.620513 -0.000000 1.440785
v 0.245514 -0.000000 1.940785
v 1.875000 0.000000 0.999999
v 1.875000 0.000000 -0.000001
v -0.875000 0.000000 0.000001
v -0.875000 0.000000 1.000001
v -0.625000 0.750000 0.812501
v -0.625000 0.750000 0.187500
v 1.625000 0.750000 0.187499
v 1.625000 0.750000 0.812500
v 1.750000 0.750000 0.812499
v 1.750000 0.750000 0.187499
v -0.750001 0.750000 0.187501
v -0.750000 0.750000 0.812501
v -0.625000 0.500000 0.812501
v -0.625000 0.500000 0.187500
v 1.625000 0.500000 0.187499
v 1.625000 0.500000 0.812500
v 1.750000 0.500000 0.812499
v 1.750000 0.500000 0.187499
v -0.750001 0.500000 0.187501
v -0.750000 0.500000 0.812501
v -0.000000 0.500000 1.000000
v 1.000000 0.500000 1.000000
v -0.000000 0.500000 0.000000
v 1.000000 0.500000 0.000000
v 0.500000 0.000000 0.000000
v 0.500000 0.000000 0.999999
v 1.755000 0.000000 0.000000
v 1.755000 0.000000 0.999999
v -0.750000 0.000000 0.000000
v -0.750000 0.000000 0.999999
v 2.000000 0.250000 0.750000
v 2.000000 0.750000 0.750000
v 1.750000 0.250000 0.750000
v 1.750000 0.750000 0.750000
v 2.000000 0.250000 0.250000
v 2.000000 0.750000 0.250000
v 1.750000 0.250000 0.250000
v 1.750000 0.750000 0.250000
v 1.750000 0.250000 1.000000
v 2.000000 0.250000 1.000000
v 2.000000 0.750000 1.000000
v 1.750000 0.750000 1.000000
v 2.000000 1.000000 0.750000
v 1.750000 1.000000 0.750000
v 1.750000 1.000000 0.250000
v 2.000000 1.000000 0.250000
v 1.750000 0.000000 0.750000
v 2.000000 0.000000 0.750000
v 1.750000 0.750000 -0.000000
v 2.000000 0.000000 0.250000
v 1.750000 0.250000 -0.000000
v 2.000000 0.250000 -0.000000
v 2.000000 0.750000 -0.000000
v 1.750000 0.000000 0.250000
v 1.750000 0.000000 1.000000
v 2.000000 0.000000 1.000000
v 2.000000 0.000000 -0.000000
v 1.750000 0.000000 -0.000000
v 1.812500 0.312500 0.687500
v 1.812500 0.687500 0.687500
v 1.812500 0.687500 0.312500
v 1.812500 0.312500 0.312500
v 1.875000 0.250000 0.750000
v 1.875000 0.750000 0.750000
v 1.875000 0.750000 0.250000
v 1.875000 0.250000 0.250000
v -1.000000 0.250000 0.250000
v -1.000000 0.750000 0.250000
v -0.750000 0.250000 0.250000
v -0.750000 0.750000 0.250000
v -1.000000 0.250000 0.750000
v -1.000000 0.750000 0.750000
v -0.750000 0.250000 0.750000
v -0.750000 0.750000 0.750000
v -0.750000 0.250000 0.000000
v -1.000000 0.250000 0.000000
v -1.000000 0.750000 0.000000
v -0.750000 0.750000 0.000000
v -1.000000 1.000000 0.250000
v -0.750000 1.000000 0.250000
v -0.750000 1.000000 0.750000
v -1.000000 1.000000 0.750000
v -0.750000 0.000000 0.250000
v -1.000000 0.000000 0.250000
v -0.750000 0.750000 1.000000
v -1.000000 0.000000 0.750000
v -0.750000 0.250000 1.000000
v -1.000000 0.250000 1.000000
v -1.000000 0.750000 1.000000
v -0.750000 0.000000 0.750000
v -0.750000 0.000000 0.000000
v -1.000000 0.000000 0.000000
v -1.000000 0.000000 1.000000
v -0.750000 0.000000 1.000000
v -0.812500 0.312500 0.312500
v -0.812500 0.687500 0.312500
v -0.812500 0.687500 0.687500
v -0.812500 0.312500 0.687500
v -0.875000 0.250000 0.250000
v -0.875000 0.750000 0.250000
v -0.875000 0.750000 0.750000
v -0.875000 0.250000 0.750000
v 0.367417 0.937500 -0.506011
v 0.411611 1.125000 -0.506011
v 0.499999 0.937500 -0.638594
v 0.499999 1.125000 -0.594400
v 0.499999 0.937500 -0.373429
v 0.499999 1.125000 -0.417623
v 0.632582 0.937500 -0.506011
v 0.588387 1.125000 -0.506011
v 0.455805 1.437500 -0.506011
v 0.499999 1.437500 -0.550206
v 0.544193 1.437500 -0.506011
v 0.499999 1.437500 -0.461817
v 0.411611 1.500000 -0.506011
v 0.499999 1.500000 -0.594400
v 0.588387 1.500000 -0.506011
v 0.499999 1.500000 -0.417623
v 0.455805 1.125000 -0.506011
v 0.499999 1.125000 -0.550206
v 0.544193 1.125000 -0.506011
v 0.499999 1.125000 -0.461817
v 0.367417 1.062500 -0.506011
v 0.499999 1.062500 -0.638594
v 0.632582 1.062500 -0.506011
v 0.499999 1.062500 -0.373429
v 1.304940 0.937500 -0.117826
v 1.327037 1.125000 -0.079553
v 1.486051 0.937500 -0.069298
v 1.447778 1.125000 -0.047201
v 1.256411 0.937500 0.063285
v 1.294685 1.125000 0.041188
v 1.437522 0.937500 0.111814
v 1.415425 1.125000 0.073540
v 1.349134 1.375000 -0.041280
v 1.409504 1.375000 -0.025103
v 1.393328 1.375000 0.035267
v 1.332958 1.375000 0.019091
v 1.327037 1.437500 -0.079553
v 1.447778 1.437500 -0.047201
v 1.415425 1.437500 0.073540
v 1.294685 1.437500 0.041188
v 1.349134 1.125000 -0.041280
v 1.409504 1.125000 -0.025103
v 1.393328 1.125000 0.035267
v 1.332958 1.125000 0.019091
v 1.304940 1.062500 -0.117826
v 1.486051 1.062500 -0.069298
v 1.437522 1.062500 0.111814
v 1.256411 1.062500 0.063285
v -0.437523 0.937500 0.111815
v -0.415426 1.125000 0.073542
v -0.486052 0.937500 -0.069296
v -0.447778 1.125000 -0.047199
v -0.256412 0.937500 0.063286
v -0.294685 1.125000 0.041189
v -0.304941 0.937500 -0.117825
v -0.327038 1.125000 -0.079551
v -0.393329 1.375000 0.035268
v -0.409505 1.375000 -0.025102
v -0.349135 1.375000 -0.041278
v -0.332958 1.375000 0.019092
v -0.415426 1.437500 0.073542
v -0.447778 1.437500 -0.047199
v -0.327038 1.437500 -0.079551
v -0.294685 1.437500 0.041189
v -0.393329 1.125000 0.035268
v -0.409505 1.125000 -0.025102
v -0.349135 1.125000 -0.041278
v -0.332958 1.125000 0.019092
v -0.437523 1.062500 0.111815
v -0.486052 1.062500 -0.069296
v -0.304941 1.062500 -0.117825
v -0.256412 1.062500 0.063286
v 1.437523 0.937500 0.888185
v 1.415426 1.125000 0.926458
v 1.486051 0.937500 1.069296
v 1.447778 1.125000 1.047199
v 1.256412 0.937500 0.936714
v 1.294685 1.125000 0.958811
v 1.304940 0.937500 1.117825
v 1.327038 1.125000 1.079552
v 1.393329 1.312500 0.964732
v 1.409505 1.312500 1.025102
v 1.349135 1.312500 1.041278
v 1.332958 1.312500 0.980908
v 1.415426 1.375000 0.926458
v 1.447778 1.375000 1.047199
v 1.327038 1.375000 1.079552
v 1.294685 1.375000 0.958811
v 1.393329 1.125000 0.964732
v 1.409505 1.125000 1.025102
v 1.349135 1.125000 1.041278
v 1.332958 1.125000 0.980908
v 1.437523 1.062500 0.888185
v 1.486051 1.062500 1.069296
v 1.304940 1.062500 1.117825
v 1.256412 1.062500 0.936714
v -0.304940 0.937500 1.117826
v -0.327037 1.125000 1.079553
v -0.486051 0.937500 1.069298
v -0.447778 1.125000 1.047201
v -0.256411 0.937500 0.936715
v -0.294685 1.125000 0.958812
v -0.437522 0.937500 0.888187
v -0.415425 1.125000 0.926460
v -0.349134 1.312500 1.041280
v -0.409504 1.312500 1.025103
v -0.393328 1.312500 0.964733
v -0.332958 1.312500 0.980909
v -0.327037 1.375000 1.079553
v -0.447778 1.375000 1.047201
v -0.415425 1.375000 0.926460
v -0.294685 1.375000 0.958812
v -0.349134 1.125000 1.041280
v -0.409504 1.125000 1.025103
v -0.393328 1.125000 0.964733
v -0.332958 1.125000 0.980909
v -0.304940 1.062500 1.117826
v -0.486051 1.062500 1.069298
v -0.437522 1.062500 0.888187
v -0.256411 1.062500 0.936715
v 0.632583 0.937500 1.506011
v 0.588389 1.125000 1.506011
v 0.500000 0.937500 1.638594
v 0.500000 1.125000 1.594400
v 0.500000 0.937500 1.373429
v 0.500000 1.125000 1.417623
v 0.367418 0.937500 1.506012
v 0.411612 1.125000 1.506011
v 0.544195 1.250000 1.506011
v 0.500001 1.250000 1.550206
v 0.455806 1.250000 1.506011
v 0.500001 1.250000 1.461817
v 0.588389 1.312500 1.506011
v 0.500000 1.312500 1.594400
v 0.411612 1.312500 1.506011
v 0.500000 1.312500 1.417623
v 0.544195 1.125000 1.506011
v 0.500001 1.125000 1.550206
v 0.455806 1.125000 1.506011
v 0.500001 1.125000 1.461817
v 0.632583 1.062500 1.506011
v 0.500000 1.062500 1.638594
v 0.367418 1.062500 1.506012
v 0.500000 1.062500 1.373429
v 0.455805 1.875000 -0.506011
v 0.499999 1.875000 -0.550206
v 0.544193 1.875000 -0.506011
v 0.499999 1.875000 -0.461817
v 0.499999 2.000000 -0.506011
v 0.455805 1.500000 -0.506011
v 0.499999 1.500000 -0.550206
v 0.544193 1.500000 -0.506011
v 0.499999 1.500000 -0.461817
v 1.349134 1.750000 -0.041280
v 1.409504 1.750000 -0.025103
v 1.393328 1.750000 0.035267
v 1.332958 1.750000 0.019091
v 1.371231 1.875000 -0.003006
v 1.349134 1.437500 -0.041280
v 1.409504 1.437500 -0.025103
v 1.393328 1.437500 0.035267
v 1.332958 1.437500 0.019091
v -0.393329 1.750000 0.035268
v -0.409505 1.750000 -0.025102
v -0.349135 1.750000 -0.041278
v -0.332958 1.750000 0.019092
v -0.371232 1.875000 -0.003005
v -0.393329 1.437500 0.035268
v -0.409505 1.437500 -0.025102
v -0.349135 1.437500 -0.041278
v -0.332958 1.437500 0.019092
v 1.393329 1.625000 0.964732
v 1.409505 1.625000 1.025102
v 1.349135 1.625000 1.041278
v 1.332958 1.625000 0.980908
v 1.371232 1.750000 1.003005
v 1.393329 1.375000 0.964732
v 1.409505 1.375000 1.025102
v 1.349135 1.375000 1.041278
v 1.332958 1.375000 0.980908
v -0.349134 1.625000 1.041280
v -0.409504 1.625000 1.025103
v -0.393328 1.625000 0.964733
v -0.332958 1.625000 0.980909
v -0.371231 1.750000 1.003006
v -0.349134 1.375000 1.041280
v -0.409504 1.375000 1.025103
v -0.393328 1.375000 0.964733
v -0.332958 1.375000 0.980909
v 0.544195 1.500000 1.506011
v 0.500001 1.500000 1.550206
v 0.455806 1.500000 1.506011
v 0.500001 1.500000 1.461817
v 0.500001 1.625000 1.506011
v 0.544195 1.312500 1.506011
v 0.500001 1.312500 1.550206
v 0.455806 1.312500 1.506011
v 0.500001 1.312500 1.461817
vt 0.399139 0.906250
vt 0.399139 1.000000
vt 0.038361 1.000000
vt 0.038361 0.906250
vt 0.100861 0.781250
vt 0.082783 0.750000
vt 0.479717 0.750000
vt 0.461639 0.781250
vt 0.046592 0.687500
vt 0.028782 0.656250
vt 0.533718 0.656250
vt 0.515908 0.687500
vt 0.031250 0.625000
vt 0.531250 0.625000
vt 0.031250 0.562500
vt 0.531250 0.562500
vt 0.031250 0.531250
vt 0.531250 0.531250
vt 0.031250 0.312500
vt 0.531250 0.312500
vt 1.000000 0.531250
vt 0.875000 0.531250
vt 0.875000 0.312500
vt 1.000000 0.312500
vt 0.937500 0.656250
vt 0.920134 0.625000
vt 0.954866 0.625000
vt 0.889959 0.562500
vt 0.985041 0.562500
vt 0.531250 0.562500
vt 0.031250 0.562500
vt 0.031250 0.531250
vt 0.531250 0.531250
vt 0.038361 0.906250
vt 0.399139 0.906250
vt 0.399139 1.000000
vt 0.038361 1.000000
vt 0.031250 0.562500
vt 0.031250 0.531250
vt 0.531250 0.531250
vt 0.531250 0.562500
vt 0.953125 0.312500
vt 0.828125 0.312500
vt 0.796522 0.250000
vt 0.984728 0.250000
vt 0.533718 0.656250
vt 0.028782 0.656250
vt 0.031250 0.625000
vt 0.531250 0.625000
vt 0.031250 0.625000
vt 0.531250 0.625000
vt 0.399139 0.906250
vt 0.399139 1.000000
vt 0.038361 1.000000
vt 0.038361 0.906250
vt 0.828125 0.312500
vt 0.796522 0.250000
vt 0.984728 0.250000
vt 0.953125 0.312500
vt 0.828125 0.312500
vt 0.796522 0.250000
vt 0.984728 0.250000
vt 0.953125 0.312500
vt 0.531250 0.312500
vt 0.437500 0.312500
vt 0.437500 0.250000
vt 0.531250 0.250000
vt 0.461639 0.781250
vt 0.100861 0.781250
vt 0.082783 0.750000
vt 0.479717 0.750000
vt 0.515908 0.687500
vt 0.046592 0.687500
vt 0.796522 0.250000
vt 0.984728 0.250000
vt 0.953125 0.312500
vt 0.828125 0.312500
vt 0.031250 0.250000
vt 0.531250 0.250000
vt 0.028782 0.656250
vt 0.533718 0.656250
vt 0.031250 0.312500
vt 0.531250 0.312500
vt 0.100861 0.781250
vt 0.082783 0.750000
vt 0.479717 0.750000
vt 0.461639 0.781250
vt 0.828125 0.312500
vt 0.796522 0.250000
vt 0.984728 0.250000
vt 0.953125 0.312500
vt 0.985041 0.562500
vt 0.889959 0.562500
vt 0.875000 0.531250
vt 1.000000 0.531250
vt 0.954866 0.625000
vt 0.920134 0.625000
vt 0.937500 0.656250
vt 0.920134 0.625000
vt 0.954866 0.625000
vt 0.889959 0.562500
vt 0.875000 0.531250
vt 1.000000 0.531250
vt 0.985041 0.562500
vt 0.937500 0.656250
vt 0.875000 0.312500
vt 1.000000 0.312500
vt 0.110516 0.781250
vt 0.326984 0.781250
vt 0.046592 0.687500
vt 0.515908 0.687500
vt 0.937500 0.656250
vt 0.920134 0.625000
vt 0.954866 0.625000
vt 1.000000 0.312500
vt 1.000000 0.531250
vt 0.875000 0.531250
vt 0.875000 0.312500
vt 0.953125 0.312500
vt 0.828125 0.312500
vt 0.796522 0.250000
vt 0.984728 0.250000
vt 0.399139 0.906250
vt 0.399139 1.000000
vt 0.038361 1.000000
vt 0.038361 0.906250
vt 0.028782 0.656250
vt 0.031250 0.625000
vt 0.531250 0.625000
vt 0.533718 0.656250
vt 0.046592 0.687500
vt 0.515908 0.687500
vt 0.031250 0.531250
vt 0.031250 0.312500
vt 0.531250 0.312500
vt 0.531250 0.531250
vt 0.100861 0.781250
vt 0.082783 0.750000
vt 0.479717 0.750000
vt 0.461639 0.781250
vt 0.031250 0.562500
vt 0.531250 0.562500
vt 0.562500 0.187500
vt 0.656250 0.281250
vt 0.656250 0.593750
vt 0.562500 0.687500
vt 0.531250 0.562500
vt 0.031250 0.562500
vt 0.031250 0.531250
vt 0.531250 0.531250
vt 0.531250 0.625000
vt 0.031250 0.625000
vt 0.038361 0.906250
vt 0.399139 0.906250
vt 0.399139 1.000000
vt 0.038361 1.000000
vt 0.461639 0.781250
vt 0.100861 0.781250
vt 0.082783 0.750000
vt 0.479717 0.750000
vt 0.515908 0.687500
vt 0.046592 0.687500
vt 0.028782 0.656250
vt 0.533718 0.656250
vt 0.875000 0.531250
vt 0.875000 0.312500
vt 1.000000 0.312500
vt 1.000000 0.531250
vt 0.937500 0.656250
vt 0.920134 0.625000
vt 0.954866 0.625000
vt 0.889959 0.562500
vt 0.985041 0.562500
vt 0.031250 0.531250
vt 0.531250 0.531250
vt 0.531250 0.562500
vt 0.031250 0.562500
vt 0.937500 0.656250
vt 0.920134 0.625000
vt 0.954866 0.625000
vt 0.889959 0.562500
vt 0.985041 0.562500
vt 0.875000 0.531250
vt 1.000000 0.531250
vt 0.875000 0.312500
vt 1.000000 0.312500
vt 0.031250 0.250000
vt 0.531250 0.250000
vt 0.985041 0.562500
vt 0.889959 0.562500
vt 0.875000 0.312500
vt 1.000000 0.312500
vt 0.031250 0.250000
vt 0.531250 0.250000
vt 0.781250 0.593750
vt 0.781250 0.687500
vt 0.531250 0.312500
vt 0.031250 0.312500
vt 0.031250 0.250000
vt 0.531250 0.250000
vt 0.531250 0.625000
vt 0.031250 0.625000
vt 0.399139 1.000000
vt 0.038361 1.000000
vt 0.038361 0.906250
vt 0.399139 0.906250
vt 0.082783 0.750000
vt 0.479717 0.750000
vt 0.461639 0.781250
vt 0.100861 0.781250
vt 0.028782 0.656250
vt 0.533718 0.656250
vt 0.515908 0.687500
vt 0.046592 0.687500
vt 0.110516 0.781250
vt 0.326984 0.781250
vt 0.110516 0.781250
vt 0.326984 0.781250
vt 0.110516 0.781250
vt 0.326984 0.781250
vt 0.110516 0.781250
vt 0.326984 0.781250
vt 0.110516 0.781250
vt 0.326984 0.781250
vt 0.125000 0.250000
vt 0.125000 0.312500
vt 0.031250 0.312500
vt 0.031250 0.250000
vt 0.031250 0.218750
vt 0.531250 0.218750
vt 0.781250 0.218750
vt 1.000000 0.218750
vt 0.031250 0.218750
vt 0.531250 0.218750
vt 0.781250 0.218750
vt 1.000000 0.218750
vt 0.031250 0.218750
vt 0.531250 0.218750
vt 0.781250 0.218750
vt 1.000000 0.218750
vt 0.781250 0.218750
vt 1.000000 0.218750
vt 0.781250 0.218750
vt 1.000000 0.218750
vt 0.031250 0.218750
vt 0.531250 0.218750
vt 0.781250 0.218750
vt 1.000000 0.218750
vt 0.031250 0.093750
vt 0.531250 0.093750
vt 0.781250 0.093750
vt 1.000000 0.093750
vt 0.781250 0.093750
vt 1.000000 0.093750
vt 0.031250 0.093750
vt 0.531250 0.093750
vt 0.781250 0.093750
vt 1.000000 0.093750
vt 0.781250 0.093750
vt 1.000000 0.093750
vt 0.031250 0.093750
vt 0.531250 0.093750
vt 0.031250 0.093750
vt 0.531250 0.093750
vt 0.781250 0.093750
vt 1.000000 0.093750
vt 0.781250 0.093750
vt 1.000000 0.093750
vt 0.031250 0.062500
vt 0.531250 0.062500
vt 0.031250 0.062500
vt 0.531250 0.062500
vt 0.984422 0.093750
vt 0.765578 0.093750
vt 0.750000 0.062500
vt 1.000000 0.062500
vt 0.984422 0.093750
vt 0.765578 0.093750
vt 0.750000 0.062500
vt 1.000000 0.062500
vt 0.031250 0.062500
vt 0.531250 0.062500
vt 0.984422 0.093750
vt 0.765578 0.093750
vt 0.750000 0.062500
vt 1.000000 0.062500
vt 0.984422 0.093750
vt 0.765578 0.093750
vt 0.750000 0.062500
vt 1.000000 0.062500
vt 0.031250 0.062500
vt 0.531250 0.062500
vt 0.984422 0.093750
vt 0.765578 0.093750
vt 0.750000 0.062500
vt 1.000000 0.062500
vt 0.984422 0.093750
vt 0.765578 0.093750
vt 0.750000 0.062500
vt 1.000000 0.062500
vt 0.750000 -0.000000
vt 1.000000 0.000000
vt 0.750000 0.000000
vt 1.000000 0.000000
vt 0.031250 0.000000
vt 0.531250 0.000000
vt 0.750000 0.000000
vt 1.000000 0.000000
vt 0.750000 0.000000
vt 1.000000 0.000000
vt 0.031250 0.000000
vt 0.531250 0.000000
vt 0.031250 0.000000
vt 0.531250 0.000000
vt 0.750000 0.000000
vt 1.000000 0.000000
vt 0.750000 0.000000
vt 1.000000 0.000000
vt 0.031250 0.000000
vt 0.531250 0.000000
vt 0.718750 1.000000
vt 0.406250 1.000000
vt 0.406250 0.937500
vt 0.718750 0.937500
vt 0.718750 1.000000
vt 0.406250 1.000000
vt 0.406250 0.937500
vt 0.718750 0.937500
vt 0.468750 0.937500
vt 0.406250 0.937500
vt 0.406250 0.812500
vt 0.468750 0.812500
vt 0.531250 0.937500
vt 0.468750 0.937500
vt 0.468750 0.812500
vt 0.531250 0.812500
vt 0.468750 0.937500
vt 0.406250 0.937500
vt 0.406250 0.812500
vt 0.468750 0.812500
vt 0.531250 0.937500
vt 0.468750 0.937500
vt 0.468750 0.812500
vt 0.531250 0.812500
vt 0.781250 0.187500
vt 0.781250 0.281250
vt 0.031250 0.250000
vt 0.125000 0.250000
vt 0.125000 0.312500
vt 0.031250 0.312500
vt 0.781250 0.187500
vt 0.781250 0.281250
vt 0.656250 0.281250
vt 0.562500 0.187500
vt 0.562500 0.687500
vt 0.656250 0.593750
vt 0.781250 0.593750
vt 0.781250 0.687500
vt 0.531250 0.312500
vt 0.437500 0.312500
vt 0.437500 0.250000
vt 0.531250 0.250000
vt 0.656250 0.062500
vt 0.640625 0.093750
vt 0.578125 0.093750
vt 0.562500 0.062500
vt 0.640625 0.093750
vt 0.656250 0.062500
vt 0.750000 0.062500
vt 0.734375 0.093750
vt 0.671875 0.093750
vt 0.656250 0.062500
vt 0.734375 0.093750
vt 0.750000 0.062500
vt 0.640625 0.156250
vt 0.671875 0.156250
vt 0.687500 0.187500
vt 0.625000 0.187500
vt 0.625000 0.093750
vt 0.687500 0.093750
vt 0.687500 0.156250
vt 0.625000 0.156250
vt 0.562500 0.093750
vt 0.625000 0.093750
vt 0.625000 0.156250
vt 0.562500 0.156250
vt 0.609375 0.156250
vt 0.578125 0.156250
vt 0.562500 0.187500
vt 0.625000 0.187500
vt 0.640625 0.156250
vt 0.609375 0.156250
vt 0.031250 0.312500
vt 0.000000 0.312500
vt 0.000000 0.156250
vt 0.031250 0.156250
vt 0.031250 0.312500
vt 0.000000 0.312500
vt 0.000000 0.156250
vt 0.031250 0.156250
vt 0.031250 0.156250
vt 0.000000 0.156250
vt 0.000000 0.000000
vt 0.031250 0.000000
vt 0.031250 0.156250
vt 0.000000 0.156250
vt 0.000000 0.000000
vt 0.031250 0.000000
vt 0.656250 0.000000
vt 0.750000 0.000000
vt 0.750000 0.000000
vt 0.562500 0.000000
vt 0.656250 0.000000
vt 0.656250 0.000000
vt 0.656250 0.062500
vt 0.640625 0.093750
vt 0.578125 0.093750
vt 0.562500 0.062500
vt 0.640625 0.093750
vt 0.656250 0.062500
vt 0.750000 0.062500
vt 0.734375 0.093750
vt 0.671875 0.093750
vt 0.656250 0.062500
vt 0.734375 0.093750
vt 0.750000 0.062500
vt 0.640625 0.156250
vt 0.671875 0.156250
vt 0.687500 0.187500
vt 0.625000 0.187500
vt 0.625000 0.093750
vt 0.687500 0.093750
vt 0.687500 0.156250
vt 0.625000 0.156250
vt 0.562500 0.093750
vt 0.625000 0.093750
vt 0.625000 0.156250
vt 0.562500 0.156250
vt 0.609375 0.156250
vt 0.578125 0.156250
vt 0.562500 0.187500
vt 0.625000 0.187500
vt 0.640625 0.156250
vt 0.609375 0.156250
vt 0.031250 0.562500
vt 0.000000 0.562500
vt 0.000000 0.437500
vt 0.031250 0.437500
vt 0.031250 0.562500
vt 0.000000 0.562500
vt 0.000000 0.437500
vt 0.031250 0.437500
vt 0.031250 0.437500
vt 0.000000 0.437500
vt 0.000000 0.312500
vt 0.031250 0.312500
vt 0.031250 0.437500
vt 0.000000 0.437500
vt 0.000000 0.312500
vt 0.031250 0.312500
vt 0.656250 0.000000
vt 0.750000 0.000000
vt 0.750000 0.000000
vt 0.562500 0.000000
vt 0.656250 0.000000
vt 0.656250 0.000000
vt 0.656250 0.062500
vt 0.640625 0.093750
vt 0.578125 0.093750
vt 0.562500 0.062500
vt 0.640625 0.093750
vt 0.656250 0.062500
vt 0.750000 0.062500
vt 0.734375 0.093750
vt 0.671875 0.093750
vt 0.656250 0.062500
vt 0.734375 0.093750
vt 0.750000 0.062500
vt 0.640625 0.156250
vt 0.671875 0.156250
vt 0.687500 0.187500
vt 0.625000 0.187500
vt 0.625000 0.093750
vt 0.687500 0.093750
vt 0.687500 0.156250
vt 0.625000 0.156250
vt 0.562500 0.093750
vt 0.625000 0.093750
vt 0.625000 0.156250
vt 0.562500 0.156250
vt 0.609375 0.156250
vt 0.578125 0.156250
vt 0.562500 0.187500
vt 0.625000 0.187500
vt 0.640625 0.156250
vt 0.609375 0.156250
vt 0.031250 0.562500
vt 0.000000 0.562500
vt 0.000000 0.437500
vt 0.031250 0.437500
vt 0.031250 0.562500
vt 0.000000 0.562500
vt 0.000000 0.437500
vt 0.031250 0.437500
vt 0.031250 0.437500
vt 0.000000 0.437500
vt 0.000000 0.312500
vt 0.031250 0.312500
vt 0.031250 0.437500
vt 0.000000 0.437500
vt 0.000000 0.312500
vt 0.031250 0.312500
vt 0.656250 0.000000
vt 0.750000 0.000000
vt 0.750000 0.000000
vt 0.562500 0.000000
vt 0.656250 0.000000
vt 0.656250 0.000000
vt 0.656250 0.062500
vt 0.640625 0.093750
vt 0.578125 0.093750
vt 0.562500 0.062500
vt 0.640625 0.093750
vt 0.656250 0.062500
vt 0.750000 0.062500
vt 0.734375 0.093750
vt 0.671875 0.093750
vt 0.656250 0.062500
vt 0.734375 0.093750
vt 0.750000 0.062500
vt 0.640625 0.156250
vt 0.671875 0.156250
vt 0.687500 0.187500
vt 0.625000 0.187500
vt 0.625000 0.093750
vt 0.687500 0.093750
vt 0.687500 0.156250
vt 0.625000 0.156250
vt 0.562500 0.093750
vt 0.625000 0.093750
vt 0.625000 0.156250
vt 0.562500 0.156250
vt 0.609375 0.156250
vt 0.578125 0.156250
vt 0.562500 0.187500
vt 0.625000 0.187500
vt 0.640625 0.156250
vt 0.609375 0.156250
vt 0.562500 0.187500
vt 0.531250 0.187500
vt 0.531250 0.093750
vt 0.562500 0.093750
vt 0.562500 0.187500
vt 0.531250 0.187500
vt 0.531250 0.093750
vt 0.562500 0.093750
vt 0.562500 0.093750
vt 0.531250 0.093750
vt 0.531250 0.000000
vt 0.562500 0.000000
vt 0.562500 0.093750
vt 0.531250 0.093750
vt 0.531250 0.000000
vt 0.562500 0.000000
vt 0.656250 0.000000
vt 0.750000 0.000000
vt 0.750000 0.000000
vt 0.562500 0.000000
vt 0.656250 0.000000
vt 0.656250 0.000000
vt 0.656250 0.062500
vt 0.640625 0.093750
vt 0.578125 0.093750
vt 0.562500 0.062500
vt 0.640625 0.093750
vt 0.656250 0.062500
vt 0.750000 0.062500
vt 0.734375 0.093750
vt 0.671875 0.093750
vt 0.656250 0.062500
vt 0.734375 0.093750
vt 0.750000 0.062500
vt 0.640625 0.156250
vt 0.671875 0.156250
vt 0.687500 0.187500
vt 0.625000 0.187500
vt 0.625000 0.093750
vt 0.687500 0.093750
vt 0.687500 0.156250
vt 0.625000 0.156250
vt 0.562500 0.093750
vt 0.625000 0.093750
vt 0.625000 0.156250
vt 0.562500 0.156250
vt 0.609375 0.156250
vt 0.578125 0.156250
vt 0.562500 0.187500
vt 0.625000 0.187500
vt 0.640625 0.156250
vt 0.609375 0.156250
vt 0.562500 0.187500
vt 0.531250 0.187500
vt 0.531250 0.093750
vt 0.562500 0.093750
vt 0.562500 0.187500
vt 0.531250 0.187500
vt 0.531250 0.093750
vt 0.562500 0.093750
vt 0.562500 0.093750
vt 0.531250 0.093750
vt 0.531250 0.000000
vt 0.562500 0.000000
vt 0.562500 0.093750
vt 0.531250 0.093750
vt 0.531250 0.000000
vt 0.562500 0.000000
vt 0.656250 0.000000
vt 0.750000 0.000000
vt 0.750000 0.000000
vt 0.562500 0.000000
vt 0.656250 0.000000
vt 0.656250 0.000000
vt 0.656250 0.062500
vt 0.640625 0.093750
vt 0.578125 0.093750
vt 0.562500 0.062500
vt 0.640625 0.093750
vt 0.656250 0.062500
vt 0.750000 0.062500
vt 0.734375 0.093750
vt 0.671875 0.093750
vt 0.656250 0.062500
vt 0.734375 0.093750
vt 0.750000 0.062500
vt 0.640625 0.156250
vt 0.671875 0.156250
vt 0.687500 0.187500
vt 0.625000 0.187500
vt 0.625000 0.093750
vt 0.687500 0.093750
vt 0.687500 0.156250
vt 0.625000 0.156250
vt 0.562500 0.093750
vt 0.625000 0.093750
vt 0.625000 0.156250
vt 0.562500 0.156250
vt 0.609375 0.156250
vt 0.578125 0.156250
vt 0.562500 0.187500
vt 0.625000 0.187500
vt 0.640625 0.156250
vt 0.609375 0.156250
vt 0.562500 0.312500
vt 0.531250 0.312500
vt 0.531250 0.250000
vt 0.562500 0.250000
vt 0.562500 0.312500
vt 0.531250 0.312500
vt 0.531250 0.250000
vt 0.562500 0.250000
vt 0.562500 0.250000
vt 0.531250 0.250000
vt 0.531250 0.187500
vt 0.562500 0.187500
vt 0.562500 0.250000
vt 0.531250 0.250000
vt 0.531250 0.187500
vt 0.562500 0.187500
vt 0.656250 0.000000
vt 0.750000 0.000000
vt 0.750000 0.000000
vt 0.562500 0.000000
vt 0.656250 0.000000
vt 0.656250 0.000000
vt 0.000000 0.000000
vt 1.000000 0.000000
vt 1.000000 1.000000
vt 0.000000 1.000000
vt 0.468750 0.406250
vt 0.500000 0.437500
vt 0.500000 0.406250
vt 0.468750 0.437500
vt 0.500000 0.437500
vt 0.468750 0.406250
vt 0.500000 0.406250
vt 0.468750 0.406250
vt 0.500000 0.437500
vt 0.500000 0.406250
vt 0.500000 0.437500
vt 0.468750 0.406250
vt 0.468750 0.437500
vt 0.500000 0.437500
vt 0.500000 0.437500
vt 0.500000 0.406250
vt 0.468750 0.406250
vt 0.468750 0.437500
vt 0.468750 0.437500
vt 0.468750 0.406250
vt 0.468750 0.406250
vt 0.500000 0.437500
vt 0.125000 0.125000
vt 0.125000 0.375000
vt 0.000000 0.375000
vt 0.000000 0.125000
vt 0.125000 0.375000
vt 0.125000 0.500000
vt -0.000000 0.375000
vt 0.750000 0.250000
vt 0.750000 0.000000
vt 0.812500 0.000000
vt 0.812500 0.250000
vt 0.375000 0.125000
vt 0.125000 0.000000
vt 0.375000 0.000000
vt 0.375000 0.375000
vt 0.375000 0.500000
vt 0.125000 0.500000
vt 0.625000 0.125000
vt 0.625000 0.375000
vt 0.500000 0.375000
vt 0.500000 0.125000
vt 0.125000 0.125000
vt -0.000000 0.125000
vt 0.500000 -0.000000
vt 0.625000 -0.000000
vt 0.375000 0.375000
vt 0.375000 0.125000
vt 0.625000 0.250000
vt 0.625000 0.000000
vt 0.750000 0.000000
vt 0.750000 0.250000
vt 0.625000 0.500000
vt 0.500000 0.500000
vt 0.375000 0.500000
vt 0.500000 0.406250
vt 0.468750 0.406250
vt 0.468750 0.437500
vt 0.500000 0.437500
vt 0.625000 0.125000
vt 0.625000 0.375000
vt 0.500000 0.375000
vt 0.500000 0.125000
vt 0.468750 0.437500
vt 0.468750 0.406250
vt 0.625000 0.500000
vt 0.500000 0.500000
vt 0.500000 0.000000
vt 0.625000 -0.000000
vt 0.500000 0.406250
vt 0.500000 0.437500
vt 0.000000 0.000000
vt 0.156250 0.156250
vt 0.343750 0.156250
vt 0.343750 0.343750
vt 0.156250 0.343750
vt 0.750000 0.250000
vt 0.750000 0.000000
vt 0.812500 0.000000
vt 0.812500 0.250000
vt 0.812500 0.000000
vt 0.812500 0.250000
vt 0.750000 0.250000
vt 0.750000 0.000000
vt 0.812500 0.000000
vt 0.812500 0.250000
vt 0.750000 0.250000
vt 0.750000 0.000000
vt 0.375000 0.375000
vt 0.125000 0.375000
vt 0.125000 0.125000
vt 0.375000 0.125000
vt 0.125000 0.125000
vt 0.125000 0.375000
vt 0.000000 0.375000
vt 0.000000 0.125000
vt 0.125000 0.375000
vt 0.125000 0.500000
vt -0.000000 0.375000
vt 0.750000 0.250000
vt 0.750000 0.000000
vt 0.812500 0.000000
vt 0.812500 0.250000
vt 0.375000 0.125000
vt 0.125000 0.000000
vt 0.375000 0.000000
vt 0.375000 0.375000
vt 0.375000 0.500000
vt 0.125000 0.500000
vt 0.625000 0.125000
vt 0.625000 0.375000
vt 0.500000 0.375000
vt 0.500000 0.125000
vt 0.125000 0.125000
vt -0.000000 0.125000
vt 0.500000 -0.000000
vt 0.625000 -0.000000
vt 0.375000 0.375000
vt 0.375000 0.125000
vt 0.625000 0.250000
vt 0.625000 0.000000
vt 0.750000 0.000000
vt 0.750000 0.250000
vt 0.625000 0.500000
vt 0.500000 0.500000
vt 0.375000 0.500000
vt 0.500000 0.406250
vt 0.468750 0.406250
vt 0.468750 0.437500
vt 0.500000 0.437500
vt 0.625000 0.125000
vt 0.625000 0.375000
vt 0.500000 0.375000
vt 0.500000 0.125000
vt 0.468750 0.437500
vt 0.468750 0.406250
vt 0.625000 0.500000
vt 0.500000 0.500000
vt 0.500000 0.000000
vt 0.625000 -0.000000
vt 0.500000 0.406250
vt 0.500000 0.437500
vt 0.000000 0.000000
vt 0.156250 0.156250
vt 0.343750 0.156250
vt 0.343750 0.343750
vt 0.156250 0.343750
vt 0.750000 0.250000
vt 0.750000 0.000000
vt 0.812500 0.000000
vt 0.812500 0.250000
vt 0.812500 0.000000
vt 0.812500 0.250000
vt 0.750000 0.250000
vt 0.750000 0.000000
vt 0.812500 0.000000
vt 0.812500 0.250000
vt 0.750000 0.250000
vt 0.750000 0.000000
vt 0.375000 0.375000
vt 0.125000 0.375000
vt 0.125000 0.125000
vt 0.375000 0.125000
vt 0.125000 0.812500
vt 0.062500 0.812500
vt 0.062500 0.437500
vt 0.125000 0.437500
vt 0.125000 0.812500
vt 0.187500 0.812500
vt 0.187500 0.937500
vt 0.125000 0.937500
vt 0.187500 0.812500
vt 0.250000 0.812500
vt 0.250000 0.937500
vt 0.312500 0.812500
vt 0.312500 0.937500
vt 0.187500 0.437500
vt 0.250000 0.437500
vt 0.125000 0.437500
vt 0.187500 0.437500
vt 0.312500 0.437500
vt 0.375000 0.812500
vt 0.312500 0.812500
vt 0.312500 0.500000
vt 0.375000 0.500000
vt 0.375000 0.812500
vt 0.437500 0.812500
vt 0.437500 0.937500
vt 0.375000 0.937500
vt 0.437500 0.812500
vt 0.500000 0.812500
vt 0.500000 0.937500
vt 0.562500 0.812500
vt 0.562500 0.937500
vt 0.437500 0.500000
vt 0.500000 0.500000
vt 0.375000 0.500000
vt 0.437500 0.500000
vt 0.562500 0.500000
vt 0.375000 0.812500
vt 0.312500 0.812500
vt 0.312500 0.500000
vt 0.375000 0.500000
vt 0.375000 0.812500
vt 0.437500 0.812500
vt 0.437500 0.937500
vt 0.375000 0.937500
vt 0.437500 0.812500
vt 0.500000 0.812500
vt 0.500000 0.937500
vt 0.562500 0.812500
vt 0.562500 0.937500
vt 0.437500 0.500000
vt 0.500000 0.500000
vt 0.375000 0.500000
vt 0.437500 0.500000
vt 0.562500 0.500000
vt 0.625000 0.812500
vt 0.562500 0.812500
vt 0.562500 0.562500
vt 0.625000 0.562500
vt 0.625000 0.812500
vt 0.687500 0.812500
vt 0.687500 0.937500
vt 0.625000 0.937500
vt 0.687500 0.812500
vt 0.750000 0.812500
vt 0.750000 0.937500
vt 0.812500 0.812500
vt 0.812500 0.937500
vt 0.687500 0.562500
vt 0.750000 0.562500
vt 0.625000 0.562500
vt 0.687500 0.562500
vt 0.812500 0.562500
vt 0.625000 0.812500
vt 0.562500 0.812500
vt 0.562500 0.562500
vt 0.625000 0.562500
vt 0.625000 0.812500
vt 0.687500 0.812500
vt 0.687500 0.937500
vt 0.625000 0.937500
vt 0.687500 0.812500
vt 0.750000 0.812500
vt 0.750000 0.937500
vt 0.812500 0.812500
vt 0.812500 0.937500
vt 0.687500 0.562500
vt 0.750000 0.562500
vt 0.625000 0.562500
vt 0.687500 0.562500
vt 0.812500 0.562500
vt 0.750000 0.250000
vt 0.687500 0.250000
vt 0.687500 0.062500
vt 0.750000 0.062500
vt 0.750000 0.250000
vt 0.812500 0.250000
vt 0.812500 0.375000
vt 0.750000 0.375000
vt 0.812500 0.250000
vt 0.875000 0.250000
vt 0.875000 0.375000
vt 0.937500 0.250000
vt 0.937500 0.375000
vt 0.812500 0.062500
vt 0.875000 0.062500
vt 0.750000 0.062500
vt 0.812500 0.062500
vt 0.937500 0.062500
vn -0.5000 -0.0000 -0.8660
vn -0.3536 0.7071 -0.6124
vn 0.3536 0.7071 0.6124
vn 0.0000 1.0000 -0.0000
vn 0.5000 0.0000 0.8660
vn 0.0000 0.0000 1.0000
vn -0.0000 0.6362 -0.7715
vn 0.0000 0.6547 0.7559
vn -0.7071 0.7071 0.0000
vn 1.0000 0.0000 -0.0000
vn 0.7071 0.7071 -0.0000
vn -0.0000 0.6547 -0.7559
vn 0.6682 0.6362 -0.3858
vn -0.6547 0.6547 0.3780
vn -0.0000 0.6362 0.7715
vn -0.0000 0.0000 -1.0000
vn 0.6682 0.6362 0.3858
vn -0.8660 0.0000 -0.5000
vn -0.5000 -0.0000 0.8660
vn -0.3536 0.7071 0.6124
vn 0.3536 0.7071 -0.6124
vn 0.5000 0.0000 -0.8660
vn -1.0000 -0.0000 0.0000
vn 0.8660 0.0000 -0.5000
vn -0.6682 0.6362 0.3858
vn 0.6547 0.6547 -0.3780
vn -0.6682 0.6362 -0.3858
vn 0.6547 0.6547 0.3780
vn 0.8660 0.0000 0.5000
vn -0.6547 0.6547 -0.3780
vn -0.8660 0.0000 0.5000
vn -0.6325 0.4472 -0.6325
vn 0.6325 0.4472 -0.6325
vn 0.6325 0.4472 0.6325
vn -0.6325 0.4472 0.6325
vn -0.6325 -0.4472 0.6325
vn 0.6325 -0.4472 -0.6325
vn 0.6325 -0.4472 0.6325
vn -0.6325 -0.4472 -0.6325
vn -0.7071 0.0000 0.7071
vn 0.7071 0.0000 -0.7071
vn 0.7071 0.0000 0.7071
vn -0.7071 0.0000 -0.7071
vn 0.2315 0.4472 -0.8640
vn 0.8640 0.4472 0.2315
vn -0.2315 0.4472 0.8640
vn -0.8640 0.4472 -0.2315
vn -0.8640 -0.4472 -0.2315
vn 0.8639 -0.4472 0.2315
vn -0.2315 -0.4472 0.8639
vn 0.2315 -0.4472 -0.8640
vn -0.9659 0.0000 -0.2588
vn 0.9659 0.0000 0.2588
vn -0.2588 0.0000 0.9659
vn 0.2588 0.0000 -0.9659
vn -0.8640 0.4472 0.2315
vn -0.2315 0.4472 -0.8640
vn 0.8640 0.4472 -0.2315
vn 0.2315 0.4472 0.8640
vn 0.2315 -0.4472 0.8640
vn -0.2315 -0.4472 -0.8640
vn 0.8640 -0.4472 -0.2315
vn -0.8639 -0.4472 0.2315
vn 0.2588 0.0000 0.9659
vn -0.2588 0.0000 -0.9659
vn 0.9659 0.0000 -0.2588
vn -0.9659 0.0000 0.2588
vn -0.8640 -0.4472 0.2315
vn 0.8640 -0.4472 0.2315
vn -0.2315 -0.4472 0.8640
vn 0.0000 -1.0000 0.0000
vn 0.0000 0.7071 0.7071
vn -0.0000 0.7071 -0.7071
vn 0.7071 -0.7071 0.0000
vn -0.7071 -0.7071 -0.0000
vn 0.6860 0.2425 -0.6860
vn -0.6860 0.2425 -0.6860
vn -0.6860 0.2425 0.6860
vn 0.6860 0.2425 0.6860
vn 0.9371 0.2425 0.2511
vn 0.2511 0.2425 -0.9371
vn -0.9371 0.2425 -0.2511
vn -0.2511 0.2425 0.9371
vn -0.2511 0.2425 -0.9371
vn -0.9371 0.2425 0.2511
vn 0.2511 0.2425 0.9371
vn 0.9371 0.2425 -0.2511
usemtl EXALTATION_CRUCIBLE
s off
f 59/1/1 2/2/1 3/3/1 1/4/1
f 2/5/2 4/6/2 5/7/2 3/8/2
f 6/9/3 8/10/3 9/11/3 7/12/3
f 8/10/2 10/13/2 11/14/2 9/11/2
f 10/13/4 12/15/4 13/16/4 11/14/4
f 12/15/3 14/17/3 15/18/3 13/16/3
f 14/17/5 16/19/5 17/20/5 15/18/5
f 14/21/6 27/22/6 29/23/6 16/24/6
f 8/25/7 23/26/7 10/27/7
f 10/27/4 23/26/4 25/28/4 12/29/4
f 12/29/8 25/28/8 27/22/8 14/21/8
f 4/6/4 6/9/4 7/12/4 5/7/4
f 33/30/9 34/31/9 36/32/9 35/33/9
f 18/34/10 86/35/10 20/36/10 19/37/10
f 50/38/2 52/39/2 53/40/2 51/41/2
f 38/42/4 55/43/4 56/44/4 95/45/4
f 28/46/11 30/47/11 32/48/11 31/49/11
f 48/50/4 50/38/4 51/41/4 49/51/4
f 43/52/5 44/53/5 20/54/5 86/55/5
f 76/56/4 94/57/4 84/58/4 81/59/4
f 68/60/4 90/61/4 57/62/4 54/63/4
f 37/64/4 153/65/4 160/66/4 96/67/4
f 31/49/4 32/48/4 34/31/4 33/30/4
f 19/68/11 20/69/11 22/70/11 21/71/11
f 24/72/9 26/73/9 30/47/9 28/46/9
f 96/74/4 91/75/4 42/76/4 37/77/4
f 17/20/4 16/19/4 88/78/4 87/79/4
f 47/80/3 48/50/3 49/51/3 30/81/3
f 52/39/1 54/82/1 55/83/1 53/40/1
f 21/71/4 22/70/4 26/73/4 24/72/4
f 44/84/3 45/85/3 22/86/3 20/87/3
f 29/88/4 92/89/4 88/90/4 16/91/4
f 50/92/12 64/93/12 66/94/12 52/95/12
f 48/96/4 62/97/4 64/93/4 50/92/4
f 28/98/13 31/99/13 39/100/13
f 33/101/14 35/102/14 41/103/14 40/104/14
f 47/105/15 62/97/15 48/96/15
f 52/95/16 66/94/16 68/106/16 54/107/16
f 1/4/2 65/108/2 61/109/2 59/1/2
f 46/110/2 47/80/2 30/81/2 26/111/2
f 30/112/17 49/113/17 32/114/17
f 38/115/18 36/116/18 53/117/18 55/118/18
f 77/119/4 17/120/4 87/121/4 93/122/4
f 89/123/19 58/124/19 44/125/19 43/126/19
f 67/127/20 78/128/20 62/129/20 47/130/20
f 63/131/21 67/127/21 47/130/21 46/132/21
f 80/133/22 81/134/22 68/135/22 66/136/22
f 58/137/20 60/138/20 45/139/20 44/140/20
f 45/85/4 46/110/4 26/111/4 22/86/4
f 78/128/4 79/141/4 64/142/4 62/129/4
f 36/143/23 146/144/23 145/145/23 35/146/23
f 72/147/11 73/148/11 75/149/11 74/150/11
f 70/151/4 71/152/4 73/148/4 72/147/4
f 60/138/4 63/131/4 46/132/4 45/139/4
f 89/153/23 1/154/23 3/155/23 58/156/23
f 58/157/9 3/158/9 5/159/9 60/160/9
f 63/161/11 7/162/11 9/163/11 67/164/11
f 67/164/9 9/163/9 71/152/9 70/151/9
f 74/165/24 76/166/24 81/167/24 80/168/24
f 67/169/25 70/170/25 78/171/25
f 70/170/4 72/172/4 79/173/4 78/171/4
f 72/172/26 74/165/26 80/168/26 79/173/26
f 41/174/20 27/175/20 25/176/20 40/177/20
f 9/178/27 11/179/27 71/180/27
f 13/181/4 73/182/4 71/180/4 11/179/4
f 15/183/28 75/184/28 73/182/28 13/181/28
f 17/185/29 77/186/29 75/184/29 15/183/29
f 68/135/4 81/134/4 84/187/4 90/188/4
f 36/116/30 34/189/30 51/190/30 53/117/30
f 35/102/31 37/191/31 42/192/31 41/103/31
f 31/99/4 33/101/4 40/104/4 39/100/4
f 55/83/4 54/82/4 57/193/4 56/194/4
f 153/195/23 37/196/23 35/146/23 145/145/23
f 34/189/4 32/114/4 49/113/4 51/190/4
f 29/197/4 42/198/4 91/199/4 92/200/4
f 40/177/4 25/176/4 23/201/4 39/202/4
f 60/160/4 5/159/4 7/162/4 63/161/4
f 19/203/22 2/204/22 59/205/22 18/206/22
f 21/207/21 4/208/21 2/209/21 19/210/21
f 28/211/20 8/212/20 6/213/20 24/214/20
f 39/202/21 23/201/21 8/212/21 28/211/21
f 42/198/19 29/197/19 27/175/19 41/174/19
f 43/126/20 69/215/20 83/216/20 89/123/20
f 86/55/3 82/217/3 69/218/3 43/52/3
f 89/153/9 83/219/9 65/220/9 1/154/9
f 18/34/11 85/221/11 82/222/11 86/35/11
f 59/205/21 61/223/21 85/224/21 18/206/21
f 79/141/21 80/133/21 66/136/21 64/142/21
f 157/225/4 156/226/4 77/227/4 93/228/4
f 87/79/3 88/78/3 101/229/3 100/230/3
f 57/62/12 90/61/12 102/231/12 98/232/12
f 90/188/21 84/187/21 99/233/21 102/234/21
f 91/75/14 96/74/14 108/235/14 103/236/14
f 92/200/20 91/199/20 103/237/20 104/238/20
f 95/45/30 56/44/30 97/239/30 107/240/30
f 88/90/8 92/89/8 104/241/8 101/242/8
f 84/58/26 94/57/26 106/243/26 99/244/26
f 56/194/2 57/193/2 98/245/2 97/246/2
f 93/122/28 87/121/28 100/247/28 105/248/28
f 97/246/1 98/245/1 110/249/1 109/250/1
f 101/242/6 104/241/6 116/251/6 113/252/6
f 99/244/24 106/243/24 118/253/24 111/254/24
f 100/230/5 101/229/5 113/255/5 112/256/5
f 105/248/29 100/247/29 112/257/29 117/258/29
f 98/232/16 102/231/16 114/259/16 110/260/16
f 102/234/22 99/233/22 111/261/22 114/262/22
f 104/238/19 103/237/19 115/263/19 116/264/19
f 103/236/31 108/235/31 120/265/31 115/266/31
f 107/240/18 97/239/18 109/267/18 119/268/18
f 114/262/21 111/261/21 123/269/21 126/270/21
f 116/264/20 115/263/20 127/271/20 128/272/20
f 115/273/14 120/274/14 132/275/14 127/276/14
f 119/277/30 109/278/30 121/279/30 131/280/30
f 109/250/2 110/249/2 122/281/2 121/282/2
f 113/283/8 116/284/8 128/285/8 125/286/8
f 111/287/26 118/288/26 130/289/26 123/290/26
f 112/256/3 113/255/3 125/291/3 124/292/3
f 117/293/28 112/294/28 124/295/28 129/296/28
f 110/297/12 114/298/12 126/299/12 122/300/12
f 125/286/6 128/285/6 140/301/6 137/302/6
f 123/290/24 130/289/24 142/303/24 135/304/24
f 124/292/5 125/291/5 137/305/5 136/306/5
f 129/296/29 124/295/29 136/307/29 141/308/29
f 122/300/16 126/299/16 138/309/16 134/310/16
f 126/270/22 123/269/22 135/311/22 138/312/22
f 128/272/19 127/271/19 139/313/19 140/314/19
f 127/276/31 132/275/31 144/315/31 139/316/31
f 131/280/18 121/279/18 133/317/18 143/318/18
f 121/282/1 122/281/1 134/319/1 133/320/1
f 145/321/4 146/322/4 151/323/4 152/324/4
f 147/325/4 148/326/4 149/327/4 150/328/4
f 145/329/6 152/330/6 160/331/6 153/332/6
f 151/333/16 146/334/16 154/335/16 159/336/16
f 147/337/16 150/338/16 158/339/16 155/340/16
f 149/341/6 148/342/6 156/343/6 157/344/6
f 38/345/23 154/346/23 146/144/23 36/143/23
f 95/347/4 159/348/4 154/349/4 38/350/4
f 77/351/10 156/352/10 148/353/10 75/354/10
f 74/355/10 75/354/10 148/353/10 147/356/10
f 74/355/10 147/356/10 155/357/10 76/358/10
f 76/359/4 155/360/4 158/361/4 94/362/4
f 24/214/4 6/213/4 4/208/4 21/207/4
f 263/363/32 244/364/32 246/365/32 264/366/32
f 264/366/33 246/365/33 250/367/33 265/368/33
f 265/369/34 250/370/34 248/371/34 266/372/34
f 266/372/35 248/371/35 244/373/35 263/374/35
f 251/375/36 254/376/36 258/377/36 255/378/36
f 250/379/4 246/380/4 244/381/4 248/382/4
f 257/383/4 256/384/4 255/385/4 258/386/4
f 253/387/37 252/388/37 256/389/37 257/390/37
f 254/376/38 253/391/38 257/390/38 258/377/38
f 252/388/39 251/392/39 255/378/39 256/389/39
f 254/393/40 251/394/40 259/395/40 262/396/40
f 252/397/41 253/398/41 261/399/41 260/400/41
f 253/401/42 254/402/42 262/403/42 261/404/42
f 251/405/43 252/406/43 260/407/43 259/408/43
f 247/409/40 266/372/40 263/374/40 243/410/40
f 249/411/42 265/369/42 266/372/42 247/409/42
f 245/412/41 264/366/41 265/368/41 249/413/41
f 243/414/43 263/363/43 264/366/43 245/412/43
f 287/415/44 268/416/44 270/417/44 288/418/44
f 288/418/45 270/417/45 274/419/45 289/420/45
f 289/421/46 274/422/46 272/423/46 290/424/46
f 290/424/47 272/423/47 268/425/47 287/426/47
f 275/427/48 278/428/48 282/429/48 279/430/48
f 274/431/4 270/432/4 268/433/4 272/434/4
f 281/435/4 280/436/4 279/437/4 282/438/4
f 277/439/49 276/440/49 280/441/49 281/442/49
f 278/428/50 277/443/50 281/442/50 282/429/50
f 276/440/51 275/444/51 279/430/51 280/441/51
f 278/445/52 275/446/52 283/447/52 286/448/52
f 276/449/53 277/450/53 285/451/53 284/452/53
f 277/453/54 278/454/54 286/455/54 285/456/54
f 275/457/55 276/458/55 284/459/55 283/460/55
f 271/461/52 290/424/52 287/426/52 267/462/52
f 273/463/54 289/421/54 290/424/54 271/461/54
f 269/464/53 288/418/53 289/420/53 273/465/53
f 267/466/55 287/415/55 288/418/55 269/464/55
f 311/467/56 292/468/56 294/469/56 312/470/56
f 312/470/57 294/469/57 298/471/57 313/472/57
f 313/473/58 298/474/58 296/475/58 314/476/58
f 314/476/59 296/475/59 292/477/59 311/478/59
f 299/479/60 302/480/60 306/481/60 303/482/60
f 298/483/4 294/484/4 292/485/4 296/486/4
f 305/487/4 304/488/4 303/489/4 306/490/4
f 301/491/61 300/492/61 304/493/61 305/494/61
f 302/480/62 301/495/62 305/494/62 306/481/62
f 300/492/63 299/496/63 303/482/63 304/493/63
f 302/497/64 299/498/64 307/499/64 310/500/64
f 300/501/65 301/502/65 309/503/65 308/504/65
f 301/505/66 302/506/66 310/507/66 309/508/66
f 299/509/67 300/510/67 308/511/67 307/512/67
f 295/513/64 314/476/64 311/478/64 291/514/64
f 297/515/66 313/473/66 314/476/66 295/513/66
f 293/516/65 312/470/65 313/472/65 297/517/65
f 291/518/67 311/467/67 312/470/67 293/516/67
f 335/519/58 316/520/58 318/521/58 336/522/58
f 336/522/59 318/521/59 322/523/59 337/524/59
f 337/525/56 322/526/56 320/527/56 338/528/56
f 338/528/57 320/527/57 316/529/57 335/530/57
f 323/531/61 326/532/61 330/533/61 327/534/61
f 322/535/4 318/536/4 316/537/4 320/538/4
f 329/539/4 328/540/4 327/541/4 330/542/4
f 325/543/60 324/544/60 328/545/60 329/546/60
f 326/532/68 325/547/68 329/546/68 330/533/68
f 324/544/62 323/548/62 327/534/62 328/545/62
f 326/549/65 323/550/65 331/551/65 334/552/65
f 324/553/64 325/554/64 333/555/64 332/556/64
f 325/557/67 326/558/67 334/559/67 333/560/67
f 323/561/66 324/562/66 332/563/66 331/564/66
f 319/565/65 338/528/65 335/530/65 315/566/65
f 321/567/67 337/525/67 338/528/67 319/565/67
f 317/568/64 336/522/64 337/524/64 321/569/64
f 315/570/66 335/519/66 336/522/66 317/568/66
f 359/571/46 340/572/46 342/573/46 360/574/46
f 360/574/47 342/573/47 346/575/47 361/576/47
f 361/577/44 346/578/44 344/579/44 362/580/44
f 362/580/45 344/579/45 340/581/45 359/582/45
f 347/583/69 350/584/69 354/585/69 351/586/69
f 346/587/4 342/588/4 340/589/4 344/590/4
f 353/591/4 352/592/4 351/593/4 354/594/4
f 349/595/48 348/596/48 352/597/48 353/598/48
f 350/584/51 349/599/51 353/598/51 354/585/51
f 348/596/70 347/600/70 351/586/70 352/597/70
f 350/601/53 347/602/53 355/603/53 358/604/53
f 348/605/52 349/606/52 357/607/52 356/608/52
f 349/609/55 350/610/55 358/611/55 357/612/55
f 347/613/54 348/614/54 356/615/54 355/616/54
f 343/617/53 362/580/53 359/582/53 339/618/53
f 345/619/55 361/577/55 362/580/55 343/617/55
f 341/620/52 360/574/52 361/576/52 345/621/52
f 339/622/54 359/571/54 360/574/54 341/620/54
f 383/623/34 364/624/34 366/625/34 384/626/34
f 384/626/35 366/625/35 370/627/35 385/628/35
f 385/629/32 370/630/32 368/631/32 386/632/32
f 386/632/33 368/631/33 364/633/33 383/634/33
f 371/635/37 374/636/37 378/637/37 375/638/37
f 370/639/4 366/640/4 364/641/4 368/642/4
f 377/643/4 376/644/4 375/645/4 378/646/4
f 373/647/36 372/648/36 376/649/36 377/650/36
f 374/636/39 373/651/39 377/650/39 378/637/39
f 372/648/38 371/652/38 375/638/38 376/649/38
f 374/653/41 371/654/41 379/655/41 382/656/41
f 372/657/40 373/658/40 381/659/40 380/660/40
f 373/661/43 374/662/43 382/663/43 381/664/43
f 371/665/42 372/666/42 380/667/42 379/668/42
f 367/669/41 386/632/41 383/634/41 363/670/41
f 369/671/43 385/629/43 386/632/43 367/669/43
f 365/672/40 384/626/40 385/628/40 369/673/40
f 363/674/42 383/623/42 384/626/42 365/672/42
usemtl ELDRIN_RIFT
f 161/675/4 162/676/4 164/677/4 163/678/4
usemtl CENTRIFUGE
f 134/679/71 165/680/71 133/681/71
f 136/682/71 168/683/71 141/684/71
f 138/685/71 165/680/71 134/679/71
f 135/686/71 165/680/71 138/685/71
f 135/686/71 142/687/71 167/688/71
f 165/680/71 135/686/71 167/688/71
f 136/682/71 137/689/71 166/690/71
f 140/691/71 166/690/71 137/689/71
f 140/691/71 139/692/71 166/690/71
f 166/690/71 168/683/71 136/682/71
f 166/693/71 165/694/71 167/695/71 168/696/71
f 165/694/71 166/693/71 170/697/71 169/698/71
f 165/680/71 169/698/71 133/681/71
f 166/690/71 139/692/71 170/697/71
f 139/692/71 144/699/71 170/697/71
f 143/700/71 133/681/71 169/698/71
f 171/701/10 172/702/10 181/703/10 180/704/10
f 178/705/23 185/706/23 189/707/23
f 172/708/16 171/709/16 203/710/16 204/711/16
f 175/712/10 171/701/10 188/713/10 190/714/10
f 172/702/10 176/715/10 186/716/10 183/717/10
f 180/718/6 181/719/6 182/720/6 179/721/6
f 177/722/23 178/705/23 189/707/23 191/723/23
f 180/718/6 179/721/6 195/724/6 196/725/6
f 174/726/23 173/727/23 179/721/23 182/720/23
f 185/728/4 184/729/4 183/730/4 186/731/4
f 183/732/72 184/733/72 182/720/72 181/719/72
f 174/726/23 182/720/23 184/734/23
f 181/703/10 172/702/10 183/717/10
f 178/705/23 174/726/23 184/734/23 185/706/23
f 187/735/71 194/736/71 190/737/71 188/738/71
f 191/739/16 189/740/16 193/741/16 192/742/16
f 187/735/71 188/738/71 196/743/71 195/744/71
f 185/745/73 186/746/73 193/741/73 189/740/73
f 176/715/10 175/712/10 192/742/10 193/741/10
f 191/739/16 192/742/16 197/747/16 198/748/16
f 186/716/10 176/715/10 193/741/10
f 190/737/71 194/736/71 198/749/71 197/750/71
f 171/701/10 180/704/10 196/751/10 188/713/10
f 192/742/10 175/712/10 190/714/10 197/747/10
f 202/752/10 201/753/10 200/754/10 199/755/10
f 171/756/4 175/757/4 206/758/4 203/759/4
f 176/760/71 172/761/71 204/762/71 205/763/71
f 175/764/6 176/765/6 205/766/6 206/767/6
f 199/755/41 200/754/41 204/768/41 203/769/41
f 201/753/42 202/752/42 206/770/42 205/771/42
f 202/752/11 199/755/11 203/769/11 206/770/11
f 200/754/74 201/753/74 205/771/74 204/768/74
f 207/772/23 208/773/23 217/774/23 216/775/23
f 214/776/10 221/777/10 225/778/10
f 208/779/6 207/780/6 239/781/6 240/782/6
f 211/783/23 207/772/23 224/784/23 226/785/23
f 208/773/23 212/786/23 222/787/23 219/788/23
f 216/789/16 217/790/16 218/791/16 215/792/16
f 213/793/10 214/776/10 225/778/10 227/794/10
f 216/789/16 215/792/16 231/795/16 232/796/16
f 210/797/10 209/798/10 215/792/10 218/791/10
f 221/799/4 220/800/4 219/801/4 222/802/4
f 219/803/73 220/804/73 218/791/73 217/790/73
f 210/797/10 218/791/10 220/805/10
f 217/774/23 208/773/23 219/788/23
f 214/776/10 210/797/10 220/805/10 221/777/10
f 223/806/71 230/807/71 226/808/71 224/809/71
f 227/810/6 225/811/6 229/812/6 228/813/6
f 223/806/71 224/809/71 232/814/71 231/815/71
f 221/816/72 222/817/72 229/812/72 225/811/72
f 212/786/23 211/783/23 228/813/23 229/812/23
f 227/810/6 228/813/6 233/818/6 234/819/6
f 222/787/23 212/786/23 229/812/23
f 226/808/71 230/807/71 234/820/71 233/821/71
f 207/772/23 216/775/23 232/822/23 224/784/23
f 228/813/23 211/783/23 226/785/23 233/818/23
f 238/823/23 237/824/23 236/825/23 235/826/23
f 207/827/4 211/828/4 242/829/4 239/830/4
f 212/831/71 208/832/71 240/833/71 241/834/71
f 211/835/16 212/836/16 241/837/16 242/838/16
f 235/826/40 236/825/40 240/839/40 239/840/40
f 237/824/43 238/823/43 242/841/43 241/842/43
f 238/823/9 235/826/9 239/840/9 242/841/9
f 236/825/75 237/824/75 241/842/75 240/839/75
usemtl CHIMERITE
f 387/843/43 388/844/43 393/845/43 392/846/43
f 389/847/76 388/848/76 391/849/76
f 388/844/77 387/843/77 391/850/77
f 387/851/78 390/852/78 391/853/78
f 390/852/79 389/854/79 391/855/79
f 390/852/40 387/851/40 392/856/40 395/857/40
f 388/848/41 389/847/41 394/858/41 393/859/41
f 389/854/42 390/852/42 395/857/42 394/860/42
f 396/861/55 397/862/55 402/863/55 401/864/55
f 398/865/80 397/866/80 400/867/80
f 397/862/81 396/861/81 400/868/81
f 396/869/82 399/870/82 400/871/82
f 399/870/83 398/872/83 400/873/83
f 399/870/52 396/869/52 401/874/52 404/875/52
f 397/866/53 398/865/53 403/876/53 402/877/53
f 398/872/54 399/870/54 404/875/54 403/878/54
f 405/879/67 406/880/67 411/881/67 410/882/67
f 407/883/84 406/884/84 409/885/84
f 406/880/85 405/879/85 409/886/85
f 405/887/86 408/888/86 409/889/86
f 408/888/87 407/890/87 409/891/87
f 408/888/64 405/887/64 410/892/64 413/893/64
f 406/884/65 407/883/65 412/894/65 411/895/65
f 407/890/66 408/888/66 413/893/66 412/896/66
f 414/897/66 415/898/66 420/899/66 419/900/66
f 416/901/86 415/902/86 418/903/86
f 415/898/87 414/897/87 418/904/87
f 414/905/84 417/906/84 418/907/84
f 417/906/85 416/908/85 418/909/85
f 417/906/65 414/905/65 419/910/65 422/911/65
f 415/902/64 416/901/64 421/912/64 420/913/64
f 416/908/67 417/906/67 422/911/67 421/914/67
f 423/915/54 424/916/54 429/917/54 428/918/54
f 425/919/82 424/920/82 427/921/82
f 424/916/83 423/915/83 427/922/83
f 423/923/80 426/924/80 427/925/80
f 426/924/81 425/926/81 427/927/81
f 426/924/53 423/923/53 428/928/53 431/929/53
f 424/920/52 425/919/52 430/930/52 429/931/52
f 425/926/55 426/924/55 431/929/55 430/932/55
f 432/933/42 433/934/42 438/935/42 437/936/42
f 434/937/78 433/938/78 436/939/78
f 433/934/79 432/933/79 436/940/79
f 432/941/76 435/942/76 436/943/76
f 435/942/77 434/944/77 436/945/77
f 435/942/41 432/941/41 437/946/41 440/947/41
f 433/938/40 434/937/40 439/948/40 438/949/40
f 434/944/43 435/942/43 440/947/43 439/950/43
