# Blender v2.80 (sub 75) OBJ File: 'chem devices.blend'
# www.blender.org
mtllib selenolabe_inventory.mtl
o SELENOLABE_BODY_Cube.179
v 0.671415 0.093750 0.531250
v 0.671415 0.156250 0.531250
v 0.671415 0.093750 0.468750
v 0.671415 0.156250 0.468750
v 0.858915 0.093750 0.531250
v 0.858915 0.156250 0.531250
v 0.858915 0.093750 0.468750
v 0.858915 0.156250 0.468750
v 0.858915 0.281250 0.468750
v 0.921415 0.156250 0.468750
v 0.921415 0.156250 0.531250
v 0.858915 0.281250 0.531250
v 0.921415 0.281250 0.531250
v 0.921415 0.281250 0.468750
v 0.921415 0.343750 0.468750
v 0.921415 0.343750 0.531250
v 0.983915 0.281250 0.531250
v 0.983915 0.281250 0.468750
v 0.983915 0.343750 0.531250
v 0.983915 0.343750 0.468750
v 1.015165 0.312500 0.500000
v 0.328585 0.093750 0.468750
v 0.328585 0.156250 0.468750
v 0.328585 0.093750 0.531250
v 0.328585 0.156250 0.531250
v 0.141085 0.093750 0.468750
v 0.141085 0.156250 0.468750
v 0.141085 0.093750 0.531250
v 0.141085 0.156250 0.531250
v 0.141085 0.281250 0.531250
v 0.078585 0.156250 0.531250
v 0.078585 0.156250 0.468750
v 0.141085 0.281250 0.468750
v 0.078585 0.281250 0.468750
v 0.078585 0.281250 0.531250
v 0.078585 0.343750 0.531250
v 0.078585 0.343750 0.468750
v 0.016085 0.281250 0.468750
v 0.016085 0.281250 0.531250
v 0.016085 0.343750 0.468750
v 0.016085 0.343750 0.531250
v -0.015165 0.312500 0.500000
v 0.531250 0.093750 0.328585
v 0.531250 0.156250 0.328585
v 0.468750 0.093750 0.328585
v 0.468750 0.156250 0.328585
v 0.531250 0.093750 0.141085
v 0.531250 0.156250 0.141085
v 0.468750 0.093750 0.141085
v 0.468750 0.156250 0.141085
v 0.468750 0.281250 0.141085
v 0.468750 0.156250 0.078585
v 0.531250 0.156250 0.078585
v 0.531250 0.281250 0.141085
v 0.531250 0.281250 0.078585
v 0.468750 0.281250 0.078585
v 0.468750 0.343750 0.078585
v 0.531250 0.343750 0.078585
v 0.531250 0.281250 0.016085
v 0.468750 0.281250 0.016085
v 0.531250 0.343750 0.016085
v 0.468750 0.343750 0.016085
v 0.500000 0.312500 -0.015165
v 0.468750 0.093750 0.671415
v 0.468750 0.156250 0.671415
v 0.531250 0.093750 0.671415
v 0.531250 0.156250 0.671415
v 0.468750 0.093750 0.858915
v 0.468750 0.156250 0.858915
v 0.531250 0.093750 0.858915
v 0.531250 0.156250 0.858915
v 0.531250 0.281250 0.858915
v 0.531250 0.156250 0.921415
v 0.468750 0.156250 0.921415
v 0.468750 0.281250 0.858915
v 0.468750 0.281250 0.921415
v 0.531250 0.281250 0.921415
v 0.531250 0.343750 0.921415
v 0.468750 0.343750 0.921415
v 0.468750 0.281250 0.983915
v 0.531250 0.281250 0.983915
v 0.468750 0.343750 0.983915
v 0.531250 0.343750 0.983915
v 0.500000 0.312500 1.015165
v 0.312500 0.125000 0.687500
v 0.312500 0.125000 0.312500
v 0.687500 0.125000 0.687500
v 0.687500 0.125000 0.312500
v 0.250000 0.062500 0.750000
v 0.250000 0.062500 0.250000
v 0.750000 0.062500 0.250000
v 0.750000 0.062500 0.750000
v 0.250000 0.125000 0.750000
v 0.250000 0.125000 0.250000
v 0.750000 0.125000 0.250000
v 0.750000 0.125000 0.750000
v 0.312500 0.062500 0.687500
v 0.312500 0.062500 0.312500
v 0.687500 0.062500 0.312500
v 0.687500 0.062500 0.687500
v 0.312500 0.062500 0.625000
v 0.312500 0.062500 0.562500
v 0.312500 0.062500 0.437500
v 0.312500 0.062500 0.375000
v 0.250000 0.062500 0.625000
v 0.250000 0.062500 0.562500
v 0.250000 0.062500 0.437500
v 0.250000 0.062500 0.375000
v 0.375000 0.062500 0.250000
v 0.437500 0.062500 0.250000
v 0.562500 0.062500 0.250000
v 0.625000 0.062500 0.250000
v 0.375000 0.062500 0.312500
v 0.437500 0.062500 0.312500
v 0.562500 0.062500 0.312500
v 0.625000 0.062500 0.312500
v 0.687500 0.062500 0.375000
v 0.687500 0.062500 0.437500
v 0.687500 0.062500 0.562500
v 0.687500 0.062500 0.625000
v 0.750000 0.062500 0.375000
v 0.750000 0.062500 0.437500
v 0.750000 0.062500 0.562500
v 0.750000 0.062500 0.625000
v 0.625000 0.062500 0.687500
v 0.562500 0.062500 0.687500
v 0.437500 0.062500 0.687500
v 0.375000 0.062500 0.687500
v 0.625000 0.062500 0.750000
v 0.562500 0.062500 0.750000
v 0.437500 0.062500 0.750000
v 0.375000 0.062500 0.750000
v 0.312500 0.000000 0.625000
v 0.312500 0.000000 0.562500
v 0.312500 0.000000 0.437500
v 0.312500 0.000000 0.375000
v 0.250000 0.000000 0.625000
v 0.250000 0.000000 0.562500
v 0.250000 0.000000 0.437500
v 0.250000 0.000000 0.375000
v 0.375000 0.000000 0.250000
v 0.437500 0.000000 0.250000
v 0.562500 0.000000 0.250000
v 0.625000 0.000000 0.250000
v 0.375000 0.000000 0.312500
v 0.437500 0.000000 0.312500
v 0.562500 0.000000 0.312500
v 0.625000 0.000000 0.312500
v 0.687500 0.000000 0.375000
v 0.687500 0.000000 0.437500
v 0.687500 0.000000 0.562500
v 0.687500 0.000000 0.625000
v 0.750000 0.000000 0.375000
v 0.750000 0.000000 0.437500
v 0.750000 0.000000 0.562500
v 0.750000 0.000000 0.625000
v 0.625000 0.000000 0.687500
v 0.562500 0.000000 0.687500
v 0.437500 0.000000 0.687500
v 0.375000 0.000000 0.687500
v 0.625000 0.000000 0.750000
v 0.562500 0.000000 0.750000
v 0.437500 0.000000 0.750000
v 0.375000 0.000000 0.750000
v 0.312500 0.312500 0.047335
v 0.312500 0.250000 0.047335
v 0.661612 0.312500 0.109835
v 0.661612 0.250000 0.890165
v 0.661612 0.312500 0.890165
v 0.890165 0.312500 0.661612
v 0.890165 0.250000 0.661612
v 0.338388 0.312500 0.890165
v 0.687500 0.250000 0.952665
v 0.687500 0.312500 0.952665
v 0.312500 0.250000 0.952665
v 0.047335 0.250000 0.312500
v 0.047335 0.250000 0.687500
v 0.109835 0.312500 0.661612
v 0.109835 0.250000 0.661612
v 0.952665 0.250000 0.687500
v 0.952665 0.312500 0.687500
v 0.047335 0.312500 0.312500
v 0.338388 0.250000 0.109835
v 0.338388 0.312500 0.109835
v 0.661612 0.250000 0.109835
v 0.109835 0.312500 0.338388
v 0.109835 0.250000 0.338388
v 0.890165 0.312500 0.338388
v 0.890165 0.250000 0.338388
v 0.047335 0.312500 0.687500
v 0.312500 0.312500 0.952665
v 0.687500 0.250000 0.047335
v 0.687500 0.312500 0.047335
v 0.338388 0.250000 0.890165
v 0.952665 0.250000 0.312500
v 0.952665 0.312500 0.312500
v 0.952665 0.250000 0.500000
v 0.952665 0.312500 0.500000
v 0.890165 0.250000 0.500000
v 0.890165 0.312500 0.500000
vt 0.531250 0.843750
vt 0.531250 0.875000
vt 0.500000 0.875000
vt 0.500000 0.843750
vt 0.500000 0.875000
vt 0.500000 0.906250
vt 0.593750 0.906250
vt 0.593750 0.875000
vt 0.593750 0.906250
vt 0.593750 0.875000
vt 0.625000 0.906250
vt 0.500000 0.906250
vt 0.500000 0.875000
vt 0.531250 0.812500
vt 0.625000 0.812500
vt 0.625000 0.843750
vt 0.625000 0.875000
vt 0.531250 0.875000
vt 0.531250 0.843750
vt 0.625000 0.843750
vt 0.656250 0.843750
vt 0.656250 0.812500
vt 0.718750 0.812500
vt 0.718750 0.843750
vt 0.687500 0.875000
vt 0.687500 0.843750
vt 0.718750 0.843750
vt 0.718750 0.875000
vt 0.625000 0.906250
vt 0.625000 0.906250
vt 0.625000 0.875000
vt 0.687500 0.875000
vt 0.687500 0.906250
vt 0.625000 0.875000
vt 0.625000 0.906250
vt 0.687500 0.906250
vt 0.687500 0.875000
vt 0.718750 0.875000
vt 0.718750 0.906250
vt 0.750000 0.906250
vt 0.750000 0.875000
vt 0.687500 0.875000
vt 0.718750 0.875000
vt 0.718750 0.906250
vt 0.750000 0.843750
vt 0.750000 0.875000
vt 0.750000 0.875000
vt 0.750000 0.906250
vt 0.750000 0.812500
vt 0.750000 0.843750
vt 0.531250 0.843750
vt 0.500000 0.843750
vt 0.500000 0.812500
vt 0.531250 0.843750
vt 0.500000 0.843750
vt 0.531250 0.843750
vt 0.531250 0.875000
vt 0.500000 0.875000
vt 0.500000 0.843750
vt 0.500000 0.875000
vt 0.500000 0.906250
vt 0.593750 0.906250
vt 0.593750 0.875000
vt 0.593750 0.906250
vt 0.593750 0.875000
vt 0.625000 0.906250
vt 0.500000 0.906250
vt 0.500000 0.875000
vt 0.531250 0.812500
vt 0.625000 0.812500
vt 0.625000 0.843750
vt 0.625000 0.875000
vt 0.531250 0.875000
vt 0.531250 0.843750
vt 0.625000 0.843750
vt 0.656250 0.843750
vt 0.656250 0.812500
vt 0.718750 0.812500
vt 0.718750 0.843750
vt 0.687500 0.875000
vt 0.687500 0.843750
vt 0.718750 0.843750
vt 0.718750 0.875000
vt 0.625000 0.906250
vt 0.625000 0.906250
vt 0.625000 0.875000
vt 0.687500 0.875000
vt 0.687500 0.906250
vt 0.625000 0.875000
vt 0.625000 0.906250
vt 0.687500 0.906250
vt 0.687500 0.875000
vt 0.718750 0.875000
vt 0.718750 0.906250
vt 0.750000 0.906250
vt 0.750000 0.875000
vt 0.687500 0.875000
vt 0.718750 0.875000
vt 0.718750 0.906250
vt 0.750000 0.843750
vt 0.750000 0.875000
vt 0.750000 0.875000
vt 0.750000 0.906250
vt 0.750000 0.812500
vt 0.750000 0.843750
vt 0.531250 0.843750
vt 0.500000 0.843750
vt 0.500000 0.812500
vt 0.531250 0.843750
vt 0.500000 0.843750
vt 0.531250 0.843750
vt 0.531250 0.875000
vt 0.500000 0.875000
vt 0.500000 0.843750
vt 0.500000 0.875000
vt 0.500000 0.906250
vt 0.593750 0.906250
vt 0.593750 0.875000
vt 0.593750 0.906250
vt 0.593750 0.875000
vt 0.625000 0.906250
vt 0.500000 0.906250
vt 0.500000 0.875000
vt 0.531250 0.812500
vt 0.625000 0.812500
vt 0.625000 0.843750
vt 0.625000 0.875000
vt 0.531250 0.875000
vt 0.531250 0.843750
vt 0.625000 0.843750
vt 0.656250 0.843750
vt 0.656250 0.812500
vt 0.718750 0.812500
vt 0.718750 0.843750
vt 0.687500 0.875000
vt 0.687500 0.843750
vt 0.718750 0.843750
vt 0.718750 0.875000
vt 0.625000 0.906250
vt 0.625000 0.906250
vt 0.625000 0.875000
vt 0.687500 0.875000
vt 0.687500 0.906250
vt 0.625000 0.875000
vt 0.625000 0.906250
vt 0.687500 0.906250
vt 0.687500 0.875000
vt 0.718750 0.875000
vt 0.718750 0.906250
vt 0.750000 0.906250
vt 0.750000 0.875000
vt 0.687500 0.875000
vt 0.718750 0.875000
vt 0.718750 0.906250
vt 0.750000 0.843750
vt 0.750000 0.875000
vt 0.750000 0.875000
vt 0.750000 0.906250
vt 0.750000 0.812500
vt 0.750000 0.843750
vt 0.531250 0.843750
vt 0.500000 0.843750
vt 0.500000 0.812500
vt 0.531250 0.843750
vt 0.500000 0.843750
vt 0.531250 0.843750
vt 0.531250 0.875000
vt 0.500000 0.875000
vt 0.500000 0.843750
vt 0.500000 0.875000
vt 0.500000 0.906250
vt 0.593750 0.906250
vt 0.593750 0.875000
vt 0.593750 0.906250
vt 0.593750 0.875000
vt 0.625000 0.906250
vt 0.500000 0.906250
vt 0.500000 0.875000
vt 0.531250 0.812500
vt 0.625000 0.812500
vt 0.625000 0.843750
vt 0.625000 0.875000
vt 0.531250 0.875000
vt 0.531250 0.843750
vt 0.625000 0.843750
vt 0.656250 0.843750
vt 0.656250 0.812500
vt 0.718750 0.812500
vt 0.718750 0.843750
vt 0.687500 0.875000
vt 0.687500 0.843750
vt 0.718750 0.843750
vt 0.718750 0.875000
vt 0.625000 0.906250
vt 0.625000 0.906250
vt 0.625000 0.875000
vt 0.687500 0.875000
vt 0.687500 0.906250
vt 0.625000 0.875000
vt 0.625000 0.906250
vt 0.687500 0.906250
vt 0.687500 0.875000
vt 0.718750 0.875000
vt 0.718750 0.906250
vt 0.750000 0.906250
vt 0.750000 0.875000
vt 0.687500 0.875000
vt 0.718750 0.875000
vt 0.718750 0.906250
vt 0.750000 0.843750
vt 0.750000 0.875000
vt 0.750000 0.875000
vt 0.750000 0.906250
vt 0.750000 0.812500
vt 0.750000 0.843750
vt 0.531250 0.843750
vt 0.500000 0.843750
vt 0.500000 0.812500
vt 0.531250 0.843750
vt 0.500000 0.843750
vt 0.362056 0.812500
vt 0.200444 0.812500
vt 0.187500 0.781250
vt 0.375000 0.781250
vt 0.200444 0.750000
vt 0.362056 0.750000
vt 0.375000 0.718750
vt 0.187500 0.718750
vt 0.187500 0.781250
vt 0.187500 0.750000
vt 0.375000 0.750000
vt 0.375000 0.781250
vt 0.187500 0.781250
vt 0.187500 0.750000
vt 0.375000 0.750000
vt 0.375000 0.781250
vt 0.187500 0.781250
vt 0.187500 0.750000
vt 0.375000 0.750000
vt 0.375000 0.781250
vt 0.093750 0.781250
vt 0.093750 0.750000
vt 0.187500 0.750000
vt 0.200444 0.750000
vt 0.362056 0.750000
vt 0.375000 0.718750
vt 0.187500 0.718750
vt 0.362056 0.781250
vt 0.200444 0.781250
vt 0.362056 0.812500
vt 0.200444 0.812500
vt 0.362056 0.781250
vt 0.200444 0.781250
vt 0.375000 0.750000
vt 0.174556 0.781250
vt 0.174556 0.750000
vt 0.012944 0.750000
vt 0.012944 0.781250
vt 0.200444 0.750000
vt 0.362056 0.750000
vt 0.375000 0.718750
vt 0.187500 0.718750
vt 0.362056 0.812500
vt 0.200444 0.812500
vt 0.174556 0.812500
vt 0.012944 0.812500
vt 0.000000 0.781250
vt 0.000000 0.718750
vt 0.000000 0.750000
vt 0.000000 0.781250
vt 0.000000 0.750000
vt 0.093750 0.750000
vt 0.174556 0.750000
vt 0.093750 0.718750
vt 0.093750 0.812500
vt 0.012944 0.812500
vt 0.000000 0.781250
vt 0.012944 0.750000
vt 0.174556 0.750000
vt 0.187500 0.718750
vt 0.000000 0.718750
vt 0.174556 0.812500
vt 0.012944 0.812500
vt 0.362056 0.781250
vt 0.200444 0.781250
vt 0.362056 0.781250
vt 0.362056 0.750000
vt 0.200444 0.750000
vt 0.200444 0.781250
vt 0.174556 0.781250
vt 0.012944 0.781250
vt 0.174556 0.781250
vt 0.174556 0.750000
vt 0.012944 0.750000
vt 0.012944 0.781250
vt 0.174556 0.812500
vt 0.012944 0.812500
vt 0.000000 0.781250
vt 0.000000 0.718750
vt 0.362056 0.812500
vt 0.200444 0.812500
vt 0.093750 0.781250
vt 0.012944 0.750000
vt 0.012944 0.781250
vt 0.375000 0.718750
vt 0.000000 0.750000
vt 0.174556 0.781250
vt 0.174556 0.812500
vt 0.000000 0.718750
vt 0.000000 0.750000
vt 0.437500 0.750000
vt 0.500000 0.687500
vt 0.500000 0.312500
vt 0.437500 0.250000
vt 0.437500 0.312500
vt 0.437500 0.687500
vt 0.500000 0.687500
vt 0.500000 0.312500
vt 0.437500 0.250000
vt 0.500000 0.312500
vt 0.500000 0.687500
vt 0.437500 0.750000
vt 0.500000 0.250000
vt 0.500000 0.750000
vt 0.437500 0.750000
vt 0.437500 0.250000
vt 0.500000 0.312500
vt 0.437500 0.250000
vt 0.437500 0.687500
vt 0.437500 0.312500
vt 0.500000 0.312500
vt 0.500000 0.687500
vt 0.500000 0.687500
vt 0.437500 0.750000
vt 0.437500 0.750000
vt 0.500000 0.750000
vt 0.500000 0.250000
vt 0.437500 0.250000
vt 0.500000 0.250000
vt 0.437500 0.750000
vt 0.500000 0.750000
vt 0.437500 0.687500
vt 0.500000 0.687500
vt 0.500000 0.562500
vt 0.500000 0.625000
vt 0.437500 0.625000
vt 0.437500 0.562500
vt 0.500000 0.687500
vt 0.500000 0.625000
vt 0.437500 0.625000
vt 0.437500 0.687500
vt 0.500000 0.687500
vt 0.500000 0.625000
vt 0.437500 0.625000
vt 0.437500 0.687500
vt 0.500000 0.375000
vt 0.500000 0.312500
vt 0.437500 0.312500
vt 0.437500 0.375000
vt 0.500000 0.500000
vt 0.500000 0.562500
vt 0.437500 0.562500
vt 0.437500 0.500000
vt 0.500000 0.437500
vt 0.500000 0.500000
vt 0.437500 0.500000
vt 0.437500 0.437500
vt 0.500000 0.312500
vt 0.500000 0.250000
vt 0.437500 0.250000
vt 0.437500 0.312500
vt 0.500000 0.687500
vt 0.500000 0.750000
vt 0.437500 0.750000
vt 0.437500 0.687500
vt 0.500000 0.312500
vt 0.500000 0.250000
vt 0.437500 0.250000
vt 0.437500 0.312500
vt 0.500000 0.625000
vt 0.500000 0.687500
vt 0.437500 0.687500
vt 0.437500 0.625000
vt 0.500000 0.500000
vt 0.500000 0.562500
vt 0.437500 0.562500
vt 0.437500 0.500000
vt 0.500000 0.750000
vt 0.500000 0.687500
vt 0.437500 0.687500
vt 0.437500 0.750000
vt 0.500000 0.437500
vt 0.500000 0.375000
vt 0.437500 0.375000
vt 0.437500 0.437500
vt 0.500000 0.750000
vt 0.500000 0.687500
vt 0.437500 0.687500
vt 0.437500 0.750000
vt 0.500000 0.312500
vt 0.500000 0.375000
vt 0.437500 0.375000
vt 0.437500 0.312500
vt 0.500000 0.625000
vt 0.500000 0.562500
vt 0.437500 0.562500
vt 0.437500 0.625000
vt 0.500000 0.687500
vt 0.500000 0.750000
vt 0.437500 0.750000
vt 0.437500 0.687500
vt 0.500000 0.375000
vt 0.500000 0.437500
vt 0.437500 0.437500
vt 0.437500 0.375000
vt 0.500000 0.312500
vt 0.500000 0.375000
vt 0.437500 0.375000
vt 0.437500 0.312500
vt 0.500000 0.437500
vt 0.500000 0.375000
vt 0.437500 0.375000
vt 0.437500 0.437500
vt 0.500000 0.250000
vt 0.500000 0.312500
vt 0.437500 0.312500
vt 0.437500 0.250000
vt 0.500000 0.500000
vt 0.500000 0.437500
vt 0.437500 0.437500
vt 0.437500 0.500000
vt 0.500000 0.625000
vt 0.500000 0.562500
vt 0.437500 0.562500
vt 0.437500 0.625000
vt 0.500000 0.562500
vt 0.500000 0.500000
vt 0.437500 0.500000
vt 0.437500 0.562500
vt 0.500000 0.250000
vt 0.500000 0.312500
vt 0.437500 0.312500
vt 0.437500 0.250000
vt 0.500000 0.625000
vt 0.500000 0.687500
vt 0.437500 0.687500
vt 0.437500 0.625000
vt 0.500000 0.437500
vt 0.500000 0.500000
vt 0.437500 0.500000
vt 0.437500 0.437500
vt 0.500000 0.562500
vt 0.500000 0.500000
vt 0.437500 0.500000
vt 0.437500 0.562500
vt 0.500000 0.375000
vt 0.500000 0.437500
vt 0.437500 0.437500
vt 0.437500 0.375000
vt 0.500000 0.500000
vt 0.500000 0.437500
vt 0.437500 0.437500
vt 0.437500 0.500000
vt 0.500000 0.375000
vt 0.500000 0.312500
vt 0.437500 0.312500
vt 0.437500 0.375000
vt 0.500000 0.562500
vt 0.500000 0.625000
vt 0.437500 0.625000
vt 0.437500 0.562500
vt 0.437500 0.312500
vt 0.500000 0.687500
vt 0.500000 0.750000
vt 0.437500 0.750000
vt 0.437500 0.687500
vt 0.437500 0.750000
vt 0.437500 0.687500
vt 0.500000 0.687500
vt 0.500000 0.750000
vt 0.437500 0.750000
vt 0.437500 0.687500
vt 0.500000 0.687500
vt 0.500000 0.750000
vt 0.437500 0.687500
vt 0.500000 0.687500
vt 0.500000 0.750000
vt 0.437500 0.750000
vt 0.437500 0.687500
vt 0.500000 0.687500
vt 0.500000 0.750000
vt 0.500000 0.687500
vt 0.500000 0.750000
vt 0.437500 0.750000
vt 0.500000 0.687500
vt 0.500000 0.750000
vt 0.437500 0.750000
vt 0.437500 0.687500
vt 0.500000 0.687500
vt 0.500000 0.750000
vt 0.437500 0.750000
vn -1.0000 0.0000 0.0000
vn 0.0000 0.0000 -1.0000
vn 0.0000 0.0000 1.0000
vn 0.0000 -1.0000 0.0000
vn 0.0000 1.0000 0.0000
vn 1.0000 0.0000 0.0000
vn 0.7071 -0.7071 0.0000
vn -0.7071 0.7071 0.0000
vn 0.7071 0.0000 -0.7071
vn 0.7071 0.7071 0.0000
vn 0.7071 0.0000 0.7071
vn -0.7071 -0.7071 0.0000
vn -0.7071 0.0000 0.7071
vn -0.7071 0.0000 -0.7071
vn 0.0000 -0.7071 -0.7071
vn 0.0000 0.7071 0.7071
vn -0.0000 0.7071 -0.7071
vn 0.0000 -0.7071 0.7071
usemtl ELDRIN_ORRERY
s off
f 1/1/1 2/2/1 4/3/1 3/4/1
f 3/5/2 4/6/2 8/7/2 7/8/2
f 6/9/3 5/10/3 11/11/3
f 5/10/3 6/9/3 2/12/3 1/13/3
f 3/14/4 7/15/4 5/16/4 1/1/4
f 8/17/5 4/18/5 2/19/5 6/20/5
f 11/21/6 10/22/6 14/23/6 13/24/6
f 5/16/7 7/15/7 10/22/7 11/21/7
f 9/25/8 12/26/8 16/27/8 15/28/8
f 7/8/2 8/7/2 10/29/2
f 6/30/3 11/31/3 13/32/3 12/33/3
f 8/17/1 6/20/1 12/26/1 9/25/1
f 10/34/2 8/35/2 9/36/2 14/37/2
f 14/38/2 9/25/2 15/39/2
f 14/38/2 15/39/2 20/40/2 18/41/2
f 12/42/3 13/43/3 16/44/3
f 15/28/5 16/27/5 19/45/5 20/46/5
f 16/44/3 13/43/3 17/47/3 19/48/3
f 13/24/4 14/23/4 18/49/4 17/50/4
f 17/51/7 18/52/7 21/53/7
f 18/52/9 20/54/9 21/53/9
f 20/54/10 19/55/10 21/53/10
f 19/55/11 17/51/11 21/53/11
f 22/56/6 23/57/6 25/58/6 24/59/6
f 24/60/3 25/61/3 29/62/3 28/63/3
f 27/64/2 26/65/2 32/66/2
f 26/65/2 27/64/2 23/67/2 22/68/2
f 24/69/4 28/70/4 26/71/4 22/56/4
f 29/72/5 25/73/5 23/74/5 27/75/5
f 32/76/1 31/77/1 35/78/1 34/79/1
f 26/71/12 28/70/12 31/77/12 32/76/12
f 30/80/10 33/81/10 37/82/10 36/83/10
f 28/63/3 29/62/3 31/84/3
f 27/85/2 32/86/2 34/87/2 33/88/2
f 29/72/6 27/75/6 33/81/6 30/80/6
f 31/89/3 29/90/3 30/91/3 35/92/3
f 35/93/3 30/80/3 36/94/3
f 35/93/3 36/94/3 41/95/3 39/96/3
f 33/97/2 34/98/2 37/99/2
f 36/83/5 37/82/5 40/100/5 41/101/5
f 37/99/2 34/98/2 38/102/2 40/103/2
f 34/79/4 35/78/4 39/104/4 38/105/4
f 38/106/12 39/107/12 42/108/12
f 39/107/13 41/109/13 42/108/13
f 41/109/8 40/110/8 42/108/8
f 40/110/14 38/106/14 42/108/14
f 43/111/3 44/112/3 46/113/3 45/114/3
f 45/115/1 46/116/1 50/117/1 49/118/1
f 48/119/6 47/120/6 53/121/6
f 47/120/6 48/119/6 44/122/6 43/123/6
f 45/124/4 49/125/4 47/126/4 43/111/4
f 50/127/5 46/128/5 44/129/5 48/130/5
f 53/131/2 52/132/2 56/133/2 55/134/2
f 47/126/15 49/125/15 52/132/15 53/131/15
f 51/135/16 54/136/16 58/137/16 57/138/16
f 49/118/1 50/117/1 52/139/1
f 48/140/6 53/141/6 55/142/6 54/143/6
f 50/127/3 48/130/3 54/136/3 51/135/3
f 52/144/1 50/145/1 51/146/1 56/147/1
f 56/148/1 51/135/1 57/149/1
f 56/148/1 57/149/1 62/150/1 60/151/1
f 54/152/6 55/153/6 58/154/6
f 57/138/5 58/137/5 61/155/5 62/156/5
f 58/154/6 55/153/6 59/157/6 61/158/6
f 55/134/4 56/133/4 60/159/4 59/160/4
f 59/161/15 60/162/15 63/163/15
f 60/162/14 62/164/14 63/163/14
f 62/164/17 61/165/17 63/163/17
f 61/165/9 59/161/9 63/163/9
f 64/166/2 65/167/2 67/168/2 66/169/2
f 66/170/6 67/171/6 71/172/6 70/173/6
f 69/174/1 68/175/1 74/176/1
f 68/175/1 69/174/1 65/177/1 64/178/1
f 66/179/4 70/180/4 68/181/4 64/166/4
f 71/182/5 67/183/5 65/184/5 69/185/5
f 74/186/3 73/187/3 77/188/3 76/189/3
f 68/181/18 70/180/18 73/187/18 74/186/18
f 72/190/17 75/191/17 79/192/17 78/193/17
f 70/173/6 71/172/6 73/194/6
f 69/195/1 74/196/1 76/197/1 75/198/1
f 71/182/2 69/185/2 75/191/2 72/190/2
f 73/199/6 71/200/6 72/201/6 77/202/6
f 77/203/6 72/190/6 78/204/6
f 77/203/6 78/204/6 83/205/6 81/206/6
f 75/207/1 76/208/1 79/209/1
f 78/193/5 79/192/5 82/210/5 83/211/5
f 79/209/1 76/208/1 80/212/1 82/213/1
f 76/189/4 77/188/4 81/214/4 80/215/4
f 80/216/18 81/217/18 84/218/18
f 81/217/11 83/219/11 84/218/11
f 83/219/16 82/220/16 84/218/16
f 82/220/13 80/216/13 84/218/13
f 167/221/5 188/222/5 196/223/5 193/224/5
f 189/225/4 185/226/4 192/227/4 195/228/4
f 190/229/13 177/230/13 175/231/13 191/232/13
f 174/233/11 173/234/11 180/235/11 181/236/11
f 165/237/14 166/238/14 176/239/14 182/240/14
f 198/241/6 197/242/6 195/243/6 196/223/6
f 183/244/4 187/245/4 176/246/4 166/247/4
f 167/248/13 185/226/13 189/225/13 188/249/13
f 186/250/5 184/251/5 165/237/5 182/240/5
f 186/252/11 187/245/11 183/244/11 184/253/11
f 196/223/9 195/243/9 192/254/9 193/224/9
f 184/255/3 183/256/3 185/257/3 167/258/3
f 179/259/4 194/260/4 175/261/4 177/262/4
f 172/263/5 178/264/5 190/229/5 191/232/5
f 184/265/5 167/266/5 193/267/5 165/237/5
f 185/257/4 183/256/4 166/247/4 192/268/4
f 193/267/2 192/269/2 166/238/2 165/237/2
f 191/270/3 175/271/3 173/234/3 174/233/3
f 199/272/4 189/273/4 195/228/4 197/274/4
f 200/275/5 170/276/5 181/277/5 198/241/5
f 194/278/4 168/279/4 173/280/4 175/281/4
f 169/282/5 172/283/5 191/270/5 174/233/5
f 172/284/9 194/260/9 179/259/9 178/285/9
f 170/286/14 171/287/14 168/288/14 169/289/14
f 169/290/2 168/279/2 194/278/2 172/291/2
f 178/292/6 179/293/6 187/294/6 186/295/6
f 178/296/5 186/297/5 182/298/5 190/229/5
f 187/294/4 179/293/4 177/262/4 176/299/4
f 170/300/5 169/301/5 174/233/5 181/236/5
f 200/302/1 199/272/1 171/303/1 170/304/1
f 168/288/4 171/287/4 180/305/4 173/280/4
f 182/298/1 176/306/1 177/230/1 190/229/1
f 188/307/1 189/273/1 199/272/1 200/302/1
f 188/308/5 200/275/5 198/241/5 196/223/5
f 171/303/4 199/272/4 197/274/4 180/309/4
f 181/277/6 180/310/6 197/242/6 198/241/6
usemtl OCCULUS
f 90/311/4 98/312/4 97/313/4 89/314/4
f 97/315/6 98/316/6 86/317/6 85/318/6
f 90/311/4 91/319/4 99/320/4 98/312/4
f 97/313/4 100/321/4 92/322/4 89/314/4
f 89/314/1 93/323/1 94/324/1 90/311/1
f 85/318/5 86/317/5 94/325/5 93/326/5
f 86/317/5 88/327/5 95/328/5 94/325/5
f 99/329/1 100/330/1 87/331/1 88/332/1
f 95/328/5 88/327/5 87/333/5 96/334/5
f 91/335/6 95/336/6 96/337/6 92/338/6
f 90/311/2 94/324/2 95/339/2 91/319/2
f 89/340/3 92/338/3 96/337/3 93/341/3
f 100/330/2 97/342/2 85/343/2 87/331/2
f 87/333/5 85/318/5 93/326/5 96/334/5
f 100/321/4 99/320/4 91/319/4 92/322/4
f 124/344/3 120/345/3 152/346/3 156/347/3
f 109/348/2 110/349/2 142/350/2 141/351/2
f 121/352/6 122/353/6 154/354/6 153/355/6
f 119/356/2 123/357/2 155/358/2 151/359/2
f 130/360/1 126/361/1 158/362/1 162/363/1
f 120/364/1 119/365/1 151/366/1 152/367/1
f 125/368/6 129/369/6 161/370/6 157/371/6
f 131/372/3 132/373/3 164/374/3 163/375/3
f 117/376/2 121/377/2 153/378/2 149/379/2
f 105/380/1 106/381/1 138/382/1 137/383/1
f 122/384/3 118/385/3 150/386/3 154/387/3
f 123/388/6 124/389/6 156/390/6 155/391/6
f 126/392/2 125/393/2 157/394/2 158/395/2
f 111/396/2 112/397/2 144/398/2 143/399/2
f 115/400/1 111/401/1 143/402/1 147/403/1
f 112/404/6 116/405/6 148/406/6 144/407/6
f 107/408/1 108/409/1 140/410/1 139/411/1
f 114/412/3 113/413/3 145/414/3 146/415/3
f 103/416/3 107/417/3 139/418/3 135/419/3
f 102/420/6 101/421/6 133/422/6 134/423/6
f 113/424/1 109/425/1 141/426/1 145/427/1
f 128/428/2 127/429/2 159/430/2 160/431/2
f 108/432/2 104/433/2 136/434/2 140/435/2
f 110/436/6 114/437/6 146/438/6 142/439/6
f 101/440/3 105/441/3 137/442/3 133/443/3
f 129/444/3 130/445/3 162/446/3 161/447/3
f 116/448/3 115/449/3 147/450/3 148/451/3
f 106/452/2 102/453/2 134/454/2 138/455/2
f 118/456/1 117/457/1 149/458/1 150/459/1
f 104/460/6 103/461/6 135/462/6 136/463/6
f 127/464/6 131/465/6 163/466/6 159/467/6
f 132/468/1 128/469/1 160/470/1 164/471/1
f 98/316/3 99/472/3 88/327/3 86/317/3
f 144/473/4 148/474/4 147/475/4 143/476/4
f 150/477/4 149/478/4 153/479/4 154/480/4
f 152/481/4 151/482/4 155/483/4 156/484/4
f 158/485/4 157/486/4 161/487/4 162/488/4
f 160/489/4 159/490/4 163/491/4 164/374/4
f 134/492/4 133/493/4 137/494/4 138/382/4
f 136/495/4 135/496/4 139/497/4 140/498/4
f 142/499/4 146/500/4 145/501/4 141/351/4
o MOON_PLANE_INVENTORY_Plane.018
v 0.676777 0.437500 0.676777
v 0.323223 0.437500 0.323223
v 0.676777 0.937500 0.676777
v 0.323223 0.937500 0.323223
v 0.323223 0.437500 0.323223
v 0.676777 0.437500 0.676777
v 0.323223 0.937500 0.323223
v 0.676777 0.937500 0.676777
vt 0.000000 0.500000
vt 0.500000 0.500000
vt 0.500000 1.000000
vt 0.000000 1.000000
vt 0.000000 0.500000
vt 0.500000 0.500000
vt 0.500000 1.000000
vt 0.000000 1.000000
vn 0.7071 -0.0000 -0.7071
vn -0.7071 0.0000 0.7071
usemtl MAIN
s off
f 201/502/19 202/503/19 204/504/19 203/505/19
f 205/506/20 206/507/20 208/508/20 207/509/20
