# Blender v2.80 (sub 75) OBJ File: 'equipment.blend'
# www.blender.org
mtllib sentinels_plackart.mtl
o SENTINELS_PLACKART_Cube.031
v 0.218750 0.031250 0.656200
v 0.281250 0.281250 0.593700
v 0.218750 0.031250 0.343700
v 0.281250 0.281250 0.406200
v 0.468750 -0.031250 0.656200
v 0.468750 0.406250 0.656200
v 0.468750 0.406250 0.593700
v 0.468750 -0.031250 0.593700
v 0.218750 0.281250 0.343700
v 0.218750 0.281250 0.656200
v 0.281250 0.031250 0.406200
v 0.281250 0.031250 0.593700
v 0.281250 0.031250 0.656200
v 0.281250 0.281250 0.656200
v 0.781250 0.031250 0.656200
v 0.718750 0.281250 0.593700
v 0.781250 0.031250 0.343700
v 0.718750 0.281250 0.406200
v 0.781250 0.281250 0.343700
v 0.781250 0.281250 0.656200
v 0.718750 0.031250 0.406200
v 0.718750 0.031250 0.593700
v 0.718750 0.031250 0.656200
v 0.718750 0.281250 0.656200
v 0.531250 -0.031250 0.656200
v 0.531250 0.406250 0.656200
v 0.531250 0.406250 0.593700
v 0.531250 -0.031250 0.593700
v 0.500000 0.031250 0.406200
v 0.500000 0.281250 0.406200
v 0.500000 0.281250 0.343700
v 0.500000 0.031250 0.343700
vt 0.312500 0.250000
vt 0.000000 0.250000
vt 0.000000 0.500000
vt 0.312500 0.500000
vt 0.281250 0.000000
vt 0.000000 0.000000
vt 0.000000 0.250000
vt 0.281250 0.250000
vt 0.750000 0.250000
vt 0.687500 0.250000
vt 0.687500 0.312500
vt 0.750000 0.312500
vt 0.750000 0.687500
vt 0.750000 0.750000
vt 0.687500 0.750000
vt 0.687500 0.687500
vt 0.500000 0.562500
vt 0.562500 0.562500
vt 0.562500 1.000000
vt 0.500000 1.000000
vt 0.937500 0.937500
vt 1.000000 1.000000
vt 0.687500 1.000000
vt 0.750000 0.937500
vt 0.312500 0.500000
vt 0.312500 0.250000
vt 0.500000 0.250000
vt 0.500000 0.500000
vt 0.000000 0.875000
vt 0.000000 0.625000
vt 0.062500 0.625000
vt 0.062500 0.875000
vt 0.500000 1.000000
vt 0.500000 0.562500
vt 0.312500 0.625000
vt 0.312500 0.875000
vt 0.687500 0.000000
vt 0.750000 0.062500
vt 0.687500 0.062500
vt 0.687500 0.250000
vt 0.750000 0.250000
vt 0.687500 0.937500
vt 1.000000 0.000000
vt 0.937500 0.062500
vt 0.250000 0.562500
vt 0.250000 1.000000
vt 0.312500 0.562500
vt 0.312500 1.000000
vt 1.000000 0.718750
vt 0.937500 0.718750
vt 0.312500 0.250000
vt 0.312500 0.500000
vt 0.000000 0.500000
vt 0.000000 0.250000
vt 0.937500 0.281250
vt 1.000000 0.281250
vt 1.000000 -0.000000
vt 0.937500 0.062500
vt 0.531250 0.250000
vt 0.531250 0.000000
vt 0.312500 0.000000
vt 0.312500 0.250000
vt 0.937500 0.937500
vt 0.750000 0.937500
vt 0.687500 1.000000
vt 1.000000 1.000000
vt 0.312500 0.500000
vt 0.500000 0.500000
vt 0.500000 0.250000
vt 0.312500 0.250000
vt 0.062500 0.875000
vt 0.000000 0.875000
vt 0.000000 0.625000
vt 0.062500 0.625000
vt 0.312500 0.875000
vt 0.312500 0.625000
vt 0.687500 -0.000000
vt 0.687500 0.062500
vt 0.750000 0.062500
vt 0.687500 0.937500
vt 0.750000 0.750000
vt 0.687500 0.750000
vt 0.062500 0.875000
vt 0.250000 1.000000
vt 0.250000 0.562500
vt 0.062500 0.625000
vt 0.312500 0.250000
vt 0.312500 0.000000
vt 0.000000 0.000000
vt 0.000000 0.250000
vn -1.0000 0.0000 0.0000
vn 0.0000 0.0000 -1.0000
vn 0.0000 -1.0000 0.0000
vn 0.0000 1.0000 0.0000
vn 1.0000 0.0000 0.0000
vn 0.0000 0.0000 1.0000
vn -0.3162 -0.9487 0.0000
vn -0.5547 0.8321 0.0000
vn 0.3162 -0.9487 0.0000
vn 0.5547 0.8321 0.0000
usemtl SENTINELS_PLACKART
s off
f 3/1/1 1/2/1 10/3/1 9/4/1
f 32/5/2 3/6/2 9/7/2 31/8/2
f 28/9/3 25/10/3 5/11/3 8/12/3
f 27/13/4 7/14/4 6/15/4 26/16/4
f 28/17/2 8/18/2 7/19/2 27/20/2
f 4/21/4 9/22/4 10/23/4 2/24/4
f 2/25/5 12/26/5 11/27/5 4/28/5
f 10/29/6 1/30/6 13/31/6 14/32/6
f 7/33/2 8/34/2 12/35/2 2/36/2
f 1/37/3 12/38/3 13/39/3
f 5/40/7 13/39/7 12/38/7 8/41/7
f 10/23/4 14/42/4 2/24/4
f 1/37/3 3/43/3 11/44/3 12/38/3
f 2/24/8 14/42/8 6/15/8 7/14/8
f 14/32/6 13/31/6 5/45/6 6/46/6
f 25/47/6 26/48/6 6/46/6 5/45/6
f 31/49/4 9/22/4 4/21/4 30/50/4
f 17/51/5 19/52/5 20/53/5 15/54/5
f 29/55/3 32/56/3 17/57/3 21/58/3
f 30/59/6 29/60/6 21/61/6 18/62/6
f 18/63/4 16/64/4 20/65/4 19/66/4
f 16/67/1 18/68/1 21/69/1 22/70/1
f 20/71/6 24/72/6 23/73/6 15/74/6
f 27/20/2 16/75/2 22/76/2 28/17/2
f 15/77/3 23/78/3 22/79/3
f 25/10/9 28/9/9 22/79/9 23/78/9
f 20/65/4 16/64/4 24/80/4
f 15/77/3 22/79/3 21/58/3 17/57/3
f 16/64/10 27/81/10 26/82/10 24/80/10
f 24/83/6 26/84/6 25/85/6 23/86/6
f 4/87/6 11/88/6 29/60/6 30/59/6
f 11/44/3 3/43/3 32/56/3 29/55/3
f 19/66/4 31/49/4 30/50/4 18/63/4
f 17/89/2 32/5/2 31/8/2 19/90/2
