# Blender v2.80 (sub 75) OBJ File: 'signalite.blend'
# www.blender.org
mtllib signalite_seer_body.mtl
o SPIKE_Cube.004
v 0.031250 0.044194 0.000000
v 0.468750 0.044194 0.000000
v 0.031250 0.000000 -0.044194
v 0.468750 0.000000 -0.044194
v 0.031250 0.000000 0.044194
v 0.468750 0.000000 0.044194
v 0.031250 -0.044194 0.000000
v 0.468750 -0.044194 0.000000
v 0.031250 0.044194 -0.037722
v 0.343750 0.044194 -0.037722
v 0.031250 0.000000 -0.081916
v 0.343750 0.000000 -0.081916
v 0.031250 0.000000 0.006472
v 0.343750 0.000000 0.006472
v 0.031250 -0.044194 -0.037722
v 0.343750 -0.044194 -0.037722
v -0.000000 0.044194 0.037722
v 0.375000 0.044194 0.037722
v -0.000000 0.000000 -0.006472
v 0.375000 0.000000 -0.006472
v -0.000000 0.000000 0.081916
v 0.375000 0.000000 0.081916
v 0.000000 -0.044194 0.037722
v 0.375000 -0.044194 0.037722
v -0.000000 0.044194 0.000000
v -0.000000 0.000000 -0.044194
v -0.000000 0.000000 0.044194
v 0.000000 -0.044194 0.000000
v -0.000000 0.044194 -0.037722
v -0.000000 0.000000 -0.081916
v -0.000000 0.000000 0.006472
v 0.000000 -0.044194 -0.037722
vt 0.312500 0.187500
vt 0.750000 0.187500
vt 0.750000 0.125000
vt 0.312500 0.125000
vt 0.312500 0.187500
vt 0.750000 0.187500
vt 0.750000 0.125000
vt 0.312500 0.125000
vt 0.312500 0.250000
vt 0.750000 0.250000
vt 0.750000 0.187500
vt 0.312500 0.187500
vt 0.312500 0.250000
vt 0.750000 0.250000
vt 0.812500 0.125000
vt 0.812500 0.187500
vt 0.312500 0.000000
vt 0.625000 0.000000
vt 0.625000 0.062500
vt 0.312500 0.062500
vt 0.625000 0.000000
vt 0.312500 0.000000
vt 0.312500 0.125000
vt 0.625000 0.125000
vt 0.625000 0.062500
vt 0.312500 0.062500
vt 0.625000 0.125000
vt 0.312500 0.125000
vt 0.625000 0.062500
vt 0.625000 0.000000
vt 0.687500 0.000000
vt 0.687500 0.062500
vt 0.312500 0.000000
vt 0.687500 0.000000
vt 0.687500 0.062500
vt 0.312500 0.062500
vt 0.312500 0.000000
vt 0.687500 0.000000
vt 0.687500 0.062500
vt 0.312500 0.062500
vt 0.687500 0.125000
vt 0.312500 0.125000
vt 0.312500 0.062500
vt 0.687500 0.062500
vt 0.687500 0.125000
vt 0.312500 0.125000
vt 0.687500 0.125000
vt 0.625000 0.125000
vt 0.625000 0.062500
vt 0.312500 0.000000
vt 0.312500 0.062500
vt 0.375000 0.062500
vt 0.375000 0.000000
vt 0.312500 0.125000
vt 0.312500 0.062500
vt 0.375000 0.062500
vt 0.375000 0.125000
vt 0.375000 0.125000
vt 0.375000 0.187500
vt 0.312500 0.125000
vt 0.375000 0.125000
vt 0.312500 0.125000
vt 0.312500 0.187500
vt 0.375000 0.187500
vt 0.375000 0.125000
vt 0.312500 0.000000
vt 0.375000 0.000000
vt 0.375000 0.250000
vt 0.312500 0.250000
vt 0.375000 0.250000
vn -0.0000 0.7071 -0.7071
vn 0.0000 -0.7071 -0.7071
vn 0.0000 -0.7071 0.7071
vn -0.0000 0.7071 0.7071
vn 1.0000 0.0000 0.0000
usemtl SIGNALITE
s off
f 1/1/1 2/2/1 4/3/1 3/4/1
f 3/5/2 4/6/2 8/7/2 7/8/2
f 7/9/3 8/10/3 6/11/3 5/12/3
f 5/13/4 6/14/4 2/2/4 1/1/4
f 8/7/5 4/15/5 2/16/5 6/11/5
f 9/17/1 10/18/1 12/19/1 11/20/1
f 11/20/2 12/19/2 16/21/2 15/22/2
f 15/23/3 16/24/3 14/25/3 13/26/3
f 13/26/4 14/25/4 10/27/4 9/28/4
f 16/29/5 12/30/5 10/31/5 14/32/5
f 17/33/1 18/34/1 20/35/1 19/36/1
f 19/37/2 20/38/2 24/39/2 23/40/2
f 23/40/3 24/39/3 22/41/3 21/42/3
f 21/43/4 22/44/4 18/45/4 17/46/4
f 24/39/5 20/47/5 18/48/5 22/49/5
f 3/50/2 7/51/2 28/52/2 26/53/2
f 13/54/4 9/55/4 29/56/4 31/57/4
f 1/1/1 3/4/1 26/58/1 25/59/1
f 7/51/3 5/60/3 27/61/3 28/52/3
f 11/62/2 15/63/2 32/64/2 30/65/2
f 9/55/1 11/66/1 30/67/1 29/56/1
f 5/13/4 1/1/4 25/59/4 27/68/4
f 15/63/3 13/69/3 31/70/3 32/64/3
o SEER_BODY_Cube
v -0.062500 -0.093750 0.093750
v -0.062500 0.093750 0.093750
v -0.062500 -0.093750 -0.093750
v -0.062500 0.093750 -0.093750
v 0.000000 -0.093750 0.093750
v 0.000000 0.093750 0.093750
v 0.000000 -0.093750 -0.093750
v 0.000000 0.093750 -0.093750
v -0.062500 0.031250 -0.156250
v -0.062500 -0.031250 -0.156250
v 0.000000 -0.031250 -0.156250
v 0.000000 0.031250 -0.156250
v -0.062500 -0.031250 0.156250
v -0.062500 0.031250 0.156250
v 0.000000 0.031250 0.156250
v 0.000000 -0.031250 0.156250
v 0.000000 -0.015625 0.140625
v 0.000000 0.015625 0.140625
v 0.000000 -0.015625 0.109375
v 0.000000 0.015625 0.109375
v 0.125000 -0.015625 0.140625
v 0.125000 0.015625 0.140625
v 0.125000 -0.015625 0.109375
v 0.125000 0.015625 0.109375
v -0.062500 -0.015625 0.140625
v -0.062500 0.015625 0.140625
v -0.062500 -0.015625 0.109375
v -0.062500 0.015625 0.109375
v -0.187500 -0.015625 0.140625
v -0.187500 0.015625 0.140625
v -0.187500 -0.015625 0.109375
v -0.187500 0.015625 0.109375
v 0.187500 0.000000 0.125000
v -0.125000 0.062500 -0.062500
v -0.125000 0.062500 0.062500
v -0.125000 -0.062500 0.062500
v -0.125000 -0.062500 -0.062500
v -0.062500 -0.062500 -0.062500
v -0.062500 -0.062500 0.062500
v -0.062500 0.062500 0.062500
v -0.062500 0.062500 -0.062500
v -0.375000 0.062500 -0.062500
v -0.375000 0.062500 0.062500
v -0.375000 -0.062500 0.062500
v -0.375000 -0.062500 -0.062500
v -0.312500 -0.062500 -0.062500
v -0.312500 -0.062500 0.062500
v -0.312500 0.062500 0.062500
v -0.312500 0.062500 -0.062500
v -0.125000 0.044194 0.000000
v -0.125000 0.000000 0.044194
v -0.125000 -0.044194 0.000000
v -0.125000 0.000000 -0.044194
v -0.312500 0.044194 0.000000
v -0.312500 0.000000 -0.044194
v -0.312500 0.000000 0.044194
v -0.312500 -0.044194 0.000000
v -0.375000 0.044194 0.000000
v -0.375000 0.000000 -0.044194
v -0.375000 0.000000 0.044194
v -0.375000 -0.044194 0.000000
v -0.406250 0.044194 0.000000
v -0.406250 0.000000 -0.044194
v -0.406250 0.000000 0.044194
v -0.406250 -0.044194 0.000000
v -0.437500 0.000000 0.000000
v 0.000000 -0.015625 -0.109375
v 0.000000 0.015625 -0.109375
v 0.000000 -0.015625 -0.140625
v 0.000000 0.015625 -0.140625
v 0.125000 -0.015625 -0.109375
v 0.125000 0.015625 -0.109375
v 0.125000 -0.015625 -0.140625
v 0.125000 0.015625 -0.140625
v -0.062500 -0.015625 -0.109375
v -0.062500 0.015625 -0.109375
v -0.062500 -0.015625 -0.140625
v -0.062500 0.015625 -0.140625
v -0.187500 -0.015625 -0.109375
v -0.187500 0.015625 -0.109375
v -0.187500 -0.015625 -0.140625
v -0.187500 0.015625 -0.140625
v 0.187500 0.000000 -0.125000
vt 0.875000 0.562500
vt 0.875000 0.500000
vt 0.937500 0.500000
vt 0.937500 0.562500
vt 0.562500 0.437500
vt 0.562500 0.375000
vt 0.500000 0.375000
vt 0.500000 0.437500
vt 0.687500 0.562500
vt 0.687500 0.500000
vt 0.750000 0.437500
vt 0.750000 0.375000
vt 1.000000 0.500000
vt 1.000000 0.562500
vt 0.812500 0.437500
vt 0.812500 0.375000
vt 0.625000 0.562500
vt 0.812500 0.562500
vt 0.812500 0.375000
vt 0.625000 0.375000
vt 0.375000 0.437500
vt 0.437500 0.437500
vt 0.437500 0.500000
vt 0.375000 0.500000
vt 0.875000 0.500000
vt 0.875000 0.437500
vt 0.625000 0.562500
vt 0.625000 0.500000
vt 0.375000 0.625000
vt 0.375000 0.562500
vt 0.500000 0.562500
vt 0.500000 0.625000
vt 0.750000 0.312500
vt 0.750000 0.250000
vt 0.812500 0.312500
vt 0.500000 0.562500
vt 0.500000 0.625000
vt 0.375000 0.625000
vt 0.375000 0.562500
vt 0.375000 0.687500
vt 0.500000 0.687500
vt 0.500000 0.625000
vt 0.375000 0.625000
vt 0.500000 0.687500
vt 0.375000 0.687500
vt 0.312500 0.625000
vt 0.312500 0.687500
vt 0.437500 0.687500
vt 0.437500 0.625000
vt 0.312500 0.687500
vt 0.312500 0.625000
vt 0.437500 0.625000
vt 0.437500 0.687500
vt 0.312500 0.625000
vt 0.312500 0.562500
vt 0.437500 0.562500
vt 0.437500 0.625000
vt 0.312500 0.562500
vt 0.437500 0.562500
vt 0.750000 0.312500
vt 0.750000 0.375000
vt 0.812500 0.375000
vt 0.750000 0.375000
vt 0.750000 0.312500
vt 0.750000 0.250000
vt 0.437500 0.312500
vt 0.562500 0.312500
vt 0.562500 0.375000
vt 0.437500 0.375000
vt 0.437500 0.375000
vt 0.562500 0.375000
vt 0.562500 0.312500
vt 0.437500 0.312500
vt 0.750000 0.375000
vt 0.875000 0.375000
vt 0.875000 0.312500
vt 0.750000 0.312500
vt 0.562500 0.312500
vt 0.437500 0.312500
vt 0.437500 0.375000
vt 0.562500 0.375000
vt 0.687500 0.250000
vt 0.687500 0.375000
vt 0.562500 0.375000
vt 0.562500 0.250000
vt 0.750000 0.375000
vt 0.750000 0.312500
vt 0.750000 0.312500
vt 0.875000 0.312500
vt 0.875000 0.375000
vt 0.750000 0.375000
vt 0.562500 0.312500
vt 0.562500 0.375000
vt 0.687500 0.250000
vt 0.687500 0.375000
vt 0.562500 0.375000
vt 0.562500 0.250000
vt 0.750000 0.312500
vt 0.750000 0.375000
vt 0.687500 0.250000
vt 0.562500 0.250000
vt 0.562500 0.375000
vt 0.687500 0.375000
vt 0.416667 0.041667
vt 0.416667 0.208333
vt 0.583333 0.208333
vt 0.583333 0.041667
vt 0.562500 0.187500
vt 0.562500 0.250000
vt 0.625000 0.187500
vt 0.437500 0.062500
vt 0.375000 0.062500
vt 0.375000 0.250000
vt 0.437500 0.250000
vt 0.375000 0.062500
vt 0.437500 0.062500
vt 0.437500 0.250000
vt 0.375000 0.250000
vt 0.500000 0.062500
vt 0.500000 0.250000
vt 0.437500 0.062500
vt 0.500000 0.062500
vt 0.500000 0.250000
vt 0.437500 0.250000
vt 0.500000 0.187500
vt 0.500000 0.250000
vt 0.562500 0.250000
vt 0.562500 0.187500
vt 0.687500 0.250000
vt 0.687500 0.187500
vt 0.750000 0.187500
vt 0.687500 0.187500
vt 0.687500 0.250000
vt 0.500000 0.187500
vt 0.500000 0.250000
vt 0.625000 0.187500
vt 0.625000 0.250000
vt 0.625000 0.250000
vt 0.625000 0.187500
vt 0.812500 0.375000
vt 0.812500 0.562500
vt 0.625000 0.562500
vt 0.625000 0.375000
vt 0.562500 0.500000
vt 0.562500 0.437500
vt 0.875000 0.437500
vt 0.875000 0.500000
vt 0.562500 0.437500
vt 0.562500 0.500000
vt 0.375000 0.625000
vt 0.375000 0.562500
vt 0.500000 0.562500
vt 0.500000 0.625000
vt 0.750000 0.312500
vt 0.750000 0.250000
vt 0.812500 0.312500
vt 0.500000 0.562500
vt 0.500000 0.625000
vt 0.375000 0.625000
vt 0.375000 0.562500
vt 0.375000 0.687500
vt 0.500000 0.687500
vt 0.500000 0.625000
vt 0.375000 0.625000
vt 0.500000 0.687500
vt 0.375000 0.687500
vt 0.312500 0.625000
vt 0.312500 0.687500
vt 0.437500 0.687500
vt 0.437500 0.625000
vt 0.312500 0.687500
vt 0.312500 0.625000
vt 0.437500 0.625000
vt 0.437500 0.687500
vt 0.312500 0.625000
vt 0.312500 0.562500
vt 0.437500 0.562500
vt 0.437500 0.625000
vt 0.312500 0.562500
vt 0.437500 0.562500
vt 0.750000 0.312500
vt 0.750000 0.375000
vt 0.812500 0.375000
vt 0.750000 0.375000
vt 0.750000 0.312500
vt 0.750000 0.250000
vn 0.0000 -0.7071 -0.7071
vn 0.0000 0.7071 0.7071
vn 0.0000 -1.0000 0.0000
vn 0.0000 1.0000 0.0000
vn 0.0000 0.0000 -1.0000
vn 0.0000 0.7071 -0.7071
vn -1.0000 0.0000 0.0000
vn 0.0000 0.0000 1.0000
vn 0.0000 -0.7071 0.7071
vn 0.2425 0.0000 0.9701
vn 0.2425 -0.9701 0.0000
vn 0.2425 0.9701 0.0000
vn 0.2425 0.0000 -0.9701
vn 1.0000 0.0000 0.0000
vn -0.7071 0.5000 0.5000
vn -0.7071 -0.5000 -0.5000
vn -0.7071 0.5000 -0.5000
vn -0.7071 -0.5000 0.5000
usemtl SIGNALITE
s off
f 39/71/6 35/72/6 42/73/6 43/74/6
f 38/75/7 34/76/7 46/77/7 47/78/7
f 35/72/8 39/71/8 37/79/8 33/80/8
f 40/81/9 36/82/9 34/76/9 38/75/9
f 42/73/10 41/83/10 44/84/10 43/74/10
f 36/82/11 40/81/11 44/85/11 41/86/11
f 34/87/12 36/88/12 35/89/12 33/90/12
f 48/91/13 47/92/13 46/93/13 45/94/13
f 35/89/12 36/88/12 41/95/12 42/96/12
f 33/80/14 37/79/14 48/97/14 45/98/14
f 51/99/10 52/100/10 56/101/10 55/102/10
f 54/103/15 53/104/15 65/105/15
f 53/106/13 54/107/13 50/108/13 49/109/13
f 51/110/8 55/111/8 53/112/8 49/113/8
f 56/114/9 52/115/9 50/108/9 54/107/9
f 58/116/9 60/117/9 64/118/9 62/119/9
f 59/120/8 57/121/8 61/122/8 63/123/8
f 60/124/10 59/125/10 63/126/10 64/127/10
f 57/128/13 58/116/13 62/119/13 61/129/13
f 53/130/16 55/131/16 65/132/16
f 56/133/17 54/103/17 65/132/17
f 55/134/18 56/135/18 65/105/18
f 81/136/10 78/137/10 77/138/10 74/139/10
f 73/140/10 70/141/10 69/142/10 66/143/10
f 70/144/8 71/145/8 68/146/8 69/147/8
f 72/148/9 73/149/9 66/150/9 67/151/9
f 68/152/12 67/153/12 66/154/12 69/155/12
f 71/145/13 72/156/13 67/157/13 68/146/13
f 78/158/8 79/159/8 76/160/8 77/161/8
f 80/162/9 81/136/9 74/139/9 75/163/9
f 76/164/12 75/165/12 74/166/12 77/167/12
f 79/159/13 80/168/13 75/169/13 76/160/13
f 79/170/19 78/171/19 81/172/19 80/173/19
f 84/174/19 85/175/19 82/176/19 83/177/19
f 96/178/20 94/179/20 98/180/20
f 84/181/14 83/182/14 88/183/14 89/184/14
f 82/185/11 85/186/11 87/187/11 86/188/11
f 85/189/6 84/181/6 89/184/6 87/190/6
f 83/191/7 82/192/7 86/193/7 88/194/7
f 91/195/6 93/196/6 97/197/6 95/198/6
f 95/198/21 97/197/21 98/180/21
f 94/199/22 95/200/22 98/201/22
f 97/202/23 96/203/23 98/201/23
f 92/204/7 90/205/7 94/179/7 96/178/7
f 93/206/14 92/207/14 96/203/14 97/202/14
f 90/208/11 91/209/11 95/200/11 94/199/11
f 39/210/19 40/211/19 38/212/19 37/213/19
f 37/213/19 38/212/19 47/214/19 48/215/19
f 40/211/19 39/210/19 43/216/19 44/217/19
f 34/87/12 33/90/12 45/218/12 46/219/12
f 101/220/10 102/221/10 106/222/10 105/223/10
f 104/224/15 103/225/15 115/226/15
f 103/227/13 104/228/13 100/229/13 99/230/13
f 101/231/8 105/232/8 103/233/8 99/234/8
f 106/235/9 102/236/9 100/229/9 104/228/9
f 108/237/9 110/238/9 114/239/9 112/240/9
f 109/241/8 107/242/8 111/243/8 113/244/8
f 110/245/10 109/246/10 113/247/10 114/248/10
f 107/249/13 108/237/13 112/240/13 111/250/13
f 103/251/16 105/252/16 115/253/16
f 106/254/17 104/224/17 115/253/17
f 105/255/18 106/256/18 115/226/18
