# Blender v2.80 (sub 75) OBJ File: 'signalite.blend'
# www.blender.org
mtllib signalite_spike_meticulous.mtl
o SPIKE_METICULOUS_Cube.009
v 0.156250 0.044194 -0.037722
v 0.156250 0.000000 -0.081916
v 0.156250 0.000000 0.006472
v 0.156250 -0.044194 -0.037722
v 0.187500 0.044194 0.037722
v 0.187500 0.000000 -0.006472
v 0.187500 0.000000 0.081916
v 0.187500 -0.044194 0.037722
v 0.031250 0.044194 -0.037722
v 0.031250 0.000000 -0.081916
v 0.031250 -0.044194 -0.037722
v 0.031250 0.000000 0.006472
v -0.000000 0.044194 0.037722
v -0.000000 0.000000 -0.006472
v 0.000000 -0.044194 0.037722
v -0.000000 0.000000 0.081916
v 0.031250 0.044194 0.000000
v 0.468750 0.044194 0.000000
v 0.031250 0.000000 -0.044194
v 0.468750 0.000000 -0.044194
v 0.031250 0.000000 0.044194
v 0.468750 0.000000 0.044194
v 0.031250 -0.044194 0.000000
v 0.468750 -0.044194 0.000000
v -0.000000 0.044194 -0.037722
v -0.000000 0.000000 -0.081916
v 0.000000 -0.044194 -0.037722
v -0.000000 0.000000 0.006472
v -0.000000 0.044194 0.000000
v -0.000000 0.000000 -0.044194
v -0.000000 0.000000 0.044194
v 0.000000 -0.044194 0.000000
v 0.281250 0.015625 0.015625
v 0.281250 0.015625 -0.015625
v 0.343750 0.015625 0.015625
v 0.343750 0.015625 -0.015625
v 0.343750 0.140625 0.031250
v 0.343750 0.140625 -0.031250
v 0.281250 0.140625 -0.031250
v 0.281250 0.140625 0.031250
v 0.281250 -0.015625 -0.015625
v 0.281250 -0.015625 0.015625
v 0.343750 -0.015625 -0.015625
v 0.343750 -0.015625 0.015625
v 0.343750 -0.140625 -0.031250
v 0.343750 -0.140625 0.031250
v 0.281250 -0.140625 0.031250
v 0.281250 -0.140625 -0.031250
v 0.281250 0.035041 0.110485
v 0.281250 0.079235 0.154680
v 0.281250 0.079235 0.066291
v 0.281250 0.123430 0.110485
v 0.343750 0.035041 0.110485
v 0.343750 0.079235 0.154680
v 0.343750 0.079235 0.066291
v 0.343750 0.123430 0.110485
v 0.281250 -0.035041 -0.110485
v 0.281250 -0.079235 -0.154680
v 0.281250 -0.079235 -0.066291
v 0.281250 -0.123430 -0.110485
v 0.343750 -0.035041 -0.110485
v 0.343750 -0.079235 -0.154680
v 0.343750 -0.079235 -0.066291
v 0.343750 -0.123430 -0.110485
v 0.281250 0.079235 -0.066291
v 0.281250 0.123430 -0.110485
v 0.281250 0.035041 -0.110485
v 0.281250 0.079235 -0.154680
v 0.343750 0.079235 -0.066291
v 0.343750 0.123430 -0.110485
v 0.343750 0.035041 -0.110485
v 0.343750 0.079235 -0.154680
v 0.281250 -0.079235 0.066291
v 0.281250 -0.123430 0.110485
v 0.281250 -0.035041 0.110485
v 0.281250 -0.079235 0.154680
v 0.343750 -0.079235 0.066291
v 0.343750 -0.123430 0.110485
v 0.343750 -0.035041 0.110485
v 0.343750 -0.079235 0.154680
vt 0.375000 0.062500
vt 0.562500 0.062500
vt 0.562500 0.000000
vt 0.375000 0.000000
vt 0.437500 -0.000000
vt 0.562500 -0.000000
vt 0.562500 0.062500
vt 0.437500 0.062500
vt 0.562500 -0.000000
vt 0.437500 -0.000000
vt 0.437500 0.125000
vt 0.562500 0.125000
vt 0.562500 0.062500
vt 0.437500 0.062500
vt 0.562500 0.062500
vt 0.562500 0.000000
vt 0.625000 0.000000
vt 0.625000 0.062500
vt 0.375000 0.125000
vt 0.562500 0.125000
vt 0.562500 0.062500
vt 0.375000 0.062500
vt 0.375000 0.000000
vt 0.562500 0.000000
vt 0.562500 0.062500
vt 0.375000 0.062500
vt 0.562500 0.125000
vt 0.375000 0.125000
vt 0.562500 0.125000
vt 0.625000 0.125000
vt 0.625000 0.062500
vt 0.562500 0.125000
vt 0.437500 0.125000
vt 0.312500 0.187500
vt 0.750000 0.187500
vt 0.750000 0.250000
vt 0.312500 0.250000
vt 0.312500 0.187500
vt 0.750000 0.187500
vt 0.750000 0.125000
vt 0.312500 0.125000
vt 0.312500 0.250000
vt 0.750000 0.250000
vt 0.750000 0.187500
vt 0.312500 0.187500
vt 0.312500 0.125000
vt 0.750000 0.125000
vt 0.812500 0.125000
vt 0.812500 0.187500
vt 0.437500 0.125000
vt 0.437500 0.187500
vt 0.375000 0.187500
vt 0.375000 0.125000
vt 0.437500 0.000000
vt 0.437500 0.062500
vt 0.375000 0.062500
vt 0.375000 0.000000
vt 0.375000 0.125000
vt 0.375000 0.062500
vt 0.437500 0.062500
vt 0.437500 0.125000
vt 0.375000 0.187500
vt 0.375000 0.125000
vt 0.437500 0.125000
vt 0.437500 0.187500
vt 0.437500 0.250000
vt 0.375000 0.250000
vt 0.375000 0.000000
vt 0.437500 0.000000
vt 0.437500 0.125000
vt 0.375000 0.125000
vt 0.375000 0.250000
vt 0.437500 0.250000
vt 0.687500 0.250000
vt 0.687500 0.312500
vt 0.562500 0.312500
vt 0.562500 0.250000
vt 0.875000 0.312500
vt 0.875000 0.375000
vt 0.750000 0.375000
vt 0.750000 0.312500
vt 0.875000 0.312500
vt 0.875000 0.375000
vt 0.750000 0.375000
vt 0.750000 0.312500
vt 0.687500 0.250000
vt 0.687500 0.312500
vt 0.562500 0.312500
vt 0.562500 0.250000
vt 0.500000 0.312500
vt 0.500000 0.250000
vt 0.687500 0.250000
vt 0.687500 0.312500
vt 0.562500 0.312500
vt 0.562500 0.250000
vt 0.875000 0.312500
vt 0.875000 0.375000
vt 0.750000 0.375000
vt 0.750000 0.312500
vt 0.875000 0.312500
vt 0.875000 0.375000
vt 0.750000 0.375000
vt 0.750000 0.312500
vt 0.687500 0.250000
vt 0.687500 0.312500
vt 0.562500 0.312500
vt 0.562500 0.250000
vt 0.500000 0.312500
vt 0.500000 0.250000
vt 0.750000 0.312500
vt 0.812500 0.312500
vt 0.812500 0.375000
vt 0.750000 0.375000
vt 0.562500 0.312500
vt 0.562500 0.375000
vt 0.500000 0.375000
vt 0.500000 0.312500
vt 0.750000 0.250000
vt 0.812500 0.250000
vt 0.812500 0.312500
vt 0.750000 0.312500
vt 0.562500 0.312500
vt 0.562500 0.375000
vt 0.500000 0.375000
vt 0.500000 0.312500
vt 0.500000 0.312500
vt 0.562500 0.312500
vt 0.562500 0.250000
vt 0.500000 0.250000
vt 0.562500 0.312500
vt 0.500000 0.312500
vt 0.500000 0.250000
vt 0.562500 0.250000
vt 0.750000 0.312500
vt 0.812500 0.312500
vt 0.812500 0.375000
vt 0.750000 0.375000
vt 0.500000 0.375000
vt 0.500000 0.312500
vt 0.562500 0.312500
vt 0.562500 0.375000
vt 0.750000 0.250000
vt 0.812500 0.250000
vt 0.812500 0.312500
vt 0.750000 0.312500
vt 0.500000 0.375000
vt 0.500000 0.312500
vt 0.562500 0.312500
vt 0.562500 0.375000
vt 0.562500 0.312500
vt 0.500000 0.312500
vt 0.562500 0.375000
vt 0.500000 0.375000
vt 0.500000 0.312500
vt 0.562500 0.312500
vt 0.750000 0.312500
vt 0.812500 0.312500
vt 0.812500 0.375000
vt 0.750000 0.375000
vt 0.562500 0.312500
vt 0.562500 0.375000
vt 0.500000 0.375000
vt 0.500000 0.312500
vt 0.750000 0.250000
vt 0.812500 0.250000
vt 0.812500 0.312500
vt 0.750000 0.312500
vt 0.562500 0.312500
vt 0.562500 0.375000
vt 0.500000 0.375000
vt 0.500000 0.312500
vt 0.500000 0.312500
vt 0.562500 0.312500
vt 0.562500 0.250000
vt 0.500000 0.250000
vt 0.562500 0.312500
vt 0.500000 0.312500
vt 0.500000 0.250000
vt 0.562500 0.250000
vt 0.750000 0.312500
vt 0.812500 0.312500
vt 0.812500 0.375000
vt 0.750000 0.375000
vt 0.500000 0.375000
vt 0.500000 0.312500
vt 0.562500 0.312500
vt 0.562500 0.375000
vt 0.750000 0.250000
vt 0.812500 0.250000
vt 0.812500 0.312500
vt 0.750000 0.312500
vt 0.500000 0.375000
vt 0.500000 0.312500
vt 0.562500 0.312500
vt 0.562500 0.375000
vt 0.562500 0.312500
vt 0.500000 0.312500
vt 0.562500 0.375000
vt 0.500000 0.375000
vt 0.500000 0.312500
vt 0.562500 0.312500
vn -0.0000 0.7071 0.7071
vn -0.0000 0.7071 -0.7071
vn 0.0000 -0.7071 -0.7071
vn 0.0000 -0.7071 0.7071
vn 1.0000 0.0000 0.0000
vn 0.0000 -0.1240 -0.9923
vn 0.0000 -0.1240 0.9923
vn -1.0000 0.0000 0.0000
vn 0.0000 1.0000 0.0000
vn 0.0000 0.1240 0.9923
vn 0.0000 0.1240 -0.9923
vn 0.0000 -1.0000 0.0000
usemtl SIGNALITE
s off
f 16/1/1 7/2/1 5/3/1 13/4/1
f 9/5/2 1/6/2 2/7/2 10/8/2
f 10/8/3 2/7/3 4/9/3 11/10/3
f 11/11/4 4/12/4 3/13/4 12/14/4
f 4/15/5 2/16/5 1/17/5 3/18/5
f 13/19/2 5/20/2 6/21/2 14/22/2
f 14/23/3 6/24/3 8/25/3 15/26/3
f 15/26/4 8/25/4 7/27/4 16/28/4
f 8/25/5 6/29/5 5/30/5 7/31/5
f 12/14/1 3/13/1 1/32/1 9/33/1
f 17/34/2 18/35/2 20/36/2 19/37/2
f 19/38/3 20/39/3 24/40/3 23/41/3
f 23/42/4 24/43/4 22/44/4 21/45/4
f 21/46/1 22/47/1 18/35/1 17/34/1
f 24/40/5 20/48/5 18/49/5 22/44/5
f 19/50/3 23/51/3 32/52/3 30/53/3
f 10/54/3 11/55/3 27/56/3 26/57/3
f 12/58/1 9/59/1 25/60/1 28/61/1
f 17/62/2 19/63/2 30/64/2 29/65/2
f 23/51/4 21/66/4 31/67/4 32/52/4
f 9/59/2 10/68/2 26/69/2 25/60/2
f 11/55/4 12/70/4 28/71/4 27/56/4
f 21/72/1 17/62/1 29/65/1 31/73/1
f 35/74/5 36/75/5 38/76/5 37/77/5
f 36/78/6 34/79/6 39/80/6 38/81/6
f 33/82/7 35/83/7 37/84/7 40/85/7
f 34/86/8 33/87/8 40/88/8 39/89/8
f 38/76/9 39/90/9 40/91/9 37/77/9
f 43/92/5 44/93/5 46/94/5 45/95/5
f 44/96/10 42/97/10 47/98/10 46/99/10
f 41/100/11 43/101/11 45/102/11 48/103/11
f 42/104/8 41/105/8 48/106/8 47/107/8
f 46/94/12 47/108/12 48/109/12 45/95/12
f 49/110/8 50/111/8 52/112/8 51/113/8
f 51/114/2 52/115/2 56/116/2 55/117/2
f 55/118/5 56/119/5 54/120/5 53/121/5
f 53/122/4 54/123/4 50/124/4 49/125/4
f 51/126/3 55/127/3 53/128/3 49/129/3
f 56/130/1 52/131/1 50/132/1 54/133/1
f 57/134/8 58/135/8 60/136/8 59/137/8
f 59/138/4 60/139/4 64/140/4 63/141/4
f 63/142/5 64/143/5 62/144/5 61/145/5
f 61/146/2 62/147/2 58/148/2 57/149/2
f 59/138/1 63/141/1 61/150/1 57/151/1
f 64/152/3 60/153/3 58/154/3 62/155/3
f 65/156/8 66/157/8 68/158/8 67/159/8
f 67/160/3 68/161/3 72/162/3 71/163/3
f 71/164/5 72/165/5 70/166/5 69/167/5
f 69/168/1 70/169/1 66/170/1 65/171/1
f 67/172/4 71/173/4 69/174/4 65/175/4
f 72/176/2 68/177/2 66/178/2 70/179/2
f 73/180/8 74/181/8 76/182/8 75/183/8
f 75/184/1 76/185/1 80/186/1 79/187/1
f 79/188/5 80/189/5 78/190/5 77/191/5
f 77/192/3 78/193/3 74/194/3 73/195/3
f 75/184/2 79/187/2 77/196/2 73/197/2
f 80/198/4 76/199/4 74/200/4 78/201/4
