# Blender v2.80 (sub 75) OBJ File: 'signalite.blend'
# www.blender.org
mtllib signalite_spike_chaotic.mtl
o SPIKE_CHAOTIC_Cube.016
v 0.156250 0.044194 -0.037722
v 0.156250 0.000000 -0.081916
v 0.156250 0.000000 0.006472
v 0.156250 -0.044194 -0.037722
v 0.187500 0.044194 0.037722
v 0.187500 0.000000 -0.006472
v 0.187500 0.000000 0.081916
v 0.187500 -0.044194 0.037722
v 0.031250 0.044194 -0.037722
v 0.031250 0.000000 -0.081916
v 0.031250 -0.044194 -0.037722
v 0.031250 0.000000 0.006472
v -0.000000 0.044194 0.037722
v -0.000000 0.000000 -0.006472
v 0.000000 -0.044194 0.037722
v -0.000000 0.000000 0.081916
v 0.218750 0.062500 0.031250
v 0.218750 0.125000 0.031250
v 0.218750 0.062500 -0.031250
v 0.218750 0.125000 -0.031250
v 0.281250 0.062500 0.031250
v 0.281250 0.125000 0.031250
v 0.281250 0.062500 -0.031250
v 0.281250 0.125000 -0.031250
v 0.218750 -0.062500 -0.031250
v 0.218750 -0.125000 -0.031250
v 0.218750 -0.062500 0.031250
v 0.218750 -0.125000 0.031250
v 0.281250 -0.062500 -0.031250
v 0.281250 -0.125000 -0.031250
v 0.281250 -0.062500 0.031250
v 0.281250 -0.125000 0.031250
v 0.281250 0.065565 0.073938
v 0.281250 0.119691 0.105188
v 0.281250 0.096815 0.019812
v 0.281250 0.150941 0.051062
v 0.343750 0.065565 0.073938
v 0.343750 0.119691 0.105188
v 0.343750 0.096815 0.019812
v 0.343750 0.150941 0.051062
v 0.281250 -0.065565 -0.073938
v 0.281250 -0.119691 -0.105188
v 0.281250 -0.096815 -0.019812
v 0.281250 -0.150941 -0.051062
v 0.343750 -0.065565 -0.073938
v 0.343750 -0.119691 -0.105188
v 0.343750 -0.096815 -0.019812
v 0.343750 -0.150941 -0.051062
v 0.343750 0.035437 0.123878
v 0.343750 0.066687 0.178005
v 0.343750 0.089563 0.092628
v 0.343750 0.120813 0.146755
v 0.406250 0.035437 0.123878
v 0.406250 0.066687 0.178005
v 0.406250 0.089563 0.092628
v 0.406250 0.120813 0.146755
v 0.343750 -0.035437 -0.123878
v 0.343750 -0.066687 -0.178005
v 0.343750 -0.089563 -0.092628
v 0.343750 -0.120813 -0.146755
v 0.406250 -0.035437 -0.123878
v 0.406250 -0.066687 -0.178005
v 0.406250 -0.089563 -0.092628
v 0.406250 -0.120813 -0.146755
v 0.406250 0.031250 -0.125000
v 0.406250 0.031250 -0.187500
v 0.406250 -0.031250 -0.125000
v 0.406250 -0.031250 -0.187500
v 0.468750 0.031250 -0.125000
v 0.468750 0.031250 -0.187500
v 0.468750 -0.031250 -0.125000
v 0.468750 -0.031250 -0.187500
v 0.406250 -0.031250 0.125000
v 0.406250 -0.031250 0.187500
v 0.406250 0.031250 0.125000
v 0.406250 0.031250 0.187500
v 0.468750 -0.031250 0.125000
v 0.468750 -0.031250 0.187500
v 0.468750 0.031250 0.125000
v 0.468750 0.031250 0.187500
v 0.031250 0.044194 0.000000
v 0.468750 0.044194 0.000000
v 0.031250 0.000000 -0.044194
v 0.468750 0.000000 -0.044194
v 0.031250 0.000000 0.044194
v 0.468750 0.000000 0.044194
v 0.031250 -0.044194 0.000000
v 0.468750 -0.044194 0.000000
v -0.000000 0.044194 -0.037722
v -0.000000 0.000000 -0.081916
v 0.000000 -0.044194 -0.037722
v -0.000000 0.000000 0.006472
v -0.000000 0.044194 0.000000
v -0.000000 0.000000 -0.044194
v -0.000000 0.000000 0.044194
v 0.000000 -0.044194 0.000000
vt 0.375000 0.062500
vt 0.562500 0.062500
vt 0.562500 0.000000
vt 0.375000 0.000000
vt 0.437500 -0.000000
vt 0.562500 -0.000000
vt 0.562500 0.062500
vt 0.437500 0.062500
vt 0.562500 -0.000000
vt 0.437500 -0.000000
vt 0.437500 0.125000
vt 0.562500 0.125000
vt 0.562500 0.062500
vt 0.437500 0.062500
vt 0.562500 0.062500
vt 0.562500 0.000000
vt 0.625000 0.000000
vt 0.625000 0.062500
vt 0.375000 0.125000
vt 0.562500 0.125000
vt 0.562500 0.062500
vt 0.375000 0.062500
vt 0.375000 0.000000
vt 0.562500 0.000000
vt 0.562500 0.062500
vt 0.375000 0.062500
vt 0.562500 0.125000
vt 0.375000 0.125000
vt 0.562500 0.125000
vt 0.625000 0.125000
vt 0.625000 0.062500
vt 0.562500 0.125000
vt 0.437500 0.125000
vt 0.750000 0.312500
vt 0.812500 0.312500
vt 0.812500 0.375000
vt 0.750000 0.375000
vt 0.562500 0.312500
vt 0.562500 0.375000
vt 0.500000 0.375000
vt 0.500000 0.312500
vt 0.750000 0.250000
vt 0.812500 0.250000
vt 0.812500 0.312500
vt 0.750000 0.312500
vt 0.562500 0.312500
vt 0.562500 0.375000
vt 0.500000 0.375000
vt 0.500000 0.312500
vt 0.500000 0.312500
vt 0.562500 0.312500
vt 0.562500 0.250000
vt 0.500000 0.250000
vt 0.562500 0.312500
vt 0.500000 0.312500
vt 0.500000 0.250000
vt 0.562500 0.250000
vt 0.750000 0.312500
vt 0.812500 0.312500
vt 0.812500 0.375000
vt 0.750000 0.375000
vt 0.500000 0.375000
vt 0.500000 0.312500
vt 0.562500 0.312500
vt 0.562500 0.375000
vt 0.750000 0.250000
vt 0.812500 0.250000
vt 0.812500 0.312500
vt 0.750000 0.312500
vt 0.500000 0.375000
vt 0.500000 0.312500
vt 0.562500 0.312500
vt 0.562500 0.375000
vt 0.562500 0.312500
vt 0.500000 0.312500
vt 0.562500 0.375000
vt 0.500000 0.375000
vt 0.500000 0.312500
vt 0.562500 0.312500
vt 0.750000 0.312500
vt 0.812500 0.312500
vt 0.812500 0.375000
vt 0.750000 0.375000
vt 0.562500 0.312500
vt 0.625000 0.312500
vt 0.625000 0.375000
vt 0.562500 0.375000
vt 0.750000 0.250000
vt 0.812500 0.250000
vt 0.812500 0.312500
vt 0.750000 0.312500
vt 0.625000 0.312500
vt 0.625000 0.375000
vt 0.562500 0.375000
vt 0.562500 0.312500
vt 0.625000 0.312500
vt 0.625000 0.250000
vt 0.562500 0.250000
vt 0.625000 0.312500
vt 0.562500 0.312500
vt 0.562500 0.250000
vt 0.625000 0.250000
vt 0.750000 0.312500
vt 0.812500 0.312500
vt 0.812500 0.375000
vt 0.750000 0.375000
vt 0.562500 0.375000
vt 0.562500 0.312500
vt 0.625000 0.312500
vt 0.625000 0.375000
vt 0.750000 0.250000
vt 0.812500 0.250000
vt 0.812500 0.312500
vt 0.750000 0.312500
vt 0.625000 0.375000
vt 0.562500 0.375000
vt 0.562500 0.312500
vt 0.625000 0.312500
vt 0.625000 0.312500
vt 0.562500 0.312500
vt 0.625000 0.375000
vt 0.562500 0.375000
vt 0.625000 0.312500
vt 0.750000 0.312500
vt 0.812500 0.312500
vt 0.812500 0.375000
vt 0.750000 0.375000
vt 0.625000 0.312500
vt 0.687500 0.312500
vt 0.687500 0.375000
vt 0.625000 0.375000
vt 0.750000 0.250000
vt 0.812500 0.250000
vt 0.812500 0.312500
vt 0.750000 0.312500
vt 0.687500 0.312500
vt 0.687500 0.375000
vt 0.625000 0.375000
vt 0.625000 0.312500
vt 0.687500 0.312500
vt 0.687500 0.250000
vt 0.625000 0.250000
vt 0.687500 0.312500
vt 0.625000 0.312500
vt 0.625000 0.250000
vt 0.687500 0.250000
vt 0.750000 0.312500
vt 0.812500 0.312500
vt 0.812500 0.375000
vt 0.750000 0.375000
vt 0.625000 0.375000
vt 0.625000 0.312500
vt 0.687500 0.312500
vt 0.687500 0.375000
vt 0.750000 0.250000
vt 0.812500 0.250000
vt 0.812500 0.312500
vt 0.750000 0.312500
vt 0.687500 0.375000
vt 0.625000 0.375000
vt 0.625000 0.312500
vt 0.687500 0.312500
vt 0.687500 0.312500
vt 0.625000 0.312500
vt 0.687500 0.375000
vt 0.625000 0.375000
vt 0.687500 0.312500
vt 0.750000 0.312500
vt 0.812500 0.312500
vt 0.812500 0.375000
vt 0.750000 0.375000
vt 0.687500 0.375000
vt 0.687500 0.312500
vt 0.750000 0.312500
vt 0.750000 0.375000
vt 0.750000 0.250000
vt 0.812500 0.250000
vt 0.812500 0.312500
vt 0.750000 0.312500
vt 0.750000 0.375000
vt 0.687500 0.375000
vt 0.687500 0.312500
vt 0.687500 0.312500
vt 0.750000 0.375000
vt 0.687500 0.375000
vt 0.750000 0.312500
vt 0.750000 0.312500
vt 0.812500 0.312500
vt 0.812500 0.375000
vt 0.750000 0.375000
vt 0.687500 0.312500
vt 0.750000 0.312500
vt 0.750000 0.375000
vt 0.687500 0.375000
vt 0.750000 0.250000
vt 0.812500 0.250000
vt 0.812500 0.312500
vt 0.750000 0.312500
vt 0.750000 0.375000
vt 0.687500 0.375000
vt 0.687500 0.312500
vt 0.750000 0.312500
vt 0.750000 0.250000
vt 0.687500 0.250000
vt 0.750000 0.312500
vt 0.687500 0.312500
vt 0.687500 0.250000
vt 0.750000 0.250000
vt 0.312500 0.187500
vt 0.750000 0.187500
vt 0.750000 0.250000
vt 0.312500 0.250000
vt 0.312500 0.187500
vt 0.750000 0.187500
vt 0.750000 0.125000
vt 0.312500 0.125000
vt 0.312500 0.250000
vt 0.750000 0.250000
vt 0.750000 0.187500
vt 0.312500 0.187500
vt 0.312500 0.125000
vt 0.750000 0.125000
vt 0.812500 0.125000
vt 0.812500 0.187500
vt 0.437500 0.125000
vt 0.437500 0.187500
vt 0.375000 0.187500
vt 0.375000 0.125000
vt 0.437500 0.000000
vt 0.437500 0.062500
vt 0.375000 0.062500
vt 0.375000 0.000000
vt 0.375000 0.125000
vt 0.375000 0.062500
vt 0.437500 0.062500
vt 0.437500 0.125000
vt 0.375000 0.187500
vt 0.375000 0.125000
vt 0.437500 0.125000
vt 0.437500 0.187500
vt 0.437500 0.250000
vt 0.375000 0.250000
vt 0.375000 0.000000
vt 0.437500 0.000000
vt 0.437500 0.125000
vt 0.375000 0.125000
vt 0.375000 0.250000
vt 0.437500 0.250000
vn -0.0000 0.7071 0.7071
vn -0.0000 0.7071 -0.7071
vn 0.0000 -0.7071 -0.7071
vn 0.0000 -0.7071 0.7071
vn 1.0000 0.0000 0.0000
vn -1.0000 -0.0000 0.0000
vn -0.0000 0.0000 -1.0000
vn 0.0000 0.0000 1.0000
vn 0.0000 -1.0000 0.0000
vn 0.0000 1.0000 0.0000
vn -0.0000 0.5000 -0.8660
vn 0.0000 -0.5000 0.8660
vn 0.0000 -0.8660 -0.5000
vn -0.0000 0.8660 0.5000
vn -0.0000 0.8660 -0.5000
vn 0.0000 -0.8660 0.5000
vn 0.0000 -0.5000 -0.8660
vn -0.0000 0.5000 0.8660
usemtl SIGNALITE
s off
f 16/1/1 7/2/1 5/3/1 13/4/1
f 9/5/2 1/6/2 2/7/2 10/8/2
f 10/8/3 2/7/3 4/9/3 11/10/3
f 11/11/4 4/12/4 3/13/4 12/14/4
f 4/15/5 2/16/5 1/17/5 3/18/5
f 13/19/2 5/20/2 6/21/2 14/22/2
f 14/23/3 6/24/3 8/25/3 15/26/3
f 15/26/4 8/25/4 7/27/4 16/28/4
f 8/25/5 6/29/5 5/30/5 7/31/5
f 12/14/1 3/13/1 1/32/1 9/33/1
f 17/34/6 18/35/6 20/36/6 19/37/6
f 19/38/7 20/39/7 24/40/7 23/41/7
f 23/42/5 24/43/5 22/44/5 21/45/5
f 21/46/8 22/47/8 18/48/8 17/49/8
f 19/50/9 23/51/9 21/52/9 17/53/9
f 24/54/10 20/55/10 18/56/10 22/57/10
f 25/58/6 26/59/6 28/60/6 27/61/6
f 27/62/8 28/63/8 32/64/8 31/65/8
f 31/66/5 32/67/5 30/68/5 29/69/5
f 29/70/7 30/71/7 26/72/7 25/73/7
f 27/62/10 31/65/10 29/74/10 25/75/10
f 32/76/9 28/77/9 26/78/9 30/79/9
f 33/80/6 34/81/6 36/82/6 35/83/6
f 35/84/11 36/85/11 40/86/11 39/87/11
f 39/88/5 40/89/5 38/90/5 37/91/5
f 37/92/12 38/93/12 34/94/12 33/95/12
f 35/84/13 39/96/13 37/97/13 33/98/13
f 40/99/14 36/100/14 34/101/14 38/102/14
f 41/103/6 42/104/6 44/105/6 43/106/6
f 43/107/12 44/108/12 48/109/12 47/110/12
f 47/111/5 48/112/5 46/113/5 45/114/5
f 45/115/11 46/116/11 42/117/11 41/118/11
f 43/107/14 47/110/14 45/119/14 41/120/14
f 48/121/13 44/122/13 42/117/13 46/123/13
f 49/124/6 50/125/6 52/126/6 51/127/6
f 51/128/15 52/129/15 56/130/15 55/131/15
f 55/132/5 56/133/5 54/134/5 53/135/5
f 53/136/16 54/137/16 50/138/16 49/139/16
f 51/128/17 55/140/17 53/141/17 49/142/17
f 56/143/18 52/144/18 50/145/18 54/146/18
f 57/147/6 58/148/6 60/149/6 59/150/6
f 59/151/16 60/152/16 64/153/16 63/154/16
f 63/155/5 64/156/5 62/157/5 61/158/5
f 61/159/15 62/160/15 58/161/15 57/162/15
f 59/151/18 63/154/18 61/163/18 57/164/18
f 64/165/17 60/166/17 58/161/17 62/167/17
f 65/168/6 66/169/6 68/170/6 67/171/6
f 67/172/9 68/173/9 72/174/9 71/175/9
f 71/176/5 72/177/5 70/178/5 69/179/5
f 69/180/10 70/181/10 66/182/10 65/168/10
f 67/172/8 71/175/8 69/179/8 65/183/8
f 72/184/7 68/185/7 66/182/7 70/186/7
f 73/187/6 74/188/6 76/189/6 75/190/6
f 75/191/10 76/192/10 80/193/10 79/194/10
f 79/195/5 80/196/5 78/197/5 77/198/5
f 77/198/9 78/199/9 74/200/9 73/201/9
f 75/191/7 79/202/7 77/203/7 73/204/7
f 80/205/8 76/206/8 74/207/8 78/208/8
f 81/209/2 82/210/2 84/211/2 83/212/2
f 83/213/3 84/214/3 88/215/3 87/216/3
f 87/217/4 88/218/4 86/219/4 85/220/4
f 85/221/1 86/222/1 82/210/1 81/209/1
f 88/215/5 84/223/5 82/224/5 86/219/5
f 83/225/3 87/226/3 96/227/3 94/228/3
f 10/229/3 11/230/3 91/231/3 90/232/3
f 12/233/1 9/234/1 89/235/1 92/236/1
f 81/237/2 83/238/2 94/239/2 93/240/2
f 87/226/4 85/241/4 95/242/4 96/227/4
f 9/234/2 10/243/2 90/244/2 89/235/2
f 11/230/4 12/245/4 92/246/4 91/231/4
f 85/247/1 81/237/1 93/240/1 95/248/1
