# Blender v2.80 (sub 75) OBJ File: 'signalite.blend'
# www.blender.org
mtllib signalite_core.mtl
o CORE_Cube.002
v 0.000000 -0.078125 0.000000
v 0.000000 0.109375 0.000000
v 0.000000 -0.078125 -0.125000
v 0.000000 0.109375 -0.125000
v 0.125000 -0.078125 0.000000
v 0.125000 0.109375 0.000000
v 0.125000 -0.078125 -0.125000
v 0.125000 0.109375 -0.125000
v -0.125000 -0.109375 0.125000
v -0.125000 0.078125 0.125000
v -0.125000 -0.109375 0.000000
v -0.125000 0.078125 0.000000
v 0.000000 -0.109375 0.125000
v 0.000000 0.078125 0.125000
v 0.000000 -0.109375 0.000000
v 0.000000 0.078125 0.000000
v -0.093750 -0.093750 0.093750
v -0.093750 0.093750 0.093750
v -0.093750 -0.093750 -0.093750
v -0.093750 0.093750 -0.093750
v 0.093750 -0.093750 0.093750
v 0.093750 0.093750 0.093750
v 0.093750 -0.093750 -0.093750
v 0.093750 0.093750 -0.093750
v 0.046875 -0.046875 0.109375
v 0.046875 0.078125 0.109375
v 0.046875 -0.046875 0.046875
v 0.046875 0.078125 0.046875
v 0.109375 -0.046875 0.109375
v 0.109375 0.078125 0.109375
v 0.109375 -0.046875 0.046875
v 0.109375 0.078125 0.046875
v -0.046875 -0.078125 -0.109375
v -0.046875 0.046875 -0.109375
v -0.046875 -0.078125 -0.046875
v -0.046875 0.046875 -0.046875
v -0.109375 -0.078125 -0.109375
v -0.109375 0.046875 -0.109375
v -0.109375 -0.078125 -0.046875
v -0.109375 0.046875 -0.046875
v -0.062500 0.093750 0.062500
v -0.062500 0.125000 0.062500
v -0.062500 0.093750 -0.062500
v -0.062500 0.125000 -0.062500
v 0.062500 0.093750 0.062500
v 0.062500 0.125000 0.062500
v 0.062500 0.093750 -0.062500
v 0.062500 0.125000 -0.062500
v 0.062500 -0.093750 0.062500
v 0.062500 -0.125000 0.062500
v 0.062500 -0.093750 -0.062500
v 0.062500 -0.125000 -0.062500
v -0.062500 -0.093750 0.062500
v -0.062500 -0.125000 0.062500
v -0.062500 -0.093750 -0.062500
v -0.062500 -0.125000 -0.062500
vt 0.000000 0.687500
vt 0.000000 0.875000
vt 0.125000 0.875000
vt 0.125000 0.687500
vt 0.000000 0.875000
vt 0.000000 0.687500
vt 0.125000 0.875000
vt 0.125000 0.687500
vt 0.000000 0.562500
vt 0.125000 0.562500
vt 0.125000 1.000000
vt 0.000000 1.000000
vt 0.000000 0.687500
vt 0.000000 0.875000
vt 0.125000 0.875000
vt 0.125000 0.687500
vt 0.000000 0.875000
vt 0.000000 0.687500
vt 0.125000 0.875000
vt 0.125000 0.687500
vt 0.125000 0.562500
vt 0.000000 0.562500
vt 0.125000 1.000000
vt 0.000000 1.000000
vt 0.000000 0.187500
vt 0.000000 0.375000
vt 0.187500 0.375000
vt 0.187500 0.187500
vt -0.000000 0.375000
vt -0.000000 0.187500
vt 0.187500 0.375000
vt 0.187500 0.187500
vt 0.000000 0.187500
vt 0.187500 0.187500
vt 0.187500 0.000000
vt -0.000000 -0.000000
vt 0.187500 0.562500
vt -0.000000 0.562500
vt 0.250000 0.000000
vt 0.250000 0.125000
vt 0.187500 0.125000
vt 0.187500 0.000000
vt 0.250000 0.000000
vt 0.250000 0.125000
vt 0.187500 0.125000
vt 0.187500 0.000000
vt 0.312500 0.000000
vt 0.312500 0.125000
vt 0.250000 0.125000
vt 0.250000 0.000000
vt 0.312500 0.000000
vt 0.312500 0.125000
vt 0.187500 0.125000
vt 0.250000 0.125000
vt 0.250000 0.187500
vt 0.187500 0.187500
vt 0.250000 0.125000
vt 0.312500 0.125000
vt 0.312500 0.187500
vt 0.250000 0.187500
vt 0.250000 0.000000
vt 0.250000 0.125000
vt 0.187500 0.125000
vt 0.187500 0.000000
vt 0.250000 0.000000
vt 0.250000 0.125000
vt 0.187500 0.125000
vt 0.187500 0.000000
vt 0.312500 0.000000
vt 0.312500 0.125000
vt 0.250000 0.125000
vt 0.250000 0.000000
vt 0.312500 0.000000
vt 0.312500 0.125000
vt 0.187500 0.125000
vt 0.250000 0.125000
vt 0.250000 0.187500
vt 0.187500 0.187500
vt 0.250000 0.125000
vt 0.312500 0.125000
vt 0.312500 0.187500
vt 0.250000 0.187500
vt 0.187500 0.375000
vt 0.187500 0.437500
vt 0.312500 0.437500
vt 0.312500 0.375000
vt 0.187500 0.437500
vt 0.187500 0.375000
vt 0.312500 0.437500
vt 0.312500 0.375000
vt 0.312500 0.375000
vt 0.312500 0.312500
vt 0.187500 0.312500
vt 0.187500 0.375000
vt 0.312500 0.562500
vt 0.187500 0.562500
vt 0.312500 0.312500
vt 0.312500 0.375000
vt 0.187500 0.312500
vt 0.187500 0.375000
vt 0.187500 0.187500
vt 0.312500 0.187500
vn -1.0000 0.0000 0.0000
vn 0.0000 0.0000 -1.0000
vn 1.0000 0.0000 0.0000
vn 0.0000 0.0000 1.0000
vn 0.0000 -1.0000 0.0000
vn 0.0000 1.0000 0.0000
usemtl SIGNALITE
s off
f 1/1/1 2/2/1 4/3/1 3/4/1
f 3/4/2 4/3/2 8/5/2 7/6/2
f 7/6/3 8/5/3 6/7/3 5/8/3
f 5/8/4 6/7/4 2/2/4 1/1/4
f 3/9/5 7/6/5 5/8/5 1/10/5
f 8/5/6 4/3/6 2/11/6 6/12/6
f 9/13/1 10/14/1 12/15/1 11/16/1
f 11/16/2 12/15/2 16/17/2 15/18/2
f 15/18/3 16/17/3 14/19/3 13/20/3
f 13/20/4 14/19/4 10/14/4 9/13/4
f 11/16/5 15/21/5 13/22/5 9/13/5
f 16/23/6 12/24/6 10/14/6 14/19/6
f 17/25/1 18/26/1 20/27/1 19/28/1
f 19/28/2 20/27/2 24/29/2 23/30/2
f 23/30/3 24/29/3 22/31/3 21/32/3
f 21/32/4 22/31/4 18/26/4 17/25/4
f 19/33/5 23/34/5 21/35/5 17/36/5
f 24/37/6 20/38/6 18/26/6 22/31/6
f 25/39/1 26/40/1 28/41/1 27/42/1
f 27/43/2 28/44/2 32/45/2 31/46/2
f 31/47/3 32/48/3 30/49/3 29/50/3
f 29/51/4 30/52/4 26/40/4 25/39/4
f 27/53/5 31/54/5 29/55/5 25/56/5
f 32/57/6 28/58/6 26/59/6 30/60/6
f 33/61/3 34/62/3 36/63/3 35/64/3
f 35/65/4 36/66/4 40/67/4 39/68/4
f 39/69/1 40/70/1 38/71/1 37/72/1
f 37/73/2 38/74/2 34/62/2 33/61/2
f 35/75/5 39/76/5 37/77/5 33/78/5
f 40/79/6 36/80/6 34/81/6 38/82/6
f 41/83/1 42/84/1 44/85/1 43/86/1
f 43/86/2 44/85/2 48/87/2 47/88/2
f 47/88/3 48/87/3 46/89/3 45/90/3
f 45/90/4 46/89/4 42/84/4 41/83/4
f 49/91/3 50/92/3 52/93/3 51/94/3
f 48/95/6 44/96/6 42/84/6 46/89/6
f 51/94/2 52/93/2 56/97/2 55/98/2
f 55/98/1 56/97/1 54/99/1 53/100/1
f 53/100/4 54/99/4 50/92/4 49/91/4
f 56/101/5 52/102/5 50/92/5 54/99/5
