# Blender v2.80 (sub 75) OBJ File: 'signalite.blend'
# www.blender.org
mtllib signalite_spike_gatekeeping.mtl
o SPIKE_GATEKEEPING_Cube.014
v 0.281250 -0.198874 0.022097
v 0.281250 -0.022097 0.198874
v 0.281250 -0.022097 -0.198874
v 0.281250 -0.198874 -0.022097
v 0.281250 0.022097 -0.198874
v 0.281250 0.198874 -0.022097
v 0.281250 0.198874 0.022097
v 0.281250 0.022097 0.198874
v 0.281250 0.132583 0.000000
v 0.281250 -0.000000 -0.132583
v 0.468750 0.000000 0.000000
v 0.312500 0.000000 0.000000
v 0.281250 -0.000000 0.132583
v 0.343750 0.044194 0.000000
v 0.281250 -0.132583 -0.000000
v 0.343750 0.000000 -0.044194
v 0.343750 -0.044194 0.000000
v 0.343750 0.000000 0.044194
v 0.312500 0.000000 0.176777
v 0.312500 -0.176777 -0.000000
v 0.312500 0.176777 -0.000000
v 0.312500 -0.000000 -0.176777
v 0.250000 0.176777 0.000000
v 0.250000 0.000000 -0.176777
v 0.250000 0.000000 0.176777
v 0.250000 -0.176777 0.000000
v 0.250000 0.000000 0.000000
v 0.156250 0.044194 -0.037722
v 0.156250 0.000000 -0.081916
v 0.156250 0.000000 0.006472
v 0.156250 -0.044194 -0.037722
v 0.187500 0.044194 0.037722
v 0.187500 0.000000 -0.006472
v 0.187500 0.000000 0.081916
v 0.187500 -0.044194 0.037722
v 0.031250 0.044194 -0.037722
v 0.031250 0.000000 -0.081916
v 0.031250 -0.044194 -0.037722
v 0.031250 0.000000 0.006472
v -0.000000 0.044194 0.037722
v -0.000000 0.000000 -0.006472
v 0.000000 -0.044194 0.037722
v -0.000000 0.000000 0.081916
v 0.031250 0.044194 0.000000
v 0.031250 0.000000 -0.044194
v 0.031250 -0.044194 0.000000
v 0.031250 0.000000 0.044194
v 0.218750 0.044194 0.000000
v 0.218750 0.000000 -0.044194
v 0.218750 -0.044194 0.000000
v 0.218750 0.000000 0.044194
v -0.000000 0.044194 -0.037722
v -0.000000 0.000000 -0.081916
v 0.000000 -0.044194 -0.037722
v -0.000000 0.000000 0.006472
v -0.000000 0.044194 0.000000
v -0.000000 0.000000 -0.044194
v 0.000000 -0.044194 0.000000
v -0.000000 0.000000 0.044194
vt 0.625000 0.125000
vt 0.750000 0.187500
vt 0.625000 0.187500
vt 0.937500 0.312500
vt 0.687500 0.312500
vt 0.687500 0.375000
vt 0.937500 0.375000
vt 0.375000 0.312500
vt 0.625000 0.312500
vt 0.625000 0.375000
vt 0.375000 0.375000
vt 0.937500 0.312500
vt 0.937500 0.375000
vt 1.000000 0.312500
vt 0.687500 0.312500
vt 0.687500 0.375000
vt 0.687500 0.312500
vt 0.625000 0.312500
vt 0.687500 0.312500
vt 0.625000 0.312500
vt 0.375000 0.375000
vt 0.625000 0.375000
vt 0.375000 0.312500
vt 0.625000 0.312500
vt 0.687500 0.312500
vt 0.312500 0.312500
vt 0.750000 0.250000
vt 0.625000 0.250000
vt 0.625000 0.187500
vt 0.750000 0.125000
vt 0.625000 0.125000
vt 0.625000 0.250000
vt 0.625000 0.187500
vt 0.875000 0.187500
vt 0.812500 0.125000
vt 0.812500 0.187500
vt 0.812500 0.250000
vt 0.875000 0.187500
vt 0.906250 0.281250
vt 0.718750 0.281250
vt 0.593750 0.281250
vt 0.406250 0.281250
vt 0.718750 0.281250
vt 0.593750 0.281250
vt 0.687500 0.312500
vt 0.375000 0.062500
vt 0.562500 0.062500
vt 0.562500 0.000000
vt 0.375000 0.000000
vt 0.437500 0.000000
vt 0.562500 0.000000
vt 0.562500 0.062500
vt 0.437500 0.062500
vt 0.562500 0.000000
vt 0.437500 0.000000
vt 0.437500 0.125000
vt 0.562500 0.125000
vt 0.562500 0.062500
vt 0.437500 0.062500
vt 0.625000 0.062500
vt 0.625000 0.000000
vt 0.687500 0.000000
vt 0.687500 0.062500
vt 0.375000 0.125000
vt 0.562500 0.125000
vt 0.562500 0.062500
vt 0.375000 0.062500
vt 0.375000 0.000000
vt 0.562500 0.000000
vt 0.562500 0.062500
vt 0.375000 0.062500
vt 0.562500 0.125000
vt 0.375000 0.125000
vt 0.687500 0.062500
vt 0.687500 0.125000
vt 0.625000 0.125000
vt 0.625000 0.062500
vt 0.812500 0.125000
vt 0.875000 0.187500
vt 0.812500 0.187500
vt 0.812500 0.250000
vt 0.812500 0.187500
vt 0.812500 0.187500
vt 0.875000 0.125000
vt 0.812500 0.125000
vt 0.562500 0.125000
vt 0.437500 0.125000
vt 0.875000 0.250000
vt 0.812500 0.250000
vt 0.437500 0.187500
vt 0.625000 0.187500
vt 0.625000 0.125000
vt 0.437500 0.125000
vt 0.437500 0.250000
vt 0.625000 0.250000
vt 0.625000 0.187500
vt 0.437500 0.187500
vt 0.437500 0.125000
vt 0.625000 0.125000
vt 0.625000 0.187500
vt 0.437500 0.187500
vt 0.625000 0.250000
vt 0.437500 0.250000
vt 0.437500 -0.000000
vt 0.437500 0.062500
vt 0.375000 0.062500
vt 0.375000 -0.000000
vt 0.437500 0.125000
vt 0.437500 0.062500
vt 0.375000 0.062500
vt 0.375000 0.125000
vt 0.437500 0.125000
vt 0.375000 0.125000
vt 0.375000 0.187500
vt 0.437500 0.187500
vt 0.437500 0.250000
vt 0.375000 0.250000
vt 0.375000 0.187500
vn 0.2425 0.6860 0.6860
vn -0.7071 -0.5000 -0.5000
vn -0.7071 0.5000 0.5000
vn 0.5774 -0.8165 -0.0000
vn -0.7071 -0.5000 0.5000
vn 0.5774 0.0000 0.8165
vn -0.5773 -0.8165 0.0000
vn 0.7071 -0.5000 -0.5000
vn -0.7071 0.5000 -0.5000
vn -0.5774 0.0000 0.8165
vn 0.7071 0.5000 -0.5000
vn 0.7071 -0.5000 0.5000
vn 0.7071 0.5000 0.5000
vn 0.5773 0.8165 0.0000
vn 0.2425 0.6860 -0.6860
vn 0.2425 -0.6860 -0.6860
vn 0.2425 -0.6860 0.6860
vn 0.5774 0.0000 -0.8165
vn -0.5773 -0.0000 -0.8165
vn -0.5773 0.8165 0.0000
vn -0.0000 0.7071 0.7071
vn -0.0000 0.7071 -0.7071
vn 0.0000 -0.7071 -0.7071
vn 0.0000 -0.7071 0.7071
vn 1.0000 0.0000 0.0000
usemtl SIGNALITE
s off
f 18/1/1 11/2/1 14/3/1
f 26/4/2 24/5/2 3/6/2 4/7/2
f 23/8/3 25/9/3 8/10/3 7/11/3
f 20/12/4 1/13/4 4/14/4
f 25/15/5 26/4/5 1/13/5 2/16/5
f 2/17/6 19/18/6 8/10/6
f 1/13/7 26/4/7 4/14/7
f 22/19/8 20/12/8 4/7/8 3/6/8
f 24/20/9 23/8/9 6/21/9 5/22/9
f 25/9/10 2/17/10 8/10/10
f 21/23/11 22/24/11 5/22/11 6/21/11
f 20/12/12 19/25/12 2/16/12 1/13/12
f 19/18/13 21/23/13 7/11/13 8/10/13
f 21/23/14 6/21/14 7/26/14
f 14/3/15 11/27/15 16/28/15
f 16/29/16 11/30/16 17/31/16
f 17/32/17 11/2/17 18/33/17
f 16/34/2 17/35/2 12/36/2
f 14/37/9 16/34/9 12/36/9
f 18/38/3 14/37/3 12/36/3
f 17/35/5 18/38/5 12/36/5
f 15/39/11 13/40/11 19/25/11 20/12/11
f 13/41/8 9/42/8 21/23/8 19/18/8
f 10/43/13 15/39/13 20/12/13 22/19/13
f 9/42/12 10/44/12 22/24/12 21/23/12
f 10/44/5 9/42/5 23/8/5 24/20/5
f 9/42/2 13/41/2 25/9/2 23/8/2
f 13/40/9 15/39/9 26/4/9 25/15/9
f 15/39/3 10/43/3 24/5/3 26/4/3
f 3/45/18 5/22/18 22/24/18
f 3/45/19 24/20/19 5/22/19
f 23/8/20 7/26/20 6/21/20
f 43/46/21 34/47/21 32/48/21 40/49/21
f 36/50/22 28/51/22 29/52/22 37/53/22
f 37/53/23 29/52/23 31/54/23 38/55/23
f 38/56/24 31/57/24 30/58/24 39/59/24
f 31/60/25 29/61/25 28/62/25 30/63/25
f 40/64/22 32/65/22 33/66/22 41/67/22
f 41/68/23 33/69/23 35/70/23 42/71/23
f 42/71/24 35/70/24 34/72/24 43/73/24
f 35/74/25 33/75/25 32/76/25 34/77/25
f 51/78/13 27/79/13 48/80/13
f 50/81/12 27/79/12 51/82/12
f 49/83/8 27/84/8 50/85/8
f 39/59/21 30/58/21 28/86/21 36/87/21
f 48/80/11 27/88/11 49/89/11
f 45/90/23 49/91/23 50/92/23 46/93/23
f 46/94/24 50/95/24 51/96/24 47/97/24
f 47/98/21 51/99/21 48/100/21 44/101/21
f 44/101/22 48/100/22 49/102/22 45/103/22
f 37/104/23 38/105/23 54/106/23 53/107/23
f 39/108/21 36/109/21 52/110/21 55/111/21
f 44/101/22 45/112/22 57/113/22 56/114/22
f 46/115/24 47/116/24 59/117/24 58/118/24
f 36/109/22 37/104/22 53/107/22 52/110/22
f 38/105/24 39/108/24 55/111/24 54/106/24
f 45/112/23 46/115/23 58/118/23 57/113/23
f 47/116/21 44/101/21 56/114/21 59/117/21
