# Blender v2.80 (sub 75) OBJ File: 'signalite.blend'
# www.blender.org
mtllib signalite_seer_torch.mtl
o SEER_TORCH_Cube.006
v -0.250000 -0.031250 0.156250
v -0.250000 0.031250 0.156250
v -0.250000 -0.031250 0.093750
v -0.250000 0.031250 0.093750
v -0.187500 -0.031250 0.156250
v -0.187500 0.031250 0.156250
v -0.187500 -0.031250 0.093750
v -0.187500 0.031250 0.093750
v -0.250000 -0.031250 -0.093750
v -0.250000 0.031250 -0.093750
v -0.250000 -0.031250 -0.156250
v -0.250000 0.031250 -0.156250
v -0.187500 -0.031250 -0.093750
v -0.187500 0.031250 -0.093750
v -0.187500 -0.031250 -0.156250
v -0.187500 0.031250 -0.156250
vt 0.875000 0.125000
vt 0.937500 0.125000
vt 0.937500 0.187500
vt 0.875000 0.187500
vt 0.875000 0.187500
vt 0.937500 0.187500
vt 0.937500 0.250000
vt 0.875000 0.250000
vt 0.875000 0.125000
vt 0.937500 0.125000
vt 0.937500 0.250000
vt 0.875000 0.250000
vt 0.937500 0.187500
vt 1.000000 0.187500
vt 1.000000 0.250000
vt 0.937500 0.250000
vt 1.000000 0.187500
vt 1.000000 0.250000
vt 0.875000 0.125000
vt 0.937500 0.125000
vt 0.937500 0.187500
vt 0.875000 0.187500
vt 0.875000 0.187500
vt 0.937500 0.187500
vt 0.937500 0.250000
vt 0.875000 0.250000
vt 0.875000 0.125000
vt 0.937500 0.125000
vt 0.937500 0.250000
vt 0.875000 0.250000
vt 0.937500 0.187500
vt 1.000000 0.187500
vt 1.000000 0.250000
vt 0.937500 0.250000
vt 1.000000 0.187500
vt 1.000000 0.250000
vn 0.0000 0.0000 1.0000
vn 1.0000 0.0000 0.0000
vn 0.0000 0.0000 -1.0000
vn -1.0000 0.0000 0.0000
vn 0.0000 -1.0000 0.0000
vn 0.0000 1.0000 0.0000
usemtl SIGNALITE
s off
f 5/1/1 6/2/1 2/3/1 1/4/1
f 7/5/2 8/6/2 6/7/2 5/8/2
f 3/9/3 4/10/3 8/6/3 7/5/3
f 1/4/4 2/3/4 4/11/4 3/12/4
f 3/13/5 7/14/5 5/15/5 1/16/5
f 8/6/6 4/17/6 2/18/6 6/7/6
f 13/19/1 14/20/1 10/21/1 9/22/1
f 15/23/2 16/24/2 14/25/2 13/26/2
f 11/27/3 12/28/3 16/24/3 15/23/3
f 9/22/4 10/21/4 12/29/4 11/30/4
f 11/31/5 15/32/5 13/33/5 9/34/5
f 16/24/6 12/35/6 10/36/6 14/25/6
