# Blender v2.80 (sub 75) OBJ File: 'signalite.blend'
# www.blender.org
mtllib signalite_listening_body.mtl
o LISTENING_BODY_Cube.007
v -0.062500 -0.093750 0.062500
v -0.062500 0.093750 0.062500
v -0.062500 -0.093750 -0.062500
v -0.062500 0.093750 -0.062500
v 0.000000 -0.093750 0.062500
v 0.000000 0.093750 0.062500
v 0.000000 -0.093750 -0.062500
v 0.000000 0.093750 -0.062500
v -0.062500 0.031250 -0.125000
v -0.062500 -0.031250 -0.125000
v 0.000000 -0.031250 -0.125000
v 0.000000 0.031250 -0.125000
v -0.062500 -0.031250 0.125000
v -0.062500 0.031250 0.125000
v 0.000000 0.031250 0.125000
v 0.000000 -0.031250 0.125000
v -0.125000 0.062500 -0.062500
v -0.125000 0.062500 0.062500
v -0.125000 -0.062500 0.062500
v -0.125000 -0.062500 -0.062500
v -0.062500 -0.062500 -0.062500
v -0.062500 -0.062500 0.062500
v -0.062500 0.062500 0.062500
v -0.062500 0.062500 -0.062500
v -0.125000 0.044194 0.000000
v -0.125000 0.000000 0.044194
v -0.125000 -0.044194 0.000000
v -0.125000 0.000000 -0.044194
v -0.312500 0.044194 0.000000
v -0.312500 0.000000 -0.044194
v -0.312500 0.000000 0.044194
v -0.312500 -0.044194 0.000000
v -0.375000 -0.044194 0.000000
v -0.375000 0.000000 0.044194
v -0.375000 0.000000 -0.044194
v -0.375000 0.044194 0.000000
v -0.437500 0.000000 0.000000
v -0.314070 0.000000 0.022097
v -0.446653 0.000000 0.154680
v -0.446653 0.000000 -0.154680
v -0.314070 0.000000 -0.022097
v -0.490847 0.000000 -0.154680
v -0.623430 -0.000000 -0.022097
v -0.623430 -0.000000 0.022097
v -0.490847 -0.000000 0.154680
v -0.557138 -0.000000 -0.000000
v -0.468750 0.000000 -0.088388
v -0.468750 -0.000000 0.088388
v -0.380362 0.000000 -0.000000
v -0.468750 0.031250 0.132582
v -0.336167 0.031250 -0.000000
v -0.601333 0.031250 -0.000000
v -0.468750 0.031250 -0.132583
v -0.601332 -0.031250 -0.000000
v -0.468750 -0.031250 -0.132583
v -0.468750 -0.031250 0.132582
v -0.336168 -0.031250 -0.000000
v -0.125000 -0.000000 0.187500
v -0.125000 0.031250 0.125000
v -0.125000 -0.031250 0.125000
v -0.062500 0.031250 0.125000
v -0.062500 -0.031250 0.125000
v -0.062500 0.000000 0.187500
v -0.062500 0.031250 0.062500
v -0.062500 -0.031250 0.062500
v 0.000000 0.000000 0.125000
v -0.125000 0.031250 0.062500
v -0.250000 0.031250 0.125000
v -0.250000 0.000000 0.187500
v -0.125000 -0.031250 0.062500
v -0.250000 -0.031250 0.125000
v -0.312500 -0.000000 0.187500
v -0.312500 -0.031250 0.125000
v -0.312500 0.031250 0.125000
v -0.437500 0.000000 0.250000
v -0.375000 -0.031250 0.187500
v -0.375000 0.031250 0.187500
v -0.375000 -0.000000 0.250000
v -0.125000 0.000000 -0.187500
v -0.125000 -0.031250 -0.125000
v -0.125000 0.031250 -0.125000
v -0.062500 -0.031250 -0.125000
v -0.062500 0.031250 -0.125000
v -0.062500 0.000000 -0.187500
v -0.062500 -0.031250 -0.062500
v -0.062500 0.031250 -0.062500
v 0.000000 0.000000 -0.125000
v -0.125000 -0.031250 -0.062500
v -0.250000 -0.031250 -0.125000
v -0.250000 0.000000 -0.187500
v -0.125000 0.031250 -0.062500
v -0.250000 0.031250 -0.125000
v -0.312500 0.000000 -0.187500
v -0.312500 0.031250 -0.125000
v -0.312500 -0.031250 -0.125000
v -0.437500 0.000000 -0.250000
v -0.375000 0.031250 -0.187500
v -0.375000 -0.031250 -0.187500
v -0.375000 0.000000 -0.250000
vt 0.875000 0.562500
vt 0.875000 0.500000
vt 0.937500 0.500000
vt 0.937500 0.562500
vt 0.562500 0.437500
vt 0.562500 0.375000
vt 0.500000 0.375000
vt 0.500000 0.437500
vt 0.750000 0.562500
vt 0.750000 0.500000
vt 0.750000 0.500000
vt 0.750000 0.437500
vt 0.625000 0.437500
vt 0.625000 0.500000
vt 1.000000 0.500000
vt 1.000000 0.562500
vt 0.875000 0.437500
vt 0.875000 0.500000
vt 0.937500 0.500000
vt 0.937500 0.437500
vt 0.687500 0.562500
vt 0.812500 0.562500
vt 0.812500 0.375000
vt 0.687500 0.375000
vt 0.375000 0.437500
vt 0.437500 0.437500
vt 0.437500 0.500000
vt 0.375000 0.500000
vt 0.875000 0.500000
vt 0.875000 0.437500
vt 0.687500 0.500000
vt 0.687500 0.562500
vt 0.625000 0.562500
vt 0.625000 0.500000
vt 0.437500 0.375000
vt 0.562500 0.375000
vt 0.562500 0.312500
vt 0.437500 0.312500
vt 0.750000 0.375000
vt 0.875000 0.375000
vt 0.875000 0.312500
vt 0.750000 0.312500
vt 0.562500 0.312500
vt 0.437500 0.312500
vt 0.437500 0.375000
vt 0.562500 0.375000
vt 0.687500 0.250000
vt 0.687500 0.375000
vt 0.562500 0.375000
vt 0.562500 0.250000
vt 0.750000 0.375000
vt 0.750000 0.312500
vt 0.416667 0.041667
vt 0.416667 0.208333
vt 0.583333 0.208333
vt 0.583333 0.041667
vt 0.437500 0.062500
vt 0.375000 0.062500
vt 0.375000 0.250000
vt 0.437500 0.250000
vt 0.375000 0.062500
vt 0.437500 0.062500
vt 0.437500 0.250000
vt 0.375000 0.250000
vt 0.500000 0.062500
vt 0.500000 0.250000
vt 0.437500 0.062500
vt 0.500000 0.062500
vt 0.500000 0.250000
vt 0.437500 0.250000
vt 0.812500 0.250000
vt 0.875000 0.250000
vt 0.875000 0.312500
vt 0.812500 0.312500
vt 0.812500 0.250000
vt 0.750000 0.250000
vt 0.750000 0.312500
vt 0.812500 0.312500
vt 0.812500 0.375000
vt 0.812500 0.562500
vt 0.687500 0.562500
vt 0.687500 0.375000
vt 0.625000 0.375000
vt 0.625000 0.562500
vt 0.562500 0.500000
vt 0.562500 0.437500
vt 0.875000 0.437500
vt 0.875000 0.500000
vt 0.625000 0.562500
vt 0.625000 0.375000
vt 0.562500 0.437500
vt 0.562500 0.500000
vt 0.812500 0.375000
vt 0.875000 0.312500
vt 0.687500 0.312500
vt 0.687500 0.375000
vt 0.875000 0.375000
vt 0.437500 0.312500
vt 0.625000 0.312500
vt 0.625000 0.375000
vt 0.437500 0.375000
vt 0.937500 0.312500
vt 0.937500 0.375000
vt 1.000000 0.312500
vt 0.687500 0.312500
vt 0.875000 0.375000
vt 0.687500 0.375000
vt 0.687500 0.312500
vt 0.625000 0.312500
vt 0.937500 0.312500
vt 0.687500 0.312500
vt 0.875000 0.312500
vt 0.625000 0.312500
vt 0.437500 0.375000
vt 0.625000 0.375000
vt 0.437500 0.312500
vt 0.625000 0.312500
vt 0.687500 0.312500
vt 0.375000 0.312500
vt 0.375000 0.375000
vt 0.312500 0.312500
vt 0.843750 0.281250
vt 0.718750 0.281250
vt 0.593750 0.281250
vt 0.468750 0.281250
vt 0.718750 0.281250
vt 0.593750 0.281250
vt 0.687500 0.312500
vt 0.375000 0.312500
vt 0.812500 0.250000
vt 0.812500 0.312500
vt 0.750000 0.312500
vt 0.750000 0.250000
vt 0.687500 0.937500
vt 0.687500 0.875000
vt 0.750000 0.875000
vt 0.812500 0.250000
vt 0.750000 0.250000
vt 0.500000 0.812500
vt 0.500000 0.875000
vt 0.437500 0.875000
vt 0.437500 0.812500
vt 0.687500 0.312500
vt 0.625000 0.312500
vt 0.625000 0.250000
vt 0.687500 0.250000
vt 0.625000 0.312500
vt 0.625000 0.250000
vt 0.625000 0.312500
vt 0.687500 0.312500
vt 0.687500 0.250000
vt 0.625000 0.250000
vt 0.875000 0.250000
vt 0.625000 0.250000
vt 0.687500 0.312500
vt 0.687500 0.375000
vt 0.562500 0.375000
vt 0.562500 0.312500
vt 0.625000 0.312500
vt 0.625000 0.375000
vt 0.562500 0.312500
vt 0.562500 0.250000
vt 0.500000 0.312500
vt 0.500000 0.375000
vt 0.500000 0.312500
vt 0.562500 0.250000
vt 0.375000 0.312500
vt 0.375000 0.375000
vt 0.312500 0.375000
vt 0.500000 0.312500
vt 0.437500 0.375000
vt 0.437500 0.312500
vt 0.375000 0.312500
vt 0.375000 0.375000
vt 0.312500 0.312500
vt 0.437500 0.250000
vt 0.500000 0.250000
vt 0.437500 0.312500
vt 0.437500 0.250000
vt 0.812500 0.250000
vt 0.812500 0.312500
vt 0.750000 0.312500
vt 0.750000 0.250000
vt 0.687500 0.937500
vt 0.687500 0.875000
vt 0.750000 0.875000
vt 0.812500 0.250000
vt 0.750000 0.250000
vt 0.500000 0.812500
vt 0.500000 0.875000
vt 0.437500 0.875000
vt 0.437500 0.812500
vt 0.687500 0.312500
vt 0.625000 0.312500
vt 0.625000 0.250000
vt 0.687500 0.250000
vt 0.625000 0.312500
vt 0.625000 0.250000
vt 0.625000 0.312500
vt 0.687500 0.312500
vt 0.687500 0.250000
vt 0.625000 0.250000
vt 0.875000 0.250000
vt 0.625000 0.250000
vt 0.687500 0.312500
vt 0.687500 0.375000
vt 0.562500 0.375000
vt 0.562500 0.312500
vt 0.625000 0.312500
vt 0.625000 0.375000
vt 0.562500 0.312500
vt 0.562500 0.250000
vt 0.500000 0.312500
vt 0.500000 0.375000
vt 0.500000 0.312500
vt 0.562500 0.250000
vt 0.375000 0.312500
vt 0.375000 0.375000
vt 0.312500 0.375000
vt 0.500000 0.312500
vt 0.437500 0.375000
vt 0.437500 0.312500
vt 0.375000 0.312500
vt 0.375000 0.375000
vt 0.312500 0.312500
vt 0.437500 0.250000
vt 0.500000 0.250000
vt 0.437500 0.312500
vt 0.437500 0.250000
vn 0.0000 -0.7071 -0.7071
vn 0.0000 0.7071 0.7071
vn 0.0000 -1.0000 0.0000
vn 0.0000 1.0000 0.0000
vn 0.0000 0.0000 -1.0000
vn 0.0000 0.7071 -0.7071
vn -1.0000 0.0000 0.0000
vn 0.0000 0.0000 1.0000
vn 0.0000 -0.7071 0.7071
vn 1.0000 0.0000 0.0000
vn -0.4472 -0.6325 0.6325
vn -0.4472 0.6325 0.6325
vn -0.4472 -0.6325 -0.6325
vn -0.4472 0.6325 -0.6325
vn 0.5000 -0.7071 -0.5000
vn -0.5000 -0.7071 0.5000
vn 0.8165 0.5774 -0.0000
vn 0.5000 -0.7071 0.5000
vn -0.0000 0.5774 0.8165
vn 0.8165 -0.5774 -0.0000
vn 0.5000 0.7071 -0.5000
vn -0.5000 -0.7071 -0.5000
vn 0.0000 -0.5774 0.8165
vn -0.5000 0.7071 -0.5000
vn 0.5000 0.7071 0.5000
vn -0.5000 0.7071 0.5000
vn -0.8165 0.5774 0.0000
vn 0.0000 0.5773 -0.8165
vn 0.0000 -0.5774 -0.8165
vn -0.8165 -0.5774 -0.0000
vn 0.0000 -0.8944 0.4472
vn -0.0000 0.8944 0.4472
vn 0.4082 0.8165 0.4082
vn 0.4082 -0.8165 0.4082
vn -0.7071 0.0000 -0.7071
vn 0.0000 0.8944 -0.4472
vn -0.0000 -0.8944 -0.4472
vn 0.4082 -0.8165 -0.4082
vn 0.4082 0.8165 -0.4082
vn -0.7071 0.0000 0.7071
usemtl SIGNALITE
s off
f 7/1/1 3/2/1 10/3/1 11/4/1
f 6/5/2 2/6/2 14/7/2 15/8/2
f 3/2/3 7/1/3 5/9/3 1/10/3
f 8/11/4 4/12/4 2/13/4 6/14/4
f 10/3/5 9/15/5 12/16/5 11/4/5
f 4/17/6 8/18/6 12/19/6 9/20/6
f 2/21/7 4/22/7 3/23/7 1/24/7
f 16/25/8 15/26/8 14/27/8 13/28/8
f 3/23/7 4/22/7 9/29/7 10/30/7
f 1/31/9 5/32/9 16/33/9 13/34/9
f 24/35/5 21/36/5 20/37/5 17/38/5
f 21/39/3 22/40/3 19/41/3 20/42/3
f 23/43/4 24/44/4 17/45/4 18/46/4
f 19/47/7 18/48/7 17/49/7 20/50/7
f 22/40/8 23/51/8 18/52/8 19/41/8
f 27/53/10 28/54/10 25/55/10 26/56/10
f 27/57/9 26/58/9 31/59/9 32/60/9
f 25/61/6 28/62/6 30/63/6 29/64/6
f 28/65/1 27/57/1 32/60/1 30/66/1
f 26/67/2 25/68/2 29/69/2 31/70/2
f 29/71/6 30/72/6 35/73/6 36/74/6
f 32/75/9 31/76/9 34/77/9 33/78/9
f 31/76/2 29/71/2 36/74/2 34/77/2
f 30/72/1 32/75/1 33/78/1 35/73/1
f 7/79/10 8/80/10 6/81/10 5/82/10
f 5/83/10 6/84/10 15/85/10 16/86/10
f 8/80/10 7/79/10 11/87/10 12/88/10
f 2/89/7 1/90/7 13/91/7 14/92/7
f 33/78/11 34/77/11 37/93/11
f 34/77/12 36/74/12 37/93/12
f 35/73/13 33/78/13 37/93/13
f 36/74/14 35/73/14 37/93/14
f 57/94/15 55/95/15 40/96/15 41/97/15
f 54/98/16 56/99/16 45/100/16 44/101/16
f 51/102/17 38/103/17 41/104/17
f 56/105/18 57/94/18 38/106/18 39/107/18
f 39/108/19 50/109/19 45/100/19
f 38/103/20 57/110/20 41/104/20
f 53/111/21 51/112/21 41/97/21 40/96/21
f 55/113/22 54/98/22 43/114/22 42/115/22
f 56/99/23 39/108/23 45/100/23
f 52/116/24 53/117/24 42/115/24 43/114/24
f 51/112/25 50/118/25 39/107/25 38/106/25
f 50/109/26 52/116/26 44/101/26 45/100/26
f 52/119/27 43/120/27 44/121/27
f 49/122/24 48/123/24 50/118/24 51/112/24
f 48/124/21 46/125/21 52/116/21 50/109/21
f 47/126/26 49/122/26 51/112/26 53/111/26
f 46/125/25 47/127/25 53/117/25 52/116/25
f 47/127/18 46/125/18 54/98/18 55/113/18
f 46/125/15 48/124/15 56/99/15 54/98/15
f 48/123/22 49/122/22 57/94/22 56/105/22
f 49/122/16 47/126/16 55/95/16 57/94/16
f 40/128/28 42/115/28 53/117/28
f 40/128/29 55/113/29 42/115/29
f 54/129/30 44/121/30 43/120/30
f 62/130/31 63/131/31 58/132/31 60/133/31
f 62/134/5 61/135/5 66/136/5
f 63/131/32 61/137/32 59/138/32 58/132/32
f 61/139/10 62/140/10 65/141/10 64/142/10
f 62/143/3 60/144/3 70/145/3 65/146/3
f 60/133/31 58/132/31 69/147/31 71/148/31
f 59/149/4 61/150/4 64/151/4 67/152/4
f 61/137/33 63/131/33 66/153/33
f 63/131/34 62/130/34 66/153/34
f 58/132/32 59/138/32 68/154/32 69/147/32
f 59/155/5 60/156/5 71/157/5 68/158/5
f 60/156/7 59/155/7 67/159/7 70/160/7
f 72/161/33 74/162/33 77/163/33
f 68/158/5 71/157/5 73/164/5 74/165/5
f 71/148/31 69/147/31 72/161/31 73/166/31
f 69/147/32 68/154/32 74/162/32 72/161/32
f 76/167/31 78/168/31 75/169/31
f 73/166/34 72/161/34 76/170/34
f 76/171/35 77/172/35 74/165/35 73/164/35
f 77/173/35 76/174/35 75/175/35
f 78/168/32 77/173/32 75/169/32
f 76/176/34 72/177/34 78/178/34
f 72/177/33 77/179/33 78/178/33
f 83/180/36 84/181/36 79/182/36 81/183/36
f 83/184/8 82/185/8 87/186/8
f 84/181/37 82/187/37 80/188/37 79/182/37
f 82/189/10 83/190/10 86/191/10 85/192/10
f 83/193/4 81/194/4 91/195/4 86/196/4
f 81/183/36 79/182/36 90/197/36 92/198/36
f 80/199/3 82/200/3 85/201/3 88/202/3
f 82/187/38 84/181/38 87/203/38
f 84/181/39 83/180/39 87/203/39
f 79/182/37 80/188/37 89/204/37 90/197/37
f 80/205/8 81/206/8 92/207/8 89/208/8
f 81/206/7 80/205/7 88/209/7 91/210/7
f 93/211/38 95/212/38 98/213/38
f 89/208/8 92/207/8 94/214/8 95/215/8
f 92/198/36 90/197/36 93/211/36 94/216/36
f 90/197/37 89/204/37 95/212/37 93/211/37
f 97/217/36 99/218/36 96/219/36
f 94/216/39 93/211/39 97/220/39
f 97/221/40 98/222/40 95/215/40 94/214/40
f 98/223/40 97/224/40 96/225/40
f 99/218/37 98/223/37 96/219/37
f 97/226/39 93/227/39 99/228/39
f 93/227/38 98/229/38 99/228/38
