# Blender v2.80 (sub 75) OBJ File: 'signalite.blend'
# www.blender.org
mtllib signalite_singing_body.mtl
o SINGING_BODY_Cube.013
v -0.062500 -0.093750 0.062500
v -0.062500 0.093750 0.062500
v -0.062500 -0.093750 -0.062500
v -0.062500 0.093750 -0.062500
v 0.000000 -0.093750 0.062500
v 0.000000 0.093750 0.062500
v 0.000000 -0.093750 -0.062500
v 0.000000 0.093750 -0.062500
v -0.062500 0.031250 -0.125000
v -0.062500 -0.031250 -0.125000
v 0.000000 -0.031250 -0.125000
v 0.000000 0.031250 -0.125000
v -0.062500 -0.031250 0.125000
v -0.062500 0.031250 0.125000
v 0.000000 0.031250 0.125000
v 0.000000 -0.031250 0.125000
v -0.125000 0.062500 -0.062500
v -0.125000 0.062500 0.062500
v -0.125000 -0.062500 0.062500
v -0.125000 -0.062500 -0.062500
v -0.062500 -0.062500 -0.062500
v -0.062500 -0.062500 0.062500
v -0.062500 0.062500 0.062500
v -0.062500 0.062500 -0.062500
v -0.250000 0.044194 0.000000
v -0.250000 0.000000 -0.044194
v -0.250000 0.000000 0.044194
v -0.250000 -0.044194 0.000000
v -0.281250 0.000000 0.000000
v -0.125000 -0.000000 0.156250
v -0.125000 0.031250 0.093750
v -0.125000 -0.031250 0.093750
v -0.062500 0.031250 0.093750
v -0.062500 -0.031250 0.093750
v -0.062500 0.000000 0.156250
v -0.500000 0.031250 0.093750
v -0.500000 -0.031250 0.093750
v -0.437500 -0.000000 0.156250
v -0.312500 -0.000000 0.156250
v -0.312500 -0.031250 0.093750
v -0.312500 0.031250 0.093750
v -0.125000 0.031250 -0.062500
v -0.062500 0.031250 -0.062500
v -0.062500 -0.031250 -0.062500
v -0.125000 -0.031250 -0.062500
v -0.312500 -0.031250 -0.093750
v -0.312500 0.031250 -0.093750
v -0.312500 0.000000 -0.156250
v -0.437500 0.000000 -0.156250
v -0.500000 0.031250 -0.093750
v -0.500000 -0.031250 -0.093750
v -0.062500 0.000000 -0.156250
v -0.062500 0.031250 -0.093750
v -0.062500 -0.031250 -0.093750
v -0.125000 0.031250 -0.093750
v -0.125000 -0.031250 -0.093750
v -0.125000 0.000000 -0.156250
v -0.125000 0.000000 0.044194
v -0.125000 -0.044194 0.000000
v -0.125000 0.000000 -0.044194
v -0.125000 0.044194 0.000000
v -0.125000 0.031250 0.062500
v -0.062500 0.031250 0.062500
v -0.062500 -0.031250 0.062500
v -0.125000 -0.031250 0.062500
v -0.031250 -0.000000 0.125000
v -0.031250 0.000000 -0.125000
v -0.437450 0.000000 0.000000
v -0.343700 -0.044194 0.000000
v -0.343700 0.000000 0.044194
v -0.343700 0.000000 -0.044194
v -0.343700 0.044194 0.000000
v -0.312450 0.000000 0.000000
vt 0.875000 0.562500
vt 0.875000 0.500000
vt 0.937500 0.500000
vt 0.937500 0.562500
vt 0.562500 0.437500
vt 0.562500 0.375000
vt 0.500000 0.375000
vt 0.500000 0.437500
vt 0.750000 0.562500
vt 0.750000 0.500000
vt 0.750000 0.500000
vt 0.750000 0.437500
vt 0.625000 0.437500
vt 0.625000 0.500000
vt 1.000000 0.500000
vt 1.000000 0.562500
vt 0.875000 0.437500
vt 0.875000 0.500000
vt 0.937500 0.500000
vt 0.937500 0.437500
vt 0.687500 0.562500
vt 0.812500 0.562500
vt 0.812500 0.375000
vt 0.687500 0.375000
vt 0.375000 0.437500
vt 0.437500 0.437500
vt 0.437500 0.500000
vt 0.375000 0.500000
vt 0.875000 0.500000
vt 0.875000 0.437500
vt 0.687500 0.500000
vt 0.687500 0.562500
vt 0.625000 0.562500
vt 0.625000 0.500000
vt 0.437500 0.375000
vt 0.562500 0.375000
vt 0.562500 0.312500
vt 0.437500 0.312500
vt 0.750000 0.375000
vt 0.875000 0.375000
vt 0.875000 0.312500
vt 0.750000 0.312500
vt 0.562500 0.312500
vt 0.437500 0.312500
vt 0.437500 0.375000
vt 0.562500 0.375000
vt 0.687500 0.250000
vt 0.687500 0.375000
vt 0.562500 0.375000
vt 0.562500 0.250000
vt 0.750000 0.375000
vt 0.750000 0.312500
vt 0.437500 0.125000
vt 0.375000 0.125000
vt 0.375000 0.250000
vt 0.437500 0.250000
vt 0.375000 0.125000
vt 0.437500 0.125000
vt 0.437500 0.250000
vt 0.375000 0.250000
vt 0.500000 0.125000
vt 0.500000 0.250000
vt 0.500000 0.312500
vt 0.562500 0.312500
vt 0.500000 0.375000
vt 0.562500 0.312500
vt 0.500000 0.312500
vt 0.562500 0.375000
vt 0.687500 0.312500
vt 0.750000 0.312500
vt 0.687500 0.375000
vt 0.750000 0.312500
vt 0.687500 0.312500
vt 0.750000 0.375000
vt 0.812500 0.375000
vt 0.812500 0.562500
vt 0.687500 0.562500
vt 0.687500 0.375000
vt 0.625000 0.375000
vt 0.625000 0.562500
vt 0.562500 0.500000
vt 0.562500 0.437500
vt 0.875000 0.437500
vt 0.875000 0.500000
vt 0.625000 0.562500
vt 0.625000 0.375000
vt 0.562500 0.437500
vt 0.562500 0.500000
vt 0.812500 0.250000
vt 0.812500 0.312500
vt 0.750000 0.312500
vt 0.750000 0.250000
vt 0.812500 0.250000
vt 0.750000 0.250000
vt 0.500000 0.312500
vt 0.500000 0.250000
vt 0.687500 0.250000
vt 0.625000 0.312500
vt 0.562500 0.312500
vt 0.562500 0.250000
vt 0.562500 0.250000
vt 0.500000 0.250000
vt 0.687500 0.250000
vt 0.812500 0.312500
vt 0.812500 0.250000
vt 0.750000 0.312500
vt 0.375000 0.312500
vt 0.375000 0.375000
vt 0.562500 0.375000
vt 0.562500 0.312500
vt 0.687500 0.375000
vt 0.500000 0.375000
vt 0.500000 0.312500
vt 0.687500 0.312500
vt 0.562500 0.187500
vt 0.500000 0.187500
vt 0.500000 0.125000
vt 0.812500 0.312500
vt 0.875000 0.250000
vt 0.812500 0.250000
vt 0.812500 0.250000
vt 0.875000 0.250000
vt 0.750000 0.312500
vt 0.687500 0.312500
vt 0.687500 0.250000
vt 0.750000 0.250000
vt 0.687500 0.312500
vt 0.750000 0.312500
vt 0.750000 0.250000
vt 0.687500 0.250000
vt 0.625000 0.375000
vt 0.625000 0.312500
vt 0.687500 0.312500
vt 0.687500 0.375000
vt 0.687500 0.375000
vt 0.500000 0.375000
vt 0.500000 0.312500
vt 0.375000 0.312500
vt 0.375000 0.375000
vt 0.562500 0.375000
vt 0.562500 0.312500
vt 0.812500 0.312500
vt 0.812500 0.250000
vt 0.750000 0.312500
vt 0.500000 0.250000
vt 0.500000 0.312500
vt 0.625000 0.312500
vt 0.687500 0.250000
vt 0.750000 0.250000
vt 0.562500 0.250000
vt 0.562500 0.312500
vt 0.750000 0.312500
vt 0.562500 0.250000
vt 0.750000 0.250000
vt 0.500000 0.250000
vt 0.687500 0.250000
vt 0.812500 0.250000
vt 0.437500 0.125000
vt 0.500000 0.125000
vt 0.500000 0.250000
vt 0.437500 0.250000
vt 0.625000 0.375000
vt 0.625000 0.312500
vt 0.687500 0.312500
vt 0.687500 0.375000
vt 0.750000 0.312500
vt 0.750000 0.250000
vt 0.687500 0.250000
vt 0.750000 0.312500
vt 0.687500 0.312500
vt 0.687500 0.250000
vt 0.750000 0.250000
vt 0.875000 0.250000
vt 0.875000 0.250000
vt 0.812500 0.250000
vt 0.812500 0.312500
vt 0.812500 0.250000
vt 0.750000 0.250000
vt 0.437500 0.187500
vt 0.437500 0.250000
vt 0.500000 0.187500
vt 0.625000 0.187500
vt 0.562500 0.125000
vt 0.562500 0.187500
vt 0.437500 0.187500
vt 0.625000 0.312500
vt 0.625000 0.250000
vt 0.562500 0.312500
vt 0.625000 0.250000
vt 0.625000 0.312500
vt 0.562500 0.250000
vt 0.812500 0.250000
vt 0.812500 0.312500
vt 0.750000 0.312500
vn 0.0000 -0.7071 -0.7071
vn 0.0000 0.7071 0.7071
vn 0.0000 -1.0000 0.0000
vn 0.0000 1.0000 0.0000
vn 0.0000 0.0000 -1.0000
vn 0.0000 0.7071 -0.7071
vn -1.0000 0.0000 0.0000
vn 0.0000 0.0000 1.0000
vn 0.0000 -0.7071 0.7071
vn -0.7071 0.5000 -0.5000
vn -0.7071 -0.5000 0.5000
vn -0.7071 0.5000 0.5000
vn -0.7071 -0.5000 -0.5000
vn 1.0000 0.0000 0.0000
vn 0.0000 -0.8944 0.4472
vn -0.0000 0.8944 0.4472
vn -0.7071 0.0000 0.7071
vn -0.3162 0.6708 -0.6708
vn 0.4082 0.8165 -0.4082
vn 0.4082 -0.8165 -0.4082
vn -0.7071 0.0000 -0.7071
vn 0.0000 0.8944 -0.4472
vn 0.0000 -0.8944 -0.4472
vn 0.4082 0.8165 0.4082
vn 0.4082 -0.8165 0.4082
vn 0.7071 -0.5000 0.5000
vn -0.3162 -0.6708 0.6708
vn -0.3162 -0.6708 -0.6708
vn -0.3162 0.6708 0.6708
vn 0.7071 -0.5000 -0.5000
vn 0.7071 0.5000 0.5000
vn 0.7071 0.5000 -0.5000
usemtl SIGNALITE
s off
f 7/1/1 3/2/1 10/3/1 11/4/1
f 6/5/2 2/6/2 14/7/2 15/8/2
f 3/2/3 7/1/3 5/9/3 1/10/3
f 8/11/4 4/12/4 2/13/4 6/14/4
f 10/3/5 9/15/5 12/16/5 11/4/5
f 4/17/6 8/18/6 12/19/6 9/20/6
f 2/21/7 4/22/7 3/23/7 1/24/7
f 16/25/8 15/26/8 14/27/8 13/28/8
f 3/23/7 4/22/7 9/29/7 10/30/7
f 1/31/9 5/32/9 16/33/9 13/34/9
f 24/35/5 21/36/5 20/37/5 17/38/5
f 21/39/3 22/40/3 19/41/3 20/42/3
f 23/43/4 24/44/4 17/45/4 18/46/4
f 19/47/7 18/48/7 17/49/7 20/50/7
f 22/40/8 23/51/8 18/52/8 19/41/8
f 59/53/9 58/54/9 27/55/9 28/56/9
f 61/57/6 60/58/6 26/59/6 25/60/6
f 60/61/1 59/53/1 28/56/1 26/62/1
f 25/63/10 26/64/10 29/65/10
f 28/66/11 27/67/11 29/68/11
f 27/69/12 25/70/12 29/71/12
f 26/72/13 28/73/13 29/74/13
f 7/75/14 8/76/14 6/77/14 5/78/14
f 5/79/14 6/80/14 15/81/14 16/82/14
f 8/76/14 7/75/14 11/83/14 12/84/14
f 2/85/7 1/86/7 13/87/7 14/88/7
f 34/89/15 35/90/15 30/91/15 32/92/15
f 35/90/16 33/93/16 31/94/16 30/91/16
f 39/95/16 41/96/16 36/97/16 38/98/16
f 39/99/15 40/100/15 32/92/15 30/91/15
f 31/94/16 41/101/16 39/99/16 30/91/16
f 40/102/15 39/95/15 38/98/15 37/103/15
f 38/104/17 36/105/17 37/106/17
f 41/107/5 40/108/5 37/109/5 36/110/5
f 32/111/5 40/112/5 41/113/5 31/114/5
f 68/115/18 72/116/18 71/117/18
f 52/118/19 53/119/19 67/120/19
f 54/121/20 52/118/20 67/122/20
f 53/123/4 55/124/4 42/125/4 43/126/4
f 56/127/3 54/128/3 44/129/3 45/130/3
f 55/131/7 56/132/7 45/133/7 42/134/7
f 55/135/8 47/136/8 46/137/8 56/127/8
f 46/138/8 47/139/8 50/140/8 51/141/8
f 49/142/21 51/143/21 50/144/21
f 47/145/22 48/146/22 49/147/22 50/148/22
f 56/149/23 46/150/23 48/151/23 57/152/23
f 48/151/22 47/153/22 55/154/22 57/152/22
f 48/146/23 46/155/23 51/156/23 49/147/23
f 52/118/23 54/121/23 56/149/23 57/152/23
f 53/157/22 52/118/22 57/152/22 55/154/22
f 58/158/2 61/159/2 25/160/2 27/161/2
f 32/162/7 31/163/7 62/164/7 65/165/7
f 31/114/4 33/166/4 63/167/4 62/168/4
f 34/169/3 32/170/3 65/171/3 64/172/3
f 33/93/24 35/90/24 66/173/24
f 35/90/25 34/174/25 66/175/25
f 70/176/26 69/177/26 73/178/26
f 69/179/27 70/180/27 68/181/27
f 68/182/28 71/183/28 69/184/28
f 72/185/29 68/181/29 70/180/29
f 69/186/30 71/187/30 73/188/30
f 72/189/31 70/190/31 73/191/31
f 71/192/32 72/193/32 73/194/32
