# Blender v2.80 (sub 75) OBJ File: 'signalite.blend'
# www.blender.org
mtllib signalite_spike.mtl
o SPIKE_Cube.004
v 0.031250 0.044194 0.000000
v 0.468750 0.044194 0.000000
v 0.031250 0.000000 -0.044194
v 0.468750 0.000000 -0.044194
v 0.031250 0.000000 0.044194
v 0.468750 0.000000 0.044194
v 0.031250 -0.044194 0.000000
v 0.468750 -0.044194 0.000000
v 0.031250 0.044194 -0.037722
v 0.343750 0.044194 -0.037722
v 0.031250 0.000000 -0.081916
v 0.343750 0.000000 -0.081916
v 0.031250 0.000000 0.006472
v 0.343750 0.000000 0.006472
v 0.031250 -0.044194 -0.037722
v 0.343750 -0.044194 -0.037722
v -0.000000 0.044194 0.037722
v 0.375000 0.044194 0.037722
v -0.000000 0.000000 -0.006472
v 0.375000 0.000000 -0.006472
v -0.000000 0.000000 0.081916
v 0.375000 0.000000 0.081916
v 0.000000 -0.044194 0.037722
v 0.375000 -0.044194 0.037722
v -0.000000 0.044194 0.000000
v -0.000000 0.000000 -0.044194
v -0.000000 0.000000 0.044194
v 0.000000 -0.044194 0.000000
v -0.000000 0.044194 -0.037722
v -0.000000 0.000000 -0.081916
v -0.000000 0.000000 0.006472
v 0.000000 -0.044194 -0.037722
vt 0.312500 0.187500
vt 0.750000 0.187500
vt 0.750000 0.125000
vt 0.312500 0.125000
vt 0.312500 0.187500
vt 0.750000 0.187500
vt 0.750000 0.125000
vt 0.312500 0.125000
vt 0.312500 0.250000
vt 0.750000 0.250000
vt 0.750000 0.187500
vt 0.312500 0.187500
vt 0.312500 0.250000
vt 0.750000 0.250000
vt 0.812500 0.125000
vt 0.812500 0.187500
vt 0.312500 0.000000
vt 0.625000 0.000000
vt 0.625000 0.062500
vt 0.312500 0.062500
vt 0.625000 0.000000
vt 0.312500 0.000000
vt 0.312500 0.125000
vt 0.625000 0.125000
vt 0.625000 0.062500
vt 0.312500 0.062500
vt 0.625000 0.125000
vt 0.312500 0.125000
vt 0.625000 0.062500
vt 0.625000 0.000000
vt 0.687500 0.000000
vt 0.687500 0.062500
vt 0.312500 0.000000
vt 0.687500 0.000000
vt 0.687500 0.062500
vt 0.312500 0.062500
vt 0.312500 0.000000
vt 0.687500 0.000000
vt 0.687500 0.062500
vt 0.312500 0.062500
vt 0.687500 0.125000
vt 0.312500 0.125000
vt 0.312500 0.062500
vt 0.687500 0.062500
vt 0.687500 0.125000
vt 0.312500 0.125000
vt 0.687500 0.125000
vt 0.625000 0.125000
vt 0.625000 0.062500
vt 0.312500 0.000000
vt 0.312500 0.062500
vt 0.375000 0.062500
vt 0.375000 0.000000
vt 0.312500 0.125000
vt 0.312500 0.062500
vt 0.375000 0.062500
vt 0.375000 0.125000
vt 0.375000 0.125000
vt 0.375000 0.187500
vt 0.312500 0.125000
vt 0.375000 0.125000
vt 0.312500 0.125000
vt 0.312500 0.187500
vt 0.375000 0.187500
vt 0.375000 0.125000
vt 0.312500 0.000000
vt 0.375000 0.000000
vt 0.375000 0.250000
vt 0.312500 0.250000
vt 0.375000 0.250000
vn -0.0000 0.7071 -0.7071
vn 0.0000 -0.7071 -0.7071
vn 0.0000 -0.7071 0.7071
vn -0.0000 0.7071 0.7071
vn 1.0000 0.0000 0.0000
usemtl SIGNALITE
s off
f 1/1/1 2/2/1 4/3/1 3/4/1
f 3/5/2 4/6/2 8/7/2 7/8/2
f 7/9/3 8/10/3 6/11/3 5/12/3
f 5/13/4 6/14/4 2/2/4 1/1/4
f 8/7/5 4/15/5 2/16/5 6/11/5
f 9/17/1 10/18/1 12/19/1 11/20/1
f 11/20/2 12/19/2 16/21/2 15/22/2
f 15/23/3 16/24/3 14/25/3 13/26/3
f 13/26/4 14/25/4 10/27/4 9/28/4
f 16/29/5 12/30/5 10/31/5 14/32/5
f 17/33/1 18/34/1 20/35/1 19/36/1
f 19/37/2 20/38/2 24/39/2 23/40/2
f 23/40/3 24/39/3 22/41/3 21/42/3
f 21/43/4 22/44/4 18/45/4 17/46/4
f 24/39/5 20/47/5 18/48/5 22/49/5
f 3/50/2 7/51/2 28/52/2 26/53/2
f 13/54/4 9/55/4 29/56/4 31/57/4
f 1/1/1 3/4/1 26/58/1 25/59/1
f 7/51/3 5/60/3 27/61/3 28/52/3
f 11/62/2 15/63/2 32/64/2 30/65/2
f 9/55/1 11/66/1 30/67/1 29/56/1
f 5/13/4 1/1/4 25/59/4 27/68/4
f 15/63/3 13/69/3 31/70/3 32/64/3
