# Blender v2.80 (sub 75) OBJ File: 'signalite.blend'
# www.blender.org
mtllib signalite_spike_negating.mtl
o SPIKE_NEGATING_Cube.019
v 0.296875 -0.044194 -0.000000
v 0.296875 0.000000 0.044194
v 0.296875 0.044194 -0.000000
v 0.296875 0.000000 -0.044194
v 0.484375 -0.044194 -0.000000
v 0.484375 0.000000 0.044194
v 0.484375 0.044194 -0.000000
v 0.484375 0.000000 -0.044194
v 0.453125 -0.081916 -0.000000
v 0.328125 -0.037722 -0.044194
v 0.328125 -0.006472 0.000000
v 0.453125 -0.037722 0.044194
v 0.328125 0.081916 0.000000
v 0.453125 0.006472 -0.000000
v 0.328125 0.037722 -0.044194
v 0.453125 0.037722 0.044194
v 0.265625 0.000000 -0.000000
v 0.453125 -0.037722 -0.044194
v 0.453125 -0.006472 0.000000
v 0.453125 0.037722 -0.044194
v 0.328125 0.037722 0.044194
v 0.453125 0.081916 0.000000
v 0.328125 -0.037722 0.044194
v 0.328125 -0.081916 -0.000000
v 0.328125 0.006472 -0.000000
v 0.250000 0.000000 0.000000
v 0.156250 0.044194 -0.037722
v 0.156250 0.000000 -0.081916
v 0.156250 0.000000 0.006472
v 0.156250 -0.044194 -0.037722
v 0.187500 0.044194 0.037722
v 0.187500 0.000000 -0.006472
v 0.187500 0.000000 0.081916
v 0.187500 -0.044194 0.037722
v 0.031250 0.044194 -0.037722
v 0.031250 0.000000 -0.081916
v 0.031250 -0.044194 -0.037722
v 0.031250 0.000000 0.006472
v -0.000000 0.044194 0.037722
v -0.000000 0.000000 -0.006472
v 0.000000 -0.044194 0.037722
v -0.000000 0.000000 0.081916
v 0.031250 0.044194 0.000000
v 0.031250 0.000000 -0.044194
v 0.031250 -0.044194 0.000000
v 0.031250 0.000000 0.044194
v 0.218750 0.044194 0.000000
v 0.218750 0.000000 -0.044194
v 0.218750 -0.044194 0.000000
v 0.218750 0.000000 0.044194
v -0.000000 0.044194 -0.037722
v -0.000000 0.000000 -0.081916
v 0.000000 -0.044194 -0.037722
v -0.000000 0.000000 0.006472
v -0.000000 0.044194 0.000000
v -0.000000 0.000000 -0.044194
v 0.000000 -0.044194 0.000000
v -0.000000 0.000000 0.044194
vt 0.812500 0.062500
vt 0.687500 0.062500
vt 0.687500 0.125000
vt 0.812500 0.125000
vt 0.687500 0.062500
vt 0.687500 0.125000
vt 0.625000 0.125000
vt 0.625000 0.062500
vt 0.812500 0.187500
vt 0.812500 0.250000
vt 0.750000 0.250000
vt 0.750000 0.187500
vt 0.812500 0.000000
vt 0.687500 0.000000
vt 0.812500 0.125000
vt 0.687500 0.125000
vt 0.687500 0.062500
vt 0.812500 0.062500
vt 0.750000 0.250000
vt 0.750000 0.187500
vt 0.812500 0.187500
vt 0.812500 0.250000
vt 0.812500 0.062500
vt 0.687500 0.062500
vt 0.687500 0.000000
vt 0.812500 0.000000
vt 0.812500 0.125000
vt 0.687500 0.125000
vt 0.687500 0.062500
vt 0.812500 0.062500
vt 0.812500 0.000000
vt 0.687500 0.000000
vt 0.812500 0.062500
vt 0.812500 0.062500
vt 0.687500 0.062500
vt 0.687500 0.000000
vt 0.812500 0.000000
vt 0.812500 0.187500
vt 0.812500 0.250000
vt 0.750000 0.250000
vt 0.750000 0.187500
vt 0.500000 0.187500
vt 0.687500 0.187500
vt 0.687500 0.250000
vt 0.500000 0.250000
vt 0.500000 0.125000
vt 0.687500 0.125000
vt 0.500000 0.250000
vt 0.687500 0.250000
vt 0.687500 0.187500
vt 0.500000 0.187500
vt 0.500000 0.187500
vt 0.687500 0.187500
vt 0.687500 0.125000
vt 0.500000 0.125000
vt 0.812500 0.187500
vt 0.875000 0.250000
vt 0.812500 0.250000
vt 0.687500 0.125000
vt 0.812500 0.125000
vt 0.812500 0.187500
vt 0.875000 0.125000
vt 0.812500 0.125000
vt 0.812500 0.250000
vt 0.875000 0.187500
vt 0.812500 0.187500
vt 0.812500 0.125000
vt 0.687500 0.125000
vt 0.625000 0.125000
vt 0.625000 0.062500
vt 0.375000 0.062500
vt 0.562500 0.062500
vt 0.562500 0.000000
vt 0.375000 0.000000
vt 0.437500 0.000000
vt 0.562500 0.000000
vt 0.562500 0.062500
vt 0.437500 0.062500
vt 0.562500 0.000000
vt 0.437500 0.000000
vt 0.437500 0.125000
vt 0.562500 0.125000
vt 0.562500 0.062500
vt 0.437500 0.062500
vt 0.625000 0.062500
vt 0.625000 0.000000
vt 0.687500 0.000000
vt 0.687500 0.062500
vt 0.375000 0.125000
vt 0.562500 0.125000
vt 0.562500 0.062500
vt 0.375000 0.062500
vt 0.375000 0.000000
vt 0.562500 0.000000
vt 0.562500 0.062500
vt 0.375000 0.062500
vt 0.562500 0.125000
vt 0.375000 0.125000
vt 0.687500 0.062500
vt 0.687500 0.125000
vt 0.625000 0.125000
vt 0.625000 0.062500
vt 0.812500 0.125000
vt 0.875000 0.187500
vt 0.812500 0.187500
vt 0.812500 0.250000
vt 0.812500 0.187500
vt 0.812500 0.187500
vt 0.875000 0.125000
vt 0.812500 0.125000
vt 0.562500 0.125000
vt 0.437500 0.125000
vt 0.875000 0.250000
vt 0.812500 0.250000
vt 0.437500 0.187500
vt 0.625000 0.187500
vt 0.625000 0.125000
vt 0.437500 0.125000
vt 0.437500 0.250000
vt 0.625000 0.250000
vt 0.625000 0.187500
vt 0.437500 0.187500
vt 0.437500 0.125000
vt 0.625000 0.125000
vt 0.625000 0.187500
vt 0.437500 0.187500
vt 0.625000 0.250000
vt 0.437500 0.250000
vt 0.437500 -0.000000
vt 0.437500 0.062500
vt 0.375000 0.062500
vt 0.375000 -0.000000
vt 0.437500 0.125000
vt 0.437500 0.062500
vt 0.375000 0.062500
vt 0.375000 0.125000
vt 0.437500 0.125000
vt 0.375000 0.125000
vt 0.375000 0.187500
vt 0.437500 0.187500
vt 0.437500 0.250000
vt 0.375000 0.250000
vt 0.375000 0.187500
vn -0.0000 -0.7071 0.7071
vn -1.0000 0.0000 0.0000
vn 1.0000 0.0000 0.0000
vn 0.0000 0.7071 0.7071
vn 0.0000 0.7071 -0.7071
vn 0.0000 -0.7071 -0.7071
vn -0.7071 0.5000 -0.5000
vn -0.7071 0.5000 0.5000
vn -0.7071 -0.5000 0.5000
vn -0.7071 -0.5000 -0.5000
vn 0.7071 0.5000 0.5000
vn 0.7071 -0.5000 0.5000
vn 0.7071 -0.5000 -0.5000
vn 0.7071 0.5000 -0.5000
usemtl SIGNALITE
s off
f 12/1/1 23/2/1 24/3/1 9/4/1
f 15/5/2 11/6/2 21/7/2 13/8/2
f 8/9/3 7/10/3 6/11/3 5/12/3
f 14/13/4 25/14/4 23/2/4 12/1/4
f 18/15/5 10/16/5 25/17/5 14/18/5
f 16/19/3 19/20/3 20/21/3 22/22/3
f 22/23/4 13/24/4 21/25/4 16/26/4
f 16/27/1 21/28/1 11/29/1 19/30/1
f 19/31/6 11/32/6 15/5/6 20/33/6
f 9/34/6 24/35/6 10/36/6 18/37/6
f 18/38/3 14/39/3 12/40/3 9/41/3
f 8/42/5 4/43/5 3/44/5 7/45/5
f 5/46/6 1/47/6 4/43/6 8/42/6
f 6/48/1 2/49/1 1/50/1 5/51/1
f 7/52/4 3/53/4 2/54/4 6/55/4
f 4/56/7 17/57/7 3/58/7
f 20/33/5 15/5/5 13/59/5 22/60/5
f 3/61/8 17/62/8 2/63/8
f 2/64/9 17/65/9 1/66/9
f 1/67/10 17/65/10 4/56/10
f 23/2/2 25/68/2 10/69/2 24/70/2
f 42/71/4 33/72/4 31/73/4 39/74/4
f 35/75/5 27/76/5 28/77/5 36/78/5
f 36/78/6 28/77/6 30/79/6 37/80/6
f 37/81/1 30/82/1 29/83/1 38/84/1
f 30/85/3 28/86/3 27/87/3 29/88/3
f 39/89/5 31/90/5 32/91/5 40/92/5
f 40/93/6 32/94/6 34/95/6 41/96/6
f 41/96/1 34/95/1 33/97/1 42/98/1
f 34/99/3 32/100/3 31/101/3 33/102/3
f 50/103/11 26/104/11 47/105/11
f 49/106/12 26/104/12 50/107/12
f 48/108/13 26/109/13 49/110/13
f 38/84/4 29/83/4 27/111/4 35/112/4
f 47/105/14 26/113/14 48/114/14
f 44/115/6 48/116/6 49/117/6 45/118/6
f 45/119/1 49/120/1 50/121/1 46/122/1
f 46/123/4 50/124/4 47/125/4 43/126/4
f 43/126/5 47/125/5 48/127/5 44/128/5
f 36/129/6 37/130/6 53/131/6 52/132/6
f 38/133/4 35/134/4 51/135/4 54/136/4
f 43/126/5 44/137/5 56/138/5 55/139/5
f 45/140/1 46/141/1 58/142/1 57/143/1
f 35/134/5 36/129/5 52/132/5 51/135/5
f 37/130/1 38/133/1 54/136/1 53/131/1
f 44/137/6 45/140/6 57/143/6 56/138/6
f 46/141/4 43/126/4 55/139/4 58/142/4
