# Blender v2.80 (sub 75) OBJ File: 'signalite.blend'
# www.blender.org
mtllib signalite_spike_butt.mtl
o SPIKE_BUTT_Cube.021
v -0.031250 0.044194 0.000000
v -0.031250 -0.000000 -0.044194
v -0.031250 -0.000000 0.044194
v -0.031250 -0.044194 0.000000
v -0.031250 0.044194 -0.037722
v -0.031250 -0.000000 -0.081916
v -0.031250 -0.000000 0.006472
v -0.031250 -0.044194 -0.037722
v 0.000000 0.044194 0.037722
v -0.000000 0.000000 -0.006472
v 0.000000 0.000000 0.081916
v 0.000000 -0.044194 0.037722
v -0.000000 0.044194 0.000000
v -0.000000 0.000000 -0.044194
v 0.000000 0.000000 0.044194
v 0.000000 -0.044194 0.000000
v -0.000000 0.044194 -0.037722
v -0.000000 0.000000 -0.081916
v 0.000000 0.000000 0.006472
v -0.000000 -0.044194 -0.037722
v -0.062500 0.044194 0.037722
v -0.093750 -0.000000 0.037722
v -0.062500 -0.000000 -0.006472
v -0.062500 -0.044194 0.037722
v -0.062500 -0.000000 0.081916
v -0.093750 0.044194 0.000000
v -0.156250 -0.000000 0.000000
v -0.093750 -0.000000 -0.044194
v -0.093750 -0.044194 0.000000
v -0.093750 -0.000000 0.044194
v -0.093750 0.044194 -0.037722
v -0.125000 -0.000000 -0.037722
v -0.093750 -0.000000 -0.081916
v -0.093750 -0.044194 -0.037722
v -0.093750 -0.000000 0.006472
vt 0.375000 0.000000
vt 0.437500 0.000000
vt 0.437500 0.062500
vt 0.375000 0.062500
vt 0.375000 0.125000
vt 0.437500 0.125000
vt 0.437500 0.062500
vt 0.375000 0.062500
vt 0.375000 0.187500
vt 0.437500 0.187500
vt 0.437500 0.125000
vt 0.375000 0.125000
vt 0.437500 0.125000
vt 0.375000 0.125000
vt 0.375000 0.125000
vt 0.437500 0.125000
vt 0.437500 0.187500
vt 0.375000 0.187500
vt 0.437500 0.000000
vt 0.375000 0.000000
vt 0.375000 0.250000
vt 0.437500 0.250000
vt 0.437500 0.250000
vt 0.375000 0.250000
vt 0.437500 0.062500
vt 0.437500 0.125000
vt 0.500000 0.125000
vt 0.500000 0.062500
vt 0.562500 0.062500
vt 0.437500 0.062500
vt 0.437500 0.125000
vt 0.500000 0.125000
vt 0.500000 0.062500
vt 0.437500 -0.000000
vt 0.500000 -0.000000
vt 0.562500 -0.000000
vt 0.437500 -0.000000
vt 0.437500 0.062500
vt 0.500000 0.062500
vt 0.500000 -0.000000
vt 0.437500 0.250000
vt 0.437500 0.187500
vt 0.500000 0.187500
vt 0.500000 0.250000
vt 0.562500 0.250000
vt 0.437500 0.250000
vt 0.437500 0.187500
vt 0.500000 0.187500
vt 0.500000 0.250000
vt 0.437500 0.187500
vt 0.437500 0.125000
vt 0.500000 0.125000
vt 0.500000 0.187500
vt 0.562500 0.187500
vt 0.437500 0.125000
vt 0.500000 0.125000
vt 0.437500 0.062500
vt 0.437500 0.125000
vt 0.500000 0.125000
vt 0.500000 0.062500
vt 0.562500 0.062500
vt 0.437500 0.125000
vt 0.500000 0.125000
vt 0.562500 0.125000
vt 0.437500 0.062500
vt 0.437500 -0.000000
vt 0.500000 -0.000000
vt 0.500000 0.062500
vt 0.437500 -0.000000
vt 0.500000 -0.000000
vt 0.562500 -0.000000
vn -0.0000 -0.7071 -0.7071
vn 0.0000 0.7071 0.7071
vn -0.0000 0.7071 -0.7071
vn 0.0000 -0.7071 0.7071
vn -0.7071 0.5000 0.5000
vn -0.7071 -0.5000 0.5000
vn -0.7071 -0.5000 -0.5000
vn -0.7071 0.5000 -0.5000
vn -0.4472 0.6325 0.6325
vn -0.4472 -0.6325 0.6325
vn -0.4472 -0.6325 -0.6325
vn -0.4472 0.6325 -0.6325
usemtl SIGNALITE
s off
f 2/1/1 14/2/1 16/3/1 4/4/1
f 7/5/2 19/6/2 17/7/2 5/8/2
f 1/9/3 13/10/3 14/11/3 2/12/3
f 4/4/4 16/3/4 15/13/4 3/14/4
f 6/15/1 18/16/1 20/17/1 8/18/1
f 5/8/3 17/7/3 18/19/3 6/20/3
f 3/21/2 15/22/2 13/10/2 1/9/2
f 8/18/4 20/17/4 19/23/4 7/24/4
f 11/25/2 9/26/2 21/27/2 25/28/2
f 25/28/5 21/27/5 22/29/5
f 12/30/4 11/31/4 25/32/4 24/33/4
f 24/33/6 25/32/6 22/29/6
f 10/34/1 12/30/1 24/33/1 23/35/1
f 23/35/7 24/33/7 22/36/7
f 9/37/3 10/38/3 23/39/3 21/40/3
f 21/40/8 23/39/8 22/36/8
f 3/41/2 1/42/2 26/43/2 30/44/2
f 30/44/9 26/43/9 27/45/9
f 4/46/4 3/47/4 30/48/4 29/49/4
f 29/49/10 30/48/10 27/45/10
f 2/50/1 4/51/1 29/52/1 28/53/1
f 28/53/11 29/52/11 27/54/11
f 1/42/3 2/55/3 28/56/3 26/43/3
f 26/43/12 28/56/12 27/54/12
f 7/57/2 5/58/2 31/59/2 35/60/2
f 35/60/5 31/59/5 32/61/5
f 8/62/4 7/57/4 35/60/4 34/63/4
f 34/63/6 35/60/6 32/64/6
f 6/65/1 8/66/1 34/67/1 33/68/1
f 33/68/7 34/67/7 32/61/7
f 5/69/3 6/65/3 33/68/3 31/70/3
f 31/70/8 33/68/8 32/71/8
