# Blender v2.80 (sub 75) OBJ File: 'signalite.blend'
# www.blender.org
mtllib signalite_seer_torch_shell.mtl
o SEER_TORCH_SHELL_Cube.005
v -0.257812 -0.039062 0.164062
v -0.257812 0.039062 0.164062
v -0.257812 -0.039062 0.085938
v -0.257812 0.039062 0.085938
v -0.179688 -0.039062 0.164062
v -0.179688 0.039062 0.164062
v -0.179688 -0.039062 0.085938
v -0.179688 0.039062 0.085938
v -0.257812 -0.039062 -0.085938
v -0.257812 0.039062 -0.085938
v -0.257812 -0.039062 -0.164062
v -0.257812 0.039062 -0.164062
v -0.179688 -0.039062 -0.085938
v -0.179688 0.039062 -0.085938
v -0.179688 -0.039062 -0.164062
v -0.179688 0.039062 -0.164062
vt 0.937500 0.125000
vt 0.937500 0.187500
vt 1.000000 0.187500
vt 1.000000 0.125000
vt 0.937500 0.125000
vt 0.937500 0.187500
vt 1.000000 0.187500
vt 1.000000 0.125000
vt 0.937500 0.125000
vt 0.937500 0.187500
vt 1.000000 0.187500
vt 1.000000 0.125000
vt 0.937500 0.125000
vt 0.937500 0.187500
vt 1.000000 0.187500
vt 1.000000 0.125000
vt 1.000000 0.187500
vt 1.000000 0.125000
vt 0.937500 0.125000
vt 0.937500 0.187500
vt 0.937500 0.125000
vt 0.937500 0.187500
vt 1.000000 0.187500
vt 1.000000 0.125000
vt 0.937500 0.125000
vt 0.937500 0.187500
vt 1.000000 0.187500
vt 1.000000 0.125000
vt 0.937500 0.125000
vt 0.937500 0.187500
vt 1.000000 0.187500
vt 1.000000 0.125000
vt 0.937500 0.125000
vt 0.937500 0.187500
vt 1.000000 0.187500
vt 1.000000 0.125000
vt 1.000000 0.187500
vt 1.000000 0.125000
vt 0.937500 0.125000
vt 0.937500 0.187500
vn 0.0000 0.0000 -1.0000
vn -1.0000 0.0000 0.0000
vn 0.0000 0.0000 1.0000
vn 1.0000 0.0000 0.0000
vn 0.0000 1.0000 0.0000
vn 0.0000 -1.0000 0.0000
usemtl SIGNALITE
s off
f 5/1/1 1/2/1 2/3/1 6/4/1
f 7/5/2 5/6/2 6/7/2 8/8/2
f 3/9/3 7/10/3 8/11/3 4/12/3
f 1/13/4 3/14/4 4/15/4 2/16/4
f 3/9/5 1/2/5 5/17/5 7/18/5
f 8/19/6 6/20/6 2/3/6 4/12/6
f 13/21/1 9/22/1 10/23/1 14/24/1
f 15/25/2 13/26/2 14/27/2 16/28/2
f 11/29/3 15/30/3 16/31/3 12/32/3
f 9/33/4 11/34/4 12/35/4 10/36/4
f 11/29/5 9/22/5 13/37/5 15/38/5
f 16/39/6 14/40/6 10/23/6 12/32/6
