# Blender v2.80 (sub 75) OBJ File: 'signalite.blend'
# www.blender.org
mtllib signalite_spike_devouring.mtl
o SPIKE_DEVOURING_Cube.018
v 0.250000 0.000000 0.000000
v 0.156250 0.044194 -0.037722
v 0.156250 0.000000 -0.081916
v 0.156250 0.000000 0.006472
v 0.156250 -0.044194 -0.037722
v 0.187500 0.044194 0.037722
v 0.187500 0.000000 -0.006472
v 0.187500 0.000000 0.081916
v 0.187500 -0.044194 0.037722
v 0.031250 0.044194 -0.037722
v 0.031250 0.000000 -0.081916
v 0.031250 -0.044194 -0.037722
v 0.031250 0.000000 0.006472
v -0.000000 0.044194 0.037722
v -0.000000 0.000000 -0.006472
v 0.000000 -0.044194 0.037722
v -0.000000 0.000000 0.081916
v 0.031250 0.044194 0.000000
v 0.031250 0.000000 -0.044194
v 0.031250 -0.044194 0.000000
v 0.031250 0.000000 0.044194
v 0.468750 0.000000 0.000000
v 0.312500 0.000000 0.000000
v 0.343750 0.044194 0.000000
v 0.164292 0.115847 0.115847
v 0.343750 0.000000 -0.044194
v 0.343750 -0.044194 0.000000
v 0.343750 0.000000 0.044194
v 0.274778 0.091069 0.046875
v 0.296875 0.022097 0.022097
v 0.274778 0.046875 0.091069
v 0.230584 0.059819 0.015625
v 0.230584 0.015625 0.059819
v 0.218750 0.044194 0.000000
v 0.218750 0.000000 -0.044194
v 0.218750 -0.044194 0.000000
v 0.218750 0.000000 0.044194
v 0.164292 -0.115847 -0.115847
v 0.274778 -0.091069 -0.046875
v 0.296875 -0.022097 -0.022097
v 0.274778 -0.046875 -0.091069
v 0.230584 -0.059819 -0.015625
v 0.230584 -0.015625 -0.059819
v 0.164292 -0.115847 0.115847
v 0.274778 -0.046875 0.091069
v 0.296875 -0.022097 0.022097
v 0.274778 -0.091069 0.046875
v 0.230584 -0.015625 0.059819
v 0.230584 -0.059819 0.015625
v 0.164292 0.115847 -0.115847
v 0.274778 0.046875 -0.091069
v 0.296875 0.022097 -0.022097
v 0.274778 0.091069 -0.046875
v 0.230584 0.015625 -0.059819
v 0.230584 0.059819 -0.015625
v -0.000000 0.044194 -0.037722
v -0.000000 0.000000 -0.081916
v 0.000000 -0.044194 -0.037722
v -0.000000 0.000000 0.006472
v -0.000000 0.044194 0.000000
v -0.000000 0.000000 -0.044194
v 0.000000 -0.044194 0.000000
v -0.000000 0.000000 0.044194
vt 0.625000 0.125000
vt 0.750000 0.187500
vt 0.625000 0.187500
vt 0.375000 0.062500
vt 0.562500 0.062500
vt 0.562500 0.000000
vt 0.375000 0.000000
vt 0.437500 0.000000
vt 0.562500 0.000000
vt 0.562500 0.062500
vt 0.437500 0.062500
vt 0.562500 0.000000
vt 0.437500 0.000000
vt 0.437500 0.125000
vt 0.562500 0.125000
vt 0.562500 0.062500
vt 0.437500 0.062500
vt 0.625000 0.062500
vt 0.625000 0.000000
vt 0.687500 0.000000
vt 0.687500 0.062500
vt 0.375000 0.125000
vt 0.562500 0.125000
vt 0.562500 0.062500
vt 0.375000 0.062500
vt 0.375000 0.000000
vt 0.562500 0.000000
vt 0.562500 0.062500
vt 0.375000 0.062500
vt 0.562500 0.125000
vt 0.375000 0.125000
vt 0.687500 0.062500
vt 0.687500 0.125000
vt 0.625000 0.125000
vt 0.625000 0.062500
vt 0.812500 0.125000
vt 0.875000 0.187500
vt 0.812500 0.187500
vt 0.812500 0.250000
vt 0.812500 0.187500
vt 0.812500 0.187500
vt 0.875000 0.125000
vt 0.812500 0.125000
vt 0.562500 0.125000
vt 0.437500 0.125000
vt 0.875000 0.250000
vt 0.812500 0.250000
vt 0.750000 0.250000
vt 0.625000 0.250000
vt 0.625000 0.187500
vt 0.750000 0.125000
vt 0.625000 0.125000
vt 0.625000 0.250000
vt 0.625000 0.187500
vt 0.875000 0.187500
vt 0.812500 0.125000
vt 0.812500 0.187500
vt 0.812500 0.250000
vt 0.875000 0.187500
vt 0.625000 0.312500
vt 0.625000 0.375000
vt 0.750000 0.375000
vt 0.375000 0.375000
vt 0.375000 0.312500
vt 0.500000 0.375000
vt 0.875000 0.375000
vt 0.875000 0.312500
vt 1.000000 0.375000
vt 0.625000 0.375000
vt 0.625000 0.312500
vt 0.562500 0.375000
vt 0.312500 0.375000
vt 0.812500 0.375000
vt 0.437500 0.187500
vt 0.625000 0.187500
vt 0.625000 0.125000
vt 0.437500 0.125000
vt 0.437500 0.250000
vt 0.625000 0.250000
vt 0.625000 0.187500
vt 0.437500 0.187500
vt 0.437500 0.125000
vt 0.625000 0.125000
vt 0.625000 0.187500
vt 0.437500 0.187500
vt 0.625000 0.250000
vt 0.437500 0.250000
vt 0.625000 0.312500
vt 0.625000 0.375000
vt 0.750000 0.375000
vt 0.375000 0.375000
vt 0.375000 0.312500
vt 0.500000 0.375000
vt 0.875000 0.375000
vt 0.875000 0.312500
vt 1.000000 0.375000
vt 0.625000 0.375000
vt 0.625000 0.312500
vt 0.562500 0.375000
vt 0.312500 0.375000
vt 0.812500 0.375000
vt 0.625000 0.312500
vt 0.625000 0.375000
vt 0.750000 0.375000
vt 0.375000 0.375000
vt 0.375000 0.312500
vt 0.500000 0.375000
vt 0.875000 0.375000
vt 0.875000 0.312500
vt 1.000000 0.375000
vt 0.625000 0.375000
vt 0.625000 0.312500
vt 0.562500 0.375000
vt 0.312500 0.375000
vt 0.812500 0.375000
vt 0.625000 0.312500
vt 0.625000 0.375000
vt 0.750000 0.375000
vt 0.375000 0.375000
vt 0.375000 0.312500
vt 0.500000 0.375000
vt 0.875000 0.375000
vt 0.875000 0.312500
vt 1.000000 0.375000
vt 0.625000 0.375000
vt 0.625000 0.312500
vt 0.562500 0.375000
vt 0.312500 0.375000
vt 0.812500 0.375000
vt 0.437500 -0.000000
vt 0.437500 0.062500
vt 0.375000 0.062500
vt 0.375000 -0.000000
vt 0.437500 0.125000
vt 0.437500 0.062500
vt 0.375000 0.062500
vt 0.375000 0.125000
vt 0.437500 0.125000
vt 0.375000 0.125000
vt 0.375000 0.187500
vt 0.437500 0.187500
vt 0.437500 0.250000
vt 0.375000 0.250000
vt 0.375000 0.187500
vn 0.2425 0.6860 0.6860
vn -0.0000 0.7071 0.7071
vn -0.0000 0.7071 -0.7071
vn 0.0000 -0.7071 -0.7071
vn 0.0000 -0.7071 0.7071
vn 1.0000 0.0000 0.0000
vn 0.7071 0.5000 0.5000
vn 0.7071 -0.5000 0.5000
vn 0.7071 -0.5000 -0.5000
vn 0.7071 0.5000 -0.5000
vn 0.2425 0.6860 -0.6860
vn 0.2425 -0.6860 -0.6860
vn 0.2425 -0.6860 0.6860
vn -0.7071 -0.5000 -0.5000
vn -0.7071 0.5000 -0.5000
vn -0.7071 0.5000 0.5000
vn -0.7071 -0.5000 0.5000
vn -0.1715 0.8073 -0.5647
vn 0.5145 0.6063 0.6063
vn -0.8575 -0.3638 -0.3638
vn -0.1715 -0.5647 0.8073
vn 0.3162 -0.8561 0.4088
vn 0.9487 0.2236 0.2236
vn 0.3162 0.4088 -0.8561
vn -0.3162 -0.6708 -0.6708
vn -0.1715 -0.8073 0.5647
vn 0.5145 -0.6063 -0.6063
vn -0.8575 0.3638 0.3638
vn -0.1715 0.5647 -0.8073
vn 0.3162 0.8561 -0.4088
vn 0.9487 -0.2236 -0.2236
vn 0.3162 -0.4088 0.8561
vn -0.3162 0.6708 0.6708
vn -0.1715 0.5647 0.8073
vn 0.5145 -0.6063 0.6063
vn -0.8575 0.3638 -0.3638
vn -0.1715 -0.8073 -0.5647
vn 0.3162 -0.4088 -0.8561
vn 0.9487 -0.2236 0.2236
vn 0.3162 0.8561 0.4088
vn -0.3162 0.6708 -0.6708
vn -0.1715 -0.5647 -0.8073
vn 0.5145 0.6063 -0.6063
vn -0.8575 -0.3638 0.3638
vn -0.1715 0.8073 0.5647
vn 0.3162 0.4088 0.8561
vn 0.9487 0.2236 -0.2236
vn 0.3162 -0.8561 -0.4088
vn -0.3162 -0.6708 0.6708
usemtl SIGNALITE
s off
f 28/1/1 22/2/1 24/3/1
f 17/4/2 8/5/2 6/6/2 14/7/2
f 10/8/3 2/9/3 3/10/3 11/11/3
f 11/11/4 3/10/4 5/12/4 12/13/4
f 12/14/5 5/15/5 4/16/5 13/17/5
f 5/18/6 3/19/6 2/20/6 4/21/6
f 14/22/3 6/23/3 7/24/3 15/25/3
f 15/26/4 7/27/4 9/28/4 16/29/4
f 16/29/5 9/28/5 8/30/5 17/31/5
f 9/32/6 7/33/6 6/34/6 8/35/6
f 37/36/7 1/37/7 34/38/7
f 36/39/8 1/37/8 37/40/8
f 35/41/9 1/42/9 36/43/9
f 13/17/2 4/16/2 2/44/2 10/45/2
f 34/38/10 1/46/10 35/47/10
f 24/3/11 22/48/11 26/49/11
f 26/50/12 22/51/12 27/52/12
f 27/53/13 22/2/13 28/54/13
f 26/55/14 27/56/14 23/57/14
f 24/58/15 26/55/15 23/57/15
f 28/59/16 24/58/16 23/57/16
f 27/56/17 28/59/17 23/57/17
f 29/60/18 32/61/18 25/62/18
f 31/63/19 29/64/19 25/65/19
f 32/66/20 33/67/20 25/68/20
f 33/69/21 31/70/21 25/62/21
f 30/71/22 31/70/22 33/69/22
f 30/72/23 29/64/23 31/63/23
f 30/71/24 32/61/24 29/60/24
f 30/73/25 33/67/25 32/66/25
f 19/74/4 35/75/4 36/76/4 20/77/4
f 20/78/5 36/79/5 37/80/5 21/81/5
f 21/82/2 37/83/2 34/84/2 18/85/2
f 18/85/3 34/84/3 35/86/3 19/87/3
f 39/88/26 42/89/26 38/90/26
f 41/91/27 39/92/27 38/93/27
f 42/94/28 43/95/28 38/96/28
f 43/97/29 41/98/29 38/90/29
f 40/99/30 41/98/30 43/97/30
f 40/100/31 39/92/31 41/91/31
f 40/99/32 42/89/32 39/88/32
f 40/101/33 43/95/33 42/94/33
f 45/102/34 48/103/34 44/104/34
f 47/105/35 45/106/35 44/107/35
f 48/108/36 49/109/36 44/110/36
f 49/111/37 47/112/37 44/104/37
f 46/113/38 47/112/38 49/111/38
f 46/114/39 45/106/39 47/105/39
f 46/113/40 48/103/40 45/102/40
f 46/115/41 49/109/41 48/108/41
f 51/116/42 54/117/42 50/118/42
f 53/119/43 51/120/43 50/121/43
f 54/122/44 55/123/44 50/124/44
f 55/125/45 53/126/45 50/118/45
f 52/127/46 53/126/46 55/125/46
f 52/128/47 51/120/47 53/119/47
f 52/127/48 54/117/48 51/116/48
f 52/129/49 55/123/49 54/122/49
f 11/130/4 12/131/4 58/132/4 57/133/4
f 13/134/2 10/135/2 56/136/2 59/137/2
f 18/85/3 19/138/3 61/139/3 60/140/3
f 20/141/5 21/142/5 63/143/5 62/144/5
f 10/135/3 11/130/3 57/133/3 56/136/3
f 12/131/5 13/134/5 59/137/5 58/132/5
f 19/138/4 20/141/4 62/144/4 61/139/4
f 21/142/2 18/85/2 60/140/2 63/143/2
