# Blender v2.80 (sub 75) OBJ File: 'signalite.blend'
# www.blender.org
mtllib signalite_singing_inventory.mtl
o SPIKE_Cube.004
v 0.538273 0.468750 0.477903
v 0.538273 0.031250 0.477903
v 0.477903 0.468750 0.461727
v 0.477903 0.031250 0.461727
v 0.522097 0.468750 0.538273
v 0.522097 0.031250 0.538273
v 0.461727 0.468750 0.522097
v 0.461727 0.031250 0.522097
v 0.519412 0.468750 0.445235
v 0.519412 0.156250 0.445235
v 0.459042 0.468750 0.429058
v 0.459042 0.156250 0.429058
v 0.503236 0.468750 0.505605
v 0.503236 0.156250 0.505605
v 0.442866 0.468750 0.489429
v 0.442866 0.156250 0.489429
v 0.557134 0.500000 0.510571
v 0.557134 0.125000 0.510571
v 0.496764 0.500000 0.494395
v 0.496764 0.125000 0.494395
v 0.540958 0.500000 0.570942
v 0.540958 0.125000 0.570942
v 0.480588 0.500000 0.554765
v 0.480588 0.125000 0.554765
v 0.538273 0.500000 0.477903
v 0.477903 0.500000 0.461727
v 0.522097 0.500000 0.538273
v 0.461727 0.500000 0.522097
v 0.519412 0.500000 0.445235
v 0.459042 0.500000 0.429058
v 0.503236 0.500000 0.505605
v 0.442866 0.500000 0.489429
vt 0.312500 0.187500
vt 0.750000 0.187500
vt 0.750000 0.125000
vt 0.312500 0.125000
vt 0.312500 0.187500
vt 0.750000 0.187500
vt 0.750000 0.125000
vt 0.312500 0.125000
vt 0.312500 0.250000
vt 0.750000 0.250000
vt 0.750000 0.187500
vt 0.312500 0.187500
vt 0.312500 0.250000
vt 0.750000 0.250000
vt 0.812500 0.125000
vt 0.812500 0.187500
vt 0.312500 0.000000
vt 0.625000 0.000000
vt 0.625000 0.062500
vt 0.312500 0.062500
vt 0.625000 0.000000
vt 0.312500 0.000000
vt 0.312500 0.125000
vt 0.625000 0.125000
vt 0.625000 0.062500
vt 0.312500 0.062500
vt 0.625000 0.125000
vt 0.312500 0.125000
vt 0.625000 0.062500
vt 0.625000 0.000000
vt 0.687500 0.000000
vt 0.687500 0.062500
vt 0.312500 0.000000
vt 0.687500 0.000000
vt 0.687500 0.062500
vt 0.312500 0.062500
vt 0.312500 0.000000
vt 0.687500 0.000000
vt 0.687500 0.062500
vt 0.312500 0.062500
vt 0.687500 0.125000
vt 0.312500 0.125000
vt 0.312500 0.062500
vt 0.687500 0.062500
vt 0.687500 0.125000
vt 0.312500 0.125000
vt 0.687500 0.125000
vt 0.625000 0.125000
vt 0.625000 0.062500
vt 0.312500 0.000000
vt 0.312500 0.062500
vt 0.375000 0.062500
vt 0.375000 0.000000
vt 0.312500 0.125000
vt 0.312500 0.062500
vt 0.375000 0.062500
vt 0.375000 0.125000
vt 0.375000 0.125000
vt 0.375000 0.187500
vt 0.312500 0.125000
vt 0.375000 0.125000
vt 0.312500 0.125000
vt 0.312500 0.187500
vt 0.375000 0.187500
vt 0.375000 0.125000
vt 0.312500 0.000000
vt 0.375000 0.000000
vt 0.375000 0.250000
vt 0.312500 0.250000
vt 0.375000 0.250000
vn 0.2588 0.0000 -0.9659
vn -0.9659 -0.0000 -0.2588
vn -0.2588 -0.0000 0.9659
vn 0.9659 -0.0000 0.2588
vn 0.0000 -1.0000 -0.0000
usemtl SIGNALITE
s off
f 1/1/1 2/2/1 4/3/1 3/4/1
f 3/5/2 4/6/2 8/7/2 7/8/2
f 7/9/3 8/10/3 6/11/3 5/12/3
f 5/13/4 6/14/4 2/2/4 1/1/4
f 8/7/5 4/15/5 2/16/5 6/11/5
f 9/17/1 10/18/1 12/19/1 11/20/1
f 11/20/2 12/19/2 16/21/2 15/22/2
f 15/23/3 16/24/3 14/25/3 13/26/3
f 13/26/4 14/25/4 10/27/4 9/28/4
f 16/29/5 12/30/5 10/31/5 14/32/5
f 17/33/1 18/34/1 20/35/1 19/36/1
f 19/37/2 20/38/2 24/39/2 23/40/2
f 23/40/3 24/39/3 22/41/3 21/42/3
f 21/43/4 22/44/4 18/45/4 17/46/4
f 24/39/5 20/47/5 18/48/5 22/49/5
f 3/50/2 7/51/2 28/52/2 26/53/2
f 13/54/4 9/55/4 29/56/4 31/57/4
f 1/1/1 3/4/1 26/58/1 25/59/1
f 7/51/3 5/60/3 27/61/3 28/52/3
f 11/62/2 15/63/2 32/64/2 30/65/2
f 9/55/1 11/66/1 30/67/1 29/56/1
f 5/13/4 1/1/4 25/59/4 27/68/4
f 15/63/3 13/69/3 31/70/3 32/64/3
o SINGING_BODY_Cube.013
v 0.450060 0.562500 0.601002
v 0.612440 0.562500 0.507252
v 0.387560 0.562500 0.492748
v 0.549940 0.562500 0.398998
v 0.450060 0.500000 0.601002
v 0.612440 0.500000 0.507252
v 0.387560 0.500000 0.492748
v 0.549940 0.500000 0.398998
v 0.464563 0.562500 0.376122
v 0.410437 0.562500 0.407372
v 0.410437 0.500000 0.407372
v 0.464563 0.500000 0.376122
v 0.535437 0.562500 0.623878
v 0.589563 0.562500 0.592628
v 0.589563 0.500000 0.592628
v 0.535437 0.500000 0.623878
v 0.522877 0.625000 0.414623
v 0.585377 0.625000 0.522877
v 0.477123 0.625000 0.585377
v 0.414623 0.625000 0.477123
v 0.414623 0.562500 0.477123
v 0.477123 0.562500 0.585377
v 0.585377 0.562500 0.522877
v 0.522877 0.562500 0.414623
v 0.538273 0.750000 0.477903
v 0.477903 0.750000 0.461727
v 0.522097 0.750000 0.538273
v 0.461727 0.750000 0.522097
v 0.500000 0.781250 0.500000
v 0.578125 0.625000 0.635316
v 0.573938 0.625000 0.565565
v 0.519812 0.625000 0.596815
v 0.573938 0.562500 0.565565
v 0.519812 0.562500 0.596815
v 0.578125 0.562500 0.635316
v 0.573938 1.000000 0.565565
v 0.519812 1.000000 0.596815
v 0.578125 0.937500 0.635316
v 0.578125 0.812500 0.635316
v 0.519812 0.812500 0.596815
v 0.573938 0.812500 0.565565
v 0.495813 0.625000 0.430248
v 0.495813 0.562500 0.430248
v 0.441687 0.562500 0.461498
v 0.441687 0.625000 0.461498
v 0.426062 0.812500 0.434435
v 0.480188 0.812500 0.403185
v 0.421875 0.812500 0.364683
v 0.421875 0.937500 0.364683
v 0.480188 1.000000 0.403185
v 0.426062 1.000000 0.434435
v 0.421875 0.562500 0.364684
v 0.480188 0.562500 0.403185
v 0.426062 0.562500 0.434435
v 0.480188 0.625000 0.403185
v 0.426062 0.625000 0.434435
v 0.421875 0.625000 0.364684
v 0.522097 0.625000 0.538273
v 0.461727 0.625000 0.522097
v 0.477903 0.625000 0.461727
v 0.538273 0.625000 0.477903
v 0.558313 0.625000 0.538502
v 0.558313 0.562500 0.538502
v 0.504187 0.562500 0.569752
v 0.504187 0.625000 0.569752
v 0.562500 0.531250 0.608253
v 0.437500 0.531250 0.391747
v 0.500000 0.937450 0.500000
v 0.461727 0.843700 0.522097
v 0.522097 0.843700 0.538273
v 0.477903 0.843700 0.461727
v 0.538273 0.843700 0.477903
v 0.500000 0.812450 0.500000
vt 0.875000 0.562500
vt 0.875000 0.500000
vt 0.937500 0.500000
vt 0.937500 0.562500
vt 0.562500 0.437500
vt 0.562500 0.375000
vt 0.500000 0.375000
vt 0.500000 0.437500
vt 0.750000 0.562500
vt 0.750000 0.500000
vt 0.750000 0.500000
vt 0.750000 0.437500
vt 0.625000 0.437500
vt 0.625000 0.500000
vt 1.000000 0.500000
vt 1.000000 0.562500
vt 0.875000 0.437500
vt 0.875000 0.500000
vt 0.937500 0.500000
vt 0.937500 0.437500
vt 0.687500 0.562500
vt 0.812500 0.562500
vt 0.812500 0.375000
vt 0.687500 0.375000
vt 0.375000 0.437500
vt 0.437500 0.437500
vt 0.437500 0.500000
vt 0.375000 0.500000
vt 0.875000 0.500000
vt 0.875000 0.437500
vt 0.687500 0.500000
vt 0.687500 0.562500
vt 0.625000 0.562500
vt 0.625000 0.500000
vt 0.437500 0.375000
vt 0.562500 0.375000
vt 0.562500 0.312500
vt 0.437500 0.312500
vt 0.750000 0.375000
vt 0.875000 0.375000
vt 0.875000 0.312500
vt 0.750000 0.312500
vt 0.562500 0.312500
vt 0.437500 0.312500
vt 0.437500 0.375000
vt 0.562500 0.375000
vt 0.687500 0.250000
vt 0.687500 0.375000
vt 0.562500 0.375000
vt 0.562500 0.250000
vt 0.750000 0.375000
vt 0.750000 0.312500
vt 0.437500 0.125000
vt 0.375000 0.125000
vt 0.375000 0.250000
vt 0.437500 0.250000
vt 0.375000 0.125000
vt 0.437500 0.125000
vt 0.437500 0.250000
vt 0.375000 0.250000
vt 0.500000 0.125000
vt 0.500000 0.250000
vt 0.500000 0.312500
vt 0.562500 0.312500
vt 0.500000 0.375000
vt 0.562500 0.312500
vt 0.500000 0.312500
vt 0.562500 0.375000
vt 0.687500 0.312500
vt 0.750000 0.312500
vt 0.687500 0.375000
vt 0.750000 0.312500
vt 0.687500 0.312500
vt 0.750000 0.375000
vt 0.812500 0.375000
vt 0.812500 0.562500
vt 0.687500 0.562500
vt 0.687500 0.375000
vt 0.625000 0.375000
vt 0.625000 0.562500
vt 0.562500 0.500000
vt 0.562500 0.437500
vt 0.875000 0.437500
vt 0.875000 0.500000
vt 0.625000 0.562500
vt 0.625000 0.375000
vt 0.562500 0.437500
vt 0.562500 0.500000
vt 0.812500 0.250000
vt 0.812500 0.312500
vt 0.750000 0.312500
vt 0.750000 0.250000
vt 0.812500 0.250000
vt 0.750000 0.250000
vt 0.500000 0.312500
vt 0.500000 0.250000
vt 0.687500 0.250000
vt 0.625000 0.312500
vt 0.562500 0.312500
vt 0.562500 0.250000
vt 0.562500 0.250000
vt 0.500000 0.250000
vt 0.687500 0.250000
vt 0.812500 0.312500
vt 0.812500 0.250000
vt 0.750000 0.312500
vt 0.375000 0.312500
vt 0.375000 0.375000
vt 0.562500 0.375000
vt 0.562500 0.312500
vt 0.687500 0.375000
vt 0.500000 0.375000
vt 0.500000 0.312500
vt 0.687500 0.312500
vt 0.562500 0.187500
vt 0.500000 0.187500
vt 0.500000 0.125000
vt 0.812500 0.312500
vt 0.875000 0.250000
vt 0.812500 0.250000
vt 0.812500 0.250000
vt 0.875000 0.250000
vt 0.750000 0.312500
vt 0.687500 0.312500
vt 0.687500 0.250000
vt 0.750000 0.250000
vt 0.687500 0.312500
vt 0.750000 0.312500
vt 0.750000 0.250000
vt 0.687500 0.250000
vt 0.625000 0.375000
vt 0.625000 0.312500
vt 0.687500 0.312500
vt 0.687500 0.375000
vt 0.687500 0.375000
vt 0.500000 0.375000
vt 0.500000 0.312500
vt 0.375000 0.312500
vt 0.375000 0.375000
vt 0.562500 0.375000
vt 0.562500 0.312500
vt 0.812500 0.312500
vt 0.812500 0.250000
vt 0.750000 0.312500
vt 0.500000 0.250000
vt 0.500000 0.312500
vt 0.625000 0.312500
vt 0.687500 0.250000
vt 0.750000 0.250000
vt 0.562500 0.250000
vt 0.562500 0.312500
vt 0.750000 0.312500
vt 0.562500 0.250000
vt 0.750000 0.250000
vt 0.500000 0.250000
vt 0.687500 0.250000
vt 0.812500 0.250000
vt 0.437500 0.125000
vt 0.500000 0.125000
vt 0.500000 0.250000
vt 0.437500 0.250000
vt 0.625000 0.375000
vt 0.625000 0.312500
vt 0.687500 0.312500
vt 0.687500 0.375000
vt 0.750000 0.312500
vt 0.750000 0.250000
vt 0.687500 0.250000
vt 0.750000 0.312500
vt 0.687500 0.312500
vt 0.687500 0.250000
vt 0.750000 0.250000
vt 0.875000 0.250000
vt 0.875000 0.250000
vt 0.812500 0.250000
vt 0.812500 0.312500
vt 0.812500 0.250000
vt 0.750000 0.250000
vt 0.437500 0.187500
vt 0.437500 0.250000
vt 0.500000 0.187500
vt 0.625000 0.187500
vt 0.562500 0.125000
vt 0.562500 0.187500
vt 0.437500 0.187500
vt 0.625000 0.312500
vt 0.625000 0.250000
vt 0.562500 0.312500
vt 0.625000 0.250000
vt 0.625000 0.312500
vt 0.562500 0.250000
vt 0.812500 0.250000
vt 0.812500 0.312500
vt 0.750000 0.312500
vn -0.9659 0.0000 -0.2588
vn 0.9659 0.0000 0.2588
vn -0.8660 0.0000 0.5000
vn 0.8660 0.0000 -0.5000
vn -0.5000 0.0000 -0.8660
vn 0.2588 0.0000 -0.9659
vn 0.0000 1.0000 -0.0000
vn 0.5000 0.0000 0.8660
vn -0.2588 0.0000 0.9659
vn 0.1830 0.7071 -0.6830
vn -0.1830 0.7071 0.6830
vn 0.6830 0.7071 0.1830
vn -0.6830 0.7071 -0.1830
vn 0.0000 -1.0000 0.0000
vn -0.5510 -0.0000 0.8345
vn 0.9982 0.0000 -0.0599
vn 0.3536 0.7071 0.6124
vn 0.2455 0.3162 -0.9164
vn 0.5030 -0.4082 -0.7618
vn -0.9112 -0.4082 0.0547
vn -0.3536 0.7071 -0.6124
vn 0.5510 0.0000 -0.8345
vn -0.9982 -0.0000 0.0599
vn 0.9112 -0.4082 -0.0547
vn -0.5030 -0.4082 0.7618
vn -0.1830 -0.7071 0.6830
vn -0.2455 0.3162 0.9164
vn -0.9164 0.3162 -0.2455
vn 0.9164 0.3162 0.2455
vn -0.6830 -0.7071 -0.1830
vn 0.6830 -0.7071 0.1830
vn 0.1830 -0.7071 -0.6830
usemtl SIGNALITE
s off
f 39/71/6 35/72/6 42/73/6 43/74/6
f 38/75/7 34/76/7 46/77/7 47/78/7
f 35/72/8 39/71/8 37/79/8 33/80/8
f 40/81/9 36/82/9 34/83/9 38/84/9
f 42/73/10 41/85/10 44/86/10 43/74/10
f 36/87/11 40/88/11 44/89/11 41/90/11
f 34/91/12 36/92/12 35/93/12 33/94/12
f 48/95/13 47/96/13 46/97/13 45/98/13
f 35/93/12 36/92/12 41/99/12 42/100/12
f 33/101/14 37/102/14 48/103/14 45/104/14
f 56/105/10 53/106/10 52/107/10 49/108/10
f 53/109/8 54/110/8 51/111/8 52/112/8
f 55/113/9 56/114/9 49/115/9 50/116/9
f 51/117/12 50/118/12 49/119/12 52/120/12
f 54/110/13 55/121/13 50/122/13 51/111/13
f 91/123/14 90/124/14 59/125/14 60/126/14
f 93/127/11 92/128/11 58/129/11 57/130/11
f 92/131/6 91/123/6 60/126/6 58/132/6
f 57/133/15 58/134/15 61/135/15
f 60/136/16 59/137/16 61/138/16
f 59/139/17 57/140/17 61/141/17
f 58/142/18 60/143/18 61/144/18
f 39/145/19 40/146/19 38/147/19 37/148/19
f 37/149/19 38/150/19 47/151/19 48/152/19
f 40/146/19 39/145/19 43/153/19 44/154/19
f 34/155/12 33/156/12 45/157/12 46/158/12
f 66/159/20 67/160/20 62/161/20 64/162/20
f 67/160/21 65/163/21 63/164/21 62/161/21
f 71/165/21 73/166/21 68/167/21 70/168/21
f 71/169/20 72/170/20 64/162/20 62/161/20
f 63/164/21 73/171/21 71/169/21 62/161/21
f 72/172/20 71/165/20 70/168/20 69/173/20
f 70/174/22 68/175/22 69/176/22
f 73/177/10 72/178/10 69/179/10 68/180/10
f 64/181/10 72/182/10 73/183/10 63/184/10
f 100/185/23 104/186/23 103/187/23
f 84/188/24 85/189/24 99/190/24
f 86/191/25 84/188/25 99/192/25
f 85/193/9 87/194/9 74/195/9 75/196/9
f 88/197/8 86/198/8 76/199/8 77/200/8
f 87/201/12 88/202/12 77/203/12 74/204/12
f 87/205/13 79/206/13 78/207/13 88/197/13
f 78/208/13 79/209/13 82/210/13 83/211/13
f 81/212/26 83/213/26 82/214/26
f 79/215/27 80/216/27 81/217/27 82/218/27
f 88/219/28 78/220/28 80/221/28 89/222/28
f 80/221/27 79/223/27 87/224/27 89/222/27
f 80/216/28 78/225/28 83/226/28 81/217/28
f 84/188/28 86/191/28 88/219/28 89/222/28
f 85/227/27 84/188/27 89/222/27 87/224/27
f 90/228/7 93/229/7 57/230/7 59/231/7
f 64/232/12 63/233/12 94/234/12 97/235/12
f 63/184/9 65/236/9 95/237/9 94/238/9
f 66/239/8 64/240/8 97/241/8 96/242/8
f 65/163/29 67/160/29 98/243/29
f 67/160/30 66/244/30 98/245/30
f 102/246/31 101/247/31 105/248/31
f 101/249/32 102/250/32 100/251/32
f 100/252/33 103/253/33 101/254/33
f 104/255/34 100/251/34 102/250/34
f 101/256/35 103/257/35 105/258/35
f 104/259/36 102/260/36 105/261/36
f 103/262/37 104/263/37 105/264/37
