# Blender v2.80 (sub 75) OBJ File: 'signalite.blend'
# www.blender.org
mtllib signalite_listening_inventory.mtl
o SPIKE_Cube.004
v 0.538273 0.468750 0.477903
v 0.538273 0.031250 0.477903
v 0.477903 0.468750 0.461727
v 0.477903 0.031250 0.461727
v 0.522097 0.468750 0.538273
v 0.522097 0.031250 0.538273
v 0.461727 0.468750 0.522097
v 0.461727 0.031250 0.522097
v 0.519412 0.468750 0.445235
v 0.519412 0.156250 0.445235
v 0.459042 0.468750 0.429058
v 0.459042 0.156250 0.429058
v 0.503236 0.468750 0.505605
v 0.503236 0.156250 0.505605
v 0.442866 0.468750 0.489429
v 0.442866 0.156250 0.489429
v 0.557134 0.500000 0.510571
v 0.557134 0.125000 0.510571
v 0.496764 0.500000 0.494395
v 0.496764 0.125000 0.494395
v 0.540958 0.500000 0.570942
v 0.540958 0.125000 0.570942
v 0.480588 0.500000 0.554765
v 0.480588 0.125000 0.554765
v 0.538273 0.500000 0.477903
v 0.477903 0.500000 0.461727
v 0.522097 0.500000 0.538273
v 0.461727 0.500000 0.522097
v 0.519412 0.500000 0.445235
v 0.459042 0.500000 0.429058
v 0.503236 0.500000 0.505605
v 0.442866 0.500000 0.489429
vt 0.312500 0.187500
vt 0.750000 0.187500
vt 0.750000 0.125000
vt 0.312500 0.125000
vt 0.312500 0.187500
vt 0.750000 0.187500
vt 0.750000 0.125000
vt 0.312500 0.125000
vt 0.312500 0.250000
vt 0.750000 0.250000
vt 0.750000 0.187500
vt 0.312500 0.187500
vt 0.312500 0.250000
vt 0.750000 0.250000
vt 0.812500 0.125000
vt 0.812500 0.187500
vt 0.312500 0.000000
vt 0.625000 0.000000
vt 0.625000 0.062500
vt 0.312500 0.062500
vt 0.625000 0.000000
vt 0.312500 0.000000
vt 0.312500 0.125000
vt 0.625000 0.125000
vt 0.625000 0.062500
vt 0.312500 0.062500
vt 0.625000 0.125000
vt 0.312500 0.125000
vt 0.625000 0.062500
vt 0.625000 0.000000
vt 0.687500 0.000000
vt 0.687500 0.062500
vt 0.312500 0.000000
vt 0.687500 0.000000
vt 0.687500 0.062500
vt 0.312500 0.062500
vt 0.312500 0.000000
vt 0.687500 0.000000
vt 0.687500 0.062500
vt 0.312500 0.062500
vt 0.687500 0.125000
vt 0.312500 0.125000
vt 0.312500 0.062500
vt 0.687500 0.062500
vt 0.687500 0.125000
vt 0.312500 0.125000
vt 0.687500 0.125000
vt 0.625000 0.125000
vt 0.625000 0.062500
vt 0.312500 0.000000
vt 0.312500 0.062500
vt 0.375000 0.062500
vt 0.375000 0.000000
vt 0.312500 0.125000
vt 0.312500 0.062500
vt 0.375000 0.062500
vt 0.375000 0.125000
vt 0.375000 0.125000
vt 0.375000 0.187500
vt 0.312500 0.125000
vt 0.375000 0.125000
vt 0.312500 0.125000
vt 0.312500 0.187500
vt 0.375000 0.187500
vt 0.375000 0.125000
vt 0.312500 0.000000
vt 0.375000 0.000000
vt 0.375000 0.250000
vt 0.312500 0.250000
vt 0.375000 0.250000
vn 0.2588 0.0000 -0.9659
vn -0.9659 -0.0000 -0.2588
vn -0.2588 -0.0000 0.9659
vn 0.9659 -0.0000 0.2588
vn 0.0000 -1.0000 -0.0000
usemtl SIGNALITE
s off
f 1/1/1 2/2/1 4/3/1 3/4/1
f 3/5/2 4/6/2 8/7/2 7/8/2
f 7/9/3 8/10/3 6/11/3 5/12/3
f 5/13/4 6/14/4 2/2/4 1/1/4
f 8/7/5 4/15/5 2/16/5 6/11/5
f 9/17/1 10/18/1 12/19/1 11/20/1
f 11/20/2 12/19/2 16/21/2 15/22/2
f 15/23/3 16/24/3 14/25/3 13/26/3
f 13/26/4 14/25/4 10/27/4 9/28/4
f 16/29/5 12/30/5 10/31/5 14/32/5
f 17/33/1 18/34/1 20/35/1 19/36/1
f 19/37/2 20/38/2 24/39/2 23/40/2
f 23/40/3 24/39/3 22/41/3 21/42/3
f 21/43/4 22/44/4 18/45/4 17/46/4
f 24/39/5 20/47/5 18/48/5 22/49/5
f 3/50/2 7/51/2 28/52/2 26/53/2
f 13/54/4 9/55/4 29/56/4 31/57/4
f 1/1/1 3/4/1 26/58/1 25/59/1
f 7/51/3 5/60/3 27/61/3 28/52/3
f 11/62/2 15/63/2 32/64/2 30/65/2
f 9/55/1 11/66/1 30/67/1 29/56/1
f 5/13/4 1/1/4 25/59/4 27/68/4
f 15/63/3 13/69/3 31/70/3 32/64/3
o LISTENING_BODY_Cube.007
v 0.450060 0.562500 0.601002
v 0.612440 0.562500 0.507252
v 0.387560 0.562500 0.492748
v 0.549940 0.562500 0.398998
v 0.450060 0.500000 0.601002
v 0.612440 0.500000 0.507252
v 0.387560 0.500000 0.492748
v 0.549940 0.500000 0.398998
v 0.464563 0.562500 0.376122
v 0.410437 0.562500 0.407372
v 0.410437 0.500000 0.407372
v 0.464563 0.500000 0.376122
v 0.535437 0.562500 0.623878
v 0.589563 0.562500 0.592628
v 0.589563 0.500000 0.592628
v 0.535437 0.500000 0.623878
v 0.522877 0.625000 0.414623
v 0.585377 0.625000 0.522877
v 0.477123 0.625000 0.585377
v 0.414623 0.625000 0.477123
v 0.414623 0.562500 0.477123
v 0.477123 0.562500 0.585377
v 0.585377 0.562500 0.522877
v 0.522877 0.562500 0.414623
v 0.538273 0.625000 0.477903
v 0.522097 0.625000 0.538273
v 0.461727 0.625000 0.522097
v 0.477903 0.625000 0.461727
v 0.538273 0.812500 0.477903
v 0.477903 0.812500 0.461727
v 0.522097 0.812500 0.538273
v 0.461727 0.812500 0.522097
v 0.461727 0.875000 0.522097
v 0.522097 0.875000 0.538273
v 0.477903 0.875000 0.461727
v 0.538273 0.875000 0.477903
v 0.500000 0.937500 0.500000
v 0.511048 0.814070 0.519137
v 0.577340 0.946653 0.633956
v 0.422660 0.946653 0.366044
v 0.488951 0.814071 0.480863
v 0.422660 0.990847 0.366044
v 0.488951 1.123430 0.480863
v 0.511048 1.123430 0.519137
v 0.577340 0.990847 0.633956
v 0.500000 1.057138 0.500000
v 0.455806 0.968750 0.423453
v 0.544194 0.968750 0.576547
v 0.500000 0.880362 0.500000
v 0.593354 0.968750 0.599195
v 0.527063 0.836168 0.484375
v 0.527063 1.101333 0.484375
v 0.460772 0.968750 0.369555
v 0.472937 1.101333 0.515625
v 0.406645 0.968750 0.400805
v 0.539228 0.968750 0.630445
v 0.472937 0.836168 0.515625
v 0.593750 0.625000 0.662380
v 0.589563 0.625000 0.592628
v 0.535437 0.625000 0.623878
v 0.589563 0.562500 0.592628
v 0.535437 0.562500 0.623878
v 0.593750 0.562500 0.662380
v 0.558313 0.562500 0.538502
v 0.504187 0.562500 0.569752
v 0.562500 0.500000 0.608253
v 0.558313 0.625000 0.538502
v 0.589563 0.750000 0.592628
v 0.593750 0.750000 0.662380
v 0.504187 0.625000 0.569752
v 0.535437 0.750000 0.623878
v 0.593750 0.812500 0.662380
v 0.535437 0.812500 0.623878
v 0.589563 0.812500 0.592628
v 0.625000 0.937500 0.716506
v 0.566687 0.875000 0.678005
v 0.620813 0.875000 0.646755
v 0.625000 0.875000 0.716506
v 0.406250 0.625000 0.337620
v 0.410437 0.625000 0.407372
v 0.464563 0.625000 0.376122
v 0.410437 0.562500 0.407372
v 0.464563 0.562500 0.376122
v 0.406250 0.562500 0.337620
v 0.441687 0.562500 0.461498
v 0.495813 0.562500 0.430248
v 0.437500 0.500000 0.391747
v 0.441687 0.625000 0.461498
v 0.410437 0.750000 0.407372
v 0.406250 0.750000 0.337620
v 0.495813 0.625000 0.430248
v 0.464563 0.750000 0.376122
v 0.406250 0.812500 0.337620
v 0.464563 0.812500 0.376122
v 0.410437 0.812500 0.407372
v 0.375000 0.937500 0.283494
v 0.433313 0.875000 0.321995
v 0.379187 0.875000 0.353245
v 0.375000 0.875000 0.283494
vt 0.875000 0.562500
vt 0.875000 0.500000
vt 0.937500 0.500000
vt 0.937500 0.562500
vt 0.562500 0.437500
vt 0.562500 0.375000
vt 0.500000 0.375000
vt 0.500000 0.437500
vt 0.750000 0.562500
vt 0.750000 0.500000
vt 0.750000 0.500000
vt 0.750000 0.437500
vt 0.625000 0.437500
vt 0.625000 0.500000
vt 1.000000 0.500000
vt 1.000000 0.562500
vt 0.875000 0.437500
vt 0.875000 0.500000
vt 0.937500 0.500000
vt 0.937500 0.437500
vt 0.687500 0.562500
vt 0.812500 0.562500
vt 0.812500 0.375000
vt 0.687500 0.375000
vt 0.375000 0.437500
vt 0.437500 0.437500
vt 0.437500 0.500000
vt 0.375000 0.500000
vt 0.875000 0.500000
vt 0.875000 0.437500
vt 0.687500 0.500000
vt 0.687500 0.562500
vt 0.625000 0.562500
vt 0.625000 0.500000
vt 0.437500 0.375000
vt 0.562500 0.375000
vt 0.562500 0.312500
vt 0.437500 0.312500
vt 0.750000 0.375000
vt 0.875000 0.375000
vt 0.875000 0.312500
vt 0.750000 0.312500
vt 0.562500 0.312500
vt 0.437500 0.312500
vt 0.437500 0.375000
vt 0.562500 0.375000
vt 0.687500 0.250000
vt 0.687500 0.375000
vt 0.562500 0.375000
vt 0.562500 0.250000
vt 0.750000 0.375000
vt 0.750000 0.312500
vt 0.416667 0.041667
vt 0.416667 0.208333
vt 0.583333 0.208333
vt 0.583333 0.041667
vt 0.437500 0.062500
vt 0.375000 0.062500
vt 0.375000 0.250000
vt 0.437500 0.250000
vt 0.375000 0.062500
vt 0.437500 0.062500
vt 0.437500 0.250000
vt 0.375000 0.250000
vt 0.500000 0.062500
vt 0.500000 0.250000
vt 0.437500 0.062500
vt 0.500000 0.062500
vt 0.500000 0.250000
vt 0.437500 0.250000
vt 0.812500 0.250000
vt 0.875000 0.250000
vt 0.875000 0.312500
vt 0.812500 0.312500
vt 0.812500 0.250000
vt 0.750000 0.250000
vt 0.750000 0.312500
vt 0.812500 0.312500
vt 0.812500 0.375000
vt 0.812500 0.562500
vt 0.687500 0.562500
vt 0.687500 0.375000
vt 0.625000 0.375000
vt 0.625000 0.562500
vt 0.562500 0.500000
vt 0.562500 0.437500
vt 0.875000 0.437500
vt 0.875000 0.500000
vt 0.625000 0.562500
vt 0.625000 0.375000
vt 0.562500 0.437500
vt 0.562500 0.500000
vt 0.812500 0.375000
vt 0.875000 0.312500
vt 0.687500 0.312500
vt 0.687500 0.375000
vt 0.875000 0.375000
vt 0.437500 0.312500
vt 0.625000 0.312500
vt 0.625000 0.375000
vt 0.437500 0.375000
vt 0.937500 0.312500
vt 0.937500 0.375000
vt 1.000000 0.312500
vt 0.687500 0.312500
vt 0.875000 0.375000
vt 0.687500 0.375000
vt 0.687500 0.312500
vt 0.625000 0.312500
vt 0.937500 0.312500
vt 0.687500 0.312500
vt 0.875000 0.312500
vt 0.625000 0.312500
vt 0.437500 0.375000
vt 0.625000 0.375000
vt 0.437500 0.312500
vt 0.625000 0.312500
vt 0.687500 0.312500
vt 0.375000 0.312500
vt 0.375000 0.375000
vt 0.312500 0.312500
vt 0.843750 0.281250
vt 0.718750 0.281250
vt 0.593750 0.281250
vt 0.468750 0.281250
vt 0.718750 0.281250
vt 0.593750 0.281250
vt 0.687500 0.312500
vt 0.375000 0.312500
vt 0.812500 0.250000
vt 0.812500 0.312500
vt 0.750000 0.312500
vt 0.750000 0.250000
vt 0.687500 0.937500
vt 0.687500 0.875000
vt 0.750000 0.875000
vt 0.812500 0.250000
vt 0.750000 0.250000
vt 0.500000 0.812500
vt 0.500000 0.875000
vt 0.437500 0.875000
vt 0.437500 0.812500
vt 0.687500 0.312500
vt 0.625000 0.312500
vt 0.625000 0.250000
vt 0.687500 0.250000
vt 0.625000 0.312500
vt 0.625000 0.250000
vt 0.625000 0.312500
vt 0.687500 0.312500
vt 0.687500 0.250000
vt 0.625000 0.250000
vt 0.875000 0.250000
vt 0.625000 0.250000
vt 0.687500 0.312500
vt 0.687500 0.375000
vt 0.562500 0.375000
vt 0.562500 0.312500
vt 0.625000 0.312500
vt 0.625000 0.375000
vt 0.562500 0.312500
vt 0.562500 0.250000
vt 0.500000 0.312500
vt 0.500000 0.375000
vt 0.500000 0.312500
vt 0.562500 0.250000
vt 0.375000 0.312500
vt 0.375000 0.375000
vt 0.312500 0.375000
vt 0.500000 0.312500
vt 0.437500 0.375000
vt 0.437500 0.312500
vt 0.375000 0.312500
vt 0.375000 0.375000
vt 0.312500 0.312500
vt 0.437500 0.250000
vt 0.500000 0.250000
vt 0.437500 0.312500
vt 0.437500 0.250000
vt 0.812500 0.250000
vt 0.812500 0.312500
vt 0.750000 0.312500
vt 0.750000 0.250000
vt 0.687500 0.937500
vt 0.687500 0.875000
vt 0.750000 0.875000
vt 0.812500 0.250000
vt 0.750000 0.250000
vt 0.500000 0.812500
vt 0.500000 0.875000
vt 0.437500 0.875000
vt 0.437500 0.812500
vt 0.687500 0.312500
vt 0.625000 0.312500
vt 0.625000 0.250000
vt 0.687500 0.250000
vt 0.625000 0.312500
vt 0.625000 0.250000
vt 0.625000 0.312500
vt 0.687500 0.312500
vt 0.687500 0.250000
vt 0.625000 0.250000
vt 0.875000 0.250000
vt 0.625000 0.250000
vt 0.687500 0.312500
vt 0.687500 0.375000
vt 0.562500 0.375000
vt 0.562500 0.312500
vt 0.625000 0.312500
vt 0.625000 0.375000
vt 0.562500 0.312500
vt 0.562500 0.250000
vt 0.500000 0.312500
vt 0.500000 0.375000
vt 0.500000 0.312500
vt 0.562500 0.250000
vt 0.375000 0.312500
vt 0.375000 0.375000
vt 0.312500 0.375000
vt 0.500000 0.312500
vt 0.437500 0.375000
vt 0.437500 0.312500
vt 0.375000 0.312500
vt 0.375000 0.375000
vt 0.312500 0.312500
vt 0.437500 0.250000
vt 0.500000 0.250000
vt 0.437500 0.312500
vt 0.437500 0.250000
vn -0.9659 0.0000 -0.2588
vn 0.9659 0.0000 0.2588
vn -0.8660 0.0000 0.5000
vn 0.8660 0.0000 -0.5000
vn -0.5000 0.0000 -0.8660
vn 0.2588 0.0000 -0.9659
vn 0.0000 1.0000 -0.0000
vn 0.5000 0.0000 0.8660
vn -0.2588 0.0000 0.9659
vn 0.0000 -1.0000 0.0000
vn -0.2315 0.4472 0.8640
vn 0.8640 0.4472 0.2315
vn -0.8640 0.4472 -0.2315
vn 0.2315 0.4472 -0.8640
vn -0.8624 -0.5000 -0.0795
vn -0.3624 0.5000 0.7866
vn 0.5000 -0.8165 -0.2887
vn -0.3624 -0.5000 0.7866
vn 0.9082 0.0000 0.4184
vn -0.5000 -0.8165 0.2887
vn 0.3624 -0.5000 -0.7866
vn -0.8624 0.5000 -0.0795
vn -0.0918 -0.0000 0.9958
vn 0.3624 0.5000 -0.7866
vn 0.8624 -0.5000 0.0795
vn 0.8624 0.5000 0.0795
vn 0.5000 0.8165 -0.2887
vn 0.0917 -0.0000 -0.9958
vn -0.9082 -0.0000 -0.4184
vn -0.5000 0.8165 0.2887
vn -0.5510 -0.0000 0.8345
vn 0.9982 0.0000 -0.0599
vn 0.9112 -0.4082 -0.0547
vn -0.5030 -0.4082 0.7618
vn -0.3536 0.7071 -0.6124
vn 0.5510 -0.0000 -0.8345
vn -0.9982 0.0000 0.0599
vn -0.9112 -0.4082 0.0547
vn 0.5030 -0.4082 -0.7618
vn 0.3536 0.7071 0.6124
usemtl SIGNALITE
s off
f 39/71/6 35/72/6 42/73/6 43/74/6
f 38/75/7 34/76/7 46/77/7 47/78/7
f 35/72/8 39/71/8 37/79/8 33/80/8
f 40/81/9 36/82/9 34/83/9 38/84/9
f 42/73/10 41/85/10 44/86/10 43/74/10
f 36/87/11 40/88/11 44/89/11 41/90/11
f 34/91/12 36/92/12 35/93/12 33/94/12
f 48/95/13 47/96/13 46/97/13 45/98/13
f 35/93/12 36/92/12 41/99/12 42/100/12
f 33/101/14 37/102/14 48/103/14 45/104/14
f 56/105/10 53/106/10 52/107/10 49/108/10
f 53/109/8 54/110/8 51/111/8 52/112/8
f 55/113/9 56/114/9 49/115/9 50/116/9
f 51/117/12 50/118/12 49/119/12 52/120/12
f 54/110/13 55/121/13 50/122/13 51/111/13
f 59/123/15 60/124/15 57/125/15 58/126/15
f 59/127/14 58/128/14 63/129/14 64/130/14
f 57/131/11 60/132/11 62/133/11 61/134/11
f 60/135/6 59/127/6 64/130/6 62/136/6
f 58/137/7 57/138/7 61/139/7 63/140/7
f 61/141/11 62/142/11 67/143/11 68/144/11
f 64/145/14 63/146/14 66/147/14 65/148/14
f 63/146/7 61/141/7 68/144/7 66/147/7
f 62/142/6 64/145/6 65/148/6 67/143/6
f 39/149/15 40/150/15 38/151/15 37/152/15
f 37/153/15 38/154/15 47/155/15 48/156/15
f 40/150/15 39/149/15 43/157/15 44/158/15
f 34/159/12 33/160/12 45/161/12 46/162/12
f 65/148/16 66/147/16 69/163/16
f 66/147/17 68/144/17 69/163/17
f 67/143/18 65/148/18 69/163/18
f 68/144/19 67/143/19 69/163/19
f 89/164/20 87/165/20 72/166/20 73/167/20
f 86/168/21 88/169/21 77/170/21 76/171/21
f 83/172/22 70/173/22 73/174/22
f 88/175/23 89/164/23 70/176/23 71/177/23
f 71/178/24 82/179/24 77/170/24
f 70/173/25 89/180/25 73/174/25
f 85/181/26 83/182/26 73/167/26 72/166/26
f 87/183/27 86/168/27 75/184/27 74/185/27
f 88/169/28 71/178/28 77/170/28
f 84/186/29 85/187/29 74/185/29 75/184/29
f 83/182/30 82/188/30 71/177/30 70/176/30
f 82/179/31 84/186/31 76/171/31 77/170/31
f 84/189/32 75/190/32 76/191/32
f 81/192/29 80/193/29 82/188/29 83/182/29
f 80/194/26 78/195/26 84/186/26 82/179/26
f 79/196/31 81/192/31 83/182/31 85/181/31
f 78/195/30 79/197/30 85/187/30 84/186/30
f 79/197/23 78/195/23 86/168/23 87/183/23
f 78/195/20 80/194/20 88/169/20 86/168/20
f 80/193/27 81/192/27 89/164/27 88/175/27
f 81/192/21 79/196/21 87/165/21 89/164/21
f 72/198/33 74/185/33 85/187/33
f 72/198/34 87/183/34 74/185/34
f 86/199/35 76/191/35 75/190/35
f 94/200/36 95/201/36 90/202/36 92/203/36
f 94/204/10 93/205/10 98/206/10
f 95/201/37 93/207/37 91/208/37 90/202/37
f 93/209/15 94/210/15 97/211/15 96/212/15
f 94/213/8 92/214/8 102/215/8 97/216/8
f 92/203/36 90/202/36 101/217/36 103/218/36
f 91/219/9 93/220/9 96/221/9 99/222/9
f 93/207/38 95/201/38 98/223/38
f 95/201/39 94/200/39 98/223/39
f 90/202/37 91/208/37 100/224/37 101/217/37
f 91/225/10 92/226/10 103/227/10 100/228/10
f 92/226/12 91/225/12 99/229/12 102/230/12
f 104/231/38 106/232/38 109/233/38
f 100/228/10 103/227/10 105/234/10 106/235/10
f 103/218/36 101/217/36 104/231/36 105/236/36
f 101/217/37 100/224/37 106/232/37 104/231/37
f 108/237/36 110/238/36 107/239/36
f 105/236/39 104/231/39 108/240/39
f 108/241/40 109/242/40 106/235/40 105/234/40
f 109/243/40 108/244/40 107/245/40
f 110/238/37 109/243/37 107/239/37
f 108/246/39 104/247/39 110/248/39
f 104/247/38 109/249/38 110/248/38
f 115/250/41 116/251/41 111/252/41 113/253/41
f 115/254/13 114/255/13 119/256/13
f 116/251/42 114/257/42 112/258/42 111/252/42
f 114/259/15 115/260/15 118/261/15 117/262/15
f 115/263/9 113/264/9 123/265/9 118/266/9
f 113/253/41 111/252/41 122/267/41 124/268/41
f 112/269/8 114/270/8 117/271/8 120/272/8
f 114/257/43 116/251/43 119/273/43
f 116/251/44 115/250/44 119/273/44
f 111/252/42 112/258/42 121/274/42 122/267/42
f 112/275/13 113/276/13 124/277/13 121/278/13
f 113/276/12 112/275/12 120/279/12 123/280/12
f 125/281/43 127/282/43 130/283/43
f 121/278/13 124/277/13 126/284/13 127/285/13
f 124/268/41 122/267/41 125/281/41 126/286/41
f 122/267/42 121/274/42 127/282/42 125/281/42
f 129/287/41 131/288/41 128/289/41
f 126/286/44 125/281/44 129/290/44
f 129/291/45 130/292/45 127/285/45 126/284/45
f 130/293/45 129/294/45 128/295/45
f 131/288/42 130/293/42 128/289/42
f 129/296/44 125/297/44 131/298/44
f 125/297/43 130/299/43 131/298/43
