# Blender v2.80 (sub 75) OBJ File: 'chem devices.blend'
# www.blender.org
mtllib skywrath_condenser.mtl
o SKYWRATH_CONDENSER_Cube.182
v 0.437500 1.437500 0.437500
v 0.562500 1.437500 0.437500
v 0.062500 0.875000 0.062500
v 0.937500 0.875000 0.062500
v 0.937500 0.875000 0.000000
v 0.937500 1.000000 0.000000
v 0.062500 1.000000 0.000000
v 0.062500 0.875000 0.000000
v 0.500000 0.000000 0.125000
v 0.500000 0.125000 0.125000
v 1.000000 0.875000 0.062500
v 0.062500 0.562500 0.062500
v 0.937500 0.562500 0.062500
v 0.062500 0.437500 0.062500
v 0.937500 0.437500 0.000000
v 0.937500 0.562500 0.000000
v 0.062500 0.562500 0.000000
v 0.062500 0.437500 0.000000
v 0.500000 0.000000 0.187500
v 0.500000 0.125000 0.187500
v 1.000000 0.562500 0.062500
v 0.187500 0.125000 0.187500
v 0.812500 0.125000 0.187500
v 0.812500 0.000000 0.125000
v 0.812500 0.125000 0.125000
v 0.187500 0.125000 0.125000
v 0.187500 0.000000 0.125000
v 0.875000 0.125000 0.187500
v 0.875000 0.000000 0.187500
v 0.062500 0.875000 0.062500
v 0.937500 0.875000 0.062500
v 0.062500 0.562500 0.062500
v 0.812500 0.875000 0.062500
v 0.812500 0.125000 0.187500
v 0.187500 0.125000 0.187500
v 0.937500 0.437500 0.062500
v 0.062500 0.437500 0.062500
v 0.500000 0.875000 0.062500
v 0.187500 0.875000 0.062500
v 0.187500 0.562500 0.062500
v 0.500000 0.437500 0.000000
v 0.500000 0.562500 0.000000
v 0.500000 0.437500 0.062500
v 0.500000 0.562500 0.062500
v 0.500000 0.562500 0.062500
v 0.500000 0.875000 0.000000
v 0.500000 1.000000 0.000000
v 0.500000 0.875000 0.062500
v 0.812500 0.562500 0.062500
v 0.562500 1.437500 0.562500
v 1.000000 0.875000 0.937500
v 1.000000 1.000000 0.937500
v 1.000000 1.000000 0.062500
v 0.875000 0.000000 0.500000
v 0.875000 0.125000 0.500000
v 0.937500 0.562500 0.937500
v 0.937500 0.437500 0.062500
v 1.000000 0.437500 0.937500
v 1.000000 0.562500 0.937500
v 1.000000 0.437500 0.062500
v 0.812500 0.000000 0.500000
v 0.812500 0.125000 0.500000
v 0.812500 0.125000 0.812500
v 0.625000 0.062500 0.375000
v 0.875000 0.000000 0.812500
v 0.875000 0.125000 0.812500
v 0.812500 0.125000 0.875000
v 0.812500 0.000000 0.875000
v 0.812500 0.000000 0.187500
v 0.937500 0.562500 0.062500
v 0.937500 0.875000 0.812500
v 0.812500 0.125000 0.812500
v 0.812500 0.125000 0.187500
v 0.937500 0.437500 0.937500
v 0.937500 0.437500 0.062500
v 0.937500 0.875000 0.500000
v 0.937500 0.875000 0.187500
v 0.937500 0.562500 0.187500
v 1.000000 0.437500 0.500000
v 1.000000 0.562500 0.500000
v 0.937500 0.437500 0.500000
v 0.937500 0.562500 0.500000
v 0.937500 0.562500 0.500000
v 1.000000 0.875000 0.500000
v 1.000000 1.000000 0.500000
v 0.937500 0.875000 0.500000
v 0.937500 0.562500 0.812500
v 0.937500 0.875000 0.937500
v 0.062500 0.875000 1.000000
v 0.062500 1.000000 1.000000
v 0.937500 1.000000 1.000000
v 0.937500 0.875000 1.000000
v 0.500000 0.000000 0.875000
v 0.500000 0.125000 0.875000
v 0.937500 0.437500 0.937500
v 0.062500 0.437500 1.000000
v 0.062500 0.562500 1.000000
v 0.937500 0.562500 1.000000
v 0.937500 0.437500 1.000000
v 0.500000 0.000000 0.812500
v 0.500000 0.125000 0.812500
v 0.625000 0.062500 0.625000
v 0.187500 0.000000 0.875000
v 0.187500 0.125000 0.875000
v 0.812500 0.000000 0.812500
v 0.187500 0.000000 0.812500
v 0.937500 0.875000 0.937500
v 0.937500 0.562500 0.937500
v 0.187500 0.875000 0.937500
v 0.187500 0.125000 0.812500
v 0.812500 0.125000 0.812500
v 0.062500 0.437500 0.937500
v 0.937500 0.437500 0.937500
v 0.500000 0.875000 0.937500
v 0.812500 0.875000 0.937500
v 0.812500 0.562500 0.937500
v 0.500000 0.437500 1.000000
v 0.500000 0.562500 1.000000
v 0.500000 0.437500 0.937500
v 0.500000 0.562500 0.937500
v 0.500000 0.562500 0.937500
v 0.500000 0.875000 1.000000
v 0.500000 1.000000 1.000000
v 0.500000 0.875000 0.937500
v 0.187500 0.562500 0.937500
v 0.437500 1.437500 0.562500
v 0.062500 0.875000 0.937500
v 0.000000 0.875000 0.062500
v 0.000000 1.000000 0.062500
v 0.000000 1.000000 0.937500
v 0.000000 0.875000 0.937500
v 0.125000 0.000000 0.500000
v 0.125000 0.125000 0.500000
v 0.062500 0.562500 0.937500
v 0.062500 0.437500 0.937500
v 0.000000 0.437500 0.062500
v 0.000000 0.562500 0.062500
v 0.000000 0.562500 0.937500
v 0.000000 0.437500 0.937500
v 0.187500 0.000000 0.500000
v 0.187500 0.125000 0.500000
v 0.187500 0.125000 0.812500
v 0.375000 0.062500 0.625000
v 0.375000 0.062500 0.375000
v 0.125000 0.000000 0.187500
v 0.125000 0.125000 0.187500
v 0.125000 0.125000 0.812500
v 0.125000 0.000000 0.812500
v 0.187500 0.000000 0.187500
v 0.062500 0.875000 0.937500
v 0.062500 0.562500 0.937500
v 0.062500 0.875000 0.187500
v 0.187500 0.125000 0.187500
v 0.187500 0.125000 0.812500
v 0.062500 0.437500 0.062500
v 0.062500 0.437500 0.937500
v 0.062500 0.875000 0.500000
v 0.062500 0.875000 0.812500
v 0.062500 0.562500 0.812500
v 0.000000 0.437500 0.500000
v 0.000000 0.562500 0.500000
v 0.062500 0.437500 0.500000
v 0.062500 0.562500 0.500000
v 0.062500 0.562500 0.500000
v 0.000000 0.875000 0.500000
v 0.000000 1.000000 0.500000
v 0.062500 0.875000 0.500000
v 0.062500 0.562500 0.187500
v 0.812500 0.125000 0.750000
v 0.750000 0.125000 0.812500
v 0.812500 0.125000 0.875000
v 0.875000 0.125000 0.812500
v 0.937500 1.000000 1.000000
v 1.000000 1.000000 0.937500
v 0.876269 1.000000 0.938769
v 0.938769 1.000000 0.876269
v 0.876269 0.437500 0.938769
v 0.937500 0.437500 1.000000
v 1.000000 0.437500 0.937500
v 0.938769 0.437500 0.876269
v 0.187500 0.125000 0.250000
v 0.250000 0.125000 0.187500
v 0.187500 0.125000 0.125000
v 0.125000 0.125000 0.187500
v 0.062500 1.000000 0.000000
v 0.000000 1.000000 0.062500
v 0.123731 1.000000 0.061231
v 0.061231 1.000000 0.123731
v 0.123731 0.437500 0.061231
v 0.062500 0.437500 0.000000
v 0.000000 0.437500 0.062500
v 0.061231 0.437500 0.123731
v 0.250000 0.125000 0.812500
v 0.187500 0.125000 0.750000
v 0.125000 0.125000 0.812500
v 0.187500 0.125000 0.875000
v 0.000000 1.000000 0.937500
v 0.062500 1.000000 1.000000
v 0.061231 1.000000 0.876269
v 0.123731 1.000000 0.938769
v 0.061231 0.437500 0.876269
v 0.000000 0.437500 0.937500
v 0.062500 0.437500 1.000000
v 0.123731 0.437500 0.938769
v 0.750000 0.125000 0.187500
v 0.812500 0.125000 0.250000
v 0.875000 0.125000 0.187500
v 0.812500 0.125000 0.125000
v 1.000000 1.000000 0.062500
v 0.937500 1.000000 0.000000
v 0.938769 1.000000 0.123731
v 0.876269 1.000000 0.061231
v 0.938769 0.437500 0.123731
v 1.000000 0.437500 0.062500
v 0.937500 0.437500 0.000000
v 0.876269 0.437500 0.061231
v 0.062500 1.000000 0.062500
v 0.937500 1.000000 0.062500
v 0.062500 1.000000 0.937500
v 0.937500 1.000000 0.937500
v 0.125000 1.000000 0.125000
v 0.875000 1.000000 0.125000
v 0.125000 1.000000 0.875000
v 0.875000 1.000000 0.875000
v 0.187500 1.000000 0.187500
v 0.812500 1.000000 0.187500
v 0.187500 1.000000 0.812500
v 0.812500 1.000000 0.812500
v 0.312500 1.500000 0.312500
v 0.687500 1.500000 0.312500
v 0.312500 1.500000 0.687500
v 0.687500 1.500000 0.687500
v 0.375000 1.500000 0.375000
v 0.625000 1.500000 0.375000
v 0.375000 1.500000 0.625000
v 0.625000 1.500000 0.625000
v 0.500000 1.437500 0.544194
v 0.455806 1.437500 0.500000
v 0.500000 1.437500 0.455806
v 0.544194 1.437500 0.500000
v 0.455806 1.750000 0.500000
v 0.500000 1.750000 0.455806
v 0.500000 1.750000 0.544194
v 0.544194 1.750000 0.500000
v 0.500000 2.937500 0.544194
v 0.455806 2.937500 0.500000
v 0.544194 2.937500 0.500000
v 0.500000 2.937500 0.455806
v 0.455806 2.125000 0.500000
v 0.500000 2.125000 0.455806
v 0.500000 2.125000 0.544194
v 0.544194 2.125000 0.500000
v 0.632582 1.937500 0.323224
v 0.588388 1.937500 0.367418
v 0.632583 1.937500 0.411612
v 0.676777 1.937500 0.367418
v 0.544194 1.750000 0.500000
v 0.500000 1.750000 0.544194
v 0.500000 1.750000 0.455806
v 0.455806 1.750000 0.500000
v 0.544194 1.750000 0.500000
v 0.500000 1.750000 0.544194
v 0.500000 1.750000 0.455806
v 0.455806 1.750000 0.500000
v 0.544194 2.125000 0.500000
v 0.500000 2.125000 0.544194
v 0.500000 2.125000 0.455806
v 0.455806 2.125000 0.500000
v 0.323223 1.937500 0.632583
v 0.367417 1.937500 0.588389
v 0.411612 1.937500 0.632583
v 0.367418 1.937500 0.676777
v 0.500000 1.750000 0.544194
v 0.455806 1.750000 0.500000
v 0.544194 1.750000 0.500000
v 0.500000 1.750000 0.455806
v 0.500000 2.125000 0.544194
v 0.455806 2.125000 0.500000
v 0.544194 2.125000 0.500000
v 0.500000 2.125000 0.455806
v 0.367417 1.937500 0.323224
v 0.411612 1.937500 0.367418
v 0.367417 1.937500 0.411612
v 0.323223 1.937500 0.367418
v 0.500000 1.750000 0.455806
v 0.544194 1.750000 0.500000
v 0.455806 1.750000 0.500000
v 0.500000 1.750000 0.544194
v 0.500000 2.125000 0.455806
v 0.544194 2.125000 0.500000
v 0.455806 2.125000 0.500000
v 0.500000 2.125000 0.544194
v 0.632583 1.937500 0.676777
v 0.588388 1.937500 0.632583
v 0.632583 1.937500 0.588389
v 0.676777 1.937500 0.632583
v 0.455806 2.125000 0.500000
v 0.500000 2.125000 0.455806
v 0.500000 2.125000 0.544194
v 0.544194 2.125000 0.500000
v 0.500000 3.000000 0.500000
v 1.019856 1.406416 0.975662
v 0.975662 1.406416 1.019857
v 0.977168 1.422593 0.932974
v 0.932974 1.422593 0.977168
v 0.987100 1.466787 1.031295
v 1.031295 1.466787 0.987101
v 1.072477 1.434434 1.116672
v 1.061039 1.374064 1.105233
v 1.116671 1.434434 1.072477
v 1.105233 1.374064 1.061039
v 1.115165 1.418258 1.159360
v 1.159359 1.418258 1.115166
v 1.296619 2.142702 1.252425
v 1.253931 2.158879 1.209737
v 1.252425 2.142702 1.296619
v 1.209737 2.158879 1.253931
v 1.264616 2.211161 1.264616
v 0.500000 -0.437500 0.544194
v 0.455806 -0.437500 0.500000
v 0.500000 -0.437500 0.455806
v 0.544194 -0.437500 0.500000
v 0.455806 -0.125000 0.500000
v 0.500000 -0.125000 0.455806
v 0.500000 -0.125000 0.544194
v 0.544194 -0.125000 0.500000
v 0.632582 0.062500 0.323224
v 0.588388 0.062500 0.367418
v 0.632583 0.062500 0.411612
v 0.676777 0.062500 0.367418
v 0.544194 -0.125000 0.500000
v 0.500000 -0.125000 0.544194
v 0.500000 -0.125000 0.455806
v 0.455806 -0.125000 0.500000
v 0.544194 -0.125000 0.500000
v 0.500000 -0.125000 0.544194
v 0.500000 -0.125000 0.455806
v 0.455806 -0.125000 0.500000
v 0.323223 0.062500 0.632583
v 0.367417 0.062500 0.588389
v 0.411612 0.062500 0.632583
v 0.367418 0.062500 0.676777
v 0.500000 -0.125000 0.544194
v 0.455806 -0.125000 0.500000
v 0.544194 -0.125000 0.500000
v 0.500000 -0.125000 0.455806
v 0.367417 0.062500 0.323224
v 0.411612 0.062500 0.367418
v 0.367417 0.062500 0.411612
v 0.323223 0.062500 0.367418
v 0.500000 -0.125000 0.455806
v 0.544194 -0.125000 0.500000
v 0.455806 -0.125000 0.500000
v 0.500000 -0.125000 0.544194
v 0.632583 0.062500 0.676777
v 0.588388 0.062500 0.632583
v 0.632583 0.062500 0.588389
v 0.676777 0.062500 0.632583
v 0.500000 -0.500000 0.500000
v 0.919977 1.120741 0.875783
v 0.962665 1.104565 0.918471
v 0.918471 1.104564 0.962665
v 0.875783 1.120741 0.919977
v 0.920730 1.128829 0.832341
v 1.006106 1.096477 0.917718
v 0.798027 0.947718 0.886415
v 0.917718 1.096476 1.006106
v 0.832341 1.128829 0.920730
v 0.971792 0.915365 0.883403
v 0.886415 0.947718 0.798027
v 0.883403 0.915365 0.971792
v -0.019856 1.406416 0.024338
v 0.024338 1.406416 -0.019857
v 0.022832 1.422593 0.067026
v 0.067026 1.422593 0.022832
v 0.012900 1.466787 -0.031295
v -0.031295 1.466787 0.012899
v -0.072477 1.434434 -0.116671
v -0.061039 1.374064 -0.105233
v -0.116671 1.434434 -0.072477
v -0.105233 1.374064 -0.061039
v -0.115165 1.418258 -0.159360
v -0.159359 1.418258 -0.115166
v -0.296619 2.142702 -0.252425
v -0.253931 2.158879 -0.209737
v -0.252425 2.142702 -0.296619
v -0.209737 2.158879 -0.253931
v -0.264616 2.211161 -0.264616
v 0.080023 1.120741 0.124217
v 0.037335 1.104565 0.081529
v 0.081529 1.104564 0.037335
v 0.124217 1.120741 0.080023
v 0.079270 1.128829 0.167659
v -0.006106 1.096477 0.082282
v 0.201973 0.947718 0.113585
v 0.082282 1.096476 -0.006106
v 0.167659 1.128829 0.079270
v 0.028208 0.915365 0.116597
v 0.113585 0.947718 0.201973
v 0.116597 0.915365 0.028209
v 0.975662 1.406416 -0.019856
v 1.019857 1.406416 0.024338
v 0.932974 1.422592 0.022832
v 0.977168 1.422592 0.067026
v 1.031295 1.466787 0.012900
v 0.987101 1.466787 -0.031295
v 1.116672 1.434434 -0.072477
v 1.105233 1.374064 -0.061039
v 1.072477 1.434434 -0.116671
v 1.061039 1.374064 -0.105233
v 1.159360 1.418258 -0.115166
v 1.115166 1.418258 -0.159360
v 1.252425 2.142702 -0.296619
v 1.209737 2.158878 -0.253931
v 1.296619 2.142702 -0.252425
v 1.253931 2.158878 -0.209737
v 1.264616 2.211161 -0.264616
v 0.875783 1.120741 0.080023
v 0.918471 1.104564 0.037335
v 0.962665 1.104564 0.081529
v 0.919977 1.120741 0.124217
v 0.832341 1.128829 0.079270
v 0.917718 1.096476 -0.006106
v 0.886415 0.947718 0.201973
v 1.006106 1.096476 0.082282
v 0.920730 1.128829 0.167659
v 0.883403 0.915365 0.028208
v 0.798027 0.947718 0.113585
v 0.971791 0.915365 0.116597
v 0.024338 1.406416 1.019856
v -0.019857 1.406416 0.975662
v 0.067026 1.422592 0.977168
v 0.022832 1.422592 0.932974
v -0.031295 1.466787 0.987100
v 0.012899 1.466787 1.031295
v -0.116671 1.434434 1.072477
v -0.105233 1.374064 1.061039
v -0.072477 1.434434 1.116671
v -0.061039 1.374064 1.105233
v -0.159360 1.418258 1.115165
v -0.115166 1.418258 1.159359
v -0.252425 2.142702 1.296619
v -0.209737 2.158878 1.253931
v -0.296619 2.142702 1.252425
v -0.253931 2.158878 1.209737
v -0.264616 2.211161 1.264616
v 0.124217 1.120741 0.919977
v 0.081529 1.104564 0.962665
v 0.037335 1.104564 0.918471
v 0.080023 1.120741 0.875783
v 0.167659 1.128829 0.920730
v 0.082282 1.096476 1.006106
v 0.113585 0.947718 0.798027
v -0.006106 1.096476 0.917718
v 0.079270 1.128829 0.832341
v 0.116597 0.915365 0.971792
v 0.201973 0.947718 0.886415
v 0.028209 0.915365 0.883403
vt 0.437500 0.062500
vt 0.437500 0.187500
vt 0.000000 0.187500
vt 0.000000 0.062500
vt 0.437500 0.250000
vt -0.000000 0.250000
vt 0.437500 0.250000
vt 0.437500 0.187500
vt 0.500000 0.187500
vt 1.000000 0.000000
vt 0.812500 0.187500
vt 1.000000 0.312500
vt 0.062500 0.062500
vt 0.062500 0.187500
vt 0.375000 0.187500
vt 0.375000 0.062500
vt 0.437500 0.062500
vt 0.437500 0.187500
vt 0.000000 0.187500
vt 0.000000 0.062500
vt 0.437500 0.000000
vt 0.000000 0.000000
vt 0.000000 0.062500
vt 0.437500 0.250000
vt 0.000000 0.250000
vt 0.437500 0.000000
vt 0.500000 0.062500
vt 0.437500 0.062500
vt 0.062500 -0.000000
vt 0.375000 -0.000000
vt 0.062500 0.062500
vt 0.062500 0.250000
vt 0.375000 0.250000
vt 0.062500 0.187500
vt 0.062500 -0.000000
vt 0.062500 0.250000
vt 0.375000 0.750000
vt 0.375000 0.750000
vt 0.375000 0.750000
vt 0.437500 0.250000
vt 0.437500 0.187500
vt 0.500000 0.187500
vt 0.437500 0.062500
vt 0.500000 0.062500
vt 0.000000 0.250000
vt 0.000000 0.187500
vt 0.812500 0.437500
vt 1.000000 0.625000
vt 0.562500 0.562500
vt 0.562500 0.250000
vt 0.500000 0.250000
vt 0.500000 0.562500
vt 0.000000 0.000000
vt 0.000000 0.062500
vt 0.000000 0.187500
vt 0.375000 0.562500
vt 0.375000 0.250000
vt 0.062500 0.250000
vt 0.062500 0.562500
vt 0.000000 0.250000
vt 0.500000 0.562500
vt 0.500000 0.250000
vt 0.187500 0.250000
vt 0.187500 0.562500
vt 0.875000 0.875000
vt 0.750000 0.562500
vt 0.125000 0.562500
vt 0.000000 0.875000
vt 0.062500 0.562500
vt 0.062500 0.250000
vt 0.000000 0.250000
vt 0.000000 0.562500
vt 0.437500 0.062500
vt 0.437500 0.187500
vt 0.000000 0.187500
vt 0.000000 0.062500
vt 0.437500 0.250000
vt 0.437500 0.250000
vt 0.437500 0.187500
vt 0.500000 0.187500
vt 1.000000 0.625000
vt 0.812500 0.437500
vt 1.000000 0.312500
vt 0.062500 0.062500
vt 0.062500 0.187500
vt 0.375000 0.187500
vt 0.375000 0.062500
vt 0.437500 0.062500
vt 0.437500 0.187500
vt 0.000000 0.187500
vt 0.000000 0.062500
vt 0.437500 0.000000
vt 0.000000 0.000000
vt 0.000000 0.062500
vt 0.437500 0.250000
vt 0.437500 0.000000
vt 0.500000 0.062500
vt 0.437500 0.062500
vt 0.375000 -0.000000
vt 0.062500 0.062500
vt 0.062500 0.250000
vt 0.375000 0.250000
vt 0.062500 0.187500
vt 0.062500 -0.000000
vt 0.375000 0.750000
vt 0.375000 0.750000
vt 0.375000 0.750000
vt 0.437500 0.250000
vt 0.437500 0.187500
vt 0.500000 0.187500
vt 0.437500 0.062500
vt 0.500000 0.062500
vt 0.000000 0.250000
vt 0.000000 0.187500
vt 0.562500 0.562500
vt 0.562500 0.250000
vt 0.500000 0.250000
vt 0.500000 0.562500
vt 0.000000 0.062500
vt 0.000000 0.187500
vt 0.375000 0.562500
vt 0.375000 0.250000
vt 0.062500 0.250000
vt 0.062500 0.562500
vt 0.000000 0.250000
vt 0.500000 0.562500
vt 0.500000 0.250000
vt 0.187500 0.250000
vt 0.187500 0.562500
vt 0.875000 0.875000
vt 0.750000 0.562500
vt 0.125000 0.562500
vt 0.000000 0.875000
vt 0.062500 0.562500
vt 0.062500 0.250000
vt 0.000000 0.250000
vt 0.000000 0.562500
vt 0.437500 0.062500
vt 0.437500 0.187500
vt 0.000000 0.187500
vt 0.000000 0.062500
vt 0.437500 0.250000
vt 0.437500 0.250000
vt 0.437500 0.187500
vt 0.500000 0.187500
vt 1.000000 0.000000
vt 0.812500 0.187500
vt 1.000000 0.312500
vt 0.062500 0.062500
vt 0.062500 0.187500
vt 0.375000 0.187500
vt 0.375000 0.062500
vt 0.437500 0.062500
vt 0.437500 0.187500
vt 0.000000 0.187500
vt 0.000000 0.062500
vt 0.437500 0.000000
vt 0.000000 0.000000
vt 0.000000 0.062500
vt 0.437500 0.250000
vt 0.437500 0.000000
vt 0.500000 0.062500
vt 0.437500 0.062500
vt 0.375000 -0.000000
vt 0.062500 0.062500
vt 0.062500 0.250000
vt 0.375000 0.250000
vt 0.062500 0.187500
vt 0.062500 -0.000000
vt 0.375000 0.750000
vt 0.375000 0.750000
vt 0.375000 0.750000
vt 0.437500 0.250000
vt 0.437500 0.187500
vt 0.500000 0.187500
vt 0.437500 0.062500
vt 0.500000 0.062500
vt 0.000000 0.250000
vt 0.000000 0.187500
vt 0.562500 0.562500
vt 0.562500 0.250000
vt 0.500000 0.250000
vt 0.500000 0.562500
vt 0.000000 0.062500
vt 0.000000 0.187500
vt 0.375000 0.562500
vt 0.375000 0.250000
vt 0.062500 0.250000
vt 0.062500 0.562500
vt 0.000000 0.250000
vt 0.500000 0.562500
vt 0.500000 0.250000
vt 0.187500 0.250000
vt 0.187500 0.562500
vt 0.875000 0.875000
vt 0.750000 0.562500
vt 0.125000 0.562500
vt 0.000000 0.875000
vt 0.062500 0.562500
vt 0.062500 0.250000
vt 0.000000 0.250000
vt 0.000000 0.562500
vt 0.437500 0.062500
vt 0.437500 0.187500
vt 0.000000 0.187500
vt 0.000000 0.062500
vt 0.437500 0.250000
vt 0.437500 0.250000
vt 0.437500 0.187500
vt 0.500000 0.187500
vt 1.000000 0.312500
vt 0.062500 0.062500
vt 0.062500 0.187500
vt 0.375000 0.187500
vt 0.375000 0.062500
vt 0.437500 0.062500
vt 0.437500 0.187500
vt 0.000000 0.187500
vt 0.000000 0.062500
vt 0.437500 0.000000
vt 0.000000 0.062500
vt 0.437500 0.250000
vt 0.437500 0.000000
vt 0.500000 0.062500
vt 0.437500 0.062500
vt 0.375000 -0.000000
vt 0.062500 0.062500
vt 0.375000 0.250000
vt 0.062500 0.187500
vt 0.375000 0.750000
vt 0.375000 0.750000
vt 0.375000 0.750000
vt 0.437500 0.250000
vt 0.437500 0.187500
vt 0.500000 0.187500
vt 0.437500 0.062500
vt 0.500000 0.062500
vt 0.000000 0.187500
vt 0.562500 0.562500
vt 0.562500 0.250000
vt 0.500000 0.250000
vt 0.500000 0.562500
vt 0.000000 0.062500
vt 0.000000 0.187500
vt 0.375000 0.562500
vt 0.375000 0.250000
vt 0.062500 0.250000
vt 0.062500 0.562500
vt 0.500000 0.562500
vt 0.500000 0.250000
vt 0.187500 0.250000
vt 0.187500 0.562500
vt 0.875000 0.875000
vt 0.750000 0.562500
vt 0.125000 0.562500
vt 0.000000 0.875000
vt 0.062500 0.562500
vt 0.062500 0.250000
vt 0.000000 0.250000
vt 0.000000 0.562500
vt 0.562500 0.562500
vt 0.562500 0.312500
vt 0.812500 0.312500
vt 0.812500 0.562500
vt -0.000000 0.937500
vt 0.000000 0.875000
vt 0.312500 0.875000
vt 0.312500 0.937500
vt 0.875000 0.875000
vt 0.875000 0.937500
vt 0.875000 0.937500
vt 0.875000 0.875000
vt 0.312500 0.875000
vt 0.312500 0.937500
vt -0.000000 0.875000
vt 0.000000 0.937500
vt -0.000000 1.000000
vt 0.312500 1.000000
vt 0.875000 1.000000
vt -0.000000 0.937500
vt 0.000000 0.875000
vt 0.312500 0.875000
vt 0.312500 0.937500
vt 0.875000 0.875000
vt 0.875000 0.937500
vt 0.875000 0.937500
vt 0.875000 0.875000
vt 0.312500 0.875000
vt 0.312500 0.937500
vt -0.000000 0.875000
vt 0.000000 0.937500
vt -0.000000 1.000000
vt 0.312500 1.000000
vt 0.875000 1.000000
vt -0.000000 0.937500
vt 0.000000 0.875000
vt 0.312500 0.875000
vt 0.312500 0.937500
vt 0.875000 0.875000
vt 0.875000 0.937500
vt 0.875000 0.937500
vt 0.875000 0.875000
vt 0.312500 0.875000
vt 0.312500 0.937500
vt -0.000000 0.875000
vt 0.000000 0.937500
vt -0.000000 1.000000
vt 0.312500 1.000000
vt 0.875000 1.000000
vt -0.000000 0.937500
vt 0.000000 0.875000
vt 0.312500 0.875000
vt 0.312500 0.937500
vt 0.875000 0.875000
vt 0.875000 0.937500
vt 0.875000 0.937500
vt 0.875000 0.875000
vt 0.312500 0.875000
vt 0.312500 0.937500
vt -0.000000 0.875000
vt 0.000000 0.937500
vt -0.000000 1.000000
vt 0.312500 1.000000
vt 0.875000 1.000000
vt 0.000000 0.062500
vt 0.000000 -0.000000
vt 0.437500 -0.000000
vt 0.062500 0.187500
vt -0.000000 0.187500
vt 0.062500 0.125000
vt 0.000000 0.062500
vt 0.000000 -0.000000
vt 0.437500 -0.000000
vt 0.062500 0.187500
vt -0.000000 0.187500
vt 0.062500 0.125000
vt 0.000000 0.062500
vt 0.000000 -0.000000
vt 0.437500 -0.000000
vt 0.062500 0.187500
vt -0.000000 0.187500
vt 0.062500 0.125000
vt 0.000000 0.062500
vt 0.000000 -0.000000
vt 0.437500 -0.000000
vt 0.062500 0.187500
vt -0.000000 0.187500
vt 0.062500 0.125000
vt 0.500000 0.812500
vt 0.500000 0.937500
vt 0.375000 0.937500
vt 0.375000 0.812500
vt 0.875000 -0.000000
vt 0.875000 0.062500
vt 0.875000 0.062500
vt 0.875000 -0.000000
vt 0.875000 0.062500
vt 0.875000 -0.000000
vt 0.875000 -0.000000
vt 0.875000 0.062500
vt 0.812500 0.125000
vt 0.062500 0.125000
vt 0.812500 0.125000
vt 0.062500 0.125000
vt 0.812500 0.125000
vt 0.062500 0.125000
vt 0.812500 0.125000
vt 0.062500 0.125000
vt 0.750000 0.187500
vt 0.125000 0.187500
vt 0.750000 0.187500
vt 0.125000 0.187500
vt 0.750000 0.187500
vt 0.125000 0.187500
vt 0.750000 0.187500
vt 0.125000 0.187500
vt 0.625000 0.687500
vt 0.250000 0.687500
vt 0.562500 0.750000
vt 0.312500 0.750000
vt 0.250000 0.687500
vt 0.625000 0.687500
vt 0.562500 0.750000
vt 0.312500 0.750000
vt 0.250000 0.687500
vt 0.625000 0.687500
vt 0.562500 0.750000
vt 0.312500 0.750000
vt 0.250000 0.687500
vt 0.625000 0.687500
vt 0.562500 0.750000
vt 0.312500 0.750000
vt 0.500000 0.812500
vt 0.375000 0.812500
vt 0.500000 0.812500
vt 0.375000 0.812500
vt 0.500000 0.812500
vt 0.375000 0.812500
vt 0.875000 0.125000
vt 0.937500 0.125000
vt 0.937500 0.437500
vt 0.875000 0.437500
vt 0.875000 0.125000
vt 0.937500 0.125000
vt 0.937500 0.437500
vt 0.875000 0.437500
vt 0.937500 0.125000
vt 0.937500 0.437500
vt 0.875000 0.125000
vt 0.875000 0.437500
vt 1.000000 0.125000
vt 0.937500 0.125000
vt 0.937500 0.937500
vt 1.000000 0.937500
vt 1.000000 0.125000
vt 0.937500 0.125000
vt 0.937500 0.937500
vt 1.000000 0.937500
vt 1.000000 0.125000
vt 1.000000 0.937500
vt 0.937500 0.125000
vt 0.937500 0.937500
vt 0.937500 0.625000
vt 0.937500 0.812500
vt 0.875000 0.812500
vt 0.875000 0.625000
vt 0.875000 0.437500
vt 0.875000 0.625000
vt 0.937500 0.625000
vt 0.937500 0.437500
vt 0.937500 0.625000
vt 0.937500 0.812500
vt 0.875000 0.812500
vt 0.875000 0.625000
vt 0.937500 1.000000
vt 0.937500 0.812500
vt 0.875000 0.812500
vt 0.875000 1.000000
vt 0.937500 0.625000
vt 0.875000 0.625000
vt 0.875000 0.437500
vt 0.937500 0.437500
vt 0.937500 0.625000
vt 0.875000 0.625000
vt 0.937500 1.000000
vt 0.875000 1.000000
vt 0.937500 0.812500
vt 0.937500 0.625000
vt 0.875000 0.625000
vt 0.875000 0.812500
vt 0.937500 0.625000
vt 0.937500 0.437500
vt 0.875000 0.437500
vt 0.875000 0.625000
vt 0.937500 0.812500
vt 0.937500 0.625000
vt 0.875000 0.625000
vt 0.875000 0.812500
vt 0.875000 1.000000
vt 0.937500 1.000000
vt 0.875000 1.000000
vt 0.937500 1.000000
vt 0.937500 0.625000
vt 0.875000 0.625000
vt 0.937500 0.437500
vt 0.875000 0.437500
vt 0.937500 0.625000
vt 0.875000 0.625000
vt 0.937500 0.812500
vt 0.937500 0.625000
vt 0.875000 0.625000
vt 0.875000 0.812500
vt 0.937500 0.625000
vt 0.937500 0.437500
vt 0.875000 0.437500
vt 0.875000 0.625000
vt 0.875000 0.812500
vt 0.875000 0.625000
vt 0.937500 0.625000
vt 0.937500 0.812500
vt 0.937500 1.000000
vt 0.875000 1.000000
vt 0.875000 0.812500
vt 0.937500 1.000000
vt 0.875000 1.000000
vt 0.875000 0.625000
vt 0.937500 0.625000
vt 0.937500 0.437500
vt 0.875000 0.437500
vt 0.937500 0.625000
vt 0.875000 0.625000
vt 0.875000 0.812500
vt 0.875000 0.625000
vt 0.937500 0.625000
vt 0.937500 0.812500
vt 0.937500 0.625000
vt 0.937500 0.437500
vt 0.875000 0.437500
vt 0.875000 0.625000
vt 0.937500 0.812500
vt 0.937500 0.625000
vt 0.875000 0.625000
vt 0.875000 0.812500
vt 0.937500 0.812500
vt 0.937500 1.000000
vt 0.875000 1.000000
vt 0.937500 1.000000
vt 0.875000 1.000000
vt 0.937500 0.625000
vt 0.875000 0.625000
vt 0.937500 0.437500
vt 0.875000 0.437500
vt 0.875000 0.625000
vt 0.937500 0.625000
vt 1.000000 1.000000
vt 0.062500 0.812500
vt 0.125000 0.750000
vt 0.125000 0.812500
vt 0.062500 0.812500
vt 0.062500 0.750000
vt 0.125000 0.750000
vt 0.125000 0.812500
vt 0.125000 0.937500
vt 0.062500 0.937500
vt 0.125000 0.812500
vt 0.062500 0.812500
vt 0.062500 0.937500
vt 0.125000 0.937500
vt 0.062500 1.000000
vt 0.062500 0.812500
vt 0.125000 0.812500
vt 0.125000 0.937500
vt 0.062500 0.937500
vt 0.125000 0.937500
vt 0.062500 0.937500
vt 0.125000 1.000000
vt 0.062500 1.000000
vt 0.000000 0.187500
vt 0.062500 0.187500
vt 0.062500 0.937500
vt 0.000000 0.937500
vt 0.000000 0.187500
vt 0.062500 0.187500
vt 0.062500 0.937500
vt 0.000000 0.937500
vt 0.000000 0.187500
vt 0.062500 0.187500
vt 0.062500 0.937500
vt 0.000000 0.937500
vt 0.000000 0.187500
vt 0.062500 0.187500
vt 0.062500 0.937500
vt 0.000000 0.937500
vt 0.000000 1.000000
vt 0.875000 0.187500
vt 0.812500 0.187500
vt 0.812500 0.437500
vt 0.875000 0.437500
vt 0.875000 0.187500
vt 0.812500 0.187500
vt 0.812500 0.437500
vt 0.875000 0.437500
vt 0.812500 0.187500
vt 0.812500 0.437500
vt 0.875000 0.187500
vt 0.875000 0.437500
vt 0.812500 0.625000
vt 0.812500 0.812500
vt 0.875000 0.812500
vt 0.875000 0.625000
vt 0.875000 0.437500
vt 0.875000 0.625000
vt 0.812500 0.625000
vt 0.812500 0.437500
vt 0.875000 0.625000
vt 0.875000 0.812500
vt 0.812500 0.812500
vt 0.812500 0.625000
vt 0.812500 0.812500
vt 0.812500 1.000000
vt 0.875000 1.000000
vt 0.875000 0.812500
vt 0.875000 0.812500
vt 0.875000 1.000000
vt 0.812500 1.000000
vt 0.812500 0.812500
vt 0.812500 0.625000
vt 0.812500 0.812500
vt 0.875000 0.812500
vt 0.875000 0.625000
vt 0.812500 0.437500
vt 0.812500 0.625000
vt 0.875000 0.625000
vt 0.875000 0.437500
vt 0.875000 0.625000
vt 0.875000 0.812500
vt 0.812500 0.812500
vt 0.812500 0.625000
vt 0.875000 0.125000
vt 0.875000 0.812500
vt 0.875000 1.000000
vt 0.812500 1.000000
vt 0.812500 0.812500
vt 0.875000 0.625000
vt 0.875000 0.812500
vt 0.812500 0.812500
vt 0.812500 0.625000
vt 0.812500 0.437500
vt 0.812500 0.625000
vt 0.875000 0.625000
vt 0.875000 0.437500
vt 0.812500 0.625000
vt 0.812500 0.812500
vt 0.875000 0.812500
vt 0.875000 0.625000
vt 0.812500 0.812500
vt 0.812500 1.000000
vt 0.875000 1.000000
vt 0.875000 0.812500
vt 0.812500 0.625000
vt 0.812500 0.812500
vt 0.875000 0.812500
vt 0.875000 0.625000
vt 0.875000 0.437500
vt 0.875000 0.625000
vt 0.812500 0.625000
vt 0.812500 0.437500
vt 0.875000 0.625000
vt 0.875000 0.812500
vt 0.812500 0.812500
vt 0.812500 0.625000
vt 0.125000 0.750000
vt 0.062500 0.750000
vt 0.062500 0.437500
vt 0.125000 0.437500
vt 0.125000 0.437500
vt 0.062500 0.437500
vt 0.125000 0.875000
vt 0.125000 0.687500
vt 0.250000 0.687500
vt 0.250000 0.875000
vt 0.125000 0.437500
vt 0.062500 0.750000
vt 0.062500 0.437500
vt 0.125000 0.437500
vt 0.125000 0.750000
vt 0.062500 0.750000
vt 0.062500 0.437500
vt 0.125000 0.875000
vt 0.125000 0.687500
vt 0.250000 0.687500
vt 0.250000 0.875000
vt 0.250000 1.000000
vt 0.125000 1.000000
vt 0.125000 0.875000
vt 0.125000 0.687500
vt 0.250000 0.687500
vt 0.250000 0.875000
vt 0.125000 0.875000
vt 0.125000 0.687500
vt 0.250000 0.687500
vt 0.250000 0.875000
vt 0.062500 0.812500
vt 0.125000 0.750000
vt 0.125000 0.812500
vt 0.062500 0.812500
vt 0.062500 0.750000
vt 0.125000 0.750000
vt 0.125000 0.812500
vt 0.125000 0.937500
vt 0.062500 0.937500
vt 0.125000 0.812500
vt 0.062500 0.812500
vt 0.062500 0.937500
vt 0.125000 0.937500
vt 0.062500 1.000000
vt 0.062500 0.812500
vt 0.125000 0.812500
vt 0.125000 0.937500
vt 0.062500 0.937500
vt 0.125000 0.937500
vt 0.062500 0.937500
vt 0.125000 1.000000
vt 0.062500 1.000000
vt 0.000000 0.187500
vt 0.062500 0.187500
vt 0.062500 0.937500
vt 0.000000 0.937500
vt 0.000000 0.187500
vt 0.062500 0.187500
vt 0.062500 0.937500
vt 0.000000 0.937500
vt 0.000000 0.187500
vt 0.062500 0.187500
vt 0.062500 0.937500
vt 0.000000 0.937500
vt 0.000000 0.187500
vt 0.062500 0.187500
vt 0.062500 0.937500
vt 0.000000 0.937500
vt 0.000000 1.000000
vt 0.125000 0.750000
vt 0.062500 0.750000
vt 0.062500 0.437500
vt 0.125000 0.437500
vt 0.125000 0.437500
vt 0.062500 0.437500
vt 0.125000 0.875000
vt 0.125000 0.687500
vt 0.250000 0.687500
vt 0.250000 0.875000
vt 0.125000 0.437500
vt 0.062500 0.750000
vt 0.062500 0.437500
vt 0.125000 0.437500
vt 0.125000 0.750000
vt 0.062500 0.750000
vt 0.062500 0.437500
vt 0.125000 0.875000
vt 0.125000 0.687500
vt 0.250000 0.687500
vt 0.250000 0.875000
vt 0.250000 1.000000
vt 0.125000 1.000000
vt 0.125000 0.875000
vt 0.125000 0.687500
vt 0.250000 0.687500
vt 0.250000 0.875000
vt 0.125000 0.875000
vt 0.125000 0.687500
vt 0.250000 0.687500
vt 0.250000 0.875000
vt 0.062500 0.812500
vt 0.125000 0.750000
vt 0.125000 0.812500
vt 0.062500 0.812500
vt 0.062500 0.750000
vt 0.125000 0.750000
vt 0.125000 0.812500
vt 0.125000 0.937500
vt 0.062500 0.937500
vt 0.125000 0.812500
vt 0.062500 0.812500
vt 0.062500 0.937500
vt 0.125000 0.937500
vt 0.062500 1.000000
vt 0.062500 0.812500
vt 0.125000 0.812500
vt 0.125000 0.937500
vt 0.062500 0.937500
vt 0.125000 0.937500
vt 0.062500 0.937500
vt 0.125000 1.000000
vt 0.062500 1.000000
vt 0.000000 0.187500
vt 0.062500 0.187500
vt 0.062500 0.937500
vt 0.000000 0.937500
vt 0.000000 0.187500
vt 0.062500 0.187500
vt 0.062500 0.937500
vt 0.000000 0.937500
vt 0.000000 0.187500
vt 0.062500 0.187500
vt 0.062500 0.937500
vt 0.000000 0.937500
vt 0.000000 0.187500
vt 0.062500 0.187500
vt 0.062500 0.937500
vt 0.000000 0.937500
vt 0.000000 1.000000
vt 0.125000 0.750000
vt 0.062500 0.750000
vt 0.062500 0.437500
vt 0.125000 0.437500
vt 0.125000 0.437500
vt 0.062500 0.437500
vt 0.125000 0.875000
vt 0.125000 0.687500
vt 0.250000 0.687500
vt 0.250000 0.875000
vt 0.125000 0.437500
vt 0.062500 0.750000
vt 0.062500 0.437500
vt 0.125000 0.437500
vt 0.125000 0.750000
vt 0.062500 0.750000
vt 0.062500 0.437500
vt 0.125000 0.875000
vt 0.125000 0.687500
vt 0.250000 0.687500
vt 0.250000 0.875000
vt 0.250000 1.000000
vt 0.125000 1.000000
vt 0.125000 0.875000
vt 0.125000 0.687500
vt 0.250000 0.687500
vt 0.250000 0.875000
vt 0.125000 0.875000
vt 0.125000 0.687500
vt 0.250000 0.687500
vt 0.250000 0.875000
vt 0.062500 0.812500
vt 0.125000 0.750000
vt 0.125000 0.812500
vt 0.062500 0.812500
vt 0.062500 0.750000
vt 0.125000 0.750000
vt 0.125000 0.812500
vt 0.125000 0.937500
vt 0.062500 0.937500
vt 0.125000 0.812500
vt 0.062500 0.812500
vt 0.062500 0.937500
vt 0.125000 0.937500
vt 0.062500 1.000000
vt 0.062500 0.812500
vt 0.125000 0.812500
vt 0.125000 0.937500
vt 0.062500 0.937500
vt 0.125000 0.937500
vt 0.062500 0.937500
vt 0.125000 1.000000
vt 0.062500 1.000000
vt 0.000000 0.187500
vt 0.062500 0.187500
vt 0.062500 0.937500
vt 0.000000 0.937500
vt 0.000000 0.187500
vt 0.062500 0.187500
vt 0.062500 0.937500
vt 0.000000 0.937500
vt 0.000000 0.187500
vt 0.062500 0.187500
vt 0.062500 0.937500
vt 0.000000 0.937500
vt 0.000000 0.187500
vt 0.062500 0.187500
vt 0.062500 0.937500
vt 0.000000 0.937500
vt 0.000000 1.000000
vt 0.125000 0.750000
vt 0.062500 0.750000
vt 0.062500 0.437500
vt 0.125000 0.437500
vt 0.125000 0.437500
vt 0.062500 0.437500
vt 0.125000 0.875000
vt 0.125000 0.687500
vt 0.250000 0.687500
vt 0.250000 0.875000
vt 0.125000 0.437500
vt 0.062500 0.750000
vt 0.062500 0.437500
vt 0.125000 0.437500
vt 0.125000 0.750000
vt 0.062500 0.750000
vt 0.062500 0.437500
vt 0.125000 0.875000
vt 0.125000 0.687500
vt 0.250000 0.687500
vt 0.250000 0.875000
vt 0.250000 1.000000
vt 0.125000 1.000000
vt 0.125000 0.875000
vt 0.125000 0.687500
vt 0.250000 0.687500
vt 0.250000 0.875000
vt 0.125000 0.875000
vt 0.125000 0.687500
vt 0.250000 0.687500
vt 0.250000 0.875000
vn 0.0000 0.0000 -1.0000
vn 0.0000 -1.0000 0.0000
vn 0.0000 -0.9487 0.3162
vn 0.0000 1.0000 0.0000
vn 0.7071 0.0000 -0.7071
vn 0.0000 -0.3714 -0.9285
vn 1.0000 0.0000 0.0000
vn -0.3162 -0.9487 0.0000
vn 0.7071 0.0000 0.7071
vn 0.9285 -0.3714 -0.0000
vn 0.0000 0.0000 1.0000
vn 0.0000 -0.9487 -0.3162
vn -0.7071 0.0000 0.7071
vn 0.0000 -0.3714 0.9285
vn -1.0000 0.0000 0.0000
vn 0.3162 -0.9487 -0.0000
vn -0.7071 0.0000 -0.7071
vn -0.9285 -0.3714 -0.0000
vn 0.6155 -0.4924 0.6155
vn -0.6155 -0.4924 -0.6155
vn -0.6155 -0.4924 0.6155
vn 0.6155 -0.4924 -0.6155
vn -0.9701 0.2425 -0.0000
vn 0.0000 0.7071 0.7071
vn -0.0000 0.7071 -0.7071
vn -0.7071 0.7071 0.0000
vn 0.7071 0.7071 0.0000
vn 0.9701 0.2425 0.0000
vn -0.0000 0.2425 0.9701
vn 0.0000 0.2425 -0.9701
vn -0.5000 0.7071 0.5000
vn 0.5000 -0.7071 -0.5000
vn -0.5000 -0.7071 0.5000
vn 0.5000 0.7071 -0.5000
vn 0.5000 -0.7071 0.5000
vn -0.5000 0.7071 -0.5000
vn -0.5000 -0.7071 -0.5000
vn 0.5000 0.7071 0.5000
vn -0.6325 0.4472 0.6325
vn 0.6325 0.4472 0.6325
vn 0.6325 0.4472 -0.6325
vn -0.6325 0.4472 -0.6325
vn -0.3536 0.8660 -0.3536
vn 0.1830 0.9659 0.1830
vn -0.1830 -0.9659 -0.1830
vn 0.3536 -0.8660 0.3536
vn -0.6830 0.2588 -0.6830
vn 0.6830 -0.2588 0.6830
vn -0.5291 0.6635 -0.5291
vn -0.5506 0.4320 0.7143
vn 0.6928 0.2005 0.6928
vn 0.7143 0.4320 -0.5506
vn 0.6325 -0.4472 0.6325
vn 0.6325 -0.4472 -0.6325
vn -0.6325 -0.4472 -0.6325
vn -0.6325 -0.4472 0.6325
vn 0.3536 0.8660 0.3536
vn -0.1830 0.9659 -0.1830
vn 0.1830 -0.9659 0.1830
vn -0.3536 -0.8660 -0.3536
vn 0.6830 0.2588 0.6830
vn -0.6830 -0.2588 -0.6830
vn 0.5291 0.6635 0.5291
vn 0.5506 0.4320 -0.7143
vn -0.6927 0.2005 -0.6928
vn -0.7143 0.4320 0.5506
vn -0.3536 0.8660 0.3536
vn 0.1830 0.9659 -0.1830
vn -0.1830 -0.9659 0.1830
vn 0.3536 -0.8660 -0.3536
vn -0.6830 0.2588 0.6830
vn 0.6830 -0.2588 -0.6830
vn -0.5291 0.6635 0.5291
vn 0.7143 0.4320 0.5506
vn 0.6928 0.2005 -0.6928
vn -0.5506 0.4320 -0.7143
vn 0.3536 0.8660 -0.3536
vn -0.1830 0.9659 0.1830
vn 0.1830 -0.9659 -0.1830
vn -0.3536 -0.8660 0.3536
vn 0.6830 0.2588 -0.6830
vn -0.6830 -0.2588 0.6830
vn 0.5291 0.6635 -0.5291
vn -0.7143 0.4320 -0.5506
vn -0.6928 0.2005 0.6927
vn 0.5506 0.4320 0.7143
usemtl SKYWRATH_ALTAR
s off
f 47/1/1 46/2/1 8/3/1 7/4/1
f 48/5/2 3/6/2 8/3/2 46/2/2
f 4/7/2 5/8/2 11/9/2
f 69/10/3 64/11/3 19/12/3
f 25/13/1 24/14/1 9/15/1 10/16/1
f 42/17/1 41/18/1 18/19/1 17/20/1
f 44/21/4 13/22/4 16/23/4 42/17/4
f 43/24/2 14/25/2 18/19/2 41/18/2
f 13/26/4 21/27/4 16/28/4
f 22/29/4 20/30/4 10/16/4 26/31/4
f 69/32/2 19/33/2 9/15/2 24/14/2
f 10/16/1 9/15/1 27/34/1 26/31/1
f 20/30/4 23/35/4 25/13/4 10/16/4
f 19/33/2 149/36/2 27/34/2 9/15/2
f 23/37/4 28/38/4 25/39/4
f 69/40/2 24/41/2 29/42/2
f 25/43/5 28/44/5 29/42/5 24/41/5
f 57/45/2 43/24/2 41/18/2 15/46/2
f 144/47/3 149/48/3 19/12/3
f 31/49/1 70/50/1 49/51/1 33/52/1
f 12/53/4 44/21/4 42/17/4 17/20/4
f 6/54/1 5/55/1 46/2/1 47/1/1
f 33/56/1 49/57/1 45/58/1 38/59/1
f 4/60/2 48/5/2 46/2/2 5/55/2
f 64/11/3 144/47/3 19/12/3
f 16/23/1 15/46/1 41/18/1 42/17/1
f 38/61/1 45/62/1 40/63/1 39/64/1
f 36/65/6 34/66/6 35/67/6 37/68/6
f 39/69/1 40/70/1 32/71/1 30/72/1
f 85/73/7 84/74/7 11/75/7 53/76/7
f 86/77/2 4/60/2 11/75/2 84/74/2
f 88/78/2 51/79/2 92/80/2
f 105/81/8 102/82/8 61/83/8
f 66/84/7 65/85/7 54/86/7 55/87/7
f 80/88/7 79/89/7 60/90/7 21/91/7
f 82/92/4 56/93/4 59/94/4 80/88/4
f 81/95/2 57/45/2 60/90/2 79/89/2
f 56/96/4 98/97/4 59/98/4
f 23/35/4 62/99/4 55/87/4 28/100/4
f 105/101/2 61/102/2 54/86/2 65/85/2
f 55/87/7 54/86/7 29/103/7 28/100/7
f 62/99/4 63/104/4 66/84/4 55/87/4
f 61/102/2 69/32/2 29/103/2 54/86/2
f 63/105/4 67/106/4 66/107/4
f 105/108/2 65/109/2 68/110/2
f 66/111/9 67/112/9 68/110/9 65/109/9
f 95/113/2 81/95/2 79/89/2 58/114/2
f 64/11/8 69/10/8 61/83/8
f 107/115/7 108/116/7 87/117/7 71/118/7
f 13/22/4 82/92/4 80/88/4 21/91/4
f 52/119/7 51/120/7 84/74/7 85/73/7
f 71/121/7 87/122/7 83/123/7 76/124/7
f 88/125/2 86/77/2 84/74/2 51/120/2
f 102/82/8 64/11/8 61/83/8
f 59/94/7 58/114/7 79/89/7 80/88/7
f 76/126/7 83/127/7 78/128/7 77/129/7
f 74/130/10 72/131/10 73/132/10 75/133/10
f 77/134/7 78/135/7 70/136/7 31/137/7
f 123/138/11 122/139/11 92/140/11 91/141/11
f 124/142/2 88/125/2 92/140/2 122/139/2
f 127/143/2 89/144/2 131/145/2
f 106/146/12 143/147/12 100/148/12
f 104/149/11 103/150/11 93/151/11 94/152/11
f 118/153/11 117/154/11 99/155/11 98/156/11
f 120/157/4 134/158/4 97/159/4 118/153/4
f 119/160/2 95/113/2 99/155/2 117/154/2
f 134/161/4 138/162/4 97/163/4
f 63/104/4 101/164/4 94/152/4 67/165/4
f 106/166/2 100/167/2 93/151/2 103/150/2
f 94/152/11 93/151/11 68/168/11 67/165/11
f 101/164/4 142/169/4 104/149/4 94/152/4
f 100/167/2 105/101/2 68/168/2 93/151/2
f 142/170/4 147/171/4 104/172/4
f 106/173/2 103/174/2 148/175/2
f 104/176/13 147/177/13 148/175/13 103/174/13
f 135/178/2 119/160/2 117/154/2 96/179/2
f 102/82/12 105/81/12 100/148/12
f 150/180/11 151/181/11 125/182/11 109/183/11
f 56/93/4 120/157/4 118/153/4 98/156/4
f 90/184/11 89/185/11 122/139/11 123/138/11
f 109/186/11 125/187/11 121/188/11 114/189/11
f 127/190/2 124/142/2 122/139/2 89/185/2
f 143/147/12 102/82/12 100/148/12
f 97/159/11 96/179/11 117/154/11 118/153/11
f 114/191/11 121/192/11 116/193/11 115/194/11
f 112/195/14 110/196/14 111/197/14 113/198/14
f 115/199/11 116/200/11 108/201/11 107/202/11
f 166/203/15 165/204/15 131/205/15 130/206/15
f 167/207/2 127/190/2 131/205/2 165/204/2
f 3/208/2 128/209/2 8/210/2
f 149/48/16 144/47/16 140/211/16
f 146/212/15 145/213/15 132/214/15 133/215/15
f 161/216/15 160/217/15 139/218/15 138/219/15
f 163/220/4 12/53/4 137/221/4 161/216/4
f 162/222/2 135/178/2 139/218/2 160/217/2
f 12/223/4 17/224/4 137/225/4
f 142/169/4 141/226/4 133/215/4 147/227/4
f 149/36/2 140/228/2 132/214/2 145/213/2
f 133/215/15 132/214/15 148/229/15 147/227/15
f 141/226/4 22/29/4 146/212/4 133/215/4
f 140/228/2 106/166/2 148/229/2 132/214/2
f 22/230/4 26/231/4 146/232/4
f 149/233/2 145/234/2 27/235/2
f 146/236/17 26/237/17 27/235/17 145/234/17
f 14/25/2 162/222/2 160/217/2 136/238/2
f 143/147/16 106/146/16 140/211/16
f 30/239/15 32/240/15 168/241/15 152/242/15
f 134/158/4 163/220/4 161/216/4 138/219/4
f 129/243/15 128/244/15 165/204/15 166/203/15
f 152/245/15 168/246/15 164/247/15 157/248/15
f 3/6/2 167/207/2 165/204/2 128/244/2
f 144/47/16 143/147/16 140/211/16
f 137/221/15 136/238/15 160/217/15 161/216/15
f 157/249/15 164/250/15 159/251/15 158/252/15
f 155/253/18 153/254/18 154/255/18 156/256/18
f 158/257/15 159/258/15 151/259/15 150/260/15
f 143/261/2 144/262/2 64/263/2 102/264/2
f 172/265/5 169/266/5 180/267/5 179/268/5
f 179/268/5 180/267/5 176/269/5 174/270/5
f 173/271/13 175/272/13 177/273/13 178/274/13
f 178/274/13 177/273/13 170/275/13 171/276/13
f 171/277/19 172/265/19 179/268/19 178/278/19
f 178/278/9 179/268/9 174/270/9 173/279/9
f 184/280/13 181/281/13 192/282/13 191/283/13
f 191/283/13 192/282/13 188/284/13 186/285/13
f 185/286/5 187/287/5 189/288/5 190/289/5
f 190/289/5 189/288/5 182/290/5 183/291/5
f 183/292/20 184/280/20 191/283/20 190/293/20
f 190/293/17 191/283/17 186/285/17 185/294/17
f 196/295/9 193/296/9 204/297/9 203/298/9
f 203/298/9 204/297/9 200/299/9 198/300/9
f 197/301/17 199/302/17 201/303/17 202/304/17
f 202/304/17 201/303/17 194/305/17 195/306/17
f 195/307/21 196/295/21 203/298/21 202/308/21
f 202/308/13 203/298/13 198/300/13 197/309/13
f 208/310/17 205/311/17 216/312/17 215/313/17
f 215/313/17 216/312/17 212/314/17 210/315/17
f 209/316/9 211/317/9 213/318/9 214/319/9
f 214/319/9 213/318/9 206/320/9 207/321/9
f 207/322/22 208/310/22 215/313/22 214/323/22
f 214/323/5 215/313/5 210/315/5 209/324/5
usemtl SKYWRATH_CONDENSER
f 218/325/4 6/326/4 47/327/4
f 218/328/4 53/329/4 6/330/4
f 220/331/4 52/332/4 85/333/4
f 220/334/4 91/335/4 52/336/4
f 219/337/4 90/338/4 123/339/4
f 219/340/4 130/341/4 90/342/4
f 217/343/4 129/344/4 166/345/4
f 217/346/4 7/347/4 129/348/4
f 2/349/4 1/350/4 126/351/4 50/352/4
f 53/353/4 218/354/4 85/333/4
f 220/355/4 219/337/4 123/339/4
f 91/356/4 220/355/4 123/339/4
f 219/357/4 217/343/4 166/345/4
f 130/358/4 219/357/4 166/345/4
f 7/359/4 217/360/4 47/327/4
f 218/354/4 220/331/4 85/333/4
f 217/360/4 218/325/4 47/327/4
f 221/361/4 222/362/4 218/325/4 217/360/4
f 224/363/4 223/364/4 219/337/4 220/355/4
f 222/365/4 224/366/4 220/331/4 218/354/4
f 223/367/4 221/368/4 217/343/4 219/357/4
f 225/369/4 226/370/4 222/362/4 221/361/4
f 228/371/4 227/372/4 223/364/4 224/363/4
f 226/373/4 228/374/4 224/366/4 222/365/4
f 227/375/4 225/376/4 221/368/4 223/367/4
f 227/375/23 231/377/23 229/378/23 225/376/23
f 233/379/4 234/380/4 230/381/4 229/382/4
f 236/383/4 235/384/4 231/385/4 232/386/4
f 234/387/4 236/388/4 232/389/4 230/390/4
f 235/391/4 233/392/4 229/378/4 231/377/4
f 1/393/24 2/394/24 234/380/24 233/379/24
f 50/395/25 126/396/25 235/384/25 236/383/25
f 2/349/26 50/352/26 236/388/26 234/387/26
f 126/397/27 1/398/27 233/392/27 235/391/27
f 226/373/28 230/390/28 232/389/28 228/374/28
f 227/372/29 228/371/29 232/386/29 231/385/29
f 226/370/30 225/369/30 229/382/30 230/381/30
f 240/399/5 239/400/5 242/401/5 244/402/5
f 237/403/9 240/404/9 244/405/9 243/406/9
f 238/407/13 237/403/13 243/406/13 241/408/13
f 239/400/17 238/409/17 241/410/17 242/401/17
f 250/411/17 249/412/17 246/413/17 248/414/17
f 249/415/13 251/416/13 245/417/13 246/418/13
f 251/416/9 252/419/9 247/420/9 245/417/9
f 252/421/5 250/411/5 248/414/5 247/422/5
f 257/423/9 256/424/9 255/425/9 258/426/9
f 258/427/31 255/428/31 254/429/31 260/430/31
f 260/431/17 254/432/17 253/433/17 259/434/17
f 259/435/32 253/436/32 256/437/32 257/438/32
f 256/424/9 300/439/9 299/440/9 255/425/9
f 255/428/33 299/441/33 297/442/33 254/429/33
f 254/432/17 297/443/17 298/444/17 253/433/17
f 253/436/34 298/445/34 300/446/34 256/437/34
f 269/447/17 268/448/17 267/449/17 270/450/17
f 270/451/32 267/452/32 265/453/32 271/454/32
f 271/455/9 265/456/9 266/457/9 272/458/9
f 272/458/31 266/459/31 268/460/31 269/447/31
f 262/461/33 272/458/33 269/447/33 264/462/33
f 261/463/9 271/455/9 272/458/9 262/464/9
f 263/465/34 270/451/34 271/454/34 261/466/34
f 264/467/17 269/447/17 270/450/17 263/468/17
f 281/469/5 280/470/5 279/471/5 282/472/5
f 282/473/35 279/474/35 277/475/35 283/476/35
f 283/477/13 277/478/13 278/479/13 284/480/13
f 284/480/36 278/481/36 280/482/36 281/483/36
f 274/484/37 284/480/37 281/483/37 276/485/37
f 273/486/13 283/477/13 284/480/13 274/487/13
f 275/488/38 282/473/38 283/476/38 273/489/38
f 276/490/5 281/469/5 282/472/5 275/491/5
f 293/492/13 292/493/13 291/494/13 294/495/13
f 294/496/37 291/497/37 289/498/37 295/499/37
f 295/500/5 289/501/5 290/502/5 296/503/5
f 296/504/38 290/505/38 292/506/38 293/492/38
f 286/507/35 296/504/35 293/492/35 288/508/35
f 285/509/5 295/500/5 296/503/5 286/510/5
f 287/511/36 294/496/36 295/499/36 285/512/36
f 288/513/13 293/492/13 294/495/13 287/514/13
f 246/418/39 245/417/39 301/515/39
f 245/417/40 247/420/40 301/515/40
f 247/422/41 248/414/41 301/515/41
f 248/414/42 246/413/42 301/515/42
f 302/516/5 304/517/5 307/518/5
f 307/519/43 304/520/43 305/521/43 306/522/43
f 307/519/44 306/522/44 308/523/44 310/524/44
f 305/521/13 303/525/13 306/526/13
f 311/527/5 310/528/5 313/529/5
f 302/516/5 307/518/5 310/528/5 311/527/5
f 303/530/45 302/531/45 311/532/45 309/533/45
f 306/526/13 303/525/13 309/534/13 308/535/13
f 309/533/46 311/532/46 313/536/46 312/537/46
f 308/535/13 309/534/13 312/537/13
f 308/538/13 312/539/13 316/540/13 317/541/13
f 313/542/5 310/543/5 315/544/5 314/545/5
f 310/546/47 308/547/47 317/548/47 315/549/47
f 312/550/48 313/551/48 314/552/48 316/553/48
f 315/549/49 317/548/49 318/554/49
f 317/541/50 316/540/50 318/554/50
f 316/553/51 314/552/51 318/554/51
f 314/545/52 315/544/52 318/554/52
f 322/555/5 321/556/5 324/557/5 326/558/5
f 319/559/9 322/560/9 326/561/9 325/562/9
f 320/563/13 319/559/13 325/562/13 323/564/13
f 321/556/17 320/565/17 323/566/17 324/557/17
f 331/567/9 330/568/9 329/569/9 332/570/9
f 332/571/31 329/572/31 328/573/31 334/574/31
f 334/575/17 328/576/17 327/577/17 333/578/17
f 333/579/32 327/580/32 330/581/32 331/582/32
f 336/583/33 342/584/33 339/585/33 338/586/33
f 335/587/9 341/588/9 342/589/9 336/590/9
f 337/591/34 340/592/34 341/593/34 335/594/34
f 338/595/17 339/596/17 340/597/17 337/598/17
f 322/560/53 319/559/53 359/599/53
f 344/600/37 350/601/37 347/602/37 346/603/37
f 343/604/13 349/605/13 350/606/13 344/607/13
f 345/608/38 348/609/38 349/610/38 343/611/38
f 346/612/5 347/613/5 348/614/5 345/615/5
f 321/556/54 322/555/54 359/599/54
f 320/565/55 321/556/55 359/599/55
f 319/559/56 320/563/56 359/599/56
f 352/616/35 358/617/35 355/618/35 354/619/35
f 351/620/5 357/621/5 358/622/5 352/623/5
f 353/624/36 356/625/36 357/626/36 351/627/36
f 354/628/13 355/629/13 356/630/13 353/631/13
f 303/632/13 305/633/13 363/634/13 362/635/13
f 363/636/47 305/521/47 304/520/47 360/637/47
f 367/638/48 371/639/48 369/640/48 365/641/48
f 360/642/5 304/517/5 302/643/5 361/644/5
f 361/645/48 302/646/48 303/647/48 362/648/48
f 364/649/47 370/650/47 366/651/47 368/652/47
f 364/649/44 368/652/44 367/653/44 365/654/44
f 365/655/5 369/656/5 370/657/5 364/658/5
f 368/659/13 366/660/13 371/661/13 367/662/13
f 372/663/13 374/664/13 377/665/13
f 377/666/57 374/667/57 375/668/57 376/669/57
f 377/666/58 376/669/58 378/670/58 380/671/58
f 375/668/5 373/672/5 376/673/5
f 381/674/13 380/675/13 383/676/13
f 372/663/13 377/665/13 380/675/13 381/674/13
f 373/677/59 372/678/59 381/679/59 379/680/59
f 376/673/5 373/672/5 379/681/5 378/682/5
f 379/680/60 381/679/60 383/683/60 382/684/60
f 378/682/5 379/681/5 382/684/5
f 378/685/5 382/686/5 386/687/5 387/688/5
f 383/689/13 380/690/13 385/691/13 384/692/13
f 380/693/61 378/694/61 387/695/61 385/696/61
f 382/697/62 383/698/62 384/699/62 386/700/62
f 385/696/63 387/695/63 388/701/63
f 387/688/64 386/687/64 388/701/64
f 386/700/65 384/699/65 388/701/65
f 384/692/66 385/691/66 388/701/66
f 373/702/5 375/703/5 392/704/5 391/705/5
f 392/706/61 375/668/61 374/667/61 389/707/61
f 396/708/62 400/709/62 398/710/62 394/711/62
f 389/712/13 374/664/13 372/713/13 390/714/13
f 390/715/62 372/716/62 373/717/62 391/718/62
f 393/719/61 399/720/61 395/721/61 397/722/61
f 393/719/58 397/722/58 396/723/58 394/724/58
f 394/725/13 398/726/13 399/727/13 393/728/13
f 397/729/5 395/730/5 400/731/5 396/732/5
f 401/733/17 403/734/17 406/735/17
f 406/736/67 403/737/67 404/738/67 405/739/67
f 406/736/68 405/739/68 407/740/68 409/741/68
f 404/738/9 402/742/9 405/743/9
f 410/744/17 409/745/17 412/746/17
f 401/733/17 406/735/17 409/745/17 410/744/17
f 402/747/69 401/748/69 410/749/69 408/750/69
f 405/743/9 402/742/9 408/751/9 407/752/9
f 408/750/70 410/749/70 412/753/70 411/754/70
f 407/752/9 408/751/9 411/754/9
f 407/755/9 411/756/9 415/757/9 416/758/9
f 412/759/17 409/760/17 414/761/17 413/762/17
f 409/763/71 407/764/71 416/765/71 414/766/71
f 411/767/72 412/768/72 413/769/72 415/770/72
f 414/766/73 416/765/73 417/771/73
f 416/758/74 415/757/74 417/771/74
f 415/770/75 413/769/75 417/771/75
f 413/762/76 414/761/76 417/771/76
f 402/772/9 404/773/9 421/774/9 420/775/9
f 421/776/71 404/738/71 403/737/71 418/777/71
f 425/778/72 429/779/72 427/780/72 423/781/72
f 418/782/17 403/734/17 401/783/17 419/784/17
f 419/785/72 401/786/72 402/787/72 420/788/72
f 422/789/71 428/790/71 424/791/71 426/792/71
f 422/789/68 426/792/68 425/793/68 423/794/68
f 423/795/17 427/796/17 428/797/17 422/798/17
f 426/799/9 424/800/9 429/801/9 425/802/9
f 430/803/9 432/804/9 435/805/9
f 435/806/77 432/807/77 433/808/77 434/809/77
f 435/806/78 434/809/78 436/810/78 438/811/78
f 433/808/17 431/812/17 434/813/17
f 439/814/9 438/815/9 441/816/9
f 430/803/9 435/805/9 438/815/9 439/814/9
f 431/817/79 430/818/79 439/819/79 437/820/79
f 434/813/17 431/812/17 437/821/17 436/822/17
f 437/820/80 439/819/80 441/823/80 440/824/80
f 436/822/17 437/821/17 440/824/17
f 436/825/17 440/826/17 444/827/17 445/828/17
f 441/829/9 438/830/9 443/831/9 442/832/9
f 438/833/81 436/834/81 445/835/81 443/836/81
f 440/837/82 441/838/82 442/839/82 444/840/82
f 443/836/83 445/835/83 446/841/83
f 445/828/84 444/827/84 446/841/84
f 444/840/85 442/839/85 446/841/85
f 442/832/86 443/831/86 446/841/86
f 431/842/17 433/843/17 450/844/17 449/845/17
f 450/846/81 433/808/81 432/807/81 447/847/81
f 454/848/82 458/849/82 456/850/82 452/851/82
f 447/852/9 432/804/9 430/853/9 448/854/9
f 448/855/82 430/856/82 431/857/82 449/858/82
f 451/859/81 457/860/81 453/861/81 455/862/81
f 451/859/78 455/862/78 454/863/78 452/864/78
f 452/865/9 456/866/9 457/867/9 451/868/9
f 455/869/17 453/870/17 458/871/17 454/872/17
