# Blender v2.80 (sub 75) OBJ File: 'chem devices.blend'
# www.blender.org
mtllib skywrath_altar.mtl
o SKYWRATH_ALTAR_Cube.056
v 0.062500 0.000000 0.937500
v 0.937500 0.000000 0.937500
v 0.062500 0.125000 0.937500
v 0.937500 0.125000 0.937500
v 0.937500 0.125000 1.000000
v 0.937500 0.000000 1.000000
v 0.062500 0.000000 1.000000
v 0.062500 0.125000 1.000000
v 0.500000 1.000000 0.875000
v 0.500000 0.875000 0.875000
v 1.000000 0.125000 0.937500
v 0.062500 0.437500 0.937500
v 0.937500 0.437500 0.937500
v 0.062500 0.562500 0.937500
v 0.937500 0.562500 1.000000
v 0.937500 0.437500 1.000000
v 0.062500 0.437500 1.000000
v 0.062500 0.562500 1.000000
v 0.500000 1.000000 0.812500
v 0.500000 0.875000 0.812500
v 1.000000 0.437500 0.937500
v 0.187500 0.875000 0.812500
v 0.812500 0.875000 0.812500
v 0.812500 1.000000 0.875000
v 0.812500 0.875000 0.875000
v 0.187500 0.875000 0.875000
v 0.187500 1.000000 0.875000
v 0.875000 0.875000 0.812500
v 0.875000 1.000000 0.812500
v 0.062500 0.125000 0.937500
v 0.937500 0.125000 0.937500
v 0.062500 0.437500 0.937500
v 0.812500 0.125000 0.937500
v 0.812500 0.875000 0.812500
v 0.187500 0.875000 0.812500
v 0.937500 0.562500 0.937500
v 0.062500 0.562500 0.937500
v 0.500000 0.125000 0.937500
v 0.187500 0.125000 0.937500
v 0.187500 0.437500 0.937500
v 0.500000 0.562500 1.000000
v 0.500000 0.437500 1.000000
v 0.500000 0.562500 0.937500
v 0.500000 0.437500 0.937500
v 0.500000 0.437500 0.937500
v 0.500000 0.125000 1.000000
v 0.500000 0.000000 1.000000
v 0.500000 0.125000 0.937500
v 0.812500 0.437500 0.937500
v 0.937500 0.000000 0.062500
v 1.000000 0.125000 0.062500
v 1.000000 0.000000 0.062500
v 1.000000 0.000000 0.937500
v 0.875000 1.000000 0.500000
v 0.875000 0.875000 0.500000
v 0.937500 0.437500 0.062500
v 0.937500 0.562500 0.937500
v 1.000000 0.562500 0.062500
v 1.000000 0.437500 0.062500
v 1.000000 0.562500 0.937500
v 0.812500 1.000000 0.500000
v 0.812500 0.875000 0.500000
v 0.812500 0.875000 0.187500
v 0.625000 0.937500 0.625000
v 0.875000 1.000000 0.187500
v 0.875000 0.875000 0.187500
v 0.812500 0.875000 0.125000
v 0.812500 1.000000 0.125000
v 0.812500 1.000000 0.812500
v 0.937500 0.437500 0.937500
v 0.937500 0.125000 0.187500
v 0.812500 0.875000 0.187500
v 0.812500 0.875000 0.812500
v 0.937500 0.562500 0.062500
v 0.937500 0.562500 0.937500
v 0.937500 0.125000 0.500000
v 0.937500 0.125000 0.812500
v 0.937500 0.437500 0.812500
v 1.000000 0.562500 0.500000
v 1.000000 0.437500 0.500000
v 0.937500 0.562500 0.500000
v 0.937500 0.437500 0.500000
v 0.937500 0.437500 0.500000
v 1.000000 0.125000 0.500000
v 1.000000 0.000000 0.500000
v 0.937500 0.125000 0.500000
v 0.937500 0.437500 0.187500
v 0.937500 0.125000 0.062500
v 0.062500 0.125000 0.000000
v 0.062500 0.000000 0.000000
v 0.937500 0.000000 0.000000
v 0.937500 0.125000 0.000000
v 0.500000 1.000000 0.125000
v 0.500000 0.875000 0.125000
v 0.937500 0.562500 0.062500
v 0.062500 0.562500 0.000000
v 0.062500 0.437500 0.000000
v 0.937500 0.437500 0.000000
v 0.937500 0.562500 0.000000
v 0.500000 1.000000 0.187500
v 0.500000 0.875000 0.187500
v 0.625000 0.937500 0.375000
v 0.187500 1.000000 0.125000
v 0.187500 0.875000 0.125000
v 0.812500 1.000000 0.187500
v 0.187500 1.000000 0.187500
v 0.937500 0.125000 0.062500
v 0.937500 0.437500 0.062500
v 0.187500 0.125000 0.062500
v 0.187500 0.875000 0.187500
v 0.812500 0.875000 0.187500
v 0.062500 0.562500 0.062500
v 0.937500 0.562500 0.062500
v 0.500000 0.125000 0.062500
v 0.812500 0.125000 0.062500
v 0.812500 0.437500 0.062500
v 0.500000 0.562500 0.000000
v 0.500000 0.437500 0.000000
v 0.500000 0.562500 0.062500
v 0.500000 0.437500 0.062500
v 0.500000 0.437500 0.062500
v 0.500000 0.125000 0.000000
v 0.500000 0.000000 0.000000
v 0.500000 0.125000 0.062500
v 0.187500 0.437500 0.062500
v 0.062500 0.000000 0.062500
v 0.062500 0.125000 0.062500
v 0.000000 0.125000 0.937500
v 0.000000 0.000000 0.937500
v 0.000000 0.000000 0.062500
v 0.000000 0.125000 0.062500
v 0.125000 1.000000 0.500000
v 0.125000 0.875000 0.500000
v 0.062500 0.437500 0.062500
v 0.062500 0.562500 0.062500
v 0.000000 0.562500 0.937500
v 0.000000 0.437500 0.937500
v 0.000000 0.437500 0.062500
v 0.000000 0.562500 0.062500
v 0.187500 1.000000 0.500000
v 0.187500 0.875000 0.500000
v 0.187500 0.875000 0.187500
v 0.375000 0.937500 0.375000
v 0.375000 0.937500 0.625000
v 0.125000 1.000000 0.812500
v 0.125000 0.875000 0.812500
v 0.125000 0.875000 0.187500
v 0.125000 1.000000 0.187500
v 0.187500 1.000000 0.812500
v 0.062500 0.125000 0.062500
v 0.062500 0.437500 0.062500
v 0.062500 0.125000 0.812500
v 0.187500 0.875000 0.812500
v 0.187500 0.875000 0.187500
v 0.062500 0.562500 0.937500
v 0.062500 0.562500 0.062500
v 0.062500 0.125000 0.500000
v 0.062500 0.125000 0.187500
v 0.062500 0.437500 0.187500
v 0.000000 0.562500 0.500000
v 0.000000 0.437500 0.500000
v 0.062500 0.562500 0.500000
v 0.062500 0.437500 0.500000
v 0.062500 0.437500 0.500000
v 0.000000 0.125000 0.500000
v 0.000000 0.000000 0.500000
v 0.062500 0.125000 0.500000
v 0.062500 0.437500 0.812500
v 0.812500 0.875000 0.250000
v 0.750000 0.875000 0.187500
v 0.812500 0.875000 0.125000
v 0.875000 0.875000 0.187500
v 0.937500 0.000000 0.000000
v 1.000000 0.000000 0.062500
v 0.876269 0.000000 0.061231
v 0.938769 0.000000 0.123731
v 0.876269 0.562500 0.061231
v 0.937500 0.562500 0.000000
v 1.000000 0.562500 0.062500
v 0.938769 0.562500 0.123731
v 0.187500 0.875000 0.750000
v 0.250000 0.875000 0.812500
v 0.187500 0.875000 0.875000
v 0.125000 0.875000 0.812500
v 0.062500 0.000000 1.000000
v 0.000000 0.000000 0.937500
v 0.123731 0.000000 0.938769
v 0.061231 0.000000 0.876269
v 0.123731 0.562500 0.938769
v 0.062500 0.562500 1.000000
v 0.000000 0.562500 0.937500
v 0.061231 0.562500 0.876269
v 0.250000 0.875000 0.187500
v 0.187500 0.875000 0.250000
v 0.125000 0.875000 0.187500
v 0.187500 0.875000 0.125000
v 0.000000 0.000000 0.062500
v 0.062500 0.000000 0.000000
v 0.061231 0.000000 0.123731
v 0.123731 0.000000 0.061231
v 0.061231 0.562500 0.123731
v 0.000000 0.562500 0.062500
v 0.062500 0.562500 0.000000
v 0.123731 0.562500 0.061231
v 0.750000 0.875000 0.812500
v 0.812500 0.875000 0.750000
v 0.875000 0.875000 0.812500
v 0.812500 0.875000 0.875000
v 1.000000 0.000000 0.937500
v 0.937500 0.000000 1.000000
v 0.938769 0.000000 0.876269
v 0.876269 0.000000 0.938769
v 0.938769 0.562500 0.876269
v 1.000000 0.562500 0.937500
v 0.937500 0.562500 1.000000
v 0.876269 0.562500 0.938769
vt 0.437500 0.062500
vt 0.437500 0.187500
vt 0.000000 0.187500
vt 0.000000 0.062500
vt 0.000000 -0.000000
vt 0.000000 0.062500
vt 0.062500 0.062500
vt 0.437500 0.250000
vt -0.000000 0.250000
vt 0.437500 0.000000
vt 0.500000 0.062500
vt 0.437500 0.062500
vt 0.437500 0.250000
vt 0.437500 0.187500
vt 0.500000 0.187500
vt 1.000000 0.000000
vt 0.812500 0.187500
vt 1.000000 0.312500
vt 0.062500 0.062500
vt 0.062500 0.187500
vt 0.375000 0.187500
vt 0.375000 0.062500
vt 0.437500 0.062500
vt 0.437500 0.187500
vt 0.000000 0.187500
vt 0.000000 0.062500
vt 0.437500 0.000000
vt 0.000000 0.000000
vt 0.000000 0.062500
vt 0.437500 0.250000
vt 0.000000 0.250000
vt 0.437500 0.000000
vt 0.500000 0.062500
vt 0.437500 0.062500
vt 0.062500 -0.000000
vt 0.375000 -0.000000
vt 0.062500 0.062500
vt 0.062500 0.250000
vt 0.375000 0.250000
vt 0.062500 0.187500
vt 0.062500 -0.000000
vt 0.062500 0.250000
vt 0.375000 0.750000
vt 0.375000 0.750000
vt 0.375000 0.750000
vt 0.437500 0.250000
vt 0.437500 0.187500
vt 0.500000 0.187500
vt 0.437500 0.062500
vt 0.500000 0.062500
vt 0.000000 0.250000
vt 0.000000 0.187500
vt 0.812500 0.437500
vt 1.000000 0.625000
vt 0.562500 0.250000
vt 0.562500 0.562500
vt 0.500000 0.562500
vt 0.500000 0.250000
vt 0.000000 0.000000
vt 0.000000 0.187500
vt 0.375000 0.250000
vt 0.375000 0.562500
vt 0.062500 0.562500
vt 0.062500 0.250000
vt 0.000000 0.250000
vt 0.500000 0.250000
vt 0.500000 0.562500
vt 0.187500 0.562500
vt 0.187500 0.250000
vt 0.875000 0.562500
vt 0.750000 0.875000
vt 0.125000 0.875000
vt 0.000000 0.562500
vt 0.062500 0.250000
vt 0.062500 0.562500
vt -0.000000 0.562500
vt 0.000000 0.250000
vt 0.437500 0.062500
vt 0.437500 0.187500
vt 0.000000 0.187500
vt 0.000000 0.062500
vt 0.000000 -0.000000
vt 0.000000 0.062500
vt 0.062500 0.062500
vt 0.437500 0.250000
vt 0.437500 0.000000
vt 0.500000 0.062500
vt 0.437500 0.062500
vt 0.437500 0.250000
vt 0.437500 0.187500
vt 0.500000 0.187500
vt 1.000000 0.625000
vt 0.812500 0.437500
vt 1.000000 0.312500
vt 0.062500 0.062500
vt 0.062500 0.187500
vt 0.375000 0.187500
vt 0.375000 0.062500
vt 0.437500 0.062500
vt 0.437500 0.187500
vt 0.000000 0.187500
vt 0.000000 0.062500
vt 0.437500 0.000000
vt 0.000000 0.000000
vt 0.000000 0.062500
vt 0.437500 0.250000
vt 0.437500 0.000000
vt 0.500000 0.062500
vt 0.437500 0.062500
vt 0.375000 -0.000000
vt 0.062500 0.062500
vt 0.062500 0.250000
vt 0.375000 0.250000
vt 0.062500 0.187500
vt 0.062500 -0.000000
vt 0.375000 0.750000
vt 0.375000 0.750000
vt 0.375000 0.750000
vt 0.437500 0.250000
vt 0.437500 0.187500
vt 0.500000 0.187500
vt 0.437500 0.062500
vt 0.500000 0.062500
vt 0.000000 0.250000
vt 0.000000 0.187500
vt 0.562500 0.250000
vt 0.562500 0.562500
vt 0.500000 0.562500
vt 0.500000 0.250000
vt 0.000000 0.187500
vt 0.375000 0.250000
vt 0.375000 0.562500
vt 0.062500 0.562500
vt 0.062500 0.250000
vt 0.000000 0.250000
vt 0.500000 0.250000
vt 0.500000 0.562500
vt 0.187500 0.562500
vt 0.187500 0.250000
vt 0.875000 0.562500
vt 0.750000 0.875000
vt 0.125000 0.875000
vt 0.000000 0.562500
vt 0.062500 0.250000
vt 0.062500 0.562500
vt -0.000000 0.562500
vt 0.000000 0.250000
vt 0.437500 0.062500
vt 0.437500 0.187500
vt 0.000000 0.187500
vt 0.000000 0.062500
vt 0.000000 -0.000000
vt 0.000000 0.062500
vt 0.062500 0.062500
vt 0.437500 0.250000
vt 0.437500 0.000000
vt 0.500000 0.062500
vt 0.437500 0.062500
vt 0.437500 0.250000
vt 0.437500 0.187500
vt 0.500000 0.187500
vt 1.000000 0.000000
vt 0.812500 0.187500
vt 1.000000 0.312500
vt 0.062500 0.062500
vt 0.062500 0.187500
vt 0.375000 0.187500
vt 0.375000 0.062500
vt 0.437500 0.062500
vt 0.437500 0.187500
vt 0.000000 0.187500
vt 0.000000 0.062500
vt 0.437500 0.000000
vt 0.000000 0.000000
vt 0.000000 0.062500
vt 0.437500 0.250000
vt 0.437500 0.000000
vt 0.500000 0.062500
vt 0.437500 0.062500
vt 0.375000 -0.000000
vt 0.062500 0.062500
vt 0.062500 0.250000
vt 0.375000 0.250000
vt 0.062500 0.187500
vt 0.062500 -0.000000
vt 0.375000 0.750000
vt 0.375000 0.750000
vt 0.375000 0.750000
vt 0.437500 0.250000
vt 0.437500 0.187500
vt 0.500000 0.187500
vt 0.437500 0.062500
vt 0.500000 0.062500
vt 0.000000 0.250000
vt 0.000000 0.187500
vt 0.562500 0.250000
vt 0.562500 0.562500
vt 0.500000 0.562500
vt 0.500000 0.250000
vt 0.000000 0.187500
vt 0.375000 0.250000
vt 0.375000 0.562500
vt 0.062500 0.562500
vt 0.062500 0.250000
vt 0.000000 0.250000
vt 0.500000 0.250000
vt 0.500000 0.562500
vt 0.187500 0.562500
vt 0.187500 0.250000
vt 0.875000 0.562500
vt 0.750000 0.875000
vt 0.125000 0.875000
vt 0.000000 0.562500
vt 0.062500 0.250000
vt 0.062500 0.562500
vt -0.000000 0.562500
vt 0.000000 0.250000
vt 0.437500 0.062500
vt 0.437500 0.187500
vt 0.000000 0.187500
vt 0.000000 0.062500
vt 0.000000 -0.000000
vt 0.000000 0.062500
vt 0.062500 0.062500
vt 0.437500 0.250000
vt 0.437500 0.000000
vt 0.500000 0.062500
vt 0.437500 0.062500
vt 0.437500 0.250000
vt 0.437500 0.187500
vt 0.500000 0.187500
vt 1.000000 0.312500
vt 0.062500 0.062500
vt 0.062500 0.187500
vt 0.375000 0.187500
vt 0.375000 0.062500
vt 0.437500 0.062500
vt 0.437500 0.187500
vt 0.000000 0.187500
vt 0.000000 0.062500
vt 0.437500 0.000000
vt 0.000000 0.062500
vt 0.437500 0.250000
vt 0.437500 0.000000
vt 0.500000 0.062500
vt 0.437500 0.062500
vt 0.375000 -0.000000
vt 0.062500 0.062500
vt 0.375000 0.250000
vt 0.062500 0.187500
vt 0.375000 0.750000
vt 0.375000 0.750000
vt 0.375000 0.750000
vt 0.437500 0.250000
vt 0.437500 0.187500
vt 0.500000 0.187500
vt 0.437500 0.062500
vt 0.500000 0.062500
vt 0.000000 0.187500
vt 0.562500 0.250000
vt 0.562500 0.562500
vt 0.500000 0.562500
vt 0.500000 0.250000
vt 0.000000 0.187500
vt 0.375000 0.250000
vt 0.375000 0.562500
vt 0.062500 0.562500
vt 0.062500 0.250000
vt 0.500000 0.250000
vt 0.500000 0.562500
vt 0.187500 0.562500
vt 0.187500 0.250000
vt 0.875000 0.562500
vt 0.750000 0.875000
vt 0.125000 0.875000
vt 0.000000 0.562500
vt 0.062500 0.250000
vt 0.062500 0.562500
vt -0.000000 0.562500
vt 0.000000 0.250000
vt 0.562500 0.562500
vt 0.562500 0.312500
vt 0.812500 0.312500
vt 0.812500 0.562500
vt 0.812500 0.562500
vt 0.875000 0.562500
vt 0.875000 0.500000
vt 0.812500 0.500000
vt -0.000000 0.937500
vt 0.000000 0.875000
vt 0.312500 0.875000
vt 0.312500 0.937500
vt 0.875000 0.875000
vt 0.875000 0.937500
vt 0.875000 0.937500
vt 0.875000 0.875000
vt 0.312500 0.875000
vt 0.312500 0.937500
vt -0.000000 0.875000
vt 0.000000 0.937500
vt -0.000000 1.000000
vt 0.312500 1.000000
vt 0.875000 1.000000
vt -0.000000 0.937500
vt 0.000000 0.875000
vt 0.312500 0.875000
vt 0.312500 0.937500
vt 0.875000 0.875000
vt 0.875000 0.937500
vt 0.875000 0.937500
vt 0.875000 0.875000
vt 0.312500 0.875000
vt 0.312500 0.937500
vt -0.000000 0.875000
vt 0.000000 0.937500
vt -0.000000 1.000000
vt 0.312500 1.000000
vt 0.875000 1.000000
vt -0.000000 0.937500
vt 0.000000 0.875000
vt 0.312500 0.875000
vt 0.312500 0.937500
vt 0.875000 0.875000
vt 0.875000 0.937500
vt 0.875000 0.937500
vt 0.875000 0.875000
vt 0.312500 0.875000
vt 0.312500 0.937500
vt -0.000000 0.875000
vt 0.000000 0.937500
vt -0.000000 1.000000
vt 0.312500 1.000000
vt 0.875000 1.000000
vt -0.000000 0.937500
vt 0.000000 0.875000
vt 0.312500 0.875000
vt 0.312500 0.937500
vt 0.875000 0.875000
vt 0.875000 0.937500
vt 0.875000 0.937500
vt 0.875000 0.875000
vt 0.312500 0.875000
vt 0.312500 0.937500
vt -0.000000 0.875000
vt 0.000000 0.937500
vt -0.000000 1.000000
vt 0.312500 1.000000
vt 0.875000 1.000000
vt 0.062500 -0.000000
vt 0.062500 0.000000
vt 0.062500 -0.000000
vt 0.062500 -0.000000
vn 0.0000 0.0000 1.0000
vn 0.0000 -1.0000 0.0000
vn 0.0000 1.0000 0.0000
vn 0.0000 0.9487 -0.3162
vn 0.7071 0.0000 0.7071
vn 0.0000 0.3714 0.9285
vn 1.0000 0.0000 0.0000
vn -0.3162 0.9487 -0.0000
vn 0.7071 0.0000 -0.7071
vn 0.9285 0.3714 0.0000
vn 0.0000 0.0000 -1.0000
vn 0.0000 0.9487 0.3162
vn -0.7071 0.0000 -0.7071
vn -0.0000 0.3714 -0.9285
vn -1.0000 0.0000 0.0000
vn 0.3162 0.9487 0.0000
vn -0.7071 0.0000 0.7071
vn -0.9285 0.3714 0.0000
vn 0.6155 0.4924 -0.6155
vn -0.6155 0.4924 0.6155
vn -0.6155 0.4924 -0.6155
vn 0.6155 0.4924 0.6155
usemtl SKYWRATH_ALTAR
s off
f 47/1/1 46/2/1 8/3/1 7/4/1
f 2/5/2 6/6/2 47/7/2
f 48/8/3 3/9/3 8/3/3 46/2/3
f 2/10/2 53/11/2 6/12/2
f 4/13/3 5/14/3 11/15/3
f 69/16/4 64/17/4 19/18/4
f 25/19/1 24/20/1 9/21/1 10/22/1
f 42/23/1 41/24/1 18/25/1 17/26/1
f 44/27/2 13/28/2 16/29/2 42/23/2
f 43/30/3 14/31/3 18/25/3 41/24/3
f 13/32/2 21/33/2 16/34/2
f 22/35/2 20/36/2 10/22/2 26/37/2
f 69/38/3 19/39/3 9/21/3 24/20/3
f 10/22/1 9/21/1 27/40/1 26/37/1
f 20/36/2 23/41/2 25/19/2 10/22/2
f 19/39/3 149/42/3 27/40/3 9/21/3
f 23/43/2 28/44/2 25/45/2
f 69/46/3 24/47/3 29/48/3
f 25/49/5 28/50/5 29/48/5 24/47/5
f 57/51/3 43/30/3 41/24/3 15/52/3
f 144/53/4 149/54/4 19/18/4
f 31/55/1 70/56/1 49/57/1 33/58/1
f 12/59/2 44/27/2 42/23/2 17/26/2
f 6/6/1 5/60/1 46/2/1 47/1/1
f 33/61/1 49/62/1 45/63/1 38/64/1
f 4/65/3 48/8/3 46/2/3 5/60/3
f 64/17/4 144/53/4 19/18/4
f 16/29/1 15/52/1 41/24/1 42/23/1
f 38/66/1 45/67/1 40/68/1 39/69/1
f 36/70/6 34/71/6 35/72/6 37/73/6
f 39/74/1 40/75/1 32/76/1 30/77/1
f 85/78/7 84/79/7 11/80/7 53/81/7
f 50/82/2 52/83/2 85/84/2
f 86/85/3 4/65/3 11/80/3 84/79/3
f 50/86/2 91/87/2 52/88/2
f 88/89/3 51/90/3 92/91/3
f 105/92/8 102/93/8 61/94/8
f 66/95/7 65/96/7 54/97/7 55/98/7
f 80/99/7 79/100/7 60/101/7 21/102/7
f 82/103/2 56/104/2 59/105/2 80/99/2
f 81/106/3 57/51/3 60/101/3 79/100/3
f 56/107/2 98/108/2 59/109/2
f 23/41/2 62/110/2 55/98/2 28/111/2
f 105/112/3 61/113/3 54/97/3 65/96/3
f 55/98/7 54/97/7 29/114/7 28/111/7
f 62/110/2 63/115/2 66/95/2 55/98/2
f 61/113/3 69/38/3 29/114/3 54/97/3
f 63/116/2 67/117/2 66/118/2
f 105/119/3 65/120/3 68/121/3
f 66/122/9 67/123/9 68/121/9 65/120/9
f 95/124/3 81/106/3 79/100/3 58/125/3
f 64/17/8 69/16/8 61/94/8
f 107/126/7 108/127/7 87/128/7 71/129/7
f 13/28/2 82/103/2 80/99/2 21/102/2
f 52/83/7 51/130/7 84/79/7 85/78/7
f 71/131/7 87/132/7 83/133/7 76/134/7
f 88/135/3 86/85/3 84/79/3 51/130/3
f 102/93/8 64/17/8 61/94/8
f 59/105/7 58/125/7 79/100/7 80/99/7
f 76/136/7 83/137/7 78/138/7 77/139/7
f 74/140/10 72/141/10 73/142/10 75/143/10
f 77/144/7 78/145/7 70/146/7 31/147/7
f 123/148/11 122/149/11 92/150/11 91/151/11
f 126/152/2 90/153/2 123/154/2
f 124/155/3 88/135/3 92/150/3 122/149/3
f 126/156/2 130/157/2 90/158/2
f 127/159/3 89/160/3 131/161/3
f 106/162/12 143/163/12 100/164/12
f 104/165/11 103/166/11 93/167/11 94/168/11
f 118/169/11 117/170/11 99/171/11 98/172/11
f 120/173/2 134/174/2 97/175/2 118/169/2
f 119/176/3 95/124/3 99/171/3 117/170/3
f 134/177/2 138/178/2 97/179/2
f 63/115/2 101/180/2 94/168/2 67/181/2
f 106/182/3 100/183/3 93/167/3 103/166/3
f 94/168/11 93/167/11 68/184/11 67/181/11
f 101/180/2 142/185/2 104/165/2 94/168/2
f 100/183/3 105/112/3 68/184/3 93/167/3
f 142/186/2 147/187/2 104/188/2
f 106/189/3 103/190/3 148/191/3
f 104/192/13 147/193/13 148/191/13 103/190/13
f 135/194/3 119/176/3 117/170/3 96/195/3
f 102/93/12 105/92/12 100/164/12
f 150/196/11 151/197/11 125/198/11 109/199/11
f 56/104/2 120/173/2 118/169/2 98/172/2
f 90/153/11 89/200/11 122/149/11 123/148/11
f 109/201/11 125/202/11 121/203/11 114/204/11
f 127/205/3 124/155/3 122/149/3 89/200/3
f 143/163/12 102/93/12 100/164/12
f 97/175/11 96/195/11 117/170/11 118/169/11
f 114/206/11 121/207/11 116/208/11 115/209/11
f 112/210/14 110/211/14 111/212/14 113/213/14
f 115/214/11 116/215/11 108/216/11 107/217/11
f 166/218/15 165/219/15 131/220/15 130/221/15
f 1/222/2 129/223/2 166/224/2
f 167/225/3 127/205/3 131/220/3 165/219/3
f 1/226/2 7/227/2 129/228/2
f 3/229/3 128/230/3 8/231/3
f 149/54/16 144/53/16 140/232/16
f 146/233/15 145/234/15 132/235/15 133/236/15
f 161/237/15 160/238/15 139/239/15 138/240/15
f 163/241/2 12/59/2 137/242/2 161/237/2
f 162/243/3 135/194/3 139/239/3 160/238/3
f 12/244/2 17/245/2 137/246/2
f 142/185/2 141/247/2 133/236/2 147/248/2
f 149/42/3 140/249/3 132/235/3 145/234/3
f 133/236/15 132/235/15 148/250/15 147/248/15
f 141/247/2 22/35/2 146/233/2 133/236/2
f 140/249/3 106/182/3 148/250/3 132/235/3
f 22/251/2 26/252/2 146/253/2
f 149/254/3 145/255/3 27/256/3
f 146/257/17 26/258/17 27/256/17 145/255/17
f 14/31/3 162/243/3 160/238/3 136/259/3
f 143/163/16 106/162/16 140/232/16
f 30/260/15 32/261/15 168/262/15 152/263/15
f 134/174/2 163/241/2 161/237/2 138/240/2
f 129/223/15 128/264/15 165/219/15 166/218/15
f 152/265/15 168/266/15 164/267/15 157/268/15
f 3/9/3 167/225/3 165/219/3 128/264/3
f 144/53/16 143/163/16 140/232/16
f 137/242/15 136/259/15 160/238/15 161/237/15
f 157/269/15 164/270/15 159/271/15 158/272/15
f 155/273/18 153/274/18 154/275/18 156/276/18
f 158/277/15 159/278/15 151/279/15 150/280/15
f 143/281/3 144/282/3 64/283/3 102/284/3
f 2/285/2 1/286/2 126/287/2 50/288/2
f 172/289/5 169/290/5 180/291/5 179/292/5
f 179/292/5 180/291/5 176/293/5 174/294/5
f 173/295/13 175/296/13 177/297/13 178/298/13
f 178/298/13 177/297/13 170/299/13 171/300/13
f 171/301/19 172/289/19 179/292/19 178/302/19
f 178/302/9 179/292/9 174/294/9 173/303/9
f 184/304/13 181/305/13 192/306/13 191/307/13
f 191/307/13 192/306/13 188/308/13 186/309/13
f 185/310/5 187/311/5 189/312/5 190/313/5
f 190/313/5 189/312/5 182/314/5 183/315/5
f 183/316/20 184/304/20 191/307/20 190/317/20
f 190/317/17 191/307/17 186/309/17 185/318/17
f 196/319/9 193/320/9 204/321/9 203/322/9
f 203/322/9 204/321/9 200/323/9 198/324/9
f 197/325/17 199/326/17 201/327/17 202/328/17
f 202/328/17 201/327/17 194/329/17 195/330/17
f 195/331/21 196/319/21 203/322/21 202/332/21
f 202/332/13 203/322/13 198/324/13 197/333/13
f 208/334/17 205/335/17 216/336/17 215/337/17
f 215/337/17 216/336/17 212/338/17 210/339/17
f 209/340/9 211/341/9 213/342/9 214/343/9
f 214/343/9 213/342/9 206/344/9 207/345/9
f 207/346/22 208/334/22 215/337/22 214/347/22
f 214/347/5 215/337/5 210/339/5 209/348/5
f 53/81/2 2/5/2 85/84/2
f 50/349/2 126/152/2 123/154/2
f 91/151/2 50/82/2 123/154/2
f 126/350/2 1/222/2 166/224/2
f 130/221/2 126/152/2 166/224/2
f 7/4/2 1/222/2 47/7/2
f 2/351/2 50/82/2 85/84/2
f 1/352/2 2/5/2 47/7/2
