# Blender v2.80 (sub 75) OBJ File: 'chem devices.blend'
# www.blender.org
mtllib skywrath_condenser_inventory.mtl
o SKYWRATH_CONDENSER_INVENTORY_Cube.184
v 0.437500 1.437500 0.437500
v 0.562500 1.437500 0.437500
v 0.062500 0.875000 0.062500
v 0.937500 0.875000 0.062500
v 0.937500 0.875000 0.000000
v 0.937500 1.000000 0.000000
v 0.062500 1.000000 0.000000
v 0.062500 0.875000 0.000000
v 0.500000 0.000000 0.125000
v 0.500000 0.125000 0.125000
v 1.000000 0.875000 0.062500
v 0.062500 0.562500 0.062500
v 0.937500 0.562500 0.062500
v 0.062500 0.437500 0.062500
v 0.937500 0.437500 0.000000
v 0.937500 0.562500 0.000000
v 0.062500 0.562500 0.000000
v 0.062500 0.437500 0.000000
v 0.500000 0.000000 0.187500
v 0.500000 0.125000 0.187500
v 1.000000 0.562500 0.062500
v 0.187500 0.125000 0.187500
v 0.812500 0.125000 0.187500
v 0.812500 0.000000 0.125000
v 0.812500 0.125000 0.125000
v 0.187500 0.125000 0.125000
v 0.187500 0.000000 0.125000
v 0.875000 0.125000 0.187500
v 0.875000 0.000000 0.187500
v 0.062500 0.875000 0.062500
v 0.937500 0.875000 0.062500
v 0.062500 0.562500 0.062500
v 0.812500 0.875000 0.062500
v 0.812500 0.125000 0.187500
v 0.187500 0.125000 0.187500
v 0.937500 0.437500 0.062500
v 0.062500 0.437500 0.062500
v 0.500000 0.875000 0.062500
v 0.187500 0.875000 0.062500
v 0.187500 0.562500 0.062500
v 0.500000 0.437500 0.000000
v 0.500000 0.562500 0.000000
v 0.500000 0.437500 0.062500
v 0.500000 0.562500 0.062500
v 0.500000 0.562500 0.062500
v 0.500000 0.875000 0.000000
v 0.500000 1.000000 0.000000
v 0.500000 0.875000 0.062500
v 0.812500 0.562500 0.062500
v 0.562500 1.437500 0.562500
v 1.000000 0.875000 0.937500
v 1.000000 1.000000 0.937500
v 1.000000 1.000000 0.062500
v 0.875000 0.000000 0.500000
v 0.875000 0.125000 0.500000
v 0.937500 0.562500 0.937500
v 0.937500 0.437500 0.062500
v 1.000000 0.437500 0.937500
v 1.000000 0.562500 0.937500
v 1.000000 0.437500 0.062500
v 0.812500 0.000000 0.500000
v 0.812500 0.125000 0.500000
v 0.812500 0.125000 0.812500
v 0.625000 0.062500 0.375000
v 0.875000 0.000000 0.812500
v 0.875000 0.125000 0.812500
v 0.812500 0.125000 0.875000
v 0.812500 0.000000 0.875000
v 0.812500 0.000000 0.187500
v 0.937500 0.562500 0.062500
v 0.937500 0.875000 0.812500
v 0.812500 0.125000 0.812500
v 0.812500 0.125000 0.187500
v 0.937500 0.437500 0.937500
v 0.937500 0.437500 0.062500
v 0.937500 0.875000 0.500000
v 0.937500 0.875000 0.187500
v 0.937500 0.562500 0.187500
v 1.000000 0.437500 0.500000
v 1.000000 0.562500 0.500000
v 0.937500 0.437500 0.500000
v 0.937500 0.562500 0.500000
v 0.937500 0.562500 0.500000
v 1.000000 0.875000 0.500000
v 1.000000 1.000000 0.500000
v 0.937500 0.875000 0.500000
v 0.937500 0.562500 0.812500
v 0.937500 0.875000 0.937500
v 0.062500 0.875000 1.000000
v 0.062500 1.000000 1.000000
v 0.937500 1.000000 1.000000
v 0.937500 0.875000 1.000000
v 0.500000 0.000000 0.875000
v 0.500000 0.125000 0.875000
v 0.937500 0.437500 0.937500
v 0.062500 0.437500 1.000000
v 0.062500 0.562500 1.000000
v 0.937500 0.562500 1.000000
v 0.937500 0.437500 1.000000
v 0.500000 0.000000 0.812500
v 0.500000 0.125000 0.812500
v 0.625000 0.062500 0.625000
v 0.187500 0.000000 0.875000
v 0.187500 0.125000 0.875000
v 0.812500 0.000000 0.812500
v 0.187500 0.000000 0.812500
v 0.937500 0.875000 0.937500
v 0.937500 0.562500 0.937500
v 0.187500 0.875000 0.937500
v 0.187500 0.125000 0.812500
v 0.812500 0.125000 0.812500
v 0.062500 0.437500 0.937500
v 0.937500 0.437500 0.937500
v 0.500000 0.875000 0.937500
v 0.812500 0.875000 0.937500
v 0.812500 0.562500 0.937500
v 0.500000 0.437500 1.000000
v 0.500000 0.562500 1.000000
v 0.500000 0.437500 0.937500
v 0.500000 0.562500 0.937500
v 0.500000 0.562500 0.937500
v 0.500000 0.875000 1.000000
v 0.500000 1.000000 1.000000
v 0.500000 0.875000 0.937500
v 0.187500 0.562500 0.937500
v 0.437500 1.437500 0.562500
v 0.062500 0.875000 0.937500
v 0.000000 0.875000 0.062500
v 0.000000 1.000000 0.062500
v 0.000000 1.000000 0.937500
v 0.000000 0.875000 0.937500
v 0.125000 0.000000 0.500000
v 0.125000 0.125000 0.500000
v 0.062500 0.562500 0.937500
v 0.062500 0.437500 0.937500
v 0.000000 0.437500 0.062500
v 0.000000 0.562500 0.062500
v 0.000000 0.562500 0.937500
v 0.000000 0.437500 0.937500
v 0.187500 0.000000 0.500000
v 0.187500 0.125000 0.500000
v 0.187500 0.125000 0.812500
v 0.375000 0.062500 0.625000
v 0.375000 0.062500 0.375000
v 0.125000 0.000000 0.187500
v 0.125000 0.125000 0.187500
v 0.125000 0.125000 0.812500
v 0.125000 0.000000 0.812500
v 0.187500 0.000000 0.187500
v 0.062500 0.875000 0.937500
v 0.062500 0.562500 0.937500
v 0.062500 0.875000 0.187500
v 0.187500 0.125000 0.187500
v 0.187500 0.125000 0.812500
v 0.062500 0.437500 0.062500
v 0.062500 0.437500 0.937500
v 0.062500 0.875000 0.500000
v 0.062500 0.875000 0.812500
v 0.062500 0.562500 0.812500
v 0.000000 0.437500 0.500000
v 0.000000 0.562500 0.500000
v 0.062500 0.437500 0.500000
v 0.062500 0.562500 0.500000
v 0.062500 0.562500 0.500000
v 0.000000 0.875000 0.500000
v 0.000000 1.000000 0.500000
v 0.062500 0.875000 0.500000
v 0.062500 0.562500 0.187500
v 0.812500 0.125000 0.750000
v 0.750000 0.125000 0.812500
v 0.812500 0.125000 0.875000
v 0.875000 0.125000 0.812500
v 0.937500 1.000000 1.000000
v 1.000000 1.000000 0.937500
v 0.876269 1.000000 0.938769
v 0.938769 1.000000 0.876269
v 0.876269 0.437500 0.938769
v 0.937500 0.437500 1.000000
v 1.000000 0.437500 0.937500
v 0.938769 0.437500 0.876269
v 0.187500 0.125000 0.250000
v 0.250000 0.125000 0.187500
v 0.187500 0.125000 0.125000
v 0.125000 0.125000 0.187500
v 0.062500 1.000000 0.000000
v 0.000000 1.000000 0.062500
v 0.123731 1.000000 0.061231
v 0.061231 1.000000 0.123731
v 0.123731 0.437500 0.061231
v 0.062500 0.437500 0.000000
v 0.000000 0.437500 0.062500
v 0.061231 0.437500 0.123731
v 0.250000 0.125000 0.812500
v 0.187500 0.125000 0.750000
v 0.125000 0.125000 0.812500
v 0.187500 0.125000 0.875000
v 0.000000 1.000000 0.937500
v 0.062500 1.000000 1.000000
v 0.061231 1.000000 0.876269
v 0.123731 1.000000 0.938769
v 0.061231 0.437500 0.876269
v 0.000000 0.437500 0.937500
v 0.062500 0.437500 1.000000
v 0.123731 0.437500 0.938769
v 0.750000 0.125000 0.187500
v 0.812500 0.125000 0.250000
v 0.875000 0.125000 0.187500
v 0.812500 0.125000 0.125000
v 1.000000 1.000000 0.062500
v 0.937500 1.000000 0.000000
v 0.938769 1.000000 0.123731
v 0.876269 1.000000 0.061231
v 0.938769 0.437500 0.123731
v 1.000000 0.437500 0.062500
v 0.937500 0.437500 0.000000
v 0.876269 0.437500 0.061231
v 0.062500 1.000000 0.062500
v 0.937500 1.000000 0.062500
v 0.062500 1.000000 0.937500
v 0.937500 1.000000 0.937500
v 0.125000 1.000000 0.125000
v 0.875000 1.000000 0.125000
v 0.125000 1.000000 0.875000
v 0.875000 1.000000 0.875000
v 0.187500 1.000000 0.187500
v 0.812500 1.000000 0.187500
v 0.187500 1.000000 0.812500
v 0.812500 1.000000 0.812500
v 0.312500 1.500000 0.312500
v 0.687500 1.500000 0.312500
v 0.312500 1.500000 0.687500
v 0.687500 1.500000 0.687500
v 0.375000 1.500000 0.375000
v 0.625000 1.500000 0.375000
v 0.375000 1.500000 0.625000
v 0.625000 1.500000 0.625000
vt 0.437500 0.062500
vt 0.437500 0.187500
vt 0.000000 0.187500
vt 0.000000 0.062500
vt 0.437500 0.250000
vt -0.000000 0.250000
vt 0.437500 0.250000
vt 0.437500 0.187500
vt 0.500000 0.187500
vt 1.000000 0.000000
vt 0.812500 0.187500
vt 1.000000 0.312500
vt 0.062500 0.062500
vt 0.062500 0.187500
vt 0.375000 0.187500
vt 0.375000 0.062500
vt 0.437500 0.062500
vt 0.437500 0.187500
vt 0.000000 0.187500
vt 0.000000 0.062500
vt 0.437500 0.000000
vt 0.000000 0.000000
vt 0.000000 0.062500
vt 0.437500 0.250000
vt 0.000000 0.250000
vt 0.437500 0.000000
vt 0.500000 0.062500
vt 0.437500 0.062500
vt 0.062500 -0.000000
vt 0.375000 -0.000000
vt 0.062500 0.062500
vt 0.062500 0.250000
vt 0.375000 0.250000
vt 0.062500 0.187500
vt 0.062500 -0.000000
vt 0.062500 0.250000
vt 0.375000 0.750000
vt 0.375000 0.750000
vt 0.375000 0.750000
vt 0.437500 0.250000
vt 0.437500 0.187500
vt 0.500000 0.187500
vt 0.437500 0.062500
vt 0.500000 0.062500
vt 0.000000 0.250000
vt 0.000000 0.187500
vt 0.812500 0.437500
vt 1.000000 0.625000
vt 0.562500 0.562500
vt 0.562500 0.250000
vt 0.500000 0.250000
vt 0.500000 0.562500
vt 0.000000 0.000000
vt 0.000000 0.062500
vt 0.000000 0.187500
vt 0.375000 0.562500
vt 0.375000 0.250000
vt 0.062500 0.250000
vt 0.062500 0.562500
vt 0.000000 0.250000
vt 0.500000 0.562500
vt 0.500000 0.250000
vt 0.187500 0.250000
vt 0.187500 0.562500
vt 0.875000 0.875000
vt 0.750000 0.562500
vt 0.125000 0.562500
vt 0.000000 0.875000
vt 0.062500 0.562500
vt 0.062500 0.250000
vt 0.000000 0.250000
vt 0.000000 0.562500
vt 0.437500 0.062500
vt 0.437500 0.187500
vt 0.000000 0.187500
vt 0.000000 0.062500
vt 0.437500 0.250000
vt 0.437500 0.250000
vt 0.437500 0.187500
vt 0.500000 0.187500
vt 1.000000 0.625000
vt 0.812500 0.437500
vt 1.000000 0.312500
vt 0.062500 0.062500
vt 0.062500 0.187500
vt 0.375000 0.187500
vt 0.375000 0.062500
vt 0.437500 0.062500
vt 0.437500 0.187500
vt 0.000000 0.187500
vt 0.000000 0.062500
vt 0.437500 0.000000
vt 0.000000 0.000000
vt 0.000000 0.062500
vt 0.437500 0.250000
vt 0.437500 0.000000
vt 0.500000 0.062500
vt 0.437500 0.062500
vt 0.375000 -0.000000
vt 0.062500 0.062500
vt 0.062500 0.250000
vt 0.375000 0.250000
vt 0.062500 0.187500
vt 0.062500 -0.000000
vt 0.375000 0.750000
vt 0.375000 0.750000
vt 0.375000 0.750000
vt 0.437500 0.250000
vt 0.437500 0.187500
vt 0.500000 0.187500
vt 0.437500 0.062500
vt 0.500000 0.062500
vt 0.000000 0.250000
vt 0.000000 0.187500
vt 0.562500 0.562500
vt 0.562500 0.250000
vt 0.500000 0.250000
vt 0.500000 0.562500
vt 0.000000 0.062500
vt 0.000000 0.187500
vt 0.375000 0.562500
vt 0.375000 0.250000
vt 0.062500 0.250000
vt 0.062500 0.562500
vt 0.000000 0.250000
vt 0.500000 0.562500
vt 0.500000 0.250000
vt 0.187500 0.250000
vt 0.187500 0.562500
vt 0.875000 0.875000
vt 0.750000 0.562500
vt 0.125000 0.562500
vt 0.000000 0.875000
vt 0.062500 0.562500
vt 0.062500 0.250000
vt 0.000000 0.250000
vt 0.000000 0.562500
vt 0.437500 0.062500
vt 0.437500 0.187500
vt 0.000000 0.187500
vt 0.000000 0.062500
vt 0.437500 0.250000
vt 0.437500 0.250000
vt 0.437500 0.187500
vt 0.500000 0.187500
vt 1.000000 0.000000
vt 0.812500 0.187500
vt 1.000000 0.312500
vt 0.062500 0.062500
vt 0.062500 0.187500
vt 0.375000 0.187500
vt 0.375000 0.062500
vt 0.437500 0.062500
vt 0.437500 0.187500
vt 0.000000 0.187500
vt 0.000000 0.062500
vt 0.437500 0.000000
vt 0.000000 0.000000
vt 0.000000 0.062500
vt 0.437500 0.250000
vt 0.437500 0.000000
vt 0.500000 0.062500
vt 0.437500 0.062500
vt 0.375000 -0.000000
vt 0.062500 0.062500
vt 0.062500 0.250000
vt 0.375000 0.250000
vt 0.062500 0.187500
vt 0.062500 -0.000000
vt 0.375000 0.750000
vt 0.375000 0.750000
vt 0.375000 0.750000
vt 0.437500 0.250000
vt 0.437500 0.187500
vt 0.500000 0.187500
vt 0.437500 0.062500
vt 0.500000 0.062500
vt 0.000000 0.250000
vt 0.000000 0.187500
vt 0.562500 0.562500
vt 0.562500 0.250000
vt 0.500000 0.250000
vt 0.500000 0.562500
vt 0.000000 0.062500
vt 0.000000 0.187500
vt 0.375000 0.562500
vt 0.375000 0.250000
vt 0.062500 0.250000
vt 0.062500 0.562500
vt 0.000000 0.250000
vt 0.500000 0.562500
vt 0.500000 0.250000
vt 0.187500 0.250000
vt 0.187500 0.562500
vt 0.875000 0.875000
vt 0.750000 0.562500
vt 0.125000 0.562500
vt 0.000000 0.875000
vt 0.062500 0.562500
vt 0.062500 0.250000
vt 0.000000 0.250000
vt 0.000000 0.562500
vt 0.437500 0.062500
vt 0.437500 0.187500
vt 0.000000 0.187500
vt 0.000000 0.062500
vt 0.437500 0.250000
vt 0.437500 0.250000
vt 0.437500 0.187500
vt 0.500000 0.187500
vt 1.000000 0.312500
vt 0.062500 0.062500
vt 0.062500 0.187500
vt 0.375000 0.187500
vt 0.375000 0.062500
vt 0.437500 0.062500
vt 0.437500 0.187500
vt 0.000000 0.187500
vt 0.000000 0.062500
vt 0.437500 0.000000
vt 0.000000 0.062500
vt 0.437500 0.250000
vt 0.437500 0.000000
vt 0.500000 0.062500
vt 0.437500 0.062500
vt 0.375000 -0.000000
vt 0.062500 0.062500
vt 0.375000 0.250000
vt 0.062500 0.187500
vt 0.375000 0.750000
vt 0.375000 0.750000
vt 0.375000 0.750000
vt 0.437500 0.250000
vt 0.437500 0.187500
vt 0.500000 0.187500
vt 0.437500 0.062500
vt 0.500000 0.062500
vt 0.000000 0.187500
vt 0.562500 0.562500
vt 0.562500 0.250000
vt 0.500000 0.250000
vt 0.500000 0.562500
vt 0.000000 0.062500
vt 0.000000 0.187500
vt 0.375000 0.562500
vt 0.375000 0.250000
vt 0.062500 0.250000
vt 0.062500 0.562500
vt 0.500000 0.562500
vt 0.500000 0.250000
vt 0.187500 0.250000
vt 0.187500 0.562500
vt 0.875000 0.875000
vt 0.750000 0.562500
vt 0.125000 0.562500
vt 0.000000 0.875000
vt 0.062500 0.562500
vt 0.062500 0.250000
vt 0.000000 0.250000
vt 0.000000 0.562500
vt 0.562500 0.562500
vt 0.562500 0.312500
vt 0.812500 0.312500
vt 0.812500 0.562500
vt -0.000000 0.937500
vt 0.000000 0.875000
vt 0.312500 0.875000
vt 0.312500 0.937500
vt 0.875000 0.875000
vt 0.875000 0.937500
vt 0.875000 0.937500
vt 0.875000 0.875000
vt 0.312500 0.875000
vt 0.312500 0.937500
vt -0.000000 0.875000
vt 0.000000 0.937500
vt -0.000000 1.000000
vt 0.312500 1.000000
vt 0.875000 1.000000
vt -0.000000 0.937500
vt 0.000000 0.875000
vt 0.312500 0.875000
vt 0.312500 0.937500
vt 0.875000 0.875000
vt 0.875000 0.937500
vt 0.875000 0.937500
vt 0.875000 0.875000
vt 0.312500 0.875000
vt 0.312500 0.937500
vt -0.000000 0.875000
vt 0.000000 0.937500
vt -0.000000 1.000000
vt 0.312500 1.000000
vt 0.875000 1.000000
vt -0.000000 0.937500
vt 0.000000 0.875000
vt 0.312500 0.875000
vt 0.312500 0.937500
vt 0.875000 0.875000
vt 0.875000 0.937500
vt 0.875000 0.937500
vt 0.875000 0.875000
vt 0.312500 0.875000
vt 0.312500 0.937500
vt -0.000000 0.875000
vt 0.000000 0.937500
vt -0.000000 1.000000
vt 0.312500 1.000000
vt 0.875000 1.000000
vt -0.000000 0.937500
vt 0.000000 0.875000
vt 0.312500 0.875000
vt 0.312500 0.937500
vt 0.875000 0.875000
vt 0.875000 0.937500
vt 0.875000 0.937500
vt 0.875000 0.875000
vt 0.312500 0.875000
vt 0.312500 0.937500
vt -0.000000 0.875000
vt 0.000000 0.937500
vt -0.000000 1.000000
vt 0.312500 1.000000
vt 0.875000 1.000000
vt 0.000000 0.062500
vt 0.000000 -0.000000
vt 0.437500 -0.000000
vt 0.062500 0.187500
vt -0.000000 0.187500
vt 0.062500 0.125000
vt 0.000000 0.062500
vt 0.000000 -0.000000
vt 0.437500 -0.000000
vt 0.062500 0.187500
vt -0.000000 0.187500
vt 0.062500 0.125000
vt 0.000000 0.062500
vt 0.000000 -0.000000
vt 0.437500 -0.000000
vt 0.062500 0.187500
vt -0.000000 0.187500
vt 0.062500 0.125000
vt 0.000000 0.062500
vt 0.000000 -0.000000
vt 0.437500 -0.000000
vt 0.062500 0.187500
vt -0.000000 0.187500
vt 0.062500 0.125000
vt 0.500000 0.812500
vt 0.500000 0.937500
vt 0.375000 0.937500
vt 0.375000 0.812500
vt 0.875000 -0.000000
vt 0.875000 0.062500
vt 0.875000 0.062500
vt 0.875000 -0.000000
vt 0.875000 0.062500
vt 0.875000 -0.000000
vt 0.875000 -0.000000
vt 0.875000 0.062500
vt 0.812500 0.125000
vt 0.062500 0.125000
vt 0.812500 0.125000
vt 0.062500 0.125000
vt 0.812500 0.125000
vt 0.062500 0.125000
vt 0.812500 0.125000
vt 0.062500 0.125000
vt 0.750000 0.187500
vt 0.125000 0.187500
vt 0.750000 0.187500
vt 0.125000 0.187500
vt 0.750000 0.187500
vt 0.125000 0.187500
vt 0.750000 0.187500
vt 0.125000 0.187500
vt 0.625000 0.687500
vt 0.250000 0.687500
vt 0.562500 0.750000
vt 0.312500 0.750000
vt 0.250000 0.687500
vt 0.625000 0.687500
vt 0.562500 0.750000
vt 0.312500 0.750000
vt 0.250000 0.687500
vt 0.625000 0.687500
vt 0.562500 0.750000
vt 0.312500 0.750000
vt 0.250000 0.687500
vt 0.625000 0.687500
vt 0.562500 0.750000
vt 0.312500 0.750000
vt 0.500000 0.812500
vt 0.375000 0.812500
vt 0.500000 0.812500
vt 0.375000 0.812500
vt 0.500000 0.812500
vt 0.375000 0.812500
vn 0.0000 0.0000 -1.0000
vn 0.0000 -1.0000 0.0000
vn 0.0000 -0.9487 0.3162
vn 0.0000 1.0000 0.0000
vn 0.7071 0.0000 -0.7071
vn 0.0000 -0.3714 -0.9285
vn 1.0000 0.0000 0.0000
vn -0.3162 -0.9487 0.0000
vn 0.7071 0.0000 0.7071
vn 0.9285 -0.3714 -0.0000
vn 0.0000 0.0000 1.0000
vn 0.0000 -0.9487 -0.3162
vn -0.7071 0.0000 0.7071
vn 0.0000 -0.3714 0.9285
vn -1.0000 0.0000 0.0000
vn 0.3162 -0.9487 -0.0000
vn -0.7071 0.0000 -0.7071
vn -0.9285 -0.3714 -0.0000
vn 0.6155 -0.4924 0.6155
vn -0.6155 -0.4924 -0.6155
vn -0.6155 -0.4924 0.6155
vn 0.6155 -0.4924 -0.6155
vn -0.9701 0.2425 -0.0000
vn 0.0000 0.7071 0.7071
vn -0.0000 0.7071 -0.7071
vn -0.7071 0.7071 0.0000
vn 0.7071 0.7071 0.0000
vn 0.9701 0.2425 0.0000
vn -0.0000 0.2425 0.9701
vn 0.0000 0.2425 -0.9701
usemtl SKYWRATH_ALTAR
s off
f 47/1/1 46/2/1 8/3/1 7/4/1
f 48/5/2 3/6/2 8/3/2 46/2/2
f 4/7/2 5/8/2 11/9/2
f 69/10/3 64/11/3 19/12/3
f 25/13/1 24/14/1 9/15/1 10/16/1
f 42/17/1 41/18/1 18/19/1 17/20/1
f 44/21/4 13/22/4 16/23/4 42/17/4
f 43/24/2 14/25/2 18/19/2 41/18/2
f 13/26/4 21/27/4 16/28/4
f 22/29/4 20/30/4 10/16/4 26/31/4
f 69/32/2 19/33/2 9/15/2 24/14/2
f 10/16/1 9/15/1 27/34/1 26/31/1
f 20/30/4 23/35/4 25/13/4 10/16/4
f 19/33/2 149/36/2 27/34/2 9/15/2
f 23/37/4 28/38/4 25/39/4
f 69/40/2 24/41/2 29/42/2
f 25/43/5 28/44/5 29/42/5 24/41/5
f 57/45/2 43/24/2 41/18/2 15/46/2
f 144/47/3 149/48/3 19/12/3
f 31/49/1 70/50/1 49/51/1 33/52/1
f 12/53/4 44/21/4 42/17/4 17/20/4
f 6/54/1 5/55/1 46/2/1 47/1/1
f 33/56/1 49/57/1 45/58/1 38/59/1
f 4/60/2 48/5/2 46/2/2 5/55/2
f 64/11/3 144/47/3 19/12/3
f 16/23/1 15/46/1 41/18/1 42/17/1
f 38/61/1 45/62/1 40/63/1 39/64/1
f 36/65/6 34/66/6 35/67/6 37/68/6
f 39/69/1 40/70/1 32/71/1 30/72/1
f 85/73/7 84/74/7 11/75/7 53/76/7
f 86/77/2 4/60/2 11/75/2 84/74/2
f 88/78/2 51/79/2 92/80/2
f 105/81/8 102/82/8 61/83/8
f 66/84/7 65/85/7 54/86/7 55/87/7
f 80/88/7 79/89/7 60/90/7 21/91/7
f 82/92/4 56/93/4 59/94/4 80/88/4
f 81/95/2 57/45/2 60/90/2 79/89/2
f 56/96/4 98/97/4 59/98/4
f 23/35/4 62/99/4 55/87/4 28/100/4
f 105/101/2 61/102/2 54/86/2 65/85/2
f 55/87/7 54/86/7 29/103/7 28/100/7
f 62/99/4 63/104/4 66/84/4 55/87/4
f 61/102/2 69/32/2 29/103/2 54/86/2
f 63/105/4 67/106/4 66/107/4
f 105/108/2 65/109/2 68/110/2
f 66/111/9 67/112/9 68/110/9 65/109/9
f 95/113/2 81/95/2 79/89/2 58/114/2
f 64/11/8 69/10/8 61/83/8
f 107/115/7 108/116/7 87/117/7 71/118/7
f 13/22/4 82/92/4 80/88/4 21/91/4
f 52/119/7 51/120/7 84/74/7 85/73/7
f 71/121/7 87/122/7 83/123/7 76/124/7
f 88/125/2 86/77/2 84/74/2 51/120/2
f 102/82/8 64/11/8 61/83/8
f 59/94/7 58/114/7 79/89/7 80/88/7
f 76/126/7 83/127/7 78/128/7 77/129/7
f 74/130/10 72/131/10 73/132/10 75/133/10
f 77/134/7 78/135/7 70/136/7 31/137/7
f 123/138/11 122/139/11 92/140/11 91/141/11
f 124/142/2 88/125/2 92/140/2 122/139/2
f 127/143/2 89/144/2 131/145/2
f 106/146/12 143/147/12 100/148/12
f 104/149/11 103/150/11 93/151/11 94/152/11
f 118/153/11 117/154/11 99/155/11 98/156/11
f 120/157/4 134/158/4 97/159/4 118/153/4
f 119/160/2 95/113/2 99/155/2 117/154/2
f 134/161/4 138/162/4 97/163/4
f 63/104/4 101/164/4 94/152/4 67/165/4
f 106/166/2 100/167/2 93/151/2 103/150/2
f 94/152/11 93/151/11 68/168/11 67/165/11
f 101/164/4 142/169/4 104/149/4 94/152/4
f 100/167/2 105/101/2 68/168/2 93/151/2
f 142/170/4 147/171/4 104/172/4
f 106/173/2 103/174/2 148/175/2
f 104/176/13 147/177/13 148/175/13 103/174/13
f 135/178/2 119/160/2 117/154/2 96/179/2
f 102/82/12 105/81/12 100/148/12
f 150/180/11 151/181/11 125/182/11 109/183/11
f 56/93/4 120/157/4 118/153/4 98/156/4
f 90/184/11 89/185/11 122/139/11 123/138/11
f 109/186/11 125/187/11 121/188/11 114/189/11
f 127/190/2 124/142/2 122/139/2 89/185/2
f 143/147/12 102/82/12 100/148/12
f 97/159/11 96/179/11 117/154/11 118/153/11
f 114/191/11 121/192/11 116/193/11 115/194/11
f 112/195/14 110/196/14 111/197/14 113/198/14
f 115/199/11 116/200/11 108/201/11 107/202/11
f 166/203/15 165/204/15 131/205/15 130/206/15
f 167/207/2 127/190/2 131/205/2 165/204/2
f 3/208/2 128/209/2 8/210/2
f 149/48/16 144/47/16 140/211/16
f 146/212/15 145/213/15 132/214/15 133/215/15
f 161/216/15 160/217/15 139/218/15 138/219/15
f 163/220/4 12/53/4 137/221/4 161/216/4
f 162/222/2 135/178/2 139/218/2 160/217/2
f 12/223/4 17/224/4 137/225/4
f 142/169/4 141/226/4 133/215/4 147/227/4
f 149/36/2 140/228/2 132/214/2 145/213/2
f 133/215/15 132/214/15 148/229/15 147/227/15
f 141/226/4 22/29/4 146/212/4 133/215/4
f 140/228/2 106/166/2 148/229/2 132/214/2
f 22/230/4 26/231/4 146/232/4
f 149/233/2 145/234/2 27/235/2
f 146/236/17 26/237/17 27/235/17 145/234/17
f 14/25/2 162/222/2 160/217/2 136/238/2
f 143/147/16 106/146/16 140/211/16
f 30/239/15 32/240/15 168/241/15 152/242/15
f 134/158/4 163/220/4 161/216/4 138/219/4
f 129/243/15 128/244/15 165/204/15 166/203/15
f 152/245/15 168/246/15 164/247/15 157/248/15
f 3/6/2 167/207/2 165/204/2 128/244/2
f 144/47/16 143/147/16 140/211/16
f 137/221/15 136/238/15 160/217/15 161/216/15
f 157/249/15 164/250/15 159/251/15 158/252/15
f 155/253/18 153/254/18 154/255/18 156/256/18
f 158/257/15 159/258/15 151/259/15 150/260/15
f 143/261/2 144/262/2 64/263/2 102/264/2
f 172/265/5 169/266/5 180/267/5 179/268/5
f 179/268/5 180/267/5 176/269/5 174/270/5
f 173/271/13 175/272/13 177/273/13 178/274/13
f 178/274/13 177/273/13 170/275/13 171/276/13
f 171/277/19 172/265/19 179/268/19 178/278/19
f 178/278/9 179/268/9 174/270/9 173/279/9
f 184/280/13 181/281/13 192/282/13 191/283/13
f 191/283/13 192/282/13 188/284/13 186/285/13
f 185/286/5 187/287/5 189/288/5 190/289/5
f 190/289/5 189/288/5 182/290/5 183/291/5
f 183/292/20 184/280/20 191/283/20 190/293/20
f 190/293/17 191/283/17 186/285/17 185/294/17
f 196/295/9 193/296/9 204/297/9 203/298/9
f 203/298/9 204/297/9 200/299/9 198/300/9
f 197/301/17 199/302/17 201/303/17 202/304/17
f 202/304/17 201/303/17 194/305/17 195/306/17
f 195/307/21 196/295/21 203/298/21 202/308/21
f 202/308/13 203/298/13 198/300/13 197/309/13
f 208/310/17 205/311/17 216/312/17 215/313/17
f 215/313/17 216/312/17 212/314/17 210/315/17
f 209/316/9 211/317/9 213/318/9 214/319/9
f 214/319/9 213/318/9 206/320/9 207/321/9
f 207/322/22 208/310/22 215/313/22 214/323/22
f 214/323/5 215/313/5 210/315/5 209/324/5
usemtl SKYWRATH_CONDENSER
f 218/325/4 6/326/4 47/327/4
f 218/328/4 53/329/4 6/330/4
f 220/331/4 52/332/4 85/333/4
f 220/334/4 91/335/4 52/336/4
f 219/337/4 90/338/4 123/339/4
f 219/340/4 130/341/4 90/342/4
f 217/343/4 129/344/4 166/345/4
f 217/346/4 7/347/4 129/348/4
f 2/349/4 1/350/4 126/351/4 50/352/4
f 53/353/4 218/354/4 85/333/4
f 220/355/4 219/337/4 123/339/4
f 91/356/4 220/355/4 123/339/4
f 219/357/4 217/343/4 166/345/4
f 130/358/4 219/357/4 166/345/4
f 7/359/4 217/360/4 47/327/4
f 218/354/4 220/331/4 85/333/4
f 217/360/4 218/325/4 47/327/4
f 221/361/4 222/362/4 218/325/4 217/360/4
f 224/363/4 223/364/4 219/337/4 220/355/4
f 222/365/4 224/366/4 220/331/4 218/354/4
f 223/367/4 221/368/4 217/343/4 219/357/4
f 225/369/4 226/370/4 222/362/4 221/361/4
f 228/371/4 227/372/4 223/364/4 224/363/4
f 226/373/4 228/374/4 224/366/4 222/365/4
f 227/375/4 225/376/4 221/368/4 223/367/4
f 227/375/23 231/377/23 229/378/23 225/376/23
f 233/379/4 234/380/4 230/381/4 229/382/4
f 236/383/4 235/384/4 231/385/4 232/386/4
f 234/387/4 236/388/4 232/389/4 230/390/4
f 235/391/4 233/392/4 229/378/4 231/377/4
f 1/393/24 2/394/24 234/380/24 233/379/24
f 50/395/25 126/396/25 235/384/25 236/383/25
f 2/349/26 50/352/26 236/388/26 234/387/26
f 126/397/27 1/398/27 233/392/27 235/391/27
f 226/373/28 230/390/28 232/389/28 228/374/28
f 227/372/29 228/371/29 232/386/29 231/385/29
f 226/370/30 225/369/30 229/382/30 230/381/30
