# Blender v2.80 (sub 75) OBJ File: 'wizard_lab_blocks.blend'
# www.blender.org
mtllib standing_retort_inventory.mtl
o STANDING_RETORT_BULB_Cube.019
v -0.031250 -0.125000 0.031250
v -0.031250 0.000000 0.031250
v -0.031250 -0.125000 -0.031250
v -0.031250 0.000000 -0.031250
v 0.031250 -0.125000 0.031250
v 0.031250 0.000000 0.031250
v 0.031250 -0.125000 -0.031250
v 0.031250 0.000000 -0.031250
v -0.062500 0.125000 0.062500
v -0.062500 0.125000 -0.062500
v 0.062500 0.125000 -0.062500
v 0.062500 0.125000 0.062500
v 0.000000 -0.187500 0.000000
v -0.093750 0.125000 0.093750
v -0.093750 0.125000 -0.093750
v 0.093750 0.125000 -0.093750
v 0.093750 0.125000 0.093750
v -0.093750 0.625000 0.093750
v -0.093750 0.625000 -0.093750
v 0.093750 0.625000 -0.093750
v 0.093750 0.625000 0.093750
v -0.156250 0.187500 0.093750
v -0.156250 0.187500 -0.093750
v -0.156250 0.562500 0.093750
v -0.156250 0.562500 -0.093750
v 0.093750 0.187500 0.156250
v -0.093750 0.187500 0.156250
v 0.093750 0.562500 0.156250
v -0.093750 0.562500 0.156250
v 0.156250 0.187500 -0.093750
v 0.156250 0.187500 0.093750
v 0.156250 0.562500 -0.093750
v 0.156250 0.562500 0.093750
v -0.093750 0.187500 -0.156250
v 0.093750 0.187500 -0.156250
v -0.093750 0.562500 -0.156250
v 0.093750 0.562500 -0.156250
v -0.015625 -0.156250 0.015625
v -0.015625 -0.156250 -0.015625
v 0.015625 -0.156250 0.015625
v 0.015625 -0.156250 -0.015625
v -0.015625 -0.343750 0.015625
v -0.015625 -0.343750 -0.015625
v 0.015625 -0.343750 0.015625
v 0.015625 -0.343750 -0.015625
v 0.000000 -0.312500 0.000000
v -0.093750 0.125000 0.093750
v -0.093750 0.125000 -0.093750
v 0.093750 0.125000 -0.093750
v 0.093750 0.125000 0.093750
v -0.093750 0.625000 0.093750
v -0.093750 0.625000 -0.093750
v 0.093750 0.625000 -0.093750
v 0.093750 0.625000 0.093750
v -0.156250 0.187500 0.093750
v -0.156250 0.187500 -0.093750
v -0.156250 0.562500 0.093750
v -0.156250 0.562500 -0.093750
v 0.093750 0.187500 0.156250
v -0.093750 0.187500 0.156250
v 0.093750 0.562500 0.156250
v -0.093750 0.562500 0.156250
v 0.156250 0.187500 -0.093750
v 0.156250 0.187500 0.093750
v 0.156250 0.562500 -0.093750
v 0.156250 0.562500 0.093750
v -0.093750 0.187500 -0.156250
v 0.093750 0.187500 -0.156250
v -0.093750 0.562500 -0.156250
v 0.093750 0.562500 -0.156250
vt 0.250000 0.937500
vt 0.375000 0.937500
vt 0.375000 0.875000
vt 0.250000 0.875000
vt 0.125000 0.875000
vt 0.250000 0.875000
vt 0.250000 0.937500
vt 0.125000 0.937500
vt 0.250000 0.937500
vt 0.375000 0.937500
vt 0.375000 0.875000
vt 0.250000 0.875000
vt 0.125000 0.875000
vt 0.250000 0.875000
vt 0.250000 0.937500
vt 0.125000 0.937500
vt 0.187500 0.937500
vt 0.187500 0.875000
vt 0.125000 0.875000
vt 0.312500 0.937500
vt 0.312500 0.875000
vt 0.375000 0.875000
vt 0.375000 0.937500
vt 0.437500 0.875000
vt 0.437500 0.937500
vt 0.500000 0.937500
vt 0.500000 0.875000
vt 0.437500 0.875000
vt 0.437500 0.937500
vt 0.500000 0.937500
vt 0.500000 0.875000
vt 0.312500 0.937500
vt 0.312500 0.875000
vt 0.375000 0.875000
vt 0.375000 0.937500
vt 0.187500 0.937500
vt 0.187500 0.875000
vt 0.062500 0.875000
vt 0.062500 0.937500
vt 0.000000 0.937500
vt 0.062500 0.875000
vt 0.062500 0.937500
vt 0.187500 0.000000
vt 0.375000 0.000000
vt 0.375000 0.062500
vt 0.187500 0.062500
vt 0.062500 0.250000
vt 0.062500 0.562500
vt -0.000000 0.562500
vt 0.000000 0.250000
vt 0.062500 -0.000000
vt 0.062500 0.062500
vt 0.000000 0.062500
vt 0.062500 0.250000
vt 0.062500 0.562500
vt 0.000000 0.562500
vt 0.000000 0.250000
vt 0.187500 0.000000
vt 0.375000 0.000000
vt 0.375000 0.062500
vt 0.187500 0.062500
vt -0.000000 0.062500
vt 0.062500 -0.000000
vt 0.062500 0.062500
vt 0.437500 0.750000
vt 0.250000 0.750000
vt 0.250000 0.687500
vt 0.437500 0.687500
vt 0.437500 0.750000
vt 0.250000 0.750000
vt 0.250000 0.687500
vt 0.437500 0.687500
vt 0.187500 0.000000
vt 0.375000 0.000000
vt 0.375000 0.062500
vt 0.187500 0.062500
vt 0.062500 0.562500
vt 0.000000 0.562500
vt 0.000000 0.250000
vt 0.062500 0.250000
vt 0.000000 0.687500
vt 0.062500 0.687500
vt 0.062500 0.750000
vt 0.000000 0.062500
vt 0.062500 -0.000000
vt 0.062500 0.062500
vt 0.437500 0.750000
vt 0.250000 0.750000
vt 0.250000 0.687500
vt 0.437500 0.687500
vt 0.437500 0.750000
vt 0.250000 0.750000
vt 0.250000 0.687500
vt 0.437500 0.687500
vt 0.187500 0.000000
vt 0.375000 0.000000
vt 0.375000 0.062500
vt 0.187500 0.062500
vt -0.000000 0.687500
vt 0.062500 0.687500
vt 0.062500 0.750000
vt 0.062500 0.750000
vt 0.000000 0.687500
vt 0.062500 0.687500
vt 0.062500 0.750000
vt -0.000000 0.687500
vt 0.062500 0.687500
vt 0.000000 0.250000
vt 0.062500 0.250000
vt 0.062500 0.562500
vt 0.000000 0.562500
vt 0.062500 -0.000000
vt 0.062500 0.062500
vt -0.000000 0.062500
vt 0.625000 0.812500
vt 0.625000 0.750000
vt 0.562500 0.750000
vt 0.562500 0.812500
vt 0.500000 0.750000
vt 0.500000 0.812500
vt 0.562500 0.812500
vt 0.562500 0.750000
vt 0.500000 0.750000
vt 0.500000 0.812500
vt 0.437500 0.750000
vt 0.500000 0.750000
vt 0.437500 0.750000
vt 0.500000 0.750000
vt 0.437500 0.750000
vt 0.312500 0.875000
vt 0.312500 0.937500
vt 0.500000 0.937500
vt 0.500000 0.875000
vt 0.437500 0.937500
vt 0.437500 0.875000
vt 0.062500 0.875000
vt 0.062500 0.937500
vt 0.500000 0.875000
vt 0.437500 0.937500
vt 0.500000 0.937500
vt 0.437500 0.937500
vt 0.437500 0.875000
vt 0.062500 0.875000
vt 0.062500 0.937500
vt 0.312500 0.875000
vt 0.312500 0.937500
vt 0.500000 0.937500
vt 0.500000 0.875000
vt 0.437500 0.937500
vt 0.500000 0.937500
vt 0.187500 0.937500
vt 0.187500 0.875000
vt 0.000000 0.875000
vt 0.000000 0.937500
vt 0.187500 0.937500
vt 0.187500 0.875000
vt 0.000000 0.875000
vt 0.000000 0.937500
vt 0.312500 0.875000
vt 0.312500 0.937500
vt 0.500000 0.937500
vt 0.500000 0.875000
vt 0.062500 0.937500
vt 0.437500 0.937500
vt 0.437500 0.875000
vt 0.062500 0.875000
vt 0.000000 0.875000
vt 0.062500 0.937500
vt 0.062500 0.875000
vt 0.437500 0.937500
vt 0.500000 0.937500
vt 0.187500 0.937500
vt 0.187500 0.875000
vt 0.000000 0.875000
vt 0.000000 0.937500
vt 0.187500 0.937500
vt 0.187500 0.875000
vt 0.000000 0.875000
vt 0.000000 0.937500
vt 0.312500 0.875000
vt 0.312500 0.937500
vt 0.500000 0.937500
vt 0.000000 0.875000
vt 0.062500 0.937500
vt 0.062500 0.875000
vt 0.062500 0.937500
vt 0.062500 0.875000
vt 0.000000 0.875000
vt 0.062500 0.937500
vt 0.062500 0.875000
vt 0.000000 0.875000
vt 0.437500 0.875000
vt 0.062500 0.875000
vt 0.062500 0.937500
vt 0.437500 0.937500
vt 0.437500 0.937500
vt 0.500000 0.937500
vn -1.0000 0.0000 0.0000
vn 0.0000 0.0000 -1.0000
vn 1.0000 0.0000 0.0000
vn 0.0000 0.0000 1.0000
vn -0.8944 -0.4472 0.0000
vn 0.0000 -0.2425 -0.9701
vn 0.9701 -0.2425 0.0000
vn -0.9701 -0.2425 0.0000
vn 0.0000 -0.2425 0.9701
vn 0.8944 -0.4472 0.0000
vn 0.0000 -0.4472 0.8944
vn 0.0000 -0.4472 -0.8944
vn 0.7071 -0.7071 0.0000
vn -0.7071 0.0000 -0.7071
vn -0.5774 -0.5774 -0.5774
vn -0.7071 0.0000 0.7071
vn -0.7071 -0.7071 0.0000
vn -0.5774 -0.5774 0.5774
vn -0.7071 0.7071 0.0000
vn 0.0000 0.7071 0.7071
vn 0.0000 -0.7071 0.7071
vn 0.7071 0.0000 -0.7071
vn 0.5774 0.5774 -0.5774
vn 0.5774 -0.5774 -0.5774
vn 0.7071 0.7071 0.0000
vn 0.0000 0.7071 -0.7071
vn 0.0000 -0.7071 -0.7071
vn -0.5774 0.5774 0.5774
vn -0.5774 0.5774 -0.5774
vn 0.5774 0.5774 0.5774
vn 0.7071 0.0000 0.7071
vn 0.5774 -0.5774 0.5774
usemtl MATERIA_JAR
s off
f 1/1/1 2/2/1 4/3/1 3/4/1
f 3/5/2 4/6/2 8/7/2 7/8/2
f 7/9/3 8/10/3 6/11/3 5/12/3
f 5/13/4 6/14/4 2/15/4 1/16/4
f 1/17/5 3/18/5 13/19/5
f 8/20/6 4/21/6 10/22/6 11/23/6
f 6/24/7 8/25/7 11/26/7 12/27/7
f 4/28/8 2/29/8 9/30/8 10/31/8
f 2/32/9 6/33/9 12/34/9 9/35/9
f 7/36/10 5/37/10 13/19/10
f 5/38/11 1/39/11 13/40/11
f 3/41/12 7/42/12 13/40/12
f 17/43/13 16/44/13 30/45/13 31/46/13
f 23/47/14 25/48/14 36/49/14 34/50/14
f 15/51/15 23/52/15 34/53/15
f 27/54/16 29/55/16 24/56/16 22/57/16
f 15/58/17 14/59/17 22/60/17 23/61/17
f 22/62/18 14/63/18 27/64/18
f 18/65/19 19/66/19 25/67/19 24/68/19
f 21/69/20 18/70/20 29/71/20 28/72/20
f 14/73/21 17/74/21 26/75/21 27/76/21
f 37/77/22 32/78/22 30/79/22 35/80/22
f 32/81/23 37/82/23 20/83/23
f 30/84/24 16/85/24 35/86/24
f 20/87/25 21/88/25 33/89/25 32/90/25
f 19/91/26 20/92/26 37/93/26 36/94/26
f 16/95/27 15/96/27 34/97/27 35/98/27
f 24/99/28 29/100/28 18/101/28
f 19/102/29 36/103/29 25/104/29
f 21/105/30 28/106/30 33/107/30
f 26/108/31 31/109/31 33/110/31 28/111/31
f 17/112/32 31/113/32 26/114/32
f 41/115/2 45/116/2 43/117/2 39/118/2
f 39/118/1 43/117/1 42/119/1 38/120/1
f 40/121/3 44/122/3 45/116/3 41/115/3
f 38/120/4 42/119/4 44/122/4 40/121/4
f 43/123/10 46/124/10 42/125/10
f 42/125/12 46/124/12 44/126/12
f 44/127/5 46/124/5 45/128/5
f 45/128/11 46/124/11 43/129/11
f 50/130/19 64/131/19 63/132/19 49/133/19
f 56/134/31 67/135/31 69/136/31 58/137/31
f 48/138/30 67/139/30 56/140/30
f 60/141/22 55/142/22 57/143/22 62/144/22
f 48/145/25 56/146/25 55/147/25 47/148/25
f 55/149/23 60/150/23 47/148/23
f 51/151/13 57/152/13 58/153/13 52/154/13
f 54/155/27 61/156/27 62/157/27 51/158/27
f 47/159/26 60/160/26 59/161/26 50/162/26
f 70/163/16 68/164/16 63/165/16 65/166/16
f 65/167/18 53/168/18 70/169/18
f 63/170/28 68/171/28 49/133/28
f 53/172/17 65/173/17 66/174/17 54/175/17
f 52/176/21 69/177/21 70/178/21 53/179/21
f 49/180/20 68/181/20 67/182/20 48/138/20
f 57/183/24 51/184/24 62/185/24
f 52/186/32 58/187/32 69/188/32
f 54/189/15 66/190/15 61/191/15
f 59/192/14 61/193/14 66/194/14 64/195/14
f 50/162/29 59/196/29 64/197/29
