# Blender v2.80 (sub 75) OBJ File: 'wizard_lab_blocks.blend'
# www.blender.org
mtllib standing_retort.mtl
o STANDING_RETORT_BULB_Cube.019
v 0.468750 -0.125000 0.531250
v 0.468750 0.000000 0.531250
v 0.468750 -0.125000 0.468750
v 0.468750 0.000000 0.468750
v 0.531250 -0.125000 0.531250
v 0.531250 0.000000 0.531250
v 0.531250 -0.125000 0.468750
v 0.531250 0.000000 0.468750
v 0.437500 0.125000 0.562500
v 0.437500 0.125000 0.437500
v 0.562500 0.125000 0.437500
v 0.562500 0.125000 0.562500
v 0.500000 -0.187500 0.500000
v 0.406250 0.125000 0.593750
v 0.406250 0.125000 0.406250
v 0.593750 0.125000 0.406250
v 0.593750 0.125000 0.593750
v 0.406250 0.625000 0.593750
v 0.406250 0.625000 0.406250
v 0.593750 0.625000 0.406250
v 0.593750 0.625000 0.593750
v 0.343750 0.187500 0.593750
v 0.343750 0.187500 0.406250
v 0.343750 0.562500 0.593750
v 0.343750 0.562500 0.406250
v 0.593750 0.187500 0.656250
v 0.406250 0.187500 0.656250
v 0.593750 0.562500 0.656250
v 0.406250 0.562500 0.656250
v 0.656250 0.187500 0.406250
v 0.656250 0.187500 0.593750
v 0.656250 0.562500 0.406250
v 0.656250 0.562500 0.593750
v 0.406250 0.187500 0.343750
v 0.593750 0.187500 0.343750
v 0.406250 0.562500 0.343750
v 0.593750 0.562500 0.343750
v 0.484375 -0.156250 0.515625
v 0.484375 -0.156250 0.484375
v 0.515625 -0.156250 0.515625
v 0.515625 -0.156250 0.484375
v 0.484375 -0.343750 0.515625
v 0.484375 -0.343750 0.484375
v 0.515625 -0.343750 0.515625
v 0.515625 -0.343750 0.484375
v 0.500000 -0.312500 0.500000
v 0.406250 0.125000 0.593750
v 0.406250 0.125000 0.406250
v 0.593750 0.125000 0.406250
v 0.593750 0.125000 0.593750
v 0.406250 0.625000 0.593750
v 0.406250 0.625000 0.406250
v 0.593750 0.625000 0.406250
v 0.593750 0.625000 0.593750
v 0.343750 0.187500 0.593750
v 0.343750 0.187500 0.406250
v 0.343750 0.562500 0.593750
v 0.343750 0.562500 0.406250
v 0.593750 0.187500 0.656250
v 0.406250 0.187500 0.656250
v 0.593750 0.562500 0.656250
v 0.406250 0.562500 0.656250
v 0.656250 0.187500 0.406250
v 0.656250 0.187500 0.593750
v 0.656250 0.562500 0.406250
v 0.656250 0.562500 0.593750
v 0.406250 0.187500 0.343750
v 0.593750 0.187500 0.343750
v 0.406250 0.562500 0.343750
v 0.593750 0.562500 0.343750
vt 0.250000 0.937500
vt 0.375000 0.937500
vt 0.375000 0.875000
vt 0.250000 0.875000
vt 0.125000 0.875000
vt 0.250000 0.875000
vt 0.250000 0.937500
vt 0.125000 0.937500
vt 0.250000 0.937500
vt 0.375000 0.937500
vt 0.375000 0.875000
vt 0.250000 0.875000
vt 0.125000 0.875000
vt 0.250000 0.875000
vt 0.250000 0.937500
vt 0.125000 0.937500
vt 0.187500 0.937500
vt 0.187500 0.875000
vt 0.125000 0.875000
vt 0.312500 0.937500
vt 0.312500 0.875000
vt 0.375000 0.875000
vt 0.375000 0.937500
vt 0.437500 0.875000
vt 0.437500 0.937500
vt 0.500000 0.937500
vt 0.500000 0.875000
vt 0.437500 0.875000
vt 0.437500 0.937500
vt 0.500000 0.937500
vt 0.500000 0.875000
vt 0.312500 0.937500
vt 0.312500 0.875000
vt 0.375000 0.875000
vt 0.375000 0.937500
vt 0.187500 0.937500
vt 0.187500 0.875000
vt 0.062500 0.875000
vt 0.062500 0.937500
vt 0.000000 0.937500
vt 0.062500 0.875000
vt 0.062500 0.937500
vt 0.187500 0.000000
vt 0.375000 0.000000
vt 0.375000 0.062500
vt 0.187500 0.062500
vt 0.062500 0.250000
vt 0.062500 0.562500
vt -0.000000 0.562500
vt 0.000000 0.250000
vt 0.062500 -0.000000
vt 0.062500 0.062500
vt 0.000000 0.062500
vt 0.062500 0.250000
vt 0.062500 0.562500
vt 0.000000 0.562500
vt 0.000000 0.250000
vt 0.187500 0.000000
vt 0.375000 0.000000
vt 0.375000 0.062500
vt 0.187500 0.062500
vt -0.000000 0.062500
vt 0.062500 -0.000000
vt 0.062500 0.062500
vt 0.437500 0.750000
vt 0.250000 0.750000
vt 0.250000 0.687500
vt 0.437500 0.687500
vt 0.437500 0.750000
vt 0.250000 0.750000
vt 0.250000 0.687500
vt 0.437500 0.687500
vt 0.187500 0.000000
vt 0.375000 0.000000
vt 0.375000 0.062500
vt 0.187500 0.062500
vt 0.062500 0.562500
vt 0.000000 0.562500
vt 0.000000 0.250000
vt 0.062500 0.250000
vt 0.000000 0.687500
vt 0.062500 0.687500
vt 0.062500 0.750000
vt 0.000000 0.062500
vt 0.062500 -0.000000
vt 0.062500 0.062500
vt 0.437500 0.750000
vt 0.250000 0.750000
vt 0.250000 0.687500
vt 0.437500 0.687500
vt 0.437500 0.750000
vt 0.250000 0.750000
vt 0.250000 0.687500
vt 0.437500 0.687500
vt 0.187500 0.000000
vt 0.375000 0.000000
vt 0.375000 0.062500
vt 0.187500 0.062500
vt -0.000000 0.687500
vt 0.062500 0.687500
vt 0.062500 0.750000
vt 0.062500 0.750000
vt 0.000000 0.687500
vt 0.062500 0.687500
vt 0.062500 0.750000
vt -0.000000 0.687500
vt 0.062500 0.687500
vt 0.000000 0.250000
vt 0.062500 0.250000
vt 0.062500 0.562500
vt 0.000000 0.562500
vt 0.062500 -0.000000
vt 0.062500 0.062500
vt -0.000000 0.062500
vt 0.625000 0.812500
vt 0.625000 0.750000
vt 0.562500 0.750000
vt 0.562500 0.812500
vt 0.500000 0.750000
vt 0.500000 0.812500
vt 0.562500 0.812500
vt 0.562500 0.750000
vt 0.500000 0.750000
vt 0.500000 0.812500
vt 0.437500 0.750000
vt 0.500000 0.750000
vt 0.437500 0.750000
vt 0.500000 0.750000
vt 0.437500 0.750000
vt 0.312500 0.875000
vt 0.312500 0.937500
vt 0.500000 0.937500
vt 0.500000 0.875000
vt 0.437500 0.937500
vt 0.437500 0.875000
vt 0.062500 0.875000
vt 0.062500 0.937500
vt 0.500000 0.875000
vt 0.437500 0.937500
vt 0.500000 0.937500
vt 0.437500 0.937500
vt 0.437500 0.875000
vt 0.062500 0.875000
vt 0.062500 0.937500
vt 0.312500 0.875000
vt 0.312500 0.937500
vt 0.500000 0.937500
vt 0.500000 0.875000
vt 0.437500 0.937500
vt 0.500000 0.937500
vt 0.187500 0.937500
vt 0.187500 0.875000
vt 0.000000 0.875000
vt 0.000000 0.937500
vt 0.187500 0.937500
vt 0.187500 0.875000
vt 0.000000 0.875000
vt 0.000000 0.937500
vt 0.312500 0.875000
vt 0.312500 0.937500
vt 0.500000 0.937500
vt 0.500000 0.875000
vt 0.062500 0.937500
vt 0.437500 0.937500
vt 0.437500 0.875000
vt 0.062500 0.875000
vt 0.000000 0.875000
vt 0.062500 0.937500
vt 0.062500 0.875000
vt 0.437500 0.937500
vt 0.500000 0.937500
vt 0.187500 0.937500
vt 0.187500 0.875000
vt 0.000000 0.875000
vt 0.000000 0.937500
vt 0.187500 0.937500
vt 0.187500 0.875000
vt 0.000000 0.875000
vt 0.000000 0.937500
vt 0.312500 0.875000
vt 0.312500 0.937500
vt 0.500000 0.937500
vt 0.000000 0.875000
vt 0.062500 0.937500
vt 0.062500 0.875000
vt 0.062500 0.937500
vt 0.062500 0.875000
vt 0.000000 0.875000
vt 0.062500 0.937500
vt 0.062500 0.875000
vt 0.000000 0.875000
vt 0.437500 0.875000
vt 0.062500 0.875000
vt 0.062500 0.937500
vt 0.437500 0.937500
vt 0.437500 0.937500
vt 0.500000 0.937500
vn -1.0000 0.0000 0.0000
vn 0.0000 0.0000 -1.0000
vn 1.0000 0.0000 0.0000
vn 0.0000 0.0000 1.0000
vn -0.8944 -0.4472 0.0000
vn 0.0000 -0.2425 -0.9701
vn 0.9701 -0.2425 0.0000
vn -0.9701 -0.2425 0.0000
vn 0.0000 -0.2425 0.9701
vn 0.8944 -0.4472 0.0000
vn 0.0000 -0.4472 0.8944
vn 0.0000 -0.4472 -0.8944
vn 0.7071 -0.7071 0.0000
vn -0.7071 0.0000 -0.7071
vn -0.5774 -0.5774 -0.5774
vn -0.7071 0.0000 0.7071
vn -0.7071 -0.7071 0.0000
vn -0.5774 -0.5774 0.5774
vn -0.7071 0.7071 0.0000
vn 0.0000 0.7071 0.7071
vn 0.0000 -0.7071 0.7071
vn 0.7071 0.0000 -0.7071
vn 0.5774 0.5774 -0.5774
vn 0.5774 -0.5774 -0.5774
vn 0.7071 0.7071 0.0000
vn 0.0000 0.7071 -0.7071
vn 0.0000 -0.7071 -0.7071
vn -0.5774 0.5774 0.5774
vn -0.5774 0.5774 -0.5774
vn 0.5774 0.5774 0.5774
vn 0.7071 0.0000 0.7071
vn 0.5774 -0.5774 0.5774
usemtl MATERIA_JAR
s off
f 1/1/1 2/2/1 4/3/1 3/4/1
f 3/5/2 4/6/2 8/7/2 7/8/2
f 7/9/3 8/10/3 6/11/3 5/12/3
f 5/13/4 6/14/4 2/15/4 1/16/4
f 1/17/5 3/18/5 13/19/5
f 8/20/6 4/21/6 10/22/6 11/23/6
f 6/24/7 8/25/7 11/26/7 12/27/7
f 4/28/8 2/29/8 9/30/8 10/31/8
f 2/32/9 6/33/9 12/34/9 9/35/9
f 7/36/10 5/37/10 13/19/10
f 5/38/11 1/39/11 13/40/11
f 3/41/12 7/42/12 13/40/12
f 17/43/13 16/44/13 30/45/13 31/46/13
f 23/47/14 25/48/14 36/49/14 34/50/14
f 15/51/15 23/52/15 34/53/15
f 27/54/16 29/55/16 24/56/16 22/57/16
f 15/58/17 14/59/17 22/60/17 23/61/17
f 22/62/18 14/63/18 27/64/18
f 18/65/19 19/66/19 25/67/19 24/68/19
f 21/69/20 18/70/20 29/71/20 28/72/20
f 14/73/21 17/74/21 26/75/21 27/76/21
f 37/77/22 32/78/22 30/79/22 35/80/22
f 32/81/23 37/82/23 20/83/23
f 30/84/24 16/85/24 35/86/24
f 20/87/25 21/88/25 33/89/25 32/90/25
f 19/91/26 20/92/26 37/93/26 36/94/26
f 16/95/27 15/96/27 34/97/27 35/98/27
f 24/99/28 29/100/28 18/101/28
f 19/102/29 36/103/29 25/104/29
f 21/105/30 28/106/30 33/107/30
f 26/108/31 31/109/31 33/110/31 28/111/31
f 17/112/32 31/113/32 26/114/32
f 41/115/2 45/116/2 43/117/2 39/118/2
f 39/118/1 43/117/1 42/119/1 38/120/1
f 40/121/3 44/122/3 45/116/3 41/115/3
f 38/120/4 42/119/4 44/122/4 40/121/4
f 43/123/10 46/124/10 42/125/10
f 42/125/12 46/124/12 44/126/12
f 44/127/5 46/124/5 45/128/5
f 45/128/11 46/124/11 43/129/11
f 50/130/19 64/131/19 63/132/19 49/133/19
f 56/134/31 67/135/31 69/136/31 58/137/31
f 48/138/30 67/139/30 56/140/30
f 60/141/22 55/142/22 57/143/22 62/144/22
f 48/145/25 56/146/25 55/147/25 47/148/25
f 55/149/23 60/150/23 47/148/23
f 51/151/13 57/152/13 58/153/13 52/154/13
f 54/155/27 61/156/27 62/157/27 51/158/27
f 47/159/26 60/160/26 59/161/26 50/162/26
f 70/163/16 68/164/16 63/165/16 65/166/16
f 65/167/18 53/168/18 70/169/18
f 63/170/28 68/171/28 49/133/28
f 53/172/17 65/173/17 66/174/17 54/175/17
f 52/176/21 69/177/21 70/178/21 53/179/21
f 49/180/20 68/181/20 67/182/20 48/138/20
f 57/183/24 51/184/24 62/185/24
f 52/186/32 58/187/32 69/188/32
f 54/189/15 66/190/15 61/191/15
f 59/192/14 61/193/14 66/194/14 64/195/14
f 50/162/29 59/196/29 64/197/29
o STANDING_RETORT_RING_STAND_Cube.025
v 0.562500 0.062500 0.625000
v 0.562500 0.125000 0.625000
v 0.562500 0.062500 0.562500
v 0.562500 0.125000 0.562500
v 0.625000 0.125000 0.562500
v 0.625000 0.062500 0.562500
v 0.562500 0.062500 0.437500
v 0.625000 0.125000 0.437500
v 0.625000 0.062500 0.437500
v 0.562500 0.125000 0.437500
v 0.562500 0.125000 0.375000
v 0.562500 0.062500 0.375000
v 0.437500 0.062500 0.437500
v 0.437500 0.125000 0.375000
v 0.437500 0.062500 0.375000
v 0.437500 0.125000 0.437500
v 0.375000 0.125000 0.437500
v 0.375000 0.062500 0.437500
v 0.437500 0.125000 0.562500
v 0.375000 0.062500 0.562500
v 0.375000 0.125000 0.562500
v 0.437500 0.062500 0.562500
v 0.437500 0.125000 0.625000
v 0.437500 0.062500 0.625000
v 0.876896 -0.812500 0.468750
v 0.876896 -0.812500 0.531250
v 0.814396 -0.812500 0.531250
v 0.814396 -0.812500 0.468750
v 0.626896 -0.937500 0.531250
v 0.626896 -0.937500 0.468750
v 0.876896 -0.937500 0.468750
v 0.876896 -0.937500 0.531250
v 0.626896 -0.875000 0.531250
v 0.626896 -0.875000 0.468750
v 0.876896 -1.000000 0.593750
v 0.626896 -1.000000 0.593750
v 0.626896 -1.000000 0.406250
v 0.876896 -1.000000 0.406250
v 0.939396 -1.000000 0.531250
v 0.939396 -1.000000 0.468750
v 0.876896 -0.875000 0.468750
v 0.876896 -0.875000 0.531250
v 0.814396 -0.500000 0.468750
v 0.814396 -0.500000 0.531250
v 0.876896 -0.500000 0.531250
v 0.876896 -0.500000 0.468750
v 0.751896 0.062500 0.468750
v 0.751896 0.062500 0.531250
v 0.751896 -0.312500 0.468750
v 0.751896 -0.312500 0.531250
v 0.689396 0.062500 0.468750
v 0.689396 0.062500 0.531250
v 0.689396 -0.312500 0.468750
v 0.689396 -0.312500 0.531250
v 0.689396 0.125000 0.468750
v 0.689396 0.125000 0.531250
v 0.564396 0.078125 0.484375
v 0.564396 0.078125 0.515625
v 0.564396 0.109375 0.484375
v 0.564396 0.109375 0.515625
v 0.876896 -0.875000 0.468750
v 0.876896 -0.875000 0.531250
v 0.814396 -0.875000 0.531250
v 0.814396 -0.875000 0.468750
v 0.814396 -0.562500 0.468750
v 0.814396 -0.562500 0.531250
v 0.876896 -0.562500 0.468750
v 0.876896 -0.562500 0.531250
v 0.751896 -0.250000 0.468750
v 0.751896 0.000000 0.468750
v 0.751896 -0.250000 0.531250
v 0.751896 0.000000 0.531250
v 0.689396 -0.250000 0.468750
v 0.689396 0.000000 0.468750
v 0.689396 -0.250000 0.531250
v 0.689396 0.000000 0.531250
v 0.531250 -0.812500 0.876896
v 0.468750 -0.812500 0.876896
v 0.468750 -0.812500 0.814396
v 0.531250 -0.812500 0.814396
v 0.468750 -0.937500 0.626896
v 0.531250 -0.937500 0.626896
v 0.531250 -0.937500 0.876896
v 0.468750 -0.937500 0.876896
v 0.468750 -0.875000 0.626896
v 0.531250 -0.875000 0.626896
v 0.406250 -1.000000 0.876896
v 0.406250 -1.000000 0.626896
v 0.593750 -1.000000 0.626896
v 0.593750 -1.000000 0.876896
v 0.468750 -1.000000 0.939396
v 0.531250 -1.000000 0.939396
v 0.531250 -0.875000 0.876896
v 0.468750 -0.875000 0.876896
v 0.531250 -0.500000 0.814396
v 0.468750 -0.500000 0.814396
v 0.468750 -0.500000 0.876896
v 0.531250 -0.500000 0.876896
v 0.531250 0.062500 0.751896
v 0.468750 0.062500 0.751896
v 0.531250 -0.312500 0.751896
v 0.468750 -0.312500 0.751896
v 0.531250 0.062500 0.689396
v 0.468750 0.062500 0.689396
v 0.531250 -0.312500 0.689396
v 0.468750 -0.312500 0.689396
v 0.531250 0.125000 0.689396
v 0.468750 0.125000 0.689396
v 0.515625 0.078125 0.564396
v 0.484375 0.078125 0.564396
v 0.515625 0.109375 0.564396
v 0.484375 0.109375 0.564396
v 0.531250 -0.875000 0.876896
v 0.468750 -0.875000 0.876896
v 0.468750 -0.875000 0.814396
v 0.531250 -0.875000 0.814396
v 0.531250 -0.562500 0.814396
v 0.468750 -0.562500 0.814396
v 0.531250 -0.562500 0.876896
v 0.468750 -0.562500 0.876896
v 0.531250 -0.250000 0.751896
v 0.531250 0.000000 0.751896
v 0.468750 -0.250000 0.751896
v 0.468750 0.000000 0.751896
v 0.531250 -0.250000 0.689396
v 0.531250 0.000000 0.689396
v 0.468750 -0.250000 0.689396
v 0.468750 0.000000 0.689396
v 0.123104 -0.812500 0.531250
v 0.123104 -0.812500 0.468750
v 0.185604 -0.812500 0.468750
v 0.185604 -0.812500 0.531250
v 0.373104 -0.937500 0.468750
v 0.373104 -0.937500 0.531250
v 0.123104 -0.937500 0.531250
v 0.123104 -0.937500 0.468750
v 0.373104 -0.875000 0.468750
v 0.373104 -0.875000 0.531250
v 0.123104 -1.000000 0.406250
v 0.373104 -1.000000 0.406250
v 0.373104 -1.000000 0.593750
v 0.123104 -1.000000 0.593750
v 0.060604 -1.000000 0.468750
v 0.060604 -1.000000 0.531250
v 0.123104 -0.875000 0.531250
v 0.123104 -0.875000 0.468750
v 0.185604 -0.500000 0.531250
v 0.185604 -0.500000 0.468750
v 0.123104 -0.500000 0.468750
v 0.123104 -0.500000 0.531250
v 0.248104 0.062500 0.531250
v 0.248104 0.062500 0.468750
v 0.248104 -0.312500 0.531250
v 0.248104 -0.312500 0.468750
v 0.310604 0.062500 0.531250
v 0.310604 0.062500 0.468750
v 0.310604 -0.312500 0.531250
v 0.310604 -0.312500 0.468750
v 0.310604 0.125000 0.531250
v 0.310604 0.125000 0.468750
v 0.435604 0.078125 0.515625
v 0.435604 0.078125 0.484375
v 0.435604 0.109375 0.515625
v 0.435604 0.109375 0.484375
v 0.123104 -0.875000 0.531250
v 0.123104 -0.875000 0.468750
v 0.185604 -0.875000 0.468750
v 0.185604 -0.875000 0.531250
v 0.185604 -0.562500 0.531250
v 0.185604 -0.562500 0.468750
v 0.123104 -0.562500 0.531250
v 0.123104 -0.562500 0.468750
v 0.248104 -0.250000 0.531250
v 0.248104 0.000000 0.531250
v 0.248104 -0.250000 0.468750
v 0.248104 0.000000 0.468750
v 0.310604 -0.250000 0.531250
v 0.310604 0.000000 0.531250
v 0.310604 -0.250000 0.468750
v 0.310604 0.000000 0.468750
vt 0.562500 0.500000
vt 0.625000 0.500000
vt 0.562500 0.562500
vt 1.000000 0.437500
vt 1.000000 0.500000
vt 0.937500 0.500000
vt 0.937500 0.437500
vt 0.437500 0.437500
vt 0.437500 0.500000
vt 0.312500 0.500000
vt 0.312500 0.437500
vt 0.375000 0.437500
vt 0.312500 0.437500
vt 0.312500 0.500000
vt 0.437500 0.375000
vt 0.437500 0.437500
vt 0.312500 0.437500
vt 0.312500 0.375000
vt 0.937500 0.500000
vt 0.937500 0.437500
vt 0.812500 0.437500
vt 0.812500 0.500000
vt 0.437500 0.562500
vt 0.437500 0.500000
vt 0.562500 0.500000
vt 0.625000 0.500000
vt 0.562500 0.562500
vt 1.000000 0.437500
vt 1.000000 0.500000
vt 0.937500 0.500000
vt 0.937500 0.437500
vt 0.437500 0.437500
vt 0.437500 0.500000
vt 0.312500 0.500000
vt 0.312500 0.437500
vt 0.375000 0.437500
vt 0.312500 0.437500
vt 0.312500 0.500000
vt 0.437500 0.375000
vt 0.437500 0.437500
vt 0.312500 0.437500
vt 0.312500 0.375000
vt 0.937500 0.500000
vt 0.937500 0.437500
vt 0.812500 0.437500
vt 0.812500 0.500000
vt 0.437500 0.562500
vt 0.437500 0.500000
vt 0.562500 0.500000
vt 0.625000 0.500000
vt 0.562500 0.562500
vt 1.000000 0.437500
vt 1.000000 0.500000
vt 0.937500 0.500000
vt 0.937500 0.437500
vt 0.437500 0.437500
vt 0.437500 0.500000
vt 0.312500 0.500000
vt 0.312500 0.437500
vt 0.375000 0.437500
vt 0.312500 0.437500
vt 0.312500 0.500000
vt 0.437500 0.375000
vt 0.437500 0.437500
vt 0.312500 0.437500
vt 0.312500 0.375000
vt 0.937500 0.500000
vt 0.937500 0.437500
vt 0.812500 0.437500
vt 0.812500 0.500000
vt 0.437500 0.562500
vt 0.437500 0.500000
vt 0.562500 0.500000
vt 0.625000 0.500000
vt 0.562500 0.562500
vt 1.000000 0.437500
vt 1.000000 0.500000
vt 0.937500 0.500000
vt 0.937500 0.437500
vt 0.437500 0.437500
vt 0.437500 0.500000
vt 0.312500 0.500000
vt 0.312500 0.437500
vt 0.375000 0.437500
vt 0.312500 0.437500
vt 0.312500 0.500000
vt 0.437500 0.375000
vt 0.437500 0.437500
vt 0.312500 0.437500
vt 0.312500 0.375000
vt 0.937500 0.500000
vt 0.937500 0.437500
vt 0.812500 0.437500
vt 0.812500 0.500000
vt 0.437500 0.562500
vt 0.437500 0.500000
vt 0.625000 0.375000
vt 0.625000 0.312500
vt 0.687500 0.312500
vt 0.687500 0.375000
vt 0.625000 0.312500
vt 0.625000 0.375000
vt 0.687500 0.312500
vt 0.812500 0.312500
vt 0.750000 0.312500
vt 0.750000 0.375000
vt 0.812500 0.375000
vt 0.812500 0.375000
vt 0.750000 0.375000
vt 0.750000 0.312500
vt 0.812500 0.312500
vt 0.562500 0.500000
vt 0.562500 0.437500
vt 0.750000 0.437500
vt 0.750000 0.500000
vt 0.562500 0.562500
vt 0.562500 0.500000
vt 0.750000 0.500000
vt 0.750000 0.562500
vt 0.562500 0.437500
vt 0.562500 0.500000
vt 0.750000 0.500000
vt 0.750000 0.437500
vt 0.562500 0.437500
vt 0.562500 0.375000
vt 0.750000 0.375000
vt 0.750000 0.437500
vt 0.812500 0.375000
vt 0.812500 0.312500
vt 0.875000 0.312500
vt 0.875000 0.375000
vt 0.500000 0.312500
vt 0.500000 0.375000
vt 0.437500 0.375000
vt 0.437500 0.312500
vt 0.875000 0.312500
vt 0.812500 0.312500
vt 0.812500 0.375000
vt 0.875000 0.375000
vt 0.687500 0.312500
vt 0.625000 0.375000
vt 0.625000 0.312500
vt 1.000000 0.312500
vt 1.000000 0.375000
vt 0.937500 0.375000
vt 0.937500 0.312500
vt 0.875000 0.375000
vt 0.812500 0.375000
vt 0.812500 0.312500
vt 0.875000 0.312500
vt 0.750000 0.312500
vt 0.750000 0.375000
vt 0.687500 0.375000
vt 0.687500 0.312500
vt 0.750000 0.375000
vt 0.750000 0.312500
vt 0.812500 0.312500
vt 0.812500 0.375000
vt 0.562500 0.500000
vt 0.562500 0.562500
vt 0.312500 0.562500
vt 0.312500 0.500000
vt 0.812500 0.375000
vt 0.812500 0.312500
vt 0.875000 0.312500
vt 0.875000 0.375000
vt 0.312500 0.437500
vt 0.562500 0.437500
vt 0.562500 0.500000
vt 0.312500 0.500000
vt 0.875000 0.375000
vt 0.875000 0.312500
vt 0.812500 0.312500
vt 0.812500 0.375000
vt 0.562500 0.500000
vt 0.562500 0.437500
vt 0.312500 0.437500
vt 0.312500 0.500000
vt 0.875000 0.375000
vt 0.875000 0.312500
vt 0.937500 0.312500
vt 0.937500 0.375000
vt 0.312500 0.437500
vt 0.562500 0.437500
vt 0.562500 0.375000
vt 0.312500 0.375000
vt 0.812500 0.375000
vt 0.812500 0.312500
vt 0.875000 0.312500
vt 0.875000 0.375000
vt 1.000000 0.437500
vt 0.750000 0.437500
vt 1.000000 0.375000
vt 0.812500 0.375000
vt 0.750000 0.375000
vt 0.750000 0.312500
vt 0.812500 0.312500
vt 1.000000 0.437500
vt 1.000000 0.500000
vt 0.750000 0.500000
vt 0.750000 0.437500
vt 0.812500 0.312500
vt 0.750000 0.312500
vt 0.750000 0.375000
vt 0.812500 0.375000
vt 0.750000 0.437500
vt 0.750000 0.500000
vt 1.000000 0.500000
vt 1.000000 0.437500
vt 0.562500 0.375000
vt 0.562500 0.312500
vt 0.625000 0.312500
vt 0.625000 0.375000
vt 1.000000 0.562500
vt 0.750000 0.562500
vt 0.750000 0.500000
vt 1.000000 0.500000
vt 0.625000 0.375000
vt 0.625000 0.312500
vt 0.687500 0.312500
vt 0.687500 0.375000
vt 0.625000 0.312500
vt 0.625000 0.375000
vt 0.687500 0.312500
vt 0.812500 0.312500
vt 0.750000 0.312500
vt 0.750000 0.375000
vt 0.812500 0.375000
vt 0.812500 0.375000
vt 0.750000 0.375000
vt 0.750000 0.312500
vt 0.812500 0.312500
vt 0.562500 0.500000
vt 0.562500 0.437500
vt 0.750000 0.437500
vt 0.750000 0.500000
vt 0.562500 0.562500
vt 0.562500 0.500000
vt 0.750000 0.500000
vt 0.750000 0.562500
vt 0.562500 0.437500
vt 0.562500 0.500000
vt 0.750000 0.500000
vt 0.750000 0.437500
vt 0.562500 0.437500
vt 0.562500 0.375000
vt 0.750000 0.375000
vt 0.750000 0.437500
vt 0.812500 0.375000
vt 0.812500 0.312500
vt 0.875000 0.312500
vt 0.875000 0.375000
vt 0.500000 0.312500
vt 0.500000 0.375000
vt 0.437500 0.375000
vt 0.437500 0.312500
vt 0.875000 0.312500
vt 0.812500 0.312500
vt 0.812500 0.375000
vt 0.875000 0.375000
vt 0.687500 0.312500
vt 0.625000 0.375000
vt 0.625000 0.312500
vt 1.000000 0.312500
vt 1.000000 0.375000
vt 0.937500 0.375000
vt 0.937500 0.312500
vt 0.875000 0.375000
vt 0.812500 0.375000
vt 0.812500 0.312500
vt 0.875000 0.312500
vt 0.750000 0.312500
vt 0.750000 0.375000
vt 0.687500 0.375000
vt 0.687500 0.312500
vt 0.750000 0.375000
vt 0.750000 0.312500
vt 0.812500 0.312500
vt 0.812500 0.375000
vt 0.562500 0.500000
vt 0.562500 0.562500
vt 0.312500 0.562500
vt 0.312500 0.500000
vt 0.812500 0.375000
vt 0.812500 0.312500
vt 0.875000 0.312500
vt 0.875000 0.375000
vt 0.312500 0.437500
vt 0.562500 0.437500
vt 0.562500 0.500000
vt 0.312500 0.500000
vt 0.875000 0.375000
vt 0.875000 0.312500
vt 0.812500 0.312500
vt 0.812500 0.375000
vt 0.562500 0.500000
vt 0.562500 0.437500
vt 0.312500 0.437500
vt 0.312500 0.500000
vt 0.875000 0.375000
vt 0.875000 0.312500
vt 0.937500 0.312500
vt 0.937500 0.375000
vt 0.312500 0.437500
vt 0.562500 0.437500
vt 0.562500 0.375000
vt 0.312500 0.375000
vt 0.812500 0.375000
vt 0.812500 0.312500
vt 0.875000 0.312500
vt 0.875000 0.375000
vt 1.000000 0.437500
vt 0.750000 0.437500
vt 1.000000 0.375000
vt 0.812500 0.375000
vt 0.750000 0.375000
vt 0.750000 0.312500
vt 0.812500 0.312500
vt 1.000000 0.437500
vt 1.000000 0.500000
vt 0.750000 0.500000
vt 0.750000 0.437500
vt 0.812500 0.312500
vt 0.750000 0.312500
vt 0.750000 0.375000
vt 0.812500 0.375000
vt 0.750000 0.437500
vt 0.750000 0.500000
vt 1.000000 0.500000
vt 1.000000 0.437500
vt 0.562500 0.375000
vt 0.562500 0.312500
vt 0.625000 0.312500
vt 0.625000 0.375000
vt 1.000000 0.562500
vt 0.750000 0.562500
vt 0.750000 0.500000
vt 1.000000 0.500000
vt 0.625000 0.375000
vt 0.625000 0.312500
vt 0.687500 0.312500
vt 0.687500 0.375000
vt 0.625000 0.312500
vt 0.625000 0.375000
vt 0.687500 0.312500
vt 0.812500 0.312500
vt 0.750000 0.312500
vt 0.750000 0.375000
vt 0.812500 0.375000
vt 0.812500 0.375000
vt 0.750000 0.375000
vt 0.750000 0.312500
vt 0.812500 0.312500
vt 0.562500 0.500000
vt 0.562500 0.437500
vt 0.750000 0.437500
vt 0.750000 0.500000
vt 0.562500 0.562500
vt 0.562500 0.500000
vt 0.750000 0.500000
vt 0.750000 0.562500
vt 0.562500 0.437500
vt 0.562500 0.500000
vt 0.750000 0.500000
vt 0.750000 0.437500
vt 0.562500 0.437500
vt 0.562500 0.375000
vt 0.750000 0.375000
vt 0.750000 0.437500
vt 0.812500 0.375000
vt 0.812500 0.312500
vt 0.875000 0.312500
vt 0.875000 0.375000
vt 0.500000 0.312500
vt 0.500000 0.375000
vt 0.437500 0.375000
vt 0.437500 0.312500
vt 0.875000 0.312500
vt 0.812500 0.312500
vt 0.812500 0.375000
vt 0.875000 0.375000
vt 0.687500 0.312500
vt 0.625000 0.375000
vt 0.625000 0.312500
vt 1.000000 0.312500
vt 1.000000 0.375000
vt 0.937500 0.375000
vt 0.937500 0.312500
vt 0.875000 0.375000
vt 0.812500 0.375000
vt 0.812500 0.312500
vt 0.875000 0.312500
vt 0.750000 0.312500
vt 0.750000 0.375000
vt 0.687500 0.375000
vt 0.687500 0.312500
vt 0.750000 0.375000
vt 0.750000 0.312500
vt 0.812500 0.312500
vt 0.812500 0.375000
vt 0.562500 0.500000
vt 0.562500 0.562500
vt 0.312500 0.562500
vt 0.312500 0.500000
vt 0.812500 0.375000
vt 0.812500 0.312500
vt 0.875000 0.312500
vt 0.875000 0.375000
vt 0.312500 0.437500
vt 0.562500 0.437500
vt 0.562500 0.500000
vt 0.312500 0.500000
vt 0.875000 0.375000
vt 0.875000 0.312500
vt 0.812500 0.312500
vt 0.812500 0.375000
vt 0.562500 0.500000
vt 0.562500 0.437500
vt 0.312500 0.437500
vt 0.312500 0.500000
vt 0.875000 0.375000
vt 0.875000 0.312500
vt 0.937500 0.312500
vt 0.937500 0.375000
vt 0.312500 0.437500
vt 0.562500 0.437500
vt 0.562500 0.375000
vt 0.312500 0.375000
vt 0.812500 0.375000
vt 0.812500 0.312500
vt 0.875000 0.312500
vt 0.875000 0.375000
vt 1.000000 0.437500
vt 0.750000 0.437500
vt 1.000000 0.375000
vt 0.812500 0.375000
vt 0.750000 0.375000
vt 0.750000 0.312500
vt 0.812500 0.312500
vt 1.000000 0.437500
vt 1.000000 0.500000
vt 0.750000 0.500000
vt 0.750000 0.437500
vt 0.812500 0.312500
vt 0.750000 0.312500
vt 0.750000 0.375000
vt 0.812500 0.375000
vt 0.750000 0.437500
vt 0.750000 0.500000
vt 1.000000 0.500000
vt 1.000000 0.437500
vt 0.562500 0.375000
vt 0.562500 0.312500
vt 0.625000 0.312500
vt 0.625000 0.375000
vt 1.000000 0.562500
vt 0.750000 0.562500
vt 0.750000 0.500000
vt 1.000000 0.500000
vt 0.250000 0.062500
vt 0.250000 0.125000
vt -0.000000 0.125000
vt -0.000000 0.062500
vt 0.375000 0.000000
vt 0.437500 -0.000000
vt 0.375000 0.062500
vt 0.187500 0.062500
vt 0.187500 -0.000000
vt 0.437500 -0.000000
vt 0.437500 0.062500
vt 0.437500 0.125000
vt 0.187500 0.125000
vt -0.000000 0.000000
vt 0.250000 0.000000
vt 0.500000 0.062500
vt 0.500000 0.125000
vt 0.250000 0.062500
vt 0.500000 0.062500
vt 0.500000 -0.000000
vt 0.437500 0.000000
vt 0.437500 0.062500
vt 0.375000 -0.000000
vt 0.437500 0.187500
vt 0.437500 0.125000
vt 0.500000 0.125000
vt 0.500000 0.187500
vt 0.312500 0.187500
vt 0.312500 0.125000
vt 0.375000 0.125000
vt 0.375000 0.187500
vt 0.375000 0.187500
vt 0.375000 0.125000
vt 0.437500 0.125000
vt 0.437500 0.187500
vt 0.250000 0.187500
vt 0.250000 0.125000
vt 0.250000 0.062500
vt 0.250000 0.125000
vt -0.000000 0.125000
vt -0.000000 0.062500
vt 0.375000 0.000000
vt 0.437500 -0.000000
vt 0.375000 0.062500
vt 0.187500 0.062500
vt 0.187500 -0.000000
vt 0.437500 -0.000000
vt 0.437500 0.062500
vt 0.437500 0.125000
vt 0.187500 0.125000
vt -0.000000 0.000000
vt 0.250000 0.000000
vt 0.500000 0.062500
vt 0.500000 0.125000
vt 0.250000 0.062500
vt 0.500000 0.062500
vt 0.500000 -0.000000
vt 0.437500 0.000000
vt 0.437500 0.062500
vt 0.375000 -0.000000
vt 0.437500 0.187500
vt 0.437500 0.125000
vt 0.500000 0.125000
vt 0.500000 0.187500
vt 0.312500 0.187500
vt 0.312500 0.125000
vt 0.375000 0.125000
vt 0.375000 0.187500
vt 0.375000 0.187500
vt 0.375000 0.125000
vt 0.437500 0.125000
vt 0.437500 0.187500
vt 0.250000 0.187500
vt 0.250000 0.125000
vt 0.250000 0.062500
vt 0.250000 0.125000
vt -0.000000 0.125000
vt -0.000000 0.062500
vt 0.375000 0.000000
vt 0.437500 -0.000000
vt 0.375000 0.062500
vt 0.187500 0.062500
vt 0.187500 -0.000000
vt 0.437500 -0.000000
vt 0.437500 0.062500
vt 0.437500 0.125000
vt 0.187500 0.125000
vt -0.000000 0.000000
vt 0.250000 0.000000
vt 0.500000 0.062500
vt 0.500000 0.125000
vt 0.250000 0.062500
vt 0.500000 0.062500
vt 0.500000 -0.000000
vt 0.437500 0.000000
vt 0.437500 0.062500
vt 0.375000 -0.000000
vt 0.437500 0.187500
vt 0.437500 0.125000
vt 0.500000 0.125000
vt 0.500000 0.187500
vt 0.312500 0.187500
vt 0.312500 0.125000
vt 0.375000 0.125000
vt 0.375000 0.187500
vt 0.375000 0.187500
vt 0.375000 0.125000
vt 0.437500 0.125000
vt 0.437500 0.187500
vt 0.250000 0.187500
vt 0.250000 0.125000
vn 0.0000 1.0000 0.0000
vn 0.7071 0.0000 0.7071
vn 0.0000 -1.0000 0.0000
vn -1.0000 0.0000 0.0000
vn 1.0000 0.0000 0.0000
vn 0.7071 0.0000 -0.7071
vn 0.0000 0.0000 1.0000
vn 0.0000 0.0000 -1.0000
vn -0.7071 0.0000 -0.7071
vn -0.7071 0.0000 0.7071
vn 0.8321 0.5547 0.0000
vn -0.8321 -0.5547 0.0000
vn 0.7071 0.7071 0.0000
vn -0.1240 0.0000 -0.9923
vn -0.1240 -0.9923 0.0000
vn -0.1240 0.0000 0.9923
vn -0.1240 0.9923 0.0000
vn 0.0000 0.5547 0.8321
vn 0.0000 -0.5547 -0.8321
vn 0.0000 0.7071 0.7071
vn 0.9923 0.0000 -0.1240
vn 0.0000 -0.9923 -0.1240
vn -0.9923 0.0000 -0.1240
vn 0.0000 0.9923 -0.1240
vn -0.8321 0.5547 0.0000
vn 0.8321 -0.5547 -0.0000
vn -0.7071 0.7071 0.0000
vn 0.1240 0.0000 0.9923
vn 0.1240 -0.9923 0.0000
vn 0.1240 0.0000 -0.9923
vn 0.1240 0.9923 0.0000
vn 0.5774 0.5774 0.5774
vn -0.0000 0.7071 -0.7071
vn 0.5774 0.5774 -0.5774
vn -0.5773 0.5774 0.5774
vn 0.5774 0.5774 0.5773
vn -0.5774 0.5774 -0.5774
vn -0.5774 0.5774 0.5774
usemtl SIGNALITE
s off
f 74/198/33 72/199/33 75/200/33
f 76/201/34 75/202/34 72/203/34 71/204/34
f 76/205/35 73/206/35 77/207/35 79/208/35
f 71/209/35 73/210/35 76/211/35
f 73/212/36 74/213/36 80/214/36 77/215/36
f 75/216/37 76/217/37 79/218/37 78/219/37
f 74/198/33 75/200/33 78/220/33 80/221/33
f 80/222/33 78/223/33 81/224/33
f 82/225/38 81/226/38 78/227/38 79/228/38
f 82/229/35 77/230/35 83/231/35 85/232/35
f 79/233/35 77/234/35 82/235/35
f 77/236/39 80/237/39 86/238/39 83/239/39
f 81/240/40 82/241/40 85/242/40 84/243/40
f 80/222/33 81/224/33 84/244/33 86/245/33
f 86/246/33 84/247/33 87/248/33
f 88/249/41 87/250/41 84/251/41 85/252/41
f 88/253/35 83/254/35 92/255/35 90/256/35
f 85/257/35 83/258/35 88/259/35
f 83/260/37 86/261/37 89/262/37 92/263/37
f 87/264/36 88/265/36 90/266/36 91/267/36
f 86/246/33 87/248/33 91/268/33 89/269/33
f 89/270/33 91/271/33 93/272/33
f 94/273/42 93/274/42 91/275/42 90/276/42
f 94/277/35 92/278/35 73/279/35 71/280/35
f 90/281/35 92/282/35 94/283/35
f 92/284/40 89/285/40 74/286/40 73/287/40
f 93/288/39 94/289/39 71/290/39 72/291/39
f 89/270/33 93/272/33 72/292/33 74/293/33
f 141/294/37 120/295/37 119/296/37 139/297/37
f 121/298/40 125/299/40 117/300/40
f 140/301/40 144/302/40 121/303/40 117/304/40
f 141/305/39 145/306/39 124/307/39 120/308/39
f 114/309/39 115/310/39 120/311/39 124/312/39
f 115/313/43 116/314/43 119/315/43 120/316/43
f 116/317/40 113/318/40 123/319/40 119/320/40
f 113/321/44 114/322/44 124/323/44 123/324/44
f 143/325/36 123/326/36 124/327/36 145/328/36
f 117/329/45 125/330/45 126/331/45 118/332/45
f 121/333/46 127/334/46 129/335/46 125/336/46
f 118/337/39 126/338/39 122/339/39
f 122/340/47 128/341/47 127/342/47 121/343/47
f 126/344/48 130/345/48 128/346/48 122/347/48
f 125/348/49 129/349/49 130/350/49 126/351/49
f 115/352/37 138/353/37 137/354/37 116/355/37
f 137/356/37 138/357/37 96/358/37 95/359/37
f 114/360/39 136/361/39 138/362/39 115/363/39
f 96/364/39 138/365/39 136/366/39 97/367/39
f 116/368/40 137/369/40 135/370/40 113/371/40
f 135/372/40 137/373/40 95/374/40 98/375/40
f 113/376/36 135/377/36 136/378/36 114/379/36
f 97/380/36 136/381/36 135/382/36 98/383/36
f 121/384/36 144/385/36 146/386/36 122/387/36
f 144/388/36 143/389/36 145/306/36 146/390/36
f 118/391/39 122/392/39 146/393/39 142/394/39
f 142/395/39 146/396/39 145/397/39 141/398/39
f 119/399/40 123/400/40 143/401/40 139/402/40
f 139/403/40 143/404/40 144/405/40 140/406/40
f 118/407/37 142/408/37 140/409/37 117/410/37
f 142/411/37 141/412/37 139/413/37 140/414/37
f 193/415/39 172/416/39 171/417/39 191/418/39
f 173/419/37 177/420/37 169/421/37
f 192/422/37 196/423/37 173/424/37 169/425/37
f 193/426/36 197/427/36 176/428/36 172/429/36
f 166/430/36 167/431/36 172/432/36 176/433/36
f 167/434/50 168/435/50 171/436/50 172/437/50
f 168/438/37 165/439/37 175/440/37 171/441/37
f 165/442/51 166/443/51 176/444/51 175/445/51
f 195/446/40 175/447/40 176/448/40 197/449/40
f 169/450/52 177/451/52 178/452/52 170/453/52
f 173/454/53 179/455/53 181/456/53 177/457/53
f 170/458/36 178/459/36 174/460/36
f 174/461/54 180/462/54 179/463/54 173/464/54
f 178/465/55 182/466/55 180/467/55 174/468/55
f 177/469/56 181/470/56 182/471/56 178/472/56
f 167/473/39 190/474/39 189/475/39 168/476/39
f 189/477/39 190/478/39 148/479/39 147/480/39
f 166/481/36 188/482/36 190/483/36 167/484/36
f 148/485/36 190/486/36 188/487/36 149/488/36
f 168/489/37 189/490/37 187/491/37 165/492/37
f 187/493/37 189/494/37 147/495/37 150/496/37
f 165/497/40 187/498/40 188/499/40 166/500/40
f 149/501/40 188/502/40 187/503/40 150/504/40
f 173/505/40 196/506/40 198/507/40 174/508/40
f 196/509/40 195/510/40 197/427/40 198/511/40
f 170/512/36 174/513/36 198/514/36 194/515/36
f 194/516/36 198/517/36 197/518/36 193/519/36
f 171/520/37 175/521/37 195/522/37 191/523/37
f 191/524/37 195/525/37 196/526/37 192/527/37
f 170/528/39 194/529/39 192/530/39 169/531/39
f 194/532/39 193/533/39 191/534/39 192/535/39
f 245/536/36 224/537/36 223/538/36 243/539/36
f 225/540/39 229/541/39 221/542/39
f 244/543/39 248/544/39 225/545/39 221/546/39
f 245/547/40 249/548/40 228/549/40 224/550/40
f 218/551/40 219/552/40 224/553/40 228/554/40
f 219/555/57 220/556/57 223/557/57 224/558/57
f 220/559/39 217/560/39 227/561/39 223/562/39
f 217/563/58 218/564/58 228/565/58 227/566/58
f 247/567/37 227/568/37 228/569/37 249/570/37
f 221/571/59 229/572/59 230/573/59 222/574/59
f 225/575/60 231/576/60 233/577/60 229/578/60
f 222/579/40 230/580/40 226/581/40
f 226/582/61 232/583/61 231/584/61 225/585/61
f 230/586/62 234/587/62 232/588/62 226/589/62
f 229/590/63 233/591/63 234/592/63 230/593/63
f 219/594/36 242/595/36 241/596/36 220/597/36
f 241/598/36 242/599/36 200/600/36 199/601/36
f 218/602/40 240/603/40 242/604/40 219/605/40
f 200/606/40 242/607/40 240/608/40 201/609/40
f 220/610/39 241/611/39 239/612/39 217/613/39
f 239/614/39 241/615/39 199/616/39 202/617/39
f 217/618/37 239/619/37 240/620/37 218/621/37
f 201/622/37 240/623/37 239/624/37 202/625/37
f 225/626/37 248/627/37 250/628/37 226/629/37
f 248/630/37 247/631/37 249/548/37 250/632/37
f 222/633/40 226/634/40 250/635/40 246/636/40
f 246/637/40 250/638/40 249/639/40 245/640/40
f 223/641/39 227/642/39 247/643/39 243/644/39
f 243/645/39 247/646/39 248/647/39 244/648/39
f 222/649/36 246/650/36 244/651/36 221/652/36
f 246/653/36 245/654/36 243/655/36 244/656/36
usemtl FUMEFILTER
f 100/657/40 104/658/40 111/659/40 101/660/40
f 105/661/64 109/662/64 102/663/64
f 99/664/52 106/665/52 105/666/52 102/667/52
f 102/667/39 112/668/39 103/669/39 99/664/39
f 101/660/65 108/670/65 107/671/65 100/657/65
f 101/672/37 111/673/37 112/668/37 102/667/37
f 104/658/33 103/674/33 112/675/33 111/673/33
f 102/667/45 109/662/45 110/676/45 101/672/45
f 108/677/66 101/678/66 110/679/66
f 98/680/36 134/681/36 133/682/36 97/683/36
f 95/684/40 131/685/40 134/686/40 98/687/40
f 97/688/39 133/689/39 132/690/39 96/691/39
f 96/692/37 132/693/37 131/685/37 95/684/37
f 152/694/37 156/695/37 163/696/37 153/697/37
f 157/698/67 161/699/67 154/700/67
f 151/701/59 158/702/59 157/703/59 154/704/59
f 154/704/36 164/705/36 155/706/36 151/701/36
f 153/697/45 160/707/45 159/708/45 152/694/45
f 153/709/39 163/710/39 164/705/39 154/704/39
f 156/695/33 155/711/33 164/712/33 163/710/33
f 154/704/52 161/699/52 162/713/52 153/709/52
f 160/714/68 153/715/68 162/716/68
f 150/717/40 186/718/40 185/719/40 149/720/40
f 147/721/37 183/722/37 186/723/37 150/724/37
f 149/725/36 185/726/36 184/727/36 148/728/36
f 148/729/39 184/730/39 183/722/39 147/721/39
f 204/731/39 208/732/39 215/733/39 205/734/39
f 209/735/69 213/736/69 206/737/69
f 203/738/65 210/739/65 209/740/65 206/741/65
f 206/741/40 216/742/40 207/743/40 203/738/40
f 205/734/52 212/744/52 211/745/52 204/731/52
f 205/746/36 215/747/36 216/742/36 206/741/36
f 208/732/33 207/748/33 216/749/33 215/747/33
f 206/741/59 213/736/59 214/750/59 205/746/59
f 212/751/70 205/752/70 214/753/70
f 202/754/37 238/755/37 237/756/37 201/757/37
f 199/758/39 235/759/39 238/760/39 202/761/39
f 201/762/40 237/763/40 236/764/40 200/765/40
f 200/766/36 236/767/36 235/759/36 199/758/36
