# Blender v2.80 (sub 75) OBJ File: 'terrariums.blend'
# www.blender.org
mtllib terrarium_ominous_inventory.mtl
o TERRAIN_OMINOUS_Cube.032
v 0.531250 0.218750 0.656250
v 0.531250 0.281250 0.656250
v 0.531250 0.281250 0.468750
v 0.718750 0.218750 0.656250
v 0.718750 0.281250 0.656250
v 0.718750 0.218750 0.468750
v 0.718750 0.281250 0.468750
v 0.593750 0.218750 0.593750
v 0.593750 0.218750 0.406250
v 0.781250 0.218750 0.593750
v 0.781250 0.218750 0.406250
v 0.593750 0.218750 0.406250
v 0.593750 0.218750 0.218750
v 0.781250 0.218750 0.406250
v 0.781250 0.218750 0.218750
v 0.593750 0.218750 0.781250
v 0.593750 0.218750 0.593750
v 0.781250 0.218750 0.781250
v 0.781250 0.218750 0.593750
v 0.406250 0.218750 0.593750
v 0.218750 0.218750 0.593750
v 0.218750 0.218750 0.406250
v 0.218750 0.218750 0.218750
v 0.406250 0.218750 0.406250
v 0.406250 0.218750 0.218750
v 0.218750 0.218750 0.781250
v 0.406250 0.218750 0.781250
v 0.468750 0.281250 0.468750
v 0.468750 0.218750 0.281250
v 0.468750 0.281250 0.281250
v 0.656250 0.218750 0.468750
v 0.656250 0.281250 0.468750
v 0.656250 0.218750 0.281250
v 0.656250 0.281250 0.281250
v 0.406250 0.218750 0.687500
v 0.406250 0.343750 0.687500
v 0.406250 0.218750 0.500000
v 0.406250 0.343750 0.500000
v 0.593750 0.218750 0.687500
v 0.593750 0.343750 0.687500
v 0.593750 0.218750 0.500000
v 0.593750 0.343750 0.500000
v 0.281250 0.218750 0.531250
v 0.281250 0.281250 0.531250
v 0.281250 0.218750 0.343750
v 0.281250 0.281250 0.343750
v 0.468750 0.218750 0.343750
v 0.468750 0.281250 0.343750
v 0.343750 0.281250 0.593750
v 0.343750 0.406250 0.593750
v 0.343750 0.281250 0.406250
v 0.343750 0.406250 0.406250
v 0.531250 0.281250 0.593750
v 0.531250 0.406250 0.593750
v 0.531250 0.281250 0.406250
v 0.531250 0.406250 0.406250
v 0.281250 0.218750 0.718750
v 0.281250 0.281250 0.718750
v 0.468750 0.218750 0.718750
v 0.468750 0.281250 0.718750
v 0.468750 0.218750 0.531250
v 0.468750 0.281250 0.531250
v 0.218750 0.781250 0.218750
v 0.406250 0.781250 0.218750
v 0.593750 0.781250 0.218750
v 0.593750 0.781250 0.406250
v 0.593750 0.781250 0.781250
v 0.781250 0.781250 0.781250
v 0.593750 0.781250 0.593750
v 0.781250 0.781250 0.593750
v 0.218750 0.781250 0.781250
v 0.406250 0.781250 0.781250
v 0.218750 0.781250 0.593750
v 0.406250 0.781250 0.593750
v 0.406250 0.781250 0.781250
v 0.593750 0.781250 0.781250
v 0.406250 0.781250 0.593750
v 0.593750 0.781250 0.593750
v 0.468750 0.718750 0.718750
v 0.468750 0.781250 0.718750
v 0.656250 0.718750 0.718750
v 0.656250 0.781250 0.718750
v 0.468750 0.718750 0.531250
v 0.468750 0.781250 0.531250
v 0.656250 0.718750 0.531250
v 0.656250 0.781250 0.531250
v 0.531250 0.718750 0.468750
v 0.718750 0.718750 0.468750
v 0.718750 0.781250 0.468750
v 0.718750 0.718750 0.281250
v 0.718750 0.781250 0.281250
v 0.406250 0.593750 0.531250
v 0.406250 0.718750 0.531250
v 0.593750 0.593750 0.531250
v 0.593750 0.718750 0.531250
v 0.406250 0.593750 0.343750
v 0.406250 0.718750 0.343750
v 0.593750 0.593750 0.343750
v 0.593750 0.718750 0.343750
v 0.343750 0.718750 0.468750
v 0.343750 0.781250 0.468750
v 0.343750 0.718750 0.281250
v 0.343750 0.781250 0.281250
v 0.531250 0.718750 0.281250
v 0.531250 0.781250 0.281250
v 0.500000 0.656250 0.593750
v 0.500000 0.781250 0.593750
v 0.687500 0.656250 0.593750
v 0.687500 0.781250 0.593750
v 0.500000 0.656250 0.406250
v 0.500000 0.781250 0.406250
v 0.687500 0.656250 0.406250
v 0.687500 0.781250 0.406250
v 0.281250 0.718750 0.656250
v 0.281250 0.781250 0.656250
v 0.468750 0.718750 0.656250
v 0.468750 0.781250 0.656250
v 0.281250 0.718750 0.468750
v 0.281250 0.781250 0.468750
v 0.468750 0.718750 0.468750
v 0.468750 0.781250 0.468750
v 0.781250 0.781250 0.406250
v 0.781250 0.781250 0.218750
v 0.218750 0.781250 0.406250
v 0.406250 0.781250 0.406250
v 0.343750 0.593750 0.718750
v 0.343750 0.781250 0.718750
v 0.343750 0.593750 0.656250
v 0.343750 0.781250 0.656250
v 0.406250 0.593750 0.718750
v 0.406250 0.781250 0.718750
v 0.406250 0.593750 0.656250
v 0.406250 0.781250 0.656250
v 0.343750 0.468750 0.281250
v 0.343750 0.781250 0.281250
v 0.343750 0.468750 0.343750
v 0.343750 0.781250 0.343750
v 0.281250 0.468750 0.281250
v 0.281250 0.781250 0.281250
v 0.281250 0.468750 0.343750
v 0.281250 0.781250 0.343750
v 0.718750 0.531250 0.531250
v 0.718750 0.781250 0.531250
v 0.656250 0.531250 0.531250
v 0.656250 0.781250 0.531250
v 0.718750 0.531250 0.468750
v 0.718750 0.781250 0.468750
v 0.656250 0.531250 0.468750
v 0.656250 0.781250 0.468750
v 0.718750 0.468750 0.406250
v 0.718750 0.218750 0.406250
v 0.656250 0.468750 0.406250
v 0.656250 0.218750 0.406250
v 0.718750 0.468750 0.468750
v 0.718750 0.218750 0.468750
v 0.656250 0.468750 0.468750
v 0.656250 0.218750 0.468750
v 0.656250 0.406250 0.656250
v 0.656250 0.218750 0.656250
v 0.593750 0.406250 0.656250
v 0.593750 0.218750 0.656250
v 0.656250 0.406250 0.718750
v 0.656250 0.218750 0.718750
v 0.593750 0.406250 0.718750
v 0.593750 0.218750 0.718750
v 0.406250 0.531270 0.281250
v 0.406250 0.218750 0.281250
v 0.406250 0.531270 0.343750
v 0.406250 0.218750 0.343750
v 0.468750 0.531270 0.281250
v 0.468750 0.218750 0.281250
v 0.468750 0.531270 0.343750
v 0.468750 0.218750 0.343750
vt 0.750000 0.437500
vt 0.750000 0.500000
vt 0.562500 0.500000
vt 0.562500 0.437500
vt 0.562500 0.500000
vt 0.562500 0.562500
vt 0.375000 0.562500
vt 0.375000 0.500000
vt 0.562500 0.437500
vt 0.562500 0.250000
vt 0.750000 0.250000
vt 0.750000 0.437500
vt 0.562500 0.250000
vt 0.750000 0.250000
vt 0.750000 0.437500
vt 0.562500 0.437500
vt 0.375000 0.250000
vt 0.562500 0.250000
vt 0.562500 0.437500
vt 0.375000 0.437500
vt 0.562500 0.625000
vt 0.375000 0.625000
vt 0.375000 0.437500
vt 0.562500 0.437500
vt 0.750000 0.250000
vt 0.750000 0.437500
vt 0.562500 0.437500
vt 0.562500 0.250000
vt 0.375000 0.437500
vt 0.562500 0.437500
vt 0.562500 0.625000
vt 0.750000 0.437500
vt 0.562500 0.437500
vt 0.562500 0.250000
vt 0.750000 0.250000
vt 0.750000 0.625000
vt 0.562500 0.625000
vt 0.562500 0.437500
vt 0.375000 0.437500
vt 0.375000 0.250000
vt 0.562500 0.250000
vt 0.562500 0.375000
vt 0.562500 0.437500
vt 0.375000 0.437500
vt 0.375000 0.375000
vt 0.562500 0.250000
vt 0.562500 0.312500
vt 0.375000 0.312500
vt 0.375000 0.250000
vt 0.562500 0.437500
vt 0.375000 0.437500
vt 0.375000 0.250000
vt 0.562500 0.250000
vt 0.562500 0.312500
vt 0.562500 0.437500
vt 0.375000 0.437500
vt 0.375000 0.312500
vt 0.562500 0.437500
vt 0.562500 0.562500
vt 0.375000 0.562500
vt 0.375000 0.437500
vt 0.750000 0.375000
vt 0.750000 0.500000
vt 0.562500 0.500000
vt 0.562500 0.375000
vt 0.750000 0.437500
vt 0.625000 0.437500
vt 0.625000 0.250000
vt 0.750000 0.250000
vt 0.750000 0.437500
vt 0.750000 0.250000
vt 0.562500 0.250000
vt 0.562500 0.437500
vt 0.750000 0.437500
vt 0.750000 0.500000
vt 0.562500 0.500000
vt 0.562500 0.437500
vt 0.750000 0.375000
vt 0.750000 0.437500
vt 0.562500 0.437500
vt 0.562500 0.375000
vt 0.562500 0.625000
vt 0.562500 0.437500
vt 0.750000 0.437500
vt 0.750000 0.625000
vt 0.562500 0.250000
vt 0.562500 0.375000
vt 0.375000 0.375000
vt 0.375000 0.250000
vt 0.562500 0.250000
vt 0.562500 0.375000
vt 0.375000 0.375000
vt 0.375000 0.250000
vt 0.562500 0.250000
vt 0.562500 0.375000
vt 0.375000 0.375000
vt 0.375000 0.250000
vt 0.562500 0.250000
vt 0.562500 0.375000
vt 0.375000 0.375000
vt 0.375000 0.250000
vt 0.562500 0.437500
vt 0.375000 0.437500
vt 0.375000 0.250000
vt 0.562500 0.250000
vt 0.562500 0.250000
vt 0.562500 0.312500
vt 0.375000 0.312500
vt 0.375000 0.250000
vt 0.562500 0.375000
vt 0.562500 0.437500
vt 0.375000 0.437500
vt 0.375000 0.375000
vt 0.375000 0.312500
vt 0.375000 0.375000
vt 0.562500 0.375000
vt 0.562500 0.312500
vt 0.375000 0.437500
vt 0.375000 0.250000
vt 0.562500 0.250000
vt 0.375000 0.437500
vt 0.375000 0.250000
vt 0.562500 0.250000
vt 0.562500 0.437500
vt 0.562500 0.625000
vt 0.375000 0.625000
vt 0.375000 0.437500
vt 0.562500 0.437500
vt 0.562500 0.437500
vt 0.562500 0.250000
vt 0.750000 0.250000
vt 0.750000 0.437500
vt 0.750000 0.375000
vt 0.562500 0.437500
vt 0.562500 0.375000
vt 0.750000 0.437500
vt 0.750000 0.500000
vt 0.562500 0.500000
vt 0.562500 0.437500
vt 0.562500 0.500000
vt 0.562500 0.562500
vt 0.375000 0.562500
vt 0.375000 0.500000
vt 0.562500 0.312500
vt 0.562500 0.375000
vt 0.750000 0.375000
vt 0.750000 0.312500
vt 0.562500 0.437500
vt 0.375000 0.437500
vt 0.375000 0.250000
vt 0.562500 0.250000
vt 0.562500 0.312500
vt 0.562500 0.437500
vt 0.375000 0.437500
vt 0.375000 0.312500
vt 0.562500 0.250000
vt 0.562500 0.375000
vt 0.375000 0.375000
vt 0.375000 0.250000
vt 0.375000 0.250000
vt 0.375000 0.375000
vt 0.562500 0.250000
vt 0.562500 0.375000
vt 0.562500 0.437500
vt 0.375000 0.437500
vt 0.375000 0.250000
vt 0.562500 0.250000
vt 0.375000 0.250000
vt 0.375000 0.312500
vt 0.562500 0.312500
vt 0.562500 0.250000
vt 0.562500 0.312500
vt 0.562500 0.375000
vt 0.375000 0.375000
vt 0.375000 0.312500
vt 0.562500 0.250000
vt 0.562500 0.312500
vt 0.375000 0.312500
vt 0.375000 0.250000
vt 0.562500 0.437500
vt 0.375000 0.437500
vt 0.375000 0.250000
vt 0.562500 0.250000
vt 0.375000 0.437500
vt 0.562500 0.437500
vt 0.562500 0.625000
vt 0.375000 0.625000
vt 0.750000 0.437500
vt 0.562500 0.437500
vt 0.562500 0.250000
vt 0.750000 0.250000
vt 0.375000 0.437500
vt 0.375000 0.250000
vt 0.562500 0.437500
vt 0.562500 0.625000
vt 0.375000 0.625000
vt 0.375000 0.437500
vt 0.562500 0.437500
vt 0.562500 0.437500
vt 0.562500 0.250000
vt 0.750000 0.250000
vt 0.750000 0.437500
vt 0.750000 0.437500
vt 0.750000 0.500000
vt 0.562500 0.500000
vt 0.562500 0.437500
vt 0.750000 0.437500
vt 0.562500 0.437500
vt 0.562500 0.250000
vt 0.750000 0.250000
vt 0.562500 0.375000
vt 0.562500 0.250000
vt 0.750000 0.250000
vt 0.750000 0.375000
vt 0.562500 0.250000
vt 0.562500 0.375000
vt 0.562500 0.250000
vt 0.562500 0.375000
vt 0.375000 0.375000
vt 0.375000 0.250000
vt 0.562500 0.375000
vt 0.562500 0.250000
vt 0.562500 0.437500
vt 0.375000 0.437500
vt 0.375000 0.250000
vt 0.562500 0.250000
vt 0.750000 0.250000
vt 0.750000 0.312500
vt 0.562500 0.312500
vt 0.562500 0.250000
vt 0.562500 0.250000
vt 0.562500 0.312500
vt 0.375000 0.312500
vt 0.375000 0.250000
vt 0.562500 0.437500
vt 0.375000 0.437500
vt 0.375000 0.250000
vt 0.562500 0.250000
vt 0.437500 0.312500
vt 0.625000 0.312500
vt 0.625000 0.375000
vt 0.437500 0.375000
vt 0.437500 0.312500
vt 0.625000 0.312500
vt 0.625000 0.375000
vt 0.437500 0.375000
vt 0.437500 0.312500
vt 0.625000 0.312500
vt 0.625000 0.375000
vt 0.437500 0.375000
vt 0.437500 0.312500
vt 0.625000 0.312500
vt 0.625000 0.375000
vt 0.437500 0.375000
vt 0.375000 0.375000
vt 0.375000 0.312500
vt 0.687500 0.562500
vt 0.375000 0.562500
vt 0.375000 0.500000
vt 0.687500 0.500000
vt 0.687500 0.562500
vt 0.375000 0.562500
vt 0.375000 0.500000
vt 0.687500 0.500000
vt 0.687500 0.562500
vt 0.375000 0.562500
vt 0.375000 0.500000
vt 0.687500 0.500000
vt 0.687500 0.562500
vt 0.375000 0.562500
vt 0.375000 0.500000
vt 0.687500 0.500000
vt 0.750000 0.562500
vt 0.750000 0.500000
vt 0.625000 0.250000
vt 0.375000 0.250000
vt 0.375000 0.312500
vt 0.625000 0.312500
vt 0.625000 0.250000
vt 0.375000 0.250000
vt 0.375000 0.312500
vt 0.625000 0.312500
vt 0.625000 0.250000
vt 0.375000 0.250000
vt 0.375000 0.312500
vt 0.625000 0.312500
vt 0.625000 0.250000
vt 0.375000 0.250000
vt 0.375000 0.312500
vt 0.625000 0.312500
vt 0.687500 0.250000
vt 0.687500 0.312500
vt 0.375000 0.500000
vt 0.375000 0.250000
vt 0.437500 0.250000
vt 0.437500 0.500000
vt 0.375000 0.500000
vt 0.375000 0.250000
vt 0.437500 0.250000
vt 0.437500 0.500000
vt 0.375000 0.500000
vt 0.375000 0.250000
vt 0.437500 0.250000
vt 0.437500 0.500000
vt 0.375000 0.500000
vt 0.375000 0.250000
vt 0.437500 0.250000
vt 0.437500 0.500000
vt 0.437500 0.562500
vt 0.375000 0.562500
vt 0.562500 0.562500
vt 0.562500 0.375000
vt 0.625000 0.375000
vt 0.625000 0.562500
vt 0.562500 0.562500
vt 0.562500 0.375000
vt 0.625000 0.375000
vt 0.625000 0.562500
vt 0.562500 0.562500
vt 0.562500 0.375000
vt 0.625000 0.375000
vt 0.625000 0.562500
vt 0.562500 0.562500
vt 0.562500 0.375000
vt 0.625000 0.375000
vt 0.625000 0.562500
vt 0.687500 0.562500
vt 0.687500 0.625000
vt 0.625000 0.625000
vt 0.562500 0.562500
vt 0.562500 0.250000
vt 0.625000 0.250000
vt 0.625000 0.562500
vt 0.562500 0.562500
vt 0.562500 0.250000
vt 0.625000 0.250000
vt 0.625000 0.562500
vt 0.562500 0.562500
vt 0.562500 0.250000
vt 0.625000 0.250000
vt 0.625000 0.562500
vt 0.562500 0.562500
vt 0.562500 0.250000
vt 0.625000 0.250000
vt 0.625000 0.562500
vt 0.562500 0.625000
vt 0.625000 0.625000
vn 1.0000 0.0000 0.0000
vn 0.0000 0.0000 1.0000
vn 0.0000 1.0000 0.0000
vn 0.0000 0.0000 -1.0000
vn -1.0000 0.0000 0.0000
vn 0.0000 -1.0000 0.0000
usemtl TERRARIUM_PLAINS_OMINOUS
s off
f 6/1/1 7/2/1 5/3/1 4/4/1
f 4/5/2 5/6/2 2/7/2 1/8/2
f 7/9/3 3/10/3 2/11/3 5/12/3
f 11/13/3 9/14/3 8/15/3 10/16/3
f 15/17/3 13/18/3 12/19/3 14/20/3
f 19/21/3 17/22/3 16/23/3 18/24/3
f 13/25/3 25/26/3 24/27/3 12/28/3
f 17/22/3 20/29/3 27/30/3 16/31/3
f 24/32/3 22/33/3 21/34/3 20/35/3
f 25/26/3 23/36/3 22/37/3 24/27/3
f 20/38/3 21/39/3 26/40/3 27/41/3
f 29/42/4 30/43/4 34/44/4 33/45/4
f 33/46/1 34/47/1 32/48/1 31/49/1
f 34/50/3 30/51/3 28/52/3 32/53/3
f 35/54/5 36/55/5 38/56/5 37/57/5
f 37/58/4 38/59/4 42/60/4 41/61/4
f 41/62/1 42/63/1 40/64/1 39/65/1
f 39/66/2 40/67/2 36/68/2 35/69/2
f 42/70/3 38/71/3 36/72/3 40/73/3
f 43/74/5 44/75/5 46/76/5 45/77/5
f 45/78/4 46/79/4 48/80/4 47/81/4
f 48/82/3 46/83/3 44/84/3 62/85/3
f 49/86/5 50/87/5 52/88/5 51/89/5
f 51/90/4 52/91/4 56/92/4 55/93/4
f 55/94/1 56/95/1 54/96/1 53/97/1
f 53/98/2 54/99/2 50/100/2 49/101/2
f 56/102/3 52/103/3 50/104/3 54/105/3
f 57/106/5 58/107/5 44/108/5 43/109/5
f 61/110/1 62/111/1 60/112/1 59/113/1
f 59/114/2 60/115/2 58/116/2 57/117/2
f 62/111/3 44/118/3 58/119/3 60/120/3
f 71/121/6 73/122/6 74/123/6 72/124/6
f 75/125/6 77/126/6 78/127/6 76/128/6
f 79/129/6 83/130/6 85/131/6 81/132/6
f 82/133/1 81/132/1 85/134/1 86/135/1
f 80/136/2 79/137/2 81/138/2 82/139/2
f 84/140/5 83/141/5 79/142/5 80/143/5
f 105/144/4 104/145/4 102/146/4 103/147/4
f 106/148/6 110/149/6 112/150/6 108/151/6
f 109/152/1 108/153/1 112/154/1 113/155/1
f 107/156/2 106/157/2 108/158/2 109/159/2
f 111/160/5 110/161/5 106/157/5 107/156/5
f 113/162/4 112/163/4 110/161/4 111/160/4
f 114/164/6 118/165/6 120/166/6 116/167/6
f 115/168/2 114/169/2 116/170/2 117/171/2
f 119/172/5 118/173/5 114/174/5 115/175/5
f 121/176/4 120/177/4 118/178/4 119/179/4
f 66/180/6 65/181/6 123/182/6 122/183/6
f 124/184/6 63/185/6 64/186/6 125/187/6
f 125/188/6 64/189/6 65/190/6 66/191/6
f 69/192/6 66/193/6 122/183/6 70/194/6
f 73/195/6 124/196/6 125/197/6 74/198/6
f 67/199/6 69/200/6 70/201/6 68/202/6
f 103/203/5 102/204/5 100/205/5 101/206/5
f 100/207/6 102/208/6 104/209/6 87/210/6
f 99/211/4 98/212/4 96/213/4 97/214/4
f 97/214/5 96/213/5 92/215/5 93/216/5
f 93/217/2 92/218/2 94/219/2 95/220/2
f 95/220/1 94/219/1 98/221/1 99/222/1
f 92/223/6 96/224/6 98/225/6 94/226/6
f 91/227/4 90/228/4 104/229/4 105/230/4
f 89/231/1 88/232/1 90/233/1 91/234/1
f 87/235/6 104/236/6 90/237/6 88/238/6
f 126/239/5 127/240/5 129/241/5 128/242/5
f 128/243/4 129/244/4 133/245/4 132/246/4
f 132/247/1 133/248/1 131/249/1 130/250/1
f 130/251/2 131/252/2 127/253/2 126/254/2
f 128/242/6 132/255/6 130/256/6 126/239/6
f 134/257/1 135/258/1 137/259/1 136/260/1
f 136/261/2 137/262/2 141/263/2 140/264/2
f 140/265/5 141/266/5 139/267/5 138/268/5
f 138/269/4 139/270/4 135/271/4 134/272/4
f 136/273/6 140/265/6 138/268/6 134/274/6
f 142/275/2 143/276/2 145/277/2 144/278/2
f 144/279/5 145/280/5 149/281/5 148/282/5
f 148/283/4 149/284/4 147/285/4 146/286/4
f 146/287/1 147/288/1 143/289/1 142/290/1
f 144/291/6 148/292/6 146/286/6 142/275/6
f 150/293/4 151/294/4 153/295/4 152/296/4
f 152/297/5 153/298/5 157/299/5 156/300/5
f 156/301/2 157/302/2 155/303/2 154/304/2
f 154/305/1 155/306/1 151/307/1 150/308/1
f 152/309/3 156/310/3 154/305/3 150/308/3
f 158/311/4 159/312/4 161/313/4 160/314/4
f 160/315/5 161/316/5 165/317/5 164/318/5
f 164/319/2 165/320/2 163/321/2 162/322/2
f 162/323/1 163/324/1 159/325/1 158/326/1
f 160/314/3 164/327/3 162/328/3 158/329/3
f 166/330/5 167/331/5 169/332/5 168/333/5
f 168/334/2 169/335/2 173/336/2 172/337/2
f 172/338/1 173/339/1 171/340/1 170/341/1
f 170/342/4 171/343/4 167/344/4 166/345/4
f 168/333/3 172/338/3 170/346/3 166/347/3
o TERRARIUM_BASE_SMALLER_Cube.015
v 0.125000 0.000000 0.937500
v 0.125000 0.125000 0.937500
v 0.125000 0.000000 0.062500
v 0.125000 0.125000 0.062500
v 0.875000 0.000000 0.937500
v 0.875000 0.125000 0.937500
v 0.875000 0.000000 0.062500
v 0.875000 0.125000 0.062500
v 0.062500 0.000000 0.875000
v 0.062500 0.125000 0.875000
v 0.062500 0.000000 0.125000
v 0.062500 0.125000 0.125000
v 0.937500 0.000000 0.875000
v 0.937500 0.125000 0.875000
v 0.937500 0.000000 0.125000
v 0.937500 0.125000 0.125000
v 0.875000 0.000000 0.125000
v 0.125000 0.000000 0.125000
v 0.125000 0.000000 0.875000
v 0.875000 0.000000 0.875000
v 0.875000 0.187500 0.875000
v 0.125000 0.187500 0.875000
v 0.125000 0.187500 0.125000
v 0.875000 0.187500 0.125000
v 0.125000 0.187500 0.875000
v 0.125000 0.187500 0.125000
v 0.875000 0.187500 0.125000
v 0.875000 0.187500 0.875000
v 0.187500 0.250000 0.812500
v 0.187500 0.250000 0.187500
v 0.812500 0.250000 0.187500
v 0.812500 0.250000 0.812500
v 0.125000 0.250000 0.875000
v 0.125000 0.250000 0.125000
v 0.875000 0.250000 0.125000
v 0.875000 0.250000 0.875000
v 0.250000 0.187500 0.750000
v 0.250000 0.187500 0.250000
v 0.750000 0.187500 0.250000
v 0.750000 0.187500 0.750000
vt 0.875000 0.250000
vt 0.125000 0.250000
vt 0.125000 0.187500
vt 0.875000 0.187500
vt 0.875000 0.000000
vt 0.875000 0.125000
vt 0.125000 0.125000
vt 0.125000 -0.000000
vt 0.875000 0.250000
vt 0.125000 0.250000
vt 0.125000 0.187500
vt 0.875000 0.187500
vt 0.875000 0.000000
vt 0.875000 0.125000
vt 0.125000 0.125000
vt 0.125000 -0.000000
vt 0.875000 0.250000
vt 0.125000 0.250000
vt 0.125000 0.187500
vt 0.875000 0.187500
vt 0.125000 -0.000000
vt 0.125000 0.125000
vt 0.875000 0.125000
vt 0.875000 -0.000000
vt 0.125000 0.000000
vt 0.125000 0.125000
vt 0.875000 0.125000
vt 0.875000 0.000000
vt 0.875000 0.250000
vt 0.125000 0.250000
vt 0.125000 0.187500
vt 0.875000 0.187500
vt 0.000000 0.062500
vt 0.062500 0.062500
vt 0.000000 0.125000
vt 0.937500 0.000000
vt 0.937500 0.125000
vt 0.062500 0.125000
vt 0.062500 -0.000000
vt 0.000000 0.125000
vt 0.000000 0.062500
vt 0.062500 0.125000
vt 0.062500 0.062500
vt 0.062500 0.125000
vt 0.000000 0.125000
vt 0.937500 0.125000
vt 0.937500 0.000000
vt 0.062500 0.125000
vt 0.062500 -0.000000
vt 0.062500 0.062500
vt 0.062500 0.125000
vt 0.000000 0.062500
vt 0.125000 0.187500
vt 0.875000 0.187500
vt 0.875000 0.187500
vt 0.125000 0.187500
vt 0.875000 0.250000
vt 0.125000 0.250000
vt 0.125000 0.312500
vt 0.875000 0.312500
vt 0.000000 0.812500
vt 0.000000 0.187500
vt 0.062500 0.250000
vt 0.062500 0.750000
vt 0.875000 0.250000
vt 0.875000 0.312500
vt 0.125000 0.250000
vt 0.125000 0.312500
vt 0.187500 0.375000
vt 0.812500 0.375000
vt 0.187500 0.375000
vt 0.812500 0.375000
vt 0.062500 0.312500
vt 0.125000 0.312500
vt 0.125000 0.375000
vt 0.062500 0.375000
vt 0.000000 0.812500
vt 0.000000 0.187500
vt 0.062500 0.250000
vt 0.062500 0.750000
vt 0.125000 0.875000
vt 0.125000 0.125000
vt 0.875000 0.125000
vt 0.875000 0.875000
vn 0.0000 -1.0000 0.0000
vn 0.0000 0.0000 -1.0000
vn 0.0000 0.0000 1.0000
vn -1.0000 0.0000 0.0000
vn 1.0000 0.0000 0.0000
vn -0.7071 0.0000 -0.7071
vn -0.7071 0.0000 0.7071
vn 0.7071 0.0000 0.7071
vn 0.7071 0.0000 -0.7071
vn 0.7071 0.7071 0.0000
vn 0.0000 0.7071 -0.7071
vn -0.7071 0.7071 0.0000
vn 0.0000 0.7071 0.7071
vn 0.5774 0.5774 -0.5774
vn -0.5774 0.5774 -0.5774
vn -0.5774 0.5774 0.5774
vn 0.5774 0.5774 0.5774
vn 0.0000 1.0000 0.0000
usemtl TERRARIUM_BASE
s off
f 178/348/7 174/349/7 192/350/7 193/351/7
f 176/352/8 177/353/8 181/354/8 180/355/8
f 176/356/7 180/357/7 190/358/7 191/359/7
f 178/360/9 179/361/9 175/362/9 174/363/9
f 188/364/7 186/365/7 193/366/7 190/367/7
f 182/368/10 183/369/10 185/370/10 184/371/10
f 188/372/11 189/373/11 187/374/11 186/375/11
f 182/376/7 184/377/7 191/378/7 192/379/7
f 191/380/7 184/381/7 176/382/7
f 176/352/12 184/383/12 185/384/12 177/353/12
f 175/362/13 183/385/13 182/386/13 174/363/13
f 192/387/7 174/388/7 182/389/7
f 178/390/7 193/391/7 186/392/7
f 187/393/14 179/361/14 178/360/14 186/394/14
f 189/395/15 188/396/15 180/355/15 181/354/15
f 190/397/7 180/398/7 188/399/7
f 187/374/16 189/373/16 200/400/16 201/401/16
f 181/354/17 177/353/17 199/402/17 200/400/17
f 185/370/18 183/369/18 198/403/18 199/402/18
f 175/362/19 179/361/19 201/401/19 198/403/19
f 181/354/20 200/400/20 189/395/20
f 185/384/21 199/402/21 177/353/21
f 175/362/22 198/403/22 183/385/22
f 187/393/23 201/401/23 179/361/23
f 194/404/11 197/405/11 208/406/11 209/407/11
f 203/408/16 202/409/16 210/410/16 211/411/16
f 197/405/8 196/412/8 207/413/8 208/406/8
f 195/414/9 194/404/9 209/407/9 206/415/9
f 196/412/10 195/414/10 206/415/10 207/413/10
f 202/416/24 203/417/24 207/413/24 206/415/24
f 203/417/24 204/418/24 208/406/24 207/413/24
f 205/419/24 202/416/24 206/415/24 209/407/24
f 204/418/24 205/419/24 209/407/24 208/406/24
f 210/420/24 213/421/24 212/422/24 211/423/24
f 205/424/18 204/425/18 212/426/18 213/427/18
f 204/425/19 203/408/19 211/411/19 212/426/19
f 202/409/17 205/424/17 213/427/17 210/410/17
usemtl ARCANE_STONE
f 192/428/7 191/429/7 190/430/7 193/431/7
o TERRARIUM_BASE_SMALLER_LID_Cube.030
v 0.125000 1.000000 0.062500
v 0.125000 0.875000 0.062500
v 0.125000 1.000000 0.937500
v 0.125000 0.875000 0.937500
v 0.875000 1.000000 0.062500
v 0.875000 0.875000 0.062500
v 0.875000 1.000000 0.937500
v 0.875000 0.875000 0.937500
v 0.062500 1.000000 0.125000
v 0.062500 0.875000 0.125000
v 0.062500 1.000000 0.875000
v 0.062500 0.875000 0.875000
v 0.937500 1.000000 0.125000
v 0.937500 0.875000 0.125000
v 0.937500 1.000000 0.875000
v 0.937500 0.875000 0.875000
v 0.875000 1.000000 0.875000
v 0.125000 1.000000 0.125000
v 0.875000 1.000000 0.125000
v 0.875000 0.812500 0.125000
v 0.125000 0.812500 0.125000
v 0.125000 0.812500 0.875000
v 0.875000 0.812500 0.875000
v 0.125000 0.812500 0.125000
v 0.125000 0.812500 0.875000
v 0.875000 0.812500 0.875000
v 0.875000 0.812500 0.125000
v 0.187500 0.750000 0.187500
v 0.187500 0.750000 0.812500
v 0.812500 0.750000 0.812500
v 0.812500 0.750000 0.187500
v 0.125000 0.750000 0.125000
v 0.125000 0.750000 0.875000
v 0.875000 0.750000 0.875000
v 0.875000 0.750000 0.125000
v 0.250000 0.812500 0.250000
v 0.250000 0.812500 0.750000
v 0.750000 0.812500 0.750000
v 0.750000 0.812500 0.250000
v 0.125000 1.000000 0.875000
vt 0.875000 0.250000
vt 0.125000 0.250000
vt 0.125000 0.187500
vt 0.875000 0.187500
vt 0.875000 0.000000
vt 0.875000 0.125000
vt 0.125000 0.125000
vt 0.125000 -0.000000
vt 0.875000 0.250000
vt 0.125000 0.250000
vt 0.125000 0.187500
vt 0.875000 0.187500
vt 0.875000 0.000000
vt 0.875000 0.125000
vt 0.125000 0.125000
vt 0.125000 -0.000000
vt 0.875000 0.250000
vt 0.125000 0.250000
vt 0.125000 0.187500
vt 0.875000 0.187500
vt 0.125000 0.000000
vt 0.125000 0.125000
vt 0.875000 0.125000
vt 0.875000 0.000000
vt 0.125000 0.000000
vt 0.125000 0.125000
vt 0.875000 0.125000
vt 0.875000 0.000000
vt 0.875000 0.250000
vt 0.125000 0.250000
vt 0.125000 0.187500
vt 0.875000 0.187500
vt 0.000000 0.062500
vt 0.062500 0.062500
vt 0.000000 0.125000
vt 0.937500 0.000000
vt 0.937500 0.125000
vt 0.062500 0.125000
vt 0.062500 -0.000000
vt 0.000000 0.125000
vt 0.000000 0.062500
vt 0.062500 0.125000
vt 0.062500 0.062500
vt 0.062500 0.125000
vt 0.000000 0.125000
vt 0.937500 0.125000
vt 0.937500 0.000000
vt 0.062500 0.125000
vt 0.062500 -0.000000
vt 0.062500 0.062500
vt 0.062500 0.125000
vt 0.000000 0.062500
vt 0.125000 0.187500
vt 0.875000 0.187500
vt 0.875000 0.187500
vt 0.125000 0.187500
vt 0.875000 0.250000
vt 0.125000 0.250000
vt 0.125000 0.312500
vt 0.875000 0.312500
vt 0.000000 0.812500
vt 0.000000 0.187500
vt 0.062500 0.250000
vt 0.062500 0.750000
vt 0.875000 0.250000
vt 0.875000 0.312500
vt 0.125000 0.250000
vt 0.125000 0.312500
vt 0.187500 0.375000
vt 0.812500 0.375000
vt 0.187500 0.375000
vt 0.812500 0.375000
vt 0.062500 0.312500
vt 0.125000 0.312500
vt 0.125000 0.375000
vt 0.062500 0.375000
vt 0.000000 0.812500
vt 0.000000 0.187500
vt 0.062500 0.250000
vt 0.062500 0.750000
vt 0.875000 0.125000
vt 0.875000 0.875000
vt 0.125000 0.875000
vt 0.125000 0.125000
vn 0.0000 1.0000 0.0000
vn 0.0000 0.0000 1.0000
vn 0.0000 0.0000 -1.0000
vn -1.0000 0.0000 0.0000
vn 1.0000 0.0000 0.0000
vn -0.7071 0.0000 0.7071
vn -0.7071 0.0000 -0.7071
vn 0.7071 0.0000 -0.7071
vn 0.7071 0.0000 0.7071
vn 0.7071 -0.7071 0.0000
vn 0.0000 -0.7071 0.7071
vn -0.7071 -0.7071 0.0000
vn 0.0000 -0.7071 -0.7071
vn 0.5774 -0.5774 0.5774
vn -0.5774 -0.5774 0.5774
vn -0.5774 -0.5774 -0.5774
vn 0.5774 -0.5774 -0.5774
vn 0.0000 -1.0000 0.0000
usemtl TERRARIUM_BASE
s off
f 218/432/25 214/433/25 231/434/25 232/435/25
f 216/436/26 217/437/26 221/438/26 220/439/26
f 216/440/25 220/441/25 230/442/25 253/443/25
f 218/444/27 219/445/27 215/446/27 214/447/27
f 228/448/25 226/449/25 232/450/25 230/451/25
f 222/452/28 223/453/28 225/454/28 224/455/28
f 228/456/29 229/457/29 227/458/29 226/459/29
f 222/460/25 224/461/25 253/462/25 231/463/25
f 253/464/25 224/465/25 216/466/25
f 216/436/30 224/467/30 225/468/30 217/437/30
f 215/446/31 223/469/31 222/470/31 214/447/31
f 231/471/25 214/472/25 222/473/25
f 218/474/25 232/475/25 226/476/25
f 227/477/32 219/445/32 218/444/32 226/478/32
f 229/479/33 228/480/33 220/439/33 221/438/33
f 230/481/25 220/482/25 228/483/25
f 227/458/34 229/457/34 239/484/34 240/485/34
f 221/438/35 217/437/35 238/486/35 239/484/35
f 225/454/36 223/453/36 237/487/36 238/486/36
f 215/446/37 219/445/37 240/485/37 237/487/37
f 221/438/38 239/484/38 229/479/38
f 225/468/39 238/486/39 217/437/39
f 215/446/40 237/487/40 223/469/40
f 227/477/41 240/485/41 219/445/41
f 233/488/29 236/489/29 247/490/29 248/491/29
f 242/492/34 241/493/34 249/494/34 250/495/34
f 236/489/26 235/496/26 246/497/26 247/490/26
f 234/498/27 233/488/27 248/491/27 245/499/27
f 235/496/28 234/498/28 245/499/28 246/497/28
f 241/500/42 242/501/42 246/497/42 245/499/42
f 242/501/42 243/502/42 247/490/42 246/497/42
f 244/503/42 241/500/42 245/499/42 248/491/42
f 243/502/42 244/503/42 248/491/42 247/490/42
f 249/504/42 252/505/42 251/506/42 250/507/42
f 244/508/36 243/509/36 251/510/36 252/511/36
f 243/509/37 242/492/37 250/495/37 251/510/37
f 241/493/35 244/508/35 252/511/35 249/494/35
usemtl ARCANE_STONE
f 232/512/25 231/513/25 253/514/25 230/515/25
o TERRARIUM_GLASS_SHORT_DARK_Cube.031
v 0.156250 0.250000 0.843750
v 0.156250 0.687500 0.781250
v 0.156250 0.250000 0.156250
v 0.218750 0.687500 0.156250
v 0.843750 0.250000 0.843750
v 0.843750 0.687500 0.781250
v 0.843750 0.250000 0.156250
v 0.843750 0.687500 0.218750
v 0.781250 0.687500 0.156250
v 0.843750 0.312500 0.781250
v 0.843750 0.312500 0.218750
v 0.781250 0.687500 0.843750
v 0.156250 0.687500 0.218750
v 0.781250 0.312500 0.156250
v 0.218750 0.312500 0.156250
v 0.156250 0.312500 0.218750
v 0.156250 0.312500 0.781250
v 0.218750 0.687500 0.843750
v 0.218750 0.312500 0.843750
v 0.781250 0.312500 0.843750
v 0.156250 0.750000 0.843750
v 0.156250 0.750000 0.156250
v 0.843750 0.750000 0.156250
v 0.843750 0.750000 0.843750
v 0.781250 0.500000 0.843750
v 0.843750 0.500000 0.781250
v 0.843750 0.500000 0.843750
v 0.218750 0.500000 0.843750
v 0.156250 0.500000 0.781250
v 0.156250 0.500000 0.843750
v 0.781250 0.500000 0.156250
v 0.843750 0.500000 0.218750
v 0.843750 0.500000 0.156250
v 0.156250 0.500000 0.218750
v 0.218750 0.500000 0.156250
v 0.156250 0.500000 0.156250
v 0.156250 0.250000 0.843750
v 0.156250 0.687500 0.781250
v 0.156250 0.250000 0.156250
v 0.218750 0.687500 0.156250
v 0.843750 0.250000 0.843750
v 0.843750 0.687500 0.781250
v 0.843750 0.250000 0.156250
v 0.843750 0.687500 0.218750
v 0.781250 0.687500 0.156250
v 0.843750 0.312500 0.781250
v 0.843750 0.312500 0.218750
v 0.781250 0.687500 0.843750
v 0.156250 0.687500 0.218750
v 0.781250 0.312500 0.156250
v 0.218750 0.312500 0.156250
v 0.156250 0.312500 0.218750
v 0.156250 0.312500 0.781250
v 0.218750 0.687500 0.843750
v 0.218750 0.312500 0.843750
v 0.781250 0.312500 0.843750
v 0.156250 0.750000 0.843750
v 0.156250 0.750000 0.156250
v 0.843750 0.750000 0.156250
v 0.843750 0.750000 0.843750
v 0.781250 0.500000 0.843750
v 0.843750 0.500000 0.781250
v 0.843750 0.500000 0.843750
v 0.218750 0.500000 0.843750
v 0.156250 0.500000 0.781250
v 0.156250 0.500000 0.843750
v 0.781250 0.500000 0.156250
v 0.843750 0.500000 0.218750
v 0.843750 0.500000 0.156250
v 0.156250 0.500000 0.218750
v 0.218750 0.500000 0.156250
v 0.156250 0.500000 0.156250
vt 0.062500 0.750000
vt 0.250000 0.750000
vt 0.312500 0.687500
vt 0.062500 0.687500
vt 0.937500 0.562500
vt 0.375000 0.562500
vt 0.312500 0.500000
vt 1.000000 0.500000
vt 0.375000 0.562500
vt 0.937500 0.562500
vt 1.000000 0.625000
vt 0.312500 0.625000
vt 0.062500 0.750000
vt 0.250000 0.750000
vt 0.312500 0.812500
vt 0.062500 0.812500
vt 0.062500 0.750000
vt 0.250000 0.750000
vt 0.312500 0.687500
vt 0.062500 0.687500
vt 0.937500 0.562500
vt 0.375000 0.562500
vt 0.312500 0.500000
vt 1.000000 0.500000
vt 0.375000 0.562500
vt 0.937500 0.562500
vt 1.000000 0.625000
vt 0.312500 0.625000
vt 0.062500 0.750000
vt 0.250000 0.750000
vt 0.312500 0.812500
vt 0.062500 0.812500
vt 0.937500 0.562500
vt 0.375000 0.562500
vt 0.312500 0.500000
vt 1.000000 0.500000
vt 0.062500 0.750000
vt 0.250000 0.750000
vt 0.312500 0.687500
vt 0.062500 0.687500
vt 0.375000 0.562500
vt 0.937500 0.562500
vt 1.000000 0.625000
vt 0.312500 0.625000
vt 0.062500 0.750000
vt 0.250000 0.750000
vt 0.312500 0.812500
vt 0.062500 0.812500
vt 0.062500 0.750000
vt 0.250000 0.750000
vt 0.312500 0.812500
vt 0.062500 0.812500
vt 0.062500 0.750000
vt 0.250000 0.750000
vt 0.312500 0.687500
vt 0.062500 0.687500
vt 0.937500 0.562500
vt 0.375000 0.562500
vt 0.312500 0.500000
vt 1.000000 0.500000
vt 0.375000 0.562500
vt 0.937500 0.562500
vt 1.000000 0.625000
vt 0.312500 0.625000
vt 0.250000 0.687500
vt 0.062500 0.687500
vt 0.062500 0.750000
vt 0.312500 0.750000
vt 0.250000 0.812500
vt 0.062500 0.812500
vt 0.312500 0.750000
vt 0.250000 0.812500
vt 0.062500 0.812500
vt 0.062500 0.750000
vt 0.312500 0.750000
vt 0.250000 0.687500
vt 0.062500 0.687500
vt 0.312500 0.750000
vt 0.250000 0.812500
vt 0.062500 0.812500
vt 0.062500 0.750000
vt 0.312500 0.750000
vt 0.250000 0.687500
vt 0.062500 0.687500
vt 0.312500 0.750000
vt 0.250000 0.812500
vt 0.062500 0.812500
vt 0.062500 0.750000
vt 0.312500 0.750000
vt 0.250000 0.687500
vt 0.062500 0.687500
vt 0.312500 0.750000
vt 0.062500 0.750000
vt 0.062500 0.687500
vt 0.312500 0.687500
vt 0.250000 0.750000
vt 0.937500 0.562500
vt 1.000000 0.500000
vt 0.312500 0.500000
vt 0.375000 0.562500
vt 0.375000 0.562500
vt 0.312500 0.625000
vt 1.000000 0.625000
vt 0.937500 0.562500
vt 0.062500 0.750000
vt 0.062500 0.812500
vt 0.312500 0.812500
vt 0.250000 0.750000
vt 0.062500 0.750000
vt 0.062500 0.687500
vt 0.312500 0.687500
vt 0.250000 0.750000
vt 0.937500 0.562500
vt 1.000000 0.500000
vt 0.312500 0.500000
vt 0.375000 0.562500
vt 0.375000 0.562500
vt 0.312500 0.625000
vt 1.000000 0.625000
vt 0.937500 0.562500
vt 0.062500 0.750000
vt 0.062500 0.812500
vt 0.312500 0.812500
vt 0.250000 0.750000
vt 0.937500 0.562500
vt 1.000000 0.500000
vt 0.312500 0.500000
vt 0.375000 0.562500
vt 0.062500 0.750000
vt 0.062500 0.687500
vt 0.312500 0.687500
vt 0.250000 0.750000
vt 0.375000 0.562500
vt 0.312500 0.625000
vt 1.000000 0.625000
vt 0.937500 0.562500
vt 0.062500 0.750000
vt 0.062500 0.812500
vt 0.312500 0.812500
vt 0.250000 0.750000
vt 0.062500 0.750000
vt 0.062500 0.812500
vt 0.312500 0.812500
vt 0.250000 0.750000
vt 0.062500 0.750000
vt 0.062500 0.687500
vt 0.312500 0.687500
vt 0.250000 0.750000
vt 0.937500 0.562500
vt 1.000000 0.500000
vt 0.312500 0.500000
vt 0.375000 0.562500
vt 0.375000 0.562500
vt 0.312500 0.625000
vt 1.000000 0.625000
vt 0.937500 0.562500
vt 0.250000 0.687500
vt 0.312500 0.750000
vt 0.062500 0.750000
vt 0.062500 0.687500
vt 0.250000 0.812500
vt 0.312500 0.750000
vt 0.062500 0.812500
vt 0.250000 0.812500
vt 0.312500 0.750000
vt 0.062500 0.750000
vt 0.062500 0.812500
vt 0.250000 0.687500
vt 0.312500 0.750000
vt 0.062500 0.687500
vt 0.250000 0.812500
vt 0.312500 0.750000
vt 0.062500 0.750000
vt 0.062500 0.812500
vt 0.250000 0.687500
vt 0.312500 0.750000
vt 0.062500 0.687500
vt 0.250000 0.812500
vt 0.312500 0.750000
vt 0.062500 0.750000
vt 0.062500 0.812500
vt 0.250000 0.687500
vt 0.312500 0.750000
vt 0.062500 0.687500
vt 0.875000 0.250000
vt 0.875000 0.312500
vt 0.937500 0.312500
vt 0.937500 0.250000
vt 0.937500 0.312500
vt 0.937500 0.250000
vt 0.937500 0.312500
vt 0.937500 0.250000
vt 0.875000 0.250000
vt 0.875000 0.312500
vt 0.937500 0.312500
vt 0.937500 0.250000
vt 0.937500 0.250000
vt 0.937500 0.312500
vt 0.875000 0.312500
vt 0.875000 0.250000
vt 0.937500 0.250000
vt 0.937500 0.312500
vt 0.875000 0.312500
vt 0.937500 0.312500
vt 0.937500 0.250000
vt 0.875000 0.250000
vt 0.937500 0.312500
vt 0.937500 0.250000
vt 0.875000 0.250000
vt 0.875000 0.312500
vn 1.0000 0.0000 0.0000
vn 0.0000 0.0000 -1.0000
vn -1.0000 0.0000 0.0000
vn 0.0000 0.0000 1.0000
usemtl TERRARIUM_BASE
s off
f 285/516/43 264/517/43 260/518/43 286/519/43
f 264/520/43 263/521/43 258/522/43 260/523/43
f 259/524/43 261/525/43 276/526/43 277/527/43
f 279/528/43 259/529/43 277/530/43 280/531/43
f 288/532/44 268/533/44 256/534/44 289/535/44
f 268/536/44 267/537/44 260/538/44 256/539/44
f 262/540/44 257/541/44 275/542/44 276/543/44
f 284/544/44 262/545/44 276/546/44 286/547/44
f 270/548/45 269/549/45 256/550/45 254/551/45
f 282/552/45 270/553/45 254/554/45 283/555/45
f 266/556/45 255/557/45 274/558/45 275/559/45
f 287/560/45 266/561/45 275/562/45 289/563/45
f 281/564/46 271/565/46 274/566/46 283/567/46
f 278/568/46 273/569/46 258/570/46 280/571/46
f 273/572/46 272/573/46 254/574/46 258/575/46
f 271/576/46 265/577/46 277/578/46 274/579/46
f 263/580/43 279/581/43 280/582/43 258/583/43
f 265/584/46 278/585/46 280/582/46 277/586/46
f 255/587/45 282/588/45 283/589/45 274/590/45
f 272/591/46 281/592/46 283/589/46 254/593/46
f 261/594/43 285/595/43 286/596/43 276/597/43
f 267/598/44 284/599/44 286/596/44 260/600/44
f 257/601/44 288/602/44 289/603/44 275/604/44
f 269/605/45 287/606/45 289/603/45 256/607/45
f 321/608/45 322/609/45 296/610/45 300/611/45
f 300/612/45 296/613/45 294/614/45 299/615/45
f 295/616/45 313/617/45 312/618/45 297/619/45
f 315/620/45 316/621/45 313/622/45 295/623/45
f 324/624/46 325/625/46 292/626/46 304/627/46
f 304/628/46 292/629/46 296/630/46 303/631/46
f 298/632/46 312/633/46 311/634/46 293/635/46
f 320/636/46 322/637/46 312/638/46 298/639/46
f 306/640/43 290/641/43 292/642/43 305/643/43
f 318/644/43 319/645/43 290/646/43 306/647/43
f 302/648/43 311/649/43 310/650/43 291/651/43
f 323/652/43 325/653/43 311/654/43 302/655/43
f 317/656/44 319/657/44 310/658/44 307/659/44
f 314/660/44 316/661/44 294/662/44 309/663/44
f 309/664/44 294/665/44 290/666/44 308/667/44
f 307/668/44 310/669/44 313/670/44 301/671/44
f 299/672/45 294/673/45 316/674/45 315/675/45
f 301/676/44 313/677/44 316/674/44 314/678/44
f 291/679/43 310/680/43 319/681/43 318/682/43
f 308/683/44 290/684/44 319/681/44 317/685/44
f 297/686/45 312/687/45 322/688/45 321/689/45
f 303/690/46 296/691/46 322/688/46 320/692/46
f 293/693/46 311/694/46 325/695/46 324/696/46
f 305/697/43 292/698/43 325/695/43 323/699/43
f 281/700/46 278/701/46 265/702/46 271/703/46
f 273/704/46 278/701/46 281/700/46 272/705/46
f 261/706/43 259/707/43 279/708/43 285/709/43
f 264/710/43 285/709/43 279/708/43 263/711/43
f 267/712/44 268/713/44 288/714/44 284/715/44
f 262/716/44 284/715/44 288/714/44 257/717/44
f 282/718/45 255/719/45 266/720/45 287/721/45
f 269/722/45 270/723/45 282/724/45 287/725/45
