# Blender v2.80 (sub 75) OBJ File: 'terrariums.blend'
# www.blender.org
mtllib terrarium_plains.mtl
o TERRAIN_PLAINS_Cube.029
v 0.531250 0.187500 0.656250
v 0.531250 0.250000 0.656250
v 0.531250 0.187500 0.468750
v 0.531250 0.250000 0.468750
v 0.718750 0.187500 0.656250
v 0.718750 0.250000 0.656250
v 0.718750 0.187500 0.468750
v 0.718750 0.250000 0.468750
v 0.593750 0.218750 0.593750
v 0.593750 0.218750 0.406250
v 0.781250 0.218750 0.593750
v 0.781250 0.218750 0.406250
v 0.593750 0.218750 0.406250
v 0.593750 0.218750 0.218750
v 0.781250 0.218750 0.406250
v 0.781250 0.218750 0.218750
v 0.593750 0.218750 0.781250
v 0.593750 0.218750 0.593750
v 0.781250 0.218750 0.781250
v 0.781250 0.218750 0.593750
v 0.406250 0.218750 0.593750
v 0.218750 0.218750 0.593750
v 0.218750 0.218750 0.406250
v 0.218750 0.218750 0.218750
v 0.406250 0.218750 0.406250
v 0.406250 0.218750 0.218750
v 0.218750 0.218750 0.781250
v 0.406250 0.218750 0.781250
v 0.468750 0.187500 0.468750
v 0.468750 0.250000 0.468750
v 0.468750 0.187500 0.281250
v 0.468750 0.250000 0.281250
v 0.656250 0.187500 0.468750
v 0.656250 0.250000 0.468750
v 0.656250 0.187500 0.281250
v 0.656250 0.250000 0.281250
v 0.406250 0.218750 0.687500
v 0.406250 0.281250 0.687500
v 0.406250 0.218750 0.500000
v 0.406250 0.281250 0.500000
v 0.593750 0.218750 0.687500
v 0.593750 0.281250 0.687500
v 0.593750 0.218750 0.500000
v 0.593750 0.281250 0.500000
v 0.281250 0.187500 0.531250
v 0.281250 0.250000 0.531250
v 0.281250 0.187500 0.343750
v 0.281250 0.250000 0.343750
v 0.468750 0.187500 0.343750
v 0.468750 0.250000 0.343750
v 0.343750 0.250000 0.593750
v 0.343750 0.312500 0.593750
v 0.343750 0.250000 0.406250
v 0.343750 0.312500 0.406250
v 0.531250 0.250000 0.593750
v 0.531250 0.312500 0.593750
v 0.531250 0.250000 0.406250
v 0.531250 0.312500 0.406250
v 0.281250 0.187500 0.718750
v 0.281250 0.250000 0.718750
v 0.468750 0.187500 0.718750
v 0.468750 0.250000 0.718750
v 0.468750 0.187500 0.531250
v 0.468750 0.250000 0.531250
v 0.406250 0.218750 0.750000
v 0.468750 0.218750 0.750000
v 0.406250 0.250000 0.750000
v 0.468750 0.250000 0.750000
v 0.593750 0.218750 0.718750
v 0.656250 0.218750 0.718750
v 0.593750 0.250000 0.718750
v 0.656250 0.250000 0.718750
v 0.656250 0.250000 0.656250
v 0.656250 0.250000 0.593750
v 0.656250 0.281250 0.656250
v 0.656250 0.281250 0.593750
v 0.656250 0.250000 0.531250
v 0.656250 0.250000 0.468750
v 0.656250 0.281250 0.531250
v 0.656250 0.281250 0.468750
v 0.593750 0.250000 0.343750
v 0.531250 0.250000 0.343750
v 0.593750 0.281250 0.343750
v 0.531250 0.281250 0.343750
v 0.406250 0.218750 0.281250
v 0.343750 0.218750 0.281250
v 0.406250 0.250000 0.281250
v 0.343750 0.250000 0.281250
v 0.500000 0.312500 0.312500
v 0.500000 0.562500 0.312500
v 0.500000 0.312500 0.562500
v 0.250000 0.312500 0.312500
v 0.250000 0.312500 0.562500
v 0.500000 0.562500 0.562500
v 0.250000 0.562500 0.312500
v 0.250000 0.562500 0.562500
v 0.500000 0.312500 0.312500
v 0.500000 0.562500 0.312500
v 0.500000 0.312500 0.562500
v 0.250000 0.312500 0.312500
v 0.250000 0.312500 0.562500
v 0.500000 0.562500 0.562500
v 0.250000 0.562500 0.312500
v 0.250000 0.562500 0.562500
v 0.437500 0.250000 0.562500
v 0.437500 0.500000 0.562500
v 0.437500 0.250000 0.812500
v 0.187500 0.250000 0.562500
v 0.187500 0.250000 0.812500
v 0.437500 0.500000 0.812500
v 0.187500 0.500000 0.562500
v 0.187500 0.500000 0.812500
v 0.437500 0.250000 0.562500
v 0.437500 0.500000 0.562500
v 0.437500 0.250000 0.812500
v 0.187500 0.250000 0.562500
v 0.187500 0.250000 0.812500
v 0.437500 0.500000 0.812500
v 0.187500 0.500000 0.562500
v 0.187500 0.500000 0.812500
v 0.812500 0.218750 0.250000
v 0.812500 0.468750 0.250000
v 0.812500 0.218750 0.500000
v 0.562500 0.218750 0.250000
v 0.562500 0.218750 0.500000
v 0.812500 0.468750 0.500000
v 0.562500 0.468750 0.250000
v 0.562500 0.468750 0.500000
v 0.812500 0.218750 0.250000
v 0.812500 0.468750 0.250000
v 0.812500 0.218750 0.500000
v 0.562500 0.218750 0.250000
v 0.562500 0.218750 0.500000
v 0.812500 0.468750 0.500000
v 0.562500 0.468750 0.250000
v 0.562500 0.468750 0.500000
v 0.687500 0.280350 0.468750
v 0.687500 0.530350 0.468750
v 0.687500 0.280350 0.718750
v 0.437500 0.280350 0.468750
v 0.437500 0.280350 0.718750
v 0.687500 0.530350 0.718750
v 0.437500 0.530350 0.468750
v 0.437500 0.530350 0.718750
v 0.687500 0.280350 0.468750
v 0.687500 0.530350 0.468750
v 0.687500 0.280350 0.718750
v 0.437500 0.280350 0.468750
v 0.437500 0.280350 0.718750
v 0.687500 0.530350 0.718750
v 0.437500 0.530350 0.468750
v 0.437500 0.530350 0.718750
vt 0.187500 0.125000
vt 0.187500 0.187500
vt -0.000000 0.187500
vt -0.000000 0.125000
vt 0.187500 0.125000
vt 0.187500 0.187500
vt -0.000000 0.187500
vt -0.000000 0.125000
vt 0.187500 0.125000
vt 0.187500 0.187500
vt -0.000000 0.187500
vt -0.000000 0.125000
vt 0.375000 0.625000
vt 0.187500 0.625000
vt 0.187500 0.437500
vt 0.375000 0.437500
vt 0.187500 0.437500
vt 0.375000 0.437500
vt 0.375000 0.625000
vt 0.187500 0.625000
vt 0.187500 0.250000
vt 0.375000 0.250000
vt 0.375000 0.437500
vt 0.187500 0.437500
vt 0.375000 0.625000
vt 0.187500 0.625000
vt 0.187500 0.437500
vt 0.375000 0.437500
vt 0.187500 0.625000
vt -0.000000 0.625000
vt -0.000000 0.437500
vt 0.187500 0.437500
vt -0.000000 0.625000
vt -0.000000 0.437500
vt 0.187500 0.437500
vt 0.000000 0.437500
vt 0.000000 0.250000
vt 0.187500 0.250000
vt 0.187500 0.437500
vt -0.000000 0.437500
vt -0.000000 0.250000
vt 0.187500 0.250000
vt 0.187500 0.437500
vt 0.000000 0.437500
vt 0.000000 0.250000
vt 0.187500 0.250000
vt 0.187500 0.125000
vt 0.187500 0.187500
vt -0.000000 0.187500
vt -0.000000 0.125000
vt 0.187500 0.125000
vt 0.187500 0.187500
vt -0.000000 0.187500
vt -0.000000 0.125000
vt 0.187500 0.125000
vt 0.187500 0.187500
vt -0.000000 0.187500
vt -0.000000 0.125000
vt 0.187500 0.625000
vt -0.000000 0.625000
vt -0.000000 0.437500
vt 0.187500 0.437500
vt 0.187500 0.187500
vt 0.187500 0.250000
vt -0.000000 0.250000
vt -0.000000 0.187500
vt 0.187500 0.187500
vt 0.187500 0.250000
vt -0.000000 0.250000
vt -0.000000 0.187500
vt 0.187500 0.187500
vt 0.187500 0.250000
vt -0.000000 0.250000
vt -0.000000 0.187500
vt 0.187500 0.187500
vt 0.187500 0.250000
vt -0.000000 0.250000
vt -0.000000 0.187500
vt 0.187500 0.625000
vt -0.000000 0.625000
vt -0.000000 0.437500
vt 0.187500 0.437500
vt 0.187500 0.125000
vt 0.187500 0.187500
vt -0.000000 0.187500
vt -0.000000 0.125000
vt 0.187500 0.125000
vt 0.187500 0.187500
vt -0.000000 0.187500
vt -0.000000 0.125000
vt 0.187500 0.437500
vt 0.000000 0.437500
vt 0.000000 0.250000
vt 0.187500 0.250000
vt 0.187500 0.187500
vt 0.187500 0.250000
vt 0.000000 0.250000
vt 0.000000 0.187500
vt 0.187500 0.187500
vt 0.187500 0.250000
vt 0.000000 0.250000
vt 0.000000 0.187500
vt 0.187500 0.187500
vt 0.187500 0.250000
vt 0.000000 0.250000
vt 0.000000 0.187500
vt 0.187500 0.187500
vt 0.187500 0.250000
vt 0.000000 0.250000
vt 0.000000 0.187500
vt 0.187500 0.437500
vt 0.000000 0.437500
vt 0.187500 0.125000
vt 0.187500 0.187500
vt -0.000000 0.187500
vt -0.000000 0.125000
vt 0.187500 0.125000
vt 0.187500 0.187500
vt -0.000000 0.187500
vt -0.000000 0.125000
vt 0.187500 0.125000
vt 0.187500 0.187500
vt -0.000000 0.187500
vt -0.000000 0.125000
vt 0.187500 0.437500
vt -0.000000 0.437500
vt -0.000000 0.250000
vt 0.187500 0.250000
vt 0.125000 -0.000000
vt 0.187500 -0.000000
vt 0.187500 0.062500
vt 0.125000 0.062500
vt 0.000000 0.062500
vt 0.062500 0.062500
vt 0.062500 0.125000
vt 0.000000 0.125000
vt 0.125000 0.062500
vt 0.187500 0.062500
vt 0.187500 0.125000
vt 0.125000 0.125000
vt 0.062500 0.062500
vt 0.125000 0.062500
vt 0.125000 0.125000
vt 0.062500 0.125000
vt 0.062500 0.062500
vt 0.125000 0.062500
vt 0.125000 0.125000
vt 0.062500 0.125000
vt 0.125000 -0.000000
vt 0.187500 -0.000000
vt 0.187500 0.062500
vt 0.125000 0.062500
vt 1.000000 1.000000
vt 0.500000 1.000000
vt 0.500000 0.625000
vt 1.000000 0.625000
vt 1.000000 1.000000
vt 0.500000 1.000000
vt 0.500000 0.625000
vt 1.000000 0.625000
vt 1.000000 1.000000
vt 1.000000 0.625000
vt 0.500000 0.625000
vt 0.500000 1.000000
vt 1.000000 1.000000
vt 1.000000 0.625000
vt 0.500000 0.625000
vt 0.500000 1.000000
vt 1.000000 1.000000
vt 0.500000 1.000000
vt 0.500000 0.625000
vt 1.000000 0.625000
vt 1.000000 1.000000
vt 0.500000 1.000000
vt 0.500000 0.625000
vt 1.000000 0.625000
vt 1.000000 1.000000
vt 1.000000 0.625000
vt 0.500000 0.625000
vt 0.500000 1.000000
vt 1.000000 1.000000
vt 1.000000 0.625000
vt 0.500000 0.625000
vt 0.500000 1.000000
vt 0.500000 1.000000
vt 0.000000 1.000000
vt 0.000000 0.625000
vt 0.500000 0.625000
vt 0.500000 1.000000
vt 0.000000 1.000000
vt 0.000000 0.625000
vt 0.500000 0.625000
vt 0.500000 1.000000
vt 0.500000 0.625000
vt 0.000000 0.625000
vt 0.000000 1.000000
vt 0.500000 1.000000
vt 0.500000 0.625000
vt 0.000000 0.625000
vt 0.000000 1.000000
vt 0.500000 1.000000
vt 0.000000 1.000000
vt 0.000000 0.625000
vt 0.500000 0.625000
vt 0.500000 1.000000
vt 0.000000 1.000000
vt 0.000000 0.625000
vt 0.500000 0.625000
vt 0.500000 1.000000
vt 0.500000 0.625000
vt 0.000000 0.625000
vt 0.000000 1.000000
vt 0.500000 1.000000
vt 0.500000 0.625000
vt 0.000000 0.625000
vt 0.000000 1.000000
vn 0.0000 0.0000 -1.0000
vn 1.0000 0.0000 0.0000
vn 0.0000 0.0000 1.0000
vn 0.0000 1.0000 0.0000
vn -1.0000 0.0000 0.0000
vn 0.7071 0.0000 0.7071
vn -0.7071 0.0000 0.7071
vn -0.7071 0.0000 -0.7071
vn 0.7071 0.0000 -0.7071
usemtl TERRARIUM_PLAINS
s off
f 3/1/1 4/2/1 8/3/1 7/4/1
f 7/5/2 8/6/2 6/7/2 5/8/2
f 5/9/3 6/10/3 2/11/3 1/12/3
f 8/13/4 4/14/4 2/15/4 6/16/4
f 12/17/4 10/18/4 9/19/4 11/20/4
f 16/21/4 14/22/4 13/23/4 15/24/4
f 20/25/4 18/26/4 17/27/4 19/28/4
f 14/29/4 26/30/4 25/31/4 13/32/4
f 18/26/4 21/33/4 28/34/4 17/27/4
f 25/35/4 23/36/4 22/37/4 21/38/4
f 26/39/4 24/40/4 23/41/4 25/42/4
f 21/43/4 22/44/4 27/45/4 28/46/4
f 29/47/5 30/48/5 32/49/5 31/50/5
f 31/51/1 32/52/1 36/53/1 35/54/1
f 35/55/2 36/56/2 34/57/2 33/58/2
f 36/59/4 32/60/4 30/61/4 34/62/4
f 37/63/5 38/64/5 40/65/5 39/66/5
f 39/67/1 40/68/1 44/69/1 43/70/1
f 43/71/2 44/72/2 42/73/2 41/74/2
f 41/75/3 42/76/3 38/77/3 37/78/3
f 44/79/4 40/80/4 38/81/4 42/82/4
f 45/83/5 46/84/5 48/85/5 47/86/5
f 47/87/1 48/88/1 50/89/1 49/90/1
f 50/91/4 48/92/4 46/93/4 64/94/4
f 51/95/5 52/96/5 54/97/5 53/98/5
f 53/99/1 54/100/1 58/101/1 57/102/1
f 57/103/2 58/104/2 56/105/2 55/106/2
f 55/107/3 56/108/3 52/109/3 51/110/3
f 58/111/4 54/112/4 52/109/4 56/108/4
f 59/113/5 60/114/5 46/115/5 45/116/5
f 63/117/2 64/118/2 62/119/2 61/120/2
f 61/121/3 62/122/3 60/123/3 59/124/3
f 64/125/4 46/126/4 60/127/4 62/128/4
f 65/129/3 66/130/3 68/131/3 67/132/3
f 69/133/3 70/134/3 72/135/3 71/136/3
f 73/137/2 74/138/2 76/139/2 75/140/2
f 77/141/2 78/142/2 80/143/2 79/144/2
f 81/145/1 82/146/1 84/147/1 83/148/1
f 85/149/1 86/150/1 88/151/1 87/152/1
f 90/153/6 96/154/6 93/155/6 89/156/6
f 94/157/7 95/158/7 92/159/7 91/160/7
f 98/161/8 97/162/8 101/163/8 104/164/8
f 102/165/9 99/166/9 100/167/9 103/168/9
f 106/169/6 112/170/6 109/171/6 105/172/6
f 110/173/7 111/174/7 108/175/7 107/176/7
f 114/177/8 113/178/8 117/179/8 120/180/8
f 118/181/9 115/182/9 116/183/9 119/184/9
f 122/185/6 128/186/6 125/187/6 121/188/6
f 126/189/7 127/190/7 124/191/7 123/192/7
f 130/193/8 129/194/8 133/195/8 136/196/8
f 134/197/9 131/198/9 132/199/9 135/200/9
f 138/201/6 144/202/6 141/203/6 137/204/6
f 142/205/7 143/206/7 140/207/7 139/208/7
f 146/209/8 145/210/8 149/211/8 152/212/8
f 150/213/9 147/214/9 148/215/9 151/216/9
o TERRARIUM_GLASS_Cube.002
v 0.156250 0.250000 0.843750
v 0.156250 0.875000 0.781250
v 0.156250 0.250000 0.156250
v 0.218750 0.875000 0.156250
v 0.843750 0.250000 0.843750
v 0.843750 0.875000 0.781250
v 0.843750 0.250000 0.156250
v 0.843750 0.875000 0.218750
v 0.781250 0.875000 0.156250
v 0.843750 0.312500 0.781250
v 0.843750 0.312500 0.218750
v 0.781250 0.875000 0.843750
v 0.156250 0.875000 0.218750
v 0.781250 0.312500 0.156250
v 0.218750 0.312500 0.156250
v 0.781250 0.937500 0.218750
v 0.156250 0.312500 0.218750
v 0.156250 0.312500 0.781250
v 0.218750 0.875000 0.843750
v 0.218750 0.937500 0.218750
v 0.218750 0.937500 0.781250
v 0.218750 0.312500 0.843750
v 0.781250 0.937500 0.781250
v 0.781250 0.312500 0.843750
v 0.156250 0.937500 0.843750
v 0.156250 0.937500 0.156250
v 0.843750 0.937500 0.156250
v 0.843750 0.937500 0.843750
v 0.156250 0.250000 0.843750
v 0.156250 0.875000 0.781250
v 0.156250 0.250000 0.156250
v 0.218750 0.875000 0.156250
v 0.843750 0.250000 0.843750
v 0.843750 0.875000 0.781250
v 0.843750 0.250000 0.156250
v 0.843750 0.875000 0.218750
v 0.781250 0.875000 0.156250
v 0.843750 0.312500 0.781250
v 0.843750 0.312500 0.218750
v 0.781250 0.875000 0.843750
v 0.156250 0.875000 0.218750
v 0.781250 0.312500 0.156250
v 0.218750 0.312500 0.156250
v 0.781250 0.937500 0.218750
v 0.156250 0.312500 0.218750
v 0.156250 0.312500 0.781250
v 0.218750 0.875000 0.843750
v 0.218750 0.937500 0.218750
v 0.218750 0.937500 0.781250
v 0.218750 0.312500 0.843750
v 0.781250 0.937500 0.781250
v 0.781250 0.312500 0.843750
v 0.156250 0.937500 0.843750
v 0.156250 0.937500 0.156250
v 0.843750 0.937500 0.156250
v 0.843750 0.937500 0.843750
v 0.343750 0.812500 0.843750
v 0.281250 0.812500 0.843750
v 0.281250 0.750000 0.843750
v 0.343750 0.750000 0.843750
v 0.281250 0.625000 0.843750
v 0.343750 0.625000 0.843750
v 0.406250 0.812500 0.843750
v 0.406250 0.750000 0.843750
v 0.656250 0.375000 0.843750
v 0.718750 0.375000 0.843750
v 0.718750 0.437500 0.843750
v 0.656250 0.437500 0.843750
v 0.718750 0.562500 0.843750
v 0.656250 0.562500 0.843750
v 0.593750 0.375000 0.843750
v 0.593750 0.437500 0.843750
v 0.343750 0.937500 0.281250
v 0.281250 0.937500 0.281250
v 0.281250 0.937500 0.343750
v 0.343750 0.937500 0.343750
v 0.281250 0.937500 0.406250
v 0.343750 0.937500 0.406250
v 0.406250 0.937500 0.281250
v 0.406250 0.937500 0.343750
v 0.656250 0.937500 0.718750
v 0.718750 0.937500 0.718750
v 0.718750 0.937500 0.656250
v 0.656250 0.937500 0.656250
v 0.718750 0.937500 0.593750
v 0.656250 0.937500 0.593750
v 0.593750 0.937500 0.718750
v 0.593750 0.937500 0.656250
v 0.843750 0.812500 0.656250
v 0.843750 0.812500 0.718750
v 0.843750 0.750000 0.718750
v 0.843750 0.750000 0.656250
v 0.843750 0.625000 0.718750
v 0.843750 0.625000 0.656250
v 0.843750 0.812500 0.593750
v 0.843750 0.750000 0.593750
v 0.843750 0.375000 0.343750
v 0.843750 0.375000 0.281250
v 0.843750 0.437500 0.281250
v 0.843750 0.437500 0.343750
v 0.843750 0.562500 0.281250
v 0.843750 0.562500 0.343750
v 0.843750 0.375000 0.406250
v 0.843750 0.437500 0.406250
v 0.656250 0.812500 0.156250
v 0.718750 0.812500 0.156250
v 0.718750 0.750000 0.156250
v 0.656250 0.750000 0.156250
v 0.718750 0.625000 0.156250
v 0.656250 0.625000 0.156250
v 0.593750 0.812500 0.156250
v 0.593750 0.750000 0.156250
v 0.343750 0.375000 0.156250
v 0.281250 0.375000 0.156250
v 0.281250 0.437500 0.156250
v 0.343750 0.437500 0.156250
v 0.281250 0.562500 0.156250
v 0.343750 0.562500 0.156250
v 0.406250 0.375000 0.156250
v 0.406250 0.437500 0.156250
v 0.156250 0.812500 0.343750
v 0.156250 0.812500 0.281250
v 0.156250 0.750000 0.281250
v 0.156250 0.750000 0.343750
v 0.156250 0.625000 0.281250
v 0.156250 0.625000 0.343750
v 0.156250 0.812500 0.406250
v 0.156250 0.750000 0.406250
v 0.156250 0.375000 0.656250
v 0.156250 0.375000 0.718750
v 0.156250 0.437500 0.718750
v 0.156250 0.437500 0.656250
v 0.156250 0.562500 0.718750
v 0.156250 0.562500 0.656250
v 0.156250 0.375000 0.593750
v 0.156250 0.437500 0.593750
vt 0.937500 0.875000
vt 0.375000 0.875000
vt 0.312500 0.812500
vt 1.000000 0.812500
vt 0.937500 0.812500
vt 0.375000 0.812500
vt 0.312500 0.750000
vt 1.000000 0.750000
vt 0.375000 0.937500
vt 0.937500 0.937500
vt 1.000000 1.000000
vt 0.312500 1.000000
vt 0.375000 0.875000
vt 0.937500 0.875000
vt 1.000000 0.937500
vt 0.312500 0.937500
vt 0.937500 0.875000
vt 0.375000 0.875000
vt 0.312500 0.812500
vt 1.000000 0.812500
vt 0.937500 0.812500
vt 0.375000 0.812500
vt 0.312500 0.750000
vt 1.000000 0.750000
vt 0.375000 0.937500
vt 0.937500 0.937500
vt 1.000000 1.000000
vt 0.312500 1.000000
vt 0.375000 0.875000
vt 0.937500 0.875000
vt 1.000000 0.937500
vt 0.312500 0.937500
vt 0.937500 0.812500
vt 0.375000 0.812500
vt 0.312500 0.750000
vt 1.000000 0.750000
vt 0.937500 0.875000
vt 0.375000 0.875000
vt 0.312500 0.812500
vt 1.000000 0.812500
vt 0.375000 0.937500
vt 0.937500 0.937500
vt 1.000000 1.000000
vt 0.312500 1.000000
vt 0.375000 0.875000
vt 0.937500 0.875000
vt 1.000000 0.937500
vt 0.312500 0.937500
vt 0.375000 0.875000
vt 0.937500 0.875000
vt 1.000000 0.937500
vt 0.312500 0.937500
vt 0.937500 0.875000
vt 0.375000 0.875000
vt 0.312500 0.812500
vt 1.000000 0.812500
vt 0.937500 0.812500
vt 0.375000 0.812500
vt 0.312500 0.750000
vt 1.000000 0.750000
vt 0.375000 0.937500
vt 0.937500 0.937500
vt 1.000000 1.000000
vt 0.312500 1.000000
vt 0.937500 0.750000
vt 0.375000 0.750000
vt 0.312500 0.687500
vt 1.000000 0.687500
vt 0.937500 0.687500
vt 0.375000 0.687500
vt 0.312500 0.625000
vt 1.000000 0.625000
vt 0.937500 0.750000
vt 0.375000 0.750000
vt 0.312500 0.687500
vt 1.000000 0.687500
vt 0.937500 0.687500
vt 0.375000 0.687500
vt 0.312500 0.625000
vt 1.000000 0.625000
vt 0.937500 0.875000
vt 1.000000 0.812500
vt 0.312500 0.812500
vt 0.375000 0.875000
vt 0.937500 0.812500
vt 1.000000 0.750000
vt 0.312500 0.750000
vt 0.375000 0.812500
vt 0.375000 0.937500
vt 0.312500 1.000000
vt 1.000000 1.000000
vt 0.937500 0.937500
vt 0.375000 0.875000
vt 0.312500 0.937500
vt 1.000000 0.937500
vt 0.937500 0.875000
vt 0.937500 0.875000
vt 1.000000 0.812500
vt 0.312500 0.812500
vt 0.375000 0.875000
vt 0.937500 0.812500
vt 1.000000 0.750000
vt 0.312500 0.750000
vt 0.375000 0.812500
vt 0.375000 0.937500
vt 0.312500 1.000000
vt 1.000000 1.000000
vt 0.937500 0.937500
vt 0.375000 0.875000
vt 0.312500 0.937500
vt 1.000000 0.937500
vt 0.937500 0.875000
vt 0.937500 0.812500
vt 1.000000 0.750000
vt 0.312500 0.750000
vt 0.375000 0.812500
vt 0.937500 0.875000
vt 1.000000 0.812500
vt 0.312500 0.812500
vt 0.375000 0.875000
vt 0.375000 0.937500
vt 0.312500 1.000000
vt 1.000000 1.000000
vt 0.937500 0.937500
vt 0.375000 0.875000
vt 0.312500 0.937500
vt 1.000000 0.937500
vt 0.937500 0.875000
vt 0.375000 0.875000
vt 0.312500 0.937500
vt 1.000000 0.937500
vt 0.937500 0.875000
vt 0.937500 0.875000
vt 1.000000 0.812500
vt 0.312500 0.812500
vt 0.375000 0.875000
vt 0.937500 0.812500
vt 1.000000 0.750000
vt 0.312500 0.750000
vt 0.375000 0.812500
vt 0.375000 0.937500
vt 0.312500 1.000000
vt 1.000000 1.000000
vt 0.937500 0.937500
vt 0.937500 0.750000
vt 1.000000 0.687500
vt 0.312500 0.687500
vt 0.375000 0.750000
vt 0.937500 0.687500
vt 1.000000 0.625000
vt 0.312500 0.625000
vt 0.375000 0.687500
vt 0.937500 0.750000
vt 1.000000 0.687500
vt 0.312500 0.687500
vt 0.375000 0.750000
vt 0.937500 0.687500
vt 1.000000 0.625000
vt 0.312500 0.625000
vt 0.375000 0.687500
vt 0.062500 0.937500
vt 0.000000 0.937500
vt 0.000000 0.812500
vt 0.062500 0.812500
vt 0.062500 1.000000
vt 0.000000 1.000000
vt 0.125000 0.937500
vt 0.125000 1.000000
vt 0.125000 0.875000
vt 0.187500 0.875000
vt 0.187500 1.000000
vt 0.125000 1.000000
vt 0.125000 0.812500
vt 0.187500 0.812500
vt 0.062500 0.875000
vt 0.062500 0.812500
vt 0.250000 0.937500
vt 0.187500 0.937500
vt 0.187500 0.875000
vt 0.250000 0.875000
vt 0.250000 1.000000
vt 0.187500 1.000000
vt 0.312500 0.937500
vt 0.312500 1.000000
vt 0.250000 0.875000
vt 0.312500 0.875000
vt 0.312500 0.937500
vt 0.250000 0.937500
vt 0.250000 0.812500
vt 0.312500 0.812500
vt 0.187500 0.875000
vt 0.187500 0.812500
vt 0.062500 0.937500
vt 0.000000 0.937500
vt 0.000000 0.812500
vt 0.062500 0.812500
vt 0.062500 1.000000
vt 0.000000 1.000000
vt 0.125000 0.937500
vt 0.125000 1.000000
vt 0.125000 0.875000
vt 0.187500 0.875000
vt 0.187500 1.000000
vt 0.125000 1.000000
vt 0.125000 0.812500
vt 0.187500 0.812500
vt 0.062500 0.875000
vt 0.062500 0.812500
vt 0.062500 0.937500
vt 0.000000 0.937500
vt 0.000000 0.812500
vt 0.062500 0.812500
vt 0.062500 1.000000
vt 0.000000 1.000000
vt 0.125000 0.937500
vt 0.125000 1.000000
vt 0.125000 0.875000
vt 0.187500 0.875000
vt 0.187500 1.000000
vt 0.125000 1.000000
vt 0.125000 0.812500
vt 0.187500 0.812500
vt 0.062500 0.875000
vt 0.062500 0.812500
vt 0.062500 0.937500
vt 0.000000 0.937500
vt 0.000000 0.812500
vt 0.062500 0.812500
vt 0.062500 1.000000
vt 0.000000 1.000000
vt 0.125000 0.937500
vt 0.125000 1.000000
vt 0.125000 0.875000
vt 0.187500 0.875000
vt 0.187500 1.000000
vt 0.125000 1.000000
vt 0.125000 0.812500
vt 0.187500 0.812500
vt 0.062500 0.875000
vt 0.062500 0.812500
vn 1.0000 0.0000 0.0000
vn 0.0000 0.0000 -1.0000
vn -1.0000 0.0000 0.0000
vn 0.0000 0.0000 1.0000
vn 0.0000 1.0000 0.0000
vn 0.0000 -1.0000 0.0000
usemtl TERRARIUM_BASE
s off
f 160/217/10 163/218/10 159/219/10 179/220/10
f 163/221/10 162/222/10 157/223/10 159/224/10
f 158/225/10 160/226/10 179/227/10 180/228/10
f 162/229/10 158/230/10 180/231/10 157/232/10
f 156/233/11 167/234/11 155/235/11 178/236/11
f 167/237/11 166/238/11 159/239/11 155/240/11
f 161/241/11 156/242/11 178/243/11 179/244/11
f 166/245/11 161/246/11 179/247/11 159/248/11
f 170/249/12 169/250/12 155/251/12 153/252/12
f 154/253/12 170/254/12 153/255/12 177/256/12
f 165/257/12 154/258/12 177/259/12 178/260/12
f 169/261/12 165/262/12 178/263/12 155/264/12
f 174/265/13 171/266/13 177/267/13 153/268/13
f 164/269/13 176/270/13 157/271/13 180/272/13
f 176/273/13 174/274/13 153/275/13 157/276/13
f 171/277/13 164/278/13 180/279/13 177/280/13
f 173/281/14 172/282/14 178/283/14 177/284/14
f 172/285/14 168/286/14 179/287/14 178/288/14
f 168/289/14 175/290/14 180/291/14 179/292/14
f 175/293/14 173/294/14 177/295/14 180/296/14
f 188/297/12 207/298/12 187/299/12 191/300/12
f 191/301/12 187/302/12 185/303/12 190/304/12
f 186/305/12 208/306/12 207/307/12 188/308/12
f 190/309/12 185/310/12 208/311/12 186/312/12
f 184/313/13 206/314/13 183/315/13 195/316/13
f 195/317/13 183/318/13 187/319/13 194/320/13
f 189/321/13 207/322/13 206/323/13 184/324/13
f 194/325/13 187/326/13 207/327/13 189/328/13
f 198/329/10 181/330/10 183/331/10 197/332/10
f 182/333/10 205/334/10 181/335/10 198/336/10
f 193/337/10 206/338/10 205/339/10 182/340/10
f 197/341/10 183/342/10 206/343/10 193/344/10
f 202/345/11 181/346/11 205/347/11 199/348/11
f 192/349/11 208/350/11 185/351/11 204/352/11
f 204/353/11 185/354/11 181/355/11 202/356/11
f 199/357/11 205/358/11 208/359/11 192/360/11
f 201/361/15 205/362/15 206/363/15 200/364/15
f 200/365/15 206/366/15 207/367/15 196/368/15
f 196/369/15 207/370/15 208/371/15 203/372/15
f 203/373/15 208/374/15 205/375/15 201/376/15
f 212/377/13 211/378/13 213/379/13 214/380/13
f 211/378/13 212/377/13 209/381/13 210/382/13
f 209/381/13 212/377/13 216/383/13 215/384/13
f 220/385/13 219/386/13 221/387/13 222/388/13
f 219/386/13 220/385/13 217/389/13 218/390/13
f 217/389/13 220/385/13 224/391/13 223/392/13
f 228/393/14 227/394/14 229/395/14 230/396/14
f 227/394/14 228/393/14 225/397/14 226/398/14
f 225/397/14 228/393/14 232/399/14 231/400/14
f 236/401/14 235/402/14 237/403/14 238/404/14
f 235/402/14 236/401/14 233/405/14 234/406/14
f 233/405/14 236/401/14 240/407/14 239/408/14
f 244/409/10 243/410/10 245/411/10 246/412/10
f 243/410/10 244/409/10 241/413/10 242/414/10
f 241/413/10 244/409/10 248/415/10 247/416/10
f 252/417/10 251/418/10 253/419/10 254/420/10
f 251/418/10 252/417/10 249/421/10 250/422/10
f 249/421/10 252/417/10 256/423/10 255/424/10
f 260/425/11 259/426/11 261/427/11 262/428/11
f 259/426/11 260/425/11 257/429/11 258/430/11
f 257/429/11 260/425/11 264/431/11 263/432/11
f 268/433/11 267/434/11 269/435/11 270/436/11
f 267/434/11 268/433/11 265/437/11 266/438/11
f 265/437/11 268/433/11 272/439/11 271/440/11
f 276/441/12 275/442/12 277/443/12 278/444/12
f 275/442/12 276/441/12 273/445/12 274/446/12
f 273/445/12 276/441/12 280/447/12 279/448/12
f 284/449/12 283/450/12 285/451/12 286/452/12
f 283/450/12 284/449/12 281/453/12 282/454/12
f 281/453/12 284/449/12 288/455/12 287/456/12
o TERRARIUM_BASE_SMALLER_Cube.015
v 0.125000 0.000000 0.937500
v 0.125000 0.125000 0.937500
v 0.125000 0.000000 0.062500
v 0.125000 0.125000 0.062500
v 0.875000 0.000000 0.937500
v 0.875000 0.125000 0.937500
v 0.875000 0.000000 0.062500
v 0.875000 0.125000 0.062500
v 0.062500 0.000000 0.875000
v 0.062500 0.125000 0.875000
v 0.062500 0.000000 0.125000
v 0.062500 0.125000 0.125000
v 0.937500 0.000000 0.875000
v 0.937500 0.125000 0.875000
v 0.937500 0.000000 0.125000
v 0.937500 0.125000 0.125000
v 0.875000 0.000000 0.125000
v 0.125000 0.000000 0.125000
v 0.125000 0.000000 0.875000
v 0.875000 0.000000 0.875000
v 0.875000 0.187500 0.875000
v 0.125000 0.187500 0.875000
v 0.125000 0.187500 0.125000
v 0.875000 0.187500 0.125000
v 0.125000 0.187500 0.875000
v 0.125000 0.187500 0.125000
v 0.875000 0.187500 0.125000
v 0.875000 0.187500 0.875000
v 0.187500 0.250000 0.812500
v 0.187500 0.250000 0.187500
v 0.812500 0.250000 0.187500
v 0.812500 0.250000 0.812500
v 0.125000 0.250000 0.875000
v 0.125000 0.250000 0.125000
v 0.875000 0.250000 0.125000
v 0.875000 0.250000 0.875000
v 0.250000 0.187500 0.750000
v 0.250000 0.187500 0.250000
v 0.750000 0.187500 0.250000
v 0.750000 0.187500 0.750000
vt 0.875000 0.250000
vt 0.125000 0.250000
vt 0.125000 0.187500
vt 0.875000 0.187500
vt 0.875000 0.000000
vt 0.875000 0.125000
vt 0.125000 0.125000
vt 0.125000 -0.000000
vt 0.875000 0.250000
vt 0.125000 0.250000
vt 0.125000 0.187500
vt 0.875000 0.187500
vt 0.875000 0.000000
vt 0.875000 0.125000
vt 0.125000 0.125000
vt 0.125000 -0.000000
vt 0.875000 0.250000
vt 0.125000 0.250000
vt 0.125000 0.187500
vt 0.875000 0.187500
vt 0.187500 0.000000
vt 0.187500 0.125000
vt 0.812500 0.125000
vt 0.812500 0.000000
vt 0.125000 0.000000
vt 0.125000 0.125000
vt 0.875000 0.125000
vt 0.875000 0.000000
vt 0.812500 0.250000
vt 0.187500 0.250000
vt 0.187500 0.187500
vt 0.812500 0.187500
vt 0.000000 0.062500
vt 0.062500 0.062500
vt 0.000000 0.125000
vt 0.937500 0.000000
vt 0.937500 0.125000
vt 0.062500 0.125000
vt 0.062500 -0.000000
vt 0.000000 0.125000
vt 0.000000 0.062500
vt 0.062500 0.125000
vt 0.062500 0.062500
vt 0.062500 0.125000
vt 0.000000 0.125000
vt 0.937500 0.125000
vt 0.937500 0.000000
vt 0.062500 0.125000
vt 0.062500 -0.000000
vt 0.062500 0.062500
vt 0.062500 0.125000
vt 0.000000 0.062500
vt 0.437500 0.312500
vt 0.437500 0.250000
vt 0.500000 0.250000
vt 0.500000 0.312500
vt 0.125000 0.187500
vt 0.875000 0.187500
vt 0.875000 0.187500
vt 0.187500 0.187500
vt 0.812500 0.187500
vt 0.125000 0.187500
vt 0.875000 0.250000
vt 0.125000 0.250000
vt 0.125000 0.312500
vt 0.875000 0.312500
vt 0.000000 0.812500
vt 0.000000 0.187500
vt 0.062500 0.250000
vt 0.062500 0.750000
vt 0.875000 0.250000
vt 0.875000 0.312500
vt 0.125000 0.250000
vt 0.125000 0.312500
vt 0.187500 0.375000
vt 0.812500 0.375000
vt 0.187500 0.375000
vt 0.812500 0.375000
vt 0.062500 0.312500
vt 0.125000 0.312500
vt 0.125000 0.375000
vt 0.062500 0.375000
vt 0.000000 0.812500
vt 0.000000 0.187500
vt 0.062500 0.250000
vt 0.062500 0.750000
vn 0.0000 -1.0000 0.0000
vn 0.0000 0.0000 -1.0000
vn 0.0000 0.0000 1.0000
vn -1.0000 0.0000 0.0000
vn 1.0000 0.0000 0.0000
vn -0.7071 0.0000 -0.7071
vn -0.7071 0.0000 0.7071
vn 0.7071 0.0000 0.7071
vn 0.7071 0.0000 -0.7071
vn 0.7071 0.7071 0.0000
vn 0.0000 0.7071 -0.7071
vn -0.7071 0.7071 0.0000
vn 0.0000 0.7071 0.7071
vn 0.5774 0.5774 -0.5774
vn -0.5774 0.5774 -0.5774
vn -0.5774 0.5774 0.5774
vn 0.5774 0.5774 0.5774
vn 0.0000 1.0000 0.0000
usemtl TERRARIUM_BASE
s off
f 293/457/16 289/458/16 307/459/16 308/460/16
f 291/461/17 292/462/17 296/463/17 295/464/17
f 291/465/16 295/466/16 305/467/16 306/468/16
f 293/469/18 294/470/18 290/471/18 289/472/18
f 303/473/16 301/474/16 308/475/16 305/476/16
f 297/477/19 298/478/19 300/479/19 299/480/19
f 303/481/20 304/482/20 302/483/20 301/484/20
f 297/485/16 299/486/16 306/487/16 307/488/16
f 306/489/16 299/490/16 291/491/16
f 291/461/21 299/492/21 300/493/21 292/462/21
f 290/471/22 298/494/22 297/495/22 289/472/22
f 307/496/16 289/497/16 297/498/16
f 293/499/16 308/500/16 301/501/16
f 302/502/23 294/470/23 293/469/23 301/503/23
f 304/504/24 303/505/24 295/464/24 296/463/24
f 305/506/16 295/507/16 303/508/16
f 307/509/16 306/510/16 305/511/16 308/512/16
f 302/483/25 304/482/25 315/513/25 316/514/25
f 296/463/26 292/462/26 314/515/26 315/513/26
f 300/479/27 298/478/27 313/516/27 314/517/27
f 290/471/28 294/470/28 316/514/28 313/518/28
f 296/463/29 315/513/29 304/504/29
f 300/493/30 314/515/30 292/462/30
f 290/471/31 313/518/31 298/494/31
f 302/502/32 316/514/32 294/470/32
f 309/519/20 312/520/20 323/521/20 324/522/20
f 318/523/25 317/524/25 325/525/25 326/526/25
f 312/520/17 311/527/17 322/528/17 323/521/17
f 310/529/18 309/519/18 324/522/18 321/530/18
f 311/527/19 310/529/19 321/530/19 322/528/19
f 317/531/33 318/532/33 322/528/33 321/530/33
f 318/532/33 319/533/33 323/521/33 322/528/33
f 320/534/33 317/531/33 321/530/33 324/522/33
f 319/533/33 320/534/33 324/522/33 323/521/33
f 325/535/33 328/536/33 327/537/33 326/538/33
f 320/539/27 319/540/27 327/541/27 328/542/27
f 319/540/28 318/523/28 326/526/28 327/541/28
f 317/524/26 320/539/26 328/542/26 325/525/26
