# Blender v2.80 (sub 75) OBJ File: 'terrariums.blend'
# www.blender.org
mtllib terrarium_end_glass.mtl
o TERRARIUM_GLASS_DARK_Cube.048
v 0.156250 0.250000 0.843750
v 0.156250 0.875000 0.781250
v 0.156250 0.250000 0.156250
v 0.218750 0.875000 0.156250
v 0.843750 0.250000 0.843750
v 0.843750 0.875000 0.781250
v 0.843750 0.250000 0.156250
v 0.843750 0.875000 0.218750
v 0.781250 0.875000 0.156250
v 0.843750 0.312500 0.781250
v 0.843750 0.312500 0.218750
v 0.781250 0.875000 0.843750
v 0.156250 0.875000 0.218750
v 0.781250 0.312500 0.156250
v 0.218750 0.312500 0.156250
v 0.781250 0.937500 0.218750
v 0.156250 0.312500 0.218750
v 0.156250 0.312500 0.781250
v 0.218750 0.875000 0.843750
v 0.218750 0.937500 0.218750
v 0.218750 0.937500 0.781250
v 0.218750 0.312500 0.843750
v 0.781250 0.937500 0.781250
v 0.781250 0.312500 0.843750
v 0.156250 0.937500 0.843750
v 0.156250 0.937500 0.156250
v 0.843750 0.937500 0.156250
v 0.843750 0.937500 0.843750
v 0.843750 0.937500 0.843750
v 0.843750 0.937500 0.156250
v 0.156250 0.937500 0.156250
v 0.156250 0.937500 0.843750
v 0.781250 0.312500 0.843750
v 0.781250 0.937500 0.781250
v 0.218750 0.312500 0.843750
v 0.218750 0.937500 0.781250
v 0.218750 0.937500 0.218750
v 0.218750 0.875000 0.843750
v 0.156250 0.312500 0.781250
v 0.156250 0.312500 0.218750
v 0.781250 0.937500 0.218750
v 0.218750 0.312500 0.156250
v 0.781250 0.312500 0.156250
v 0.156250 0.875000 0.218750
v 0.781250 0.875000 0.843750
v 0.843750 0.312500 0.218750
v 0.843750 0.312500 0.781250
v 0.781250 0.875000 0.156250
v 0.843750 0.875000 0.218750
v 0.843750 0.250000 0.156250
v 0.843750 0.875000 0.781250
v 0.843750 0.250000 0.843750
v 0.218750 0.875000 0.156250
v 0.156250 0.250000 0.156250
v 0.156250 0.875000 0.781250
v 0.156250 0.250000 0.843750
vt 0.937500 0.562500
vt 0.375000 0.562500
vt 0.312500 0.500000
vt 1.000000 0.500000
vt 0.937500 0.562500
vt 0.375000 0.562500
vt 0.312500 0.500000
vt 1.000000 0.500000
vt 0.375000 0.562500
vt 1.000000 0.625000
vt 0.312500 0.625000
vt 0.937500 0.562500
vt 1.000000 0.625000
vt 0.312500 0.625000
vt 0.937500 0.562500
vt 0.375000 0.562500
vt 0.312500 0.500000
vt 1.000000 0.500000
vt 0.937500 0.562500
vt 0.375000 0.562500
vt 1.000000 0.500000
vt 0.375000 0.562500
vt 1.000000 0.625000
vt 0.312500 0.625000
vt 0.937500 0.562500
vt 0.312500 0.625000
vt 0.937500 0.562500
vt 0.375000 0.562500
vt 1.000000 0.500000
vt 0.937500 0.562500
vt 0.375000 0.562500
vt 0.312500 0.500000
vt 1.000000 0.500000
vt 0.375000 0.562500
vt 1.000000 0.625000
vt 0.312500 0.625000
vt 0.937500 0.562500
vt 0.312500 0.625000
vt 0.375000 0.562500
vt 0.937500 0.562500
vt 0.312500 0.625000
vt 0.937500 0.562500
vt 0.375000 0.562500
vt 1.000000 0.500000
vt 0.937500 0.562500
vt 1.000000 0.500000
vt 0.375000 0.562500
vt 0.312500 0.625000
vt 0.937500 0.625000
vt 0.375000 0.625000
vt 0.312500 0.562500
vt 1.000000 0.562500
vt 0.937500 0.625000
vt 0.375000 0.625000
vt 0.312500 0.562500
vt 1.000000 0.562500
vt 0.937500 0.625000
vt 0.375000 0.625000
vt 0.312500 0.562500
vt 1.000000 0.562500
vt 0.937500 0.625000
vt 0.375000 0.625000
vt 0.312500 0.562500
vt 1.000000 0.562500
vt 0.937500 0.625000
vt 1.000000 0.562500
vt 0.312500 0.562500
vt 0.375000 0.625000
vt 0.937500 0.625000
vt 1.000000 0.562500
vt 0.312500 0.562500
vt 0.375000 0.625000
vt 0.937500 0.625000
vt 1.000000 0.562500
vt 0.312500 0.562500
vt 0.375000 0.625000
vt 0.937500 0.625000
vt 1.000000 0.562500
vt 0.312500 0.562500
vt 0.375000 0.625000
vt 0.375000 0.562500
vt 0.312500 0.625000
vt 1.000000 0.625000
vt 0.937500 0.562500
vt 0.937500 0.562500
vt 1.000000 0.500000
vt 0.312500 0.500000
vt 0.375000 0.562500
vt 1.000000 0.500000
vt 0.312500 0.500000
vt 0.375000 0.562500
vt 0.312500 0.625000
vt 1.000000 0.625000
vt 0.937500 0.562500
vt 0.375000 0.562500
vt 0.312500 0.625000
vt 1.000000 0.625000
vt 0.937500 0.562500
vt 0.375000 0.562500
vt 0.312500 0.625000
vt 0.937500 0.562500
vt 1.000000 0.500000
vt 0.375000 0.562500
vt 0.937500 0.562500
vt 1.000000 0.500000
vt 0.312500 0.500000
vt 0.375000 0.562500
vt 0.312500 0.625000
vt 1.000000 0.625000
vt 0.937500 0.562500
vt 0.375000 0.562500
vt 0.312500 0.625000
vt 0.937500 0.562500
vt 0.937500 0.562500
vt 1.000000 0.500000
vt 0.312500 0.500000
vt 1.000000 0.500000
vt 0.375000 0.562500
vt 0.375000 0.562500
vt 0.312500 0.625000
vt 0.937500 0.562500
vt 0.375000 0.562500
vt 0.312500 0.625000
vt 0.937500 0.562500
vt 0.937500 0.562500
vt 1.000000 0.500000
vt 1.000000 0.500000
vt 0.375000 0.562500
vt 0.875000 0.250000
vt 0.937500 0.250000
vt 0.937500 0.312500
vt 0.875000 0.312500
vt 0.875000 0.250000
vt 0.937500 0.250000
vt 0.937500 0.312500
vt 0.875000 0.312500
vt 0.875000 0.250000
vt 0.937500 0.250000
vt 0.937500 0.312500
vt 0.875000 0.312500
vt 0.875000 0.250000
vt 0.937500 0.250000
vt 0.937500 0.312500
vt 0.875000 0.312500
vt 0.937500 0.250000
vt 0.937500 0.312500
vt 0.875000 0.312500
vt 0.875000 0.250000
vn 1.0000 0.0000 0.0000
vn 0.0000 0.0000 -1.0000
vn -1.0000 0.0000 0.0000
vn 0.0000 0.0000 1.0000
vn 0.0000 1.0000 0.0000
vn 0.0000 -1.0000 0.0000
usemtl TERRARIUM_BASE
s off
f 8/1/1 11/2/1 7/3/1 27/4/1
f 11/5/1 10/6/1 5/7/1 7/8/1
f 6/9/1 8/1/1 27/10/1 28/11/1
f 10/6/1 6/12/1 28/13/1 5/14/1
f 4/15/2 15/16/2 3/17/2 26/18/2
f 15/19/2 14/20/2 7/3/2 3/21/2
f 9/22/2 4/15/2 26/23/2 27/24/2
f 14/20/2 9/25/2 27/10/2 7/26/2
f 18/27/3 17/28/3 3/17/3 1/29/3
f 2/30/3 18/31/3 1/32/3 25/33/3
f 13/34/3 2/30/3 25/35/3 26/36/3
f 17/28/3 13/37/3 26/23/3 3/38/3
f 22/39/4 19/40/4 25/35/4 1/41/4
f 12/42/4 24/43/4 5/7/4 28/44/4
f 24/45/4 22/39/4 1/32/4 5/46/4
f 19/47/4 12/42/4 28/13/4 25/48/4
f 21/49/5 20/50/5 26/51/5 25/52/5
f 20/53/5 16/54/5 27/55/5 26/56/5
f 16/57/5 23/58/5 28/59/5 27/60/5
f 23/61/5 21/62/5 25/63/5 28/64/5
f 34/65/6 29/66/6 32/67/6 36/68/6
f 41/69/6 30/70/6 29/71/6 34/72/6
f 37/73/6 31/74/6 30/75/6 41/76/6
f 36/77/6 32/78/6 31/79/6 37/80/6
f 38/81/2 32/82/2 29/83/2 45/84/2
f 33/85/2 52/86/2 56/87/2 35/88/2
f 45/84/2 29/89/2 52/90/2 33/91/2
f 35/88/2 56/92/2 32/93/2 38/94/2
f 40/95/1 54/96/1 31/97/1 44/98/1
f 44/99/1 31/100/1 32/93/1 55/101/1
f 55/101/1 32/102/1 56/87/1 39/103/1
f 39/104/1 56/105/1 54/106/1 40/95/1
f 43/107/4 50/108/4 30/109/4 48/110/4
f 48/111/4 30/112/4 31/97/4 53/113/4
f 42/114/4 54/115/4 50/116/4 43/107/4
f 53/113/4 31/117/4 54/106/4 42/118/4
f 47/119/3 52/120/3 29/83/3 51/121/3
f 51/122/3 29/123/3 30/109/3 49/124/3
f 46/125/3 50/126/3 52/90/3 47/119/3
f 49/124/3 30/127/3 50/116/3 46/128/3
f 22/129/4 24/130/4 12/131/4 19/132/4
f 10/133/1 11/134/1 8/135/1 6/136/1
f 14/137/2 15/138/2 4/139/2 9/140/2
f 17/141/3 18/142/3 2/143/3 13/144/3
f 21/145/5 23/146/5 16/147/5 20/148/5
