# Blender v2.80 (sub 75) OBJ File: 'terrariums.blend'
# www.blender.org
mtllib terrarium_hells_inventory.mtl
o TERRAIN_HELLS_Cube.034
v 0.468750 0.203125 0.656250
v 0.468750 0.265625 0.656250
v 0.468750 0.203125 0.468750
v 0.468750 0.265625 0.468750
v 0.656250 0.203125 0.656250
v 0.656250 0.265625 0.656250
v 0.656250 0.203125 0.468750
v 0.656250 0.265625 0.468750
v 0.781250 0.781250 0.406250
v 0.218750 0.781250 0.781250
v 0.218750 0.781250 0.593750
v 0.218750 0.781250 0.406250
v 0.406250 0.781250 0.593750
v 0.781250 0.781250 0.781250
v 0.781250 0.781250 0.218750
v 0.406250 0.781250 0.218750
v 0.218750 0.781250 0.218750
v 0.406250 0.203125 0.468750
v 0.406250 0.265625 0.468750
v 0.406250 0.203125 0.281250
v 0.406250 0.265625 0.281250
v 0.593750 0.203125 0.468750
v 0.593750 0.265625 0.468750
v 0.593750 0.203125 0.281250
v 0.593750 0.265625 0.281250
v 0.343750 0.234375 0.687500
v 0.343750 0.296875 0.687500
v 0.343750 0.234375 0.500000
v 0.343750 0.296875 0.500000
v 0.531250 0.234375 0.687500
v 0.531250 0.296875 0.687500
v 0.531250 0.234375 0.500000
v 0.531250 0.296875 0.500000
v 0.218750 0.203125 0.531250
v 0.218750 0.265625 0.531250
v 0.218750 0.203125 0.343750
v 0.218750 0.265625 0.343750
v 0.406250 0.203125 0.343750
v 0.406250 0.265625 0.343750
v 0.281250 0.265625 0.593750
v 0.281250 0.328125 0.593750
v 0.281250 0.265625 0.406250
v 0.281250 0.328125 0.406250
v 0.468750 0.265625 0.593750
v 0.468750 0.328125 0.593750
v 0.468750 0.265625 0.406250
v 0.468750 0.328125 0.406250
v 0.218750 0.203125 0.718750
v 0.218750 0.265625 0.718750
v 0.406250 0.203125 0.718750
v 0.406250 0.265625 0.718750
v 0.406250 0.203125 0.531250
v 0.406250 0.265625 0.531250
v 0.593750 0.781250 0.218750
v 0.406250 0.781250 0.781250
v 0.593750 0.781250 0.593750
v 0.781250 0.781250 0.593750
v 0.593750 0.781250 0.406250
v 0.406250 0.781250 0.406250
v 0.593750 0.781250 0.781250
v 0.343750 0.812500 0.343750
v 0.343750 0.750000 0.343750
v 0.343750 0.812500 0.531250
v 0.343750 0.750000 0.531250
v 0.531250 0.812500 0.343750
v 0.531250 0.750000 0.343750
v 0.531250 0.812500 0.531250
v 0.531250 0.750000 0.531250
v 0.468750 0.750000 0.718750
v 0.468750 0.812500 0.718750
v 0.468750 0.750000 0.531250
v 0.468750 0.812500 0.531250
v 0.593750 0.453125 0.718750
v 0.281250 0.750000 0.718750
v 0.281250 0.812500 0.718750
v 0.781250 0.453125 0.531250
v 0.781250 0.453125 0.718750
v 0.281250 0.750000 0.531250
v 0.281250 0.812500 0.531250
v 0.718750 0.421875 0.468750
v 0.718750 0.484375 0.468750
v 0.718750 0.421875 0.656250
v 0.718750 0.484375 0.656250
v 0.531250 0.421875 0.468750
v 0.531250 0.484375 0.468750
v 0.531250 0.484375 0.656250
v 0.781250 0.453125 0.343750
v 0.593750 0.390625 0.343750
v 0.593750 0.453125 0.343750
v 0.593750 0.453125 0.531250
v 0.593750 0.390625 0.718750
v 0.781250 0.390625 0.531250
v 0.781250 0.390625 0.718750
v 0.781250 0.390625 0.343750
v 0.593750 0.390625 0.531250
v 0.531250 0.421875 0.656250
v 0.437500 0.328125 0.437500
v 0.437500 0.578125 0.437500
v 0.437500 0.328125 0.687500
v 0.187500 0.328125 0.437500
v 0.187500 0.328125 0.687500
v 0.437500 0.578125 0.687500
v 0.187500 0.578125 0.437500
v 0.187500 0.578125 0.687500
v 0.437500 0.328125 0.437500
v 0.437500 0.578125 0.437500
v 0.437500 0.328125 0.687500
v 0.187500 0.328125 0.437500
v 0.187500 0.328125 0.687500
v 0.437500 0.578125 0.687500
v 0.187500 0.578125 0.437500
v 0.187500 0.578125 0.687500
v 0.875000 0.453125 0.562500
v 0.875000 0.703125 0.562500
v 0.875000 0.453125 0.812500
v 0.625000 0.453125 0.562500
v 0.625000 0.453125 0.812500
v 0.875000 0.703125 0.812500
v 0.625000 0.703125 0.562500
v 0.625000 0.703125 0.812500
v 0.875000 0.453125 0.562500
v 0.875000 0.703125 0.562500
v 0.875000 0.453125 0.812500
v 0.625000 0.453125 0.562500
v 0.625000 0.453125 0.812500
v 0.875000 0.703125 0.812500
v 0.625000 0.703125 0.562500
v 0.625000 0.703125 0.812500
v 0.562500 0.265625 0.187500
v 0.562500 0.515625 0.187500
v 0.562500 0.265625 0.437500
v 0.312500 0.265625 0.187500
v 0.312500 0.265625 0.437500
v 0.562500 0.515625 0.437500
v 0.312500 0.515625 0.187500
v 0.312500 0.515625 0.437500
v 0.562500 0.265625 0.187500
v 0.562500 0.515625 0.187500
v 0.562500 0.265625 0.437500
v 0.312500 0.265625 0.187500
v 0.312500 0.265625 0.437500
v 0.562500 0.515625 0.437500
v 0.312500 0.515625 0.187500
v 0.312500 0.515625 0.437500
v 0.750000 0.453125 0.250000
v 0.750000 0.703125 0.250000
v 0.750000 0.453125 0.500000
v 0.500000 0.453125 0.250000
v 0.500000 0.453125 0.500000
v 0.750000 0.703125 0.500000
v 0.500000 0.703125 0.250000
v 0.500000 0.703125 0.500000
v 0.750000 0.453125 0.250000
v 0.750000 0.703125 0.250000
v 0.750000 0.453125 0.500000
v 0.500000 0.453125 0.250000
v 0.500000 0.453125 0.500000
v 0.750000 0.703125 0.500000
v 0.500000 0.703125 0.250000
v 0.500000 0.703125 0.500000
v 0.250500 0.234375 0.312475
v 0.250500 0.796875 0.312475
v 0.250500 0.234375 0.249975
v 0.250500 0.796875 0.249975
v 0.313000 0.234375 0.312475
v 0.313000 0.796875 0.312475
v 0.313000 0.234375 0.249975
v 0.313000 0.796875 0.249975
v 0.688000 0.234375 0.624975
v 0.688000 0.421875 0.624975
v 0.688000 0.234375 0.562475
v 0.688000 0.421875 0.562475
v 0.750500 0.234375 0.624975
v 0.750500 0.421875 0.624975
v 0.750500 0.234375 0.562475
v 0.750500 0.421875 0.562475
v 0.594250 0.234375 0.281225
v 0.594250 0.796875 0.281225
v 0.594250 0.234375 0.218725
v 0.594250 0.796875 0.218725
v 0.656750 0.234375 0.281225
v 0.656750 0.796875 0.281225
v 0.656750 0.234375 0.218725
v 0.656750 0.796875 0.218725
vt 0.187500 0.375000
vt 0.187500 0.437500
vt 0.000000 0.437500
vt 0.000000 0.375000
vt 0.187500 0.375000
vt 0.187500 0.437500
vt 0.000000 0.437500
vt 0.000000 0.375000
vt 0.187500 0.375000
vt 0.187500 0.437500
vt 0.000000 0.437500
vt 0.000000 0.375000
vt 0.000000 0.250000
vt 0.187500 0.250000
vt 0.187500 0.437500
vt 0.187500 0.250000
vt 0.187500 0.437500
vt 0.000000 0.437500
vt 0.000000 0.250000
vt 0.187500 0.250000
vt 0.187500 0.437500
vt 0.000000 0.437500
vt 0.000000 0.250000
vt 0.187500 0.375000
vt 0.187500 0.437500
vt 0.000000 0.437500
vt 0.000000 0.375000
vt 0.187500 0.375000
vt 0.187500 0.437500
vt 0.000000 0.437500
vt 0.000000 0.375000
vt 0.187500 0.375000
vt 0.187500 0.437500
vt 0.000000 0.437500
vt 0.000000 0.375000
vt 0.187500 0.250000
vt 0.375000 0.250000
vt 0.375000 0.437500
vt 0.187500 0.437500
vt 0.187500 0.406250
vt 0.187500 0.468750
vt 0.000000 0.468750
vt 0.000000 0.406250
vt 0.187500 0.406250
vt 0.187500 0.468750
vt 0.000000 0.468750
vt 0.000000 0.406250
vt 0.187500 0.406250
vt 0.187500 0.468750
vt 0.000000 0.468750
vt 0.000000 0.406250
vt 0.187500 0.406250
vt 0.187500 0.468750
vt 0.000000 0.468750
vt 0.000000 0.406250
vt 0.187500 0.437500
vt 0.187500 0.625000
vt 0.000000 0.625000
vt 0.000000 0.437500
vt 0.187500 0.406250
vt 0.187500 0.468750
vt 0.000000 0.468750
vt 0.000000 0.406250
vt 0.187500 0.406250
vt 0.187500 0.468750
vt 0.000000 0.468750
vt 0.000000 0.406250
vt 0.187500 0.625000
vt 0.000000 0.625000
vt 0.000000 0.437500
vt 0.187500 0.437500
vt 0.187500 0.406250
vt 0.187500 0.468750
vt 0.000000 0.468750
vt 0.000000 0.406250
vt 0.187500 0.406250
vt 0.187500 0.468750
vt 0.000000 0.468750
vt 0.000000 0.406250
vt 0.187500 0.406250
vt 0.187500 0.468750
vt 0.000000 0.468750
vt 0.000000 0.406250
vt 0.187500 0.406250
vt 0.187500 0.468750
vt 0.000000 0.468750
vt 0.000000 0.406250
vt 0.187500 0.625000
vt 0.000000 0.625000
vt 0.000000 0.437500
vt 0.187500 0.437500
vt 0.187500 0.406250
vt 0.187500 0.468750
vt 0.000000 0.468750
vt 0.000000 0.406250
vt 0.187500 0.406250
vt 0.187500 0.468750
vt 0.000000 0.468750
vt 0.000000 0.406250
vt 0.187500 0.406250
vt 0.187500 0.468750
vt 0.000000 0.468750
vt 0.000000 0.406250
vt 0.000000 0.437500
vt 0.187500 0.437500
vt 0.187500 0.625000
vt 0.000000 0.625000
vt 0.187500 0.250000
vt 0.187500 0.437500
vt 0.000000 0.437500
vt 0.000000 0.250000
vt 0.187500 0.250000
vt 0.375000 0.250000
vt 0.375000 0.437500
vt 0.187500 0.437500
vt 0.187500 0.250000
vt 0.187500 0.437500
vt 0.000000 0.437500
vt 0.000000 0.250000
vt 0.375000 0.437500
vt 0.187500 0.437500
vt 0.187500 0.250000
vt 0.375000 0.250000
vt 0.187500 0.250000
vt 0.187500 0.437500
vt 0.000000 0.437500
vt 0.000000 0.250000
vt 0.375000 0.250000
vt 0.375000 0.437500
vt 0.187500 0.250000
vt 0.187500 0.437500
vt 0.000000 0.437500
vt 0.000000 0.250000
vt 0.375000 0.250000
vt 0.375000 0.312500
vt 0.187500 0.312500
vt 0.187500 0.250000
vt 0.375000 0.250000
vt 0.375000 0.312500
vt 0.187500 0.312500
vt 0.187500 0.250000
vt 0.375000 0.250000
vt 0.375000 0.312500
vt 0.187500 0.312500
vt 0.187500 0.250000
vt 0.375000 0.250000
vt 0.375000 0.312500
vt 0.187500 0.312500
vt 0.187500 0.250000
vt 0.187500 0.437500
vt 0.000000 0.437500
vt 0.000000 0.250000
vt 0.187500 0.250000
vt 0.375000 0.437500
vt 0.187500 0.437500
vt 0.187500 0.250000
vt 0.375000 0.250000
vt 0.375000 0.250000
vt 0.375000 0.312500
vt 0.187500 0.312500
vt 0.187500 0.250000
vt 0.375000 0.250000
vt 0.375000 0.312500
vt 0.187500 0.312500
vt 0.187500 0.250000
vt 0.375000 0.250000
vt 0.375000 0.312500
vt 0.187500 0.312500
vt 0.187500 0.250000
vt 0.375000 0.250000
vt 0.375000 0.312500
vt 0.187500 0.312500
vt 0.187500 0.250000
vt 0.375000 0.406250
vt 0.375000 0.468750
vt 0.187500 0.468750
vt 0.187500 0.406250
vt 0.375000 0.406250
vt 0.375000 0.468750
vt 0.187500 0.468750
vt 0.187500 0.406250
vt 0.375000 0.406250
vt 0.375000 0.468750
vt 0.187500 0.468750
vt 0.187500 0.406250
vt 0.375000 0.625000
vt 0.187500 0.625000
vt 0.187500 0.437500
vt 0.375000 0.437500
vt 0.375000 0.406250
vt 0.375000 0.468750
vt 0.187500 0.468750
vt 0.187500 0.406250
vt 0.375000 0.406250
vt 0.375000 0.468750
vt 0.187500 0.468750
vt 0.187500 0.406250
vt 0.375000 0.406250
vt 0.375000 0.468750
vt 0.187500 0.468750
vt 0.187500 0.406250
vt 0.375000 0.406250
vt 0.375000 0.468750
vt 0.187500 0.468750
vt 0.187500 0.406250
vt 0.375000 0.625000
vt 0.187500 0.625000
vt 0.187500 0.437500
vt 0.375000 0.437500
vt 0.187500 0.406250
vt 0.187500 0.468750
vt 0.375000 0.406250
vt 0.375000 0.468750
vt 0.187500 0.468750
vt 0.187500 0.406250
vt 0.375000 0.406250
vt 0.375000 0.468750
vt 0.375000 0.625000
vt 0.187500 0.625000
vt 0.187500 0.437500
vt 0.187500 0.437500
vt 0.187500 0.250000
vt 0.000000 0.250000
vt 0.000000 0.437500
vt 0.000000 0.250000
vt 0.000000 0.437500
vt 0.187500 0.437500
vt 0.375000 0.437500
vt 0.375000 0.250000
vt 0.187500 0.250000
vt 0.187500 0.437500
vt 0.500000 1.000000
vt 0.000000 1.000000
vt 0.000000 0.625000
vt 0.500000 0.625000
vt 0.500000 1.000000
vt 0.000000 1.000000
vt 0.000000 0.625000
vt 0.500000 0.625000
vt 0.500000 1.000000
vt 0.500000 0.625000
vt 0.000000 0.625000
vt 0.000000 1.000000
vt 0.500000 1.000000
vt 0.500000 0.625000
vt 0.000000 0.625000
vt 0.000000 1.000000
vt 1.000000 1.000000
vt 0.500000 1.000000
vt 0.500000 0.625000
vt 1.000000 0.625000
vt 1.000000 1.000000
vt 0.500000 1.000000
vt 0.500000 0.625000
vt 1.000000 0.625000
vt 1.000000 1.000000
vt 1.000000 0.625000
vt 0.500000 0.625000
vt 0.500000 1.000000
vt 1.000000 1.000000
vt 1.000000 0.625000
vt 0.500000 0.625000
vt 0.500000 1.000000
vt 0.500000 1.000000
vt 0.000000 1.000000
vt 0.000000 0.625000
vt 0.500000 0.625000
vt 0.500000 1.000000
vt 0.000000 1.000000
vt 0.000000 0.625000
vt 0.500000 0.625000
vt 0.500000 1.000000
vt 0.500000 0.625000
vt 0.000000 0.625000
vt 0.000000 1.000000
vt 0.500000 1.000000
vt 0.500000 0.625000
vt 0.000000 0.625000
vt 0.000000 1.000000
vt 1.000000 1.000000
vt 0.500000 1.000000
vt 0.500000 0.625000
vt 1.000000 0.625000
vt 1.000000 1.000000
vt 0.500000 1.000000
vt 0.500000 0.625000
vt 1.000000 0.625000
vt 1.000000 1.000000
vt 1.000000 0.625000
vt 0.500000 0.625000
vt 0.500000 1.000000
vt 1.000000 1.000000
vt 1.000000 0.625000
vt 0.500000 0.625000
vt 0.500000 1.000000
vt 0.062500 0.062500
vt 0.062500 0.625000
vt 0.000000 0.625000
vt 0.000000 0.062500
vt 0.250000 0.062500
vt 0.250000 0.625000
vt 0.187500 0.625000
vt 0.187500 0.062500
vt 0.125000 0.625000
vt 0.125000 0.062500
vt 0.375000 0.812500
vt 0.375000 1.000000
vt 0.312500 1.000000
vt 0.312500 0.812500
vt 0.562500 0.812500
vt 0.562500 1.000000
vt 0.500000 1.000000
vt 0.500000 0.812500
vt 0.437500 1.000000
vt 0.437500 0.812500
vt 0.687500 0.125000
vt 0.687500 0.687500
vt 0.625000 0.687500
vt 0.625000 0.125000
vt 0.875000 0.125000
vt 0.875000 0.687500
vt 0.812500 0.687500
vt 0.812500 0.125000
vt 0.750000 0.687500
vt 0.750000 0.125000
vn -0.0000 0.0000 -1.0000
vn 1.0000 0.0000 -0.0000
vn 0.0000 0.0000 1.0000
vn 0.0000 1.0000 0.0000
vn 0.0000 -1.0000 0.0000
vn -1.0000 0.0000 0.0000
vn 0.7071 0.0000 0.7071
vn -0.7071 0.0000 0.7071
vn -0.7071 0.0000 -0.7071
vn 0.7071 0.0000 -0.7071
usemtl TERRARIUM_HELLS
s off
f 3/1/1 4/2/1 8/3/1 7/4/1
f 7/5/2 8/6/2 6/7/2 5/8/2
f 5/9/3 6/10/3 2/11/3 1/12/3
f 8/13/4 4/14/4 2/15/4 6/7/4
f 58/16/5 59/17/5 16/18/5 54/19/5
f 9/20/5 58/21/5 54/22/5 15/23/5
f 18/24/6 19/25/6 21/26/6 20/27/6
f 20/28/1 21/29/1 25/30/1 24/31/1
f 24/32/2 25/33/2 23/34/2 22/35/2
f 25/36/4 21/37/4 19/38/4 23/39/4
f 26/40/6 27/41/6 29/42/6 28/43/6
f 28/44/1 29/45/1 33/46/1 32/47/1
f 32/48/2 33/49/2 31/50/2 30/51/2
f 30/52/3 31/53/3 27/54/3 26/55/3
f 33/56/4 29/57/4 27/58/4 31/59/4
f 34/60/6 35/61/6 37/62/6 36/63/6
f 36/64/1 37/65/1 39/66/1 38/67/1
f 39/68/4 37/69/4 35/70/4 53/71/4
f 40/72/6 41/73/6 43/74/6 42/75/6
f 42/76/1 43/77/1 47/78/1 46/79/1
f 46/80/2 47/81/2 45/82/2 44/83/2
f 44/84/3 45/85/3 41/86/3 40/87/3
f 47/88/4 43/89/4 41/90/4 45/91/4
f 48/92/6 49/93/6 35/94/6 34/95/6
f 52/96/2 53/97/2 51/98/2 50/99/2
f 50/100/3 51/101/3 49/102/3 48/103/3
f 53/104/4 35/105/4 49/106/4 51/107/4
f 59/108/5 12/109/5 17/110/5 16/111/5
f 60/112/5 55/113/5 13/114/5 56/115/5
f 14/116/5 60/117/5 56/118/5 57/119/5
f 55/120/5 10/121/5 11/122/5 13/123/5
f 13/124/5 11/125/5 12/126/5 59/127/5
f 57/128/5 56/129/5 58/21/5 9/20/5
f 56/130/5 13/131/5 59/132/5 58/133/5
f 61/134/6 62/135/6 64/136/6 63/137/6
f 63/138/3 64/139/3 68/140/3 67/141/3
f 67/142/2 68/143/2 66/144/2 65/145/2
f 65/146/1 66/147/1 62/148/1 61/149/1
f 68/150/5 64/151/5 62/152/5 66/153/5
f 69/154/5 74/155/5 78/156/5 71/157/5
f 72/158/1 71/159/1 78/160/1 79/161/1
f 70/162/2 69/163/2 71/164/2 72/165/2
f 75/166/3 74/167/3 69/168/3 70/169/3
f 79/170/6 78/171/6 74/172/6 75/173/6
f 91/174/6 73/175/6 90/176/6 95/177/6
f 92/178/2 76/179/2 77/180/2 93/181/2
f 93/182/3 77/183/3 73/184/3 91/185/3
f 73/186/4 77/187/4 76/188/4 90/189/4
f 80/190/2 81/191/2 83/192/2 82/193/2
f 82/194/3 83/195/3 86/196/3 96/197/3
f 96/198/6 86/199/6 85/200/6 84/201/6
f 84/202/1 85/203/1 81/204/1 80/205/1
f 86/206/4 83/207/4 81/208/4 85/209/4
f 94/210/2 87/211/2 76/179/2 92/178/2
f 95/212/6 90/213/6 89/214/6 88/215/6
f 88/216/1 89/217/1 87/211/1 94/210/1
f 90/189/4 76/218/4 87/219/4 89/220/4
f 91/221/5 95/222/5 92/223/5 93/224/5
f 95/222/5 88/225/5 94/226/5 92/227/5
f 96/228/5 84/229/5 80/230/5 82/231/5
f 98/232/7 104/233/7 101/234/7 97/235/7
f 102/236/8 103/237/8 100/238/8 99/239/8
f 106/240/9 105/241/9 109/242/9 112/243/9
f 110/244/10 107/245/10 108/246/10 111/247/10
f 114/248/7 120/249/7 117/250/7 113/251/7
f 118/252/8 119/253/8 116/254/8 115/255/8
f 122/256/9 121/257/9 125/258/9 128/259/9
f 126/260/10 123/261/10 124/262/10 127/263/10
f 130/264/7 136/265/7 133/266/7 129/267/7
f 134/268/8 135/269/8 132/270/8 131/271/8
f 138/272/9 137/273/9 141/274/9 144/275/9
f 142/276/10 139/277/10 140/278/10 143/279/10
f 146/280/7 152/281/7 149/282/7 145/283/7
f 150/284/8 151/285/8 148/286/8 147/287/8
f 154/288/9 153/289/9 157/290/9 160/291/9
f 158/292/10 155/293/10 156/294/10 159/295/10
usemtl LAVA
f 161/296/6 162/297/6 164/298/6 163/299/6
f 163/300/1 164/301/1 168/302/1 167/303/1
f 167/303/2 168/302/2 166/304/2 165/305/2
f 165/305/3 166/304/3 162/297/3 161/296/3
f 169/306/6 170/307/6 172/308/6 171/309/6
f 171/310/1 172/311/1 176/312/1 175/313/1
f 175/313/2 176/312/2 174/314/2 173/315/2
f 173/315/3 174/314/3 170/307/3 169/306/3
f 177/316/6 178/317/6 180/318/6 179/319/6
f 179/320/1 180/321/1 184/322/1 183/323/1
f 183/323/2 184/322/2 182/324/2 181/325/2
f 181/325/3 182/324/3 178/317/3 177/316/3
o TERRAIN_HELLS_LAVA_Plane.002
v 0.187500 0.234375 0.812500
v 0.812500 0.234375 0.812500
v 0.187500 0.234375 0.187500
v 0.812500 0.234375 0.187500
vt 0.187500 0.812500
vt 0.812500 0.812500
vt 0.812500 0.187500
vt 0.187500 0.187500
vn 0.0000 1.0000 0.0000
usemtl LAVA
s off
f 188/326/11 187/327/11 185/328/11 186/329/11
o TERRARIUM_BASE_SMALLER_Cube.015
v 0.125000 0.000000 0.937500
v 0.125000 0.125000 0.937500
v 0.125000 0.000000 0.062500
v 0.125000 0.125000 0.062500
v 0.875000 0.000000 0.937500
v 0.875000 0.125000 0.937500
v 0.875000 0.000000 0.062500
v 0.875000 0.125000 0.062500
v 0.062500 0.000000 0.875000
v 0.062500 0.125000 0.875000
v 0.062500 0.000000 0.125000
v 0.062500 0.125000 0.125000
v 0.937500 0.000000 0.875000
v 0.937500 0.125000 0.875000
v 0.937500 0.000000 0.125000
v 0.937500 0.125000 0.125000
v 0.875000 0.000000 0.125000
v 0.125000 0.000000 0.125000
v 0.125000 0.000000 0.875000
v 0.875000 0.000000 0.875000
v 0.875000 0.187500 0.875000
v 0.125000 0.187500 0.875000
v 0.125000 0.187500 0.125000
v 0.875000 0.187500 0.125000
v 0.125000 0.187500 0.875000
v 0.125000 0.187500 0.125000
v 0.875000 0.187500 0.125000
v 0.875000 0.187500 0.875000
v 0.187500 0.250000 0.812500
v 0.187500 0.250000 0.187500
v 0.812500 0.250000 0.187500
v 0.812500 0.250000 0.812500
v 0.125000 0.250000 0.875000
v 0.125000 0.250000 0.125000
v 0.875000 0.250000 0.125000
v 0.875000 0.250000 0.875000
v 0.250000 0.187500 0.750000
v 0.250000 0.187500 0.250000
v 0.750000 0.187500 0.250000
v 0.750000 0.187500 0.750000
vt 0.875000 0.250000
vt 0.125000 0.250000
vt 0.125000 0.187500
vt 0.875000 0.187500
vt 0.875000 0.000000
vt 0.875000 0.125000
vt 0.125000 0.125000
vt 0.125000 -0.000000
vt 0.875000 0.250000
vt 0.125000 0.250000
vt 0.125000 0.187500
vt 0.875000 0.187500
vt 0.875000 0.000000
vt 0.875000 0.125000
vt 0.125000 0.125000
vt 0.125000 -0.000000
vt 0.875000 0.250000
vt 0.125000 0.250000
vt 0.125000 0.187500
vt 0.875000 0.187500
vt 0.125000 -0.000000
vt 0.125000 0.125000
vt 0.875000 0.125000
vt 0.875000 -0.000000
vt 0.125000 0.000000
vt 0.125000 0.125000
vt 0.875000 0.125000
vt 0.875000 0.000000
vt 0.875000 0.250000
vt 0.125000 0.250000
vt 0.125000 0.187500
vt 0.875000 0.187500
vt 0.000000 0.062500
vt 0.062500 0.062500
vt 0.000000 0.125000
vt 0.937500 0.000000
vt 0.937500 0.125000
vt 0.062500 0.125000
vt 0.062500 -0.000000
vt 0.000000 0.125000
vt 0.000000 0.062500
vt 0.062500 0.125000
vt 0.062500 0.062500
vt 0.062500 0.125000
vt 0.000000 0.125000
vt 0.937500 0.125000
vt 0.937500 0.000000
vt 0.062500 0.125000
vt 0.062500 -0.000000
vt 0.062500 0.062500
vt 0.062500 0.125000
vt 0.000000 0.062500
vt 0.125000 0.187500
vt 0.875000 0.187500
vt 0.875000 0.187500
vt 0.125000 0.187500
vt 0.875000 0.250000
vt 0.125000 0.250000
vt 0.125000 0.312500
vt 0.875000 0.312500
vt 0.000000 0.812500
vt 0.000000 0.187500
vt 0.062500 0.250000
vt 0.062500 0.750000
vt 0.875000 0.250000
vt 0.875000 0.312500
vt 0.125000 0.250000
vt 0.125000 0.312500
vt 0.187500 0.375000
vt 0.812500 0.375000
vt 0.187500 0.375000
vt 0.812500 0.375000
vt 0.062500 0.312500
vt 0.125000 0.312500
vt 0.125000 0.375000
vt 0.062500 0.375000
vt 0.000000 0.812500
vt 0.000000 0.187500
vt 0.062500 0.250000
vt 0.062500 0.750000
vt 0.125000 0.875000
vt 0.125000 0.125000
vt 0.875000 0.125000
vt 0.875000 0.875000
vn 0.0000 -1.0000 0.0000
vn 0.0000 0.0000 -1.0000
vn 0.0000 0.0000 1.0000
vn -1.0000 0.0000 0.0000
vn 1.0000 0.0000 0.0000
vn -0.7071 0.0000 -0.7071
vn -0.7071 0.0000 0.7071
vn 0.7071 0.0000 0.7071
vn 0.7071 0.0000 -0.7071
vn 0.7071 0.7071 0.0000
vn 0.0000 0.7071 -0.7071
vn -0.7071 0.7071 0.0000
vn 0.0000 0.7071 0.7071
vn 0.5774 0.5774 -0.5774
vn -0.5774 0.5774 -0.5774
vn -0.5774 0.5774 0.5774
vn 0.5774 0.5774 0.5774
vn 0.0000 1.0000 0.0000
usemtl TERRARIUM_BASE
s off
f 193/330/12 189/331/12 207/332/12 208/333/12
f 191/334/13 192/335/13 196/336/13 195/337/13
f 191/338/12 195/339/12 205/340/12 206/341/12
f 193/342/14 194/343/14 190/344/14 189/345/14
f 203/346/12 201/347/12 208/348/12 205/349/12
f 197/350/15 198/351/15 200/352/15 199/353/15
f 203/354/16 204/355/16 202/356/16 201/357/16
f 197/358/12 199/359/12 206/360/12 207/361/12
f 206/362/12 199/363/12 191/364/12
f 191/334/17 199/365/17 200/366/17 192/335/17
f 190/344/18 198/367/18 197/368/18 189/345/18
f 207/369/12 189/370/12 197/371/12
f 193/372/12 208/373/12 201/374/12
f 202/375/19 194/343/19 193/342/19 201/376/19
f 204/377/20 203/378/20 195/337/20 196/336/20
f 205/379/12 195/380/12 203/381/12
f 202/356/21 204/355/21 215/382/21 216/383/21
f 196/336/22 192/335/22 214/384/22 215/382/22
f 200/352/23 198/351/23 213/385/23 214/384/23
f 190/344/24 194/343/24 216/383/24 213/385/24
f 196/336/25 215/382/25 204/377/25
f 200/366/26 214/384/26 192/335/26
f 190/344/27 213/385/27 198/367/27
f 202/375/28 216/383/28 194/343/28
f 209/386/16 212/387/16 223/388/16 224/389/16
f 218/390/21 217/391/21 225/392/21 226/393/21
f 212/387/13 211/394/13 222/395/13 223/388/13
f 210/396/14 209/386/14 224/389/14 221/397/14
f 211/394/15 210/396/15 221/397/15 222/395/15
f 217/398/29 218/399/29 222/395/29 221/397/29
f 218/399/29 219/400/29 223/388/29 222/395/29
f 220/401/29 217/398/29 221/397/29 224/389/29
f 219/400/29 220/401/29 224/389/29 223/388/29
f 225/402/29 228/403/29 227/404/29 226/405/29
f 220/406/23 219/407/23 227/408/23 228/409/23
f 219/407/24 218/390/24 226/393/24 227/408/24
f 217/391/22 220/406/22 228/409/22 225/392/22
usemtl ARCANE_STONE
f 207/410/12 206/411/12 205/412/12 208/413/12
o TERRARIUM_BASE_SMALLER_LID_Cube.030
v 0.125000 1.000000 0.062500
v 0.125000 0.875000 0.062500
v 0.125000 1.000000 0.937500
v 0.125000 0.875000 0.937500
v 0.875000 1.000000 0.062500
v 0.875000 0.875000 0.062500
v 0.875000 1.000000 0.937500
v 0.875000 0.875000 0.937500
v 0.062500 1.000000 0.125000
v 0.062500 0.875000 0.125000
v 0.062500 1.000000 0.875000
v 0.062500 0.875000 0.875000
v 0.937500 1.000000 0.125000
v 0.937500 0.875000 0.125000
v 0.937500 1.000000 0.875000
v 0.937500 0.875000 0.875000
v 0.875000 1.000000 0.875000
v 0.125000 1.000000 0.125000
v 0.875000 1.000000 0.125000
v 0.875000 0.812500 0.125000
v 0.125000 0.812500 0.125000
v 0.125000 0.812500 0.875000
v 0.875000 0.812500 0.875000
v 0.125000 0.812500 0.125000
v 0.125000 0.812500 0.875000
v 0.875000 0.812500 0.875000
v 0.875000 0.812500 0.125000
v 0.187500 0.750000 0.187500
v 0.187500 0.750000 0.812500
v 0.812500 0.750000 0.812500
v 0.812500 0.750000 0.187500
v 0.125000 0.750000 0.125000
v 0.125000 0.750000 0.875000
v 0.875000 0.750000 0.875000
v 0.875000 0.750000 0.125000
v 0.250000 0.812500 0.250000
v 0.250000 0.812500 0.750000
v 0.750000 0.812500 0.750000
v 0.750000 0.812500 0.250000
v 0.125000 1.000000 0.875000
vt 0.875000 0.250000
vt 0.125000 0.250000
vt 0.125000 0.187500
vt 0.875000 0.187500
vt 0.875000 0.000000
vt 0.875000 0.125000
vt 0.125000 0.125000
vt 0.125000 -0.000000
vt 0.875000 0.250000
vt 0.125000 0.250000
vt 0.125000 0.187500
vt 0.875000 0.187500
vt 0.875000 0.000000
vt 0.875000 0.125000
vt 0.125000 0.125000
vt 0.125000 -0.000000
vt 0.875000 0.250000
vt 0.125000 0.250000
vt 0.125000 0.187500
vt 0.875000 0.187500
vt 0.125000 0.000000
vt 0.125000 0.125000
vt 0.875000 0.125000
vt 0.875000 0.000000
vt 0.125000 0.000000
vt 0.125000 0.125000
vt 0.875000 0.125000
vt 0.875000 0.000000
vt 0.875000 0.250000
vt 0.125000 0.250000
vt 0.125000 0.187500
vt 0.875000 0.187500
vt 0.000000 0.062500
vt 0.062500 0.062500
vt 0.000000 0.125000
vt 0.937500 0.000000
vt 0.937500 0.125000
vt 0.062500 0.125000
vt 0.062500 -0.000000
vt 0.000000 0.125000
vt 0.000000 0.062500
vt 0.062500 0.125000
vt 0.062500 0.062500
vt 0.062500 0.125000
vt 0.000000 0.125000
vt 0.937500 0.125000
vt 0.937500 0.000000
vt 0.062500 0.125000
vt 0.062500 -0.000000
vt 0.062500 0.062500
vt 0.062500 0.125000
vt 0.000000 0.062500
vt 0.125000 0.187500
vt 0.875000 0.187500
vt 0.875000 0.187500
vt 0.125000 0.187500
vt 0.875000 0.250000
vt 0.125000 0.250000
vt 0.125000 0.312500
vt 0.875000 0.312500
vt 0.000000 0.812500
vt 0.000000 0.187500
vt 0.062500 0.250000
vt 0.062500 0.750000
vt 0.875000 0.250000
vt 0.875000 0.312500
vt 0.125000 0.250000
vt 0.125000 0.312500
vt 0.187500 0.375000
vt 0.812500 0.375000
vt 0.187500 0.375000
vt 0.812500 0.375000
vt 0.062500 0.312500
vt 0.125000 0.312500
vt 0.125000 0.375000
vt 0.062500 0.375000
vt 0.000000 0.812500
vt 0.000000 0.187500
vt 0.062500 0.250000
vt 0.062500 0.750000
vt 0.875000 0.125000
vt 0.875000 0.875000
vt 0.125000 0.875000
vt 0.125000 0.125000
vn 0.0000 1.0000 0.0000
vn 0.0000 0.0000 1.0000
vn 0.0000 0.0000 -1.0000
vn -1.0000 0.0000 0.0000
vn 1.0000 0.0000 0.0000
vn -0.7071 0.0000 0.7071
vn -0.7071 0.0000 -0.7071
vn 0.7071 0.0000 -0.7071
vn 0.7071 0.0000 0.7071
vn 0.7071 -0.7071 0.0000
vn 0.0000 -0.7071 0.7071
vn -0.7071 -0.7071 0.0000
vn 0.0000 -0.7071 -0.7071
vn 0.5774 -0.5774 0.5774
vn -0.5774 -0.5774 0.5774
vn -0.5774 -0.5774 -0.5774
vn 0.5774 -0.5774 -0.5774
vn 0.0000 -1.0000 0.0000
usemtl TERRARIUM_BASE
s off
f 233/414/30 229/415/30 246/416/30 247/417/30
f 231/418/31 232/419/31 236/420/31 235/421/31
f 231/422/30 235/423/30 245/424/30 268/425/30
f 233/426/32 234/427/32 230/428/32 229/429/32
f 243/430/30 241/431/30 247/432/30 245/433/30
f 237/434/33 238/435/33 240/436/33 239/437/33
f 243/438/34 244/439/34 242/440/34 241/441/34
f 237/442/30 239/443/30 268/444/30 246/445/30
f 268/446/30 239/447/30 231/448/30
f 231/418/35 239/449/35 240/450/35 232/419/35
f 230/428/36 238/451/36 237/452/36 229/429/36
f 246/453/30 229/454/30 237/455/30
f 233/456/30 247/457/30 241/458/30
f 242/459/37 234/427/37 233/426/37 241/460/37
f 244/461/38 243/462/38 235/421/38 236/420/38
f 245/463/30 235/464/30 243/465/30
f 242/440/39 244/439/39 254/466/39 255/467/39
f 236/420/40 232/419/40 253/468/40 254/466/40
f 240/436/41 238/435/41 252/469/41 253/468/41
f 230/428/42 234/427/42 255/467/42 252/469/42
f 236/420/43 254/466/43 244/461/43
f 240/450/44 253/468/44 232/419/44
f 230/428/45 252/469/45 238/451/45
f 242/459/46 255/467/46 234/427/46
f 248/470/34 251/471/34 262/472/34 263/473/34
f 257/474/39 256/475/39 264/476/39 265/477/39
f 251/471/31 250/478/31 261/479/31 262/472/31
f 249/480/32 248/470/32 263/473/32 260/481/32
f 250/478/33 249/480/33 260/481/33 261/479/33
f 256/482/47 257/483/47 261/479/47 260/481/47
f 257/483/47 258/484/47 262/472/47 261/479/47
f 259/485/47 256/482/47 260/481/47 263/473/47
f 258/484/47 259/485/47 263/473/47 262/472/47
f 264/486/47 267/487/47 266/488/47 265/489/47
f 259/490/41 258/491/41 266/492/41 267/493/41
f 258/491/42 257/474/42 265/477/42 266/492/42
f 256/475/40 259/490/40 267/493/40 264/476/40
usemtl ARCANE_STONE
f 247/494/30 246/495/30 268/496/30 245/497/30
o TERRARIUM_GLASS_SHORT_RED_Cube.047
v 0.156250 0.250000 0.843750
v 0.156250 0.687500 0.781250
v 0.156250 0.250000 0.156250
v 0.218750 0.687500 0.156250
v 0.843750 0.250000 0.843750
v 0.843750 0.687500 0.781250
v 0.843750 0.250000 0.156250
v 0.843750 0.687500 0.218750
v 0.781250 0.687500 0.156250
v 0.843750 0.312500 0.781250
v 0.843750 0.312500 0.218750
v 0.781250 0.687500 0.843750
v 0.156250 0.687500 0.218750
v 0.781250 0.312500 0.156250
v 0.218750 0.312500 0.156250
v 0.156250 0.312500 0.218750
v 0.156250 0.312500 0.781250
v 0.218750 0.687500 0.843750
v 0.218750 0.312500 0.843750
v 0.781250 0.312500 0.843750
v 0.156250 0.750000 0.843750
v 0.156250 0.750000 0.156250
v 0.843750 0.750000 0.156250
v 0.843750 0.750000 0.843750
v 0.781250 0.500000 0.843750
v 0.843750 0.500000 0.781250
v 0.843750 0.500000 0.843750
v 0.218750 0.500000 0.843750
v 0.156250 0.500000 0.781250
v 0.156250 0.500000 0.843750
v 0.781250 0.500000 0.156250
v 0.843750 0.500000 0.218750
v 0.843750 0.500000 0.156250
v 0.156250 0.500000 0.218750
v 0.218750 0.500000 0.156250
v 0.156250 0.500000 0.156250
v 0.156250 0.250000 0.843750
v 0.156250 0.687500 0.781250
v 0.156250 0.250000 0.156250
v 0.218750 0.687500 0.156250
v 0.843750 0.250000 0.843750
v 0.843750 0.687500 0.781250
v 0.843750 0.250000 0.156250
v 0.843750 0.687500 0.218750
v 0.781250 0.687500 0.156250
v 0.843750 0.312500 0.781250
v 0.843750 0.312500 0.218750
v 0.781250 0.687500 0.843750
v 0.156250 0.687500 0.218750
v 0.781250 0.312500 0.156250
v 0.218750 0.312500 0.156250
v 0.156250 0.312500 0.218750
v 0.156250 0.312500 0.781250
v 0.218750 0.687500 0.843750
v 0.218750 0.312500 0.843750
v 0.781250 0.312500 0.843750
v 0.156250 0.750000 0.843750
v 0.156250 0.750000 0.156250
v 0.843750 0.750000 0.156250
v 0.843750 0.750000 0.843750
v 0.781250 0.500000 0.843750
v 0.843750 0.500000 0.781250
v 0.843750 0.500000 0.843750
v 0.218750 0.500000 0.843750
v 0.156250 0.500000 0.781250
v 0.156250 0.500000 0.843750
v 0.781250 0.500000 0.156250
v 0.843750 0.500000 0.218750
v 0.843750 0.500000 0.156250
v 0.156250 0.500000 0.218750
v 0.218750 0.500000 0.156250
v 0.156250 0.500000 0.156250
vt 0.062500 0.625000
vt 0.250000 0.625000
vt 0.312500 0.562500
vt 0.062500 0.562500
vt 0.937500 0.437500
vt 0.375000 0.437500
vt 0.312500 0.375000
vt 1.000000 0.375000
vt 0.375000 0.437500
vt 0.937500 0.437500
vt 1.000000 0.500000
vt 0.312500 0.500000
vt 0.062500 0.625000
vt 0.250000 0.625000
vt 0.312500 0.687500
vt 0.062500 0.687500
vt 0.062500 0.625000
vt 0.250000 0.625000
vt 0.312500 0.562500
vt 0.062500 0.562500
vt 0.937500 0.437500
vt 0.375000 0.437500
vt 0.312500 0.375000
vt 1.000000 0.375000
vt 0.375000 0.437500
vt 0.937500 0.437500
vt 1.000000 0.500000
vt 0.312500 0.500000
vt 0.062500 0.625000
vt 0.250000 0.625000
vt 0.312500 0.687500
vt 0.062500 0.687500
vt 0.937500 0.437500
vt 0.375000 0.437500
vt 0.312500 0.375000
vt 1.000000 0.375000
vt 0.062500 0.625000
vt 0.250000 0.625000
vt 0.312500 0.562500
vt 0.062500 0.562500
vt 0.375000 0.437500
vt 0.937500 0.437500
vt 1.000000 0.500000
vt 0.312500 0.500000
vt 0.062500 0.625000
vt 0.250000 0.625000
vt 0.312500 0.687500
vt 0.062500 0.687500
vt 0.062500 0.625000
vt 0.250000 0.625000
vt 0.312500 0.687500
vt 0.062500 0.687500
vt 0.062500 0.625000
vt 0.250000 0.625000
vt 0.312500 0.562500
vt 0.062500 0.562500
vt 0.937500 0.437500
vt 0.375000 0.437500
vt 0.312500 0.375000
vt 1.000000 0.375000
vt 0.375000 0.437500
vt 0.937500 0.437500
vt 1.000000 0.500000
vt 0.312500 0.500000
vt 0.250000 0.562500
vt 0.062500 0.562500
vt 0.062500 0.625000
vt 0.312500 0.625000
vt 0.250000 0.687500
vt 0.062500 0.687500
vt 0.312500 0.625000
vt 0.250000 0.687500
vt 0.062500 0.687500
vt 0.062500 0.625000
vt 0.312500 0.625000
vt 0.250000 0.562500
vt 0.062500 0.562500
vt 0.312500 0.625000
vt 0.250000 0.687500
vt 0.062500 0.687500
vt 0.062500 0.625000
vt 0.312500 0.625000
vt 0.250000 0.562500
vt 0.062500 0.562500
vt 0.312500 0.625000
vt 0.250000 0.687500
vt 0.062500 0.687500
vt 0.062500 0.625000
vt 0.312500 0.625000
vt 0.250000 0.562500
vt 0.062500 0.562500
vt 0.312500 0.625000
vt 0.062500 0.625000
vt 0.062500 0.562500
vt 0.312500 0.562500
vt 0.250000 0.625000
vt 0.937500 0.437500
vt 1.000000 0.375000
vt 0.312500 0.375000
vt 0.375000 0.437500
vt 0.375000 0.437500
vt 0.312500 0.500000
vt 1.000000 0.500000
vt 0.937500 0.437500
vt 0.062500 0.625000
vt 0.062500 0.687500
vt 0.312500 0.687500
vt 0.250000 0.625000
vt 0.062500 0.625000
vt 0.062500 0.562500
vt 0.312500 0.562500
vt 0.250000 0.625000
vt 0.937500 0.437500
vt 1.000000 0.375000
vt 0.312500 0.375000
vt 0.375000 0.437500
vt 0.375000 0.437500
vt 0.312500 0.500000
vt 1.000000 0.500000
vt 0.937500 0.437500
vt 0.062500 0.625000
vt 0.062500 0.687500
vt 0.312500 0.687500
vt 0.250000 0.625000
vt 0.937500 0.437500
vt 1.000000 0.375000
vt 0.312500 0.375000
vt 0.375000 0.437500
vt 0.062500 0.625000
vt 0.062500 0.562500
vt 0.312500 0.562500
vt 0.250000 0.625000
vt 0.375000 0.437500
vt 0.312500 0.500000
vt 1.000000 0.500000
vt 0.937500 0.437500
vt 0.062500 0.625000
vt 0.062500 0.687500
vt 0.312500 0.687500
vt 0.250000 0.625000
vt 0.062500 0.625000
vt 0.062500 0.687500
vt 0.312500 0.687500
vt 0.250000 0.625000
vt 0.062500 0.625000
vt 0.062500 0.562500
vt 0.312500 0.562500
vt 0.250000 0.625000
vt 0.937500 0.437500
vt 1.000000 0.375000
vt 0.312500 0.375000
vt 0.375000 0.437500
vt 0.375000 0.437500
vt 0.312500 0.500000
vt 1.000000 0.500000
vt 0.937500 0.437500
vt 0.250000 0.562500
vt 0.312500 0.625000
vt 0.062500 0.625000
vt 0.062500 0.562500
vt 0.250000 0.687500
vt 0.312500 0.625000
vt 0.062500 0.687500
vt 0.250000 0.687500
vt 0.312500 0.625000
vt 0.062500 0.625000
vt 0.062500 0.687500
vt 0.250000 0.562500
vt 0.312500 0.625000
vt 0.062500 0.562500
vt 0.250000 0.687500
vt 0.312500 0.625000
vt 0.062500 0.625000
vt 0.062500 0.687500
vt 0.250000 0.562500
vt 0.312500 0.625000
vt 0.062500 0.562500
vt 0.250000 0.687500
vt 0.312500 0.625000
vt 0.062500 0.625000
vt 0.062500 0.687500
vt 0.250000 0.562500
vt 0.312500 0.625000
vt 0.062500 0.562500
vt 0.937500 0.250000
vt 0.937500 0.312500
vt 1.000000 0.312500
vt 1.000000 0.250000
vt 1.000000 0.312500
vt 1.000000 0.250000
vt 1.000000 0.312500
vt 1.000000 0.250000
vt 0.937500 0.250000
vt 0.937500 0.312500
vt 1.000000 0.312500
vt 1.000000 0.250000
vt 1.000000 0.250000
vt 1.000000 0.312500
vt 0.937500 0.312500
vt 0.937500 0.250000
vt 1.000000 0.250000
vt 1.000000 0.312500
vt 0.937500 0.312500
vt 1.000000 0.312500
vt 1.000000 0.250000
vt 0.937500 0.250000
vt 1.000000 0.312500
vt 1.000000 0.250000
vt 0.937500 0.250000
vt 0.937500 0.312500
vn 1.0000 0.0000 0.0000
vn 0.0000 0.0000 -1.0000
vn -1.0000 0.0000 0.0000
vn 0.0000 0.0000 1.0000
usemtl TERRARIUM_BASE
s off
f 300/498/48 279/499/48 275/500/48 301/501/48
f 279/502/48 278/503/48 273/504/48 275/505/48
f 274/506/48 276/507/48 291/508/48 292/509/48
f 294/510/48 274/511/48 292/512/48 295/513/48
f 303/514/49 283/515/49 271/516/49 304/517/49
f 283/518/49 282/519/49 275/520/49 271/521/49
f 277/522/49 272/523/49 290/524/49 291/525/49
f 299/526/49 277/527/49 291/528/49 301/529/49
f 285/530/50 284/531/50 271/532/50 269/533/50
f 297/534/50 285/535/50 269/536/50 298/537/50
f 281/538/50 270/539/50 289/540/50 290/541/50
f 302/542/50 281/543/50 290/544/50 304/545/50
f 296/546/51 286/547/51 289/548/51 298/549/51
f 293/550/51 288/551/51 273/552/51 295/553/51
f 288/554/51 287/555/51 269/556/51 273/557/51
f 286/558/51 280/559/51 292/560/51 289/561/51
f 278/562/48 294/563/48 295/564/48 273/565/48
f 280/566/51 293/567/51 295/564/51 292/568/51
f 270/569/50 297/570/50 298/571/50 289/572/50
f 287/573/51 296/574/51 298/571/51 269/575/51
f 276/576/48 300/577/48 301/578/48 291/579/48
f 282/580/49 299/581/49 301/578/49 275/582/49
f 272/583/49 303/584/49 304/585/49 290/586/49
f 284/587/50 302/588/50 304/585/50 271/589/50
f 336/590/50 337/591/50 311/592/50 315/593/50
f 315/594/50 311/595/50 309/596/50 314/597/50
f 310/598/50 328/599/50 327/600/50 312/601/50
f 330/602/50 331/603/50 328/604/50 310/605/50
f 339/606/51 340/607/51 307/608/51 319/609/51
f 319/610/51 307/611/51 311/612/51 318/613/51
f 313/614/51 327/615/51 326/616/51 308/617/51
f 335/618/51 337/619/51 327/620/51 313/621/51
f 321/622/48 305/623/48 307/624/48 320/625/48
f 333/626/48 334/627/48 305/628/48 321/629/48
f 317/630/48 326/631/48 325/632/48 306/633/48
f 338/634/48 340/635/48 326/636/48 317/637/48
f 332/638/49 334/639/49 325/640/49 322/641/49
f 329/642/49 331/643/49 309/644/49 324/645/49
f 324/646/49 309/647/49 305/648/49 323/649/49
f 322/650/49 325/651/49 328/652/49 316/653/49
f 314/654/50 309/655/50 331/656/50 330/657/50
f 316/658/49 328/659/49 331/656/49 329/660/49
f 306/661/48 325/662/48 334/663/48 333/664/48
f 323/665/49 305/666/49 334/663/49 332/667/49
f 312/668/50 327/669/50 337/670/50 336/671/50
f 318/672/51 311/673/51 337/670/51 335/674/51
f 308/675/51 326/676/51 340/677/51 339/678/51
f 320/679/48 307/680/48 340/677/48 338/681/48
f 296/682/51 293/683/51 280/684/51 286/685/51
f 288/686/51 293/683/51 296/682/51 287/687/51
f 276/688/48 274/689/48 294/690/48 300/691/48
f 279/692/48 300/691/48 294/690/48 278/693/48
f 282/694/49 283/695/49 303/696/49 299/697/49
f 277/698/49 299/697/49 303/696/49 272/699/49
f 297/700/50 270/701/50 281/702/50 302/703/50
f 284/704/50 285/705/50 297/706/50 302/707/50
