# Blender v2.80 (sub 75) OBJ File: 'terrariums.blend'
# www.blender.org
mtllib terrarium_depths_water.mtl
o TERRARIUM_WATER_Cube.006
v 0.812500 0.718750 0.187500
v 0.187500 0.718750 0.187500
v 0.187500 0.718750 0.812500
v 0.812500 0.718750 0.812500
v 0.187500 0.218750 0.187500
v 0.187500 0.218750 0.812500
v 0.812500 0.218750 0.187500
v 0.812500 0.218750 0.812500
vt 0.125000 0.750000
vt 0.125000 0.687500
vt 0.187500 0.687500
vt 0.187500 0.750000
vt 0.125000 0.750000
vt 0.187500 0.750000
vt 0.187500 0.687500
vt 0.125000 0.687500
vt 0.125000 0.687500
vt 0.125000 0.750000
vt 0.187500 0.750000
vt 0.187500 0.687500
vn 0.0000 1.0000 0.0000
vn 0.0000 0.0000 1.0000
vn 0.0000 0.0000 -1.0000
vn 1.0000 0.0000 0.0000
vn -1.0000 0.0000 0.0000
usemtl TERRARIUM_OCEAN
s off
f 2/1/1 3/2/1 4/3/1 1/4/1
f 3/2/2 6/5/2 8/6/2 4/3/2
f 1/4/3 7/7/3 5/8/3 2/1/3
f 4/3/4 8/9/4 7/10/4 1/4/4
f 2/1/5 5/11/5 6/12/5 3/2/5
