# Blender v2.80 (sub 75) OBJ File: 'terrariums.blend'
# www.blender.org
mtllib terrarium_swamps_water.mtl
o TERRAIN_SWAMPS_WATER_Plane.001
v 0.187500 0.234375 0.812500
v 0.812500 0.234375 0.812500
v 0.187500 0.234375 0.187500
v 0.812500 0.234375 0.187500
v 0.812500 0.234375 0.437500
v 0.187500 0.234375 0.437500
v 0.187500 0.234375 0.562500
v 0.812500 0.234375 0.562500
v 0.437500 0.234375 0.187500
v 0.437500 0.234375 0.812500
v 0.437500 0.234375 0.437500
v 0.437500 0.234375 0.562500
v 0.562500 0.234375 0.812500
v 0.562500 0.234375 0.187500
v 0.562500 0.234375 0.437500
v 0.562500 0.234375 0.562500
vt 0.750000 0.250000
vt 0.750000 0.000000
vt 1.000000 0.000000
vt 1.000000 0.250000
vt 0.625000 -0.000000
vt 0.750000 -0.000000
vt 0.750000 0.250000
vt 0.625000 0.250000
vt 1.000000 0.000000
vt 1.000000 0.250000
vt 1.000000 0.000000
vt 1.000000 0.250000
vt 0.750000 0.250000
vt 0.750000 0.000000
vt 1.000000 0.250000
vt 0.750000 0.250000
vt 0.750000 0.000000
vt 1.000000 0.000000
vt 0.625000 -0.000000
vt 0.625000 0.250000
vt 0.625000 0.250000
vt 0.625000 -0.000000
vt 0.625000 0.250000
vt 0.625000 0.000000
vn 0.0000 1.0000 0.0000
usemtl TERRARIUM_SWAMP
s off
f 15/1/1 5/2/1 4/3/1 14/4/1
f 10/5/1 13/6/1 16/7/1 12/8/1
f 13/6/1 2/9/1 8/10/1 16/7/1
f 1/11/1 10/12/1 12/13/1 7/14/1
f 6/15/1 11/16/1 9/17/1 3/18/1
f 8/19/1 5/2/1 15/1/1 16/20/1
f 12/13/1 11/21/1 6/22/1 7/14/1
f 11/16/1 15/23/1 14/24/1 9/17/1
