# Blender v2.80 (sub 75) OBJ File: 'terrariums.blend'
# www.blender.org
mtllib terrarium_hells_glass.mtl
o TERRARIUM_GLASS_SHORT_RED_Cube.047
v 0.156250 0.250000 0.843750
v 0.156250 0.687500 0.781250
v 0.156250 0.250000 0.156250
v 0.218750 0.687500 0.156250
v 0.843750 0.250000 0.843750
v 0.843750 0.687500 0.781250
v 0.843750 0.250000 0.156250
v 0.843750 0.687500 0.218750
v 0.781250 0.687500 0.156250
v 0.843750 0.312500 0.781250
v 0.843750 0.312500 0.218750
v 0.781250 0.687500 0.843750
v 0.156250 0.687500 0.218750
v 0.781250 0.312500 0.156250
v 0.218750 0.312500 0.156250
v 0.156250 0.312500 0.218750
v 0.156250 0.312500 0.781250
v 0.218750 0.687500 0.843750
v 0.218750 0.312500 0.843750
v 0.781250 0.312500 0.843750
v 0.156250 0.750000 0.843750
v 0.156250 0.750000 0.156250
v 0.843750 0.750000 0.156250
v 0.843750 0.750000 0.843750
v 0.781250 0.500000 0.843750
v 0.843750 0.500000 0.781250
v 0.843750 0.500000 0.843750
v 0.218750 0.500000 0.843750
v 0.156250 0.500000 0.781250
v 0.156250 0.500000 0.843750
v 0.781250 0.500000 0.156250
v 0.843750 0.500000 0.218750
v 0.843750 0.500000 0.156250
v 0.156250 0.500000 0.218750
v 0.218750 0.500000 0.156250
v 0.156250 0.500000 0.156250
v 0.156250 0.250000 0.843750
v 0.156250 0.687500 0.781250
v 0.156250 0.250000 0.156250
v 0.218750 0.687500 0.156250
v 0.843750 0.250000 0.843750
v 0.843750 0.687500 0.781250
v 0.843750 0.250000 0.156250
v 0.843750 0.687500 0.218750
v 0.781250 0.687500 0.156250
v 0.843750 0.312500 0.781250
v 0.843750 0.312500 0.218750
v 0.781250 0.687500 0.843750
v 0.156250 0.687500 0.218750
v 0.781250 0.312500 0.156250
v 0.218750 0.312500 0.156250
v 0.156250 0.312500 0.218750
v 0.156250 0.312500 0.781250
v 0.218750 0.687500 0.843750
v 0.218750 0.312500 0.843750
v 0.781250 0.312500 0.843750
v 0.156250 0.750000 0.843750
v 0.156250 0.750000 0.156250
v 0.843750 0.750000 0.156250
v 0.843750 0.750000 0.843750
v 0.781250 0.500000 0.843750
v 0.843750 0.500000 0.781250
v 0.843750 0.500000 0.843750
v 0.218750 0.500000 0.843750
v 0.156250 0.500000 0.781250
v 0.156250 0.500000 0.843750
v 0.781250 0.500000 0.156250
v 0.843750 0.500000 0.218750
v 0.843750 0.500000 0.156250
v 0.156250 0.500000 0.218750
v 0.218750 0.500000 0.156250
v 0.156250 0.500000 0.156250
vt 0.062500 0.625000
vt 0.250000 0.625000
vt 0.312500 0.562500
vt 0.062500 0.562500
vt 0.937500 0.437500
vt 0.375000 0.437500
vt 0.312500 0.375000
vt 1.000000 0.375000
vt 0.375000 0.437500
vt 0.937500 0.437500
vt 1.000000 0.500000
vt 0.312500 0.500000
vt 0.062500 0.625000
vt 0.250000 0.625000
vt 0.312500 0.687500
vt 0.062500 0.687500
vt 0.062500 0.625000
vt 0.250000 0.625000
vt 0.312500 0.562500
vt 0.062500 0.562500
vt 0.937500 0.437500
vt 0.375000 0.437500
vt 0.312500 0.375000
vt 1.000000 0.375000
vt 0.375000 0.437500
vt 0.937500 0.437500
vt 1.000000 0.500000
vt 0.312500 0.500000
vt 0.062500 0.625000
vt 0.250000 0.625000
vt 0.312500 0.687500
vt 0.062500 0.687500
vt 0.937500 0.437500
vt 0.375000 0.437500
vt 0.312500 0.375000
vt 1.000000 0.375000
vt 0.062500 0.625000
vt 0.250000 0.625000
vt 0.312500 0.562500
vt 0.062500 0.562500
vt 0.375000 0.437500
vt 0.937500 0.437500
vt 1.000000 0.500000
vt 0.312500 0.500000
vt 0.062500 0.625000
vt 0.250000 0.625000
vt 0.312500 0.687500
vt 0.062500 0.687500
vt 0.062500 0.625000
vt 0.250000 0.625000
vt 0.312500 0.687500
vt 0.062500 0.687500
vt 0.062500 0.625000
vt 0.250000 0.625000
vt 0.312500 0.562500
vt 0.062500 0.562500
vt 0.937500 0.437500
vt 0.375000 0.437500
vt 0.312500 0.375000
vt 1.000000 0.375000
vt 0.375000 0.437500
vt 0.937500 0.437500
vt 1.000000 0.500000
vt 0.312500 0.500000
vt 0.250000 0.562500
vt 0.062500 0.562500
vt 0.062500 0.625000
vt 0.312500 0.625000
vt 0.250000 0.687500
vt 0.062500 0.687500
vt 0.312500 0.625000
vt 0.250000 0.687500
vt 0.062500 0.687500
vt 0.062500 0.625000
vt 0.312500 0.625000
vt 0.250000 0.562500
vt 0.062500 0.562500
vt 0.312500 0.625000
vt 0.250000 0.687500
vt 0.062500 0.687500
vt 0.062500 0.625000
vt 0.312500 0.625000
vt 0.250000 0.562500
vt 0.062500 0.562500
vt 0.312500 0.625000
vt 0.250000 0.687500
vt 0.062500 0.687500
vt 0.062500 0.625000
vt 0.312500 0.625000
vt 0.250000 0.562500
vt 0.062500 0.562500
vt 0.312500 0.625000
vt 0.062500 0.625000
vt 0.062500 0.562500
vt 0.312500 0.562500
vt 0.250000 0.625000
vt 0.937500 0.437500
vt 1.000000 0.375000
vt 0.312500 0.375000
vt 0.375000 0.437500
vt 0.375000 0.437500
vt 0.312500 0.500000
vt 1.000000 0.500000
vt 0.937500 0.437500
vt 0.062500 0.625000
vt 0.062500 0.687500
vt 0.312500 0.687500
vt 0.250000 0.625000
vt 0.062500 0.625000
vt 0.062500 0.562500
vt 0.312500 0.562500
vt 0.250000 0.625000
vt 0.937500 0.437500
vt 1.000000 0.375000
vt 0.312500 0.375000
vt 0.375000 0.437500
vt 0.375000 0.437500
vt 0.312500 0.500000
vt 1.000000 0.500000
vt 0.937500 0.437500
vt 0.062500 0.625000
vt 0.062500 0.687500
vt 0.312500 0.687500
vt 0.250000 0.625000
vt 0.937500 0.437500
vt 1.000000 0.375000
vt 0.312500 0.375000
vt 0.375000 0.437500
vt 0.062500 0.625000
vt 0.062500 0.562500
vt 0.312500 0.562500
vt 0.250000 0.625000
vt 0.375000 0.437500
vt 0.312500 0.500000
vt 1.000000 0.500000
vt 0.937500 0.437500
vt 0.062500 0.625000
vt 0.062500 0.687500
vt 0.312500 0.687500
vt 0.250000 0.625000
vt 0.062500 0.625000
vt 0.062500 0.687500
vt 0.312500 0.687500
vt 0.250000 0.625000
vt 0.062500 0.625000
vt 0.062500 0.562500
vt 0.312500 0.562500
vt 0.250000 0.625000
vt 0.937500 0.437500
vt 1.000000 0.375000
vt 0.312500 0.375000
vt 0.375000 0.437500
vt 0.375000 0.437500
vt 0.312500 0.500000
vt 1.000000 0.500000
vt 0.937500 0.437500
vt 0.250000 0.562500
vt 0.312500 0.625000
vt 0.062500 0.625000
vt 0.062500 0.562500
vt 0.250000 0.687500
vt 0.312500 0.625000
vt 0.062500 0.687500
vt 0.250000 0.687500
vt 0.312500 0.625000
vt 0.062500 0.625000
vt 0.062500 0.687500
vt 0.250000 0.562500
vt 0.312500 0.625000
vt 0.062500 0.562500
vt 0.250000 0.687500
vt 0.312500 0.625000
vt 0.062500 0.625000
vt 0.062500 0.687500
vt 0.250000 0.562500
vt 0.312500 0.625000
vt 0.062500 0.562500
vt 0.250000 0.687500
vt 0.312500 0.625000
vt 0.062500 0.625000
vt 0.062500 0.687500
vt 0.250000 0.562500
vt 0.312500 0.625000
vt 0.062500 0.562500
vt 0.937500 0.250000
vt 0.937500 0.312500
vt 1.000000 0.312500
vt 1.000000 0.250000
vt 1.000000 0.312500
vt 1.000000 0.250000
vt 1.000000 0.312500
vt 1.000000 0.250000
vt 0.937500 0.250000
vt 0.937500 0.312500
vt 1.000000 0.312500
vt 1.000000 0.250000
vt 1.000000 0.250000
vt 1.000000 0.312500
vt 0.937500 0.312500
vt 0.937500 0.250000
vt 1.000000 0.250000
vt 1.000000 0.312500
vt 0.937500 0.312500
vt 1.000000 0.312500
vt 1.000000 0.250000
vt 0.937500 0.250000
vt 1.000000 0.312500
vt 1.000000 0.250000
vt 0.937500 0.250000
vt 0.937500 0.312500
vn 1.0000 0.0000 0.0000
vn 0.0000 0.0000 -1.0000
vn -1.0000 0.0000 0.0000
vn 0.0000 0.0000 1.0000
usemtl TERRARIUM_BASE
s off
f 32/1/1 11/2/1 7/3/1 33/4/1
f 11/5/1 10/6/1 5/7/1 7/8/1
f 6/9/1 8/10/1 23/11/1 24/12/1
f 26/13/1 6/14/1 24/15/1 27/16/1
f 35/17/2 15/18/2 3/19/2 36/20/2
f 15/21/2 14/22/2 7/23/2 3/24/2
f 9/25/2 4/26/2 22/27/2 23/28/2
f 31/29/2 9/30/2 23/31/2 33/32/2
f 17/33/3 16/34/3 3/35/3 1/36/3
f 29/37/3 17/38/3 1/39/3 30/40/3
f 13/41/3 2/42/3 21/43/3 22/44/3
f 34/45/3 13/46/3 22/47/3 36/48/3
f 28/49/4 18/50/4 21/51/4 30/52/4
f 25/53/4 20/54/4 5/55/4 27/56/4
f 20/57/4 19/58/4 1/59/4 5/60/4
f 18/61/4 12/62/4 24/63/4 21/64/4
f 10/65/1 26/66/1 27/67/1 5/68/1
f 12/69/4 25/70/4 27/67/4 24/71/4
f 2/72/3 29/73/3 30/74/3 21/75/3
f 19/76/4 28/77/4 30/74/4 1/78/4
f 8/79/1 32/80/1 33/81/1 23/82/1
f 14/83/2 31/84/2 33/81/2 7/85/2
f 4/86/2 35/87/2 36/88/2 22/89/2
f 16/90/3 34/91/3 36/88/3 3/92/3
f 68/93/3 69/94/3 43/95/3 47/96/3
f 47/97/3 43/98/3 41/99/3 46/100/3
f 42/101/3 60/102/3 59/103/3 44/104/3
f 62/105/3 63/106/3 60/107/3 42/108/3
f 71/109/4 72/110/4 39/111/4 51/112/4
f 51/113/4 39/114/4 43/115/4 50/116/4
f 45/117/4 59/118/4 58/119/4 40/120/4
f 67/121/4 69/122/4 59/123/4 45/124/4
f 53/125/1 37/126/1 39/127/1 52/128/1
f 65/129/1 66/130/1 37/131/1 53/132/1
f 49/133/1 58/134/1 57/135/1 38/136/1
f 70/137/1 72/138/1 58/139/1 49/140/1
f 64/141/2 66/142/2 57/143/2 54/144/2
f 61/145/2 63/146/2 41/147/2 56/148/2
f 56/149/2 41/150/2 37/151/2 55/152/2
f 54/153/2 57/154/2 60/155/2 48/156/2
f 46/157/3 41/158/3 63/159/3 62/160/3
f 48/161/2 60/162/2 63/159/2 61/163/2
f 38/164/1 57/165/1 66/166/1 65/167/1
f 55/168/2 37/169/2 66/166/2 64/170/2
f 44/171/3 59/172/3 69/173/3 68/174/3
f 50/175/4 43/176/4 69/173/4 67/177/4
f 40/178/4 58/179/4 72/180/4 71/181/4
f 52/182/1 39/183/1 72/180/1 70/184/1
f 28/185/4 25/186/4 12/187/4 18/188/4
f 20/189/4 25/186/4 28/185/4 19/190/4
f 8/191/1 6/192/1 26/193/1 32/194/1
f 11/195/1 32/194/1 26/193/1 10/196/1
f 14/197/2 15/198/2 35/199/2 31/200/2
f 9/201/2 31/200/2 35/199/2 4/202/2
f 29/203/3 2/204/3 13/205/3 34/206/3
f 16/207/3 17/208/3 29/209/3 34/210/3
