# Blender v2.80 (sub 75) OBJ File: 'chem devices.blend'
# www.blender.org
mtllib variegator_limb_short.mtl
o VARIAGATOR_LIMB_SHORT_Cube.074
v 0.000000 1.414236 0.438022
v -0.088388 1.332576 0.404197
v 0.000000 1.250916 0.370373
v 0.088388 1.332576 0.404197
v 0.088388 1.308658 0.461940
v 0.000000 1.226998 0.428115
v 0.000000 1.390319 0.495764
v -0.088388 1.308658 0.461940
v 0.093750 1.395272 0.497816
v 0.093750 1.222045 0.426063
v -0.093750 1.395272 0.497816
v -0.093750 1.222045 0.426063
v 0.031250 1.289694 0.589384
v 0.031250 1.231952 0.565466
v -0.031250 1.289694 0.589384
v -0.031250 1.231952 0.565466
v 0.093750 1.371354 0.555559
v 0.093750 1.198127 0.483806
v -0.093750 1.371354 0.555559
v -0.093750 1.198127 0.483806
v 0.031250 1.222045 0.426063
v -0.031250 1.222045 0.426063
v 0.031250 1.198127 0.483806
v -0.031250 1.198127 0.483806
v 0.031250 1.187500 0.411754
v -0.031250 1.187500 0.411754
v 0.031250 1.125000 0.453516
v -0.031250 1.125000 0.453516
v -0.031250 1.125000 0.376125
v -0.031250 1.187500 0.376125
v -0.031250 1.125000 0.001125
v -0.031250 1.187500 0.001125
v 0.031250 1.125000 0.376125
v 0.031250 1.187500 0.376125
v 0.031250 1.125000 0.001125
v 0.031250 1.187500 0.001125
vt 0.343750 0.953125
vt 0.312500 0.953125
vt 0.312500 0.921875
vt 0.343750 0.921875
vt 0.343750 0.921875
vt 0.312500 0.921875
vt 0.312500 0.906250
vt 0.343750 0.906250
vt 0.312500 0.921875
vt 0.312500 0.906250
vt 0.343750 0.968750
vt 0.312500 0.968750
vt 0.312500 0.953125
vt 0.312500 0.968750
vt 0.578125 0.468750
vt 0.531250 0.468750
vt 0.531250 0.421875
vt 0.578125 0.421875
vt 0.000000 0.296875
vt 0.015625 0.296875
vt 0.015625 0.312500
vt 0.000000 0.312500
vt 0.046875 0.265625
vt 0.093750 0.265625
vt 0.093750 0.281250
vt 0.046875 0.281250
vt 0.046875 0.265625
vt 0.093750 0.265625
vt 0.093750 0.281250
vt 0.046875 0.281250
vt -0.000000 0.265625
vt -0.000000 0.281250
vt 0.140625 0.265625
vt 0.140625 0.281250
vt 0.078125 0.296875
vt 0.062500 0.296875
vt 0.125000 0.296875
vt 0.109375 0.296875
vt 0.078125 0.296875
vt 0.062500 0.296875
vt 0.031250 0.296875
vt 0.843750 0.906250
vt 0.859375 0.906250
vt 0.859375 0.890625
vt 0.843750 0.890625
vt 0.828125 0.906250
vt 0.843750 0.906250
vt 0.843750 0.890625
vt 0.828125 0.890625
vt 0.859375 0.906250
vt 0.843750 0.906250
vt 0.843750 0.890625
vt 0.859375 0.890625
vt 0.828125 0.906250
vt 0.828125 0.890625
vt 0.859375 0.875000
vt 0.843750 0.875000
vt 0.843750 0.781250
vt 0.859375 0.781250
vt 0.859375 0.781250
vt 0.843750 0.781250
vt 0.843750 0.875000
vt 0.859375 0.875000
vt 0.843750 0.781250
vt 0.828125 0.781250
vt 0.828125 0.875000
vt 0.843750 0.875000
vt 0.828125 0.781250
vt 0.828125 0.875000
vn 0.0000 0.3827 -0.9239
vn 0.7071 -0.6533 -0.2706
vn -0.7071 -0.6533 -0.2706
vn 0.7071 0.6533 0.2706
vn -0.7071 0.6533 0.2706
vn 0.0000 -0.3827 0.9239
vn -1.0000 0.0000 0.0000
vn 1.0000 0.0000 0.0000
vn 0.0000 -0.9239 -0.3827
vn 0.0000 0.9239 0.3827
vn 0.7071 -0.2706 0.6533
vn 0.0000 0.3827 0.9239
vn -0.7071 -0.2706 0.6533
vn 0.0000 -0.9239 0.3827
vn 0.0000 -1.0000 0.0000
vn 0.0000 1.0000 0.0000
usemtl GRAND_DISTILLERY
s off
f 1/1/1 4/2/1 3/3/1 2/4/1
f 3/5/2 4/6/2 5/7/2 6/8/2
f 2/9/3 3/5/3 6/8/3 8/10/3
f 4/2/4 1/1/4 7/11/4 5/12/4
f 1/1/5 2/13/5 8/14/5 7/11/5
f 11/15/1 9/16/1 10/17/1 12/18/1
f 15/19/6 16/20/6 14/21/6 13/22/6
f 11/23/7 12/24/7 20/25/7 19/26/7
f 10/27/8 9/28/8 17/29/8 18/30/8
f 12/31/9 10/27/9 18/30/9 20/32/9
f 9/28/10 11/33/10 19/34/10 17/29/10
f 13/35/11 14/36/11 18/30/11 17/29/11
f 15/37/12 13/38/12 17/29/12 19/34/12
f 16/39/13 15/40/13 19/26/13 20/25/13
f 14/41/14 16/20/14 20/32/14 18/30/14
f 21/42/8 23/43/8 27/44/8 25/45/8
f 23/46/6 24/47/6 28/48/6 27/49/6
f 24/50/7 22/51/7 26/52/7 28/53/7
f 22/51/1 21/54/1 25/55/1 26/52/1
f 29/56/7 30/57/7 32/58/7 31/59/7
f 35/60/8 36/61/8 34/62/8 33/63/8
f 27/44/8 33/63/8 34/62/8 25/45/8
f 31/64/15 35/65/15 33/66/15 29/67/15
f 36/68/16 32/58/16 30/57/16 34/69/16
f 26/52/7 30/57/7 29/56/7 28/53/7
f 26/52/16 25/55/16 34/69/16 30/57/16
f 27/49/15 28/48/15 29/67/15 33/66/15
