# Blender v2.80 (sub 75) OBJ File: 'chem devices.blend'
# www.blender.org
mtllib variegator_shell_tintable.mtl
o DEMO_COLORZONE_Plane.008
v -0.359375 0.125000 0.250000
v -0.359375 0.000000 0.250000
v -0.359375 0.125000 -0.250000
v -0.359375 0.000000 -0.250000
v 0.250000 0.125000 0.359375
v 0.250000 0.000000 0.359375
v -0.250000 0.125000 0.359375
v -0.250000 0.000000 0.359375
v 0.359375 0.125000 -0.250000
v 0.359375 0.000000 -0.250000
v 0.359375 0.125000 0.250000
v 0.359375 0.000000 0.250000
v -0.250000 0.125000 -0.359375
v -0.250000 0.000000 -0.359375
v 0.250000 0.125000 -0.359375
v 0.250000 0.000000 -0.359375
vt -0.000000 0.468750
vt -0.000000 0.484375
vt 0.015625 0.484375
vt 0.015625 0.468750
vt -0.000000 0.468750
vt -0.000000 0.484375
vt 0.015625 0.484375
vt 0.015625 0.468750
vt -0.000000 0.468750
vt -0.000000 0.484375
vt 0.015625 0.484375
vt 0.015625 0.468750
vt -0.000000 0.468750
vt -0.000000 0.484375
vt 0.015625 0.484375
vt 0.015625 0.468750
vn -1.0000 0.0000 0.0000
vn 0.0000 0.0000 1.0000
vn 1.0000 0.0000 0.0000
vn 0.0000 0.0000 -1.0000
vn -0.7071 0.0000 0.7071
vn -0.7071 0.0000 -0.7071
vn 0.7071 0.0000 -0.7071
vn 0.7071 0.0000 0.7071
usemtl GRAND_DISTILLERY
s off
f 1/1/1 3/2/1 4/3/1 2/4/1
f 5/5/2 7/6/2 8/7/2 6/8/2
f 9/9/3 11/10/3 12/11/3 10/12/3
f 13/13/4 15/14/4 16/15/4 14/16/4
f 2/4/5 8/7/5 7/6/5 1/1/5
f 3/2/6 13/13/6 14/16/6 4/3/6
f 10/12/7 16/15/7 15/14/7 9/9/7
f 6/8/8 12/11/8 11/10/8 5/5/8
