# Blender v2.80 (sub 75) OBJ File: 'chem devices.blend'
# www.blender.org
mtllib variegator_limb_above.mtl
o VARIAGATOR_LIMB_UNCONNECTED_Cube.077
v 0.000000 1.750000 0.000000
v 0.000000 1.812500 0.044194
v 0.000000 1.937500 -0.088388
v -0.044194 1.812500 0.000000
v -0.088388 1.937500 0.000000
v 0.044194 1.812500 0.000000
v 0.000000 1.937500 0.088388
v 0.000000 1.812500 -0.044194
v 0.000000 1.937500 0.044194
v -0.044194 1.937500 0.000000
v 0.000000 1.937500 -0.044194
v 0.044194 1.937500 0.000000
v 0.088388 1.937500 0.000000
v 0.088388 2.000000 0.000000
v 0.000000 2.000000 0.088388
v 0.000000 2.000000 -0.088388
v -0.088388 2.000000 0.000000
v 0.044194 2.000000 0.000000
v 0.000000 2.000000 0.044194
v 0.000000 2.000000 -0.044194
v -0.044194 2.000000 0.000000
v 0.000000 2.062500 0.044194
v -0.044194 2.062500 0.000000
v 0.000000 2.062500 -0.044194
v 0.044194 2.062500 0.000000
v 0.000000 2.125000 0.000000
vt 0.125000 0.328125
vt 0.109375 0.343750
vt 0.125000 0.343750
vt 0.125000 0.406250
vt 0.125000 0.421875
vt 0.109375 0.421875
vt 0.109375 0.343750
vt 0.125000 0.343750
vt 0.125000 0.421875
vt 0.109375 0.421875
vt 0.656250 0.984375
vt 0.656250 0.953125
vt 0.687500 0.953125
vt 0.687500 0.984375
vt 0.109375 0.375000
vt 0.125000 0.375000
vt 0.125000 0.453125
vt 0.109375 0.453125
vt 0.125000 0.453125
vt 0.109375 0.453125
vt 0.109375 0.375000
vt 0.125000 0.375000
vt 0.656250 0.906250
vt 0.656250 0.937500
vt 0.687500 0.937500
vt 0.687500 0.906250
vt 0.687500 0.937500
vt 0.656250 0.937500
vt 0.656250 0.953125
vt 0.687500 0.953125
vt 0.687500 0.984375
vt 0.656250 0.984375
vt 0.656250 1.000000
vt 0.687500 1.000000
vt 0.656250 0.937500
vt 0.656250 0.953125
vt 0.656250 0.984375
vt 0.656250 1.000000
vt 0.109375 0.468750
vt 0.125000 0.468750
vt 0.125000 0.484375
vt 0.109375 0.453125
vt 0.125000 0.453125
vt 0.109375 0.453125
vt 0.125000 0.453125
vt 0.125000 0.468750
vt 0.109375 0.468750
vt 0.125000 0.375000
vt 0.109375 0.375000
vt 0.109375 0.390625
vt 0.125000 0.390625
vt 0.125000 0.375000
vt 0.109375 0.375000
vt 0.109375 0.390625
vt 0.125000 0.390625
vt 0.125000 0.406250
vn -0.6325 -0.4472 0.6325
vn -0.6325 -0.4472 -0.6325
vn 0.6325 -0.4472 -0.6325
vn 0.6325 -0.4472 0.6325
vn 0.0000 1.0000 0.0000
vn -0.7071 0.0000 0.7071
vn 0.7071 0.0000 0.7071
vn -0.7071 0.0000 -0.7071
vn 0.7071 0.0000 -0.7071
vn 0.0000 -1.0000 0.0000
vn 0.6325 0.4472 0.6325
vn -0.6325 0.4472 -0.6325
vn 0.6325 0.4472 -0.6325
vn -0.6325 0.4472 0.6325
usemtl GRAND_DISTILLERY
s off
f 1/1/1 2/2/1 4/3/1
f 1/4/2 4/5/2 8/6/2
f 1/1/3 8/7/3 6/8/3
f 1/4/4 6/9/4 2/10/4
f 16/11/5 17/12/5 15/13/5 14/14/5
f 4/3/6 2/2/6 9/15/6 10/16/6
f 2/10/7 6/9/7 12/17/7 9/18/7
f 8/6/8 4/5/8 10/19/8 11/20/8
f 6/8/9 8/7/9 11/21/9 12/22/9
f 3/23/10 13/24/10 7/25/10 5/26/10
f 13/27/9 3/28/9 16/29/9 14/30/9
f 5/31/6 7/32/6 15/33/6 17/34/6
f 7/35/7 13/27/7 14/30/7 15/36/7
f 3/37/8 5/31/8 17/34/8 16/38/8
f 22/39/11 25/40/11 26/41/11
f 19/42/7 18/43/7 25/40/7 22/39/7
f 20/44/8 21/45/8 23/46/8 24/47/8
f 18/48/9 20/49/9 24/50/9 25/51/9
f 21/52/6 19/53/6 22/54/6 23/55/6
f 24/47/12 23/46/12 26/41/12
f 25/51/13 24/50/13 26/56/13
f 23/55/14 22/54/14 26/56/14
