# Blender v2.80 (sub 75) OBJ File: 'chem devices.blend'
# www.blender.org
mtllib variegator_limb_long.mtl
o VARIAGATOR_LIMB_LONG_Cube.070
v 0.000000 1.749084 0.370373
v -0.088388 1.667424 0.404197
v 0.000000 1.585764 0.438022
v 0.088388 1.667424 0.404197
v 0.088388 1.691342 0.461940
v 0.000000 1.609681 0.495764
v 0.000000 1.773002 0.428115
v -0.088388 1.691342 0.461940
v 0.093750 1.777955 0.426063
v 0.093750 1.604728 0.497816
v -0.093750 1.777955 0.426063
v -0.093750 1.604728 0.497816
v 0.031250 1.768048 0.565466
v 0.031250 1.710306 0.589384
v -0.031250 1.768048 0.565466
v -0.031250 1.710306 0.589384
v 0.093750 1.801873 0.483806
v 0.093750 1.628646 0.555559
v -0.093750 1.801873 0.483806
v -0.093750 1.628646 0.555559
v 0.031250 1.604728 0.497816
v -0.031250 1.604728 0.497816
v 0.031250 1.628646 0.555559
v -0.031250 1.628646 0.555559
v -0.031250 1.176613 0.675148
v 0.031250 1.316016 0.617405
v -0.031250 1.316016 0.617405
v 0.031250 1.339933 0.675148
v -0.031250 1.339933 0.675148
v -0.031250 1.125000 0.586119
v -0.031250 1.062500 0.627880
v 0.031250 1.062500 0.627880
v 0.031250 1.125000 0.586119
v 0.031250 1.176613 0.675148
v -0.031250 1.200531 0.617405
v 0.000000 0.784375 0.478852
v 0.031250 1.200531 0.617405
v -0.031250 1.062500 0.001125
v -0.031250 1.125000 0.001125
v 0.031250 1.062500 0.001125
v 0.031250 1.125000 0.001125
v -0.031250 1.118871 0.651230
v -0.031250 1.142788 0.593487
v 0.031250 1.142788 0.593487
v 0.031250 1.118871 0.651230
v -0.031250 1.062500 0.563625
v -0.031250 1.125000 0.563625
v 0.031250 1.125000 0.563625
v 0.031250 1.062500 0.563625
vt 0.343750 0.953125
vt 0.312500 0.953125
vt 0.312500 0.921875
vt 0.343750 0.921875
vt 0.343750 0.906250
vt 0.312500 0.906250
vt 0.312500 0.921875
vt 0.343750 0.921875
vt 0.312500 0.906250
vt 0.312500 0.921875
vt 0.343750 0.968750
vt 0.312500 0.968750
vt 0.312500 0.953125
vt 0.312500 0.968750
vt 0.578125 0.468750
vt 0.531250 0.468750
vt 0.531250 0.421875
vt 0.578125 0.421875
vt -0.000000 0.312500
vt -0.000000 0.296875
vt 0.015625 0.296875
vt 0.015625 0.312500
vt 0.046875 0.265625
vt 0.093750 0.265625
vt 0.093750 0.281250
vt 0.046875 0.281250
vt 0.046875 0.265625
vt 0.093750 0.265625
vt 0.093750 0.281250
vt 0.046875 0.281250
vt 0.000000 0.265625
vt 0.000000 0.281250
vt 0.140625 0.265625
vt 0.140625 0.281250
vt 0.078125 0.296875
vt 0.062500 0.296875
vt 0.125000 0.296875
vt 0.109375 0.296875
vt 0.078125 0.296875
vt 0.062500 0.296875
vt 0.031250 0.296875
vt 0.015625 0.296875
vt 0.828125 1.000000
vt 0.828125 0.921875
vt 0.843750 0.921875
vt 0.843750 1.000000
vt 0.859375 1.000000
vt 0.859375 0.921875
vt 0.843750 0.921875
vt 0.843750 1.000000
vt 0.828125 1.000000
vt 0.828125 0.921875
vt 0.843750 0.921875
vt 0.843750 1.000000
vt 0.859375 0.921875
vt 0.859375 1.000000
vt 0.843750 0.875000
vt 0.859375 0.875000
vt 0.859375 0.859375
vt 0.843750 0.859375
vt 0.828125 0.890625
vt 0.843750 0.890625
vt 0.843750 0.890625
vt 0.828125 0.890625
vt 0.828125 0.875000
vt 0.843750 0.875000
vt 0.859375 0.890625
vt 0.843750 0.890625
vt 0.859375 0.890625
vt 0.843750 0.703125
vt 0.843750 0.843750
vt 0.859375 0.843750
vt 0.859375 0.703125
vt 0.843750 0.703125
vt 0.843750 0.843750
vt 0.828125 0.843750
vt 0.828125 0.703125
vt 0.828125 0.703125
vt 0.843750 0.703125
vt 0.843750 0.843750
vt 0.828125 0.843750
vt 0.843750 0.875000
vt 0.859375 0.875000
vt 0.828125 0.875000
vt 0.859375 0.843750
vt 0.859375 0.859375
vt 0.843750 0.859375
vt 0.828125 0.859375
vt 0.828125 0.859375
vt 0.843750 0.859375
vt 0.859375 0.703125
vn 0.0000 -0.3827 -0.9239
vn 0.7071 -0.6533 0.2706
vn -0.7071 -0.6533 0.2706
vn 0.7071 0.6533 -0.2706
vn -0.7071 0.6533 -0.2706
vn 0.0000 0.3827 0.9239
vn -1.0000 0.0000 0.0000
vn 1.0000 0.0000 0.0000
vn 0.0000 -0.9239 0.3827
vn 0.0000 0.9239 -0.3827
vn 0.7071 0.2706 0.6533
vn 0.0000 0.9239 0.3827
vn -0.7071 0.2706 0.6533
vn 0.0000 -0.3827 0.9239
vn 0.0000 -0.0000 -1.0000
vn 0.0000 0.0000 1.0000
vn 0.0000 -1.0000 0.0000
vn 0.0000 1.0000 0.0000
vn 0.0000 0.3827 -0.9239
usemtl GRAND_DISTILLERY
s off
f 1/1/1 4/2/1 3/3/1 2/4/1
f 3/5/2 4/6/2 5/7/2 6/8/2
f 2/9/3 3/5/3 6/8/3 8/10/3
f 4/2/4 1/1/4 7/11/4 5/12/4
f 1/1/5 2/13/5 8/14/5 7/11/5
f 11/15/1 9/16/1 10/17/1 12/18/1
f 15/19/6 16/20/6 14/21/6 13/22/6
f 11/23/7 12/24/7 20/25/7 19/26/7
f 10/27/8 9/28/8 17/29/8 18/30/8
f 12/31/9 10/27/9 18/30/9 20/32/9
f 9/28/10 11/33/10 19/34/10 17/29/10
f 13/35/11 14/36/11 18/30/11 17/29/11
f 15/37/12 13/38/12 17/29/12 19/34/12
f 16/39/13 15/40/13 19/26/13 20/25/13
f 14/41/14 16/42/14 20/32/14 18/30/14
f 21/43/1 26/44/1 27/45/1 22/46/1
f 23/47/8 28/48/8 26/49/8 21/50/8
f 24/51/6 29/52/6 28/53/6 23/54/6
f 22/46/7 27/45/7 29/55/7 24/56/7
f 44/57/8 45/58/8 32/59/8 33/60/8
f 26/44/15 37/61/15 35/62/15 27/45/15
f 34/63/14 25/64/14 42/65/14 45/66/14
f 28/48/8 34/67/8 37/68/8 26/49/8
f 29/52/16 25/64/16 34/63/16 28/53/16
f 27/45/7 35/62/7 25/69/7 29/55/7
f 41/70/8 48/71/8 49/72/8 40/73/8
f 40/74/17 49/75/17 46/76/17 38/77/17
f 41/78/18 39/79/18 47/80/18 48/81/18
f 37/68/8 34/67/8 45/58/8 44/57/8
f 25/69/7 35/62/7 43/82/7 42/83/7
f 35/62/19 37/61/19 44/84/19 43/82/19
f 46/85/7 31/86/7 30/87/7 47/80/7
f 32/59/8 49/72/8 48/71/8 33/60/8
f 31/86/7 42/83/7 43/82/7 30/87/7
f 47/80/18 30/87/18 33/88/18 48/81/18
f 44/84/19 33/88/19 30/87/19 43/82/19
f 45/66/14 42/65/14 31/89/14 32/90/14
f 32/90/17 31/89/17 46/76/17 49/75/17
f 38/91/7 46/85/7 47/80/7 39/79/7
