# Blender v2.80 (sub 75) OBJ File: 'vinteum_crystal_block.blend'
# www.blender.org
mtllib vinteum_crystal_block_top.mtl
o VINTEUM_CRYSTAL_BLOCK_TOP_Cube
v 0.000000 0.000000 1.000000
v 0.000000 0.562500 1.000000
v 0.000000 0.000000 0.000000
v 0.000000 0.187500 0.000000
v 1.000000 0.000000 1.000000
v 1.000000 0.937500 1.000000
v 1.000000 0.000000 0.000000
v 1.000000 0.562500 0.000000
v 0.000000 0.625000 1.000000
v 0.000000 0.250000 0.000000
v 1.000000 0.625000 0.000000
v 1.000000 1.000000 1.000000
vt 1.000000 0.000000
vt 1.000000 0.562500
vt 0.000000 0.187500
vt 0.000000 0.000000
vt 1.000000 0.000000
vt 1.000000 0.187500
vt 0.000000 0.562500
vt 0.000000 0.000000
vt 1.000000 0.000000
vt 1.000000 0.562500
vt 0.000000 0.937500
vt 0.000000 0.000000
vt 1.000000 0.000000
vt 1.000000 0.937500
vt 0.000000 0.562500
vt 0.000000 0.000000
vt 0.000000 0.937500
vt 1.000000 0.937500
vt 1.000000 1.000000
vt 0.000000 1.000000
vt 1.000000 0.937500
vt 1.000000 1.000000
vt 0.000000 1.000000
vt 0.000000 0.937500
vt 1.000000 0.937500
vt 1.000000 1.000000
vt 0.000000 1.000000
vt 0.000000 0.937500
vt 1.000000 1.000000
vt 0.000000 1.000000
vt 1.000000 0.000000
vt 0.000000 0.000000
vn -1.0000 0.0000 0.0000
vn 0.0000 0.0000 -1.0000
vn 1.0000 0.0000 0.0000
vn 0.0000 0.0000 1.0000
vn -0.3313 0.8835 -0.3313
usemtl VINTEUM_CRYSTAL_BLOCK_TOP
s off
f 1/1/1 2/2/1 4/3/1 3/4/1
f 3/5/2 4/6/2 8/7/2 7/8/2
f 7/9/3 8/10/3 6/11/3 5/12/3
f 5/13/4 6/14/4 2/15/4 1/16/4
f 8/17/2 4/18/2 10/19/2 11/20/2
f 6/11/3 8/21/3 11/22/3 12/23/3
f 4/24/1 2/25/1 9/26/1 10/27/1
f 2/28/4 6/14/4 12/29/4 9/30/4
usemtl VINTEUM_CRYSTAL_BLOCK_CAP
f 11/31/5 10/19/5 9/30/5 12/32/5
