# Blender v2.80 (sub 75) OBJ File: 'chem devices.blend'
# www.blender.org
mtllib lever_2state_1.mtl
o LEVER_Cube.049
v 0.500000 0.291951 0.610953
v 0.500000 0.400204 0.673453
v 0.588388 0.247756 0.687500
v 0.588388 0.356010 0.750000
v 0.411612 0.247756 0.687500
v 0.411612 0.356010 0.750000
v 0.500000 0.203562 0.764047
v 0.500000 0.311815 0.826547
v 0.531250 0.015625 0.589563
v 0.468750 0.015625 0.589563
v 0.468750 0.046875 0.535437
v 0.531250 0.046875 0.535437
v 0.468750 0.232131 0.714563
v 0.468750 0.263381 0.660437
v 0.531250 0.232131 0.714563
v 0.531250 0.263381 0.660437
vt 0.750000 0.687500
vt 0.750000 0.812500
vt 0.625000 0.812500
vt 0.625000 0.687500
vt 0.750000 0.687500
vt 0.750000 0.812500
vt 0.625000 0.812500
vt 0.625000 0.687500
vt 0.750000 0.687500
vt 0.750000 0.812500
vt 0.625000 0.812500
vt 0.625000 0.687500
vt 0.750000 0.687500
vt 0.750000 0.812500
vt 0.625000 0.812500
vt 0.625000 0.687500
vt 0.750000 0.562500
vt 0.625000 0.562500
vt 0.625000 0.687500
vt 0.500000 0.812500
vt 0.500000 0.687500
vt 0.812500 0.812500
vt 0.875000 0.812500
vt 0.875000 0.562500
vt 0.812500 0.562500
vt 0.875000 0.812500
vt 0.812500 0.812500
vt 0.812500 0.562500
vt 0.875000 0.562500
vt 0.750000 0.812500
vt 0.750000 0.562500
vt 0.812500 0.812500
vt 0.750000 0.812500
vt 0.750000 0.562500
vt 0.812500 0.562500
vn 0.7071 0.3536 -0.6124
vn 0.7071 -0.3536 0.6124
vn -0.7071 -0.3536 0.6124
vn -0.7071 0.3536 -0.6124
vn 0.0000 -0.8660 -0.5000
vn 0.0000 0.8660 0.5000
vn 0.0000 0.5000 -0.8660
vn 0.0000 -0.5000 0.8660
vn -1.0000 0.0000 0.0000
vn 1.0000 -0.0000 0.0000
usemtl LEVERS
s off
f 1/1/1 2/2/1 4/3/1 3/4/1
f 3/5/2 4/6/2 8/7/2 7/8/2
f 7/9/3 8/10/3 6/11/3 5/12/3
f 5/13/4 6/14/4 2/15/4 1/16/4
f 3/5/5 7/17/5 5/18/5 1/16/5
f 8/19/6 4/3/6 2/20/6 6/21/6
f 14/22/7 16/23/7 12/24/7 11/25/7
f 15/26/8 13/27/8 10/28/8 9/29/8
f 13/30/9 14/22/9 11/25/9 10/31/9
f 16/32/10 15/33/10 9/34/10 12/35/10
o 2-STATE_Circle.007
v 0.468750 0.093750 0.469250
v 0.531250 0.093750 0.469250
v 0.468750 0.093750 0.343750
v 0.531250 0.093750 0.343750
v 0.468750 0.125000 0.469250
v 0.531250 0.125000 0.469250
v 0.468750 0.125000 0.343750
v 0.531250 0.125000 0.343750
v 0.406250 0.125000 0.281250
v 0.593750 0.125000 0.281250
v 0.406250 0.062500 0.218750
v 0.593750 0.062500 0.218750
v 0.406250 0.000000 0.218750
v 0.593750 0.000000 0.218750
v 0.531250 0.093750 0.530750
v 0.468750 0.093750 0.530750
v 0.531250 0.093750 0.656250
v 0.468750 0.093750 0.656250
v 0.531250 0.125000 0.530750
v 0.468750 0.125000 0.530750
v 0.531250 0.125000 0.656250
v 0.468750 0.125000 0.656250
v 0.593750 0.125000 0.718750
v 0.406250 0.125000 0.718750
v 0.593750 0.062500 0.781250
v 0.406250 0.062500 0.781250
v 0.593750 0.000000 0.781250
v 0.406250 0.000000 0.781250
v 0.406250 0.125000 0.469250
v 0.656250 0.000000 0.281250
v 0.406250 0.125000 0.530750
v 0.593750 0.125000 0.469250
v 0.656250 0.062500 0.281250
v 0.593750 0.125000 0.530750
v 0.343750 0.000000 0.530750
v 0.656250 0.000000 0.530750
v 0.656250 0.000000 0.469250
v 0.656250 0.000000 0.718750
v 0.656250 0.062500 0.530750
v 0.656250 0.062500 0.469250
v 0.656250 0.062500 0.718750
v 0.343750 0.062500 0.281250
v 0.343750 0.000000 0.281250
v 0.343750 0.062500 0.469250
v 0.343750 0.062500 0.530750
v 0.343750 0.000000 0.469250
v 0.343750 0.062500 0.718750
v 0.343750 0.000000 0.718750
vt 0.187500 0.937500
vt 0.187500 1.000000
vt 0.062500 1.000000
vt 0.062500 0.937500
vt 0.000000 0.875000
vt 0.062500 0.875000
vt 0.062500 0.937500
vt 0.000000 0.937500
vt 0.187500 0.875000
vt 0.187500 0.937500
vt 0.187500 0.875000
vt 0.062500 0.875000
vt 0.062500 0.937500
vt 0.187500 0.937500
vt 0.125000 0.875000
vt 0.062500 0.875000
vt 0.000000 0.812500
vt 0.187500 0.812500
vt 0.000000 0.750000
vt 0.187500 0.750000
vt 0.187500 0.812500
vt 0.000000 0.812500
vt 0.187500 0.750000
vt 0.000000 0.750000
vt 0.000000 0.687500
vt 0.187500 0.687500
vt 0.187500 1.000000
vt 0.187500 0.937500
vt 0.062500 0.937500
vt 0.062500 1.000000
vt 0.062500 0.875000
vt 0.000000 0.875000
vt 0.000000 0.937500
vt 0.062500 0.937500
vt 0.062500 0.875000
vt 0.187500 0.875000
vt 0.187500 0.937500
vt 0.062500 0.937500
vt 0.187500 0.875000
vt 0.187500 0.937500
vt 0.125000 0.875000
vt 0.062500 0.875000
vt 0.000000 0.812500
vt 0.187500 0.812500
vt 0.000000 0.750000
vt 0.187500 0.750000
vt 0.000000 0.750000
vt 0.187500 0.750000
vt 0.187500 0.687500
vt 0.000000 0.687500
vt 0.250000 0.937500
vt 0.250000 0.875000
vt 0.250000 0.937500
vt 0.250000 1.000000
vt 0.250000 0.875000
vt 0.250000 0.937500
vt 0.500000 0.875000
vt 0.437500 0.875000
vt 0.437500 0.812500
vt 0.500000 0.812500
vt 0.312500 0.875000
vt 0.437500 0.875000
vt 0.437500 0.812500
vt 0.250000 0.812500
vt 0.312500 0.875000
vt 0.250000 0.812500
vt 0.500000 0.875000
vt 0.437500 0.875000
vt 0.437500 0.812500
vt 0.500000 0.812500
vt 0.312500 0.875000
vt 0.250000 0.812500
vt 0.312500 0.875000
vt 0.437500 0.875000
vt 0.437500 0.812500
vt 0.250000 0.812500
vt 0.250000 0.750000
vt 0.437500 0.750000
vt 0.250000 0.750000
vt 0.437500 0.750000
vt 0.437500 0.812500
vt 0.250000 0.812500
vt 0.250000 0.750000
vt 0.437500 0.750000
vt 0.437500 0.687500
vt 0.250000 0.687500
vt 0.187500 0.687500
vt 0.187500 0.750000
vt 0.187500 0.687500
vt 0.250000 0.687500
vt 0.250000 0.750000
vt 0.437500 0.750000
vt 0.250000 0.750000
vt 0.250000 0.812500
vt 0.500000 0.750000
vt 0.437500 0.750000
vt 0.437500 0.812500
vt 0.250000 0.750000
vt 0.250000 0.687500
vt 0.437500 0.750000
vt 0.437500 0.687500
vt 0.187500 0.812500
vt 0.437500 0.687500
vt 0.500000 0.687500
vt 0.250000 0.687500
vt 0.250000 0.750000
vt 0.250000 0.812500
vt 0.187500 0.750000
vt 0.437500 0.687500
vt 0.500000 0.750000
vt 0.500000 0.687500
vt 0.437500 0.750000
vt 0.500000 0.750000
vt 0.500000 0.812500
vt 1.000000 1.000000
vt 0.937500 1.000000
vt 0.937500 0.937500
vt 1.000000 0.937500
vt 0.937500 0.937500
vt 1.000000 0.937500
vt 1.000000 1.000000
vt 0.937500 1.000000
vt 1.000000 0.937500
vt 0.937500 0.937500
vt 1.000000 1.000000
vt 0.937500 1.000000
vn 0.0000 1.0000 0.0000
vn 0.0000 0.0000 1.0000
vn -1.0000 0.0000 0.0000
vn 1.0000 0.0000 0.0000
vn 0.0000 0.7071 -0.7071
vn 0.0000 0.0000 -1.0000
vn 0.0000 0.7071 0.7071
vn 0.7071 0.7071 0.0000
vn 0.7071 0.0000 -0.7071
vn 0.7071 0.0000 0.7071
vn -0.7071 0.7071 0.0000
vn -0.5774 0.5774 0.5774
vn 0.5774 0.5774 -0.5774
vn -0.7071 0.0000 0.7071
vn 0.5774 0.5774 0.5774
vn -0.7071 0.0000 -0.7071
vn -0.5774 0.5774 -0.5774
vn 0.0000 -1.0000 0.0000
usemtl LEVERS
s off
f 17/36/11 18/37/11 20/38/11 19/39/11
f 19/40/12 20/41/12 24/42/12 23/43/12
f 20/41/13 18/44/13 22/45/13 24/42/13
f 17/46/14 19/47/14 23/48/14 21/49/14
f 23/50/11 24/51/11 26/52/11 25/53/11
f 25/54/15 26/55/15 28/56/15 27/57/15
f 27/58/16 28/59/16 30/60/16 29/61/16
f 31/62/11 32/63/11 34/64/11 33/65/11
f 33/66/16 34/67/16 38/68/16 37/69/16
f 34/70/14 32/71/14 36/72/14 38/73/14
f 31/74/13 33/66/13 37/69/13 35/75/13
f 37/76/11 38/77/11 40/78/11 39/79/11
f 39/79/17 40/78/17 42/80/17 41/81/17
f 41/82/12 42/83/12 44/84/12 43/85/12
f 21/86/14 36/72/14 32/71/14 17/87/14
f 17/36/11 32/88/11 31/89/11 18/37/11
f 18/44/13 31/90/13 35/91/13 22/45/13
f 36/92/11 21/93/11 45/94/11 47/95/11
f 38/96/11 36/97/11 47/98/11 40/99/11
f 21/93/11 23/100/11 25/101/11 45/94/11
f 22/102/11 35/103/11 50/104/11 48/105/11
f 35/103/11 37/106/11 39/107/11 50/104/11
f 24/108/11 22/109/11 48/110/11 26/111/11
f 50/104/18 39/107/18 57/112/18 55/113/18
f 26/114/18 48/115/18 56/116/18 49/117/18
f 49/118/14 56/119/14 53/120/14 46/121/14
f 30/122/19 28/123/19 49/118/19 46/121/19
f 41/81/20 43/124/20 54/125/20 57/112/20
f 45/94/21 25/101/21 58/126/21 60/127/21
f 40/128/22 63/129/22 42/83/22
f 47/95/21 45/94/21 60/127/21 61/130/21
f 28/56/23 26/55/23 49/118/23
f 40/128/21 47/131/21 61/132/21 63/129/21
f 42/83/24 63/133/24 64/134/24 44/84/24
f 63/133/13 61/135/13 51/136/13 64/134/13
f 39/107/25 41/137/25 57/112/25
f 61/130/13 60/127/13 62/138/13 51/139/13
f 60/127/13 58/126/13 59/140/13 62/138/13
f 29/61/26 59/140/26 58/126/26 27/58/26
f 25/141/27 27/142/27 58/143/27
f 55/113/14 57/112/14 54/125/14 52/144/14
f 56/145/14 55/113/14 52/144/14 53/146/14
f 48/110/18 50/147/18 55/148/18 56/149/18
f 43/150/28 44/151/28 64/152/28 54/153/28
f 29/154/28 30/155/28 46/156/28 59/157/28
f 59/157/28 46/156/28 53/158/28 62/159/28
f 52/160/28 51/161/28 62/159/28 53/158/28
f 64/152/28 51/161/28 52/160/28 54/153/28
