# Blender v2.80 (sub 75) OBJ File: 'chem devices.blend'
# www.blender.org
mtllib lever_6state_3.mtl
o 6-STATE_Circle.003
v 0.531250 0.093750 0.543012
v 0.468750 0.093750 0.543012
v 0.531250 0.093750 0.668512
v 0.468750 0.093750 0.668512
v 0.531250 0.125000 0.543012
v 0.531250 0.125000 0.668512
v 0.468750 0.125000 0.668512
v 0.531250 0.125000 0.731012
v 0.468750 0.125000 0.731012
v 0.531250 0.062500 0.793512
v 0.468750 0.062500 0.793512
v 0.531250 0.000000 0.793512
v 0.468750 0.000000 0.793512
v 0.550564 0.093750 0.483571
v 0.669921 0.093750 0.522353
v 0.650608 0.093750 0.581794
v 0.550564 0.125000 0.483571
v 0.669921 0.125000 0.522353
v 0.650608 0.125000 0.581794
v 0.729362 0.125000 0.541666
v 0.710049 0.125000 0.601107
v 0.788803 0.062500 0.560980
v 0.769490 0.062500 0.620421
v 0.788803 0.000000 0.560980
v 0.769490 0.000000 0.620421
v 0.573767 0.093750 0.345303
v 0.624331 0.093750 0.382039
v 0.573767 0.125000 0.345303
v 0.624331 0.125000 0.382039
v 0.610504 0.125000 0.294739
v 0.661067 0.125000 0.331476
v 0.647240 0.062500 0.244176
v 0.697804 0.062500 0.280912
v 0.647240 0.000000 0.244176
v 0.697804 0.000000 0.280912
v 0.500000 0.093750 0.446834
v 0.375669 0.093750 0.382039
v 0.426233 0.093750 0.345303
v 0.500000 0.125000 0.446834
v 0.375669 0.125000 0.382039
v 0.426233 0.125000 0.345303
v 0.338933 0.125000 0.331476
v 0.389496 0.125000 0.294739
v 0.302196 0.062500 0.280912
v 0.352760 0.062500 0.244176
v 0.302196 0.000000 0.280912
v 0.352760 0.000000 0.244176
v 0.449436 0.093750 0.483571
v 0.349392 0.093750 0.581794
v 0.330079 0.093750 0.522353
v 0.468750 0.125000 0.543012
v 0.449436 0.125000 0.483571
v 0.349392 0.125000 0.581794
v 0.330079 0.125000 0.522353
v 0.289951 0.125000 0.601107
v 0.270638 0.125000 0.541666
v 0.230510 0.062500 0.620421
v 0.211197 0.062500 0.560980
v 0.230510 0.000000 0.620421
v 0.211197 0.000000 0.560980
vt 0.625000 0.812500
vt 0.625000 0.875000
vt 0.500000 0.875000
vt 0.500000 0.812500
vt 0.750000 0.812500
vt 0.687500 0.812500
vt 0.687500 0.875000
vt 0.750000 0.875000
vt 0.750000 0.812500
vt 0.875000 0.812500
vt 0.875000 0.875000
vt 0.750000 0.875000
vt 0.875000 0.812500
vt 0.875000 0.875000
vt 0.062500 0.187500
vt 0.000000 0.187500
vt 0.000000 0.125000
vt 0.062500 0.125000
vt 0.000000 0.062500
vt 0.062500 0.062500
vt 0.000000 0.000000
vt 0.062500 0.000000
vt 0.625000 0.812500
vt 0.625000 0.875000
vt 0.500000 0.875000
vt 0.500000 0.812500
vt 0.750000 0.812500
vt 0.687500 0.812500
vt 0.687500 0.875000
vt 0.750000 0.875000
vt 0.750000 0.812500
vt 0.750000 0.875000
vt 0.875000 0.812500
vt 0.875000 0.875000
vt 0.062500 0.187500
vt 0.000000 0.187500
vt 0.000000 0.125000
vt 0.062500 0.125000
vt 0.000000 0.062500
vt 0.062500 0.062500
vt 0.000000 0.000000
vt 0.062500 0.000000
vt 0.625000 0.812500
vt 0.625000 0.875000
vt 0.500000 0.875000
vt 0.500000 0.812500
vt 0.750000 0.812500
vt 0.687500 0.812500
vt 0.687500 0.875000
vt 0.750000 0.875000
vt 0.750000 0.812500
vt 0.750000 0.875000
vt 0.875000 0.812500
vt 0.875000 0.875000
vt 0.062500 0.187500
vt 0.000000 0.187500
vt 0.000000 0.125000
vt 0.062500 0.125000
vt 0.000000 0.062500
vt 0.062500 0.062500
vt 0.000000 0.000000
vt 0.062500 0.000000
vt 0.625000 0.812500
vt 0.625000 0.875000
vt 0.500000 0.875000
vt 0.500000 0.812500
vt 0.750000 0.812500
vt 0.687500 0.812500
vt 0.687500 0.875000
vt 0.750000 0.875000
vt 0.750000 0.812500
vt 0.750000 0.875000
vt 0.875000 0.812500
vt 0.875000 0.875000
vt 0.062500 0.187500
vt 0.000000 0.187500
vt 0.000000 0.125000
vt 0.062500 0.125000
vt 0.000000 0.062500
vt 0.062500 0.062500
vt 0.000000 0.000000
vt 0.062500 0.000000
vt 0.625000 0.812500
vt 0.625000 0.875000
vt 0.500000 0.875000
vt 0.500000 0.812500
vt 0.687500 0.812500
vt 0.750000 0.812500
vt 0.750000 0.875000
vt 0.687500 0.875000
vt 0.750000 0.812500
vt 0.750000 0.875000
vt 0.062500 0.187500
vt 0.000000 0.187500
vt 0.000000 0.125000
vt 0.062500 0.125000
vt 0.000000 0.062500
vt 0.062500 0.062500
vt 0.000000 0.000000
vt 0.062500 0.000000
vt 0.250000 0.237446
vt 0.176239 0.179502
vt 0.323761 0.179502
vt 0.250000 0.237446
vt 0.176239 0.179502
vt 0.323761 0.179502
vt 0.250000 0.237446
vt 0.176239 0.179502
vt 0.323761 0.179502
vt 0.176239 0.179502
vt 0.323761 0.179502
vt 0.250000 0.237446
vt 0.250000 0.237446
vt 0.176239 0.179502
vt 0.323761 0.179502
vt 0.176239 0.187500
vt 0.139496 0.125000
vt 0.360504 0.125000
vt 0.323761 0.187500
vt 0.102743 0.062500
vt 0.397257 0.062500
vt 0.102743 0.000000
vt 0.397257 0.000000
vt 0.176239 0.187500
vt 0.139496 0.125000
vt 0.360504 0.125000
vt 0.323761 0.187500
vt 0.102743 0.062500
vt 0.397257 0.062500
vt 0.102743 0.000000
vt 0.397257 0.000000
vt 0.397257 0.000000
vt 0.397257 0.062500
vt 0.102743 0.062500
vt 0.102743 0.000000
vt 0.360504 0.125000
vt 0.139496 0.125000
vt 0.323761 0.187500
vt 0.176239 0.187500
vt 0.176239 0.187500
vt 0.139496 0.125000
vt 0.360504 0.125000
vt 0.323761 0.187500
vt 0.102743 0.062500
vt 0.397257 0.062500
vt 0.102743 0.000000
vt 0.397257 0.000000
vt 0.102743 0.062500
vt 0.102743 0.000000
vt 0.397257 0.000000
vt 0.397257 0.062500
vt 0.139496 0.125000
vt 0.360504 0.125000
vt 0.176239 0.187500
vt 0.323761 0.187500
vt 0.687500 0.875000
vt 0.687500 0.875000
vt 0.937500 0.937500
vt 1.000000 0.937500
vt 1.000000 1.000000
vt 0.937500 1.000000
vt 1.000000 0.937500
vt 1.000000 1.000000
vt 0.937500 1.000000
vt 0.937500 0.937500
vt 0.937500 0.937500
vt 1.000000 0.937500
vt 1.000000 1.000000
vt 0.937500 1.000000
vt 1.000000 1.000000
vt 0.937500 1.000000
vn 0.0000 1.0000 0.0000
vn 0.0000 0.0000 -1.0000
vn 1.0000 0.0000 0.0000
vn -1.0000 0.0000 0.0000
vn 0.0000 0.7071 0.7071
vn 0.0000 0.0000 1.0000
vn -0.9511 0.0000 -0.3090
vn 0.3090 0.0000 -0.9511
vn -0.3090 0.0000 0.9511
vn 0.6725 0.7071 0.2185
vn 0.9511 0.0000 0.3090
vn -0.5878 0.0000 0.8090
vn -0.8090 0.0000 -0.5878
vn 0.8090 0.0000 0.5878
vn 0.4156 0.7071 -0.5721
vn 0.5878 0.0000 -0.8090
vn 0.5878 0.0000 0.8090
vn -0.8090 0.0000 0.5878
vn 0.8090 0.0000 -0.5878
vn -0.4156 0.7071 -0.5721
vn -0.5878 0.0000 -0.8090
vn 0.9511 0.0000 -0.3090
vn 0.3090 0.0000 0.9511
vn -0.3090 0.0000 -0.9511
vn -0.6725 0.7071 0.2185
vn -0.9511 0.0000 0.3090
vn -0.0000 0.6290 -0.7774
vn -0.7394 0.6290 -0.2402
vn -0.4570 0.6290 0.6290
vn 0.4570 0.6290 0.6290
vn 0.7394 0.6290 -0.2402
vn 0.0000 -1.0000 0.0000
usemtl LEVERS
s off
f 1/1/1 2/2/1 4/3/1 3/4/1
f 3/5/2 4/6/2 7/7/2 6/8/2
f 4/9/3 2/10/3 51/11/3 7/12/3
f 1/13/4 3/5/4 6/8/4 5/14/4
f 6/15/1 7/16/1 9/17/1 8/18/1
f 8/18/5 9/17/5 11/19/5 10/20/5
f 10/20/6 11/19/6 13/21/6 12/22/6
f 14/23/1 1/24/1 16/25/1 15/26/1
f 15/27/7 16/28/7 19/29/7 18/30/7
f 16/31/8 1/13/8 5/14/8 19/32/8
f 14/33/9 15/27/9 18/30/9 17/34/9
f 18/35/1 19/36/1 21/37/1 20/38/1
f 20/38/10 21/37/10 23/39/10 22/40/10
f 22/40/11 23/39/11 25/41/11 24/42/11
f 36/43/1 14/44/1 27/45/1 26/46/1
f 26/47/12 27/48/12 29/49/12 28/50/12
f 27/51/13 14/33/13 17/34/13 29/52/13
f 36/53/14 26/47/14 28/50/14 39/54/14
f 28/55/1 29/56/1 31/57/1 30/58/1
f 30/58/15 31/57/15 33/59/15 32/60/15
f 32/60/16 33/59/16 35/61/16 34/62/16
f 48/63/1 36/64/1 38/65/1 37/66/1
f 37/67/17 38/68/17 41/69/17 40/70/17
f 38/71/18 36/53/18 39/54/18 41/72/18
f 48/73/19 37/67/19 40/70/19 52/74/19
f 40/75/1 41/76/1 43/77/1 42/78/1
f 42/78/20 43/77/20 45/79/20 44/80/20
f 44/80/21 45/79/21 47/81/21 46/82/21
f 2/83/1 48/84/1 50/85/1 49/86/1
f 49/87/22 50/88/22 54/89/22 53/90/22
f 50/88/23 48/73/23 52/74/23 54/89/23
f 2/10/24 49/91/24 53/92/24 51/11/24
f 53/93/1 54/94/1 56/95/1 55/96/1
f 55/96/25 56/95/25 58/97/25 57/98/25
f 57/98/26 58/97/26 60/99/26 59/100/26
f 17/101/1 18/102/1 29/103/1
f 39/104/1 28/105/1 41/106/1
f 52/107/1 40/108/1 54/109/1
f 53/110/1 7/111/1 51/112/1
f 5/113/1 6/114/1 19/115/1
f 28/116/1 30/117/1 43/118/1 41/119/1
f 30/117/27 32/120/27 45/121/27 43/118/27
f 32/120/2 34/122/2 47/123/2 45/121/2
f 40/124/1 42/125/1 56/126/1 54/127/1
f 42/125/28 44/128/28 58/129/28 56/126/28
f 44/128/7 46/130/7 60/131/7 58/129/7
f 13/132/12 11/133/12 57/134/12 59/135/12
f 11/133/29 9/136/29 55/137/29 57/134/29
f 9/136/1 7/138/1 53/139/1 55/137/1
f 6/140/1 8/141/1 21/142/1 19/143/1
f 8/141/30 10/144/30 23/145/30 21/142/30
f 10/144/17 12/146/17 25/147/17 23/145/17
f 22/148/22 24/149/22 35/150/22 33/151/22
f 20/152/31 22/148/31 33/151/31 31/153/31
f 18/154/1 20/152/1 31/153/1 29/155/1
f 14/44/1 36/43/1 1/156/1
f 48/84/1 2/83/1 36/157/1
f 2/2/1 1/1/1 36/157/1
f 12/158/32 35/159/32 24/160/32 25/161/32
f 13/162/32 59/163/32 60/164/32 46/165/32
f 35/166/32 46/167/32 47/168/32 34/169/32
f 12/170/32 13/171/32 46/165/32 35/159/32
o LEVER_Cube.049
v 0.426830 0.284138 0.399289
v 0.390093 0.392391 0.348726
v 0.310329 0.239944 0.389315
v 0.273592 0.348197 0.338752
v 0.453344 0.239944 0.285409
v 0.416608 0.348197 0.234845
v 0.336844 0.195750 0.275435
v 0.300107 0.304003 0.224871
v 0.414121 0.007812 0.434963
v 0.464684 0.007812 0.398226
v 0.496499 0.039062 0.442015
v 0.445935 0.039062 0.478752
v 0.391211 0.224319 0.297099
v 0.423026 0.255569 0.340888
v 0.340647 0.224319 0.333836
v 0.372462 0.255569 0.377625
vt 0.750000 0.687500
vt 0.750000 0.812500
vt 0.625000 0.812500
vt 0.625000 0.687500
vt 0.750000 0.687500
vt 0.750000 0.812500
vt 0.625000 0.812500
vt 0.625000 0.687500
vt 0.750000 0.687500
vt 0.750000 0.812500
vt 0.625000 0.812500
vt 0.625000 0.687500
vt 0.750000 0.687500
vt 0.750000 0.812500
vt 0.625000 0.812500
vt 0.625000 0.687500
vt 0.750000 0.562500
vt 0.625000 0.562500
vt 0.625000 0.687500
vt 0.500000 0.812500
vt 0.500000 0.687500
vt 0.812500 0.812500
vt 0.875000 0.812500
vt 0.875000 0.562500
vt 0.812500 0.562500
vt 0.875000 0.812500
vt 0.812500 0.812500
vt 0.812500 0.562500
vt 0.875000 0.562500
vt 0.750000 0.812500
vt 0.750000 0.562500
vt 0.812500 0.812500
vt 0.750000 0.812500
vt 0.750000 0.562500
vt 0.812500 0.562500
vn -0.2121 0.3536 0.9110
vn -0.9320 -0.3536 -0.0798
vn 0.2121 -0.3536 -0.9110
vn 0.9320 0.3536 0.0798
vn 0.2939 -0.8660 0.4045
vn -0.2939 0.8660 -0.4045
vn 0.5090 0.5000 0.7006
vn -0.5090 -0.5000 -0.7006
vn 0.8090 0.0000 -0.5878
vn -0.8090 0.0000 0.5878
usemtl LEVERS
s off
f 61/172/33 62/173/33 64/174/33 63/175/33
f 63/176/34 64/177/34 68/178/34 67/179/34
f 67/180/35 68/181/35 66/182/35 65/183/35
f 65/184/36 66/185/36 62/186/36 61/187/36
f 63/176/37 67/188/37 65/189/37 61/187/37
f 68/190/38 64/174/38 62/191/38 66/192/38
f 74/193/39 76/194/39 72/195/39 71/196/39
f 75/197/40 73/198/40 70/199/40 69/200/40
f 73/201/41 74/193/41 71/196/41 70/202/41
f 76/203/42 75/204/42 69/205/42 72/206/42
