# Blender v2.80 (sub 75) OBJ File: 'chem devices.blend'
# www.blender.org
mtllib lever_5state_2.mtl
o 5-STATE_Circle.004
v 0.468750 0.093750 0.656750
v 0.468750 0.093750 0.343250
v 0.531250 0.093750 0.343250
v 0.468750 0.125000 0.468750
v 0.531250 0.125000 0.468750
v 0.468750 0.125000 0.343250
v 0.531250 0.125000 0.343250
v 0.781750 -0.000000 0.531250
v 0.781750 -0.000000 0.468750
v 0.218250 -0.000000 0.468750
v 0.218250 -0.000000 0.531250
v 0.468750 0.000000 0.781750
v 0.531250 0.000000 0.781750
v 0.531250 0.093750 0.656750
v 0.343250 0.093750 0.531250
v 0.343250 0.093750 0.468750
v 0.468750 0.125000 0.531250
v 0.468750 0.093750 0.531250
v 0.343250 0.125000 0.531250
v 0.343250 0.125000 0.468750
v 0.531250 0.000000 0.218250
v 0.468750 0.000000 0.218250
v 0.468750 0.062500 0.218250
v 0.531250 0.062500 0.218250
v 0.531250 0.062500 0.781750
v 0.468750 0.062500 0.781750
v 0.468750 0.093750 0.468750
v 0.531250 0.125000 0.531250
v 0.531250 0.125000 0.656750
v 0.468750 0.125000 0.656750
v 0.218250 0.062500 0.531250
v 0.218250 0.062500 0.468750
v 0.781750 0.062500 0.468750
v 0.781750 0.062500 0.531250
v 0.468750 0.125000 0.719250
v 0.531250 0.125000 0.719250
v 0.531250 0.093750 0.468750
v 0.656750 0.093750 0.468750
v 0.656750 0.093750 0.531250
v 0.656750 0.125000 0.468750
v 0.656750 0.125000 0.531250
v 0.719250 0.125000 0.531250
v 0.719250 0.125000 0.468750
v 0.280750 0.125000 0.468750
v 0.280750 0.125000 0.531250
v 0.531250 0.125000 0.280750
v 0.468750 0.125000 0.280750
v 0.531250 0.093750 0.531250
vt 0.625000 0.875000
vt 0.625000 0.937500
vt 0.500000 0.937500
vt 0.500000 0.875000
vt 0.750000 0.875000
vt 0.687500 0.875000
vt 0.687500 0.937500
vt 0.750000 0.937500
vt 0.750000 0.875000
vt 0.875000 0.875000
vt 0.875000 0.937500
vt 0.750000 0.937500
vt 0.875000 0.875000
vt 0.875000 0.937500
vt 0.864632 0.062543
vt 0.820433 0.125000
vt 0.554567 0.125000
vt 0.510368 0.062543
vt 0.864632 0.062543
vt 0.820433 0.125000
vt 0.554567 0.125000
vt 0.510368 0.062543
vt 0.625000 0.875000
vt 0.625000 0.937500
vt 0.500000 0.937500
vt 0.500000 0.875000
vt 0.750000 0.875000
vt 0.687500 0.875000
vt 0.687500 0.937500
vt 0.750000 0.937500
vt 0.750000 0.875000
vt 0.750000 0.937500
vt 0.875000 0.875000
vt 0.875000 0.937500
vt 0.510368 0.062543
vt 0.864632 0.062543
vt 0.820433 0.125000
vt 0.554567 0.125000
vt 0.500000 0.125000
vt 0.437500 0.125000
vt 0.437500 0.062500
vt 0.500000 0.062500
vt 0.625000 0.875000
vt 0.625000 0.937500
vt 0.500000 0.937500
vt 0.500000 0.875000
vt 0.750000 0.875000
vt 0.687500 0.875000
vt 0.687500 0.937500
vt 0.750000 0.937500
vt 0.750000 0.875000
vt 0.750000 0.937500
vt 0.875000 0.875000
vt 0.875000 0.937500
vt 0.500000 0.125000
vt 0.437500 0.125000
vt 0.437500 0.062500
vt 0.500000 0.062500
vt 0.500000 0.125000
vt 0.437500 0.125000
vt 0.437500 0.062500
vt 0.500000 0.062500
vt 0.625000 0.875000
vt 0.625000 0.937500
vt 0.500000 0.937500
vt 0.500000 0.875000
vt 0.687500 0.875000
vt 0.750000 0.875000
vt 0.750000 0.937500
vt 0.687500 0.937500
vt 0.750000 0.875000
vt 0.750000 0.937500
vt 0.500000 0.125000
vt 0.437500 0.125000
vt 0.437500 0.062500
vt 0.500000 0.062500
vt 0.687500 0.245238
vt 0.598759 0.163865
vt 0.776241 0.163865
vt 0.687500 0.875000
vt 0.687500 0.937500
vt 1.000000 0.937500
vt 1.000000 1.000000
vt 0.937500 1.000000
vt 0.937500 0.937500
vt 0.937500 1.000000
vt 1.000000 0.937500
vt 1.000000 1.000000
vt 1.000000 1.000000
vt 0.937500 1.000000
vt 0.937500 0.937500
vt 0.437500 0.000000
vt 0.500000 0.000000
vt 0.510368 0.000129
vt 0.864632 0.000129
vt 0.437500 0.000000
vt 0.500000 0.000000
vt 0.437500 0.000000
vt 0.500000 0.000000
vt 0.437500 0.000000
vt 0.500000 0.000000
vt 0.510368 0.000129
vt 0.864632 0.000129
vt 0.776241 0.163865
vt 0.687500 0.245238
vt 0.598759 0.163865
vt 0.598759 0.163865
vt 0.776241 0.163865
vt 0.687500 0.245238
vt 0.687500 0.245238
vt 0.598759 0.163865
vt 0.776241 0.163865
vt 0.554567 0.125000
vt 0.820433 0.125000
vt 0.776241 0.187500
vt 0.598759 0.187500
vt 0.864632 0.062543
vt 0.510368 0.062543
vt 0.510368 0.000129
vt 0.864632 0.000129
vt 0.776241 0.187500
vt 0.598759 0.187500
vt 0.776241 0.187500
vt 0.598759 0.187500
vt 0.776241 0.187500
vt 0.598759 0.187500
vt 0.500000 0.187500
vt 0.437500 0.187500
vt 0.500000 0.187500
vt 0.437500 0.187500
vt 0.500000 0.187500
vt 0.437500 0.187500
vt 0.500000 0.187500
vt 0.437500 0.187500
vt 0.510368 0.000129
vt 0.864632 0.000129
vn 0.0000 1.0000 0.0000
vn 0.0000 0.0000 1.0000
vn -1.0000 0.0000 0.0000
vn 1.0000 0.0000 0.0000
vn 0.5774 0.5774 -0.5774
vn 0.5774 0.5774 0.5774
vn 0.0000 0.0000 -1.0000
vn -0.5774 0.5774 0.5774
vn 0.0000 0.7071 -0.7071
vn 0.0000 0.7071 0.7071
vn -0.7071 0.7071 0.0000
vn 0.7071 0.7071 0.0000
vn 0.0000 -1.0000 0.0000
vn 0.7071 0.0000 0.7071
vn 0.7071 0.0000 -0.7071
vn -0.7071 0.0000 -0.7071
vn -0.7071 0.0000 0.7071
vn -0.5774 0.5774 -0.5774
usemtl LEVERS
s off
f 27/1/1 37/2/1 3/3/1 2/4/1
f 2/5/2 3/6/2 7/7/2 6/8/2
f 3/9/3 37/10/3 5/11/3 7/12/3
f 27/13/4 2/5/4 6/8/4 4/14/4
f 24/15/5 46/16/5 43/17/5 33/18/5
f 34/19/6 42/20/6 36/21/6 25/22/6
f 18/23/1 27/24/1 16/25/1 15/26/1
f 15/27/4 16/28/4 20/29/4 19/30/4
f 16/31/2 27/13/2 4/14/2 20/32/2
f 18/33/7 15/27/7 19/30/7 17/34/7
f 31/35/8 26/36/8 35/37/8 45/38/8
f 47/39/9 46/40/9 24/41/9 23/42/9
f 48/43/1 18/44/1 1/45/1 14/46/1
f 14/47/7 1/48/7 30/49/7 29/50/7
f 1/51/4 18/33/4 17/34/4 30/52/4
f 48/53/3 14/47/3 29/50/3 28/54/3
f 36/55/10 35/56/10 26/57/10 25/58/10
f 45/59/11 44/60/11 32/61/11 31/62/11
f 37/63/1 48/64/1 39/65/1 38/66/1
f 38/67/3 39/68/3 41/69/3 40/70/3
f 39/68/7 48/53/7 28/54/7 41/69/7
f 37/10/2 38/71/2 40/72/2 5/11/2
f 43/73/12 42/74/12 34/75/12 33/76/12
f 28/77/1 29/78/1 41/79/1
f 48/64/1 37/63/1 27/80/1 18/81/1
f 12/82/13 22/83/13 21/84/13 13/85/13
f 8/86/13 13/85/13 21/87/13 9/88/13
f 11/89/13 10/90/13 22/91/13 12/82/13
f 31/62/3 32/61/3 10/92/3 11/93/3
f 34/19/14 25/22/14 13/94/14 8/95/14
f 25/58/2 26/57/2 12/96/2 13/97/2
f 33/76/4 34/75/4 8/98/4 9/99/4
f 23/42/7 24/41/7 21/100/7 22/101/7
f 24/15/15 33/18/15 9/102/15 21/103/15
f 7/104/1 5/105/1 40/106/1
f 6/107/1 20/108/1 4/109/1
f 17/110/1 19/111/1 30/112/1
f 47/113/1 44/114/1 20/115/1 6/116/1
f 32/117/16 23/118/16 22/119/16 10/120/16
f 7/121/1 40/122/1 43/17/1 46/16/1
f 41/123/1 29/124/1 36/21/1 42/20/1
f 45/38/1 35/37/1 30/125/1 19/126/1
f 29/127/1 30/128/1 35/56/1 36/55/1
f 40/129/1 41/130/1 42/74/1 43/73/1
f 19/131/1 20/132/1 44/60/1 45/59/1
f 6/133/1 7/134/1 46/40/1 47/39/1
f 26/36/17 31/35/17 11/135/17 12/136/17
f 23/118/18 32/117/18 44/114/18 47/113/18
o LEVER_Cube.049
v 0.389047 0.287764 0.500000
v 0.326547 0.396017 0.500000
v 0.312500 0.243570 0.588388
v 0.250000 0.351823 0.588388
v 0.312500 0.243570 0.411612
v 0.250000 0.351823 0.411612
v 0.235953 0.199375 0.500000
v 0.173453 0.307629 0.500000
v 0.410437 0.011438 0.531250
v 0.410437 0.011438 0.468750
v 0.464563 0.042688 0.468750
v 0.464563 0.042688 0.531250
v 0.285437 0.227945 0.468750
v 0.339563 0.259195 0.468750
v 0.285437 0.227945 0.531250
v 0.339563 0.259195 0.531250
vt 0.750000 0.687500
vt 0.750000 0.812500
vt 0.625000 0.812500
vt 0.625000 0.687500
vt 0.750000 0.687500
vt 0.750000 0.812500
vt 0.625000 0.812500
vt 0.625000 0.687500
vt 0.750000 0.687500
vt 0.750000 0.812500
vt 0.625000 0.812500
vt 0.625000 0.687500
vt 0.750000 0.687500
vt 0.750000 0.812500
vt 0.625000 0.812500
vt 0.625000 0.687500
vt 0.750000 0.562500
vt 0.625000 0.562500
vt 0.625000 0.687500
vt 0.500000 0.812500
vt 0.500000 0.687500
vt 0.812500 0.812500
vt 0.875000 0.812500
vt 0.875000 0.562500
vt 0.812500 0.562500
vt 0.875000 0.812500
vt 0.812500 0.812500
vt 0.812500 0.562500
vt 0.875000 0.562500
vt 0.750000 0.812500
vt 0.750000 0.562500
vt 0.812500 0.812500
vt 0.750000 0.812500
vt 0.750000 0.562500
vt 0.812500 0.562500
vn 0.6124 0.3536 0.7071
vn -0.6124 -0.3536 0.7071
vn -0.6124 -0.3536 -0.7071
vn 0.6124 0.3536 -0.7071
vn 0.5000 -0.8660 0.0000
vn -0.5000 0.8660 0.0000
vn 0.8660 0.5000 0.0000
vn -0.8660 -0.5000 -0.0000
vn 0.0000 0.0000 -1.0000
vn 0.0000 0.0000 1.0000
usemtl LEVERS
s off
f 49/137/19 50/138/19 52/139/19 51/140/19
f 51/141/20 52/142/20 56/143/20 55/144/20
f 55/145/21 56/146/21 54/147/21 53/148/21
f 53/149/22 54/150/22 50/151/22 49/152/22
f 51/141/23 55/153/23 53/154/23 49/152/23
f 56/155/24 52/139/24 50/156/24 54/157/24
f 62/158/25 64/159/25 60/160/25 59/161/25
f 63/162/26 61/163/26 58/164/26 57/165/26
f 61/166/27 62/158/27 59/161/27 58/167/27
f 64/168/28 63/169/28 57/170/28 60/171/28
