# Blender v2.80 (sub 75) OBJ File: 'chem devices.blend'
# www.blender.org
mtllib lever_3state_1.mtl
o 3-STATE_Circle.002
v 0.468750 0.093750 0.469250
v 0.531250 0.093750 0.469250
v 0.468750 0.093750 0.343750
v 0.531250 0.093750 0.343750
v 0.468750 0.125000 0.469250
v 0.531250 0.125000 0.469250
v 0.468750 0.125000 0.343750
v 0.531250 0.125000 0.343750
v 0.406250 0.125000 0.281250
v 0.593750 0.125000 0.281250
v 0.406250 0.062500 0.218750
v 0.593750 0.062500 0.218750
v 0.406250 0.000000 0.218750
v 0.593750 0.000000 0.218750
v 0.531250 0.093750 0.530750
v 0.468750 0.093750 0.530750
v 0.531250 0.093750 0.656250
v 0.468750 0.093750 0.656250
v 0.531250 0.125000 0.530750
v 0.468750 0.125000 0.530750
v 0.531250 0.125000 0.656250
v 0.468750 0.125000 0.656250
v 0.593750 0.125000 0.718750
v 0.406250 0.125000 0.718750
v 0.593750 0.062500 0.781250
v 0.406250 0.062500 0.781250
v 0.593750 0.000000 0.781250
v 0.406250 0.000000 0.781250
v 0.406250 0.125000 0.469250
v 0.656250 0.000000 0.281250
v 0.406250 0.125000 0.530750
v 0.281250 0.000000 0.406750
v 0.593750 0.125000 0.469250
v 0.656250 0.062500 0.281250
v 0.593750 0.125000 0.530750
v 0.343750 0.125000 0.469250
v 0.343750 0.125000 0.530750
v 0.656250 0.125000 0.469250
v 0.656250 0.125000 0.530750
v 0.343750 0.000000 0.593250
v 0.656250 0.000000 0.593250
v 0.656250 0.000000 0.406750
v 0.656250 0.000000 0.718750
v 0.656250 0.062500 0.593250
v 0.656250 0.062500 0.406750
v 0.656250 0.062500 0.718750
v 0.343750 0.062500 0.406750
v 0.343750 0.062500 0.281250
v 0.343750 0.062500 0.593250
v 0.343750 0.000000 0.281250
v 0.281250 0.062500 0.406750
v 0.281250 0.062500 0.593250
v 0.343750 0.000000 0.406750
v 0.718750 0.062500 0.593250
v 0.343750 0.062500 0.718750
v 0.281250 0.000000 0.593250
v 0.718750 0.062500 0.406750
v 0.343750 0.000000 0.718750
v 0.718750 0.000000 0.593250
v 0.718750 0.000000 0.406750
vt 0.375000 1.000000
vt 0.375000 0.937500
vt 0.250000 0.937500
vt 0.250000 1.000000
vt 0.312500 0.875000
vt 0.250000 0.875000
vt 0.250000 0.937500
vt 0.312500 0.937500
vt 0.312500 0.875000
vt 0.437500 0.875000
vt 0.437500 0.937500
vt 0.312500 0.937500
vt 0.437500 0.875000
vt 0.437500 0.937500
vt 0.125000 0.687500
vt 0.062500 0.687500
vt 0.000000 0.625000
vt 0.187500 0.625000
vt 0.000000 0.562500
vt 0.187500 0.562500
vt 0.187500 0.625000
vt 0.000000 0.625000
vt 0.000000 0.562500
vt 0.187500 0.562500
vt 0.187500 0.500000
vt 0.000000 0.500000
vt 0.375000 0.937500
vt 0.375000 1.000000
vt 0.250000 1.000000
vt 0.250000 0.937500
vt 0.250000 0.875000
vt 0.312500 0.875000
vt 0.312500 0.937500
vt 0.250000 0.937500
vt 0.437500 0.875000
vt 0.437500 0.937500
vt 0.437500 0.875000
vt 0.312500 0.875000
vt 0.312500 0.937500
vt 0.437500 0.937500
vt 0.125000 0.687500
vt 0.062500 0.687500
vt 0.000000 0.625000
vt 0.187500 0.625000
vt 0.000000 0.562500
vt 0.187500 0.562500
vt 0.000000 0.500000
vt 0.187500 0.500000
vt 0.500000 0.937500
vt 0.500000 0.875000
vt 0.437500 1.000000
vt 0.437500 0.937500
vt 0.500000 0.875000
vt 0.500000 0.937500
vt 0.375000 0.625000
vt 0.437500 0.625000
vt 0.437500 0.687500
vt 0.375000 0.687500
vt 0.250000 0.687500
vt 0.375000 0.687500
vt 0.375000 0.625000
vt 0.187500 0.625000
vt 0.375000 0.687500
vt 0.250000 0.687500
vt 0.375000 0.625000
vt 0.437500 0.687500
vt 0.375000 0.687500
vt 0.375000 0.625000
vt 0.437500 0.625000
vt 0.250000 0.687500
vt 0.250000 0.687500
vt 0.375000 0.687500
vt 0.375000 0.625000
vt 0.187500 0.625000
vt 0.437500 0.625000
vt 0.500000 0.625000
vt 0.500000 0.687500
vt 0.437500 0.687500
vt 0.500000 0.687500
vt 0.437500 0.687500
vt 0.437500 0.625000
vt 0.500000 0.625000
vt 0.500000 0.562500
vt 0.562500 0.562500
vt 0.625000 0.625000
vt 0.437500 0.625000
vt 0.437500 0.562500
vt 0.250000 0.562500
vt 0.250000 0.625000
vt 0.375000 0.625000
vt 0.250000 0.562500
vt 0.437500 0.562500
vt 0.375000 0.625000
vt 0.250000 0.625000
vt 0.250000 0.562500
vt 0.375000 0.562500
vt 0.375000 0.500000
vt 0.250000 0.500000
vt 0.250000 0.500000
vt 0.250000 0.562500
vt 0.437500 0.562500
vt 0.250000 0.562500
vt 0.250000 0.625000
vt 0.375000 0.625000
vt 0.250000 0.562500
vt 0.250000 0.625000
vt 0.187500 0.562500
vt 0.500000 0.562500
vt 0.562500 0.562500
vt 0.625000 0.625000
vt 0.437500 0.625000
vt 0.437500 0.562500
vt 0.375000 0.625000
vt 0.437500 0.625000
vt 0.500000 0.562500
vt 0.437500 0.562500
vt 0.437500 0.625000
vt 0.437500 0.562500
vt 0.500000 0.562500
vt 0.250000 0.562500
vt 0.250000 0.500000
vt 0.187500 0.500000
vt 0.437500 0.562500
vt 0.375000 0.562500
vt 0.375000 0.500000
vt 0.437500 0.500000
vt 0.375000 0.562500
vt 0.375000 0.500000
vt 0.375000 0.562500
vt 0.375000 0.500000
vt 0.437500 0.500000
vt 0.625000 0.562500
vt 0.625000 0.500000
vt 0.250000 0.562500
vt 0.250000 0.500000
vt 0.187500 0.500000
vt 0.187500 0.562500
vt 0.625000 0.562500
vt 0.437500 0.562500
vt 0.437500 0.500000
vt 0.625000 0.500000
vt 0.375000 0.562500
vt 0.375000 0.500000
vt 0.437500 0.562500
vt 0.500000 0.562500
vt 0.437500 0.562500
vt 0.500000 0.562500
vt 0.437500 0.625000
vt 0.437500 0.500000
vt 0.437500 0.562500
vt 1.000000 1.000000
vt 1.000000 0.937500
vt 0.937500 0.937500
vt 0.937500 1.000000
vt 0.937500 0.937500
vt 0.937500 1.000000
vt 1.000000 1.000000
vt 1.000000 0.937500
vt 1.000000 1.000000
vt 0.937500 1.000000
vt 0.937500 0.937500
vt 1.000000 0.937500
vt 1.000000 0.937500
vt 0.937500 0.937500
vt 0.937500 1.000000
vt 1.000000 1.000000
vn 0.0000 1.0000 0.0000
vn 0.0000 0.0000 1.0000
vn -1.0000 0.0000 0.0000
vn 1.0000 0.0000 0.0000
vn 0.0000 0.7071 -0.7071
vn 0.0000 0.0000 -1.0000
vn 0.0000 0.7071 0.7071
vn 0.7071 0.7071 0.0000
vn 0.7071 0.0000 -0.7071
vn 0.7071 0.0000 0.7071
vn -0.7071 0.7071 0.0000
vn -0.5774 0.5774 0.5774
vn 0.5774 0.5774 -0.5774
vn -0.7071 0.0000 0.7071
vn 0.5774 0.5774 0.5774
vn -0.7071 0.0000 -0.7071
vn -0.5774 0.5774 -0.5774
vn 0.0000 -1.0000 0.0000
usemtl LEVERS
s off
f 1/1/1 2/2/1 4/3/1 3/4/1
f 3/5/2 4/6/2 8/7/2 7/8/2
f 4/9/3 2/10/3 6/11/3 8/12/3
f 1/13/4 3/5/4 7/8/4 5/14/4
f 7/15/1 8/16/1 10/17/1 9/18/1
f 9/19/5 10/20/5 12/21/5 11/22/5
f 11/23/6 12/24/6 14/25/6 13/26/6
f 15/27/1 16/28/1 18/29/1 17/30/1
f 17/31/6 18/32/6 22/33/6 21/34/6
f 18/32/4 16/35/4 20/36/4 22/33/4
f 15/37/3 17/38/3 21/39/3 19/40/3
f 21/41/1 22/42/1 24/43/1 23/44/1
f 23/44/7 24/43/7 26/45/7 25/46/7
f 25/46/2 26/45/2 28/47/2 27/48/2
f 5/49/4 20/36/4 16/35/4 1/50/4
f 1/51/1 16/28/1 15/27/1 2/52/1
f 2/10/3 15/53/3 19/54/3 6/11/3
f 20/55/1 5/56/1 29/57/1 31/58/1
f 22/59/1 20/60/1 31/61/1 24/62/1
f 5/63/1 7/64/1 9/18/1 29/65/1
f 6/66/1 19/67/1 35/68/1 33/69/1
f 19/67/1 21/70/1 23/44/1 35/68/1
f 8/71/1 6/72/1 33/73/1 10/74/1
f 31/75/1 29/76/1 36/77/1 37/78/1
f 33/79/1 35/80/1 39/81/1 38/82/1
f 38/83/8 39/84/8 54/85/8 57/86/8
f 35/87/8 23/88/8 46/89/8 44/90/8
f 10/91/8 33/92/8 45/93/8 34/94/8
f 34/95/4 45/96/4 42/97/4 30/98/4
f 14/25/9 12/24/9 34/95/9 30/98/9
f 25/46/10 27/48/10 43/99/10 46/100/10
f 29/101/11 9/102/11 48/103/11 47/104/11
f 24/105/12 55/106/12 26/107/12
f 37/108/11 36/109/11 51/110/11 52/111/11
f 12/24/13 10/91/13 34/94/13
f 24/105/11 31/112/11 49/113/11 55/106/11
f 31/61/7 37/114/7 52/115/7 49/116/7
f 36/117/5 29/65/5 47/118/5 51/119/5
f 26/107/14 55/120/14 58/121/14 28/122/14
f 51/123/6 47/124/6 53/125/6 32/126/6
f 55/120/3 49/127/3 40/128/3 58/121/3
f 23/88/15 25/46/15 46/89/15
f 49/116/2 52/129/2 56/130/2 40/131/2
f 52/132/3 51/123/3 32/126/3 56/133/3
f 47/124/3 48/134/3 50/135/3 53/125/3
f 13/136/16 50/135/16 48/134/16 11/137/16
f 9/102/17 11/137/17 48/103/17
f 57/138/4 54/139/4 59/140/4 60/141/4
f 44/142/4 46/100/4 43/99/4 41/143/4
f 54/139/2 44/142/2 41/143/2 59/140/2
f 35/68/7 44/144/7 54/145/7 39/81/7
f 38/146/5 57/147/5 45/148/5 33/73/5
f 60/149/6 42/97/6 45/96/6 57/150/6
f 60/151/18 59/152/18 41/153/18 42/154/18
f 56/155/18 32/156/18 53/157/18 40/158/18
f 42/154/18 41/153/18 40/158/18 53/157/18
f 58/159/18 40/158/18 41/153/18 43/160/18
f 27/161/18 28/162/18 58/159/18 43/160/18
f 50/163/18 30/164/18 42/154/18 53/157/18
f 14/165/18 30/164/18 50/163/18 13/166/18
o LEVER_Cube.049
v 0.500000 0.291951 0.610953
v 0.500000 0.400204 0.673453
v 0.588388 0.247756 0.687500
v 0.588388 0.356010 0.750000
v 0.411612 0.247756 0.687500
v 0.411612 0.356010 0.750000
v 0.500000 0.203562 0.764047
v 0.500000 0.311815 0.826547
v 0.531250 0.015625 0.589563
v 0.468750 0.015625 0.589563
v 0.468750 0.046875 0.535437
v 0.531250 0.046875 0.535437
v 0.468750 0.232131 0.714563
v 0.468750 0.263381 0.660437
v 0.531250 0.232131 0.714563
v 0.531250 0.263381 0.660437
vt 0.750000 0.687500
vt 0.750000 0.812500
vt 0.625000 0.812500
vt 0.625000 0.687500
vt 0.750000 0.687500
vt 0.750000 0.812500
vt 0.625000 0.812500
vt 0.625000 0.687500
vt 0.750000 0.687500
vt 0.750000 0.812500
vt 0.625000 0.812500
vt 0.625000 0.687500
vt 0.750000 0.687500
vt 0.750000 0.812500
vt 0.625000 0.812500
vt 0.625000 0.687500
vt 0.750000 0.562500
vt 0.625000 0.562500
vt 0.625000 0.687500
vt 0.500000 0.812500
vt 0.500000 0.687500
vt 0.812500 0.812500
vt 0.875000 0.812500
vt 0.875000 0.562500
vt 0.812500 0.562500
vt 0.875000 0.812500
vt 0.812500 0.812500
vt 0.812500 0.562500
vt 0.875000 0.562500
vt 0.750000 0.812500
vt 0.750000 0.562500
vt 0.812500 0.812500
vt 0.750000 0.812500
vt 0.750000 0.562500
vt 0.812500 0.562500
vn 0.7071 0.3536 -0.6124
vn 0.7071 -0.3536 0.6124
vn -0.7071 -0.3536 0.6124
vn -0.7071 0.3536 -0.6124
vn 0.0000 -0.8660 -0.5000
vn 0.0000 0.8660 0.5000
vn 0.0000 0.5000 -0.8660
vn 0.0000 -0.5000 0.8660
vn -1.0000 0.0000 0.0000
vn 1.0000 -0.0000 0.0000
usemtl LEVERS
s off
f 61/167/19 62/168/19 64/169/19 63/170/19
f 63/171/20 64/172/20 68/173/20 67/174/20
f 67/175/21 68/176/21 66/177/21 65/178/21
f 65/179/22 66/180/22 62/181/22 61/182/22
f 63/171/23 67/183/23 65/184/23 61/182/23
f 68/185/24 64/169/24 62/186/24 66/187/24
f 74/188/25 76/189/25 72/190/25 71/191/25
f 75/192/26 73/193/26 70/194/26 69/195/26
f 73/196/27 74/188/27 71/191/27 70/197/27
f 76/198/28 75/199/28 69/200/28 72/201/28
